<!-- Generated by IcoMoon.io -->
<svg version="1.1" xmlns="http://www.w3.org/2000/svg" width="32" height="32" viewBox="0 0 32 32">
<title>accessibility-l</title>
<path d="M15.996 0c-8.826 0-15.996 7.17-15.996 15.996s7.17 16.004 15.996 16.004c8.826 0 16.004-7.177 16.004-16.004s-7.177-15.996-16.004-15.996zM15.996 1.697c7.908 0 14.307 6.391 14.307 14.299s-6.399 14.307-14.307 14.307c-7.908 0-14.299-6.399-14.299-14.307s6.391-14.299 14.299-14.299zM15.996 3.498c-1.745 0-3.174 1.442-3.174 3.182s1.432 3.176 3.174 3.176c1.741 0 3.182-1.431 3.182-3.176s-1.438-3.182-3.182-3.182zM15.996 5.197c0.815 0 1.477 0.667 1.477 1.482s-0.661 1.471-1.477 1.471c-0.815 0-1.469-0.655-1.469-1.471s0.654-1.482 1.469-1.482zM8.135 9.234c-0.63-0.005-1.248 0.247-1.684 0.73 0 0.001 0 0.003 0 0.004s0 0.003 0 0.004v0c-0.093 0.103-0.16 0.224-0.215 0.35-0.087 0.125-0.217 0.314-0.293 0.633-0.075 0.313-0.063 0.637 0 0.955 0.002 0.089 0.018 0.173 0.045 0.252l-0.002-0.006v0.002c0 0.001 0 0.003 0 0.004s0 0.003 0 0.004v0c0.246 0.758 0.882 1.34 1.668 1.506l4.555 0.967 0.326 3.447-2.953 7.322c-0.299 0.738-0.194 1.592 0.303 2.229 0.087 0.112 0.198 0.2 0.327 0.258l0.005 0.002c0.003 0.003 0.005 0.005 0.008 0.008v0c0.17 0.152 0.318 0.322 0.545 0.42 0.228 0.097 0.481 0.122 0.725 0.074l-0.162 0.014c0.156 0.044 0.318 0.109 0.635 0.066 0.001 0 0.002 0 0.003 0s0.002 0 0.003 0v0c0.793-0.112 1.467-0.637 1.766-1.379l2.088-5.094 2.082 5.086c0.298 0.745 0.978 1.274 1.771 1.387 0.001 0 0.003 0 0.004 0s0.003 0 0.004 0v0c0.334 0.045 0.661-0.005 0.971-0.104 0.087-0.012 0.165-0.035 0.238-0.069l-0.005 0.002c0.324-0.143 0.627-0.366 0.863-0.664 0 0 0.003-0.005 0.006-0.009l0.002-0.004c0.494-0.635 0.612-1.483 0.311-2.223l-2.924-7.242 0.576-3.514 4.621-0.988v0.008c0.786-0.166 1.422-0.748 1.668-1.506 0-0.001 0-0.003 0-0.004s0-0.003 0-0.004v0c0.125-0.391 0.137-0.803 0.045-1.195-0.075-0.322-0.208-0.514-0.295-0.641-0.056-0.129-0.127-0.252-0.223-0.357-0.406-0.448-0.968-0.702-1.551-0.73-0.188-0.009-0.381 0.002-0.582 0.045l-5.699 1.211h-3.418l-5.699-1.211c-0.004-0.001-0.009 0.001-0.014 0-0.001 0 0.001-0.008 0-0.008h-0.016c-0.014-0.003-0.028-0.006-0.043-0.008-0.035-0.003-0.050-0.003-0.082-0.006h-0.059l-0.053-0.008c-0.054-0.007-0.094-0.015-0.184-0.016-0.001 0-0.003 0-0.004 0s-0.003 0-0.004 0v0zM26.014 12.158c0.026-0.072 0.042-0.156 0.045-0.243v-0.002l-0.045 0.244zM11.967 28.479l-0.111 0.008c0.039 0 0.078-0.003 0.116-0.008l-0.005 0.001zM8.127 10.932c-0.028 0 0.020-0.001 0.090 0.008 0.006 0 0.012 0 0.019 0s0.013 0 0.020 0h-0.001c0.006 0.002 0.018 0.004 0.030 0.007l0.005 0.001 5.736 1.225c0.049 0.010 0.105 0.016 0.163 0.016 0.005 0 0.010 0 0.016 0h3.593c0.004 0 0.010 0 0.015 0 0.058 0 0.114-0.006 0.168-0.017l-0.005 0.001 5.787-1.232c0.046-0.010 0.099-0.010 0.148-0.008 0.125 0.006 0.239 0.064 0.332 0.148 0.019 0.043 0.039 0.080 0.061 0.115l-0.002-0.004c0.102 0.153 0.115 0.203 0.104 0.154 0 0.001 0 0.003 0 0.004s0 0.003 0 0.004v0c0.023 0.098 0.022 0.193-0.008 0.287-0.060 0.185-0.21 0.322-0.398 0.361l-5.197 1.107c-0.338 0.076-0.596 0.345-0.655 0.682l-0.001 0.005-0.717 4.332c-0.006 0.039-0.010 0.084-0.010 0.131 0 0.116 0.023 0.226 0.065 0.326l-0.002-0.006 3.012 7.463c0 0.001 0 0.003 0 0.004s0 0.003 0 0.004v0c0.074 0.182 0.053 0.386-0.066 0.539-0.054 0.069-0.13 0.124-0.215 0.162-0.002 0.001-0.004-0.001-0.006 0-0.091 0.039-0.194 0.056-0.289 0.045h-0.008c-0.19-0.029-0.349-0.155-0.42-0.332 0-0.001 0-0.003 0-0.004s0-0.003 0-0.004v0l-2.879-7.006c-0.131-0.312-0.433-0.527-0.786-0.527s-0.655 0.215-0.784 0.521l-0.002 0.006-2.871 7.006c-0.003 0.003-0.005 0.005-0.008 0.008v0c-0.072 0.179-0.23 0.305-0.422 0.332 0.064-0.009 0.017-0.008-0.191-0.061-0.045-0.011-0.098-0.019-0.152-0.021h-0.002c-0.055-0.033-0.115-0.065-0.162-0.125-0.119-0.153-0.148-0.356-0.074-0.539l3.033-7.521c0.040-0.095 0.062-0.204 0.062-0.32 0-0.028-0.001-0.056-0.004-0.084v0.003l-0.404-4.273c-0.036-0.374-0.31-0.674-0.666-0.751l-0.006-0.001-5.168-1.102c-0.188-0.040-0.338-0.176-0.398-0.361-0.030-0.094-0.031-0.189-0.008-0.287 0-0.001 0-0.003 0-0.004s0-0.003 0-0.004v0c-0.011 0.049 0.001 0 0.104-0.154 0.020-0.027 0.039-0.059 0.056-0.091l0.002-0.005c0.099-0.091 0.227-0.166 0.369-0.164z"></path>
</svg>
