<!-- Generated by IcoMoon.io -->
<svg version="1.1" xmlns="http://www.w3.org/2000/svg" width="29" height="32" viewBox="0 0 29 32">
<title>acorn-r</title>
<path d="M15.306 0c-0.221 0.007-0.413 0.123-0.526 0.296l-0.002 0.003c-0.519 0.811-1.108 1.676-1.434 2.652-0.155 0.465-0.118 0.813-0.127 1.195h-6.172c-3.882 0-7.047 3.165-7.047 7.047v1.213c0 0.807 0.236 1.434 0.338 1.812 0.171 0.636 0.755 1.084 1.414 1.084h0.443c0.552 8.509 5.818 15.485 12.224 16.685 0.036 0.007 0.078 0.011 0.12 0.011 0.015 0 0.030 0 0.044-0.001h-0.002c0.015 0.001 0.033 0.002 0.051 0.002 0.044 0 0.086-0.004 0.127-0.012l-0.004 0.001c6.406-1.2 11.672-8.176 12.224-16.685h0.443c0.659 0 1.243-0.448 1.414-1.084 0.102-0.378 0.338-1.006 0.338-1.812v-1.213c0-3.882-3.165-7.047-7.047-7.047h-6.019c0.013-0.081-0.013-0.175 0.018-0.266 0.119-0.358 0.603-1.192 1.121-2.002 0.064-0.099 0.103-0.22 0.103-0.351 0-0.229-0.118-0.43-0.297-0.546l-0.003-0.002-1.375-0.879c-0.099-0.064-0.22-0.102-0.349-0.102-0.007 0-0.014 0-0.021 0h0.001zM7.047 7.076h15.082c2.31 0 4.115 1.807 4.115 4.117v1.18h-23.312v-1.18c0-2.31 1.805-4.117 4.115-4.117zM5.139 15.303h18.898c-0.555 7.047-5.013 12.551-9.449 13.631-4.436-1.080-8.894-6.584-9.449-13.631z"></path>
</svg>
