<!-- Generated by IcoMoon.io -->
<svg version="1.1" xmlns="http://www.w3.org/2000/svg" width="28" height="32" viewBox="0 0 28 32">
<title>address-book-l</title>
<path d="M3.291 0v1.904h-3.291v6h3.291v2h-3.291v6h0.85c0 0 1.317 0 2.441 0v2h-3.291v6h3.291v2.094h-3.291v6.002l0.85-0.002c0 0 1.317 0 2.441 0v0.002h24.426v-32zM4.992 1.699h21.025v28.602h-21.016c-0.149 0-0.58 0-0.859 0-0.795 0-1.768 0-2.443 0v-2.604h3.301v-1.699h-0.008v-2.094h0.008v-1.697h-3.301v-2.605h3.301v-1.697h-0.008v-2c0.001 0 0.006 0 0.008 0l0.002-1.697c-0.572-0.001-2.39 0-3.303 0v-2.605h3.301v-1.697h-0.008v-2h0.008v-1.697h-3.301v-2.605h3.301v-1.697h-0.008zM15.504 8.006c-2.346 0-4.266 1.919-4.266 4.266s1.919 4.266 4.266 4.266c2.346 0 4.266-1.919 4.266-4.266s-1.92-4.266-4.266-4.266zM15.504 9.705c1.427 0 2.566 1.139 2.566 2.566s-1.138 2.566-2.566 2.566-2.566-1.138-2.566-2.566c0-1.428 1.138-2.566 2.566-2.566zM13.791 17.158c-2.351 0-4.273 1.925-4.273 4.275v2.561h11.973v-2.561c0-2.35-1.922-4.275-4.273-4.275zM13.791 18.857h3.426c1.432 0 2.574 1.144 2.574 2.576v0.861h-8.574v-0.861c0-1.432 1.143-2.576 2.574-2.576z"></path>
</svg>
