<!-- Generated by IcoMoon.io -->
<svg version="1.1" xmlns="http://www.w3.org/2000/svg" width="32" height="32" viewBox="0 0 32 32">
<title>aid-kit-l</title>
<path d="M11.717 1c-0.966 0-1.717 0.832-1.717 1.772v4.055h-5.57c-2.44 0-4.43 1.99-4.43 4.43v15.314c0 2.44 1.99 4.43 4.43 4.43h23.141c2.44 0 4.43-1.99 4.43-4.43v-15.314c0-2.44-1.99-4.43-4.43-4.43h-5.57v-4.055c0-0.94-0.751-1.772-1.717-1.772zM11.717 2.699h8.566c-0.005 0 0.018-0.010 0.018 0.072v4.055h-8.602v-4.055c0-0.082 0.023-0.072 0.018-0.072zM4.43 8.525h23.141c1.527 0 2.73 1.203 2.73 2.73v15.314c0 1.527-1.203 2.73-2.73 2.73h-23.141c-1.527 0-2.73-1.203-2.73-2.73v-15.314c0-1.527 1.203-2.73 2.73-2.73zM17.5 12.162l-3 0.002c0 1.749 0 3.499 0 5.248-1.75 0-3.5 0-5.25 0v3c1.751 0 3.5 0 5.25 0 0 1.75 0 3.499 0 5.25l3 0.002c0-1.751 0-3.501 0-5.252 1.75 0 3.5 0 5.25 0v-3c-1.749 0-3.5 0-5.25 0 0-1.75 0-3.501 0-5.25z"></path>
</svg>
