<!-- Generated by IcoMoon.io -->
<svg version="1.1" xmlns="http://www.w3.org/2000/svg" width="32" height="32" viewBox="0 0 32 32">
<title>airplane-r</title>
<path d="M26.281 0l-14.514 5.807-3.721-3.721c-0.906-0.906-2.006-1.5-3.168-1.699-1.177-0.202-2.531 0.035-3.494 0.998s-1.2 2.317-0.998 3.494c0.2 1.164 0.796 2.262 1.699 3.166l3.721 3.721-5.807 14.516 5.719 5.719 8.711-11.611 2.82 2.82v7.838h6.518l1.82-5.461 5.461-1.82v-6.52h-7.842l-2.818-2.818 11.611-8.709zM4.371 3.342c0.47 0.081 1.056 0.366 1.555 0.865l5.119 5.119 14.514-5.807 1.875 1.875-11.609 8.709 6.141 6.143h6.084v1.357l-4.832 1.609-1.611 4.834h-1.355v-6.080l-6.145-6.145-8.711 11.611-1.875-1.875 5.807-14.516-5.119-5.119c-0.5-0.5-0.785-1.085-0.865-1.553-0.078-0.455 0.021-0.722 0.164-0.865s0.41-0.242 0.865-0.164z"></path>
</svg>
