<!-- Generated by IcoMoon.io -->
<svg version="1.1" xmlns="http://www.w3.org/2000/svg" width="29" height="32" viewBox="0 0 29 32">
<title>alarm-l</title>
<path d="M6.054 0.017c-1.126 0.081-2.242 0.453-3.227 1.129-2.623 1.803-3.561 5.25-2.219 8.135 0.102 0.233 0.294 0.408 0.506 0.475 0.214 0.067 0.431 0.039 0.615-0.047s0.345-0.235 0.432-0.441c0.086-0.206 0.080-0.468-0.035-0.697-0.998-2.152-0.303-4.697 1.652-6.041 1.959-1.346 4.587-1.081 6.238 0.629 0.173 0.183 0.411 0.278 0.631 0.27s0.416-0.104 0.561-0.244 0.246-0.33 0.262-0.551c0.016-0.221-0.072-0.463-0.25-0.643-1.106-1.144-2.547-1.807-4.039-1.957-0.373-0.038-0.752-0.043-1.127-0.016zM23.015 0.017c-0.375-0.027-0.753-0.022-1.127 0.016-1.492 0.15-2.933 0.814-4.039 1.957-0.178 0.18-0.266 0.422-0.25 0.643s0.117 0.411 0.262 0.551c0.145 0.14 0.34 0.236 0.561 0.244s0.457-0.087 0.631-0.27l0.002-0.002c1.651-1.708 4.279-1.973 6.236-0.627 1.956 1.344 2.65 3.889 1.652 6.041-0.115 0.229-0.122 0.491-0.035 0.697s0.247 0.356 0.432 0.441c0.184 0.086 0.402 0.114 0.615 0.047s0.404-0.242 0.506-0.475c1.342-2.885 0.404-6.332-2.219-8.135-0.984-0.676-2.1-1.048-3.227-1.129zM14.535 3.785c-7.782 0-14.108 6.326-14.108 14.108s6.326 14.108 14.108 14.108c7.782 0 14.108-6.326 14.108-14.108s-6.326-14.108-14.108-14.108zM14.535 5.462c6.875 0 12.43 5.555 12.43 12.43s-5.555 12.43-12.43 12.43c-6.875 0-12.43-5.555-12.43-12.43s5.555-12.43 12.43-12.43zM12.369 9.976v0.35c0.001 3.158 0 8.988 0 8.988v0.84h8.281v-1.678h-6.604c0-0.886 0.001-5.287 0-8.151v-0.35z"></path>
</svg>
