<!-- Generated by IcoMoon.io -->
<svg version="1.1" xmlns="http://www.w3.org/2000/svg" width="32" height="32" viewBox="0 0 32 32">
<title>alien-s</title>
<path d="M16.014 0.011c-3.647-0.135-7.245 0.936-10.134 3.059-1.817 1.335-3.361 3.074-4.411 5.111-1.052 2.040-1.589 4.356-1.446 6.684 0.191 3.134 1.57 5.973 3.315 8.348 1.396 1.899 3.042 3.55 4.765 5.046 1.442 1.253 3.088 2.544 5.148 3.237 0.846 0.284 1.726 0.454 2.615 0.502 0.023 0.001 0.051 0.002 0.078 0.002s0.055-0.001 0.082-0.002h-0.004c0.003 0 0.007 0 0.011 0s0.008 0 0.011 0h-0.001c0.017 0.001 0.036 0.001 0.056 0.001s0.039 0 0.058-0.001h-0.003c0.889-0.049 1.77-0.218 2.615-0.502 2.060-0.692 3.706-1.984 5.148-3.237 1.723-1.497 3.369-3.147 4.765-5.046 1.745-2.374 3.123-5.214 3.315-8.348 0.142-2.328-0.394-4.644-1.446-6.684-1.050-2.037-2.594-3.776-4.411-5.111-2.887-2.121-6.482-3.191-10.126-3.059zM25.577 12.248c0.676 0.023 1.348 0.14 1.997 0.344 0.132 0.011 0.252 0.050 0.358 0.111l-0.004-0.002c0.292 0.139 0.49 0.432 0.49 0.771 0 0.149-0.038 0.289-0.105 0.41l0.002-0.004c-0.188 2.127-1.161 4.159-2.732 5.611-1.253 1.156-2.839 1.926-4.521 2.201-0.918 0.149-1.858 0.145-2.777 0.004-0.001 0-0.003 0-0.005 0-0.471 0-0.853-0.382-0.853-0.853 0-0.039 0.003-0.077 0.008-0.115v0.004c0.134-1.073 0.4-2.127 0.797-3.133 0.494-1.253 1.215-2.478 2.261-3.442 0.961-0.882 2.149-1.501 3.434-1.765h0.008c0.319-0.065 0.641-0.108 0.965-0.131 0.225-0.015 0.451-0.019 0.676-0.011zM6.146 12.26c0.648-0.043 1.302 0.001 1.941 0.131h0.008c1.285 0.264 2.475 0.883 3.436 1.765 1.047 0.964 1.757 2.189 2.252 3.442 0.397 1.006 0.671 2.061 0.805 3.133 0.001 0.004 0.001 0.012 0.002 0.020v0.003c0.003 0.026 0.005 0.057 0.005 0.088 0 0.467-0.375 0.846-0.84 0.853h-0.001c-0.924 0.144-1.868 0.148-2.791-0.002-1.682-0.275-3.27-1.045-4.523-2.201-1.576-1.456-2.559-3.494-2.744-5.627-0.060-0.113-0.094-0.247-0.094-0.39 0-0.329 0.186-0.614 0.459-0.755l0.005-0.002c0 0 0.005-0.003 0.011-0.005l0.005-0.002c0.104-0.063 0.228-0.104 0.36-0.115h0.003c0.555-0.175 1.125-0.294 1.702-0.332z"></path>
</svg>
