<!-- Generated by IcoMoon.io -->
<svg version="1.1" xmlns="http://www.w3.org/2000/svg" width="32" height="32" viewBox="0 0 32 32">
<title>amazon</title>
<path d="M16.13 1.187c-3.662 0-7.751 1.37-8.607 5.895-0.094 0.481 0.264 0.739 0.576 0.807l3.73 0.406c0.35-0.019 0.599-0.363 0.668-0.713 0.319-1.556 1.627-2.314 3.096-2.314 0.794 0 1.693 0.287 2.162 1 0.538 0.794 0.469 1.876 0.469 2.795v0.5c-2.231 0.25-5.15 0.411-7.238 1.33-2.412 1.044-4.105 3.17-4.105 6.295 0 4 2.52 6 5.764 6 2.738 0 4.231-0.645 6.344-2.807 0.7 1.012 0.924 1.507 2.205 2.57 0.293 0.156 0.655 0.143 0.912-0.086l0.006 0.006c0.775-0.681 2.17-1.901 2.957-2.557 0.313-0.25 0.256-0.67 0.012-1.020-0.706-0.975-1.457-1.768-1.457-3.568v-6c0-2.544 0.176-4.875-1.693-6.625-1.475-1.413-3.924-1.914-5.799-1.914zM18.23 12.644v0.83l-0.006 0.002c0 1.5 0.038 2.749-0.719 4.080-0.613 1.087-1.581 1.75-2.662 1.75-1.475 0-2.338-1.124-2.338-2.787 0-3.281 2.944-3.875 5.725-3.875zM29.646 23.608c-1.12 0.016-2.444 0.266-3.447 0.969-0.307 0.219-0.256 0.513 0.088 0.475 1.132-0.138 3.644-0.438 4.094 0.137v0.002c0.45 0.575-0.495 2.936-0.926 3.992-0.125 0.319 0.151 0.451 0.439 0.207 1.881-1.575 2.367-4.869 1.98-5.344-0.191-0.235-1.108-0.453-2.229-0.438zM0.232 24.241c-0.232 0.031-0.332 0.315-0.088 0.535 4.175 3.776 9.693 6.037 15.824 6.037 4.375 0 9.451-1.376 12.957-3.963 0.581-0.425 0.081-1.068-0.506-0.818-3.931 1.669-8.201 2.475-12.082 2.475-5.757 0-11.332-1.576-15.838-4.201-0.099-0.058-0.19-0.075-0.268-0.064z"></path>
</svg>
