<!-- Generated by IcoMoon.io -->
<svg version="1.1" xmlns="http://www.w3.org/2000/svg" width="32" height="32" viewBox="0 0 32 32">
<title>arrow-l</title>
<path d="M18.323 1.846c-0.571 0.008-1.031 0.473-1.031 1.046v6.738h-16.243c-0.001 0-0.001 0-0.002 0-0.578 0-1.046 0.468-1.046 1.046v10.647c0 0.578 0.469 1.046 1.046 1.046 0.001 0 0.001 0 0.002 0h16.243v6.738c0 0 0 0.001 0 0.001 0 0.578 0.468 1.046 1.046 1.046 0.289 0 0.551-0.117 0.74-0.307l13.109-13.109c0.189-0.189 0.306-0.451 0.306-0.739s-0.117-0.55-0.306-0.739v0l-13.109-13.109c-0.189-0.189-0.45-0.305-0.739-0.305-0.006 0-0.011 0-0.017 0h0.001zM19.385 5.416l10.584 10.582-10.584 10.584v-5.26c0-0.578-0.468-1.046-1.046-1.046-0.001 0-0.001 0-0.002 0h-16.243v-8.556h16.243c0.001 0 0.001 0 0.002 0 0.578 0 1.046-0.468 1.046-1.046v0z"></path>
</svg>
