<!-- Generated by IcoMoon.io -->
<svg version="1.1" xmlns="http://www.w3.org/2000/svg" width="30" height="32" viewBox="0 0 30 32">
<title>astronaut-r</title>
<path d="M14.885 0c-6.192 0-11.338 4.646-11.338 10.486 0 0.574 0.062 1.132 0.158 1.68l-0.534 0.056c-0.751 0.079-0.965 0.236-1.147 0.842-0.202 0.673-0.35 3.662-0.314 6.347l0.027 2.021c-1.085 1.411-1.738 3.17-1.738 5.083v3.154c0 0.732 0.218 1.148 0.241 1.289 0.096 0.592 0.604 1.039 1.216 1.041h26.865c0.613 0 1.121-0.447 1.217-1.033l0.001-0.007c0.023-0.145 0.239-0.561 0.239-1.289v-3.154c0-1.915-0.652-3.677-1.738-5.089l0.027-2.015c0.035-2.685-0.113-5.674-0.314-6.347-0.182-0.606-0.396-0.763-1.146-0.842l-0.54-0.058c0.095-0.547 0.158-1.105 0.158-1.678 0-5.84-5.148-10.486-11.34-10.486zM14.885 2.468c4.971 0 8.877 3.633 8.877 8.018s-3.906 8.026-8.877 8.026-8.87-3.641-8.87-8.025c0-4.385 3.898-8.018 8.87-8.018zM9.135 7.139c-0.94 0.966-1.509 2.195-1.513 3.529v0.001c0 3.203 3.253 5.8 7.266 5.8 0 0 0 0 0 0v0c0 0 0 0 0 0 4.013 0 7.266-2.597 7.266-5.8v0c-0.002-1.335-0.57-2.564-1.521-3.543l0.012 0.013zM12.265 8.137c0.101 0 0.509 2.385 0.58 2.457s2.457 0.479 2.457 0.58c0 0.101-2.385 0.509-2.457 0.58s-0.479 2.457-0.58 2.457c-0.101 0-0.509-2.385-0.58-2.457s-2.457-0.479-2.457-0.58c0-0.101 2.385-0.509 2.457-0.58s0.479-2.457 0.58-2.457zM22.722 18.053l-0.193 0.179c-0.006-0.001-0.013-0.001-0.019-0.002 0.070-0.059 0.143-0.116 0.212-0.177zM7.112 18.107c0.049 0.043 0.1 0.083 0.15 0.125-0.005 0.001-0.009 0.001-0.013 0.002zM20.23 20.398c-0.003 0.004-0.007 0.008-0.029 0.023-0.029 0.019-0.146 0.082-0.145 0.081 0.026-0.015 0.159-0.095 0.173-0.104zM8.374 20.61h1.617c0.147 0.069 0.263 0.124 0.461 0.204-0.002 0 0.006 0.002 0.013 0.005l0.009 0.003c0.35 0.135 0.703 0.254 1.064 0.356 0.363 0.104 0.729 0.193 1.098 0.262 0.377 0.070 0.752 0.116 1.116 0.152 0.001 0 0.002 0 0.003 0s0.002 0 0.003 0v0c0.378 0.034 0.76 0.052 1.137 0.052 0.277 0 0.543-0.015 0.794-0.030 0.377-0.023 0.756-0.064 1.129-0.123 0.372-0.059 0.742-0.133 1.106-0.225 0.366-0.092 0.726-0.202 1.079-0.328 0.269-0.096 0.533-0.213 0.794-0.328h1.617c3.291 0 5.898 2.615 5.898 5.906v3.016h-3.189v-4.981c0 0 0 0 0 0 0-0.463-0.375-0.838-0.838-0.839h-15.899c-0.013-0.001-0.028-0.001-0.043-0.001s-0.030 0-0.045 0.001h0.002c-0.423 0.047-0.75 0.402-0.75 0.834 0 0.002 0 0.003 0 0.005v0 4.981h-4.079v-3.016c0-3.291 2.615-5.906 5.906-5.906zM10.86 25.776c0 0 0.001 0 0.001 0 1.030 0 1.864 0.835 1.864 1.864 0 0 0 0.001 0 0.001v0c-0.001 1.029-0.835 1.863-1.864 1.863 0 0-0.001 0-0.001 0v0c-1.029-0.001-1.863-0.834-1.863-1.863v0c0 0 0-0.001 0-0.001 0-1.029 0.834-1.864 1.863-1.864v0zM15.585 26.406h6.985v2.47h-6.985z"></path>
</svg>
