<!-- Generated by IcoMoon.io -->
<svg version="1.1" xmlns="http://www.w3.org/2000/svg" width="32" height="32" viewBox="0 0 32 32">
<title>attachment-s</title>
<path d="M9.631 0c-5.337 0-9.631 4.296-9.631 9.633v12.734c0 5.337 4.294 9.633 9.631 9.633h12.736c5.337 0 9.633-4.296 9.633-9.633v-12.734c0-5.337-4.296-9.633-9.633-9.633zM21.545 3.504c1.482-0.050 2.934 0.522 3.982 1.57s1.62 2.501 1.57 3.982c-0.021 0.627-0.177 1.27-0.615 2.025s-1.148 1.636-2.297 2.836c-2.282 2.383-5.892 5.992-8.096 8.1-1.105 1.057-1.81 1.658-2.354 2.018s-0.97 0.47-1.344 0.482c-0.937 0.032-1.845-0.325-2.508-0.988s-1.020-1.571-0.988-2.508c0.013-0.374 0.122-0.798 0.484-1.346s0.974-1.26 2.045-2.383c2.136-2.238 5.815-5.893 9.473-9.564 0.272-0.287 0.629-0.426 0.961-0.41s0.627 0.167 0.846 0.385c0.219 0.218 0.372 0.512 0.389 0.844s-0.12 0.69-0.406 0.963c-3.665 3.679-7.348 7.336-11.010 11.010l-0.002 0.002c-0.14 0.14-0.251 0.396-0.258 0.586-0.007 0.205 0.106 0.491 0.252 0.637s0.432 0.259 0.637 0.252c0.19-0.006 0.446-0.118 0.586-0.258l0.043-0.041c0.026-0.026 0.050-0.052 0.076-0.078 3.57-3.569 7.141-7.138 10.709-10.707 0.010-0.010 0.011-0.013 0.008-0.010 0.499-0.497 0.822-1.232 0.846-1.93 0.025-0.755-0.297-1.577-0.832-2.111s-1.358-0.861-2.113-0.836c-0.697 0.024-1.43 0.345-1.928 0.844l-0.006 0.006c-0.013 0.014-0.025 0.026-0.039 0.039l-0.016 0.014c-3.592 3.593-7.183 7.187-10.777 10.779l-0.002 0.002c-0.008 0.008-0.016 0.014-0.023 0.021l-0.002 0.002c-0.841 0.851-1.372 2.057-1.412 3.244-0.044 1.299 0.495 2.665 1.414 3.584s2.283 1.458 3.582 1.414c1.199-0.040 2.422-0.579 3.273-1.434h0.002c0.025-0.025 0.040-0.038 0.043-0.041 2.549-2.554 5.103-5.099 7.645-7.648 0.274-0.274 0.629-0.404 0.955-0.385s0.616 0.17 0.832 0.385c0.216 0.215 0.365 0.504 0.385 0.83s-0.109 0.681-0.383 0.955c-2.561 2.569-5.132 5.125-7.164 7.061-2.066 1.968-3.746 2.74-5.502 2.799-2.025 0.068-4.021-0.718-5.453-2.15s-2.221-3.429-2.152-5.453c0.060-1.768 0.849-3.471 3.359-6.066 2.484-2.569 6.068-6.153 8.436-8.422 1.192-1.143 2.068-1.849 2.822-2.285s1.4-0.594 2.027-0.615z"></path>
</svg>
