<!-- Generated by IcoMoon.io -->
<svg version="1.1" xmlns="http://www.w3.org/2000/svg" width="24" height="32" viewBox="0 0 24 32">
<title>award-s</title>
<path d="M12.187 0v0.002c-0.807-0.008-1.423 0.355-1.832 0.645s-0.663 0.487-1.037 0.584c-0.363 0.093-0.666 0.040-1.158-0.019-0.492-0.057-1.211-0.077-1.908 0.318-0.702 0.399-1.058 1.021-1.268 1.477s-0.322 0.751-0.598 1.022c-0.268 0.262-0.559 0.37-1.014 0.566s-1.086 0.535-1.492 1.227c-0.409 0.696-0.407 1.417-0.361 1.916s0.094 0.811-0.010 1.184c-0.1 0.361-0.3 0.604-0.596 1.002s-0.672 1.003-0.678 1.805c-0.006 0.807 0.359 1.428 0.648 1.838s0.489 0.659 0.586 1.033c0.094 0.363 0.040 0.666-0.018 1.158s-0.081 1.209 0.314 1.906c0.399 0.702 1.021 1.058 1.477 1.268s0.753 0.328 1.023 0.604c0.262 0.268 0.37 0.559 0.566 1.014s0.535 1.086 1.227 1.492c0.696 0.409 1.415 0.401 1.914 0.356s0.815-0.091 1.188 0.011c0.361 0.101 0.599 0.298 0.996 0.594s1.009 0.674 1.811 0.68c0.807 0.008 1.423-0.357 1.832-0.647s0.663-0.487 1.037-0.584c0.363-0.093 0.666-0.038 1.158 0.019s1.211 0.076 1.908-0.32c0.702-0.398 1.056-1.019 1.266-1.475s0.324-0.756 0.6-1.027c0.267-0.262 0.561-0.368 1.016-0.564s1.084-0.537 1.49-1.229c0.409-0.696 0.405-1.411 0.359-1.91s-0.096-0.817 0.008-1.19c0.1-0.361 0.304-0.599 0.6-0.996s0.672-1.005 0.678-1.807c0.006-0.807-0.359-1.427-0.648-1.836s-0.489-0.659-0.586-1.033c-0.094-0.363-0.038-0.672 0.020-1.164s0.079-1.203-0.316-1.9c-0.399-0.702-1.021-1.058-1.477-1.268s-0.755-0.328-1.025-0.604c-0.262-0.268-0.368-0.559-0.564-1.014s-0.535-1.086-1.227-1.492c-0.696-0.409-1.413-0.405-1.912-0.359s-0.817 0.095-1.19-0.008c-0.361-0.101-0.597-0.304-0.994-0.6s-1.011-0.668-1.813-0.674zM12.074 4.332c4.135 0 7.508 3.373 7.508 7.508s-3.373 7.508-7.508 7.508-7.5-3.373-7.5-7.508c0-4.135 3.365-7.508 7.5-7.508zM20.318 20.936c-0.035 0.076-0.054 0.112-0.104 0.221-0.249 0.541-0.738 1.424-1.742 1.994-1.005 0.571-2.017 0.532-2.609 0.463-0.001 0-0.001 0-0.002 0s-0.001 0-0.002 0v0c-0.52-0.060-0.625-0.075-0.734-0.049-0.128 0.034-0.231 0.107-0.66 0.41-0.322 0.228-0.829 0.529-1.469 0.707l0.547 0.941c0.016 0.029 0.031 0.054 0.047 0.077l-0.002-0.003 1.631 2.834 1.676 2.887c0.438 0.774 1.644 0.774 2.082 0l1.328-2.297h2.651c0.889 0.008 1.498-1.034 1.049-1.801l-3.352-5.803zM3.786 21.026l-0.283 0.492-3.352 5.803c-0.449 0.767 0.16 1.81 1.049 1.801h2.651l1.328 2.295c0.438 0.775 1.644 0.775 2.082 0l1.676-2.885 1.647-2.858c0.008-0.013 0.018-0.030 0.027-0.048l0.002-0.005 0.518-0.891c-0.742-0.176-1.308-0.544-1.66-0.807-0.416-0.31-0.504-0.376-0.615-0.406-0.129-0.038-0.251-0.026-0.775 0.023-0.588 0.054-1.602 0.079-2.602-0.508-0.987-0.58-1.455-1.464-1.691-2.008z"></path>
</svg>
