<!-- Generated by IcoMoon.io -->
<svg version="1.1" xmlns="http://www.w3.org/2000/svg" width="24" height="32" viewBox="0 0 24 32">
<title>award-r</title>
<path d="M12.293 0c-0.923-0.004-1.617 0.406-2.045 0.709-0.401 0.283-0.584 0.432-0.85 0.502-0.251 0.065-0.477 0.026-0.967-0.030-0.519-0.060-1.324-0.086-2.125 0.369-0.803 0.456-1.205 1.16-1.426 1.639-0.21 0.455-0.294 0.668-0.486 0.857-0.187 0.183-0.401 0.263-0.85 0.457-0.475 0.205-1.193 0.585-1.66 1.381s-0.454 1.602-0.406 2.125c0.045 0.494 0.073 0.727 0 0.99-0.070 0.252-0.209 0.424-0.502 0.818-0.31 0.417-0.739 1.101-0.746 2.024s0.404 1.621 0.709 2.053c0.287 0.406 0.434 0.591 0.502 0.855 0.066 0.256 0.027 0.474-0.029 0.959-0.060 0.517-0.086 1.325 0.369 2.127 0.454 0.8 1.149 1.196 1.631 1.418 0.444 0.204 0.662 0.299 0.85 0.486l-0.797 1.389-1.625 2.813-1.631 2.818h0.008c-0.623 1.064 0.174 2.45 1.41 2.438h2.311l1.15 1.992c0.609 1.077 2.212 1.077 2.82 0l1.617-2.797c0-0.001 0-0.002 0-0.004s0-0.003 0-0.004v0l1.549-2.688c0.036-0.047 0.068-0.1 0.094-0.157l0.002-0.005 0.945-1.633c0.047 0 0.079-0.011 0.125-0.015l0.975 1.682c-0.004-0.008 0.009 0.011 0.023 0.039l1.602 2.783 1.623 2.805c0.607 1.074 2.2 1.068 2.813 0l1.16-2h2.311c1.15 0.015 1.901-1.176 1.508-2.199-0.019-0.090-0.051-0.169-0.094-0.242l0.002 0.004-1.631-2.818-1.623-2.813-0.775-1.352c0.165-0.123 0.323-0.213 0.686-0.369 0.477-0.206 1.195-0.586 1.662-1.381s0.461-1.605 0.412-2.133c-0.046-0.496-0.079-0.72-0.006-0.982 0.070-0.252 0.216-0.426 0.508-0.818 0.31-0.416 0.739-1.108 0.746-2.031 0.007-0.925-0.406-1.615-0.709-2.043-0.288-0.408-0.434-0.595-0.502-0.857-0.065-0.251-0.028-0.47 0.029-0.959 0.060-0.517 0.086-1.333-0.369-2.135-0.458-0.806-1.165-1.19-1.639-1.408 0-0.001 0-0.002 0-0.004s0-0.003 0-0.004v0c-0.45-0.207-0.663-0.292-0.855-0.488-0.001 0-0.003 0-0.004 0s-0.003 0-0.004 0v0c-0.18-0.183-0.253-0.393-0.449-0.848-0.206-0.476-0.586-1.195-1.381-1.662-0.8-0.47-1.607-0.454-2.127-0.406-0.493 0.045-0.723 0.082-0.988 0.008-0.247-0.069-0.424-0.215-0.82-0.51-0.315-0.235-0.917-0.424-1.52-0.561-0.136-0.112-0.31-0.181-0.501-0.184h-0.001c-0.001 0-0.003 0-0.004 0s-0.003 0-0.004 0v0zM12.278 2.561c0.246 0.002 0.199-0.001 0.518 0.236 0.294 0.218 0.835 0.694 1.66 0.924 0.828 0.231 1.529 0.115 1.904 0.080 0.402-0.038 0.385-0.063 0.605 0.067 0.211 0.124 0.168 0.099 0.326 0.465 0.145 0.336 0.374 1.013 0.975 1.625 0.603 0.615 1.277 0.864 1.615 1.020 0.367 0.169 0.361 0.138 0.488 0.361 0.121 0.213 0.089 0.172 0.043 0.568-0.043 0.369-0.176 1.070 0.037 1.897 0.214 0.832 0.669 1.383 0.887 1.691 0.232 0.328 0.246 0.293 0.244 0.553-0.002 0.246-0.005 0.189-0.244 0.51-0.22 0.295-0.686 0.835-0.916 1.66-0.231 0.831-0.108 1.541-0.074 1.912 0.037 0.398 0.061 0.37-0.072 0.598-0.125 0.213-0.103 0.167-0.467 0.324-0.334 0.144-1.018 0.381-1.631 0.982-0.616 0.605-0.862 1.281-1.018 1.617-0.169 0.367-0.132 0.359-0.355 0.486-0.216 0.122-0.176 0.098-0.568 0.053-0.359-0.042-1.064-0.187-1.897 0.030-0.832 0.214-1.389 0.669-1.697 0.887-0.333 0.235-0.289 0.246-0.547 0.244-0.246-0.002-0.199-0.008-0.518-0.244-0.295-0.219-0.835-0.686-1.66-0.916-0.832-0.232-1.541-0.115-1.912-0.080-0.403 0.038-0.375 0.064-0.598-0.067-0.215-0.126-0.168-0.104-0.324-0.467-0.144-0.333-0.38-1.009-0.982-1.623s-1.271-0.869-1.609-1.025c-0.368-0.17-0.36-0.134-0.486-0.356-0.12-0.212-0.092-0.169-0.045-0.568 0.043-0.367 0.177-1.067-0.037-1.897-0.215-0.834-0.678-1.388-0.893-1.691-0.232-0.328-0.238-0.293-0.236-0.553 0.002-0.244 0.004-0.197 0.242-0.518 0.22-0.295 0.687-0.835 0.916-1.66 0.231-0.832 0.108-1.544 0.074-1.912-0.037-0.398-0.059-0.363 0.074-0.59 0.125-0.213 0.101-0.175 0.465-0.332 0.342-0.148 1.014-0.385 1.623-0.982 0.613-0.601 0.869-1.265 1.027-1.609 0.169-0.367 0.128-0.358 0.354-0.486 0.214-0.121 0.174-0.091 0.568-0.045 0.364 0.042 1.067 0.178 1.897-0.038 0.835-0.215 1.388-0.672 1.691-0.887 0.33-0.234 0.298-0.246 0.553-0.244zM12.186 5.838c-3.404 0-6.153 2.747-6.153 6.151s2.749 6.155 6.153 6.155 6.153-2.751 6.153-6.155c0-3.404-2.749-6.151-6.153-6.151zM18.495 22.058l0.199 0.348 2.436 4.229h-1.432c-0.459-0.001-0.887 0.243-1.115 0.643l-0.717 1.232-0.803-1.395-1.633-2.828c0.004 0.008-0.010-0.015-0.021-0.038l-0.016-0.030-0.686-1.18c0.077-0.039 0.188-0.134 0.273-0.156 0.253-0.065 0.471-0.026 0.959 0.030 0.524 0.062 1.329 0.084 2.127-0.369 0.244-0.138 0.261-0.314 0.428-0.486zM5.842 22.132c0.118 0.11 0.107 0.216 0.266 0.308 0.798 0.468 1.61 0.454 2.133 0.406 0.495-0.045 0.726-0.074 0.988 0 0.12 0.034 0.281 0.174 0.4 0.252l-0.666 1.15c-0.005 0.009-0.013 0.022-0.019 0.035l-0.002 0.004-1.639 2.826-0.805 1.395-0.717-1.232c-0.228-0.399-0.655-0.644-1.113-0.643h-1.426l2.436-4.223z"></path>
</svg>
