<!-- Generated by IcoMoon.io -->
<svg version="1.1" xmlns="http://www.w3.org/2000/svg" width="32" height="32" viewBox="0 0 32 32">
<title>balance-left-r</title>
<path d="M24.265 1.001c-0.013 0-0.029-0.001-0.044-0.001-0.235 0-0.455 0.065-0.643 0.178l0.006-0.003-4.715 2.723c-0.512-0.489-1.124-0.848-1.793-1.027-1.032-0.277-2.17-0.161-3.16 0.41-1.631 0.942-2.365 2.849-1.941 4.599l-4.715 2.721c-0.39 0.217-0.649 0.626-0.649 1.096 0 0.691 0.56 1.251 1.251 1.251 0.24 0 0.463-0.067 0.653-0.184l-0.005 0.003 4.765-2.752c0.435 0.376 0.935 0.656 1.475 0.826v18.954c-0.011 0.061-0.017 0.131-0.017 0.203 0 0.69 0.56 1.25 1.25 1.25 0.006 0 0.012 0 0.017 0h9.423c0.005 0 0.011 0 0.018 0 0.69 0 1.25-0.56 1.25-1.25s-0.56-1.25-1.25-1.25c-0.006 0-0.012 0-0.019 0h-8.173v-17.894c0.285-0.089 0.566-0.205 0.834-0.359 1.571-0.907 2.308-2.707 1.982-4.402l4.767-2.75c0.386-0.218 0.642-0.625 0.642-1.092 0-0.676-0.537-1.227-1.208-1.249h-0.002zM16.119 5.219c0.106 0.007 0.21 0.025 0.313 0.053 0.36 0.096 0.683 0.322 0.916 0.648 0.050 0.151 0.123 0.281 0.215 0.395l-0.002-0.002c0.284 0.754-0.001 1.599-0.727 2.017-0.75 0.433-1.658 0.23-2.16-0.445-0.045-0.092-0.095-0.172-0.154-0.245l0.002 0.002c-0.408-0.795-0.14-1.744 0.645-2.197 0.304-0.175 0.634-0.248 0.953-0.227zM25.654 7.313c-1.319-0.050-2.102 0.765-2.896 1.641s-1.549 1.997-2.201 3.193c-0.652 1.197-1.2 2.458-1.531 3.637s-0.566 2.265-0.043 3.383c0.463 0.989 1.32 1.703 2.41 2.305s2.436 1.034 3.898 1.055c1.35 0.019 2.66-0.343 3.762-0.852s2.009-1.056 2.551-2.049c0.593-1.087 0.415-2.181 0.152-3.381s-0.735-2.5-1.316-3.742c-0.581-1.242-1.268-2.415-2.008-3.346s-1.458-1.794-2.777-1.844zM25.56 9.811c0.067 0.002 0.049 0.024-0.002 0.061 0.122 0.098 0.518 0.337 0.918 0.84 0.563 0.708 1.182 1.752 1.697 2.851 0.252 0.538 0.367 1.035 0.559 1.572h-6.738c0.245-0.605 0.426-1.185 0.758-1.793 0.577-1.057 1.257-2.047 1.857-2.709 0.425-0.469 0.825-0.674 0.949-0.762-0.050-0.040-0.064-0.063 0.002-0.061zM6.979 15.565c-1.319-0.050-2.104 0.765-2.898 1.641s-1.545 1.997-2.197 3.193c-0.652 1.197-1.2 2.462-1.531 3.64s-0.57 2.263-0.047 3.381c0.463 0.989 1.324 1.703 2.414 2.305s2.436 1.036 3.898 1.057c1.35 0.019 2.658-0.343 3.76-0.852s2.009-1.060 2.551-2.053c0.593-1.087 0.415-2.179 0.152-3.379s-0.735-2.5-1.316-3.742c-0.581-1.242-1.266-2.417-2.006-3.348s-1.46-1.794-2.779-1.844zM6.885 18.064c0.067 0.003 0.051 0.024-0.002 0.061 0.121 0.097 0.519 0.337 0.92 0.842 0.563 0.708 1.182 1.748 1.697 2.848 0.252 0.539 0.365 1.038 0.557 1.576h-6.738c0.245-0.605 0.428-1.187 0.76-1.795 0.577-1.057 1.253-2.049 1.853-2.711 0.424-0.468 0.825-0.672 0.951-0.76-0.049-0.039-0.064-0.063 0.002-0.061z"></path>
</svg>
