<!-- Generated by IcoMoon.io -->
<svg version="1.1" xmlns="http://www.w3.org/2000/svg" width="32" height="32" viewBox="0 0 32 32">
<title>balance-left-s</title>
<path d="M24.277 0.501c-0.015-0.001-0.032-0.001-0.050-0.001-0.284 0-0.549 0.079-0.775 0.216l0.007-0.004-5.096 2.943c-1.192-0.937-2.883-1.123-4.27-0.322s-2.075 2.361-1.859 3.861l-5.098 2.941c-0.47 0.259-0.784 0.752-0.784 1.318 0 0.829 0.672 1.5 1.5 1.5 0.29 0 0.56-0.082 0.79-0.225l5.164-2.983c0.222 0.155 0.46 0.282 0.707 0.387-0.007 0.056-0.012 0.121-0.012 0.187 0 0.002 0 0.004 0 0.006v0 19.176c-0.013 0.074-0.020 0.159-0.020 0.246 0 0.828 0.672 1.5 1.5 1.5 0.007 0 0.014 0 0.021 0h9.423c0.005 0 0.010 0 0.016 0 0.829 0 1.5-0.672 1.5-1.5s-0.672-1.5-1.5-1.5c-0.006 0-0.011 0-0.017 0h-7.923v-17.922c0-0.002 0-0.005 0-0.008 0-0.066-0.004-0.131-0.013-0.195l0.001 0.008c0.141-0.060 0.284-0.109 0.42-0.188 1.322-0.764 2.005-2.216 1.879-3.65l5.17-2.984c0.462-0.262 0.768-0.75 0.768-1.309 0-0.811-0.643-1.471-1.447-1.499h-0.003zM25.654 7.065c-1.319-0.050-2.102 0.763-2.897 1.639s-1.547 1.997-2.199 3.193c-0.653 1.197-1.2 2.46-1.531 3.639s-0.566 2.266-0.043 3.383c0.463 0.989 1.32 1.703 2.41 2.305s2.434 1.034 3.897 1.055c1.35 0.019 2.66-0.343 3.762-0.852s2.009-1.058 2.551-2.051c0.593-1.087 0.415-2.183 0.152-3.383s-0.735-2.497-1.316-3.738c-0.581-1.242-1.268-2.417-2.008-3.348s-1.458-1.792-2.777-1.842zM25.56 9.562c0.067 0.002 0.050 0.024-0.002 0.061 0.122 0.098 0.518 0.337 0.918 0.84 0.563 0.708 1.182 1.752 1.697 2.852 0.252 0.538 0.367 1.037 0.559 1.574h-6.738c0.245-0.605 0.426-1.187 0.758-1.795 0.577-1.057 1.257-2.047 1.857-2.709 0.425-0.469 0.825-0.674 0.949-0.762-0.050-0.040-0.064-0.063 0.002-0.061zM6.98 16.032c-1.319-0.050-2.104 0.765-2.899 1.641s-1.545 1.997-2.197 3.193c-0.652 1.197-1.2 2.462-1.531 3.641s-0.57 2.264-0.047 3.381c0.463 0.989 1.324 1.703 2.414 2.305s2.436 1.036 3.898 1.057c1.35 0.019 2.658-0.343 3.76-0.852s2.009-1.060 2.551-2.053c0.593-1.087 0.415-2.179 0.152-3.379s-0.735-2.501-1.316-3.742c-0.581-1.242-1.266-2.417-2.006-3.348s-1.46-1.794-2.779-1.844zM6.886 18.532c0.067 0.003 0.051 0.024-0.002 0.061 0.121 0.097 0.519 0.337 0.92 0.842 0.563 0.708 1.182 1.748 1.697 2.848 0.252 0.539 0.365 1.039 0.557 1.576h-6.738c0.245-0.605 0.428-1.187 0.76-1.795 0.577-1.057 1.253-2.049 1.854-2.711 0.424-0.468 0.825-0.673 0.951-0.76-0.049-0.039-0.064-0.063 0.002-0.061z"></path>
</svg>
