<!-- Generated by IcoMoon.io -->
<svg version="1.1" xmlns="http://www.w3.org/2000/svg" width="32" height="32" viewBox="0 0 32 32">
<title>balance-r</title>
<path d="M16.001 1.5c-1.883 0-3.474 1.282-3.982 3.010h-5.441c-0.004 0-0.009 0-0.013 0-0.69 0-1.25 0.56-1.25 1.25s0.56 1.25 1.25 1.25c0.005 0 0.009 0 0.014 0h5.499c0.43 1.238 1.423 2.209 2.674 2.609v17.907h-8.174c-0.004 0-0.009 0-0.013 0-0.69 0-1.25 0.56-1.25 1.25s0.56 1.25 1.25 1.25c0.005 0 0.009 0 0.014 0h18.847c0.004 0 0.009 0 0.013 0 0.69 0 1.25-0.56 1.25-1.25s-0.56-1.25-1.25-1.25c-0.005 0-0.009 0-0.014 0h-8.173v-17.909c1.25-0.401 2.242-1.37 2.672-2.607h5.502c0.004 0 0.009 0 0.013 0 0.69 0 1.25-0.56 1.25-1.25s-0.56-1.25-1.25-1.25c-0.005 0-0.009 0-0.014 0h-5.443c-0.508-1.727-2.098-3.010-3.981-3.010zM16.001 4c0.905 0 1.613 0.686 1.658 1.578-0.009 0.058-0.015 0.124-0.015 0.192 0 0.031 0.001 0.061 0.003 0.092v-0.004c-0.093 0.84-0.777 1.477-1.646 1.477-0.875 0-1.565-0.645-1.65-1.494 0.002-0.024 0.003-0.052 0.003-0.081 0-0.062-0.005-0.123-0.013-0.182l0.001 0.007c0.042-0.895 0.753-1.584 1.66-1.584zM6.98 9.090c-1.319-0.050-2.104 0.765-2.899 1.641s-1.545 1.997-2.197 3.193c-0.652 1.197-1.2 2.458-1.531 3.637s-0.57 2.266-0.047 3.383c0.463 0.989 1.324 1.703 2.414 2.305s2.436 1.034 3.898 1.055c1.35 0.019 2.658-0.343 3.76-0.852s2.009-1.056 2.551-2.049c0.593-1.087 0.415-2.181 0.152-3.381s-0.735-2.501-1.316-3.742c-0.581-1.242-1.266-2.415-2.006-3.346s-1.46-1.794-2.779-1.844zM25.654 9.090c-1.319-0.050-2.102 0.765-2.897 1.641s-1.547 1.997-2.199 3.193c-0.653 1.197-1.2 2.458-1.531 3.637s-0.566 2.266-0.043 3.383c0.463 0.989 1.32 1.703 2.41 2.305s2.434 1.034 3.897 1.055c1.35 0.019 2.66-0.343 3.762-0.852s2.009-1.056 2.551-2.049c0.593-1.087 0.415-2.181 0.152-3.381s-0.735-2.501-1.316-3.742c-0.581-1.242-1.268-2.415-2.008-3.346s-1.458-1.794-2.777-1.844zM6.886 11.588c0.067 0.003 0.052 0.024 0 0.061 0.122 0.098 0.518 0.337 0.918 0.84 0.563 0.708 1.182 1.752 1.697 2.852 0.252 0.538 0.365 1.035 0.557 1.572h-6.738c0.245-0.605 0.428-1.185 0.76-1.793 0.577-1.057 1.253-2.047 1.854-2.709 0.425-0.469 0.828-0.674 0.953-0.762-0.050-0.040-0.066-0.063 0-0.061zM25.56 11.588c0.067 0.003 0.050 0.024-0.002 0.061 0.122 0.098 0.518 0.337 0.918 0.84 0.563 0.708 1.182 1.752 1.697 2.852 0.252 0.538 0.367 1.035 0.559 1.572h-6.738c0.245-0.605 0.426-1.185 0.758-1.793 0.577-1.057 1.257-2.047 1.857-2.709 0.425-0.469 0.825-0.674 0.949-0.762-0.050-0.040-0.064-0.063 0.002-0.061z"></path>
</svg>
