<!-- Generated by IcoMoon.io -->
<svg version="1.1" xmlns="http://www.w3.org/2000/svg" width="32" height="32" viewBox="0 0 32 32">
<title>balance-left-l</title>
<path d="M24.625 0.5c-0.008 0-0.017 0-0.026 0-0.16 0-0.31 0.044-0.439 0.122l0.004-0.002-5.229 3.018c-0.518-0.592-1.194-1.003-1.928-1.199-0.966-0.259-2.030-0.153-2.959 0.383-1.635 0.944-2.323 2.915-1.734 4.641l-5.229 3.018c-0.268 0.147-0.446 0.427-0.446 0.748 0 0.47 0.381 0.85 0.85 0.85 0.166 0 0.32-0.047 0.451-0.13l-0.004 0.002 5.271-3.045c0.537 0.552 1.214 0.922 1.945 1.086-0.002 0.020-0.003 0.044-0.004 0.068v20.102c-0.018 0.065-0.028 0.14-0.028 0.217 0 0.47 0.381 0.85 0.85 0.85 0.010 0 0.019 0 0.029 0h9.858c0.009 0 0.019 0 0.029 0 0.47 0 0.85-0.381 0.85-0.85s-0.381-0.85-0.85-0.85c-0.010 0-0.020 0-0.030 0.001h-9.009v-19.469c0-0.025-0.002-0.050-0.004-0.074v0.004c0.379-0.083 0.753-0.207 1.105-0.41 1.572-0.907 2.26-2.764 1.789-4.439l5.273-3.049c0.26-0.149 0.432-0.424 0.432-0.74 0-0.459-0.364-0.833-0.819-0.85h-0.001zM16.154 3.998c0.141 0.009 0.28 0.032 0.416 0.068 0.542 0.145 1.030 0.501 1.336 1.031 0.005 0.008 0.007 0.017 0.012 0.025 0.004 0.010 0.006 0.015 0.008 0.019l-0.002-0.005c0.583 1.055 0.227 2.363-0.822 2.969-1.020 0.589-2.284 0.274-2.926-0.693-0.029-0.055-0.061-0.102-0.097-0.146l0.001 0.001c-0.589-1.056-0.233-2.368 0.818-2.975 0.398-0.23 0.834-0.323 1.256-0.295zM25.813 7.239c-1.097-0.041-1.878 0.689-2.674 1.566s-1.568 2.026-2.236 3.252c-0.669 1.226-1.229 2.527-1.563 3.715s-0.524 2.258-0.074 3.219c0.414 0.884 1.252 1.606 2.332 2.203s2.42 1.029 3.861 1.049c1.322 0.019 2.637-0.342 3.736-0.85s1.991-1.088 2.459-1.947c0.509-0.933 0.376-2.012 0.111-3.221s-0.748-2.545-1.344-3.818c-0.596-1.273-1.299-2.477-2.041-3.41s-1.471-1.717-2.568-1.758zM25.75 8.94c0.045 0.002 0.679 0.333 1.301 1.115s1.281 1.896 1.832 3.072c0.366 0.781 0.573 1.536 0.813 2.297h-8.379c0.296-0.832 0.609-1.692 1.078-2.553 0.617-1.132 1.34-2.192 2.004-2.924s1.307-1.010 1.352-1.008zM6.813 16.225c-1.097-0.041-1.878 0.687-2.674 1.564s-1.57 2.026-2.238 3.252c-0.669 1.226-1.229 2.527-1.563 3.715s-0.522 2.258-0.072 3.219c0.414 0.884 1.25 1.606 2.33 2.203s2.422 1.029 3.863 1.049c1.322 0.019 2.637-0.342 3.736-0.85s1.991-1.088 2.459-1.947c0.509-0.933 0.376-2.012 0.111-3.221s-0.748-2.545-1.344-3.818c-0.596-1.273-1.299-2.475-2.041-3.408s-1.471-1.717-2.568-1.758zM20.902 17.125h9.221c0.064 0.661 0.109 1.378 0.039 1.506-0.104 0.192-0.78 0.804-1.68 1.219s-2.015 0.705-3 0.691c-1.111-0.016-2.204-0.362-3.063-0.836s-1.464-1.114-1.615-1.438c-0.049-0.106 0.064-0.713 0.098-1.143zM6.75 17.924c0.045 0.002 0.677 0.333 1.299 1.115s1.283 1.894 1.834 3.070c0.366 0.782 0.573 1.537 0.813 2.299h-8.381c0.296-0.832 0.609-1.69 1.078-2.551 0.617-1.132 1.342-2.194 2.006-2.926s1.307-1.009 1.352-1.008zM1.9 26.11h9.223c0.064 0.661 0.109 1.378 0.039 1.506-0.104 0.192-0.78 0.804-1.68 1.219s-2.015 0.705-3 0.691c-1.111-0.016-2.204-0.362-3.063-0.836s-1.464-1.114-1.615-1.438c-0.050-0.106 0.062-0.713 0.096-1.143z"></path>
</svg>
