<!-- Generated by IcoMoon.io -->
<svg version="1.1" xmlns="http://www.w3.org/2000/svg" width="32" height="32" viewBox="0 0 32 32">
<title>balance-right-r</title>
<path d="M7.821 1.001c-0.012 0-0.027-0.001-0.042-0.001-0.029 0-0.057 0.001-0.085 0.003h0.004c-0.659 0.039-1.178 0.583-1.178 1.248 0 0.468 0.257 0.876 0.638 1.090l0.006 0.003 4.767 2.75c-0.325 1.695 0.413 3.495 1.984 4.402 0.268 0.155 0.549 0.27 0.834 0.359v17.894h-8.173c-0.005 0-0.011 0-0.018 0-0.69 0-1.25 0.56-1.25 1.25s0.56 1.25 1.25 1.25c0.006 0 0.012 0 0.019 0h9.422c0.005 0 0.010 0 0.016 0 0.69 0 1.25-0.56 1.25-1.25 0-0.071-0.006-0.141-0.017-0.208l0.001 0.007v-18.956c0.539-0.17 1.037-0.45 1.473-0.826l4.767 2.752c0.174 0.097 0.381 0.154 0.602 0.154 0.691 0 1.251-0.56 1.251-1.251 0-0.451-0.239-0.847-0.597-1.067l-0.005-0.003-4.717-2.721c0.424-1.751-0.308-3.658-1.939-4.599-0.99-0.572-2.128-0.687-3.16-0.41-0.669 0.179-1.282 0.539-1.795 1.027l-4.715-2.723c-0.17-0.103-0.373-0.167-0.591-0.176h-0.002zM15.879 5.221c0.319-0.021 0.651 0.051 0.955 0.227 0.78 0.451 1.050 1.393 0.65 2.185-0.062 0.076-0.117 0.163-0.161 0.256l-0.003 0.008c-0.503 0.668-1.407 0.867-2.154 0.436-0.728-0.42-1.012-1.269-0.723-2.025 0.086-0.107 0.155-0.232 0.202-0.368l0.003-0.009c0.233-0.331 0.554-0.559 0.916-0.656 0.102-0.027 0.208-0.046 0.314-0.053zM6.979 7.315c-1.319-0.050-2.104 0.765-2.898 1.641s-1.545 1.997-2.197 3.193c-0.652 1.197-1.2 2.458-1.531 3.637s-0.57 2.265-0.047 3.383c0.463 0.989 1.324 1.703 2.414 2.305s2.436 1.034 3.898 1.055c1.35 0.019 2.658-0.343 3.76-0.852s2.009-1.056 2.551-2.049c0.593-1.087 0.415-2.181 0.152-3.381s-0.735-2.5-1.316-3.742c-0.581-1.242-1.266-2.415-2.006-3.346s-1.46-1.794-2.779-1.844zM6.885 9.813c0.067 0.002 0.052 0.024 0 0.061 0.122 0.098 0.518 0.337 0.918 0.84 0.563 0.708 1.182 1.752 1.697 2.851 0.252 0.538 0.365 1.035 0.557 1.572h-6.738c0.245-0.605 0.428-1.185 0.76-1.793 0.577-1.057 1.253-2.047 1.853-2.709 0.425-0.469 0.828-0.674 0.953-0.762-0.050-0.040-0.066-0.063 0-0.061zM25.654 15.566c-1.319-0.050-2.102 0.765-2.896 1.641s-1.549 1.997-2.201 3.193c-0.652 1.197-1.2 2.462-1.531 3.64s-0.566 2.263-0.043 3.381c0.463 0.989 1.32 1.703 2.41 2.305s2.436 1.036 3.898 1.057c1.35 0.019 2.66-0.343 3.762-0.852s2.009-1.060 2.551-2.053c0.593-1.087 0.415-2.179 0.152-3.379s-0.735-2.5-1.316-3.742c-0.581-1.242-1.268-2.417-2.008-3.348s-1.458-1.794-2.777-1.844zM25.56 18.066c0.067 0.003 0.048 0.024-0.004 0.061 0.121 0.097 0.519 0.337 0.92 0.842 0.563 0.708 1.182 1.748 1.697 2.848 0.252 0.539 0.367 1.038 0.559 1.576h-6.738c0.245-0.605 0.426-1.187 0.758-1.795 0.577-1.057 1.257-2.049 1.857-2.711 0.424-0.467 0.822-0.672 0.947-0.76-0.049-0.039-0.062-0.063 0.004-0.061z"></path>
</svg>
