<!-- Generated by IcoMoon.io -->
<svg version="1.1" xmlns="http://www.w3.org/2000/svg" width="32" height="32" viewBox="0 0 32 32">
<title>balance-l</title>
<path d="M16 1.5c-1.888 0-3.473 1.364-3.826 3.152h-6.033c-0.015-0.001-0.032-0.001-0.050-0.001-0.47 0-0.85 0.381-0.85 0.85s0.381 0.85 0.85 0.85c0.017 0 0.035-0.001 0.052-0.002h6.086c0.36 1.417 1.492 2.532 2.924 2.854-0.001 0.017-0.002 0.038-0.002 0.058 0 0 0 0 0 0v0 19.465h-9.010c-0.47 0-0.851 0.381-0.851 0.851s0.381 0.851 0.851 0.851h19.719c0.47 0 0.851-0.381 0.851-0.851s-0.381-0.851-0.851-0.851h-9.010v-19.465c0 0 0 0 0 0 0-0.021-0.001-0.041-0.002-0.061v0.003c1.432-0.322 2.564-1.436 2.924-2.854h6.088c0.015 0.001 0.032 0.001 0.050 0.001 0.47 0 0.85-0.381 0.85-0.85s-0.381-0.85-0.85-0.85c-0.017 0-0.035 0.001-0.052 0.002h-6.031c-0.353-1.789-1.938-3.152-3.826-3.152zM16 3.199c1.175 0 2.112 0.902 2.188 2.057-0.023 0.073-0.036 0.158-0.036 0.246 0 0.066 0.008 0.13 0.022 0.192l-0.001-0.006c-0.139 1.086-1.044 1.914-2.172 1.914-1.13 0-2.037-0.831-2.174-1.92 0.013-0.055 0.020-0.118 0.020-0.182 0-0.084-0.012-0.165-0.035-0.242l0.002 0.006c0.072-1.159 1.009-2.064 2.187-2.064zM6.813 9.441c-1.097-0.041-1.878 0.687-2.674 1.564s-1.57 2.026-2.238 3.252c-0.669 1.226-1.229 2.527-1.563 3.715s-0.522 2.258-0.072 3.219c0.414 0.884 1.25 1.606 2.33 2.203s2.422 1.029 3.863 1.049c1.322 0.019 2.637-0.342 3.736-0.85s1.991-1.088 2.459-1.947c0.509-0.933 0.376-2.012 0.111-3.221s-0.748-2.545-1.344-3.818c-0.596-1.273-1.299-2.475-2.041-3.408s-1.471-1.717-2.568-1.758zM25.813 9.441c-1.097-0.041-1.878 0.687-2.674 1.564s-1.57 2.026-2.238 3.252c-0.669 1.226-1.229 2.527-1.563 3.715s-0.522 2.258-0.072 3.219c0.414 0.884 1.25 1.606 2.33 2.203s2.422 1.029 3.863 1.049c1.322 0.019 2.637-0.342 3.736-0.85s1.991-1.088 2.459-1.947c0.509-0.933 0.376-2.012 0.111-3.221s-0.748-2.545-1.344-3.818c-0.596-1.273-1.299-2.475-2.041-3.408s-1.471-1.717-2.568-1.758zM6.75 11.141c0.045 0.002 0.677 0.333 1.299 1.115s1.283 1.896 1.834 3.072c0.366 0.781 0.573 1.535 0.813 2.297h-8.381c0.296-0.832 0.609-1.69 1.078-2.551 0.617-1.132 1.342-2.194 2.006-2.926s1.307-1.009 1.352-1.008zM25.75 11.141c0.045 0.002 0.677 0.333 1.299 1.115s1.283 1.896 1.834 3.072c0.366 0.781 0.573 1.535 0.813 2.297h-8.381c0.296-0.832 0.609-1.69 1.078-2.551 0.617-1.132 1.342-2.194 2.006-2.926s1.307-1.009 1.352-1.008zM1.9 19.326h9.223c0.064 0.661 0.109 1.378 0.039 1.506-0.104 0.192-0.78 0.804-1.68 1.219s-2.015 0.705-3 0.691c-1.111-0.016-2.204-0.362-3.063-0.836s-1.464-1.114-1.615-1.438c-0.050-0.106 0.062-0.713 0.096-1.143zM20.9 19.326h9.223c0.064 0.661 0.109 1.378 0.039 1.506-0.104 0.192-0.78 0.804-1.68 1.219s-2.015 0.705-3 0.691c-1.111-0.016-2.204-0.362-3.063-0.836s-1.464-1.114-1.615-1.438c-0.049-0.106 0.062-0.713 0.096-1.143z"></path>
</svg>
