<!-- Generated by IcoMoon.io -->
<svg version="1.1" xmlns="http://www.w3.org/2000/svg" width="32" height="32" viewBox="0 0 32 32">
<title>balance-right-s</title>
<path d="M7.829 0.501c-0.018-0.001-0.040-0.001-0.061-0.001-0.828 0-1.5 0.672-1.5 1.5 0 0.561 0.308 1.050 0.765 1.308l0.008 0.004 5.172 2.984c-0.124 1.434 0.559 2.885 1.881 3.648 0.136 0.078 0.279 0.13 0.42 0.189-0.007 0.056-0.012 0.121-0.012 0.187 0 0.003 0 0.006 0 0.008v0 17.921h-7.923c-0.006 0-0.014 0-0.021 0-0.828 0-1.5 0.672-1.5 1.5s0.672 1.5 1.5 1.5c0.007 0 0.015 0 0.022 0h9.422c0.006 0 0.012 0 0.019 0 0.828 0 1.5-0.672 1.5-1.5 0-0.085-0.007-0.168-0.021-0.249l0.001 0.009v-19.181c0-0.002 0-0.005 0-0.008 0-0.066-0.004-0.131-0.013-0.195l0.001 0.008c0.246-0.104 0.482-0.23 0.703-0.385l5.174 2.986c0.215 0.127 0.474 0.201 0.751 0.201 0.829 0 1.501-0.672 1.501-1.501 0-0.553-0.299-1.036-0.744-1.296l-0.007-0.004-5.099-2.943c0.215-1.5-0.472-3.057-1.857-3.857s-3.079-0.616-4.271 0.32l-5.097-2.943c-0.203-0.123-0.447-0.2-0.708-0.211h-0.003zM6.979 7.065c-1.319-0.050-2.104 0.765-2.898 1.641s-1.545 1.997-2.197 3.193c-0.652 1.197-1.2 2.46-1.531 3.639s-0.57 2.265-0.047 3.383c0.463 0.989 1.324 1.703 2.414 2.305s2.436 1.034 3.898 1.055c1.35 0.019 2.658-0.343 3.76-0.852s2.009-1.058 2.551-2.051c0.593-1.087 0.415-2.183 0.152-3.383s-0.735-2.497-1.316-3.738c-0.581-1.242-1.266-2.417-2.006-3.348s-1.46-1.794-2.779-1.844zM6.885 9.563c0.067 0.002 0.052 0.024 0 0.061 0.122 0.098 0.518 0.337 0.918 0.84 0.563 0.708 1.182 1.752 1.697 2.851 0.252 0.538 0.365 1.037 0.557 1.574h-6.738c0.245-0.605 0.428-1.187 0.76-1.795 0.577-1.057 1.253-2.047 1.853-2.709 0.425-0.469 0.828-0.674 0.953-0.762-0.050-0.040-0.066-0.063 0-0.061zM25.654 16.034c-1.319-0.050-2.102 0.765-2.896 1.641s-1.549 1.997-2.201 3.193c-0.652 1.197-1.2 2.462-1.531 3.64s-0.566 2.263-0.043 3.381c0.463 0.989 1.32 1.703 2.41 2.305s2.436 1.036 3.898 1.057c1.35 0.019 2.66-0.343 3.762-0.852s2.009-1.060 2.551-2.053c0.593-1.087 0.415-2.179 0.152-3.379s-0.735-2.5-1.316-3.742c-0.581-1.242-1.268-2.417-2.008-3.348s-1.458-1.794-2.777-1.844zM25.56 18.534c0.067 0.003 0.048 0.024-0.004 0.061 0.121 0.097 0.519 0.337 0.92 0.842 0.563 0.708 1.182 1.748 1.697 2.848 0.252 0.539 0.367 1.039 0.559 1.576h-6.738c0.245-0.605 0.426-1.187 0.758-1.795 0.577-1.057 1.257-2.049 1.857-2.711 0.424-0.467 0.822-0.672 0.947-0.76-0.049-0.039-0.062-0.063 0.004-0.061z"></path>
</svg>
