<!-- Generated by IcoMoon.io -->
<svg version="1.1" xmlns="http://www.w3.org/2000/svg" width="32" height="32" viewBox="0 0 32 32">
<title>bank-l</title>
<path d="M14.764 0l-14.764 9.227v3.744h32v-3.744l-14.764-9.227h-2.473zM15.252 1.699h1.496l13.553 8.469v1.102h-28.602v-1.102l13.553-8.469zM3.75 14c0.001 3.505 0.001 7.905 0 11.514h-2.023v4.824c-0.576 0-1.151 0-1.727 0v1.662c10.668-0.001 21.334-0.001 32 0v-1.662c-0.575 0-1.151 0-1.727 0v-4.824h-2.023c0.001-3.609 0.001-8.008 0-11.514h-1.699c0.001 3.505 0.001 7.905 0 11.514h-5.9c0.001-3.609 0.001-8.008 0-11.514h-1.701c0.001 3.505 0.001 7.905 0 11.514h-5.898c0.001-3.609 0.001-8.008 0-11.514h-1.701c0.001 3.505 0.001 7.905 0 11.514h-5.9c0.001-3.609 0.001-8.008 0-11.514h-1.699zM3.426 27.215h25.148v3.086h-25.148v-3.086z"></path>
</svg>
