<!-- Generated by IcoMoon.io -->
<svg version="1.1" xmlns="http://www.w3.org/2000/svg" width="32" height="32" viewBox="0 0 32 32">
<title>bank-s</title>
<path d="M14.953 0l-14.953 9.344v2.559h32v-2.559l-14.953-9.344h-2.094zM3.25 15c0.001 3.090 0.001 6.211 0 9.314-0.497 0-0.993 0-1.49 0v3c9.495-0.001 18.988-0.001 28.48 0v-3c-0.497 0-0.994 0-1.49 0 0.001-3.103 0.001-6.224 0-9.314h-4.301c0.001 3.090 0.001 6.211 0 9.314-2.099 0-4.199 0-6.299 0 0.001-3.103 0.001-6.224 0-9.314h-4.301c0.001 3.090 0.001 6.211 0 9.314-2.1 0-4.199 0-6.299 0 0.001-3.103 0.001-6.224 0-9.314h-4.301zM0 29v3c10.668-0.001 21.334-0.001 32 0v-3c-10.666-0.001-21.332-0.001-32 0z"></path>
</svg>
