<!-- Generated by IcoMoon.io -->
<svg version="1.1" xmlns="http://www.w3.org/2000/svg" width="32" height="32" viewBox="0 0 32 32">
<title>bank-r</title>
<path d="M14.621 0l-14.621 9.137v4.65h32v-4.65l-14.621-9.137h-2.758zM15.48 3h1.039l12.461 7.787h-25.961l12.461-7.787zM4.6 15c0.001 2.857 0 5.741 0 8.613h-3.023v5.387c-0.525 0-1.051 0-1.576 0v3c10.668-0.001 21.334-0.001 32 0v-3c-0.525 0-1.051 0-1.576 0v-5.387h-3.023c0-2.872 0.001-5.756 0-8.613h-3c0.001 2.857 0 5.741 0 8.613h-3.6c0-2.872 0.001-5.756 0-8.613h-3c0.001 2.857 0 5.741 0 8.613h-3.602c0-2.872 0.001-5.756 0-8.613h-3c0.001 2.857 0 5.741 0 8.613h-3.6c0-2.872 0.001-5.756 0-8.613h-3zM4.576 26.613h22.848v2.387c-7.615 0-15.231 0-22.848 0v-2.387z"></path>
</svg>
