<!-- Generated by IcoMoon.io -->
<svg version="1.1" xmlns="http://www.w3.org/2000/svg" width="32" height="32" viewBox="0 0 32 32">
<title>basket-ball-l</title>
<path d="M16 0c-2.185 0.241-4.405 0.396-6.113 1.23-5.797 2.406-9.887 8.11-9.887 14.77 0 8.826 7.174 16 16 16 8.712 0 15.782-6.998 15.965-15.666 0.001-0.001 0.001-0.003 0.002-0.004 0.011-0.038 0.014-0.078 0.012-0.117 0.005-0.027 0.021-0.082 0.021-0.213 0-8.826-7.174-16-16-16zM16 1.809c3.139 0 5.967 1.105 8.316 2.834-1.934 2.231-4.258 4.128-6.889 5.459-0.13 0.066-0.318 0.132-0.488 0.193-1.438-2.731-3.164-5.293-5.002-7.762 1.303-0.404 2.64-0.725 4.063-0.725zM10.16 3.102c1.883 2.484 3.594 5.097 5.057 7.844-4.052 1.536-8.507 1.951-12.742 1.076 1.168-3.979 3.966-7.232 7.686-8.92zM25.732 5.775c2.591 2.464 4.251 5.856 4.4 9.678-3.304-1.093-6.845-1.478-10.281-0.869-0.378 0.067-0.667 0.192-0.959 0.291-0.397-0.968-0.783-1.954-1.24-2.924 0.191-0.068 0.373-0.126 0.592-0.236 2.867-1.45 5.394-3.509 7.488-5.939zM15.965 12.596c0.437 0.917 0.808 1.878 1.205 2.844-4.999 1.619-9.327 5.037-11.938 9.609-2.080-2.466-3.424-5.57-3.424-9.049 0-0.755 0.104-1.49 0.225-2.221 4.645 0.975 9.509 0.518 13.932-1.184zM24.123 16.080c0.441 0.014 0.883 0.042 1.322 0.086 1.566 0.155 3.102 0.563 4.59 1.098-0.426 4.737-3.147 8.732-7.070 10.971-0.7-4.015-1.905-7.903-3.389-11.686 0.204-0.071 0.427-0.154 0.592-0.184 1.303-0.231 2.631-0.326 3.955-0.285zM17.855 17.107c1.539 3.901 2.794 7.899 3.465 12.020-1.647 0.668-3.433 1.064-5.32 1.064-3.692 0-7-1.465-9.523-3.773 2.357-4.444 6.57-7.788 11.379-9.311z"></path>
</svg>
