<!-- Generated by IcoMoon.io -->
<svg version="1.1" xmlns="http://www.w3.org/2000/svg" width="26" height="32" viewBox="0 0 26 32">
<title>bin-r</title>
<path d="M9.5 0c-0.825 0-1.5 0.675-1.5 1.5v2.5h-6.5c-0.825 0-1.5 0.675-1.5 1.5v2.5h26v-2.5c0-0.825-0.675-1.5-1.5-1.5h-6.5v-2.5c0-0.825-0.675-1.5-1.5-1.5zM10 2.025h6v1.975h-6zM2 10v18.773c0 1.768 1.458 3.227 3.227 3.227h15.547c1.768 0 3.227-1.458 3.227-3.227v-18.773zM5 13h16v15.773c0 0.132-0.095 0.227-0.227 0.227h-15.547c-0.132 0-0.227-0.095-0.227-0.227zM6.568 14.768v12.465h2.863v-12.465zM11.568 14.768v12.465h2.863v-12.465zM16.568 14.768v12.465h2.863v-12.465z"></path>
</svg>
