<!-- Generated by IcoMoon.io -->
<svg version="1.1" xmlns="http://www.w3.org/2000/svg" width="27" height="32" viewBox="0 0 27 32">
<title>bin-l</title>
<path d="M8.699 0v3.268h-8.699v5.047h27.039v-5.047h-8.699v-3.268zM10.4 1.699h6.238v1.568h-6.238zM1.699 4.967h23.641v1.646h-23.641zM2.52 10v19.305c0 1.479 1.217 2.695 2.695 2.695h16.609c1.479 0 2.695-1.217 2.695-2.695v-19.305zM4.219 11.699h18.602v17.605c0 0.551-0.445 0.996-0.996 0.996h-16.609c-0.551 0-0.996-0.445-0.996-0.996zM6.52 14v14h2v-14zM10.52 14v14h2v-14zM14.52 14v14h2v-14zM18.52 14v14h2v-14z"></path>
</svg>
