<!-- Generated by IcoMoon.io -->
<svg version="1.1" xmlns="http://www.w3.org/2000/svg" width="32" height="32" viewBox="0 0 32 32">
<title>binoculars-r</title>
<path d="M2.244 0.001v2c0.442 0 0.977 0 1.443 0v7.219h-0.363c-1.822 0-3.324 1.502-3.324 3.324v16.132c0 1.822 1.502 3.324 3.324 3.324h7.758c1.826 0 3.164-1.536 3.318-3.209l0.006-0.057v-9.64h3.187v9.582c0 1.822 1.502 3.324 3.324 3.324h7.758c1.822 0 3.324-1.502 3.324-3.324v-16.132c0-1.822-1.502-3.324-3.324-3.324h-0.363v-7.219c0.466 0 1.001 0 1.443 0v-2c-3.787-0.001-8.575-0.001-12.363 0l0.002 2c0.32 0 0.71 0 1.043 0v7.219h-4.875v-7.219c0.332 0 0.723 0 1.043 0l0.002-2c-3.787-0.001-8.575-0.001-12.363 0zM6.188 2.001c1.665 0 3.22 0 4.875 0v9.719h9.875v-9.719c1.655 0 3.21 0 4.875 0v9.719h2.863c0.46 0 0.824 0.364 0.824 0.824v14.019c-3.274-0.001-6.131-0.001-9.406 0v-9.969h-8.188v9.969c-3.274-0.001-6.131-0.001-9.406 0v-14.019c0-0.46 0.364-0.824 0.824-0.824h2.863zM15.027 13.34c-0.535 0-0.975 0.439-0.975 0.975s0.439 0.973 0.975 0.973h1.945c0.535 0 0.975-0.437 0.975-0.973s-0.439-0.975-0.975-0.975z"></path>
</svg>
