<!-- Generated by IcoMoon.io -->
<svg version="1.1" xmlns="http://www.w3.org/2000/svg" width="32" height="32" viewBox="0 0 32 32">
<title>blocked-s</title>
<path d="M16 0c-4.269 0-8.296 1.667-11.314 4.686s-4.686 7.045-4.686 11.314c0 4.269 1.667 8.296 4.686 11.314s7.045 4.686 11.314 4.686c4.269 0 8.296-1.667 11.314-4.686s4.686-7.045 4.686-11.314c0-4.269-1.667-8.296-4.686-11.314s-7.045-4.686-11.314-4.686zM16 5.137c5.996 0 10.863 4.868 10.863 10.863 0 2.061-0.654 3.936-1.652 5.578l-14.789-14.789c1.642-0.999 3.517-1.652 5.578-1.652zM6.789 10.422l14.789 14.789c-1.642 0.999-3.517 1.652-5.578 1.652-5.996 0-10.863-4.868-10.863-10.863 0-2.061 0.654-3.936 1.652-5.578z"></path>
</svg>
