<!-- Generated by IcoMoon.io -->
<svg version="1.1" xmlns="http://www.w3.org/2000/svg" width="23" height="32" viewBox="0 0 23 32">
<title>book-r</title>
<path d="M4.84 0c-0.013 0-0.025 0.002-0.037 0.002h-0.264c-2.489 0-4.539 2.050-4.539 4.539v0.193c0 0.012 0.004 0.023 0.004 0.035 0 0.024-0.004 0.048-0.004 0.072v18.814c0 2.657 2.183 4.842 4.84 4.842h9.678v3.502l2.793-1.654 2.795 1.654v-3.762c1.936-0.635 3.359-2.445 3.359-4.582v-15.572c0-0.004 0-0.009 0-0.013 0-0.534-0.284-1.003-0.708-1.262l-0.006-0.004c-0.293-0.331-0.498-0.618-0.605-0.873-0.166-0.395-0.26-0.83-0.26-1.295s0.093-0.897 0.26-1.293c0.108-0.256 0.314-0.546 0.611-0.881 0.232-0.26 0.373-0.605 0.373-0.982 0-0.817-0.662-1.479-1.479-1.479 0 0 0 0 0 0h-2.936c-0.023-0.001-0.050-0.002-0.077-0.002-0.005 0-0.010 0-0.015 0h0.001zM4.82 2.959h14.445c-0.154 0.546-0.338 1.085-0.338 1.678s0.183 1.132 0.338 1.68h-14.727c-0.889 0-1.556-0.658-1.578-1.539 0.033-1.030 0.822-1.808 1.859-1.818zM5.828 9.274h14.68v14.383c0 1.070-0.815 1.885-1.885 1.885h-12.795c0.001-5.423 0.001-10.846 0-16.268z"></path>
</svg>
