<!-- Generated by IcoMoon.io -->
<svg version="1.1" xmlns="http://www.w3.org/2000/svg" width="32" height="32" viewBox="0 0 32 32">
<title>books-s</title>
<path d="M0.932 5c-0.512 0-0.932 0.417-0.932 0.93v20.492c0 0.512 0.419 0.93 0.932 0.93h5.588c0.512 0 0.932-0.417 0.932-0.93v-20.492c0-0.512-0.419-0.93-0.932-0.93zM10.246 5c-0.512 0-0.932 0.417-0.932 0.93v20.492c0 0.512 0.419 0.93 0.932 0.93h5.588c0.512 0 0.932-0.417 0.932-0.93v-20.492c0-0.512-0.419-0.93-0.932-0.93zM22.625 6.342c-0.121 0.008-0.243 0.040-0.357 0.098l-4.99 2.514c-0.457 0.23-0.643 0.795-0.412 1.252l8.381 16.635c0.23 0.457 0.795 0.643 1.252 0.412l4.99-2.514c0.457-0.23 0.643-0.795 0.412-1.252l-8.381-16.635c-0.173-0.343-0.532-0.533-0.895-0.51zM1.863 8.725h3.725v1.863h-3.725zM11.176 8.725h3.727v1.863h-3.727z"></path>
</svg>
