<!-- Generated by IcoMoon.io -->
<svg version="1.1" xmlns="http://www.w3.org/2000/svg" width="32" height="32" viewBox="0 0 32 32">
<title>books-l</title>
<path d="M1.787 4c-0.977 0-1.787 0.804-1.787 1.783v20.605c0 0.979 0.81 1.785 1.787 1.785h5.619c0.343 0 0.663-0.104 0.938-0.275 0.274 0.171 0.593 0.275 0.936 0.275h5.619c0.977 0 1.787-0.806 1.787-1.785v-12.922l6.916 13.725c0.441 0.876 1.525 1.233 2.4 0.791l5.018-2.527c0.876-0.441 1.233-1.525 0.791-2.4l-8.426-16.727c-0.33-0.656-1.018-1.024-1.715-0.979-0.234 0.015-0.468 0.076-0.688 0.188l-4.297 2.164v-1.918c0-0.979-0.81-1.783-1.787-1.783h-5.619c-0.343 0-0.662 0.104-0.936 0.275-0.274-0.171-0.594-0.275-0.938-0.275zM1.787 5.699h5.619c0.053 0 0.086 0.033 0.086 0.084v20.605c0 0.051-0.033 0.086-0.086 0.086h-5.619c-0.053 0-0.086-0.035-0.086-0.086v-20.605c0-0.051 0.033-0.084 0.086-0.084zM9.279 5.699h5.619c0.053 0 0.086 0.033 0.086 0.084v20.605c0 0.051-0.033 0.086-0.086 0.086h-5.619c-0.053 0-0.086-0.035-0.086-0.086v-20.605c0-0.051 0.033-0.084 0.086-0.084zM21.779 7.047c0.032-0.002 0.069 0.013 0.086 0.047l8.428 16.727c0.023 0.045 0.006 0.095-0.037 0.117h-0.002l-5.018 2.527c-0.045 0.023-0.095 0.006-0.117-0.037l-8.428-16.729c-0.011-0.022-0.013-0.046-0.006-0.066s0.023-0.038 0.045-0.049l5.018-2.529c0.010-0.005 0.022-0.007 0.031-0.008zM3.002 8.635l0.002 1.701c1.062-0.001 2.123-0.001 3.184 0l0.002-1.701c-1.062-0.001-2.124-0.001-3.188 0zM10.496 8.635v1.701c1.062-0.001 2.125-0.001 3.186 0v-1.701c-1.062-0.001-2.122-0.001-3.186 0z"></path>
</svg>
