<!-- Generated by IcoMoon.io -->
<svg version="1.1" xmlns="http://www.w3.org/2000/svg" width="32" height="32" viewBox="0 0 32 32">
<title>book-open-s</title>
<path d="M6.095 3c-0.663-0.002-1.325 0.033-1.984 0.107-0.628 0.072-1.111 0.601-1.111 1.242v0 18.908c0.001 0.69 0.56 1.249 1.25 1.249 0.052 0 0.104-0.003 0.154-0.009l-0.006 0.001c3.16-0.378 6.459 0.282 9.23 1.846 0.474 0.267 0.929 0.566 1.371 0.883 0-7.183 0-14.368 0-21.566-2.675-1.661-5.748-2.649-8.904-2.66zM25.905 3c-3.157 0.011-6.231 0.999-8.906 2.66 0 7.198 0 14.383 0 21.566 0.442-0.317 0.898-0.616 1.371-0.883 2.772-1.564 6.073-2.224 9.232-1.846 0.044 0.006 0.096 0.009 0.148 0.009 0.69 0 1.25-0.559 1.25-1.249v-18.908c0-0.641-0.483-1.17-1.106-1.242l-0.006-0.001c-0.659-0.074-1.321-0.11-1.984-0.107zM1.47 7.613c-0.249 0.088-0.499 0.17-0.746 0.262-0.207 0.035-0.384 0.14-0.511 0.29l-0.001 0.001c-0.015 0.017-0.029 0.035-0.043 0.054l-0.002 0.002c-0.005 0.007-0.011 0.015-0.018 0.025l-0.002 0.003c-0.003 0.004-0.007 0.010-0.012 0.017l-0.002 0.003c-0.084 0.13-0.134 0.288-0.134 0.458 0 0.048 0.004 0.095 0.012 0.141l-0.001-0.005v20.553l1.033-0.23c2.911-0.647 5.886-1.006 8.867-1.072 1.242-0.028 2.483 0.012 3.723 0.086-0.245-0.16-0.494-0.312-0.748-0.455-2.495-1.408-5.494-2.006-8.338-1.666-0.098 0.012-0.212 0.020-0.328 0.020-1.519 0-2.75-1.231-2.75-2.75v0zM30.53 7.613v15.734c0 1.519-1.232 2.75-2.75 2.75-0.115 0-0.229-0.007-0.341-0.021l0.013 0.001c-2.844-0.34-5.845 0.258-8.34 1.666-0.254 0.143-0.503 0.295-0.748 0.455 1.24-0.074 2.481-0.114 3.723-0.086 2.981 0.067 5.958 0.426 8.869 1.072l1.033 0.23v-20.555c0.007-0.040 0.010-0.085 0.010-0.132 0-0.176-0.053-0.339-0.145-0.475l0.002 0.003c-0.012-0.019-0.022-0.034-0.033-0.049l0.002 0.002c-0.131-0.178-0.327-0.302-0.552-0.337l-0.005-0.001c-0.245-0.091-0.492-0.172-0.738-0.26z"></path>
</svg>
