<!-- Generated by IcoMoon.io -->
<svg version="1.1" xmlns="http://www.w3.org/2000/svg" width="32" height="32" viewBox="0 0 32 32">
<title>brain-alt-s</title>
<path d="M14.558 1.502l-0.006 0.002c-0.399 0.011-0.796 0.068-1.178 0.171-1.27 0.342-2.419 1.194-3.112 2.312l-0.405 0.654-0.726-0.257c-0.642-0.229-1.361-0.276-2.029-0.132s-1.303 0.483-1.794 0.957c-0.66 0.638-1.085 1.56-1.132 2.476l-0.040 0.827-0.827 0.068c-0.588 0.050-1.165 0.261-1.651 0.594s-0.895 0.799-1.156 1.328c-0.274 0.556-0.401 1.2-0.349 1.818 0.018 0.203 0.061 0.402 0.114 0.6 0.849-0.688 1.884-1.137 2.984-1.262 1.716-0.196 3.464 0.404 4.699 1.611 0.182 0.173 0.297 0.418 0.297 0.69 0 0.526-0.427 0.953-0.953 0.953-0.264 0-0.504-0.11-0.676-0.283-0.809-0.791-2.028-1.209-3.152-1.082-0.976 0.112-1.912 0.653-2.546 1.413l-0.002 0.006c-0.067 0.168-0.183 0.313-0.329 0.419-0.355 0.583-0.555 1.277-0.584 1.97-0.030 0.726 0.124 1.468 0.437 2.139 0.626 1.339 1.912 2.402 3.369 2.881 0.982 0.323 2.053 0.391 3.078 0.225-0.67-1.077-1.096-2.301-1.208-3.572-0.007-0.045-0.010-0.091-0.010-0.138 0-0.525 0.424-0.949 0.949-0.949 0.513 0 0.933 0.407 0.951 0.917 0.119 1.354 0.708 2.69 1.633 3.684 0.892 0.959 2.113 1.619 3.387 1.808 1.263 0.187 2.616-0.105 3.656-0.809 0.015-0.010 0.030-0.020 0.048-0.032 1.322-0.92 2.232-2.566 3.425-4.188 0.594-0.807 1.329-1.692 2.444-2.189h0.008c0.842-0.375 1.781-0.466 2.677-0.249l0.006 0.002c0.415 0.103 0.722 0.477 0.722 0.923 0 0.526-0.425 0.953-0.951 0.953-0.078 0-0.156-0.009-0.223-0.026-0.478-0.116-1.013-0.070-1.463 0.13-0.612 0.272-1.168 0.87-1.694 1.585-0.907 1.234-1.742 2.767-3.070 3.977 0.277 0.222 0.597 0.394 0.931 0.476 0.509 0.125 1.075 0.071 1.555-0.14l0.313-0.134 2.41 5.93 0.263 0.092c0.415 0.146 0.904 0.291 1.457 0.239h0.002c0.614-0.060 1.212-0.284 1.714-0.654 0.496-0.368 0.767-0.867 0.979-1.298l0.134-0.275-2.454-4.92 0.624-0.086c1.593-0.216 3.111-1.219 3.931-2.601s0.97-3.198 0.397-4.699c-0.452-1.184-1.348-2.211-2.46-2.817s-2.469-0.806-3.708-0.544l0.006-0.002c-0.066 0.015-0.134 0.022-0.205 0.022-0.525 0-0.951-0.426-0.951-0.951 0-0.454 0.32-0.834 0.752-0.929 1.695-0.357 3.491-0.094 5.012 0.736 0.988 0.538 1.834 1.303 2.476 2.215 0.489-0.904 0.717-1.962 0.622-2.976-0.116-1.237-0.712-2.445-1.619-3.295s-2.158-1.369-3.401-1.403l-0.538-0.018-0.263-0.47c-0.641-1.168-1.67-2.147-2.873-2.719-0.785-0.374-1.648-0.58-2.494-0.578-0.845 0.002-1.688 0.215-2.396 0.628-0.706 0.411-1.296 1.040-1.635 1.758-0.323 0.687-0.421 1.486-0.267 2.207l-0.004-0.006c0.019 0.054 0.033 0.11 0.042 0.173 0.068 0.246 0.16 0.456 0.271 0.598 0.152 0.196 0.408 0.346 0.652 0.389 0.243 0.044 0.532-0.008 0.744-0.138 0.146-0.090 0.317-0.142 0.5-0.142 0.525 0 0.949 0.425 0.949 0.951 0 0.341-0.178 0.639-0.451 0.809-0.62 0.384-1.36 0.526-2.081 0.397-0.674-0.121-1.271-0.474-1.714-0.991-0.432 0.376-0.933 0.672-1.481 0.865-0.607 0.21-1.262 0.298-1.908 0.241h-0.002c-0.483-0.045-0.861-0.451-0.861-0.945 0-0.525 0.424-0.949 0.949-0.949 0.030 0 0.061 0.002 0.086 0.004 0.37 0.032 0.752-0.017 1.108-0.14 0.524-0.183 0.987-0.559 1.302-1.021-0.161-1.062-0.006-2.147 0.447-3.108 0.427-0.906 1.094-1.663 1.89-2.239-0.741-0.327-1.564-0.489-2.374-0.466zM17.12 12.878c0.255-0.015 0.514-0.004 0.771 0.034l0.004 0.002c0.456 0.070 0.807 0.463 0.807 0.939 0 0.526-0.427 0.953-0.953 0.953-0.049 0-0.098-0.003-0.14-0.010-0.494-0.073-1.048 0.074-1.445 0.379-0.355 0.273-0.621 0.693-0.71 1.132-0.089 0.436-0.011 0.927 0.205 1.316l0.002 0.006c0.066 0.13 0.104 0.277 0.104 0.433 0 0.526-0.425 0.951-0.951 0.951-0.341 0-0.641-0.179-0.811-0.453-0.447-0.799-0.592-1.737-0.407-2.635s0.679-1.702 1.405-2.261c0.614-0.472 1.356-0.744 2.121-0.787z"></path>
</svg>
