<!-- Generated by IcoMoon.io -->
<svg version="1.1" xmlns="http://www.w3.org/2000/svg" width="32" height="32" viewBox="0 0 32 32">
<title>brain-s</title>
<path d="M12.147 2.001c-0.891 0.012-1.772 0.219-2.582 0.607-1.079 0.519-1.986 1.342-2.605 2.367-0.379 0.627-0.596 1.322-0.732 2.035-1.132 0.182-2.226 0.549-3.131 1.275-1.287 1.033-2.148 2.514-2.408 4.145-0.183 1.149 0.043 2.284 0.447 3.359-0.107 0.139-0.234 0.261-0.326 0.41-0.841 1.353-1.032 3.004-0.545 4.51 0.41 1.268 1.328 2.246 2.447 2.926-0.084 0.545-0.301 1.074-0.195 1.623 0.19 0.988 0.682 1.889 1.41 2.584s1.649 1.143 2.645 1.287c0.996 0.144 2.008-0.026 2.902-0.486 0.136-0.070 0.253-0.17 0.381-0.252 0.61 0.486 1.198 1.021 1.957 1.227 1.049 0.283 2.154 0.254 3.189-0.066v-26.852c-0.612-0.322-1.268-0.555-1.961-0.647-0.297-0.039-0.595-0.057-0.893-0.053zM19.854 2.001c-0.297-0.004-0.596 0.013-0.893 0.053-0.693 0.092-1.349 0.324-1.961 0.647v26.852c1.036 0.32 2.14 0.35 3.189 0.066 0.759-0.205 1.347-0.741 1.957-1.227 0.128 0.082 0.245 0.182 0.381 0.252 0.895 0.46 1.907 0.63 2.902 0.486s1.917-0.593 2.645-1.287c0.728-0.695 1.22-1.596 1.41-2.584 0.106-0.549-0.111-1.078-0.195-1.623 1.12-0.68 2.037-1.658 2.447-2.926 0.487-1.506 0.297-3.156-0.545-4.51-0.093-0.149-0.22-0.271-0.326-0.41 0.405-1.076 0.63-2.211 0.447-3.359-0.26-1.63-1.121-3.111-2.408-4.145-0.905-0.726-1.999-1.093-3.131-1.275-0.137-0.713-0.353-1.408-0.732-2.035-0.619-1.025-1.526-1.849-2.605-2.367-0.81-0.389-1.691-0.595-2.582-0.607z"></path>
</svg>
