<!-- Generated by IcoMoon.io -->
<svg version="1.1" xmlns="http://www.w3.org/2000/svg" width="32" height="32" viewBox="0 0 32 32">
<title>brain-l</title>
<path d="M12.813 2.049c-1.099-0.145-2.227 0.035-3.227 0.516s-1.846 1.248-2.42 2.197c-0.43 0.712-0.524 1.548-0.615 2.371-1.297 0.071-2.57 0.458-3.588 1.275-1.202 0.965-2.013 2.365-2.256 3.887-0.192 1.206 0.073 2.413 0.572 3.52-0.197 0.217-0.39 0.437-0.545 0.686-0.762 1.225-0.938 2.746-0.496 4.113 0.419 1.297 1.388 2.339 2.604 2.936-0.166 0.627-0.352 1.261-0.229 1.902 0.17 0.883 0.613 1.696 1.264 2.316s1.483 1.026 2.373 1.154c0.89 0.128 1.8-0.024 2.6-0.436 0.246-0.126 0.474-0.286 0.691-0.457 0.645 0.636 1.39 1.183 2.268 1.42 1.006 0.272 2.079 0.238 3.066-0.096 0.547-0.185 0.912-0.346 1.125-0.346s0.578 0.161 1.125 0.346c0.987 0.334 2.060 0.368 3.066 0.096 0.877-0.237 1.622-0.784 2.268-1.42 0.217 0.171 0.444 0.331 0.689 0.457 0.799 0.411 1.712 0.564 2.602 0.436s1.723-0.534 2.373-1.154c0.65-0.621 1.094-1.434 1.264-2.316 0.123-0.641-0.063-1.276-0.229-1.902 1.215-0.597 2.184-1.638 2.604-2.936 0.442-1.367 0.266-2.888-0.496-4.113-0.155-0.249-0.348-0.469-0.545-0.686 0.499-1.107 0.765-2.313 0.572-3.52-0.243-1.522-1.054-2.922-2.256-3.887-1.018-0.817-2.291-1.204-3.588-1.275-0.091-0.823-0.185-1.659-0.615-2.371-0.574-0.949-1.42-1.717-2.42-2.197s-2.127-0.661-3.227-0.516c-1.099 0.145-2.142 0.612-2.982 1.336-0.077 0.066-0.132 0.153-0.205 0.223-0.073-0.070-0.128-0.157-0.205-0.223-0.84-0.724-1.883-1.19-2.982-1.336zM12.59 3.734c0.765 0.101 1.511 0.436 2.096 0.939 0.174 0.15 0.32 0.33 0.467 0.508v22.326c0.001 0.011 0.002 0.018 0.002 0.025v-0.004c-0.271 0.092-0.639 0.152-0.824 0.215-0.662 0.224-1.404 0.247-2.078 0.064s-1.304-0.577-1.762-1.104c-0.403-0.464-0.686-1.043-0.805-1.646-0.078-0.395-0.422-0.689-0.835-0.689-0.469 0-0.85 0.381-0.85 0.85 0 0.059 0.006 0.117 0.018 0.173l-0.001-0.006c0.089 0.452 0.396 0.811 0.598 1.223-0.024 0.016-0.044 0.032-0.064 0.048l0.001-0.001c-0.148 0.123-0.309 0.23-0.48 0.318-0.478 0.246-1.048 0.34-1.58 0.264s-1.053-0.33-1.441-0.701c-0.389-0.371-0.666-0.878-0.768-1.406-0.079-0.413 0.027-0.838 0.148-1.244 0.41 0.053 0.802 0.231 1.215 0.184 0.442-0.033 0.788-0.4 0.788-0.848 0-0.469-0.381-0.85-0.85-0.85-0.046 0-0.092 0.004-0.136 0.011l0.005-0.001c-0.592 0.068-1.212-0.026-1.758-0.266-0.851-0.374-1.556-1.148-1.84-2.027-0.284-0.877-0.161-1.914 0.322-2.691 0.018-0.030 0.045-0.053 0.064-0.082 0.819 0.934 1.839 1.685 3.047 2.002 0.352 0.092 0.713 0.152 1.076 0.182 0.029 0.004 0.063 0.006 0.097 0.006 0.469 0 0.85-0.381 0.85-0.85 0-0.455-0.357-0.826-0.806-0.849h-0.002c-0.264-0.021-0.527-0.066-0.783-0.133-1.070-0.28-2.050-0.986-2.654-1.912s-0.856-2.107-0.682-3.199c0.174-1.092 0.78-2.136 1.643-2.828 0.849-0.681 1.976-1.038 3.064-0.986 0.029 0.004 0.062 0.007 0.097 0.008h0.001c1.369 0.098 2.719 0.875 3.475 2.020 0.152 0.247 0.42 0.408 0.726 0.408 0.469 0 0.85-0.381 0.85-0.85 0-0.185-0.059-0.357-0.16-0.496l0.002 0.002c-0.889-1.348-2.337-2.157-3.898-2.51 0.062-0.587 0.134-1.187 0.438-1.689 0.399-0.661 1.003-1.211 1.699-1.545s1.504-0.463 2.27-0.361zM19.41 3.734c0.765-0.101 1.572 0.027 2.268 0.361s1.302 0.884 1.701 1.545c0.303 0.502 0.375 1.103 0.438 1.689-1.562 0.353-3.009 1.162-3.898 2.51-0.099 0.137-0.158 0.309-0.158 0.494 0 0.469 0.381 0.85 0.85 0.85 0.306 0 0.575-0.162 0.724-0.405l0.002-0.004c0.756-1.145 2.107-1.922 3.477-2.020 0.035-0.001 0.068-0.004 0.1-0.008l-0.005 0.001c1.088-0.052 2.215 0.305 3.064 0.986 0.863 0.692 1.468 1.736 1.643 2.828s-0.077 2.273-0.682 3.199c-0.605 0.926-1.584 1.632-2.654 1.912-0.256 0.067-0.519 0.111-0.783 0.133-0.451 0.023-0.808 0.394-0.808 0.849 0 0.469 0.381 0.85 0.85 0.85 0.034 0 0.068-0.002 0.101-0.006h-0.004c0.363-0.030 0.724-0.089 1.076-0.182 1.208-0.317 2.228-1.068 3.047-2.002 0.019 0.029 0.046 0.052 0.064 0.082 0.483 0.777 0.606 1.814 0.322 2.691-0.284 0.879-0.988 1.653-1.84 2.027-0.546 0.24-1.166 0.334-1.758 0.266-0.039-0.006-0.085-0.010-0.131-0.010-0.469 0-0.85 0.381-0.85 0.85 0 0.448 0.346 0.814 0.785 0.848h0.003c0.413 0.047 0.803-0.13 1.213-0.184 0.121 0.407 0.23 0.832 0.15 1.244-0.102 0.528-0.379 1.035-0.768 1.406s-0.909 0.624-1.441 0.701c-0.532 0.077-1.102-0.018-1.58-0.264-0.171-0.088-0.333-0.195-0.48-0.318-0.018-0.015-0.039-0.031-0.060-0.045l-0.003-0.002c0.202-0.411 0.509-0.771 0.598-1.223 0.011-0.050 0.017-0.108 0.017-0.168 0-0.469-0.381-0.85-0.85-0.85-0.413 0-0.757 0.294-0.834 0.684l-0.001 0.005c-0.119 0.603-0.401 1.182-0.805 1.646-0.458 0.527-1.087 0.921-1.762 1.104s-1.416 0.159-2.078-0.064c-0.183-0.062-0.55-0.121-0.818-0.213 0-0.003 0-0.008 0-0.012s0-0.008 0-0.012v0.001-22.33c0.145-0.176 0.29-0.355 0.463-0.504 0.585-0.504 1.33-0.838 2.096-0.939z"></path>
</svg>
