<!-- Generated by IcoMoon.io -->
<svg version="1.1" xmlns="http://www.w3.org/2000/svg" width="32" height="32" viewBox="0 0 32 32">
<title>brain-r</title>
<path d="M13.039 2.053c-1.187-0.157-2.395 0.036-3.475 0.555s-1.986 1.342-2.605 2.367c-0.379 0.627-0.596 1.322-0.732 2.035-1.132 0.182-2.226 0.549-3.131 1.275-1.287 1.033-2.148 2.514-2.408 4.145-0.183 1.149 0.043 2.284 0.447 3.359-0.107 0.139-0.234 0.261-0.326 0.41-0.841 1.353-1.032 3.004-0.545 4.51 0.41 1.268 1.328 2.246 2.447 2.926-0.085 0.545-0.301 1.076-0.195 1.625 0.19 0.988 0.682 1.887 1.41 2.582s1.649 1.143 2.645 1.287c0.996 0.144 2.008-0.026 2.902-0.486 0.136-0.070 0.253-0.17 0.381-0.252 0.61 0.486 1.198 1.021 1.957 1.227 1.097 0.296 2.258 0.26 3.334-0.104 0.593-0.201 0.873-0.295 0.855-0.295s0.263 0.094 0.855 0.295c1.076 0.364 2.237 0.4 3.334 0.104 0.759-0.205 1.347-0.741 1.957-1.227 0.128 0.082 0.245 0.182 0.381 0.252 0.895 0.46 1.907 0.63 2.902 0.486s1.917-0.593 2.645-1.287c0.728-0.695 1.22-1.594 1.41-2.582 0.106-0.549-0.111-1.080-0.195-1.625 1.12-0.68 2.037-1.658 2.447-2.926 0.487-1.506 0.297-3.156-0.545-4.51-0.093-0.149-0.22-0.271-0.326-0.41 0.405-1.076 0.63-2.211 0.447-3.359-0.26-1.63-1.121-3.111-2.408-4.145-0.905-0.726-1.999-1.093-3.131-1.275-0.137-0.713-0.353-1.408-0.732-2.035-0.619-1.025-1.526-1.849-2.605-2.367s-2.287-0.712-3.475-0.555c-1.088 0.144-2.098 0.607-2.961 1.279-0.863-0.672-1.873-1.135-2.961-1.279zM12.647 5.028c0.597 0.079 1.19 0.345 1.646 0.738 0.078 0.067 0.138 0.152 0.209 0.227v20.6c-0.069 0.030-0.269 0.063-0.32 0.080-0.502 0.17-1.079 0.187-1.59 0.049s-0.999-0.443-1.346-0.842c-0.306-0.352-0.525-0.802-0.615-1.26-0.133-0.703-0.743-1.228-1.475-1.228-0.828 0-1.5 0.672-1.5 1.5 0 0.109 0.012 0.216 0.034 0.318l-0.002-0.010c0.057 0.289 0.283 0.506 0.383 0.781-0.323 0.159-0.715 0.231-1.070 0.18-0.365-0.053-0.737-0.234-1.004-0.488s-0.466-0.619-0.535-0.98c-0.019-0.099 0.039-0.199 0.037-0.303 0.23 0.002 0.444 0.128 0.674 0.102 0.76-0.081 1.346-0.718 1.346-1.492 0-0.828-0.672-1.5-1.5-1.5-0.066 0-0.132 0.004-0.196 0.013l0.008-0.001c-0.444 0.051-0.919-0.021-1.328-0.201-0.63-0.277-1.176-0.877-1.385-1.521-0.108-0.333 0.074-0.678 0.123-1.041 0.697 0.533 1.476 0.952 2.336 1.178 0.376 0.099 0.761 0.164 1.148 0.195 0.038 0.003 0.082 0.005 0.127 0.005 0.828 0 1.5-0.672 1.5-1.5 0-0.787-0.607-1.433-1.378-1.495h-0.005c-0.213-0.017-0.425-0.053-0.631-0.107-0.854-0.224-1.656-0.802-2.139-1.541s-0.69-1.706-0.551-2.578c0.139-0.872 0.636-1.727 1.324-2.279 0.675-0.541 1.595-0.821 2.461-0.783 0.035 0.004 0.078 0.007 0.121 0.008h0.002c1.076 0.090 2.171 0.717 2.764 1.615 0.271 0.417 0.735 0.69 1.262 0.69 0.828 0 1.5-0.672 1.5-1.5 0-0.314-0.097-0.606-0.262-0.847l0.003 0.005c-0.826-1.252-2.109-2.013-3.506-2.482 0.077-0.271 0.066-0.566 0.209-0.803 0.312-0.516 0.793-0.952 1.336-1.213s1.186-0.364 1.783-0.285zM19.354 5.028c0.597-0.079 1.24 0.024 1.783 0.285s1.024 0.697 1.336 1.213c0.143 0.237 0.132 0.532 0.209 0.803-1.397 0.469-2.68 1.23-3.506 2.482-0.162 0.236-0.259 0.528-0.259 0.842 0 0.828 0.672 1.5 1.5 1.5 0.527 0 0.991-0.272 1.259-0.684l0.004-0.006c0.593-0.899 1.689-1.528 2.766-1.617 0.043 0 0.085-0.002 0.127-0.006h-0.006c0.866-0.038 1.786 0.242 2.461 0.783 0.689 0.553 1.185 1.407 1.324 2.279s-0.068 1.839-0.551 2.578c-0.483 0.739-1.285 1.317-2.139 1.541-0.206 0.054-0.418 0.090-0.631 0.107-0.777 0.063-1.383 0.708-1.383 1.496 0 0.828 0.672 1.5 1.5 1.5 0.045 0 0.089-0.002 0.133-0.006h-0.006c0.387-0.032 0.772-0.097 1.148-0.195 0.86-0.225 1.639-0.645 2.336-1.178 0.049 0.363 0.231 0.708 0.123 1.041-0.208 0.645-0.754 1.244-1.385 1.521-0.409 0.18-0.884 0.252-1.328 0.201-0.056-0.008-0.122-0.012-0.188-0.012-0.828 0-1.5 0.672-1.5 1.5 0 0.774 0.587 1.412 1.34 1.492l0.007 0.001c0.23 0.026 0.444-0.099 0.674-0.102-0.002 0.104 0.056 0.204 0.037 0.303-0.070 0.362-0.269 0.726-0.535 0.98s-0.639 0.436-1.004 0.488c-0.355 0.051-0.747-0.021-1.070-0.18 0.1-0.275 0.326-0.492 0.383-0.781 0.020-0.093 0.032-0.199 0.032-0.308 0-0.828-0.672-1.5-1.5-1.5-0.732 0-1.342 0.525-1.474 1.219l-0.001 0.009c-0.090 0.458-0.309 0.908-0.615 1.26-0.347 0.399-0.835 0.704-1.346 0.842s-1.088 0.121-1.59-0.049c-0.050-0.017-0.248-0.049-0.316-0.078v-20.605c0.070-0.073 0.129-0.157 0.205-0.223 0.457-0.393 1.049-0.659 1.646-0.738z"></path>
</svg>
