<!-- Generated by IcoMoon.io -->
<svg version="1.1" xmlns="http://www.w3.org/2000/svg" width="32" height="32" viewBox="0 0 32 32">
<title>briefcase-r</title>
<path d="M11.592 3c-0.948 0-1.742 0.794-1.742 1.742v2.766h-6.244c-1.976 0-3.605 1.631-3.605 3.607v14.279c0 1.976 1.629 3.605 3.605 3.605h24.789c1.976 0 3.605-1.629 3.605-3.605v-14.279c0-1.976-1.629-3.607-3.605-3.607h-6.244v-2.766c0-0.948-0.794-1.742-1.742-1.742h-8.816zM11.85 5h8.301v2.508h-8.301v-2.508zM3.605 10.008h24.789c0.635 0 1.105 0.473 1.105 1.107v14.279c0 0.635-0.471 1.105-1.105 1.105h-24.789c-0.635 0-1.105-0.471-1.105-1.105v-14.279c0-0.635 0.471-1.107 1.105-1.107zM4.174 13.928v2.5c0.609 0 1.217 0 1.826 0v1.992c0 0.952 0.767 1.719 1.719 1.719h1.563c0.952 0 1.719-0.767 1.719-1.719v-1.992c3.334 0 6.667 0 10 0v1.992c0 0.952 0.767 1.719 1.719 1.719h1.563c0.952 0 1.719-0.767 1.719-1.719v-1.992c0.609 0 1.218 0 1.826 0v-2.5c-7.883-0.001-15.768-0.001-23.652 0z"></path>
</svg>
