<!-- Generated by IcoMoon.io -->
<svg version="1.1" xmlns="http://www.w3.org/2000/svg" width="32" height="32" viewBox="0 0 32 32">
<title>bubble-smile-r</title>
<path d="M16 1c-8.667 0-16 5.777-16 13.281 0 3.997 2.182 7.507 5.432 9.9 0 0.023 0.006 0.045 0.006 0.068 0 0.564-0.294 1.464-0.83 2.264s-1.296 1.492-1.955 1.814c-0.5 0.25-0.838 0.759-0.838 1.346 0 0.828 0.672 1.5 1.5 1.5 0.012 0 0.023 0 0.035 0h-0.002c3.519-0.081 7.487-0.735 10.846-3.725 0.597 0.056 1.193 0.113 1.807 0.113 8.667 0 16-5.777 16-13.281s-7.333-13.281-16-13.281zM16 4c7.35 0 13 4.772 13 10.281s-5.65 10.281-13 10.281c-0.706 0-1.397-0.045-2.070-0.131-0.057-0.008-0.123-0.012-0.191-0.012-0.415 0-0.79 0.168-1.061 0.44v0c-1.618 1.618-3.415 2.346-5.297 2.775 0.609-1.046 1.057-2.176 1.057-3.385 0-0.355-0.028-0.701-0.078-1.035-0.067-0.432-0.31-0.798-0.653-1.026l-0.005-0.003c-2.939-1.935-4.701-4.775-4.701-7.904 0-5.509 5.65-10.281 13-10.281zM11.051 10.41c-1.105 0-2 0.895-2 2v0c0 0.001 0 0.001 0 0.002 0 1.105 0.895 2 2 2v0c1.105 0 2-0.895 2-2 0-0.001 0-0.001 0-0.002v0c0-1.105-0.895-2-2-2v0zM20.949 10.41c-1.105 0-2 0.895-2 2v0c0 0.001 0 0.001 0 0.002 0 1.105 0.895 2 2 2v0c1.105 0 2-0.895 2-2 0-0.001 0-0.001 0-0.002v0c0-1.105-0.895-2-2-2v0zM10.492 16.34c-0.803 0.032-1.442 0.691-1.442 1.499 0 0.284 0.079 0.549 0.216 0.775l-0.004-0.007c1.389 2.405 3.961 3.891 6.738 3.891s5.35-1.486 6.738-3.891c0.126-0.215 0.201-0.474 0.201-0.75 0-0.829-0.672-1.501-1.501-1.501-0.553 0-1.036 0.299-1.296 0.744l-0.004 0.007c-0.855 1.481-2.429 2.391-4.139 2.391s-3.284-0.91-4.139-2.391c-0.262-0.462-0.75-0.769-1.31-0.769-0.021 0-0.042 0-0.062 0.001h0.003z"></path>
</svg>
