<!-- Generated by IcoMoon.io -->
<svg version="1.1" xmlns="http://www.w3.org/2000/svg" width="32" height="32" viewBox="0 0 32 32">
<title>bubble-smile-s</title>
<path d="M16 2c-8.837 0-16 5.82-16 13 0 4.079 2.313 7.721 5.932 10.104 0.044 0.293 0.068 0.591 0.068 0.896 0 2.184-1.858 4.096-4 5.145v0.842c3.966-0.091 8.069-0.708 11.506-4.145 0.813 0.104 1.645 0.158 2.494 0.158 8.837 0 16-5.82 16-13s-7.163-13-16-13zM11.051 11.236c1.105 0 2 0.895 2 2v0c0 1.105-0.895 2-2 2v0c-1.105 0-2-0.895-2-2v0c0-1.105 0.895-2 2-2v0zM20.949 11.236c1.105 0 2 0.895 2 2v0c0 1.105-0.895 2-2 2v0c-1.105 0-2-0.895-2-2v0c0-1.105 0.895-2 2-2v0zM10.492 17.166c0.018-0.001 0.039-0.001 0.059-0.001 0.56 0 1.048 0.307 1.306 0.761l0.004 0.007c0.855 1.481 2.429 2.391 4.139 2.391s3.284-0.91 4.139-2.391c0.264-0.452 0.747-0.751 1.3-0.751 0.829 0 1.501 0.672 1.501 1.501 0 0.276-0.075 0.535-0.205 0.758l0.004-0.007c-1.389 2.405-3.961 3.891-6.738 3.891s-5.35-1.486-6.738-3.891c-0.133-0.22-0.212-0.485-0.212-0.769 0-0.808 0.639-1.467 1.439-1.499h0.003z"></path>
</svg>
