<!-- Generated by IcoMoon.io -->
<svg version="1.1" xmlns="http://www.w3.org/2000/svg" width="32" height="32" viewBox="0 0 32 32">
<title>bubbles-s</title>
<path d="M13.333 2v0c7.364 0 13.333 4.831 13.333 10.79s-5.97 10.79-13.333 10.79c-0.708 0-1.401-0.045-2.079-0.131-2.864 2.852-6.172 3.364-9.476 3.439v-0.698c1.785-0.871 3.222-2.458 3.222-4.27 0-0.253-0.020-0.501-0.056-0.744-3.015-1.978-4.944-5-4.944-8.386 0-5.959 5.97-10.79 13.333-10.79zM27.667 26.186c0 1.554 1.009 2.914 2.556 3.66v0.598c-2.865-0.064-5.494-0.503-7.976-2.948-0.588 0.074-1.188 0.112-1.802 0.112-2.652 0-5.095-0.716-7.044-1.917 4.019-0.014 7.812-1.301 10.69-3.63 1.45-1.173 2.595-2.551 3.4-4.093 0.854-1.636 1.288-3.377 1.288-5.178 0-0.29-0.012-0.579-0.035-0.866 2.016 1.665 3.257 3.934 3.257 6.436 0 2.902-1.671 5.492-4.284 7.188-0.032 0.208-0.049 0.421-0.049 0.638z"></path>
</svg>
