<!-- Generated by IcoMoon.io -->
<svg version="1.1" xmlns="http://www.w3.org/2000/svg" width="32" height="32" viewBox="0 0 32 32">
<title>bubble-smile-l</title>
<path d="M16 1c-8.741 0-16 5.796-16 13.16 0 4.035 2.244 7.6 5.648 9.988 0.013 0.142 0.033 0.284 0.033 0.428 0 0.793-0.369 1.837-0.99 2.764s-1.485 1.73-2.322 2.141c-0.284 0.142-0.476 0.43-0.476 0.763 0 0.47 0.381 0.85 0.85 0.85 0.007 0 0.014 0 0.022 0h-0.001c3.709-0.085 7.739-0.731 11.131-3.908 0.691 0.075 1.39 0.133 2.105 0.133 8.741 0 16-5.794 16-13.158s-7.259-13.16-16-13.16zM16 2.699c7.994 0 14.301 5.228 14.301 11.461s-6.306 11.459-14.301 11.459c-0.768 0-1.52-0.049-2.254-0.143-0.032-0.004-0.070-0.007-0.108-0.007-0.235 0-0.447 0.095-0.601 0.249v0c-2.273 2.273-4.878 2.969-7.561 3.305 0.208-0.249 0.447-0.47 0.627-0.738 0.766-1.142 1.277-2.434 1.277-3.709 0-0.333-0.027-0.66-0.074-0.977-0.038-0.245-0.176-0.453-0.37-0.582l-0.003-0.002c-3.234-2.129-5.234-5.314-5.234-8.855 0-6.233 6.306-11.461 14.301-11.461zM11 10.932c-0.828 0-1.5 0.672-1.5 1.5v0c0 0.828 0.672 1.5 1.5 1.5v0c0.828 0 1.5-0.672 1.5-1.5v0c0-0.828-0.672-1.5-1.5-1.5v0zM21 10.932c-0.828 0-1.5 0.672-1.5 1.5v0c0 0.828 0.672 1.5 1.5 1.5v0c0.828 0 1.5-0.672 1.5-1.5v0c0-0.828-0.672-1.5-1.5-1.5v0zM21.406 17.197c-0.306 0.019-0.566 0.197-0.701 0.452l-0.002 0.005c-0.971 1.681-2.762 2.715-4.703 2.715s-3.732-1.034-4.703-2.715c-0.148-0.262-0.425-0.436-0.742-0.436-0.011 0-0.022 0-0.033 0.001h0.002c-0.455 0.018-0.817 0.391-0.817 0.849 0 0.161 0.045 0.311 0.122 0.439l-0.002-0.004c1.273 2.205 3.628 3.564 6.174 3.564s4.901-1.36 6.174-3.564c0.084-0.13 0.134-0.288 0.134-0.458 0-0.47-0.381-0.85-0.85-0.85-0.018 0-0.036 0.001-0.054 0.002h0.002z"></path>
</svg>
