<!-- Generated by IcoMoon.io -->
<svg version="1.1" xmlns="http://www.w3.org/2000/svg" width="32" height="32" viewBox="0 0 32 32">
<title>bubbles-r</title>
<path d="M13.557 1.5c-0.090 0.001-0.177 0.028-0.266 0.045-0.018 0-0.033 0.009-0.051 0.010-7.172 0.147-13.24 4.921-13.24 11.203 0 3.36 1.829 6.296 4.521 8.313-0.019 0.836-0.836 1.914-2.084 2.523 0 0-0.001 0-0.001 0s-0.001 0-0.001 0v0c-0.502 0.246-0.822 0.761-0.822 1.32v0.633c0 0.815 0.685 1.485 1.5 1.467 2.715-0.061 5.688-0.589 8.346-2.602 0.406 0.436 0.812 0.875 1.295 1.23 2.017 1.484 4.485 2.094 6.859 2.090 0.547-0.001 1.085-0.057 1.617-0.121 2.423 2.079 5.117 2.572 7.656 2.629 0.815 0.018 1.5-0.651 1.5-1.467v-0.545c0-0.562-0.324-1.078-0.83-1.322-0.93-0.449-1.36-1.113-1.43-1.822 0.528-0.361 1.043-0.738 1.473-1.195 0.996-1.059 1.681-2.359 2.045-3.736 0.029-0.098 0.058-0.195 0.084-0.293 0.171-0.654 0.271-1.34 0.271-2.051 0-2.366-1.019-4.53-2.639-6.188-0.066-0.069-0.137-0.131-0.215-0.186l0.070 0.059c-0.241-0.236-0.496-0.469-0.773-0.684-0.579-0.449-1.223-0.79-1.883-1.084-1.628-4.843-6.894-8.227-12.998-8.227-0.001 0-0.002 0-0.003 0s-0.002 0-0.003 0v0zM13.559 4.438h0.004c0.004 0 0.009 0 0.014 0 6.034 0.006 10.615 3.904 10.615 8.318 0 4.418-4.589 8.322-10.629 8.322-0.548 0-1.085-0.038-1.617-0.102l0.080 0.016c-0.118-0.029-0.24-0.043-0.361-0.043-0.451 0.002-0.878 0.211-1.154 0.568l0.061-0.068c-1.202 1.17-2.512 1.667-3.885 1.99 0.457-0.697 0.785-1.477 0.785-2.4 0-0.303-0.021-0.599-0.064-0.891-0.062-0.414-0.298-0.782-0.648-1.012-2.404-1.577-3.822-3.864-3.822-6.379 0-4.417 4.585-8.319 10.623-8.32zM27.025 13.58c1.053 1.003 1.827 2.351 1.963 3.775 0.069 0.724-0.015 1.475-0.227 2.193-0.465 1.367-1.465 2.604-2.906 3.541-0.001 0.001-0.003 0.003-0.004 0.004v0c-0.008 0.003-0.011 0.004-0.014 0.006l0.004-0.002c-0.078 0.051-0.152 0.111-0.219 0.176 0 0 0 0.002 0 0.002-0.32 0.306-0.486 0.743-0.449 1.184l-0.002-0.045c-0.017 0.143-0.039 0.301-0.039 0.496 0 0.642 0.162 1.224 0.414 1.756-0.976-0.288-1.914-0.709-2.834-1.615-0.206-0.202-0.467-0.338-0.75-0.393-0.005-0.001-0.014-0.003-0.023-0.005l-0.004-0.001c-0.009-0.001-0.017-0.003-0.025-0.004-0.033-0.006-0.066-0.010-0.1-0.014h-0.004c-0.135-0.013-0.271-0.007-0.404 0.018l0.012-0.004c-0.596 0.097-1.201 0.147-1.805 0.148-1.512 0.003-2.957-0.415-4.217-1.086 6.156-0.721 11.16-4.717 11.633-10.131z"></path>
</svg>
