<!-- Generated by IcoMoon.io -->
<svg version="1.1" xmlns="http://www.w3.org/2000/svg" width="32" height="32" viewBox="0 0 32 32">
<title>bug-l</title>
<path d="M15.994 0.5c-1.275 0-2.549 0.382-3.641 1.147-2.038 1.427-2.983 3.908-2.547 6.326-0.225 0.197-0.439 0.404-0.646 0.617-1.343-0.001-3.228 0-3.879 0l-1.772-7.023c-0.091-0.378-0.427-0.654-0.826-0.654-0.018 0-0.037 0.001-0.055 0.002h0.002c-0.446 0.028-0.797 0.397-0.797 0.847 0 0.079 0.011 0.155 0.031 0.227l-0.001-0.006 2.094 8.307h0.662c0 0 1.773 0 3.191 0-1.138 1.751-1.802 3.816-1.916 5.959-1.675-0.023-3.353-0.058-5.045-0.057-0.469 0-0.85 0.38-0.85 0.85s0.38 0.85 0.85 0.85v0c1.682-0.001 3.374 0.035 5.070 0.059 0.064 0.768 0.195 1.537 0.406 2.297 0.154 0.552 0.348 1.084 0.57 1.594-1.010 0-2.277 0-2.277 0h-0.662l-2.094 8.307c-0.016 0.062-0.026 0.134-0.026 0.208 0 0.469 0.38 0.849 0.849 0.849 0.395 0 0.727-0.27 0.822-0.635l0.001-0.006 1.771-7.025c0.539 0 1.624 0 2.529 0 1.859 2.853 4.859 4.664 8.178 4.664s6.319-1.811 8.178-4.664c0.906 0 1.99 0 2.529 0l1.771 7.025c0.096 0.371 0.428 0.641 0.823 0.641 0.469 0 0.849-0.38 0.849-0.849 0-0.074-0.009-0.146-0.027-0.214l0.001 0.006-2.094-8.307h-0.662c0 0-1.267 0-2.277 0 0.223-0.51 0.416-1.041 0.57-1.594 0.216-0.777 0.35-1.563 0.412-2.348 1.679 0.007 3.362 0.037 5.055 0.057 0.003 0 0.006 0 0.010 0 0.469 0 0.85-0.38 0.85-0.85 0-0.466-0.375-0.844-0.84-0.85v0c-1.676-0.020-3.364-0.050-5.057-0.057-0.122-2.125-0.786-4.173-1.916-5.91 1.419 0 3.193 0 3.193 0h0.662l2.094-8.307c0.018-0.066 0.029-0.142 0.029-0.22 0-0.459-0.365-0.834-0.82-0.849h-0.001c-0.008 0-0.018 0-0.027 0-0.399 0-0.734 0.276-0.825 0.647l-0.001 0.006-1.771 7.023c-0.652 0-2.54-0.001-3.883 0-0.203-0.209-0.411-0.411-0.631-0.604 0.442-2.423-0.503-4.91-2.545-6.34-1.092-0.765-2.368-1.147-3.643-1.147zM15.994 2.195c0.933 0 1.866 0.28 2.668 0.842 1.594 1.116 2.312 3.098 1.824 4.979-0.023 0.074-0.037 0.159-0.037 0.247 0 0.095 0.016 0.186 0.044 0.271l-0.002-0.006c0.004 0.014 0.007 0.022 0.010 0.029l-0.002-0.006c0 0 0 0.001 0 0.001s0 0.001 0 0.001v0c0.011 0.032 0.022 0.057 0.033 0.081l-0.002-0.005c0 0 0 0.001 0 0.001s0 0.001 0 0.001v0c0.065 0.142 0.163 0.258 0.284 0.344l0.003 0.002c2.987 2.398 4.32 6.785 3.197 10.813-1.128 4.047-4.395 6.715-8.027 6.715s-6.899-2.668-8.027-6.715c-1.119-4.016 0.206-8.385 3.174-10.787 0.241-0.153 0.399-0.418 0.399-0.72 0-0.082-0.012-0.162-0.034-0.237l0.002 0.006c-0.507-1.891 0.222-3.89 1.826-5.014 0.802-0.562 1.733-0.842 2.666-0.842z"></path>
</svg>
