<!-- Generated by IcoMoon.io -->
<svg version="1.1" xmlns="http://www.w3.org/2000/svg" width="30" height="32" viewBox="0 0 30 32">
<title>calendar-r</title>
<path d="M0 0v7h30.148v-7h-3.617v3.020h-5.279v-3.020h-12.355v3.020h-5.279v-3.020h-3.617zM0 9.754v22.246h30.148v-22.246h-30.148zM3 12.754h24.148v16.246h-24.148v-16.246zM10.855 14.195v3.438h3.438v-3.438h-3.438zM15.855 14.195v3.438h3.438v-3.438h-3.438zM20.855 14.195v3.438h3.438v-3.438h-3.438zM5.855 19.195v3.438h3.438v-3.438h-3.438zM10.855 19.195v3.438h3.438v-3.438h-3.438zM15.855 19.195v3.438h3.438v-3.438h-3.438zM20.855 19.195v3.438h3.438v-3.438h-3.438zM5.855 24.195v3.438h3.438v-3.438h-3.438zM10.855 24.195v3.438h3.438v-3.438h-3.438zM15.855 24.195v3.438h3.438v-3.438h-3.438z"></path>
</svg>
