<!-- Generated by IcoMoon.io -->
<svg version="1.1" xmlns="http://www.w3.org/2000/svg" width="30" height="32" viewBox="0 0 30 32">
<title>calendar-l</title>
<path d="M0 0v32h30.152v-32h-5.115v2.85h-3.281v-2.85h-13.359v2.85h-3.281v-2.85h-5.115zM1.701 1.699h1.715v2.85h6.68v-2.85h9.961v2.85h6.68v-2.85h1.715v5.605c-8.916-0.001-17.832-0.001-26.75 0v-5.605zM1.701 9.006c8.917-0.001 17.834-0.001 26.75 0v21.295h-26.75v-21.295zM11.076 13.189v3h3v-3h-3zM16.076 13.189v3h3v-3h-3zM21.076 13.189v3h3v-3h-3zM6.076 18.189v3h3v-3h-3zM11.076 18.189v3h3v-3h-3zM16.076 18.189v3h3v-3h-3zM21.076 18.189v3h3v-3h-3zM6.076 23.189v3h3v-3h-3zM11.076 23.189v3h3v-3h-3zM16.076 23.189v3h3v-3h-3z"></path>
</svg>
