<!-- Generated by IcoMoon.io -->
<svg version="1.1" xmlns="http://www.w3.org/2000/svg" width="30" height="32" viewBox="0 0 30 32">
<title>calendar-check-s</title>
<path d="M0 0v7h30.148v-7h-3.617v3.020h-5.279v-3.020h-12.355v3.020h-5.279v-3.020h-3.617zM0 9.754v22.246h30.148v-22.246h-30.148zM21.188 14.078c0.013 0 0.028-0.001 0.043-0.001 0.828 0 1.5 0.672 1.5 1.5 0 0.422-0.174 0.804-0.455 1.076v0c-2.597 2.595-5.194 5.19-7.791 7.789-0.27 0.373-0.7 0.615-1.188 0.625h-0.002c0.004 0-0.001 0-0.006 0.001l-0.008 0.001c-0.017-0.001-0.032-0.001-0.047-0.002h0.004c-0.004 0-0.008 0-0.012 0-0.038 0-0.076-0.001-0.114-0.004h0.005c-0.454-0.038-0.847-0.273-1.097-0.619l-0.003-0.004c-1.345-1.347-2.763-2.763-4.145-4.143-0.285-0.273-0.462-0.658-0.462-1.083 0-0.829 0.672-1.5 1.5-1.5 0.425 0 0.808 0.176 1.081 0.46v0c1.086 1.085 2.18 2.179 3.26 3.26 2.301-2.303 4.603-4.605 6.904-6.904 0.263-0.27 0.626-0.441 1.029-0.453h0.002z"></path>
</svg>
