<!-- Generated by IcoMoon.io -->
<svg version="1.1" xmlns="http://www.w3.org/2000/svg" width="30" height="32" viewBox="0 0 30 32">
<title>calendar-check-r</title>
<path d="M0 0v7h30.148v-7h-3.617v3.020h-5.279v-3.020h-12.355v3.020h-5.279v-3.020h-3.617zM0 9.754v22.246h30.148v-22.246h-30.148zM3 12.754h24.148v16.246h-24.148v-16.246zM21.188 14.078c-0.405 0.012-0.768 0.183-1.031 0.453v0c-2.301 2.3-4.603 4.602-6.904 6.904-1.080-1.080-2.173-2.175-3.26-3.26-0.273-0.284-0.657-0.46-1.081-0.46-0.829 0-1.5 0.672-1.5 1.5 0 0.425 0.177 0.81 0.462 1.083h0.001c1.381 1.379 2.8 2.796 4.145 4.143 0.252 0.35 0.645 0.585 1.094 0.623h0.005c0.033 0.003 0.071 0.004 0.109 0.004 0.004 0 0.009 0 0.013 0h-0.001c0.011 0.001 0.026 0.001 0.041 0.002h0.002c0.013-0.002 0.017-0.002 0.022-0.003l-0.008 0.001c0.489-0.010 0.919-0.252 1.186-0.621l0.003-0.004c2.597-2.599 5.194-5.194 7.791-7.789 0.281-0.273 0.456-0.654 0.456-1.077 0-0.829-0.672-1.5-1.5-1.5-0.015 0-0.030 0-0.045 0.001h0.002z"></path>
</svg>
