<!-- Generated by IcoMoon.io -->
<svg version="1.1" xmlns="http://www.w3.org/2000/svg" width="32" height="32" viewBox="0 0 32 32">
<title>cart-r</title>
<path d="M7.181 0.001c-0.013 0-0.027-0.001-0.042-0.001-0.091 0-0.179 0.008-0.266 0.023l0.009-0.001c-0.321 0-3.575-0.001-5.365 0-0.005 0-0.011 0-0.017 0-0.828 0-1.5 0.672-1.5 1.5s0.672 1.5 1.5 1.5c0.006 0 0.012 0 0.018 0h-0.001c1.448 0 3.252 0 4.346 0 0.992 6.26 1.983 12.521 2.975 18.783 0.002 0.344 0.119 0.66 0.315 0.912l-0.003-0.003c0.014 0.019 0.027 0.034 0.039 0.049l-0.002-0.002c0.011 0.012 0.019 0.023 0.029 0.033l-0.001-0.001c0.277 0.326 0.688 0.532 1.146 0.532 0.095 0 0.189-0.009 0.279-0.026l-0.009 0.001c5.535-0.001 11.071-0.001 16.605 0 0.005 0 0.011 0 0.017 0 0.828 0 1.5-0.672 1.5-1.5s-0.672-1.5-1.5-1.5c-0.006 0-0.012 0-0.018 0h0.001c-5.199-0.001-10.399 0-15.599 0-0.167-1.056-0.335-2.112-0.502-3.168 6.294 0 16.783 0 17.125 0 0.083 0.016 0.178 0.026 0.276 0.026 0.48 0 0.908-0.226 1.183-0.577l0.003-0.003c0.006-0.008 0.014-0.018 0.023-0.029l0.003-0.004c0 0 0.004-0.006 0.008-0.013l0.004-0.007c0.173-0.231 0.282-0.52 0.295-0.833v-0.003c0.621-3.557 1.292-7.128 1.867-10.734 0.044-0.135 0.070-0.291 0.070-0.452 0-0.287-0.080-0.555-0.22-0.783l0.004 0.007c-0.022-0.038-0.041-0.067-0.062-0.097l0.003 0.005c-0.001-0.001-0.003-0.003-0.004-0.004v0c-0.262-0.376-0.685-0.625-1.167-0.646h-0.003c-0.018-0.001-0.039-0.001-0.060-0.001-0.088 0-0.174 0.008-0.257 0.022l0.009-0.001c-0.304 0-13.672 0-21.336 0-0.079-0.495-0.156-0.991-0.234-1.486-0.002-0.392-0.155-0.749-0.403-1.015l0.001 0.001c-0.024-0.026-0.047-0.050-0.072-0.074l-0.001-0.001c0 0-0.004-0.003-0.007-0.006l-0.003-0.002c-0.259-0.25-0.608-0.408-0.994-0.42h-0.002zM9.371 6.002c7.171 0 17.415 0 19.328 0-0.451 2.701-0.935 5.408-1.416 8.129-1.432 0-10.761 0-16.623 0-0.429-2.71-0.86-5.419-1.289-8.129zM11.851 24.322c-2.11 0-3.838 1.73-3.838 3.84s1.728 3.838 3.838 3.838c2.11 0 3.84-1.728 3.84-3.838s-1.73-3.84-3.84-3.84zM25.923 24.322c-2.11 0-3.838 1.73-3.838 3.84s1.728 3.838 3.838 3.838c2.11 0 3.838-1.728 3.838-3.838s-1.728-3.84-3.838-3.84z"></path>
</svg>
