<!-- Generated by IcoMoon.io -->
<svg version="1.1" xmlns="http://www.w3.org/2000/svg" width="40" height="32" viewBox="0 0 40 32">
<title>charity-l</title>
<path d="M33.734 0.005c-0.363 0.016-0.728 0.069-1.090 0.152-1.144 0.259-2.2 0.851-3.105 1.561-0.906-0.71-1.962-1.301-3.105-1.561h-0.004c-0.361-0.082-0.723-0.135-1.088-0.15-0.361-0.015-0.72 0.005-1.074 0.070-0.001 0-0.003 0-0.004 0s-0.003 0-0.004 0v0c-0.71 0.135-1.396 0.466-1.941 1.012-1.048 1.048-1.433 2.472-1.291 3.836 0.14 1.364 0.775 2.695 1.787 3.707 0 0 0 0.001 0 0.001s0 0.001 0 0.001v0l6.121 6.119c0.154 0.154 0.367 0.25 0.602 0.25s0.448-0.095 0.602-0.25v0l6.119-6.119c0 0 0-0.001 0-0.001s0-0.001 0-0.001v0c1.012-1.012 1.651-2.342 1.791-3.707v-0.002c0.141-1.364-0.245-2.786-1.293-3.834-0.545-0.545-1.229-0.876-1.939-1.012-0.001 0-0.001 0-0.002 0s-0.001 0-0.002 0v0c-0.354-0.066-0.715-0.088-1.078-0.072zM25.273 1.704c0.245 0.010 0.506 0.047 0.781 0.109 0 0 0.001 0.001 0.002 0.002v0c1.028 0.233 2.144 0.852 2.898 1.561l-0.004-0.006c0.053 0.049 0.112 0.092 0.177 0.127l0.005 0.002c0.005 0.003 0.014 0.008 0.023 0.013l0.004 0.002c0.018 0.009 0.042 0.020 0.066 0.029l0.006 0.002c-0.001 0 0.003 0.001 0.007 0.001l0.005 0.001c0.019 0.008 0.044 0.016 0.070 0.024l0.006 0.002c0.022 0.006 0.050 0.012 0.079 0.017l0.005 0.001c0.023 0.004 0.052 0.008 0.081 0.010h0.003c0.001 0 0.002 0 0.003 0s0.002 0 0.003 0v0c0.013 0.001 0.029 0.001 0.045 0.001 0.072 0 0.142-0.009 0.209-0.026l-0.006 0.001c0.001 0 0.001 0 0.002 0s0.001 0 0.002 0v0c0.034-0.009 0.061-0.017 0.088-0.027l-0.006 0.002c0.010-0.004 0.015-0.006 0.019-0.008l-0.005 0.002c0.027-0.010 0.049-0.020 0.070-0.030l-0.005 0.002c0.018-0.009 0.030-0.016 0.043-0.024l-0.004 0.002c0.069-0.037 0.129-0.080 0.182-0.129h-0.001l-0.004 0.008c0.755-0.709 1.87-1.328 2.898-1.561 0.001-0.001 0.002-0.001 0.002-0.002v0c0.543-0.124 1.050-0.144 1.478-0.064 0.419 0.081 0.765 0.251 1.055 0.541 0.664 0.664 0.901 1.51 0.803 2.459 0 0 0 0.001 0 0.001s0 0.001 0 0.001v0c-0.096 0.943-0.57 1.949-1.301 2.68l-5.519 5.519-5.521-5.519c-0.73-0.731-1.205-1.736-1.301-2.68 0 0 0-0.001 0-0.001s0-0.001 0-0.001v0c-0.099-0.949 0.141-1.795 0.805-2.459 0.29-0.29 0.636-0.46 1.055-0.541 0.216-0.040 0.447-0.055 0.697-0.045zM37.466 17.385c-0.652-0.057-1.319 0.123-1.877 0.529-0.059 0.032-0.111 0.068-0.157 0.108l0.001-0.001c-2.408 2.023-4.829 4.056-6.109 5.113-0.64 0.529-1.003 0.819-1.207 0.973s-0.195 0.144-0.244 0.166c-0.098 0.044-0.206 0.076-0.328 0.1s-0.182 0.033-1.523 0.041c-1.342 0.008-3.878 0.008-6.414 0.008-0.36 0-0.635-0.274-0.635-0.635s0.274-0.635 0.635-0.635h5.32c0.010 0 0.023 0.001 0.035 0.001 0.071 0 0.141-0.009 0.207-0.025l-0.006 0.001c1.418-0.123 2.547-1.314 2.547-2.762 0-1.452-1.135-2.646-2.559-2.764-0.060-0.015-0.128-0.023-0.198-0.023 0 0-0.001 0-0.001 0v0c-0.003 0-0.006 0-0.010 0s-0.007 0-0.010 0h0.001c-0.002 0-0.004 0-0.006 0-0.013 0.001-0.025 0.001-0.036 0.002h0.003c-0.004 0-0.008 0-0.013 0s-0.009 0-0.013 0h0.001c-3.672 0.145-7.351 0.153-11.023 0.021-0.447-0.016-0.929-0.037-1.443 0.002-1.142 0.087-2.246 0.471-3.197 1.102-0.87 0.577-1.516 1.268-2.168 1.77-0.923 0.71-2.014 1.191-3.109 1.271-0.378 0.028-0.8 0.011-1.26-0.002-0.607-0.016-1.214-0.017-1.82 0-0.468 0.002-0.847 0.382-0.847 0.85s0.381 0.85 0.85 0.85c0.016 0 0.032 0 0.048-0.001h-0.002c0.575-0.016 1.151-0.016 1.727 0 0.436 0.012 0.914 0.036 1.43-0.002 1.499-0.11 2.881-0.744 4.019-1.619 0.796-0.612 1.42-1.266 2.072-1.699 0.709-0.47 1.543-0.76 2.387-0.824 0.383-0.029 0.802-0.014 1.254 0.002 3.712 0.133 7.431 0.125 11.142-0.021 0.609 0 1.084 0.476 1.084 1.086s-0.474 1.086-1.084 1.086h-5.312c-0.001 0-0.003 0-0.004 0s-0.003 0-0.004 0v0c-0.010 0-0.022-0.001-0.033-0.001-0.071 0-0.141 0.009-0.207 0.025l0.006-0.001c-1.169 0.121-2.1 1.112-2.1 2.311 0 1.203 0.936 2.197 2.111 2.312 0.058 0.014 0.124 0.022 0.192 0.022 0.011 0 0.021 0 0.032-0.001h-0.002c2.536 0 5.069 0 6.424-0.008s1.617-0.029 1.832-0.070c0.215-0.041 0.46-0.107 0.715-0.223 0.127-0.058 0.312-0.165 0.563-0.354s0.621-0.487 1.268-1.021c1.292-1.068 3.708-3.097 6.113-5.117 0.002-0.002 0.004-0.004 0.006-0.006v0c0.467-0.392 1.138-0.332 1.529 0.135 0.391 0.465 0.334 1.133-0.129 1.525-0.005 0.003-0.007 0.005-0.009 0.006l0.003-0.002c-3.494 2.943-6.991 5.889-8.887 7.443-0.948 0.777-1.498 1.207-1.822 1.436s-0.355 0.232-0.477 0.271c-0.122 0.039-0.171 0.057-0.723 0.084s-1.525 0.045-3.285 0.057c-3.519 0.023-10.159 0.021-14.326 0.021s-5.847 0-7.531 0c-0.47 0-0.85 0.381-0.85 0.851s0.381 0.851 0.85 0.851v0c1.684 0 3.364 0 7.531 0s10.805-0.001 14.338-0.023c1.767-0.011 2.746-0.027 3.357-0.057s0.929-0.091 1.16-0.166c0.231-0.075 0.536-0.218 0.936-0.5s0.961-0.724 1.92-1.51c1.902-1.56 5.369-4.48 8.836-7.4 0.023-0.018 0.043-0.036 0.063-0.055v0h0.004l0.002-0.002c0.049-0.040 0.092-0.084 0.129-0.133l0.001-0.002c1.038-1.003 1.152-2.668 0.211-3.789-0.491-0.585-1.181-0.916-1.893-0.979z"></path>
</svg>
