<!-- Generated by IcoMoon.io -->
<svg version="1.1" xmlns="http://www.w3.org/2000/svg" width="40" height="32" viewBox="0 0 40 32">
<title>charity-s</title>
<path d="M25.049 0.004c-0.358-0.015-0.703 0.007-1.037 0.068-0.662 0.126-1.266 0.419-1.756 0.908-1.002 1.002-1.367 2.33-1.227 3.684 0.138 1.351 0.787 2.718 1.807 3.738l7.164 7.16 7.164-7.16c1.020-1.020 1.669-2.388 1.807-3.738 0.141-1.353-0.225-2.682-1.227-3.684-0.489-0.489-1.094-0.782-1.756-0.908-0.665-0.123-1.391-0.086-2.133 0.084-1.409 0.319-2.834 1.114-3.853 2.072v0.010c0-0.003-0.002-0.004-0.002-0.004s-0.002 0.001-0.002 0.004v-0.010c-1.020-0.958-2.444-1.753-3.853-2.072-0.372-0.085-0.738-0.138-1.096-0.152zM38.111 18.432c-0.52-0.046-1.054 0.107-1.488 0.463-0.002 0.001-0.003 0.001-0.004 0.002v0h-0.004c-0.006 0.002-0.011 0.006-0.016 0.010v0c-2.508 2.107-5.029 4.225-6.369 5.332-0.67 0.554-1.052 0.86-1.287 1.037s-0.321 0.223-0.41 0.264c-0.179 0.081-0.359 0.131-0.531 0.164s-0.332 0.050-1.736 0.059c-1.404 0.008-4.050 0.008-6.691 0.008-0.578 0-1.045-0.467-1.045-1.045s0.466-1.046 1.043-1.047c0 0 0.001 0 0.001 0s0.001 0 0.001 0v0c0.001 0 0.003 0 0.004 0s0.003 0 0.004 0h5.535c0.003 0 0.008 0 0.012 0s0.007-0.001 0.010-0.002v0c1.133-0.011 2.049-0.931 2.049-2.066 0-1.137-0.921-2.060-2.057-2.068-0.003 0-0.007-0.002-0.010-0.002-0.001 0-0.001 0-0.002 0s-0.001 0-0.002 0v0c0 0-0.001 0-0.001 0s-0.001 0-0.001 0h-0.002c-0.001 0-0.002 0-0.003 0s-0.002 0-0.003 0v0c-3.852 0.153-7.709 0.161-11.562 0.023-0.468-0.017-0.941-0.036-1.412 0-1.044 0.080-2.063 0.433-2.936 1.012-0.8 0.53-1.461 1.234-2.211 1.811-1.067 0.82-2.347 1.395-3.685 1.494-0.461 0.034-0.927 0.013-1.395 0-0.612-0.017-1.226-0.017-1.838 0-0.002 0-0.004 0-0.006 0s-0.003 0-0.004 0-0.003 0-0.004 0v0c0 0-0.001 0-0.001 0s-0.001 0-0.001 0v0c-0.005 0-0.010 0.001-0.014 0.002v0c-0.003 0.001-0.006 0.001-0.008 0.002v0c-0.004 0.002-0.007 0.004-0.010 0.006v0c-0.003 0.002-0.005 0.005-0.008 0.008v0c-0.001 0.001-0.001 0.002-0.002 0.004v0c-0.008 0.009-0.012 0.021-0.012 0.034 0 0.006 0.001 0.012 0.003 0.017v0c0.001 2.661 0.001 5.323 0 7.986 0 0.001 0 0.001 0 0.002s0 0.001 0 0.002v0 0.004c0 0.001 0 0.002 0 0.003s0 0.002 0 0.003v0c0.001 0.002 0.003 0.004 0.004 0.006v0c0 0.001 0 0.002 0 0.003s0 0.002 0 0.003v0c0.001 0.002 0.001 0.003 0.002 0.004v0c0 0 0 0.001 0 0.001s0 0.001 0 0.001v0c0.001 0.001 0.001 0.001 0.002 0.002v0c0.001 0.002 0.003 0.004 0.004 0.006v0c0.001 0.002 0.001 0.003 0.002 0.004v0c0.001 0.001 0.003 0.003 0.004 0.004v0c0.001 0.001 0.003 0.003 0.004 0.004v0c0.002 0.001 0.004 0.003 0.006 0.004v0c0.001 0.001 0.001 0.001 0.002 0.002v0c0.001 0.001 0.001 0.001 0.002 0.002v0c0.003 0.001 0.006 0.002 0.010 0.002v0c0.003 0.001 0.007 0.002 0.012 0.002v0c0.001 0 0.001 0 0.002 0s0.001 0 0.002 0h0.004c1.753 0 3.501 0 7.84 0 4.342 0 11.257-0.002 14.931-0.025 1.837-0.012 2.857-0.029 3.465-0.059s0.807-0.072 0.994-0.133c0.187-0.060 0.369-0.141 0.748-0.408s0.96-0.723 1.953-1.537c1.985-1.627 5.623-4.693 9.26-7.756 0.002-0.001 0.003-0.001 0.004-0.002v0l0.004-0.004c0.002-0.001 0.002-0.003 0.004-0.004s0.004-0.005 0.006-0.008v0c0.864-0.736 0.977-2.033 0.246-2.904-0.367-0.438-0.878-0.682-1.406-0.729z"></path>
</svg>
