<!-- Generated by IcoMoon.io -->
<svg version="1.1" xmlns="http://www.w3.org/2000/svg" width="32" height="32" viewBox="0 0 32 32">
<title>checkmark-s</title>
<path d="M29.752 4.5c-0.591-0.006-1.162 0.22-1.59 0.627l-17.2 15.932c-1.377-1.161-4.778-4.027-7.176-6.043-0.538-0.465-1.194-0.645-1.779-0.563s-1.088 0.394-1.445 0.818c-0.357 0.424-0.58 0.973-0.561 1.565s0.31 1.206 0.859 1.656c0 0 0 0.002 0 0.002 2.907 2.444 8.709 7.336 8.709 7.336l1.533 1.295 20.149-18.665c0.746-0.673 0.907-1.687 0.602-2.492s-1.096-1.459-2.102-1.469z"></path>
</svg>
