<!-- Generated by IcoMoon.io -->
<svg version="1.1" xmlns="http://www.w3.org/2000/svg" width="32" height="32" viewBox="0 0 32 32">
<title>checkmark-r</title>
<path d="M30.324 5c-0.005 0-0.011 0-0.016 0-0.453 0-0.864 0.178-1.168 0.468l0.001-0.001-18.39 17.035c-1.208-1.018-5.296-4.465-7.95-6.696-0.295-0.256-0.683-0.412-1.107-0.412-0.935 0-1.693 0.758-1.693 1.693 0 0.526 0.24 0.997 0.617 1.307l0.003 0.002c3.031 2.548 9.093 7.659 9.093 7.659l1.143 0.965 20.586-19.070c0.344-0.311 0.559-0.759 0.559-1.257 0-0.929-0.748-1.683-1.675-1.693h-0.001z"></path>
</svg>
