<!-- Generated by IcoMoon.io -->
<svg version="1.1" xmlns="http://www.w3.org/2000/svg" width="28" height="32" viewBox="0 0 28 32">
<title>clipboard-r</title>
<path d="M13.775 0c-2.299 0-4.195 1.765-4.449 4h-6.736c-1.413 0-2.59 1.177-2.59 2.59v22.82c0 1.413 1.177 2.59 2.59 2.59h22.371c1.413 0 2.59-1.177 2.59-2.59v-22.82c0-1.413-1.177-2.59-2.59-2.59h-6.736c-0.255-2.235-2.15-4-4.449-4zM13.775 2.5c1.119 0 2 0.881 2 2 0 0.826-0.481 1.52-1.182 1.828-0.001 0-0.001 0-0.002 0-0.124 0.054-0.254 0.098-0.391 0.127s-0.279 0.045-0.426 0.045-0.289-0.016-0.426-0.045c-0.136-0.029-0.267-0.073-0.391-0.127-0.001 0-0.001 0-0.002 0-0.701-0.308-1.182-1.002-1.182-1.828 0-1.119 0.881-2 2-2zM2.59 6.5h4.072v3.707c-0.077 0.523 0.257 1.103 0.82 1.141 4.090 0.011 8.181 0.001 12.271 0.004 0.523 0.077 1.103-0.257 1.141-0.82 0.011-1.344 0.002-2.687 0.004-4.031h4.063c0.071 0 0.092 0.018 0.092 0.090v22.82c0 0.071-0.020 0.090-0.092 0.090h-22.371c-0.071 0-0.092-0.018-0.092-0.090v-22.82c0-0.071 0.020-0.090 0.092-0.090zM19.166 15.299l-7.434 6.568c-0.854-0.668-2.324-1.818-3.488-2.727l-1.846 2.363c1.489 1.163 4.469 3.494 4.469 3.494l0.982 0.77 9.303-8.221z"></path>
</svg>
