<!-- Generated by IcoMoon.io -->
<svg version="1.1" xmlns="http://www.w3.org/2000/svg" width="28" height="32" viewBox="0 0 28 32">
<title>clipboard-s</title>
<path d="M13.775 0c-2.299 0-4.195 1.765-4.449 4h-6.736c-1.413 0-2.59 1.177-2.59 2.59v22.82c0 1.413 1.177 2.59 2.59 2.59h22.371c1.413 0 2.59-1.177 2.59-2.59v-22.82c0-1.413-1.177-2.59-2.59-2.59h-6.736c-0.255-2.235-2.15-4-4.449-4zM13.775 2.5c0.945 0 1.716 0.63 1.934 1.5 0 0.001 0 0.003 0 0.004 0.040 0.159 0.066 0.324 0.066 0.496 0 0.979-0.673 1.777-1.592 1.961-0.131 0.026-0.268 0.039-0.408 0.039-1.119 0-2-0.881-2-2 0-0.173 0.027-0.337 0.066-0.496 0-0.001 0-0.003 0-0.004 0.218-0.87 0.988-1.5 1.934-1.5zM20.365 13.488l2.146 2.43-11.049 9.762-1.063-0.83c0 0-3.575-2.796-5.361-4.191l1.996-2.555c1.436 1.121 3.334 2.607 4.301 3.363z"></path>
</svg>
