<!-- Generated by IcoMoon.io -->
<svg version="1.1" xmlns="http://www.w3.org/2000/svg" width="32" height="32" viewBox="0 0 32 32">
<title>close-s</title>
<path d="M3.442 0c-1.901 0.001-3.442 1.542-3.442 3.443 0 0.968 0.399 1.843 1.042 2.468l10.105 10.105-10.104 10.104c-0.623 0.623-1.009 1.484-1.009 2.435 0 1.902 1.542 3.444 3.444 3.444 0.951 0 1.812-0.386 2.435-1.009l10.104-10.104 10.104 10.104c0.623 0.623 1.484 1.009 2.435 1.009 1.902 0 3.444-1.542 3.444-3.444 0-0.951-0.386-1.812-1.009-2.435v0l-10.104-10.104 10.104-10.104c0.623-0.623 1.009-1.484 1.009-2.435 0-1.902-1.542-3.444-3.444-3.444-0.951 0-1.812 0.386-2.435 1.009l-10.104 10.104-10.104-10.104c-0.626-0.643-1.5-1.042-2.468-1.042-0.001 0-0.003 0-0.004 0v0z"></path>
</svg>
