<!-- Generated by IcoMoon.io -->
<svg version="1.1" xmlns="http://www.w3.org/2000/svg" width="32" height="32" viewBox="0 0 32 32">
<title>close-l</title>
<path d="M1.386 0.029c-0.749 0.002-1.355 0.609-1.355 1.358 0 0.381 0.157 0.725 0.41 0.972l13.641 13.641-13.641 13.641c-0.271 0.249-0.441 0.605-0.441 1.002 0 0.75 0.608 1.358 1.358 1.358 0.396 0 0.752-0.17 1.001-0.44l13.642-13.642 13.641 13.641c0.249 0.271 0.605 0.441 1.002 0.441 0.75 0 1.358-0.608 1.358-1.358 0-0.396-0.17-0.752-0.44-1.001l-13.642-13.642 13.641-13.641c0.271-0.249 0.441-0.606 0.441-1.002 0-0.75-0.608-1.358-1.358-1.358-0.396 0-0.752 0.17-1.001 0.44l-13.642 13.642-13.641-13.641c-0.247-0.254-0.592-0.412-0.973-0.412v0z"></path>
</svg>
