<!-- Generated by IcoMoon.io -->
<svg version="1.1" xmlns="http://www.w3.org/2000/svg" width="32" height="32" viewBox="0 0 32 32">
<title>cloud-upload-s</title>
<path d="M20.408 4c-2.369 0-4.476 1.11-5.838 2.836-0.764-0.987-1.959-1.625-3.303-1.625-2.307 0-4.176 1.872-4.176 4.18 0 0.201 0.015 0.399 0.043 0.592-0.351-0.063-0.711-0.098-1.080-0.098-3.344 0-6.055 2.711-6.055 6.057s2.711 6.059 6.055 6.059h2.074c0.064 0.010 0.138 0.015 0.213 0.016h3.082l-0.020 4.527c0 0.002 0 0.005 0 0.008 0 0.828 0.672 1.5 1.5 1.5h6.191c0.828 0 1.5-0.672 1.5-1.5 0-0.003 0-0.005 0-0.008v0l-0.020-4.527h3.082c0.073-0.001 0.144-0.006 0.213-0.017l-0.008 0.001h2.699c3.004-0.006 5.438-2.444 5.438-5.451h-0.002c0-2.565-1.771-4.717-4.156-5.297-0.101-4.022-3.39-7.252-7.434-7.252zM16 14.977l4.037 4.039h-0.967c-0.828 0-1.5 0.672-1.5 1.5 0 0.002 0 0.004 0 0.006v0l0.020 4.529h-3.18l0.020-4.529c0-0.002 0-0.004 0-0.006 0-0.828-0.672-1.5-1.5-1.5h-0.967z"></path>
</svg>
