<!-- Generated by IcoMoon.io -->
<svg version="1.1" xmlns="http://www.w3.org/2000/svg" width="32" height="32" viewBox="0 0 32 32">
<title>cloud-dowload-r</title>
<path d="M19.996 2.5c-2.066 0-3.836 0.916-5.285 2.18-0.869-0.623-1.857-1.082-3-1.082-2.556 0-4.609 1.885-5.086 4.309-3.666 0.2-6.625 3.202-6.625 6.916 0 3.842 3.145 6.99 6.986 6.99h0.635l7.318 7.32c0.271 0.271 0.646 0.439 1.061 0.439s0.789-0.168 1.061-0.439l7.318-7.32h1.195c3.532-0.007 6.426-2.905 6.426-6.439v-0.93l-0.178-0.088c-0.363-2.21-1.808-4.003-3.824-4.848-0.62-3.932-3.905-7.008-8.002-7.008zM19.996 5.5c2.866 0 5.165 2.261 5.236 5.109l0.029 1.148 1.115 0.271c1.5 0.365 2.621 1.708 2.621 3.342v0.012c-0.006 1.911-1.521 3.426-3.43 3.43h-4.992l0.020-4.43c0-0.002 0-0.004 0-0.006 0-0.828-0.672-1.5-1.5-1.5h-6.191c-0.828 0-1.5 0.672-1.5 1.5 0 0.002 0 0.004 0 0.006v0l0.020 4.43h-4.438c-2.22 0-3.986-1.768-3.986-3.99s1.767-3.99 3.986-3.99c0.24 0 0.475 0.024 0.713 0.066l2.049 0.367-0.299-2.061c-0.015-0.106-0.023-0.213-0.023-0.32 0-1.282 1.005-2.287 2.285-2.287 0.744 0 1.386 0.348 1.807 0.891l1.176 1.518 1.188-1.508c0.962-1.219 2.436-1.998 4.115-1.998zM14.41 15.877h3.18l-0.020 4.527c0 0.002 0 0.005 0 0.008 0 0.828 0.672 1.5 1.5 1.5h0.967l-4.037 4.039-4.037-4.039h0.967c0.828 0 1.5-0.672 1.5-1.5 0-0.003 0-0.005 0-0.008v0z"></path>
</svg>
