<!-- Generated by IcoMoon.io -->
<svg version="1.1" xmlns="http://www.w3.org/2000/svg" width="32" height="32" viewBox="0 0 32 32">
<title>cloud-download-l</title>
<path d="M20.176 3c-2.196 0-4.094 1.010-5.525 2.463-0.851-0.764-1.904-1.316-3.133-1.316-2.515 0-4.532 1.976-4.729 4.443-0.070-0.002-0.136-0.020-0.207-0.020-3.626 0-6.582 2.959-6.582 6.586s2.956 6.586 6.582 6.586h1.408l7.41 7.41c0.154 0.154 0.366 0.248 0.601 0.248s0.447-0.095 0.601-0.248v0l7.408-7.41h1.992c3.303-0.007 5.998-2.704 5.998-6.010v-0.527l-0.102-0.051c-0.234-2.358-1.797-4.286-3.967-5.041-0.409-3.971-3.682-7.113-7.756-7.113zM20.176 4.699c3.377 0 6.103 2.68 6.188 6.037l0.016 0.652 0.633 0.152c1.883 0.458 3.287 2.152 3.287 4.189v0.012c-0.006 2.384-1.917 4.296-4.299 4.301h-2.293c-0.014-0.001-0.031-0.002-0.048-0.002h-3.735l0.021-5.182c0-0.001 0-0.002 0-0.003 0-0.469-0.38-0.85-0.85-0.85h-6.191c-0.469 0-0.85 0.381-0.85 0.85 0 0.001 0 0.002 0 0.004v0l0.021 5.182h-3.734c-0.015 0-0.030 0.001-0.044 0.002h-1.716c-2.707 0-4.883-2.177-4.883-4.887s2.176-4.887 4.883-4.887c0.296 0 0.586 0.029 0.873 0.080l1.16 0.209-0.17-1.168c-0.021-0.144-0.031-0.289-0.031-0.438 0-1.727 1.379-3.107 3.104-3.107 1.004 0 1.888 0.474 2.457 1.209l0.664 0.859 0.674-0.854c1.135-1.439 2.885-2.361 4.863-2.361zM13.758 15.707h4.484l-0.023 5.182c0 0.001 0 0.002 0 0.003 0 0.029 0.001 0.057 0.004 0.085v-0.004c0.003 0.032 0.007 0.061 0.013 0.089l-0.001-0.005c0 0 0 0.001 0 0.001s0 0.001 0 0.001v0c0.076 0.372 0.387 0.653 0.769 0.681h0.003c0.018 0.001 0.038 0.002 0.059 0.002 0.002 0 0.004 0 0.006 0h2.535l-5.604 5.607-5.609-5.607h2.537c0.001 0 0.002 0 0.003 0 0.029 0 0.057-0.001 0.085-0.004h-0.004c0.062-0.006 0.118-0.018 0.172-0.035l-0.006 0.002c0 0 0.001 0 0.001 0s0.001 0 0.001 0v0c0.304-0.095 0.531-0.348 0.587-0.661l0.001-0.005c0 0 0-0.001 0-0.001s0-0.001 0-0.001v0c0.007-0.042 0.012-0.091 0.012-0.141 0-0.003 0-0.005 0-0.008v0l-0.004-0.846z"></path>
</svg>
