<!-- Generated by IcoMoon.io -->
<svg version="1.1" xmlns="http://www.w3.org/2000/svg" width="32" height="32" viewBox="0 0 32 32">
<title>cog-r</title>
<path d="M11.682 0l0.012 1.516c0.005 0.689-0.163 1.378-0.533 2.017-1.113 1.927-3.551 2.578-5.504 1.453l-1.302-0.75-4.355 7.547 1.316 0.748c0.597 0.34 1.106 0.829 1.474 1.469h0.002c1.11 1.923 0.457 4.356-1.486 5.487l-1.294 0.754 4.353 7.541 1.306-0.762c0.588-0.343 1.264-0.538 1.999-0.538 2.22 0 3.997 1.778 4.008 4.024l0.008 1.496h8.704l-0.006-1.508c-0.002-0.679 0.169-1.36 0.535-1.995v-0.002c1.111-1.922 3.541-2.574 5.493-1.457l1.3 0.744 4.353-7.539-1.308-0.75c-0.593-0.339-1.102-0.827-1.469-1.463-1.113-1.927-0.458-4.362 1.494-5.493l1.3-0.752-4.357-7.549-1.306 0.768c-0.591 0.347-1.272 0.544-2.011 0.544-2.227 0-4.008-1.788-4.008-4.046v-1.504zM14.514 3.008h3.182c0.708 3.136 3.38 5.549 6.713 5.549 0.744 0 1.45-0.147 2.127-0.364l1.592 2.759c-0.704 0.652-1.247 1.392-1.629 2.242l-0.016-0.027v0.057c-0.883 1.986-0.958 4.299 0.202 6.309 0 0 0 0.002 0 0.002l1.159 2.007-1.388 2.405c-3.064-0.943-6.478 0.168-8.14 3.047h-0.002c-0.361 0.627-0.381 1.323-0.533 1.999h-3.403c-0.719-3.121-3.385-5.518-6.707-5.518-0.727 0-1.341 0.332-2.005 0.54l-1.702-2.947c2.348-2.182 3.094-5.692 1.433-8.571v-0.002c-0.372-0.644-0.852-1.182-1.379-1.659l1.592-2.759c3.067 0.951 6.488-0.157 8.154-3.039l0.002-0.002c0.373-0.646 0.599-1.333 0.748-2.029zM16.041 9.505c-3.572 0-6.495 2.924-6.495 6.495s2.924 6.495 6.495 6.495c3.572 0 6.495-2.924 6.495-6.495s-2.924-6.495-6.495-6.495z"></path>
</svg>
