<!-- Generated by IcoMoon.io -->
<svg version="1.1" xmlns="http://www.w3.org/2000/svg" width="32" height="32" viewBox="0 0 32 32">
<title>cogs-r</title>
<path d="M21.281 0l-5.922 1.586 0.321 1.183c0.105 0.386 0.113 0.795 0.002 1.21h-0.002c-0.338 1.26-1.605 1.992-2.886 1.651l-1.179-0.315-1.59 5.929 1.192 0.307c0.387 0.101 0.747 0.301 1.053 0.607 0.923 0.923 0.923 2.388-0.016 3.327l-0.866 0.865 4.341 4.339 0.864-0.877c0.283-0.287 0.636-0.501 1.053-0.613 1.26-0.338 2.528 0.396 2.873 1.676l0.317 1.179 5.927-1.59-0.327-1.185c-0.106-0.388-0.116-0.797-0.004-1.214 0.337-1.257 1.605-1.99 2.882-1.653l1.177 0.311 1.588-5.923-1.191-0.311c-0.384-0.101-0.741-0.299-1.046-0.603-0.92-0.92-0.919-2.379 0.010-3.317l0.854-0.865-4.331-4.335-0.866 0.871c-0.28 0.281-0.625 0.491-1.040 0.603h-0.004c-1.257 0.336-2.524-0.393-2.871-1.668zM19.858 2.912c0.51 0.864 1.208 1.591 1.984 2.029 0.837 0.473 1.722 0.678 2.45 0.484 1.169-0.313 1.514-0.612 1.847-0.834l1.322 1.322c-1.036 1.822-0.891 4.153 0.66 5.704 0.331 0.331 0.71 0.455 1.048 0.611l-0.484 1.811c-1.003 0.009-1.98 0.25-2.747 0.703-0.828 0.489-1.448 1.154-1.645 1.884-0.312 1.161-0.331 1.616-0.321 2.060l-1.676 0.448c-1.050-1.803-3.124-2.844-5.232-2.303h-0.016l-0.029 0.008h-0.002c-0.426 0.114-0.795 0.316-1.149 0.529l-1.216-1.216c1.047-1.825 0.908-4.167-0.648-5.724-0.311-0.311-0.668-0.528-1.028-0.728l0.448-1.678c0.59 0 1.166-0.069 2.042-0.403 0.518-0.198 1.044-0.56 1.48-0.971s0.784-0.861 0.905-1.308h0.002l0.544-2.034zM21.054 6.714c-1.107 0-2.215 0.419-3.055 1.259-1.68 1.68-1.68 4.43 0 6.109s4.43 1.68 6.109 0c1.68-1.68 1.68-4.43 0-6.109-0.84-0.84-1.947-1.259-3.055-1.259zM6.987 17.964l-0.163 0.619c-0.073 0.279-0.217 0.54-0.437 0.76-0.664 0.664-1.729 0.663-2.405-0.006l-0.45-0.444-2.604 2.604 0.454 0.45c0.204 0.203 0.356 0.456 0.437 0.756v0.002c0.243 0.908-0.29 1.83-1.208 2.079l-0.611 0.166 0.954 3.558 0.615-0.166c0.279-0.076 0.577-0.082 0.877-0.002 0.91 0.244 1.442 1.169 1.196 2.091l-0.163 0.613 3.562 0.956 0.161-0.621c0.073-0.28 0.22-0.543 0.441-0.764 0.667-0.667 1.733-0.666 2.409 0.010l0.45 0.45 2.608-2.608-0.456-0.45c-0.208-0.204-0.364-0.462-0.444-0.764-0.244-0.91 0.291-1.834 1.212-2.082l0.615-0.164-0.956-3.562-0.617 0.17c-0.28 0.077-0.58 0.083-0.881 0.002-0.908-0.243-1.441-1.167-1.198-2.087l0.163-0.613zM7.018 22.239c0.705 0 1.41 0.266 1.944 0.801 1.069 1.069 1.069 2.818 0 3.887s-2.818 1.069-3.887 0c-1.069-1.069-1.069-2.818 0-3.887 0.534-0.534 1.238-0.801 1.942-0.801z"></path>
</svg>
