<!-- Generated by IcoMoon.io -->
<svg version="1.1" xmlns="http://www.w3.org/2000/svg" width="32" height="32" viewBox="0 0 32 32">
<title>connection-s</title>
<path d="M4.42 3.5c-2.448 0-4.42 1.97-4.42 4.418v16.162c0 2.448 1.972 4.42 4.42 4.42h23.16c2.448 0 4.42-1.972 4.42-4.42v-16.162c0-2.448-1.972-4.418-4.42-4.418zM16 7.16c2.386 0 4.701 0.469 6.881 1.391 2.105 0.89 3.997 2.164 5.619 3.787l-1.785 1.785c-2.862-2.862-6.667-4.438-10.715-4.438s-7.853 1.576-10.715 4.438l-1.785-1.785c1.623-1.623 3.514-2.896 5.619-3.787 2.18-0.922 4.495-1.391 6.881-1.391zM16 12.211c3.373 0 6.545 1.314 8.93 3.699l-1.785 1.785c-1.908-1.908-4.446-2.959-7.145-2.959s-5.235 1.051-7.143 2.959l-1.785-1.785c2.385-2.385 5.555-3.699 8.928-3.699zM16 17.262c2.088 0 3.984 0.851 5.355 2.223l-1.785 1.783c-0.915-0.915-2.178-1.48-3.57-1.48s-2.654 0.566-3.568 1.48l-1.785-1.783c1.372-1.372 3.265-2.223 5.354-2.223zM16 22.313c0.698 0 1.264 0.566 1.264 1.264s-0.566 1.262-1.264 1.262c-0.698 0-1.262-0.564-1.262-1.262s0.564-1.264 1.262-1.264z"></path>
</svg>
