<!-- Generated by IcoMoon.io -->
<svg version="1.1" xmlns="http://www.w3.org/2000/svg" width="32" height="32" viewBox="0 0 32 32">
<title>connection-l</title>
<path d="M15.813 5.501c-5.875 0.049-11.664 2.479-15.813 6.639l1.316 1.313c3.792-3.802 9.142-6.047 14.512-6.092 5.484-0.046 10.983 2.209 14.855 6.092l1.316-1.313c-4.238-4.249-10.187-6.689-16.188-6.639zM15.68 11.63c-4.433 0.037-8.793 1.867-11.924 5.006l1.314 1.313c2.774-2.781 6.695-4.426 10.623-4.459 4.011-0.033 8.044 1.619 10.877 4.459l1.316-1.313c-3.198-3.206-7.679-5.044-12.207-5.006zM15.725 17.761c-2.991 0.025-5.923 1.257-8.035 3.375l1.314 1.313c1.756-1.76 4.25-2.807 6.736-2.828 2.539-0.021 5.104 1.030 6.896 2.828l1.316-1.313c-2.158-2.164-5.173-3.4-8.229-3.375zM16 23.499c-0.878 0-1.59 0.712-1.59 1.59s0.712 1.588 1.59 1.588c0.878 0 1.59-0.71 1.59-1.588s-0.712-1.59-1.59-1.59z"></path>
</svg>
