<!-- Generated by IcoMoon.io -->
<svg version="1.1" xmlns="http://www.w3.org/2000/svg" width="32" height="32" viewBox="0 0 32 32">
<title>copy-r</title>
<path d="M5.136 0c-1.885 0-3.433 1.549-3.433 3.433v14.92c0 1.884 1.549 3.433 3.433 3.433h6.779v6.779c0 1.884 1.549 3.433 3.434 3.433h11.739c1.884 0 3.432-1.549 3.432-3.433v-12.384c0-0.188-0.051-0.364-0.14-0.515l0.003 0.005c-0.020-0.034-0.080-0.248-0.29-0.576-0.564-0.883-1.223-1.705-1.965-2.447s-1.566-1.402-2.449-1.967c-0.35-0.224-0.594-0.296-0.666-0.336-0.145-0.084-0.319-0.133-0.504-0.133-0.001 0-0.002 0-0.003 0h-4.198v-4.243c0-0.188-0.051-0.364-0.14-0.515l0.003 0.005c-0.020-0.034-0.080-0.248-0.29-0.576-0.564-0.883-1.223-1.705-1.965-2.447s-1.566-1.403-2.449-1.967c-0.35-0.224-0.594-0.295-0.666-0.336-0.145-0.084-0.319-0.133-0.504-0.133-0.001 0-0.002 0-0.003 0v0zM5.136 2.044h7c-0.017 2.225 0.001 4.964 0.001 4.964 0.005 0.561 0.461 1.013 1.022 1.013 0 0 0 0 0.001 0h5.104v2.191h-2.915c-1.885 0-3.434 1.549-3.434 3.434v6.097h-6.779c-0.788 0-1.39-0.602-1.39-1.39v-14.92c0-0.788 0.602-1.39 1.39-1.39zM14.181 2.102c0.076 0.037 0.171 0.081 0.184 0.089 0.76 0.486 1.469 1.054 2.105 1.69 0.635 0.635 1.2 1.339 1.685 2.096h-3.973c-0.005-0.749-0.011-2.28 0-3.875zM15.348 12.257h7c-0.017 2.225 0.001 4.964 0.001 4.964 0.005 0.561 0.461 1.013 1.022 1.013 0 0 0 0 0.001 0h5.104v10.332c0 0.788-0.601 1.39-1.388 1.39h-11.739c-0.788 0-1.39-0.602-1.39-1.39v-14.92c0-0.788 0.602-1.39 1.39-1.39zM24.394 12.315c0.076 0.037 0.171 0.081 0.183 0.089 0.76 0.486 1.469 1.054 2.105 1.69s1.2 1.339 1.685 2.096h-3.973c-0.005-0.749-0.011-2.28 0-3.875z"></path>
</svg>
