<!-- Generated by IcoMoon.io -->
<svg version="1.1" xmlns="http://www.w3.org/2000/svg" width="32" height="32" viewBox="0 0 32 32">
<title>credit-card-r</title>
<path d="M4.182 3.5c-2.295 0-4.182 1.887-4.182 4.182v16.363c0 2.295 1.887 4.182 4.182 4.182h23.637c2.295 0 4.182-1.887 4.182-4.182v-16.363c0-2.295-1.887-4.182-4.182-4.182zM4.182 6.408h23.637c0.708 0 1.273 0.565 1.273 1.273v2.279h-26.184v-2.279c0-0.708 0.565-1.273 1.273-1.273zM2.908 16.094h26.184v7.951c0 0.708-0.565 1.273-1.273 1.273h-23.637c-0.708 0-1.273-0.565-1.273-1.273zM4.779 19v0.5c0.001 1.21 0 3.637 0 3.637v0.5h1.938v-0.5c0 0 0.001-2.424 0-3.637v-0.5zM8.529 19v0.5c0.001 1.21 0 3.637 0 3.637v0.5h1.938v-0.5c0 0 0.001-2.424 0-3.637v-0.5zM12.279 19v0.5c0.001 1.21 0 3.637 0 3.637v0.5h1.938v-0.5c0 0 0.001-2.424 0-3.637v-0.5z"></path>
</svg>
