<!-- Generated by IcoMoon.io -->
<svg version="1.1" xmlns="http://www.w3.org/2000/svg" width="32" height="32" viewBox="0 0 32 32">
<title>dices-two-r</title>
<path d="M4.259 0c-2.338 0-4.259 1.922-4.259 4.259v17.097c0 2.252 1.784 4.107 4.005 4.241v-14.934c0-3.626 3.033-6.659 6.659-6.659h14.934c-0.134-2.22-1.989-4.005-4.241-4.005zM10.659 6.39c-2.338 0-4.256 1.919-4.256 4.256v17.097c0 2.338 1.919 4.256 4.256 4.256h17.097c2.338 0 4.256-1.919 4.256-4.256v-17.097c0-2.338-1.919-4.256-4.256-4.256zM10.659 8.791h17.097c1.049 0 1.855 0.806 1.855 1.855v17.097c0 1.049-0.806 1.855-1.855 1.855h-17.097c-1.049 0-1.855-0.806-1.855-1.855v-17.097c0-1.049 0.806-1.855 1.855-1.855zM25.21 10.271c-1.607 0-2.921 1.314-2.921 2.921s1.314 2.921 2.921 2.921c1.607 0 2.921-1.314 2.921-2.921s-1.314-2.921-2.921-2.921zM13.205 22.276c-1.607 0-2.921 1.314-2.921 2.921s1.314 2.921 2.921 2.921c1.607 0 2.921-1.314 2.921-2.921s-1.314-2.921-2.921-2.921z"></path>
</svg>
