<!-- Generated by IcoMoon.io -->
<svg version="1.1" xmlns="http://www.w3.org/2000/svg" width="32" height="32" viewBox="0 0 32 32">
<title>dice-four-s</title>
<path d="M5.318 0c-2.921 0-5.318 2.397-5.318 5.318v21.363c0 2.921 2.397 5.318 5.318 5.318h21.363c2.921 0 5.318-2.397 5.318-5.318v-21.363c0-2.921-2.397-5.318-5.318-5.318h-21.363zM8.5 4.85c2.008 0 3.65 1.642 3.65 3.65s-1.642 3.65-3.65 3.65c-2.008 0-3.65-1.642-3.65-3.65s1.642-3.65 3.65-3.65zM23.5 4.85c2.008 0 3.65 1.642 3.65 3.65s-1.642 3.65-3.65 3.65c-2.008 0-3.65-1.642-3.65-3.65s1.642-3.65 3.65-3.65zM8.5 19.85c2.008 0 3.65 1.642 3.65 3.65s-1.642 3.65-3.65 3.65-3.65-1.642-3.65-3.65c0-2.008 1.642-3.65 3.65-3.65zM23.5 19.85c2.008 0 3.65 1.642 3.65 3.65s-1.642 3.65-3.65 3.65-3.65-1.642-3.65-3.65c0-2.008 1.642-3.65 3.65-3.65z"></path>
</svg>
