<!-- Generated by IcoMoon.io -->
<svg version="1.1" xmlns="http://www.w3.org/2000/svg" width="32" height="32" viewBox="0 0 32 32">
<title>dices-five-l</title>
<path d="M3.971 0c-2.188 0-3.971 1.783-3.971 3.971v18.314c0 2.188 1.783 3.971 3.971 3.971h1.772v1.772c0 2.188 1.783 3.971 3.971 3.971h18.314c2.188 0 3.971-1.783 3.971-3.971v-18.314c0-2.188-1.783-3.971-3.971-3.971h-1.772v-1.772c0-2.188-1.783-3.971-3.971-3.971zM3.971 1.394h18.314c1.44 0 2.577 1.137 2.577 2.577v1.772h-15.147c-0.274 0-0.541 0.027-0.8 0.080s-0.509 0.13-0.747 0.231c-0.476 0.2-0.905 0.49-1.264 0.849s-0.649 0.789-0.849 1.264c-0.1 0.238-0.178 0.488-0.231 0.747s-0.080 0.526-0.080 0.8v15.147h-1.772c-1.44 0-2.577-1.137-2.577-2.577v-18.314c0-1.44 1.137-2.577 2.577-2.577zM9.715 7.138h18.314c1.44 0 2.577 1.137 2.577 2.577v18.314c0 1.44-1.137 2.577-2.577 2.577h-18.314c-1.44 0-2.577-1.137-2.577-2.577v-18.314c0-0.36 0.072-0.697 0.202-1.005s0.319-0.587 0.551-0.819 0.51-0.421 0.819-0.551c0.308-0.13 0.645-0.202 1.005-0.202zM12.308 9.846c-1.359 0-2.462 1.102-2.462 2.462v0c0 1.359 1.102 2.462 2.462 2.462v0c1.359 0 2.462-1.102 2.462-2.462v0c0-1.359-1.102-2.462-2.462-2.462v0zM25.436 9.846c-1.359 0-2.462 1.102-2.462 2.462v0c0 1.359 1.102 2.462 2.462 2.462v0c1.359 0 2.462-1.102 2.462-2.462v0c0-1.359-1.102-2.462-2.462-2.462v0zM18.872 16.41c-1.359 0-2.462 1.102-2.462 2.462v0c0 1.359 1.102 2.462 2.462 2.462v0c1.359 0 2.462-1.102 2.462-2.462v0c0-1.359-1.102-2.462-2.462-2.462v0zM12.308 22.974c-1.359 0-2.462 1.102-2.462 2.462v0c0 1.359 1.102 2.462 2.462 2.462v0c1.359 0 2.462-1.102 2.462-2.462v0c0-1.359-1.102-2.462-2.462-2.462v0zM25.436 22.974c-1.359 0-2.462 1.102-2.462 2.462v0c0 1.359 1.102 2.462 2.462 2.462v0c1.359 0 2.462-1.102 2.462-2.462v0c0-1.359-1.102-2.462-2.462-2.462v0z"></path>
</svg>
