<!-- Generated by IcoMoon.io -->
<svg version="1.1" xmlns="http://www.w3.org/2000/svg" width="32" height="32" viewBox="0 0 32 32">
<title>dice-two-l</title>
<path d="M4.84 0c-2.667 0-4.84 2.173-4.84 4.84v22.32c0 2.667 2.173 4.84 4.84 4.84h22.32c2.667 0 4.84-2.173 4.84-4.84v-22.32c0-2.667-2.173-4.84-4.84-4.84h-22.32zM4.84 1.699h22.32c1.755 0 3.141 1.386 3.141 3.141v22.32c0 1.755-1.386 3.141-3.141 3.141h-22.32c-1.755 0-3.141-1.386-3.141-3.141v-22.32c0-1.755 1.386-3.141 3.141-3.141zM24 5c-1.657 0-3 1.343-3 3v0c0 1.657 1.343 3 3 3v0c1.657 0 3-1.343 3-3v0c0-1.657-1.343-3-3-3v0zM8 21c-1.657 0-3 1.343-3 3v0c0 1.657 1.343 3 3 3v0c1.657 0 3-1.343 3-3v0c0-1.657-1.343-3-3-3v0z"></path>
</svg>
