<!-- Generated by IcoMoon.io -->
<svg version="1.1" xmlns="http://www.w3.org/2000/svg" width="32" height="32" viewBox="0 0 32 32">
<title>dices-six-l</title>
<path d="M3.973 0c-2.188 0-3.973 1.783-3.973 3.971v18.314c0 2.189 1.785 3.971 3.973 3.971h1.771v1.772c0 2.188 1.783 3.971 3.971 3.971h18.314c2.188 0 3.971-1.783 3.971-3.971v-18.314c0-2.188-1.783-3.971-3.971-3.971h-1.772v-1.772c0-2.188-1.783-3.971-3.971-3.971zM3.973 1.394h18.313c1.44 0 2.577 1.137 2.577 2.577v1.772h-15.147c-0.274 0-0.541 0.027-0.8 0.080s-0.509 0.13-0.747 0.231c-0.476 0.201-0.904 0.491-1.263 0.849s-0.65 0.787-0.851 1.264c-0.1 0.238-0.178 0.488-0.231 0.747s-0.080 0.526-0.080 0.8v15.147h-1.771c-1.44 0-2.579-1.138-2.579-2.577v-18.314c0-1.439 1.139-2.577 2.579-2.577zM9.715 7.139h18.314c1.44 0 2.575 1.136 2.575 2.575v18.314c0 1.44-1.136 2.575-2.575 2.575h-18.314c-1.44 0-2.575-1.136-2.575-2.575v-18.314c0-0.163 0.018-0.322 0.046-0.476 0.003-0.015 0.002-0.031 0.005-0.046 0-0.001 0-0.001 0-0.002 0.034-0.167 0.084-0.327 0.149-0.481 0.129-0.307 0.32-0.586 0.553-0.819s0.51-0.422 0.817-0.551c0.153-0.064 0.314-0.115 0.481-0.149 0.031-0.006 0.065-0.005 0.096-0.010 0.14-0.023 0.281-0.042 0.428-0.042zM12.819 9.792c0 0-0.001 0-0.001 0-1.254 0-2.27 1.016-2.27 2.27 0 0 0 0.001 0 0.001v0c0 1.253 1.017 2.269 2.27 2.269 0 0 0.001 0 0.001 0v0c1.253 0 2.269-1.016 2.269-2.269v0c0 0 0-0.001 0-0.001 0-1.253-1.016-2.27-2.269-2.27v0zM24.925 9.792c-1.253 0-2.269 1.017-2.269 2.27 0 0 0 0.001 0 0.001v0c0 1.253 1.016 2.269 2.269 2.269v0c0 0 0.001 0 0.001 0 1.253 0 2.27-1.016 2.27-2.269v0c0 0 0-0.001 0-0.001 0-1.254-1.016-2.27-2.27-2.27 0 0-0.001 0-0.001 0v0zM12.819 16.603c0 0-0.001 0-0.001 0-1.253 0-2.27 1.016-2.27 2.269v0c0 1.253 1.017 2.269 2.27 2.269 0 0 0.001 0 0.001 0v0c1.253 0 2.269-1.016 2.269-2.269v0c0-1.253-1.016-2.269-2.269-2.269v0zM24.925 16.603c-1.253 0-2.269 1.016-2.269 2.269v0c0 1.253 1.016 2.269 2.269 2.269v0c0 0 0.001 0 0.001 0 1.253 0 2.27-1.016 2.27-2.269v0c0-1.253-1.017-2.269-2.27-2.269 0 0-0.001 0-0.001 0v0zM12.819 23.412c0 0-0.001 0-0.001 0-1.253 0-2.27 1.016-2.27 2.269v0c0 0 0 0.001 0 0.001 0 1.254 1.016 2.27 2.27 2.27 0 0 0.001 0 0.001 0v0c1.253 0 2.269-1.017 2.269-2.27 0 0 0-0.001 0-0.001v0c0-1.253-1.016-2.269-2.269-2.269v0zM24.925 23.412c-1.253 0-2.269 1.016-2.269 2.269v0c0 0 0 0.001 0 0.001 0 1.253 1.016 2.27 2.269 2.27v0c0 0 0.001 0 0.001 0 1.254 0 2.27-1.016 2.27-2.27 0 0 0-0.001 0-0.001v0c0-1.253-1.017-2.269-2.27-2.269 0 0-0.001 0-0.001 0v0z"></path>
</svg>
