<!-- Generated by IcoMoon.io -->
<svg version="1.1" xmlns="http://www.w3.org/2000/svg" width="32" height="32" viewBox="0 0 32 32">
<title>dislike-r</title>
<path d="M10.538 0.004c-0.862 0.017-1.717 0.090-2.559 0.207-0.754 0.104-1.642 0.255-2.527 0.689-0.908 0.446-1.803 1.209-2.217 2.353-0.23 0.635-0.281 1.321-0.148 1.982 0.014 0.072 0.031 0.044 0.049 0.105-0.317 0.207-0.671 0.303-0.92 0.641-0.661 0.897-0.894 2.042-0.639 3.125 0.091 0.386 0.287 0.495 0.463 0.738-0.24 0.206-0.474 0.293-0.664 0.654-0.425 0.808-0.565 1.736-0.4 2.633 0.093 0.506 0.368 0.696 0.603 1.010-0.683 0.625-1.269 1.374-1.477 2.351-0.233 1.099-0.077 2.295 0.551 3.308 0.638 1.030 1.721 1.775 2.994 1.898 0.572 0.055 1.037 0.008 1.318 0.008h3.244c-0.511 1.052-0.909 2.164-0.963 3.383-0.044 1.004 0.070 2.054 0.436 3.068 0.367 1.019 0.985 1.984 1.875 2.719 0.688 0.569 1.57 1.020 2.592 1.107 0.512 0.044 1.048-0.008 1.57-0.184 0.524-0.176 1.021-0.471 1.428-0.893 0.434-0.449 0.7-0.97 0.865-1.465 0.164-0.49 0.231-0.958 0.266-1.371 0.067-0.811 0.052-1.464 0.139-1.846 0.054-0.238 0.164-0.521 0.316-0.826 0.779-1.558 2.235-2.927 3.787-4.408 0.379-0.361 0.713-0.675 1.014-0.893 0.014-0.010 0.067-0.027 0.084-0.037 0.55 1.040 1.451 1.865 2.703 1.865h4.223c1.779 0 3.308-1.419 3.308-3.223v-15.15c0-1.804-1.528-3.225-3.308-3.225h-4.223c-1.319 0-2.485 0.784-3.004 1.918-1.402-0.442-2.806-0.88-4.232-1.268-1.246-0.338-2.556-0.675-3.947-0.848-0.869-0.108-1.737-0.148-2.6-0.131zM10.598 3.062c0.729-0.014 1.451 0.019 2.162 0.107 1.138 0.142 2.308 0.434 3.521 0.764 1.586 0.431 3.16 0.916 4.73 1.418v11.675c-0.426 0.165-0.85 0.289-1.271 0.594-0.537 0.388-0.961 0.806-1.33 1.158-1.516 1.446-3.295 3.024-4.412 5.258-0.22 0.439-0.434 0.942-0.564 1.518-0.211 0.933-0.161 1.736-0.205 2.268-0.022 0.27-0.062 0.496-0.115 0.654-0.051 0.152-0.127 0.265-0.168 0.307-0.036 0.037-0.113 0.090-0.199 0.119-0.089 0.030-0.213 0.046-0.338 0.035-0.252-0.021-0.6-0.166-0.902-0.416-0.405-0.335-0.745-0.838-0.947-1.398-0.205-0.568-0.288-1.222-0.258-1.896 0.065-1.46 0.672-2.934 1.654-4.017l0.002-0.002c0.421-0.463 0.491-1.142 0.266-1.648s-0.777-0.911-1.404-0.908h-5.853c-0.479 0-0.848 0.025-1.023 0.008-0.203-0.020-0.546-0.227-0.693-0.465-0.16-0.258-0.235-0.692-0.156-1.064 0.107-0.507 0.554-1.055 1.027-1.264 1.039-0.459 1.195-1.985 0.27-2.644-0.19-0.136-0.366-0.411-0.408-0.641-0.038-0.205 0.004-0.475 0.1-0.656 0.096-0.183 0.295-0.37 0.484-0.455 0 0 0.001 0 0.001 0s0.001 0 0.001 0v0c1.029-0.462 1.184-1.973 0.269-2.635-0.122-0.088-0.25-0.278-0.285-0.43-0.040-0.171 0.021-0.469 0.123-0.607s0.372-0.287 0.545-0.299c1.211-0.084 1.839-1.664 1.019-2.559v-0.002c-0.071-0.078-0.132-0.199-0.152-0.301s-0.010-0.245 0.025-0.342c0.063-0.173 0.324-0.47 0.687-0.648 0.39-0.192 0.946-0.318 1.598-0.408 0.734-0.102 1.472-0.162 2.201-0.176zM26.412 3.416c1.096 0 1.996 0.904 1.996 2s-0.9 2-1.996 2c-1.096 0-2.002-0.904-2.002-2s0.906-2 2.002-2z"></path>
</svg>
