<!-- Generated by IcoMoon.io -->
<svg version="1.1" xmlns="http://www.w3.org/2000/svg" width="32" height="32" viewBox="0 0 32 32">
<title>download-l</title>
<path d="M12.724 0l0.006 0.857 0.057 7.568h-5.787l9 9 9-9h-5.76l-0.063-8.426zM14.437 1.699h3.053l0.063 8.426h3.342l-4.894 4.896-4.894-4.896h3.394zM22.785 15.484l-0.582 1.598c2.162 0.786 4.325 1.574 6.488 2.361l-12.693 4.732-12.689-4.73c1.76-0.641 4.326-1.575 6.488-2.361l-0.582-1.598c-2.883 1.048-8.642 3.146-8.65 3.148l-0.006 0.002c-0.329 0.122-0.559 0.434-0.559 0.799 0 0.001 0 0.003 0 0.004v0c0 0 0.003 0.514 0 6.062 0 0 0 0 0 0 0 0.363 0.227 0.672 0.547 0.794l0.006 0.002c5.050 1.881 15.148 5.648 15.148 5.648 0.088 0.034 0.19 0.054 0.297 0.054s0.209-0.020 0.303-0.055l-0.006 0.002 15.152-5.65c0.325-0.124 0.552-0.433 0.553-0.795v0c0.001-2.024 0.001-4.048 0-6.070-0.001-0.364-0.23-0.675-0.553-0.795l-0.006-0.002c-2.886-1.052-5.771-2.101-8.656-3.15zM30.3 20.656c0 1.418 0.001 2.835 0 4.254l-14.302 5.332c-0.368-0.137-9.203-3.431-14.298-5.33 0.001-3.231 0-3.977 0-4.254l14.002 5.221c0.088 0.034 0.19 0.054 0.297 0.054s0.209-0.020 0.303-0.055l-0.006 0.002z"></path>
</svg>
