<!-- Generated by IcoMoon.io -->
<svg version="1.1" xmlns="http://www.w3.org/2000/svg" width="32" height="32" viewBox="0 0 32 32">
<title>download-r</title>
<path d="M12.322 0l0.008 1.26 0.055 7.166h-6.349l9.965 9.965 9.965-9.965h-6.328l-0.063-8.426zM14.839 2.5h2.254l0.063 8.426h2.773l-3.93 3.93-3.93-3.93h2.832zM22.749 15.099l-0.855 2.35c1.746 0.635 3.493 1.272 5.24 1.908l-11.136 4.15-11.133-4.148c1.893-0.689 3.494-1.273 5.24-1.908l-0.855-2.35c-2.807 1.021-8.41 3.063-8.42 3.066l-0.008 0.002v0.002c-0.484 0.18-0.822 0.638-0.822 1.174 0 0.001 0 0.002 0 0.003v0c0 0 0.002 0.5 0 5.902 0 0 0 0 0 0 0 0.534 0.335 0.99 0.806 1.169l0.009 0.003c4.916 1.831 14.746 5.498 14.746 5.498 0.13 0.050 0.28 0.079 0.438 0.079s0.308-0.029 0.446-0.082l-0.009 0.003 14.752-5.5c0.479-0.182 0.812-0.638 0.812-1.171 0 0 0-0.001 0-0.001v0c0.001-1.971 0.001-3.939 0-5.908-0.001-0.536-0.339-0.992-0.814-1.169l-0.009-0.003v-0.002c-2.81-1.024-5.619-2.047-8.427-3.068z"></path>
</svg>
