<!-- Generated by IcoMoon.io -->
<svg version="1.1" xmlns="http://www.w3.org/2000/svg" width="32" height="32" viewBox="0 0 32 32">
<title>download-s</title>
<path d="M13.076 0l0.004 0.504 0.061 7.922h-5.295l8.154 8.154 8.154-8.154h-5.262l-0.063-8.426zM22.728 14.861l-1.025 2.818c1.486 0.54 2.972 1.082 4.459 1.623l-10.164 3.789-10.16-3.787c1.795-0.653 2.973-1.083 4.459-1.623l-1.025-2.818c-2.754 1.001-8.231 2.997-8.262 3.008-0.016 0.003-0.021 0.005-0.026 0.006l0.010-0.002c0 0-0.008 0.004-0.008 0.004-0.58 0.216-0.986 0.765-0.986 1.409 0 0.002 0 0.005 0 0.007v0c0 0 0.002 0.488 0 5.799 0 0 0 0 0 0.001 0 0.64 0.401 1.187 0.966 1.402l0.010 0.003c4.833 1.8 14.498 5.406 14.498 5.406 0.156 0.060 0.335 0.094 0.523 0.094s0.368-0.035 0.534-0.098l-0.010 0.003 14.502-5.408c0.575-0.218 0.976-0.764 0.977-1.404v0c0.001-1.937 0.001-3.873 0-5.808 0-0.644-0.406-1.192-0.976-1.405l-0.010-0.003c-2.762-1.006-5.524-2.012-8.285-3.016z"></path>
</svg>
