<!-- Generated by IcoMoon.io -->
<svg version="1.1" xmlns="http://www.w3.org/2000/svg" width="24" height="32" viewBox="0 0 24 32">
<title>droplet-l</title>
<path d="M12.085 0l-0.549 0.465c-4.407 3.735-8.591 8.653-10.594 14.24-1.253 3.495-1.394 7.374 0.416 10.814 2.081 3.955 6.257 6.48 10.727 6.48s8.646-2.525 10.727-6.48c1.619-3.076 1.622-6.489 0.721-9.678h0.105l-0.408-1.137c-2.003-5.587-6.187-10.507-10.594-14.24zM12.085 2.332c4.020 3.528 7.766 8.002 9.537 12.93l0.006 0.018c1.133 3.16 1.229 6.505-0.32 9.449h-0.002c-1.781 3.387-5.395 5.572-9.221 5.572s-7.44-2.185-9.223-5.572c-1.549-2.944-1.453-6.289-0.32-9.449 1.769-4.934 5.518-9.414 9.543-12.947zM18.691 15.193c0.493 2.030 0.604 4.582-0.688 7.037-1.576 2.996-4.779 4.93-8.16 4.93-0.389 0-0.773-0.026-1.154-0.076 1.255 0.925 2.791 1.459 4.379 1.459 2.705 0 5.268-1.55 6.529-3.947 1.308-2.483 0.805-5.168 0.154-6.984-0.286-0.799-0.641-1.607-1.061-2.418z"></path>
</svg>
