<!-- Generated by IcoMoon.io -->
<svg version="1.1" xmlns="http://www.w3.org/2000/svg" width="24" height="32" viewBox="0 0 24 32">
<title>droplet-r</title>
<path d="M12.172 0l-0.969 0.822c-4.251 3.603-8.306 8.346-10.27 13.822-1.239 3.456-1.39 7.359 0.436 10.83 2.099 3.989 6.295 6.525 10.803 6.525s8.705-2.536 10.803-6.525c1.827-3.471 1.649-7.443 0.086-11.805-1.644-4.588-5.667-9.246-9.918-12.848zM12.178 4.111c3.567 3.239 6.855 7.211 8.059 10.57 1.401 3.911 1.449 6.8 0.084 9.395v0.002c-1.57 2.986-4.776 4.922-8.148 4.922s-6.577-1.937-8.148-4.922v-0.002c-1.364-2.594-1.293-5.555-0.266-8.42 1.553-4.333 4.848-8.308 8.42-11.545zM17.577 12.371c0.539 2.22 0.661 5.009-0.752 7.695-1.723 3.277-5.227 5.393-8.926 5.393-0.425 0-0.846-0.029-1.264-0.084 1.373 1.012 3.053 1.596 4.789 1.596 2.959 0 5.763-1.694 7.143-4.316 1.43-2.716 0.88-5.654 0.168-7.641-0.312-0.874-0.7-1.756-1.158-2.643z"></path>
</svg>
