<!-- Generated by IcoMoon.io -->
<svg version="1.1" xmlns="http://www.w3.org/2000/svg" width="24" height="32" viewBox="0 0 24 32">
<title>droplet-s</title>
<path d="M11.973 0c-4.61 3.907-8.965 9.053-11.020 14.785-1.271 3.545-1.396 7.394 0.393 10.795 2.058 3.911 6.208 6.42 10.627 6.42s8.568-2.509 10.625-6.42c1.79-3.401 1.664-7.248 0.002-11.887s-6.017-9.787-10.627-13.693zM18.379 13.777c0.459 0.887 0.846 1.769 1.158 2.643 0.712 1.986 1.262 4.924-0.168 7.641-1.38 2.622-4.184 4.318-7.143 4.318-1.737 0-3.416-0.584-4.789-1.596 0.417 0.054 0.838 0.082 1.264 0.082 3.699 0 7.202-2.116 8.926-5.393 1.413-2.686 1.291-5.475 0.752-7.695z"></path>
</svg>
