<!-- Generated by IcoMoon.io -->
<svg version="1.1" xmlns="http://www.w3.org/2000/svg" width="32" height="32" viewBox="0 0 32 32">
<title>earth-s</title>
<path d="M16 0c-8.819 0-16 7.181-16 16s7.181 16 16 16c8.819 0 16-7.181 16-16s-7.181-16-16-16zM18.588 1.996l0.592 0.121c3.407 0.695 6.807 3.091 8.836 6.229 1.548 2.394 2.435 5.799 2.211 8.488-0.056 0.669-0.109 0.86-0.295 1.061-0.243 0.262-0.382 0.293-0.637 0.145-0.088-0.051-0.23-0.302-0.314-0.557-0.235-0.707-0.841-1.186-1.672-1.318-0.216-0.035-0.393-0.070-0.393-0.078s0.126-0.314 0.283-0.682c0.545-1.278 0.334-2.434-0.563-3.066-0.362-0.255-0.487-0.287-1.096-0.287-0.378 0-0.763 0.037-0.855 0.082-0.11 0.054-0.168 0.045-0.168-0.027 0-0.086 0.634-1.575 0.73-1.717 0.012-0.018 0.497-0.090 1.080-0.162 1.125-0.139 1.386-0.228 1.543-0.521 0.3-0.561-0.147-1.346-0.766-1.346-0.802 0-2.744 0.303-2.963 0.463-0.143 0.104-0.48 0.714-0.879 1.594-0.639 1.408-0.968 1.951-1.863 3.074l-0.459 0.576-0.578-0.604c-0.667-0.695-1.343-1.172-1.658-1.172-0.609 0-0.957 0.425-0.871 1.063l0.055 0.402-0.785-0.053c-1.568-0.105-2.241-0.449-3.318-1.693l-0.471-0.545 0.42-0.713c0.249-0.423 0.821-1.136 1.406-1.748l0.988-1.031 0.684-0.092c1.374-0.184 2.837-0.939 3.275-1.688 0.264-0.45 0.242-1.030-0.053-1.445-0.173-0.244-0.182-0.335-0.1-0.879 0.114-0.751-0.015-1.133-0.443-1.313-0.375-0.157-0.75-0.087-1.012 0.191-0.238 0.254-0.515 1.728-0.465 2.475l0.031 0.457-0.48 0.176c-0.264 0.097-0.596 0.204-0.738 0.238-0.29 0.070-0.269 0.13-0.459-1.281l-0.096-0.719 0.551-0.508c0.303-0.279 0.823-0.751 1.156-1.049l0.607-0.541zM11.014 4.391c0.008 0 0.018 0 0.028 0 0.518 0 0.974 0.262 1.244 0.661l0.003 0.005c0.593 0.861 0.76 1.917 0.463 2.92-0.145 0.489-0.371 0.872-0.578 1.18-0.641 0.953-1.516 1.728-2.539 2.25-0.206 0.113-0.451 0.179-0.711 0.179-0.829 0-1.5-0.672-1.5-1.5 0-0.591 0.342-1.103 0.839-1.347l0.009-0.004c0.562-0.287 1.062-0.73 1.414-1.254 0.114-0.169 0.171-0.294 0.189-0.355 0.029-0.097-0.001-0.284-0.059-0.367-0.173-0.241-0.276-0.542-0.276-0.867 0-0.819 0.656-1.485 1.472-1.5h0.001zM15.637 17.334l3.271 0.32 0.934 0.984c0.513 0.542 1.311 1.402 1.773 1.91 1.134 1.246 1.224 1.283 2.322 0.949 0.34-0.103 0.794-0.214 1.008-0.246l0.389-0.059 0.225 0.725c0.321 1.034 0.497 1.162 1.736 1.25l0.973 0.068-0.201 0.342c-0.411 0.697-1.253 1.729-2.076 2.545-1.806 1.791-3.982 3.032-6.43 3.668-1.087 0.282-1.083 0.283-1.082 0.070 0-0.092 0.086-0.526 0.191-0.965 0.246-1.025 0.24-1.414-0.025-1.934-0.45-0.881-1.273-1.088-2.469-0.619-0.642 0.252-0.72 0.263-1.229 0.158-0.299-0.062-0.951-0.315-1.449-0.561-0.745-0.368-1.058-0.596-1.76-1.289l-0.852-0.842 0.064-1.518c0.035-0.834 0.084-1.592 0.109-1.684s1.067-0.866 2.313-1.721l2.264-1.555z"></path>
</svg>
