<!-- Generated by IcoMoon.io -->
<svg version="1.1" xmlns="http://www.w3.org/2000/svg" width="32" height="32" viewBox="0 0 32 32">
<title>embed-alt-l</title>
<path d="M17.835 5.744c-1.769 6.604-3.539 13.209-5.309 19.814l1.348 0.362c1.771-6.605 3.541-13.21 5.309-19.814zM9.436 6.396l-9.436 9.436 0.494 0.492c0 0 5.96 5.962 8.942 8.944l0.987-0.987c-2.817-2.817-7.854-7.853-8.45-8.449l8.449-8.449zM22.32 6.396l-0.986 0.987 8.449 8.449c-0.596 0.596-5.633 5.631-8.45 8.449l0.987 0.987c2.982-2.982 8.942-8.944 8.942-8.944l0.494-0.492z"></path>
</svg>
