<!-- Generated by IcoMoon.io -->
<svg version="1.1" xmlns="http://www.w3.org/2000/svg" width="32" height="32" viewBox="0 0 32 32">
<title>emoji-kiss-s</title>
<path d="M16 0c-8.819 0-16 7.181-16 16s7.181 16 16 16c8.819 0 16-7.181 16-16s-7.181-16-16-16zM10.4 10.945c1.075 0 1.949 0.875 1.949 1.949s-0.875 1.951-1.949 1.951c-1.075 0-1.951-0.877-1.951-1.951s0.877-1.949 1.951-1.949zM21.6 10.945c1.075 0 1.951 0.875 1.951 1.949s-0.877 1.951-1.951 1.951c-1.075 0-1.949-0.877-1.949-1.951s0.875-1.949 1.949-1.949zM14.709 16.367c0.184-0.026 0.385-0.023 0.602 0.008 1.676 0.237 3.248 1.601 3.248 3.447 0 0.976-0.567 1.806-1.277 2.273-0.037 0.025-0.033 0.005-0.066 0.023 0.651 0.6 1.293 1.25 1.293 2.191 0 0.976-0.575 1.806-1.285 2.273-0.678 0.446-1.449 0.669-2.266 0.871-0.365 0.099-0.722 0.037-0.982-0.139s-0.423-0.445-0.494-0.73c-0.071-0.285-0.045-0.594 0.104-0.871 0.147-0.274 0.426-0.499 0.789-0.584 0.722-0.179 1.295-0.4 1.529-0.555 0.148-0.098 0.201-0.15 0.199-0.146s0 0.004 0-0.119c0-0.348-0.471-1.025-1.646-1.328-0.004 0-0.004-0.007-0.008-0.008-0.472-0.107-0.84-0.489-0.922-0.967-0.013-0.076-0.017-0.152-0.016-0.229v-0.008c0-0.004 0-0.009 0-0.015s0-0.010 0-0.015v0.001c0-0.004 0-0.012 0-0.016 0.002-0.028 0.011-0.058 0.016-0.088s0.008-0.060 0.014-0.090c0.004-0.023 0.006-0.026 0.008-0.029 0.111-0.456 0.476-0.812 0.938-0.9 0.688-0.175 1.254-0.393 1.477-0.539 0.147-0.097 0.201-0.143 0.199-0.141s0 0.006 0-0.117c0-0.353-0.468-1.045-1.662-1.344-0.642-0.15-1.006-0.77-0.848-1.314 0.118-0.408 0.507-0.718 1.059-0.795v-0.002z"></path>
</svg>
