<!-- Generated by IcoMoon.io -->
<svg version="1.1" xmlns="http://www.w3.org/2000/svg" width="32" height="32" viewBox="0 0 32 32">
<title>emoji-smile-beam-s</title>
<path d="M16 0c-8.819 0-16 7.181-16 16s7.181 16 16 16c8.819 0 16-7.181 16-16s-7.181-16-16-16zM10.496 8.828c1.896 0 3.346 1.622 3.865 3.674 0.026 0.085 0.041 0.183 0.041 0.284 0 0.552-0.448 1-1 1-0.479 0-0.88-0.337-0.978-0.788l-0.001-0.007c-0.368-1.454-1.232-2.164-1.928-2.164s-1.56 0.71-1.928 2.164c-0.105 0.432-0.481 0.75-0.934 0.768h-0.002c-0.011 0-0.023 0.001-0.036 0.001-0.552 0-1-0.448-1-1 0-0.092 0.012-0.181 0.036-0.265l-0.002 0.007c0.519-2.052 1.969-3.674 3.865-3.674zM21.496 8.828c1.896 0 3.346 1.622 3.865 3.674 0.026 0.085 0.041 0.183 0.041 0.284 0 0.552-0.448 1-1 1-0.479 0-0.88-0.337-0.977-0.788l-0.001-0.007c-0.368-1.454-1.232-2.164-1.928-2.164s-1.56 0.71-1.928 2.164c-0.105 0.432-0.481 0.75-0.934 0.768h-0.002c-0.011 0-0.023 0.001-0.036 0.001-0.552 0-1-0.448-1-1 0-0.092 0.012-0.181 0.036-0.265l-0.002 0.007c0.519-2.052 1.969-3.674 3.865-3.674zM8.811 20.070c0.012 0 0.025-0.001 0.039-0.001 0.373 0 0.699 0.204 0.871 0.508l0.003 0.005c1.296 2.244 3.686 3.625 6.277 3.625s4.982-1.381 6.277-3.625c0.176-0.301 0.498-0.5 0.866-0.5 0.552 0 1 0.448 1 1 0 0.184-0.050 0.357-0.137 0.505l0.003-0.005c-1.651 2.86-4.707 4.625-8.010 4.625s-6.358-1.765-8.010-4.625c-0.089-0.146-0.141-0.323-0.141-0.512 0-0.539 0.426-0.978 0.96-0.999h0.002z"></path>
</svg>
