<!-- Generated by IcoMoon.io -->
<svg version="1.1" xmlns="http://www.w3.org/2000/svg" width="32" height="32" viewBox="0 0 32 32">
<title>emoji-happy-s</title>
<path d="M16 0c-8.819 0-16 7.181-16 16s7.181 16 16 16c8.819 0 16-7.181 16-16s-7.181-16-16-16zM10.4 9.145c0.585 0 1.096 0.357 1.445 0.881s0.555 1.224 0.555 1.994c0 0.77-0.206 1.472-0.555 1.996s-0.861 0.879-1.445 0.879c-0.585 0-1.096-0.355-1.445-0.879s-0.555-1.226-0.555-1.996c0-0.77 0.206-1.47 0.555-1.994s0.861-0.881 1.445-0.881zM21.6 9.145c0.585 0 1.096 0.357 1.445 0.881s0.555 1.224 0.555 1.994c0 0.77-0.205 1.472-0.555 1.996s-0.861 0.879-1.445 0.879c-0.585 0-1.096-0.355-1.445-0.879s-0.555-1.226-0.555-1.996c0-0.77 0.206-1.47 0.555-1.994s0.861-0.881 1.445-0.881zM6.85 17.154h18.301c0.552 0 1 0.448 1 1v0c0 3.285-1.994 6.286-5.121 7.877s-6.932 1.591-10.059 0c-3.127-1.591-5.121-4.592-5.121-7.877 0-0.552 0.448-1 1-1v0z"></path>
</svg>
