<!-- Generated by IcoMoon.io -->
<svg version="1.1" xmlns="http://www.w3.org/2000/svg" width="32" height="32" viewBox="0 0 32 32">
<title>emoji-happy-l</title>
<path d="M16 0c-8.826 0-16 7.173-16 16s7.173 16 16 16c8.826 0 16-7.174 16-16s-7.174-16-16-16zM16 1.699c7.908 0 14.301 6.393 14.301 14.301s-6.393 14.301-14.301 14.301c-7.908 0-14.301-6.393-14.301-14.301s6.393-14.301 14.301-14.301zM10.4 9.395c-0.967 0-1.75 1.175-1.75 2.625s0.783 2.625 1.75 2.625c0.967 0 1.75-1.175 1.75-2.625s-0.783-2.625-1.75-2.625zM21.6 9.395c-0.967 0-1.75 1.175-1.75 2.625s0.783 2.625 1.75 2.625c0.967 0 1.75-1.175 1.75-2.625s-0.783-2.625-1.75-2.625zM6.85 17.305c-0.469 0-0.849 0.38-0.85 0.85v0c0 3.224 1.957 6.173 5.039 7.742s6.839 1.569 9.922 0c3.083-1.569 5.039-4.518 5.039-7.742 0-0.469-0.38-0.849-0.85-0.85h-18.301zM7.826 19.004h16.348c-0.304 2.205-1.699 4.216-3.984 5.379-2.58 1.313-5.799 1.313-8.379 0-2.285-1.163-3.68-3.174-3.984-5.379z"></path>
</svg>
