<!-- Generated by IcoMoon.io -->
<svg version="1.1" xmlns="http://www.w3.org/2000/svg" width="32" height="32" viewBox="0 0 32 32">
<title>emoji-frustrated-l</title>
<path d="M16 0c-8.826 0-16 7.174-16 16s7.174 16 16 16c8.826 0 16-7.174 16-16s-7.174-16-16-16zM16 1.699c7.908 0 14.301 6.393 14.301 14.301s-6.393 14.301-14.301 14.301c-7.908 0-14.301-6.393-14.301-14.301s6.393-14.301 14.301-14.301zM9.604 9.268c-0.618 0.038-1.104 0.548-1.104 1.172 0 0.438 0.24 0.82 0.595 1.022l0.006 0.003c0.289 0.167 0.58 0.335 0.869 0.502-0.102 0.239-0.162 0.517-0.162 0.808 0 0.001 0 0.001 0 0.002v0c0 0 0 0.001 0 0.001 0 1.158 0.938 2.096 2.096 2.097v0c0 0 0.001 0 0.001 0 1.158 0 2.097-0.939 2.097-2.097 0 0 0-0.001 0-0.001v0c-0.001-0.849-0.507-1.58-1.233-1.909l-0.013-0.005c-0.001-0.001-0.001-0.001-0.002-0.002v0c-0.826-0.476-1.651-0.953-2.475-1.43-0.159-0.096-0.35-0.156-0.554-0.164h-0.002c-0.018-0.001-0.038-0.001-0.059-0.001s-0.041 0.001-0.061 0.002h0.003zM22.279 9.268c-0.206 0.008-0.397 0.068-0.562 0.167l0.005-0.003c-0.824 0.477-1.649 0.954-2.475 1.43-0.001 0.001-0.001 0.001-0.002 0.002v0c-0.74 0.334-1.245 1.065-1.246 1.914v0c0 0 0 0.001 0 0.001 0 1.158 0.939 2.097 2.097 2.097 0 0 0.001 0 0.001 0v0c1.158-0.001 2.096-0.939 2.096-2.097 0 0 0-0.001 0-0.001v0c0-0.001 0-0.001 0-0.002 0-0.292-0.060-0.57-0.167-0.822l0.005 0.014c0.29-0.167 0.58-0.335 0.869-0.502 0.36-0.205 0.598-0.587 0.598-1.024 0-0.649-0.526-1.175-1.175-1.175-0.016 0-0.031 0-0.047 0.001h0.002zM10.316 16.658c-2.377 0-4.316 1.942-4.316 4.318v0.207c0 2.377 1.94 4.316 4.316 4.316 0 0 0 0 0 0 0.081 0 0.16-0.011 0.234-0.033l-0.006 0.001c0 0 0.918-0.255 2.074-0.51s2.571-0.5 3.381-0.5c0.81 0 2.225 0.245 3.381 0.5s2.074 0.51 2.074 0.51c0.068 0.020 0.147 0.031 0.228 0.031 0 0 0 0 0 0v0c2.377 0 4.316-1.94 4.316-4.316v-0.207c0-2.377-1.94-4.318-4.316-4.318h-11.367zM10.316 18.359h1.584c0.001 1.674 0.001 3.349 0 5.025-0.787 0.184-1.499 0.365-1.621 0.398-1.443-0.023-2.578-1.15-2.578-2.6v-0.207c0-1.464 1.151-2.617 2.615-2.617zM13.6 18.359h4.801c0.001 1.559 0.001 3.118 0 4.678-0.838-0.153-1.678-0.279-2.4-0.279s-1.563 0.126-2.4 0.279c0.001-1.56 0.001-3.119 0-4.678zM20.1 18.359h1.584c1.464 0 2.615 1.153 2.615 2.617v0.207c0 1.45-1.135 2.577-2.578 2.6-0.122-0.033-0.834-0.215-1.621-0.398 0.001-1.676 0.001-3.351 0-5.025z"></path>
</svg>
