<!-- Generated by IcoMoon.io -->
<svg version="1.1" xmlns="http://www.w3.org/2000/svg" width="32" height="32" viewBox="0 0 32 32">
<title>emoji-grin-squint-tears-s</title>
<path d="M4.434 4.434c-5.396 5.396-5.861 13.872-1.429 19.82 0.481-0.799 1.048-1.523 1.66-2.151 0.334-0.343 0.679-0.661 1.025-0.954l0.001-0.001c0.384-0.325 0.87-0.503 1.37-0.504 0.010 0.002 0.012 0.002 0.014 0.003l-0.008-0.001c0.194 0.001 0.377 0.048 0.538 0.13l-0.007-0.003c0.074 0.032 0.235 0.044 0.301 0.072 0.091 0.039 0.17 0.076 0.236 0.11 0.033 0.017 0.063 0.033 0.096 0.051s-0.027-0.059 0.214 0.146c1.385 1.174 2.766 2.741 3.479 4.731 0.442 1.234 0.543 2.722-0.050 4.121 4.908 1.087 10.252-0.26 14.061-4.068s5.155-9.153 4.068-14.060c-1.399 0.593-2.887 0.492-4.121 0.050-1.991-0.714-3.559-2.096-4.734-3.482-0.213-0.252-0.128-0.182-0.146-0.214s-0.033-0.062-0.050-0.095c-0.033-0.066-0.070-0.141-0.109-0.232-0.028-0.065-0.039-0.226-0.071-0.299-0.081-0.156-0.129-0.341-0.129-0.538 0-0.001 0-0.002 0-0.003v0c0 0-0.001-0.001-0.001-0.001v0c0.001-0.5 0.179-0.986 0.504-1.37 0.294-0.346 0.612-0.692 0.955-1.026 0.628-0.612 1.352-1.179 2.151-1.66-5.948-4.432-14.424-3.967-19.82 1.429zM5.466 15.957c0.003-0.003 0.006-0.006 0.009-0.009v0c0.054-0.056 0.121-0.098 0.196-0.122l0.003-0.001c1.926-0.612 3.846-1.224 4.895-1.509 0.524-0.143 0.827-0.205 1.059-0.224s0.467 0.052 0.529 0.080c0.107 0.049 0.19 0.132 0.238 0.236l0.001 0.003c0.028 0.062 0.099 0.297 0.080 0.529s-0.082 0.535-0.224 1.059c-0.285 1.049-0.897 2.969-1.509 4.895-0.063 0.193-0.242 0.33-0.453 0.33-0.077 0-0.15-0.018-0.214-0.051l0.003 0.001c-0.295-0.147-0.794-0.458-1.009-1.146-0.183-0.585-0.22-1.426-0.272-2.259-0.833-0.051-1.673-0.089-2.259-0.272-0.688-0.215-0.998-0.714-1.146-1.009-0.032-0.062-0.050-0.135-0.050-0.213 0-0.123 0.047-0.235 0.123-0.319v0zM15.922 5.5c0.087-0.096 0.213-0.157 0.353-0.157 0.078 0 0.151 0.019 0.216 0.052l-0.003-0.001c0.295 0.147 0.794 0.458 1.009 1.146 0.183 0.585 0.221 1.426 0.272 2.259 0.832 0.051 1.674 0.089 2.259 0.272 0.688 0.215 0.998 0.714 1.146 1.009 0.032 0.062 0.050 0.135 0.050 0.212 0 0.211-0.138 0.39-0.329 0.452l-0.003 0.001c-1.926 0.612-3.844 1.223-4.894 1.508-0.524 0.143-0.827 0.205-1.059 0.224s-0.468-0.051-0.53-0.079c-0.107-0.049-0.19-0.132-0.238-0.236l-0.001-0.003c-0.028-0.062-0.098-0.298-0.079-0.53s0.082-0.535 0.224-1.059c0.285-1.049 0.896-2.968 1.508-4.894 0.022-0.068 0.056-0.127 0.1-0.176v0zM5.516 22.933c-0.917 0.941-1.727 2.066-2.188 3.35 0-0.002-0.001 0.002-0.002 0.006l-0.002 0.006c-0.002 0.007-0.002 0.015-0.004 0.022-0.385 1.095-0.439 2.373 0.164 3.518 0.698 1.327 2.084 2.164 3.584 2.164s2.886-0.838 3.584-2.164c0.608-1.156 0.551-2.447 0.155-3.551-0.614-1.712-1.85-3.142-3.13-4.227-0.024-0.020-0.061-0.014-0.087-0.032-0.14-0.12-0.323-0.193-0.524-0.193v0c0 0-0.001-0.001-0.001-0.001v0c-0.222 0.001-0.437 0.079-0.606 0.223-0.32 0.271-0.638 0.564-0.944 0.878zM22.933 5.516c-0.314 0.306-0.607 0.623-0.878 0.944-0.144 0.169-0.222 0.384-0.223 0.606 0 0 0.001 0.001 0.001 0.001v0c0 0.001 0 0.001 0 0.002 0 0.201 0.073 0.385 0.195 0.527l-0.001-0.001c0.017 0.024 0.010 0.059 0.029 0.081 1.085 1.281 2.516 2.517 4.228 3.131 1.104 0.396 2.395 0.453 3.551-0.155 1.326-0.698 2.164-2.084 2.164-3.584s-0.837-2.886-2.164-3.584c-1.146-0.603-2.424-0.549-3.518-0.164-0.007 0.002-0.015 0.002-0.022 0.004-0.010 0.003-0.014 0.004-0.017 0.006l0.006-0.002c-1.284 0.46-2.41 1.271-3.35 2.188zM11.828 22.411c0.045-0.043 0.094-0.081 0.147-0.114l0.004-0.002c0 0 4.308-2.744 5.94-4.375s4.375-5.94 4.375-5.94c0.171-0.27 0.468-0.446 0.806-0.446 0.262 0 0.5 0.106 0.672 0.278v0c2.035 2.035 1.88 4.912 1.083 7.159-0.934 2.631-3.253 4.951-5.885 5.885-2.247 0.797-5.123 0.953-7.159-1.083-0.172-0.172-0.278-0.41-0.278-0.672 0-0.271 0.113-0.515 0.295-0.688v0z"></path>
</svg>
