<!-- Generated by IcoMoon.io -->
<svg version="1.1" xmlns="http://www.w3.org/2000/svg" width="32" height="32" viewBox="0 0 32 32">
<title>emoji-dizzy-r</title>
<path d="M16 0c-8.819 0-16 7.181-16 16s7.181 16 16 16c8.819 0 16-7.181 16-16s-7.181-16-16-16zM16 3c7.198 0 13 5.802 13 13s-5.802 13-13 13c-7.198 0-13-5.802-13-13s5.802-13 13-13zM12.746 8.008c-0.32 0.006-0.607 0.142-0.812 0.357v0c-0.528 0.527-1.056 1.056-1.584 1.584-0.528-0.528-1.054-1.057-1.582-1.584-0.209-0.215-0.501-0.348-0.824-0.348-0.001 0-0.002 0-0.002 0v0c-0.635 0.001-1.149 0.515-1.149 1.15 0 0.323 0.133 0.615 0.348 0.824v0c0.527 0.527 1.055 1.055 1.582 1.582-0.528 0.528-1.054 1.056-1.582 1.584-0.22 0.21-0.357 0.506-0.357 0.833 0 0.635 0.515 1.15 1.15 1.15 0.328 0 0.624-0.137 0.834-0.358v-0.001c0.527-0.528 1.055-1.055 1.582-1.582 0.527 0.527 1.055 1.054 1.582 1.582 0.21 0.221 0.506 0.358 0.834 0.358 0.635 0 1.15-0.515 1.15-1.15 0-0.328-0.137-0.623-0.357-0.833v0c-0.528-0.528-1.054-1.056-1.582-1.584 0.527-0.527 1.055-1.055 1.582-1.582 0.221-0.21 0.359-0.506 0.359-0.834 0-0.635-0.515-1.15-1.15-1.15-0.007 0-0.015 0-0.022 0h0.001zM19.242 8.018c-0.635 0.001-1.149 0.515-1.149 1.15 0 0.323 0.133 0.615 0.348 0.824v0c0.527 0.527 1.055 1.055 1.582 1.582-0.528 0.528-1.054 1.056-1.582 1.584-0.22 0.21-0.357 0.506-0.357 0.833 0 0.635 0.515 1.15 1.15 1.15 0.328 0 0.624-0.137 0.834-0.358v-0.001c0.527-0.528 1.055-1.055 1.582-1.582 0.527 0.527 1.055 1.054 1.582 1.582 0.21 0.221 0.506 0.358 0.834 0.358 0.635 0 1.15-0.515 1.15-1.15 0-0.328-0.137-0.623-0.357-0.833v0c-0.528-0.528-1.054-1.056-1.582-1.584 0.527-0.527 1.055-1.055 1.582-1.582 0.208-0.208 0.337-0.496 0.337-0.813 0-0.635-0.515-1.15-1.15-1.15-0.318 0-0.605 0.129-0.813 0.337v0c-0.528 0.527-1.054 1.056-1.582 1.584-0.528-0.528-1.056-1.057-1.584-1.584-0.209-0.215-0.501-0.348-0.824-0.348 0 0 0 0 0 0v0zM16 16.619c-2.934 0-5.301 2.468-5.301 5.438s2.367 5.438 5.301 5.438c2.934 0 5.301-2.468 5.301-5.438s-2.367-5.438-5.301-5.438zM16 18.92c1.65 0 3 1.371 3 3.137s-1.35 3.137-3 3.137c-1.65 0-3-1.371-3-3.137s1.35-3.137 3-3.137z"></path>
</svg>
