<!-- Generated by IcoMoon.io -->
<svg version="1.1" xmlns="http://www.w3.org/2000/svg" width="32" height="32" viewBox="0 0 32 32">
<title>emoji-smile-r</title>
<path d="M16 0c-8.819 0-16 7.181-16 16s7.181 16 16 16c8.819 0 16-7.181 16-16s-7.181-16-16-16zM16 3c7.198 0 13 5.802 13 13s-5.802 13-13 13c-7.198 0-13-5.802-13-13s5.802-13 13-13zM10.4 10.945c-1.075 0-1.951 0.875-1.951 1.949s0.877 1.951 1.951 1.951c1.075 0 1.949-0.877 1.949-1.951s-0.875-1.949-1.949-1.949zM21.6 10.945c-1.075 0-1.949 0.875-1.949 1.949s0.875 1.951 1.949 1.951c1.075 0 1.951-0.877 1.951-1.951s-0.877-1.949-1.951-1.949zM8.811 20.070c-0.536 0.021-0.962 0.461-0.962 0.999 0 0.189 0.053 0.366 0.144 0.517l-0.003-0.004c1.651 2.86 4.707 4.625 8.010 4.625s6.358-1.765 8.010-4.625c0.084-0.143 0.134-0.316 0.134-0.5 0-0.552-0.448-1-1-1-0.368 0-0.69 0.199-0.864 0.495l-0.003 0.005c-1.296 2.244-3.686 3.625-6.277 3.625s-4.982-1.381-6.277-3.625c-0.174-0.308-0.5-0.512-0.873-0.512-0.014 0-0.027 0-0.041 0.001h0.002z"></path>
</svg>
