<!-- Generated by IcoMoon.io -->
<svg version="1.1" xmlns="http://www.w3.org/2000/svg" width="32" height="32" viewBox="0 0 32 32">
<title>emoji-evil-l</title>
<path d="M2.008 0c-0.005 0-0.011 0-0.017 0-0.325 0-0.608 0.182-0.751 0.451l-0.002 0.005c-0.311 0.591-0.567 1.211-0.764 1.848-0.803 2.597-0.495 5.431 0.664 7.875-0.731 1.856-1.135 3.824-1.139 5.82 0 0 0 0.001 0 0.001s0 0.001 0 0.001v0c0 8.827 7.173 16 16 16s16-7.173 16-16c0 0 0-0.001 0-0.001s0-0.001 0-0.001v0c-0.004-1.996-0.408-3.965-1.139-5.82 1.159-2.444 1.467-5.278 0.664-7.875-0.197-0.637-0.453-1.256-0.764-1.848-0.146-0.272-0.427-0.453-0.752-0.453-0.424 0-0.775 0.31-0.84 0.716l-0.001 0.005c-0.218 1.444-1.121 2.737-2.293 3.633-2.954-2.758-6.815-4.354-10.877-4.355-4.061 0.001-7.923 1.596-10.877 4.354-1.171-0.896-2.075-2.187-2.293-3.631-0.063-0.405-0.405-0.713-0.821-0.723h-0.001zM16 1.699c3.881 0.001 7.595 1.579 10.289 4.373 0.155 0.16 0.372 0.26 0.612 0.26 0.163 0 0.315-0.046 0.445-0.125l-0.004 0.002c1.146-0.699 1.975-1.758 2.605-2.934 0.541 2.17 0.327 4.551-0.715 6.533-0.062 0.115-0.098 0.251-0.098 0.396 0 0.117 0.024 0.229 0.067 0.331l-0.002-0.006c0.722 1.733 1.097 3.593 1.102 5.471 0 7.908-6.393 14.301-14.301 14.301s-14.3-6.392-14.301-14.299v-0.002c0.004-1.878 0.379-3.737 1.102-5.471 0.041-0.096 0.065-0.208 0.065-0.325 0-0.145-0.036-0.281-0.1-0.4l0.002 0.005c-1.042-1.983-1.256-4.363-0.715-6.533 0.63 1.176 1.458 2.235 2.603 2.934 0.126 0.077 0.278 0.123 0.441 0.123 0.24 0 0.457-0.1 0.612-0.26v0c2.695-2.794 6.409-4.372 10.291-4.373zM9.604 9.268c-0.618 0.038-1.104 0.548-1.104 1.172 0 0.438 0.24 0.82 0.595 1.022l0.006 0.003c0.289 0.167 0.58 0.335 0.869 0.502-0.102 0.239-0.162 0.517-0.162 0.808 0 0.001 0 0.001 0 0.002v0c0 0 0 0.001 0 0.001 0 1.158 0.938 2.096 2.096 2.097v0c0 0 0.001 0 0.001 0 1.158 0 2.097-0.939 2.097-2.097 0 0 0-0.001 0-0.001v0c-0.001-0.849-0.507-1.58-1.233-1.909l-0.013-0.005c-0.001-0.001-0.001-0.001-0.002-0.002v0c-0.826-0.476-1.651-0.953-2.475-1.43-0.159-0.096-0.35-0.156-0.554-0.164h-0.002c-0.018-0.001-0.038-0.001-0.059-0.001s-0.041 0.001-0.061 0.002h0.003zM22.279 9.268c-0.206 0.008-0.397 0.068-0.562 0.167l0.005-0.003c-0.824 0.477-1.649 0.954-2.475 1.43-0.001 0.001-0.001 0.001-0.002 0.002v0c-0.739 0.334-1.245 1.065-1.246 1.914v0c0 0 0 0.001 0 0.001 0 1.158 0.939 2.097 2.097 2.097 0 0 0.001 0 0.001 0v0c1.158-0.001 2.096-0.939 2.096-2.097 0 0 0-0.001 0-0.001v0c0-0.001 0-0.001 0-0.002 0-0.292-0.060-0.57-0.167-0.822l0.005 0.014c0.29-0.167 0.58-0.335 0.869-0.502 0.36-0.205 0.598-0.587 0.598-1.024 0-0.649-0.526-1.175-1.175-1.175-0.016 0-0.031 0-0.047 0.001h0.002zM23.152 20.221c-0.002 0-0.004 0-0.006 0-0.317 0-0.594 0.174-0.74 0.431l-0.002 0.004c-1.322 2.29-3.763 3.701-6.408 3.701s-5.086-1.411-6.408-3.701c-0.15-0.256-0.423-0.425-0.736-0.425-0.47 0-0.851 0.381-0.851 0.851 0 0.157 0.042 0.304 0.117 0.43l-0.002-0.004c1.625 2.814 4.631 4.549 7.881 4.549s6.256-1.735 7.881-4.549c0.076-0.125 0.121-0.276 0.121-0.437 0-0.468-0.378-0.848-0.845-0.85v0z"></path>
</svg>
