<!-- Generated by IcoMoon.io -->
<svg version="1.1" xmlns="http://www.w3.org/2000/svg" width="40" height="32" viewBox="0 0 40 32">
<title>emoji-grin-tears-l</title>
<path d="M19.8 0c-8.462 0.007-15.374 6.627-15.904 14.994-0.401 0.119-0.796 0.261-1.178 0.441-0.009 0.004-0.013 0.006-0.016 0.008l0.005-0.002c-0.002 0.001-0.002 0.003-0.004 0.004-0.011 0.005-0.018 0.009-0.024 0.012l0.005-0.002c-0.010 0.005-0.019 0.014-0.029 0.020-0.956 0.467-1.825 1.222-2.293 2.273-0.064 0.143-0.122 0.292-0.17 0.447-0.117 0.377-0.179 0.762-0.189 1.146-0.005 0.192 0.003 0.384 0.023 0.574 0 0 0 0.002 0 0.002 0.021 0.189 0.054 0.378 0.1 0.563 0 0 0 0.002 0 0.002 0.046 0.185 0.106 0.366 0.176 0.543 0 0 0 0.002 0 0.002 0.070 0.177 0.152 0.35 0.246 0.518 0 0 0 0.002 0 0.002 0.094 0.168 0.199 0.329 0.316 0.484s0.245 0.302 0.385 0.441c0 0 0 0.002 0 0.002 0.139 0.139 0.289 0.268 0.443 0.385 1.085 0.819 2.517 1.079 3.834 0.67 0.084-0.026 0.162-0.061 0.242-0.092 2.758 5.2 8.097 8.554 14.031 8.562 0.001 0 0.001 0 0.002 0s0.001 0 0.002 0v0c5.934-0.008 11.273-3.362 14.031-8.563 0.081 0.031 0.158 0.066 0.242 0.092 1.317 0.409 2.751 0.147 3.836-0.672 0.154-0.117 0.303-0.244 0.441-0.383 0 0 0-0.002 0-0.002 0.139-0.139 0.268-0.286 0.385-0.441s0.222-0.318 0.316-0.486c0.094-0.167 0.176-0.34 0.246-0.518 0 0 0-0.002 0-0.002 0.070-0.177 0.13-0.358 0.176-0.543 0 0 0-0.002 0-0.002 0.046-0.185 0.079-0.373 0.1-0.563 0 0 0-0.002 0-0.002 0.021-0.19 0.028-0.382 0.023-0.574-0.010-0.385-0.072-0.77-0.189-1.146-0.048-0.155-0.106-0.304-0.17-0.447-0.468-1.052-1.337-1.807-2.293-2.273-0.010-0.006-0.019-0.014-0.029-0.020-0.004-0.003-0.012-0.007-0.019-0.011l-0.004-0.002c0.001 0-0.003-0.002-0.007-0.004l-0.005-0.002c-0.38-0.179-0.774-0.321-1.174-0.439-0.529-8.37-7.444-14.992-15.908-14.996zM19.8 1.699c7.435 0.004 13.534 5.67 14.215 12.957-0.886-0.103-1.773-0.106-2.609-0.037-0.233 0.019-0.451 0.12-0.617 0.285 0 0 0 0.001 0 0.001s0 0.001 0 0.001v0c-0.14 0.139-0.231 0.326-0.248 0.534v0.003c-0.006 0.030-0.036 0.051-0.039 0.082-0.145 1.761-0.001 3.746 0.816 5.477 0.275 0.582 0.658 1.132 1.146 1.584-2.447 4.715-7.313 7.706-12.662 7.715-5.35-0.007-10.219-2.999-12.666-7.715 0.488-0.452 0.872-1.002 1.146-1.584 0.817-1.73 0.962-3.714 0.816-5.475-0.003-0.033-0.035-0.055-0.041-0.088-0.017-0.21-0.108-0.395-0.246-0.533v0c0 0 0-0.001 0-0.001s0-0.001 0-0.001v0c-0.166-0.165-0.384-0.266-0.617-0.285-0.835-0.069-1.721-0.065-2.605 0.037 0.68-7.286 6.777-12.951 14.211-12.957zM14.3 8.977c-1.806 0-3.213 1.556-3.721 3.563-0.018 0.066-0.029 0.142-0.029 0.22 0 0.451 0.351 0.819 0.794 0.848h0.003c0.016 0.001 0.035 0.002 0.054 0.002 0.4 0 0.735-0.276 0.826-0.648l0.001-0.006c0.379-1.498 1.287-2.277 2.072-2.277s1.693 0.779 2.072 2.277c0.090 0.38 0.427 0.659 0.829 0.659 0.47 0 0.85-0.381 0.85-0.85 0-0.080-0.011-0.158-0.032-0.231l0.001 0.006c-0.508-2.007-1.915-3.563-3.721-3.563zM25.3 8.977c-1.806 0-3.213 1.556-3.721 3.563-0.018 0.066-0.029 0.142-0.029 0.22 0 0.451 0.351 0.819 0.794 0.848h0.003c0.016 0.001 0.035 0.002 0.054 0.002 0.4 0 0.735-0.276 0.826-0.648l0.001-0.006c0.379-1.498 1.287-2.277 2.072-2.277s1.693 0.779 2.072 2.277c0.090 0.38 0.427 0.659 0.829 0.659 0.47 0 0.85-0.381 0.85-0.85 0-0.080-0.011-0.158-0.032-0.231l0.001 0.006c-0.508-2.007-1.915-3.563-3.721-3.563zM7.394 16.326c0.039 1.37-0.105 2.799-0.648 3.949-0.269 0.569-0.644 1.032-1.119 1.34-0.012 0.006-0.019 0.010-0.026 0.014l0.004-0.002c-0.191 0.122-0.382 0.215-0.584 0.277-0.672 0.209-1.412 0.121-2.018-0.215-0.202-0.112-0.387-0.253-0.553-0.418-0.662-0.662-0.913-1.678-0.635-2.572 0.059-0.191 0.142-0.372 0.242-0.539s0.219-0.319 0.355-0.461c0 0 0.002-0.002 0.002-0.002 0.023-0.024 0.054-0.043 0.078-0.066 0.118-0.115 0.241-0.226 0.381-0.324 0.169-0.118 0.353-0.224 0.549-0.318 0.009-0.005 0.013-0.007 0.018-0.010l-0.004 0.002c0.011-0.005 0.017-0.007 0.023-0.010l-0.005 0.002c0.006-0.003 0.007-0.004 0.009-0.004l-0.005 0.002c0.017-0.008 0.036-0.014 0.053-0.021 0.227-0.104 0.467-0.189 0.713-0.264 0.116-0.035 0.24-0.065 0.361-0.096 0.892-0.22 1.862-0.291 2.809-0.264zM32.207 16.326c0.954-0.027 1.931 0.045 2.828 0.27 0.109 0.028 0.219 0.056 0.324 0.088 0.271 0.082 0.539 0.172 0.787 0.289 0.006 0.003 0.016 0.008 0.026 0.013l0.005 0.002c0.587 0.282 1.063 0.671 1.365 1.172 0 0 0.002 0.002 0.002 0.002 0.1 0.167 0.181 0.346 0.24 0.537 0.278 0.894 0.027 1.91-0.635 2.572-0.165 0.165-0.353 0.306-0.555 0.418-0.606 0.336-1.344 0.423-2.016 0.215-0.202-0.063-0.393-0.155-0.584-0.277-0.003-0.002-0.010-0.006-0.017-0.009l-0.005-0.002c-0.475-0.308-0.851-0.771-1.119-1.34-0.543-1.151-0.688-2.579-0.648-3.949zM11.921 19.029c-0.006 0-0.014 0-0.021 0-0.469 0-0.85 0.38-0.85 0.85v0c0 2.955 2.199 4.935 4.436 6 2.604 1.24 6.025 1.24 8.629 0 2.236-1.065 4.436-3.045 4.436-6 0-0.469-0.381-0.85-0.85-0.85-0.068 0-0.134 0.008-0.197 0.023l0.006-0.001c0 0-5.237 1.168-7.709 1.168s-7.709-1.168-7.709-1.168c-0.050-0.012-0.109-0.020-0.169-0.021h-0.001zM12.953 20.963c1.453 0.319 4.509 0.955 6.848 0.955s5.394-0.636 6.848-0.955c-0.436 1.524-1.709 2.641-3.264 3.381-2.050 0.976-5.118 0.976-7.168 0-1.555-0.74-2.827-1.857-3.264-3.381z"></path>
</svg>
