<!-- Generated by IcoMoon.io -->
<svg version="1.1" xmlns="http://www.w3.org/2000/svg" width="32" height="32" viewBox="0 0 32 32">
<title>emoji-grin-sweet-r</title>
<path d="M16 0c-8.819 0-16 7.181-16 16s7.181 16 16 16c8.819 0 16-7.181 16-16 0-0.905-0.17-1.818-0.262-2.463-0.086-0.754-0.721-1.334-1.491-1.334-0.828 0-1.5 0.672-1.5 1.5 0 0.091 0.008 0.18 0.024 0.267l-0.001-0.009c0.101 0.71 0.23 1.568 0.23 2.039 0 7.197-5.803 13-13 13s-13-5.803-13-13c0-7.197 5.803-13 13-13 1.587 0 3.15 0.29 4.617 0.848 0.158 0.062 0.342 0.098 0.534 0.098 0.829 0 1.5-0.672 1.5-1.5 0-0.637-0.397-1.181-0.957-1.399l-0.010-0.004c-1.806-0.686-3.731-1.043-5.684-1.043zM27.754 0c-0.235 0-0.462 0.085-0.641 0.236-1.348 1.142-2.651 2.647-3.297 4.449-0.417 1.162-0.476 2.52 0.164 3.736 0.735 1.396 2.193 2.279 3.771 2.279s3.039-0.883 3.773-2.279h-0.002c0.631-1.199 0.577-2.534 0.178-3.682-0.005-0.017-0.008-0.036-0.014-0.053 0 0 0-0.001 0-0.001s0-0.001 0-0.001v0c-0.646-1.802-1.947-3.307-3.295-4.449-0.026-0.022-0.064-0.016-0.092-0.035-0.146-0.124-0.337-0.2-0.545-0.201v0c0 0-0.001 0-0.001 0s-0.001 0-0.001 0v0zM10.5 8.828c-1.896 0-3.346 1.622-3.865 3.674-0.022 0.078-0.034 0.166-0.034 0.258 0 0.552 0.448 1 1 1 0.013 0 0.025 0 0.038-0.001h-0.002c0.455-0.018 0.83-0.336 0.934-0.761l0.001-0.007c0.368-1.454 1.232-2.164 1.928-2.164s1.56 0.71 1.928 2.164c0.099 0.457 0.499 0.794 0.979 0.794 0.552 0 1-0.448 1-1 0-0.101-0.015-0.199-0.043-0.291l0.002 0.007c-0.519-2.052-1.969-3.674-3.865-3.674zM21.5 8.828c-1.896 0-3.346 1.622-3.865 3.674-0.022 0.078-0.034 0.166-0.034 0.258 0 0.552 0.448 1 1 1 0.013 0 0.025 0 0.038-0.001h-0.002c0.455-0.018 0.83-0.336 0.934-0.761l0.001-0.007c0.368-1.454 1.232-2.164 1.928-2.164s1.56 0.71 1.928 2.164c0.099 0.457 0.499 0.794 0.979 0.794 0.552 0 1-0.448 1-1 0-0.101-0.015-0.199-0.043-0.291l0.002 0.007c-0.519-2.052-1.969-3.674-3.865-3.674zM8.125 18.879c-0.008 0-0.016 0-0.025 0-0.552 0-1 0.448-1 1 0 0 0 0 0 0v0c0 3.029 2.256 5.054 4.521 6.133 2.653 1.263 6.105 1.263 8.758 0 2.265-1.079 4.521-3.104 4.521-6.133 0 0 0 0 0 0 0-0.552-0.448-1-1-1-0.080 0-0.157 0.009-0.231 0.027l0.007-0.001c0 0-5.248 1.164-7.676 1.164s-7.676-1.164-7.676-1.164c-0.059-0.014-0.128-0.023-0.198-0.025h-0.001zM9.338 21.156c1.577 0.341 4.401 0.912 6.662 0.912s5.085-0.571 6.662-0.912c-0.481 1.359-1.688 2.358-3.143 3.051-2.001 0.953-5.038 0.953-7.039 0-1.454-0.693-2.662-1.692-3.143-3.051z"></path>
</svg>
