<!-- Generated by IcoMoon.io -->
<svg version="1.1" xmlns="http://www.w3.org/2000/svg" width="32" height="32" viewBox="0 0 32 32">
<title>emoji-meh-rolling-eyes-l</title>
<path d="M16 0c-8.826 0-16 7.173-16 16s7.173 16 16 16c8.826 0 16-7.174 16-16s-7.174-16-16-16zM16 1.699c7.908 0 14.301 6.393 14.301 14.301s-6.393 14.301-14.301 14.301c-7.908 0-14.301-6.393-14.301-14.301s6.393-14.301 14.301-14.301zM10.4 7.895c-2.751 0-5 2.249-5 5s2.249 5 5 5c2.751 0 5-2.249 5-5s-2.249-5-5-5zM21.6 7.895c-2.751 0-5 2.249-5 5s2.249 5 5 5c2.751 0 5-2.249 5-5s-2.249-5-5-5zM11.875 9.953c1.082 0.539 1.826 1.643 1.826 2.941 0 1.832-1.468 3.299-3.301 3.299s-3.299-1.466-3.299-3.299c0-1.298 0.743-2.4 1.824-2.939-0.172 0.266-0.275 0.591-0.275 0.939v0c0 0.966 0.784 1.75 1.75 1.75v0c0.966 0 1.75-0.784 1.75-1.75v0c0-0.35-0.103-0.675-0.28-0.948l0.004 0.007zM23.074 9.953c1.082 0.539 1.826 1.643 1.826 2.941 0 1.832-1.468 3.299-3.301 3.299s-3.299-1.466-3.299-3.299c0-1.298 0.743-2.4 1.824-2.939-0.172 0.266-0.275 0.591-0.275 0.939v0c0 0.966 0.784 1.75 1.75 1.75v0c0.966 0 1.75-0.784 1.75-1.75v0c0-0.35-0.103-0.675-0.28-0.948l0.004 0.007zM11.361 22.717c-0.47 0-0.851 0.381-0.851 0.851s0.381 0.851 0.851 0.851v0c3.093-0.001 6.186-0.001 9.277 0 0.47 0 0.851-0.381 0.851-0.851s-0.381-0.851-0.851-0.851v0c-3.091-0.001-6.184-0.001-9.277 0z"></path>
</svg>
