<!-- Generated by IcoMoon.io -->
<svg version="1.1" xmlns="http://www.w3.org/2000/svg" width="32" height="32" viewBox="0 0 32 32">
<title>emoji-sad-l</title>
<path d="M16 0c-8.826 0-16 7.173-16 16s7.173 16 16 16c8.826 0 16-7.174 16-16s-7.174-16-16-16zM16 1.699c7.908 0 14.301 6.393 14.301 14.301s-6.393 14.301-14.301 14.301c-7.908 0-14.301-6.393-14.301-14.301s6.393-14.301 14.301-14.301zM10.4 11.145c-0.966 0-1.75 0.784-1.75 1.75v0c0 0.966 0.784 1.75 1.75 1.75v0c0.966 0 1.75-0.784 1.75-1.75v0c0-0.966-0.784-1.75-1.75-1.75v0zM21.6 11.145c-0.966 0-1.75 0.784-1.75 1.75v0c0 0.966 0.784 1.75 1.75 1.75v0c0.966 0 1.75-0.784 1.75-1.75v0c0-0.966-0.784-1.75-1.75-1.75v0zM16 18.221c-3.249 0-6.256 1.735-7.881 4.549-0.072 0.122-0.114 0.269-0.114 0.426 0 0.47 0.381 0.851 0.851 0.851 0.313 0 0.586-0.169 0.734-0.421l0.002-0.004c1.322-2.29 3.763-3.701 6.408-3.701s5.086 1.411 6.408 3.701c0.148 0.262 0.425 0.436 0.742 0.436 0.002 0 0.004 0 0.006 0v0c0.468-0.003 0.846-0.382 0.846-0.85 0-0.161-0.045-0.312-0.123-0.441l0.002 0.004c-1.625-2.814-4.631-4.549-7.881-4.549z"></path>
</svg>
