<!-- Generated by IcoMoon.io -->
<svg version="1.1" xmlns="http://www.w3.org/2000/svg" width="32" height="32" viewBox="0 0 32 32">
<title>emoji-smile-l</title>
<path d="M16 0c-8.826 0-16 7.173-16 16s7.173 16 16 16c8.826 0 16-7.174 16-16s-7.174-16-16-16zM16 1.699c7.908 0 14.301 6.393 14.301 14.301s-6.393 14.301-14.301 14.301c-7.908 0-14.301-6.393-14.301-14.301s6.393-14.301 14.301-14.301zM10.4 11.145c-0.966 0-1.75 0.784-1.75 1.75v0c0 0.966 0.784 1.75 1.75 1.75v0c0.966 0 1.75-0.784 1.75-1.75v0c0-0.966-0.784-1.75-1.75-1.75v0zM21.6 11.145c-0.966 0-1.75 0.784-1.75 1.75v0c0 0.966 0.784 1.75 1.75 1.75v0c0.966 0 1.75-0.784 1.75-1.75v0c0-0.966-0.784-1.75-1.75-1.75v0zM23.156 20.221c-0.002 0-0.004 0-0.006 0-0.317 0-0.594 0.174-0.74 0.431l-0.002 0.004c-1.322 2.29-3.763 3.701-6.408 3.701s-5.086-1.411-6.408-3.701c-0.15-0.256-0.423-0.425-0.736-0.425-0.47 0-0.851 0.381-0.851 0.851 0 0.157 0.042 0.304 0.116 0.43l-0.002-0.004c1.625 2.814 4.631 4.549 7.881 4.549s6.256-1.735 7.881-4.549c0.076-0.125 0.121-0.276 0.121-0.437 0-0.468-0.378-0.848-0.845-0.85v0z"></path>
</svg>
