<!-- Generated by IcoMoon.io -->
<svg version="1.1" xmlns="http://www.w3.org/2000/svg" width="29" height="32" viewBox="0 0 29 32">
<title>emoji-pacman-r</title>
<path d="M16 0c-8.819 0-16 7.181-16 16s7.181 16 16 16c4.85 0 9.213-2.169 12.146-5.588l0.893-1.041-9.133-9.371 9.133-9.371-0.893-1.041c-2.932-3.418-7.296-5.588-12.146-5.588zM16 3c3.465 0 6.549 1.4 8.877 3.602l-9.16 9.398 9.16 9.398c-2.328 2.202-5.412 3.602-8.877 3.602-7.198 0-13.002-5.802-13.002-13s5.804-13 13.002-13zM19.436 4.854c-1.232 0-2.232 0.998-2.232 2.23s1 2.232 2.232 2.232c1.232 0 2.23-1 2.23-2.232s-0.998-2.23-2.23-2.23z"></path>
</svg>
