<!-- Generated by IcoMoon.io -->
<svg version="1.1" xmlns="http://www.w3.org/2000/svg" width="32" height="32" viewBox="0 0 32 32">
<title>emoji-cool-r</title>
<path d="M16 0c-8.819 0-16 7.181-16 16s7.181 16 16 16c8.819 0 16-7.181 16-16s-7.181-16-16-16zM16 3c7.198 0 13 5.802 13 13s-5.802 13-13 13c-7.198 0-13-5.802-13-13s5.802-13 13-13zM5.861 10.994c0 0 0 0 0 0-0.133 0-0.241 0.103-0.25 0.234v0.001c-0.001 0.012-0.012 0.056-0.012 0.135v3.527c0 1.136 0.924 2.059 2.061 2.059h3.68c1.136 0 2.061-0.922 2.061-2.059v-0.258c0.046 0.007 0.099 0.012 0.153 0.012 0.003 0 0.005 0 0.008 0v0c1.628-0.001 3.253-0.001 4.879 0 0.002 0 0.005 0 0.007 0 0.054 0 0.107-0.004 0.159-0.012l-0.006 0.001v0.258c0 1.136 0.924 2.059 2.061 2.059h3.68c1.136 0 2.061-0.922 2.061-2.059v-3.527c0-0.079-0.011-0.123-0.012-0.135-0.008-0.131-0.117-0.234-0.25-0.234 0 0 0 0 0 0v0c-2.425-0.001-4.851-0.001-7.277 0 0 0 0 0 0 0-0.133 0-0.241 0.103-0.25 0.234v0.001c-0.001 0.012-0.012 0.056-0.012 0.135v1.291c-0.042-0.006-0.091-0.010-0.141-0.010-0.006 0-0.012 0-0.019 0h0.001c-1.627-0.001-3.254-0.001-4.883 0-0.002 0-0.004 0-0.005 0-0.054 0-0.107 0.004-0.158 0.012l0.006-0.001v-1.293c0-0.079-0.011-0.123-0.012-0.135-0.008-0.131-0.117-0.234-0.25-0.234 0 0 0 0-0.001 0v0c-2.425-0.001-4.851-0.001-7.277 0zM22.648 19.242c-0.012 0-0.027-0.001-0.042-0.001-0.544 0-1.006 0.347-1.178 0.832l-0.003 0.009c-0.622 1.72-1.962 3.081-3.672 3.73s-3.617 0.522-5.225-0.352c-0.172-0.095-0.378-0.152-0.597-0.152-0.69 0-1.25 0.56-1.25 1.25 0 0.472 0.261 0.883 0.647 1.095l0.006 0.003c2.246 1.22 4.915 1.4 7.305 0.492s4.267-2.813 5.137-5.217c0.051-0.131 0.081-0.283 0.081-0.442 0-0.676-0.537-1.227-1.208-1.249h-0.002z"></path>
</svg>
