<!-- Generated by IcoMoon.io -->
<svg version="1.1" xmlns="http://www.w3.org/2000/svg" width="32" height="32" viewBox="0 0 32 32">
<title>emoji-confused-l</title>
<path d="M16 0c-8.826 0-16 7.173-16 16s7.173 16 16 16c8.826 0 16-7.174 16-16s-7.174-16-16-16zM16 1.699c7.908 0 14.301 6.393 14.301 14.301s-6.393 14.301-14.301 14.301c-7.908 0-14.301-6.393-14.301-14.301s6.393-14.301 14.301-14.301zM10.4 11.145c-0.966 0-1.75 0.784-1.75 1.75v0c0 0.966 0.784 1.75 1.75 1.75v0c0.966 0 1.75-0.784 1.75-1.75v0c0-0.966-0.784-1.75-1.75-1.75v0zM21.6 11.145c-0.966 0-1.75 0.784-1.75 1.75v0c0 0.966 0.784 1.75 1.75 1.75v0c0.966 0 1.75-0.784 1.75-1.75v0c0-0.966-0.784-1.75-1.75-1.75v0zM12.602 18.906c-0.246 0.014-0.493 0.050-0.738 0.107-1.966 0.46-3.363 2.223-3.363 4.242 0 0.008 0 0.017 0 0.026 0 0.469 0.381 0.85 0.85 0.85s0.85-0.381 0.85-0.85c0-0.009 0-0.019 0-0.028v0.001c0-1.239 0.846-2.304 2.053-2.586s2.436 0.296 2.986 1.406c0.027 0.055 0.056 0.103 0.089 0.147l-0.002-0.002c0.933 1.711 2.9 2.611 4.811 2.164 1.966-0.46 3.363-2.223 3.363-4.242 0-0.003 0-0.007 0-0.011 0-0.469-0.381-0.85-0.85-0.85-0.005 0-0.009 0-0.014 0h0.001c-0.463 0.008-0.836 0.385-0.836 0.85 0 0.004 0 0.008 0 0.012v-0.001c0 1.239-0.846 2.306-2.053 2.588s-2.436-0.298-2.986-1.408c-0.027-0.055-0.056-0.103-0.089-0.147l0.002 0.002c-0.813-1.491-2.409-2.368-4.072-2.271z"></path>
</svg>
