<!-- Generated by IcoMoon.io -->
<svg version="1.1" xmlns="http://www.w3.org/2000/svg" width="32" height="32" viewBox="0 0 32 32">
<title>emoji-shocked-l</title>
<path d="M16 0c-8.826 0-16 7.173-16 16s7.173 16 16 16c8.826 0 16-7.174 16-16s-7.174-16-16-16zM16 1.699c7.908 0 14.301 6.393 14.301 14.301s-6.393 14.301-14.301 14.301c-7.908 0-14.301-6.393-14.301-14.301s6.393-14.301 14.301-14.301zM10.4 9.395c-0.967 0-1.75 1.175-1.75 2.625s0.783 2.625 1.75 2.625c0.967 0 1.75-1.175 1.75-2.625s-0.783-2.625-1.75-2.625zM21.6 9.395c-0.967 0-1.75 1.175-1.75 2.625s0.783 2.625 1.75 2.625c0.967 0 1.75-1.175 1.75-2.625s-0.783-2.625-1.75-2.625zM16 16.402c-2.751 0-5 2.249-5 5s2.249 5 5 5c2.751 0 5-2.249 5-5s-2.249-5-5-5zM16 18.102c1.833 0 3.301 1.468 3.301 3.301s-1.468 3.299-3.301 3.299c-1.833 0-3.301-1.466-3.301-3.299s1.468-3.301 3.301-3.301z"></path>
</svg>
