<!-- Generated by IcoMoon.io -->
<svg version="1.1" xmlns="http://www.w3.org/2000/svg" width="32" height="32" viewBox="0 0 32 32">
<title>emoji-hipster-s</title>
<path d="M16 0c-8.819 0-16 7.181-16 16s7.181 16 16 16c8.819 0 16-7.181 16-16s-7.181-16-16-16zM10.4 10.945c1.075 0 1.949 0.875 1.949 1.949s-0.875 1.951-1.949 1.951c-1.075 0-1.951-0.877-1.951-1.951s0.877-1.949 1.951-1.949zM21.6 10.945c1.075 0 1.951 0.875 1.951 1.949s-0.877 1.951-1.951 1.951c-1.075 0-1.949-0.877-1.949-1.951s0.875-1.949 1.949-1.949zM13 18.105c0.768 0 1.535 0.293 2.121 0.879 0.583 0.583 0.874 1.347 0.877 2.111 0.002-0.765 0.295-1.528 0.879-2.111 1.172-1.172 3.070-1.172 4.242 0 1.427 1.427 2.941 2.371 4.879 1.121 0 3.172-6.302 5.683-9.006 3.23-0.039-0.035-0.077-0.071-0.115-0.109-0.584-0.584-0.874-1.347-0.877-2.111-0.002 0.764-0.293 1.528-0.877 2.111-0.038 0.038-0.076 0.075-0.115 0.109-2.704 2.453-9.006-0.058-9.006-3.23 1.938 1.25 3.448 0.305 4.875-1.121 0.586-0.585 1.356-0.879 2.123-0.879z"></path>
</svg>
