<!-- Generated by IcoMoon.io -->
<svg version="1.1" xmlns="http://www.w3.org/2000/svg" width="32" height="32" viewBox="0 0 32 32">
<title>emoji-grin-sweet-s</title>
<path d="M16 0c-8.819 0-16 7.181-16 16s7.181 16 16 16c8.819 0 16-7.181 16-16 0-2.121-0.424-4.144-1.178-5.998-0.842 0.724-1.925 1.148-3.070 1.148-1.746 0-3.357-0.976-4.17-2.52-0.709-1.349-0.639-2.843-0.189-4.098 0.268-0.749 0.643-1.441 1.080-2.080-2.461-1.545-5.36-2.453-8.473-2.453zM28.004 0c-0.221 0-0.435 0.080-0.604 0.223-1.269 1.075-2.495 2.491-3.104 4.188-0.392 1.094-0.448 2.373 0.154 3.518 0.691 1.314 2.065 2.145 3.551 2.145s2.86-0.83 3.551-2.145h-0.002c0.594-1.129 0.544-2.384 0.168-3.465-0.005-0.016-0.008-0.035-0.014-0.051 0 0 0-0.001 0-0.001s0-0.001 0-0.001v0c-0.608-1.696-1.832-3.112-3.102-4.188-0.024-0.021-0.060-0.015-0.086-0.033-0.137-0.117-0.316-0.188-0.511-0.189v0c0 0-0.001 0-0.001 0s-0.001 0-0.001 0v0zM10.5 8.828c1.896 0 3.346 1.622 3.865 3.674 0.026 0.085 0.041 0.183 0.041 0.284 0 0.552-0.448 1-1 1-0.479 0-0.88-0.337-0.978-0.788l-0.001-0.007c-0.368-1.454-1.232-2.164-1.928-2.164s-1.56 0.71-1.928 2.164c-0.105 0.432-0.481 0.75-0.934 0.768h-0.002c-0.011 0-0.023 0.001-0.036 0.001-0.552 0-1-0.448-1-1 0-0.092 0.012-0.181 0.036-0.265l-0.002 0.007c0.519-2.052 1.969-3.674 3.865-3.674zM21.5 8.828c1.896 0 3.346 1.622 3.865 3.674 0.026 0.085 0.041 0.183 0.041 0.284 0 0.552-0.448 1-1 1-0.479 0-0.88-0.337-0.977-0.788l-0.001-0.007c-0.368-1.454-1.232-2.164-1.928-2.164s-1.56 0.71-1.928 2.164c-0.105 0.432-0.481 0.75-0.934 0.768h-0.002c-0.011 0-0.023 0.001-0.036 0.001-0.552 0-1-0.448-1-1 0-0.092 0.012-0.181 0.036-0.265l-0.002 0.007c0.519-2.052 1.969-3.674 3.865-3.674zM8.125 18.879c0.072 0.002 0.14 0.011 0.206 0.027l-0.007-0.001c0 0 5.248 1.164 7.676 1.164s7.676-1.164 7.676-1.164c0.067-0.016 0.145-0.026 0.224-0.026 0.552 0 1 0.448 1 1 0 0 0 0 0 0v0c0 3.029-2.256 5.054-4.521 6.133-2.653 1.263-6.105 1.263-8.758 0-2.265-1.079-4.521-3.104-4.521-6.133 0 0 0 0 0 0 0-0.552 0.448-1 1-1 0.009 0 0.018 0 0.027 0h-0.001z"></path>
</svg>
