<!-- Generated by IcoMoon.io -->
<svg version="1.1" xmlns="http://www.w3.org/2000/svg" width="32" height="32" viewBox="0 0 32 32">
<title>emoji-kiss-wink-heart-l</title>
<path d="M16 0c-8.827 0-16 7.173-16 16s7.173 16 16 16c0 0 0.001 0 0.001 0s0.001 0 0.001 0v0c2.675-0.007 5.29-0.718 7.633-2.002l4.277 0.002c1.024 0 2.013-0.347 2.779-0.971l0.002-0.002c0.766-0.623 1.307-1.564 1.307-2.646 0-0.144-0.013-0.287-0.035-0.426s-0.055-0.272-0.098-0.402c0 0 0-0.002 0-0.002-0.042-0.13-0.095-0.256-0.154-0.377 0 0 0-0.002 0-0.002-0.060-0.121-0.129-0.236-0.203-0.346 0 0 0-0.001 0-0.001s0-0.001 0-0.001v0c-0.001-0.001-0.001-0.001-0.002-0.002v0c-0.299-0.436-0.699-0.786-1.145-1.066l-0.002-0.002c-0.005-0.003-0.011-0.005-0.016-0.008-0.122-0.076-0.25-0.135-0.379-0.193 1.263-2.326 2.027-4.894 2.033-7.551 0 0 0-0.001 0-0.001s0-0.001 0-0.001v0c0-8.827-7.173-16-16-16zM16 1.699c7.907 0 14.3 6.392 14.301 14.299-0.006 2.51-0.68 4.966-1.936 7.133-0.065-0.010-0.13-0.027-0.195-0.037-0.112-0.756-0.245-1.532-0.662-2.193-0.005-0.007-0.007-0.011-0.010-0.015l0.002 0.003c-0.1-0.153-0.223-0.303-0.346-0.453-0.003-0.005-0.005-0.007-0.007-0.010l0.001 0.002c-0.036-0.064-0.077-0.119-0.123-0.168v0c-0.168-0.177-0.36-0.352-0.588-0.506-0.44-0.299-0.979-0.49-1.555-0.49h-0.002c-1.082 0.001-2.024 0.542-2.646 1.309-0.624 0.766-0.971 1.755-0.971 2.779l0.002 5.797c0 0.044 0.004 0.086 0.010 0.128l-0.001-0.005c-1.673 0.67-3.462 1.024-5.275 1.029-7.908 0-14.301-6.393-14.301-14.301s6.393-14.301 14.301-14.301zM21.5 8.977c-1.806 0-3.213 1.556-3.721 3.563-0.018 0.066-0.029 0.142-0.029 0.22 0 0.451 0.351 0.819 0.794 0.848h0.003c0.016 0.001 0.035 0.002 0.054 0.002 0.4 0 0.735-0.276 0.826-0.648l0.001-0.006c0.379-1.498 1.287-2.277 2.072-2.277s1.693 0.779 2.072 2.277c0.090 0.38 0.427 0.659 0.829 0.659 0.47 0 0.85-0.381 0.85-0.85 0-0.080-0.011-0.158-0.032-0.231l0.001 0.006c-0.508-2.007-1.915-3.563-3.721-3.563zM10.5 9.545c-0.966 0-1.75 0.784-1.75 1.75v0c0 0.966 0.784 1.75 1.75 1.75v0c0.966 0 1.75-0.784 1.75-1.75v0c0-0.966-0.784-1.75-1.75-1.75v0zM14.729 16.133c-0.453 0.021-0.813 0.393-0.813 0.85 0 0.401 0.277 0.737 0.651 0.827l0.006 0.001c1.3 0.322 1.938 1.080 1.938 1.682 0 0.286-0.047 0.352-0.357 0.557-0.304 0.2-0.886 0.407-1.605 0.588-0.328 0.065-0.586 0.312-0.665 0.629l-0.001 0.006c0.001-0.003 0-0.001-0.001 0.002l-0.001 0.006c-0.005 0.020-0.010 0.047-0.013 0.074v0.004c-0.002 0.017-0.005 0.038-0.006 0.060v0.002c-0.001 0.004-0.001 0.013-0.002 0.021v0.003c0 0.001 0 0.003 0 0.004s0 0.003 0 0.004v0c0 0.007 0 0.016 0 0.025 0 0.050 0.004 0.1 0.013 0.148l-0.001-0.005c0.059 0.345 0.319 0.616 0.653 0.69l0.006 0.001h0.002c1.286 0.325 1.922 1.078 1.922 1.676 0 0.286-0.047 0.35-0.357 0.555s-0.898 0.416-1.639 0.6c-0.382 0.089-0.662 0.426-0.662 0.829 0 0.47 0.381 0.85 0.85 0.85 0.079 0 0.156-0.011 0.228-0.031l-0.006 0.001c0.809-0.2 1.542-0.419 2.164-0.828s1.121-1.14 1.121-1.977c0-0.996-0.608-1.761-1.422-2.375 0.109-0.058 0.256-0.069 0.359-0.137 0.622-0.409 1.121-1.142 1.121-1.979 0-1.643-1.427-2.888-3.227-3.334-0.065-0.018-0.14-0.028-0.217-0.028-0.013 0-0.026 0-0.039 0.001h0.002zM24.883 20.965c0.216 0 0.402 0.061 0.6 0.195-0.003-0.002-0.002-0.001-0.001 0l0.005 0.002c0.086 0.058 0.181 0.143 0.283 0.248 0.004 0.005 0.008 0.009 0.011 0.013l-0.001-0.001c0.093 0.102 0.191 0.236 0.293 0.391 0.343 0.547 0.568 1.327 0.588 1.965l0.004-0.008c0 0 0-0.001 0-0.001s0-0.001 0-0.001v0l0.002-0.006c0 0.001 0 0.003 0 0.004s0 0.003 0 0.004v0c0 0-0.002 0-0.002 0 0.002 0.123 0.030 0.239 0.078 0.343l-0.002-0.005c-0.001-0.003-0.006-0.024-0.008-0.031 0.113 0.264 0.349 0.456 0.634 0.507l0.005 0.001c-0.027-0.004-0.055-0.006-0.066-0.008 0.054 0.015 0.116 0.025 0.18 0.027h0.002c0.401 0.013 0.854 0.113 1.273 0.266 0.094 0.034 0.191 0.066 0.279 0.105 0.148 0.066 0.289 0.139 0.416 0.219 0 0 0.002 0 0.002 0s0 0.001 0 0.001 0 0.001 0 0.001v0c0.145 0.091 0.271 0.187 0.379 0.285 0 0 0.002 0.002 0.002 0.002 0.107 0.098 0.197 0.199 0.266 0.299 0.001 0.001 0.001 0.003 0.002 0.004 0.066 0.098 0.114 0.194 0.146 0.291s0.047 0.197 0.047 0.305c0 0.135-0.014 0.263-0.043 0.385-0.058 0.243-0.173 0.462-0.342 0.66-0.084 0.099-0.182 0.193-0.293 0.283 0 0-0.001 0-0.001 0s-0.001 0-0.001 0v0c-0.329 0.268-0.773 0.466-1.238 0.549-0.155 0.027-0.312 0.041-0.469 0.041h-4.947l-0.002-4.947c0-0.626 0.235-1.269 0.592-1.707 0 0 0-0.001 0-0.001s0-0.001 0-0.001v0c0.359-0.442 0.789-0.678 1.328-0.678zM26.662 23.734c0.001 0.012 0.001 0.021 0.002 0.031v-0.003c0-0.001-0.004-0.014-0.004-0.014s0.002-0.012 0.002-0.014zM26.775 24.176c0.014 0.024 0.026 0.043 0.039 0.061l-0.002-0.003c-0.016-0.025-0.021-0.033-0.037-0.059zM27.395 24.588c0.033 0.005 0.072 0.008 0.111 0.008v0l-0.014 0.004c-0.020-0.003-0.049-0.006-0.098-0.012z"></path>
</svg>
