<!-- Generated by IcoMoon.io -->
<svg version="1.1" xmlns="http://www.w3.org/2000/svg" width="32" height="32" viewBox="0 0 32 32">
<title>emoji-wondering-r</title>
<path d="M16 0c-8.819 0-16 7.181-16 16s7.181 16 16 16c8.819 0 16-7.181 16-16s-7.181-16-16-16zM16 3c7.198 0 13 5.802 13 13s-5.802 13-13 13c-7.198 0-13-5.802-13-13s5.802-13 13-13zM10.4 10.945c-1.075 0-1.951 0.875-1.951 1.949s0.877 1.951 1.951 1.951c1.075 0 1.949-0.877 1.949-1.951s-0.875-1.949-1.949-1.949zM21.6 10.945c-1.075 0-1.949 0.875-1.949 1.949s0.875 1.951 1.949 1.951c1.075 0 1.951-0.877 1.951-1.951s-0.877-1.949-1.951-1.949zM20.488 20.363c-0.095 0.001-0.186 0.015-0.273 0.041l0.007-0.002c-2.986 0.799-5.975 1.599-8.963 2.4-0.44 0.111-0.761 0.504-0.761 0.971 0 0.552 0.448 1 1 1 0.099 0 0.195-0.014 0.286-0.041l-0.007 0.002c2.987-0.802 5.977-1.601 8.963-2.4 0.439-0.112 0.759-0.504 0.759-0.971 0-0.552-0.448-1-1-1-0.004 0-0.008 0-0.012 0h0.001z"></path>
</svg>
