<!-- Generated by IcoMoon.io -->
<svg version="1.1" xmlns="http://www.w3.org/2000/svg" width="32" height="32" viewBox="0 0 32 32">
<title>emoji-frustrated-r</title>
<path d="M16 0c-8.82 0-16 7.18-16 16s7.18 16 16 16c8.82 0 16-7.18 16-16s-7.18-16-16-16zM16 2.93c7.236 0 13.070 5.834 13.070 13.070s-5.834 13.070-13.070 13.070c-7.236 0-13.070-5.834-13.070-13.070s5.834-13.070 13.070-13.070zM9.561 8.855c-0.016-0.001-0.034-0.001-0.053-0.001-0.767 0-1.388 0.621-1.388 1.388 0 0.517 0.283 0.968 0.702 1.207l0.007 0.004c0.342 0.198 0.685 0.396 1.027 0.594-0.122 0.283-0.193 0.611-0.193 0.957v0c0 0 0 0 0 0 0 1.369 1.11 2.478 2.478 2.478 0 0 0 0 0 0v0c0 0 0 0 0 0 1.369 0 2.478-1.11 2.478-2.478 0 0 0 0 0 0v0c-0.001-1.003-0.599-1.867-1.457-2.255l-0.016-0.006c-0.001-0.001-0.001-0.001-0.002-0.002v0c-0.976-0.562-1.952-1.126-2.926-1.689-0.188-0.114-0.414-0.186-0.656-0.195h-0.003zM22.438 8.855c-0.244 0.010-0.47 0.081-0.664 0.199l0.006-0.003c-0.974 0.564-1.95 1.127-2.926 1.689-0.001 0.001-0.001 0.001-0.002 0.002v0c-0.873 0.395-1.47 1.259-1.471 2.262v0c0 0 0 0 0 0 0 1.368 1.109 2.477 2.476 2.478v0c0 0 0 0 0 0 1.369 0 2.478-1.11 2.478-2.478 0 0 0 0 0 0v0c0-0.001 0-0.001 0-0.002 0-0.345-0.070-0.673-0.198-0.971l0.006 0.016c0.342-0.198 0.684-0.394 1.025-0.592 0.428-0.242 0.712-0.694 0.712-1.213 0-0.767-0.622-1.388-1.388-1.388-0.020 0-0.040 0-0.060 0.001h0.003zM10.316 16.51c-2.457 0-4.467 2.010-4.467 4.467v0.207c0 2.457 2.010 4.467 4.467 4.467 0.095 0 0.187-0.014 0.275-0.039l-0.007 0.002c0 0 0.916-0.254 2.068-0.508s2.565-0.498 3.348-0.498c0.783 0 2.196 0.244 3.348 0.498s2.068 0.508 2.068 0.508c0.080 0.023 0.172 0.037 0.267 0.037v0c2.457 0 4.467-2.010 4.467-4.467v-0.207c0-2.457-2.010-4.467-4.467-4.467h-11.367zM10.316 18.51h1.584c0.001 1.573 0.001 3.146 0 4.721-0.797 0.185-1.489 0.362-1.631 0.4-1.357-0.029-2.42-1.082-2.42-2.447v-0.207c0-1.384 1.083-2.467 2.467-2.467zM13.6 18.51h4.801c0.001 1.457 0.001 2.915 0 4.373-0.832-0.152-1.669-0.275-2.4-0.275s-1.568 0.123-2.4 0.275c0.001-1.458 0.001-2.916 0-4.373zM20.1 18.51h1.584c1.384 0 2.467 1.083 2.467 2.467v0.207c0 1.365-1.063 2.419-2.42 2.447-0.141-0.039-0.833-0.215-1.631-0.4 0.001-1.574 0.001-3.148 0-4.721z"></path>
</svg>
