<!-- Generated by IcoMoon.io -->
<svg version="1.1" xmlns="http://www.w3.org/2000/svg" width="32" height="32" viewBox="0 0 32 32">
<title>emoji-cool-l</title>
<path d="M16 0c-8.826 0-16 7.173-16 16s7.173 16 16 16c8.826 0 16-7.174 16-16s-7.174-16-16-16zM16 1.699c7.908 0 14.301 6.393 14.301 14.301s-6.393 14.301-14.301 14.301c-7.908 0-14.301-6.393-14.301-14.301s6.393-14.301 14.301-14.301zM5.861 10.395c-0.45 0-0.818 0.35-0.848 0.792v0.003c0.004-0.055-0.014 0.004-0.014 0.174v3.527c0 1.459 1.202 2.66 2.66 2.66h3.68c1.459 0 2.66-1.202 2.66-2.66v-0.396c1.334-0.001 2.667-0.001 4 0v0.396c0 1.459 1.202 2.66 2.66 2.66h3.68c1.459 0 2.66-1.202 2.66-2.66v-3.527c0-0.17-0.017-0.229-0.014-0.172-0.029-0.446-0.397-0.797-0.848-0.797v0c-2.425-0.001-4.851-0.001-7.277 0-0.45 0-0.818 0.35-0.848 0.792v0.003c0.004-0.056-0.014 0.004-0.014 0.174v1.432c-1.333-0.001-2.666-0.001-4 0v-1.432c0-0.17-0.017-0.229-0.014-0.172-0.029-0.446-0.397-0.797-0.848-0.797v0c-2.425-0.001-4.851-0.001-7.277 0zM6.699 12.096c1.867 0 3.735 0 5.602 0v2.795c0 0.545-0.416 0.959-0.961 0.959h-3.68c-0.545 0-0.961-0.414-0.961-0.959v-2.795zM19.699 12.096c1.867 0 3.735 0 5.602 0v2.795c0 0.545-0.416 0.959-0.961 0.959h-3.68c-0.545 0-0.961-0.414-0.961-0.959v-2.795zM22.633 19.646c-0.008 0-0.017 0-0.027 0-0.37 0-0.685 0.237-0.802 0.567l-0.002 0.006c-0.662 1.829-2.089 3.278-3.908 3.969s-3.845 0.554-5.555-0.375c-0.117-0.065-0.257-0.103-0.406-0.103-0.47 0-0.85 0.381-0.85 0.85 0 0.321 0.178 0.6 0.44 0.745l0.004 0.002c2.144 1.165 4.69 1.337 6.971 0.471s4.072-2.686 4.902-4.98c0.035-0.089 0.055-0.193 0.055-0.301 0-0.46-0.365-0.834-0.821-0.85h-0.001z"></path>
</svg>
