<!-- Generated by IcoMoon.io -->
<svg version="1.1" xmlns="http://www.w3.org/2000/svg" width="32" height="32" viewBox="0 0 32 32">
<title>emoji-tongue-r</title>
<path d="M16 0c-8.819 0-16 7.181-16 16s7.181 16 16 16c8.819 0 16-7.181 16-16s-7.181-16-16-16zM16 3c7.198 0 13 5.802 13 13s-5.802 13-13 13c-7.198 0-13-5.802-13-13s5.802-13 13-13zM10.4 10.945c-1.075 0-1.951 0.875-1.951 1.949s0.877 1.951 1.951 1.951c1.075 0 1.949-0.877 1.949-1.951s-0.875-1.949-1.949-1.949zM21.6 10.945c-1.075 0-1.949 0.875-1.949 1.949s0.875 1.951 1.949 1.951c1.075 0 1.951-0.877 1.951-1.951s-0.877-1.949-1.951-1.949zM9.514 19.398c-0.552 0-1 0.448-1 1s0.448 1 1 1v0c2.325-0.001 4.648 0 6.973 0v0.529c0 1.921 1.577 3.5 3.498 3.5s3.502-1.578 3.502-3.5v-1.529c0-0.001 0-0.003 0-0.004s0-0.003 0-0.004v0c-0.001-0.033-0.003-0.065-0.006-0.096v0.005c-0.003-0.031-0.006-0.058-0.011-0.084l0.001 0.006c-0.002-0.013-0.004-0.021-0.005-0.028l0.001 0.006c-0.001-0.010-0.002-0.014-0.003-0.018l0.001 0.006c-0.008-0.035-0.016-0.063-0.026-0.091l0.002 0.007c-0.011-0.034-0.021-0.061-0.032-0.087l0.002 0.007c-0.003-0.012-0.004-0.016-0.006-0.021l0.002 0.007c-0.004-0.008-0.005-0.011-0.007-0.013l0.003 0.006c-0.015-0.032-0.028-0.058-0.042-0.083l0.003 0.005c-0.003-0.007-0.004-0.008-0.005-0.010l0.003 0.006c-0.007-0.014-0.012-0.022-0.016-0.030l0.003 0.005c-0.007-0.011-0.011-0.018-0.016-0.025l0.002 0.004c-0.015-0.024-0.029-0.044-0.043-0.063l0.002 0.003c0 0 0-0.001 0-0.001s0-0.001 0-0.001v0c-0.003-0.007-0.004-0.008-0.005-0.010l0.003 0.006c-0.019-0.026-0.038-0.048-0.057-0.069l0.001 0.001c-0.004-0.006-0.005-0.007-0.006-0.009l0.002 0.003c-0.016-0.018-0.032-0.035-0.049-0.051v0c-0.001-0.001-0.003-0.003-0.004-0.004v0c-0.017-0.016-0.036-0.032-0.055-0.047l-0.002-0.002c-0.004-0.004-0.009-0.008-0.014-0.013l-0.001-0.001c-0.005-0.004-0.013-0.010-0.021-0.016l-0.003-0.002c-0.001-0.001-0.005-0.004-0.008-0.006l-0.002-0.002c-0.016-0.012-0.036-0.026-0.056-0.039l-0.004-0.002c0 0-0.004-0.003-0.008-0.006l-0.004-0.002c-0.015-0.009-0.036-0.020-0.057-0.031l-0.006-0.003c-0.015-0.008-0.036-0.018-0.058-0.027l-0.007-0.002c-0.002-0.001-0.011-0.005-0.019-0.009l-0.006-0.003c-0.002-0.001-0.011-0.004-0.020-0.008l-0.007-0.002c-0.015-0.006-0.038-0.013-0.061-0.020l-0.007-0.002c-0.003-0.001-0.012-0.004-0.022-0.006l-0.007-0.002c0 0-0.007-0.002-0.013-0.003l-0.006-0.001c-0.017-0.004-0.042-0.009-0.067-0.013l-0.006-0.001c0.005 0.001 0.003 0.001 0.001 0l-0.007-0.002c-0.018-0.003-0.042-0.006-0.067-0.008h-0.003c-0.002 0-0.004 0-0.007 0s-0.005 0-0.007 0v0c-0.017-0.001-0.036-0.002-0.056-0.002v0c-1.666 0-3.333 0-5 0-2.657 0-5.314-0.001-7.973 0z"></path>
</svg>
