<!-- Generated by IcoMoon.io -->
<svg version="1.1" xmlns="http://www.w3.org/2000/svg" width="32" height="32" viewBox="0 0 32 32">
<title>emoji-tongue-squint-r</title>
<path d="M16 0c-8.819 0-16 7.181-16 16s7.181 16 16 16c8.819 0 16-7.181 16-16s-7.181-16-16-16zM16 3c7.198 0 13 5.802 13 13 0 5.76-3.721 10.618-8.895 12.332 1.15-1.090 1.873-2.628 1.873-4.334v-1.23c1.893-1.248 3.021-3.039 3.021-4.957 0 0-5.962 1.604-9 1.604s-9-1.604-9-1.604c0 1.918 1.129 3.709 3.021 4.957v1.23c0 1.706 0.723 3.244 1.873 4.334-5.174-1.714-8.895-6.572-8.895-12.332 0-7.198 5.802-13 13-13zM8.205 8.512v0.002c-0.001 0-0.002 0-0.003 0-0.016 0-0.031 0.001-0.046 0.002h0.002c-0.195 0.025-0.353 0.158-0.413 0.336l-0.001 0.004c-0.11 0.33-0.248 0.929 0.104 1.602 0.3 0.573 0.894 1.229 1.477 1.889-0.581 0.658-1.177 1.311-1.477 1.883-0.352 0.672-0.214 1.272-0.104 1.602 0.070 0.198 0.255 0.337 0.473 0.337 0.083 0 0.162-0.020 0.231-0.057l-0.003 0.001c1.888-0.978 3.776-1.949 4.77-2.518 0.496-0.284 0.766-0.461 0.953-0.619s0.307-0.392 0.332-0.459c0.020-0.052 0.032-0.113 0.032-0.177s-0.012-0.124-0.033-0.18l0.001 0.003c-0.025-0.067-0.145-0.293-0.332-0.451s-0.457-0.335-0.953-0.619c-0.993-0.569-2.881-1.548-4.77-2.525-0.066-0.035-0.145-0.055-0.228-0.055-0.004 0-0.009 0-0.013 0h0.001zM23.756 8.516c-0.076 0.002-0.147 0.021-0.21 0.052l0.003-0.001c-1.888 0.978-3.767 1.957-4.76 2.525-0.496 0.284-0.774 0.463-0.961 0.621s-0.307 0.383-0.332 0.449c-0.020 0.052-0.032 0.113-0.032 0.177s0.012 0.124 0.033 0.18l-0.001-0.003c0.025 0.067 0.145 0.3 0.332 0.459s0.465 0.335 0.961 0.619c0.993 0.569 2.871 1.54 4.76 2.518 0.066 0.035 0.145 0.055 0.229 0.055 0.218 0 0.403-0.139 0.471-0.333l0.001-0.004c0.11-0.33 0.256-0.929-0.096-1.602-0.299-0.572-0.901-1.223-1.482-1.881 0.583-0.659 1.183-1.318 1.482-1.891 0.352-0.672 0.206-1.272 0.096-1.602-0.069-0.2-0.255-0.34-0.474-0.34-0.007 0-0.014 0-0.021 0h0.001zM11.92 21.492h3.109c0.020 0.701 0.040 1.403 0.061 2.105 0 0.001 0 0.002 0 0.003 0 0.525 0.425 0.95 0.95 0.95s0.95-0.425 0.95-0.95c0-0.020-0.001-0.040-0.002-0.060v0.003c-0.020-0.684-0.039-1.368-0.059-2.051h3.15v2.506c0 2.276-1.804 4.078-4.080 4.078s-4.080-1.802-4.080-4.078v-2.506z"></path>
</svg>
