<!-- Generated by IcoMoon.io -->
<svg version="1.1" xmlns="http://www.w3.org/2000/svg" width="32" height="32" viewBox="0 0 32 32">
<title>emoji-evil-r</title>
<path d="M2.623 0c-0.010 0-0.021 0-0.032 0-0.573 0-1.071 0.321-1.323 0.793l-0.004 0.008c-0.318 0.604-0.577 1.238-0.777 1.887-0.79 2.554-0.483 5.295 0.582 7.721-0.673 1.789-1.064 3.673-1.068 5.588 0 0.001 0 0.001 0 0.002s0 0.001 0 0.002v0c0 8.819 7.181 16 16 16s16-7.181 16-16c0-0.001 0-0.001 0-0.002s0-0.001 0-0.002v0c-0.004-1.915-0.395-3.798-1.068-5.588 1.065-2.426 1.372-5.167 0.582-7.721-0.201-0.649-0.46-1.283-0.777-1.887-0.257-0.48-0.754-0.801-1.327-0.801-0.749 0-1.37 0.549-1.482 1.267l-0.001 0.008c-0.154 1.020-0.771 1.93-1.537 2.666-2.89-2.489-6.543-3.94-10.389-3.941-3.846 0.001-7.5 1.452-10.391 3.941-0.765-0.736-1.381-1.647-1.535-2.666-0.111-0.716-0.715-1.259-1.45-1.275h-0.002zM16 3c3.529 0.001 6.904 1.435 9.354 3.975 0.273 0.283 0.656 0.459 1.080 0.459 0.288 0 0.558-0.081 0.786-0.222l-0.006 0.004c0.654-0.399 1.128-1.001 1.637-1.564 0.046 1.422-0.135 2.853-0.793 4.104-0.108 0.202-0.172 0.443-0.172 0.698 0 0.208 0.043 0.407 0.119 0.587l-0.004-0.010c0.657 1.576 0.996 3.266 1 4.973-0.001 7.197-5.803 12.998-13 12.998s-12.998-5.8-13-12.996v-0.004c0.004-1.706 0.344-3.396 1-4.971 0.073-0.171 0.116-0.369 0.116-0.577 0-0.255-0.064-0.496-0.176-0.706l0.004 0.008c-0.657-1.25-0.839-2.681-0.793-4.102 0.508 0.562 0.981 1.164 1.635 1.563 0.222 0.137 0.491 0.218 0.78 0.218 0.424 0 0.807-0.176 1.079-0.458v0c2.45-2.54 5.826-3.974 9.355-3.975zM9.561 8.856c-0.016-0.001-0.034-0.001-0.053-0.001-0.767 0-1.388 0.621-1.388 1.388 0 0.517 0.283 0.968 0.702 1.207l0.007 0.004c0.342 0.198 0.685 0.396 1.027 0.594-0.122 0.283-0.193 0.611-0.193 0.957v0c0 0 0 0 0 0 0 1.369 1.11 2.478 2.478 2.478 0 0 0 0 0 0v0c0 0 0 0 0 0 1.369 0 2.478-1.11 2.478-2.478 0 0 0 0 0 0v0c-0.001-1.003-0.599-1.867-1.457-2.255l-0.016-0.006c-0.001-0.001-0.001-0.001-0.002-0.002v0c-0.976-0.562-1.952-1.126-2.926-1.689-0.188-0.114-0.414-0.186-0.656-0.195h-0.003zM22.438 8.856c-0.244 0.010-0.47 0.081-0.664 0.199l0.006-0.003c-0.974 0.564-1.95 1.127-2.926 1.689-0.001 0.001-0.001 0.001-0.002 0.002v0c-0.873 0.395-1.47 1.259-1.471 2.262v0c0 0 0 0 0 0 0 1.368 1.109 2.477 2.476 2.478v0c0 0 0 0 0 0 1.369 0 2.478-1.11 2.478-2.478 0 0 0 0 0 0v0c0-0.001 0-0.001 0-0.002 0-0.345-0.070-0.673-0.198-0.971l0.006 0.016c0.342-0.198 0.684-0.394 1.025-0.592 0.428-0.242 0.713-0.694 0.713-1.213 0-0.767-0.622-1.388-1.388-1.388-0.020 0-0.040 0-0.060 0.001h0.003zM8.814 20.070c-0.536 0.021-0.962 0.461-0.962 0.999 0 0.189 0.053 0.366 0.144 0.517l-0.003-0.004c1.651 2.86 4.707 4.625 8.010 4.625s6.358-1.765 8.010-4.625c0.084-0.143 0.134-0.316 0.134-0.5 0-0.552-0.448-1-1-1-0.368 0-0.69 0.199-0.864 0.495l-0.003 0.005c-1.296 2.244-3.686 3.625-6.277 3.625s-4.982-1.381-6.277-3.625c-0.174-0.308-0.5-0.512-0.873-0.512-0.014 0-0.027 0-0.041 0.001h0.002z"></path>
</svg>
