<!-- Generated by IcoMoon.io -->
<svg version="1.1" xmlns="http://www.w3.org/2000/svg" width="32" height="32" viewBox="0 0 32 32">
<title>emoji-confused-s</title>
<path d="M16 0c-8.819 0-16 7.181-16 16s7.181 16 16 16c8.819 0 16-7.181 16-16s-7.181-16-16-16zM10.4 10.945c1.075 0 1.949 0.875 1.949 1.949s-0.875 1.951-1.949 1.951c-1.075 0-1.951-0.877-1.951-1.951s0.877-1.949 1.951-1.949zM21.6 10.945c1.075 0 1.951 0.875 1.951 1.949s-0.877 1.951-1.951 1.951c-1.075 0-1.949-0.877-1.949-1.951s0.875-1.949 1.949-1.949zM12.594 18.758c0.254-0.015 0.507-0.008 0.756 0.020 1.454 0.162 2.774 1.031 3.484 2.371 0.020 0.030 0.041 0.065 0.060 0.102l0.003 0.006c0.519 1.048 1.679 1.595 2.818 1.328s1.936-1.271 1.936-2.441c0-0.004 0-0.009 0-0.014 0-0.547 0.439-0.991 0.984-1h0.001c0.005 0 0.010 0 0.016 0 0.552 0 1 0.448 1 1 0 0.005 0 0.010 0 0.014v-0.001c0 2.088-1.447 3.913-3.48 4.389-1.979 0.463-4.018-0.471-4.98-2.246-0.030-0.041-0.059-0.087-0.083-0.135l-0.003-0.006c-0.519-1.048-1.679-1.597-2.818-1.33s-1.936 1.271-1.936 2.441c0 0.004 0 0.009 0 0.014 0 0.552-0.448 1-1 1s-1-0.448-1-1c0-0.005 0-0.010 0-0.015v0.001c0-2.088 1.447-3.913 3.48-4.389 0.254-0.059 0.51-0.095 0.764-0.109z"></path>
</svg>
