<!-- Generated by IcoMoon.io -->
<svg version="1.1" xmlns="http://www.w3.org/2000/svg" width="32" height="32" viewBox="0 0 32 32">
<title>emoji-angry-s</title>
<path d="M16 0c-8.82 0-16 7.18-16 16s7.18 16 16 16c8.82 0 16-7.18 16-16s-7.18-16-16-16zM9.465 8.855c0.014-0.001 0.031-0.001 0.048-0.001s0.034 0 0.050 0.001h-0.002c0.244 0.010 0.47 0.081 0.664 0.199l-0.006-0.003c0.974 0.564 1.95 1.127 2.926 1.689 0.001 0.001 0.001 0.001 0.002 0.002v0c0.874 0.395 1.471 1.258 1.473 2.262v0c0 0 0 0 0 0 0 1.369-1.11 2.478-2.478 2.478 0 0 0 0 0 0v0c0 0 0 0 0 0-1.369 0-2.478-1.11-2.478-2.478 0 0 0 0 0 0v0c0-0.346 0.071-0.675 0.2-0.973l-0.006 0.016c-0.342-0.198-0.686-0.396-1.027-0.594-0.426-0.243-0.708-0.693-0.708-1.21 0-0.751 0.597-1.363 1.343-1.387h0.002zM22.438 8.855c0.017-0.001 0.037-0.001 0.057-0.001 0.767 0 1.388 0.621 1.388 1.388 0 0.519-0.284 0.971-0.706 1.209l-0.007 0.004c-0.342 0.198-0.683 0.394-1.025 0.592 0.121 0.282 0.191 0.61 0.191 0.955 0 0.001 0 0.001 0 0.002v0c0 0 0 0 0 0 0 1.369-1.11 2.478-2.478 2.478 0 0 0 0 0 0v0c-1.368-0.001-2.477-1.11-2.477-2.478 0 0 0 0 0 0v0c0.001-1.003 0.598-1.866 1.455-2.255l0.016-0.006c0.001-0.001 0.001-0.001 0.002-0.002v0c0.976-0.562 1.952-1.126 2.926-1.689 0.188-0.114 0.414-0.186 0.656-0.195h0.003zM16 18.227c2.743 0 5.361 1.064 7.174 2.967v0.002c0.274 0.271 0.404 0.624 0.381 0.947s-0.18 0.607-0.398 0.814-0.509 0.347-0.834 0.354c-0.321 0.007-0.664-0.136-0.92-0.418-1.307-1.375-3.295-2.209-5.402-2.209-2.105 0-4.092 0.832-5.398 2.205-0.225 0.244-0.539 0.386-0.871 0.395 0 0-0.001 0-0.001 0s-0.001 0-0.001 0v0c-0.533 0.013-0.971-0.315-1.154-0.736s-0.125-0.966 0.246-1.348v-0.002c1.813-1.906 4.434-2.971 7.18-2.971z"></path>
</svg>
