<!-- Generated by IcoMoon.io -->
<svg version="1.1" xmlns="http://www.w3.org/2000/svg" width="32" height="32" viewBox="0 0 32 32">
<title>emoji-crying-r</title>
<path d="M16 0c-8.819 0-16 7.181-16 16s7.181 16 16 16c8.819 0 16-7.181 16-16s-7.181-16-16-16zM16 3c7.198 0 13 5.802 13 13s-5.802 13-13 13c-7.198 0-13-5.802-13-13s5.802-13 13-13zM7.42 7.627c-0.005 0-0.010 0-0.015 0-0.552 0-1 0.448-1 1s0.448 1 1 1c0.005 0 0.009 0 0.014 0h-0.001c1.189 0.001 2.378 0.001 3.564 0 0.004 0 0.008 0 0.013 0 0.552 0 1-0.448 1-1s-0.448-1-1-1c-0.005 0-0.011 0-0.016 0h0.001c-1.185 0.001-2.373 0.001-3.561 0zM21.020 7.627c-0.005 0-0.010 0-0.015 0-0.552 0-1 0.448-1 1s0.448 1 1 1c0.005 0 0.009 0 0.014 0h-0.001c1.189 0.001 2.378 0.001 3.564 0 0.004 0 0.009 0 0.013 0 0.552 0 1-0.448 1-1s-0.448-1-1-1c-0.005 0-0.011 0-0.016 0h0.001c-1.185 0.001-2.373 0.001-3.561 0zM9.184 11.258c-0.546 0.009-0.985 0.453-0.985 1 0 0.005 0 0.011 0 0.016v-0.001c0.001 0.757 0.001 1.515 0 2.273 0 0.005 0 0.010 0 0.016 0 0.552 0.448 1 1 1s1-0.448 1-1c0-0.004 0-0.008 0-0.013v0.001c0.001-0.76 0.001-1.52 0-2.279 0-0.004 0-0.009 0-0.014 0-0.552-0.448-1-1-1-0.005 0-0.011 0-0.016 0h0.001zM22.783 11.258c-0.545 0.010-0.983 0.454-0.983 1 0 0.005 0 0.011 0 0.017v-0.001c0.001 0.757 0.001 1.515 0 2.273 0 0.005 0 0.010 0 0.016 0 0.552 0.448 1 1 1s1-0.448 1-1c0-0.004 0-0.008 0-0.013v0.001c0.001-0.76 0.001-1.52 0-2.279 0-0.004 0-0.009 0-0.014 0-0.552-0.448-1-1-1-0.006 0-0.012 0-0.018 0h0.001zM9.184 17.131c-0.546 0.009-0.985 0.453-0.985 1 0 0.006 0 0.011 0 0.016v-0.001c0.001 0.993 0.001 1.986 0 2.98 0 0.005 0 0.010 0 0.016 0 0.552 0.448 1 1 1s1-0.448 1-1c0-0.004 0-0.008 0-0.013v0.001c0.001-0.996 0.001-1.992 0-2.986 0-0.004 0-0.009 0-0.014 0-0.552-0.448-1-1-1-0.005 0-0.011 0-0.016 0h0.001zM22.783 17.131c-0.545 0.010-0.983 0.454-0.983 1 0 0.006 0 0.011 0 0.017v-0.001c0.001 0.993 0.001 1.986 0 2.98 0 0.005 0 0.010 0 0.016 0 0.552 0.448 1 1 1s1-0.448 1-1c0-0.004 0-0.008 0-0.013v0.001c0.001-0.996 0.001-1.992 0-2.986 0-0.004 0-0.009 0-0.014 0-0.552-0.448-1-1-1-0.006 0-0.012 0-0.018 0h0.001zM16 22.656c-1.977 0-3.788 1.136-4.352 2.943-0.031 0.093-0.049 0.2-0.049 0.311 0 0.546 0.438 0.99 0.982 1h0.001c0.005 0 0.012 0 0.018 0 0.451 0 0.832-0.298 0.957-0.708l0.002-0.007c0.261-0.836 1.235-1.539 2.441-1.539s2.181 0.703 2.441 1.539c0.131 0.411 0.509 0.703 0.955 0.703 0.553 0 1-0.448 1-1 0-0.106-0.017-0.209-0.047-0.305l0.002 0.007c-0.563-1.808-2.375-2.943-4.352-2.943z"></path>
</svg>
