<!-- Generated by IcoMoon.io -->
<svg version="1.1" xmlns="http://www.w3.org/2000/svg" width="32" height="32" viewBox="0 0 32 32">
<title>emoji-angry-r</title>
<path d="M16 0c-8.82 0-16 7.18-16 16s7.18 16 16 16c8.82 0 16-7.18 16-16s-7.18-16-16-16zM16 2.93c7.236 0 13.070 5.834 13.070 13.070s-5.834 13.070-13.070 13.070c-7.236 0-13.070-5.834-13.070-13.070s5.834-13.070 13.070-13.070zM9.561 8.855c-0.016-0.001-0.034-0.001-0.053-0.001-0.767 0-1.388 0.621-1.388 1.388 0 0.517 0.283 0.968 0.702 1.207l0.007 0.004c0.342 0.198 0.685 0.396 1.027 0.594-0.122 0.283-0.193 0.611-0.193 0.957v0c0 0 0 0 0 0 0 1.369 1.11 2.478 2.478 2.478 0 0 0 0 0 0v0c0 0 0 0 0 0 1.369 0 2.478-1.11 2.478-2.478 0 0 0 0 0 0v0c-0.001-1.003-0.599-1.867-1.457-2.255l-0.016-0.006c-0.001-0.001-0.001-0.001-0.002-0.002v0c-0.976-0.562-1.952-1.126-2.926-1.689-0.188-0.114-0.414-0.186-0.656-0.195h-0.003zM22.438 8.855c-0.244 0.010-0.47 0.081-0.664 0.199l0.006-0.003c-0.974 0.564-1.95 1.127-2.926 1.689-0.001 0.001-0.001 0.001-0.002 0.002v0c-0.873 0.395-1.47 1.259-1.471 2.262v0c0 0 0 0 0 0 0 1.368 1.109 2.477 2.476 2.478v0c0 0 0 0 0 0 1.369 0 2.478-1.11 2.478-2.478 0 0 0 0 0 0v0c0-0.001 0-0.001 0-0.002 0-0.345-0.070-0.673-0.198-0.971l0.006 0.016c0.342-0.198 0.684-0.394 1.025-0.592 0.428-0.242 0.712-0.694 0.712-1.213 0-0.767-0.622-1.388-1.388-1.388-0.020 0-0.040 0-0.060 0.001h0.003zM16 18.227c-2.746 0-5.367 1.065-7.18 2.971 0 0 0 0.002 0 0.002-0.371 0.382-0.43 0.927-0.246 1.348s0.621 0.749 1.154 0.736c0 0 0.001 0 0.001 0s0.001 0 0.001 0v0c0.332-0.008 0.646-0.15 0.871-0.395 1.307-1.373 3.293-2.205 5.398-2.205 2.107 0 4.096 0.834 5.402 2.209 0.256 0.282 0.599 0.424 0.92 0.418 0.325-0.007 0.615-0.146 0.834-0.354s0.375-0.49 0.398-0.814c0.023-0.323-0.107-0.676-0.381-0.947 0 0 0-0.002 0-0.002-1.813-1.903-4.431-2.967-7.174-2.967z"></path>
</svg>
