<!-- Generated by IcoMoon.io -->
<svg version="1.1" xmlns="http://www.w3.org/2000/svg" width="32" height="32" viewBox="0 0 32 32">
<title>emoji-happy-r</title>
<path d="M16 0c-8.819 0-16 7.181-16 16s7.181 16 16 16c8.819 0 16-7.181 16-16s-7.181-16-16-16zM16 3c7.198 0 13 5.802 13 13s-5.802 13-13 13c-7.198 0-13-5.802-13-13s5.802-13 13-13zM10.4 9.145c-0.585 0-1.096 0.357-1.445 0.881s-0.555 1.224-0.555 1.994c0 0.77 0.206 1.472 0.555 1.996s0.861 0.879 1.445 0.879c0.585 0 1.096-0.355 1.445-0.879s0.555-1.226 0.555-1.996c0-0.77-0.206-1.47-0.555-1.994s-0.861-0.881-1.445-0.881zM21.6 9.145c-0.585 0-1.096 0.357-1.445 0.881s-0.555 1.224-0.555 1.994c0 0.77 0.206 1.472 0.555 1.996s0.861 0.879 1.445 0.879c0.585 0 1.096-0.355 1.445-0.879s0.555-1.226 0.555-1.996c0-0.77-0.205-1.47-0.555-1.994s-0.861-0.881-1.445-0.881zM6.85 17.154c-0.552 0-1 0.448-1 1v0c0 3.285 1.994 6.286 5.121 7.877s6.932 1.591 10.059 0c3.127-1.591 5.121-4.592 5.121-7.877 0-0.552-0.448-1-1-1h-18.301zM8 19.154h16c-0.347 2.086-1.693 3.981-3.879 5.094-2.535 1.29-5.707 1.29-8.242 0-2.186-1.113-3.532-3.007-3.879-5.094z"></path>
</svg>
