<!-- Generated by IcoMoon.io -->
<svg version="1.1" xmlns="http://www.w3.org/2000/svg" width="32" height="32" viewBox="0 0 32 32">
<title>emoji-shocked-r</title>
<path d="M16 0c-8.819 0-16 7.181-16 16s7.181 16 16 16c8.819 0 16-7.181 16-16s-7.181-16-16-16zM16 3c7.198 0 13 5.802 13 13s-5.802 13-13 13c-7.198 0-13-5.802-13-13s5.802-13 13-13zM10.4 9.145c-0.585 0-1.096 0.357-1.445 0.881s-0.555 1.224-0.555 1.994c0 0.77 0.206 1.472 0.555 1.996s0.861 0.879 1.445 0.879c0.585 0 1.096-0.355 1.445-0.879s0.555-1.226 0.555-1.996c0-0.77-0.206-1.47-0.555-1.994s-0.861-0.881-1.445-0.881zM21.6 9.145c-0.585 0-1.096 0.357-1.445 0.881s-0.555 1.224-0.555 1.994c0 0.77 0.206 1.472 0.555 1.996s0.861 0.879 1.445 0.879c0.585 0 1.096-0.355 1.445-0.879s0.555-1.226 0.555-1.996c0-0.77-0.205-1.47-0.555-1.994s-0.861-0.881-1.445-0.881zM16 17.252c0 0 0 0 0 0-2.292 0-4.15 1.858-4.15 4.15 0 0 0 0 0 0v0c0 0 0 0 0 0 0 2.292 1.858 4.15 4.15 4.15 0 0 0 0 0 0v0c0 0 0 0 0 0 2.292 0 4.15-1.858 4.15-4.15 0 0 0 0 0 0v0c0 0 0 0 0 0 0-2.292-1.858-4.15-4.15-4.15 0 0 0 0 0 0v0z"></path>
</svg>
