<!-- Generated by IcoMoon.io -->
<svg version="1.1" xmlns="http://www.w3.org/2000/svg" width="32" height="32" viewBox="0 0 32 32">
<title>emoji-kiss-wink-r</title>
<path d="M16 0c-8.819 0-16 7.181-16 16s7.181 16 16 16c8.819 0 16-7.181 16-16s-7.181-16-16-16zM16 3c7.198 0 13 5.802 13 13s-5.802 13-13 13c-7.198 0-13-5.802-13-13s5.802-13 13-13zM21.5 8.828c-1.896 0-3.346 1.622-3.865 3.674-0.022 0.078-0.034 0.166-0.034 0.258 0 0.552 0.448 1 1 1 0.013 0 0.025 0 0.038-0.001h-0.002c0.455-0.018 0.83-0.336 0.934-0.761l0.001-0.007c0.368-1.454 1.232-2.164 1.928-2.164s1.56 0.71 1.928 2.164c0.099 0.457 0.499 0.794 0.979 0.794 0.552 0 1-0.448 1-1 0-0.101-0.015-0.199-0.043-0.291l0.002 0.007c-0.519-2.052-1.969-3.674-3.865-3.674zM10.502 9.357c-1.075 0-1.949 0.875-1.949 1.949s0.875 1.951 1.949 1.951c1.075 0 1.951-0.877 1.951-1.951s-0.877-1.949-1.951-1.949zM14.709 15.918v0.002c-0.552 0.077-0.94 0.387-1.059 0.795-0.158 0.544 0.205 1.164 0.848 1.314 1.194 0.299 1.662 0.991 1.662 1.344 0 0.124-0.002 0.12 0 0.117s-0.052 0.044-0.199 0.141c-0.222 0.146-0.789 0.364-1.477 0.539-0.461 0.088-0.827 0.444-0.938 0.9-0.001 0.004-0.004 0.007-0.008 0.029-0.006 0.030-0.009 0.059-0.014 0.090s-0.014 0.060-0.016 0.088c0 0.004 0 0.012 0 0.016s0 0.009 0 0.015 0 0.010 0 0.015v-0.001 0.008c-0.002 0.077 0.003 0.153 0.016 0.229 0.082 0.477 0.45 0.859 0.922 0.967 0.004 0.001 0.004 0.008 0.008 0.008 1.175 0.303 1.646 0.98 1.646 1.328 0 0.124-0.002 0.123 0 0.119s-0.051 0.049-0.199 0.146c-0.234 0.154-0.808 0.376-1.529 0.555-0.363 0.085-0.642 0.31-0.789 0.584-0.148 0.277-0.174 0.586-0.104 0.871s0.233 0.555 0.494 0.73c0.261 0.175 0.618 0.238 0.982 0.139 0.816-0.202 1.588-0.425 2.266-0.871 0.71-0.467 1.285-1.298 1.285-2.273 0-0.941-0.642-1.591-1.293-2.191 0.033-0.019 0.029 0.001 0.066-0.023 0.711-0.467 1.277-1.298 1.277-2.273 0-1.846-1.572-3.21-3.248-3.447-0.217-0.031-0.418-0.034-0.602-0.008z"></path>
</svg>
