<!-- Generated by IcoMoon.io -->
<svg version="1.1" xmlns="http://www.w3.org/2000/svg" width="32" height="32" viewBox="0 0 32 32">
<title>emoji-evil-s</title>
<path d="M2.623 0c-0.010 0-0.021 0-0.032 0-0.573 0-1.071 0.321-1.323 0.793l-0.004 0.008c-0.318 0.604-0.577 1.238-0.777 1.887-0.79 2.554-0.483 5.295 0.582 7.721-0.673 1.789-1.064 3.673-1.068 5.588 0 0.001 0 0.001 0 0.002s0 0.001 0 0.002v0c0 8.819 7.181 16 16 16s16-7.181 16-16c0-0.001 0-0.001 0-0.002s0-0.001 0-0.002v0c-0.004-1.915-0.395-3.798-1.068-5.588 1.065-2.426 1.372-5.167 0.582-7.721-0.201-0.649-0.46-1.283-0.777-1.887-0.257-0.48-0.754-0.801-1.327-0.801-0.749 0-1.37 0.549-1.482 1.267l-0.001 0.008c-0.154 1.020-0.771 1.93-1.537 2.666-2.89-2.489-6.543-3.94-10.389-3.941-3.846 0.001-7.5 1.452-10.391 3.941-0.765-0.736-1.381-1.647-1.535-2.666-0.111-0.716-0.715-1.259-1.45-1.275h-0.002zM9.465 8.855c0.014-0.001 0.031-0.001 0.048-0.001s0.034 0 0.050 0.001h-0.002c0.244 0.010 0.47 0.081 0.664 0.199l-0.006-0.003c0.974 0.564 1.95 1.127 2.926 1.689 0.001 0.001 0.001 0.001 0.002 0.002v0c0.874 0.395 1.471 1.258 1.473 2.262v0c0 0 0 0 0 0 0 1.369-1.11 2.478-2.478 2.478 0 0 0 0 0 0v0c0 0 0 0 0 0-1.369 0-2.478-1.11-2.478-2.478 0 0 0 0 0 0v0c0-0.346 0.071-0.675 0.2-0.973l-0.006 0.016c-0.342-0.198-0.686-0.396-1.027-0.594-0.426-0.243-0.708-0.693-0.708-1.21 0-0.751 0.597-1.363 1.343-1.387h0.002zM22.438 8.855c0.017-0.001 0.037-0.001 0.057-0.001 0.767 0 1.388 0.621 1.388 1.388 0 0.519-0.284 0.971-0.706 1.209l-0.007 0.004c-0.342 0.198-0.683 0.394-1.025 0.592 0.121 0.282 0.191 0.61 0.191 0.955 0 0.001 0 0.001 0 0.002v0c0 0 0 0 0 0 0 1.369-1.11 2.478-2.478 2.478 0 0 0 0 0 0v0c-1.368-0.001-2.477-1.11-2.477-2.478 0 0 0 0 0 0v0c0.001-1.003 0.598-1.866 1.455-2.255l0.016-0.006c0.001-0.001 0.001-0.001 0.002-0.002v0c0.976-0.562 1.952-1.126 2.926-1.689 0.188-0.114 0.414-0.186 0.656-0.195h0.003zM8.814 20.070c0.012 0 0.025-0.001 0.039-0.001 0.373 0 0.699 0.204 0.871 0.508l0.003 0.005c1.296 2.244 3.686 3.625 6.277 3.625s4.982-1.381 6.277-3.625c0.176-0.301 0.498-0.5 0.866-0.5 0.552 0 1 0.448 1 1 0 0.184-0.050 0.357-0.137 0.505l0.003-0.005c-1.651 2.86-4.707 4.625-8.010 4.625s-6.358-1.765-8.010-4.625c-0.089-0.146-0.141-0.323-0.141-0.512 0-0.539 0.426-0.978 0.96-0.999h0.002z"></path>
</svg>
