<!-- Generated by IcoMoon.io -->
<svg version="1.1" xmlns="http://www.w3.org/2000/svg" width="32" height="32" viewBox="0 0 32 32">
<title>emoji-dizzy-l</title>
<path d="M16 0c-8.826 0-16 7.173-16 16s7.173 16 16 16c8.826 0 16-7.174 16-16s-7.174-16-16-16zM16 1.699c7.908 0 14.301 6.393 14.301 14.301s-6.393 14.301-14.301 14.301c-7.908 0-14.301-6.393-14.301-14.301s6.393-14.301 14.301-14.301zM7.945 8.32c0 0 0 0-0.001 0-0.469 0-0.85 0.381-0.85 0.85 0 0.24 0.099 0.456 0.259 0.611v0c0.598 0.598 1.197 1.195 1.795 1.793-0.598 0.599-1.197 1.196-1.795 1.795-0.168 0.156-0.273 0.378-0.273 0.624 0 0.469 0.381 0.85 0.85 0.85 0.247 0 0.469-0.105 0.624-0.273l0.001-0.001c0.598-0.599 1.197-1.196 1.795-1.795 0.598 0.599 1.197 1.196 1.795 1.795 0.154 0.154 0.367 0.249 0.602 0.249 0.469 0 0.85-0.381 0.85-0.85 0-0.235-0.095-0.447-0.248-0.601v0c-0.598-0.599-1.197-1.197-1.795-1.795 0.598-0.598 1.195-1.196 1.793-1.793 0.154-0.154 0.249-0.367 0.249-0.602 0-0.469-0.381-0.85-0.85-0.85-0.235 0-0.447 0.095-0.601 0.249v0c-0.598 0.598-1.197 1.197-1.795 1.795-0.598-0.598-1.197-1.197-1.795-1.795-0.155-0.159-0.37-0.258-0.609-0.258v0zM19.246 8.32c0 0 0 0-0.001 0-0.469 0-0.85 0.381-0.85 0.85 0 0.24 0.099 0.456 0.259 0.611v0c0.598 0.597 1.195 1.195 1.793 1.793-0.598 0.598-1.197 1.196-1.795 1.795-0.154 0.154-0.248 0.366-0.248 0.601 0 0.469 0.381 0.85 0.85 0.85 0.235 0 0.448-0.095 0.602-0.249v0c0.598-0.599 1.197-1.196 1.795-1.795 0.598 0.599 1.197 1.196 1.795 1.795 0.156 0.168 0.378 0.273 0.624 0.273 0.469 0 0.85-0.381 0.85-0.85 0-0.247-0.105-0.469-0.273-0.624l-0.001-0.001c-0.598-0.599-1.197-1.196-1.795-1.795 0.598-0.598 1.197-1.195 1.795-1.793 0.154-0.154 0.25-0.367 0.25-0.602 0-0.469-0.381-0.85-0.85-0.85-0.235 0-0.447 0.095-0.601 0.249v0c-0.598 0.598-1.197 1.197-1.795 1.795-0.598-0.598-1.197-1.197-1.795-1.795-0.155-0.159-0.37-0.258-0.609-0.258v0zM16 16.92c-2.767 0-5 2.324-5 5.137s2.233 5.137 5 5.137c2.767 0 5-2.324 5-5.137s-2.233-5.137-5-5.137zM16 18.619c1.817 0 3.301 1.515 3.301 3.438s-1.483 3.438-3.301 3.438c-1.817 0-3.301-1.515-3.301-3.438s1.483-3.438 3.301-3.438z"></path>
</svg>
