<!-- Generated by IcoMoon.io -->
<svg version="1.1" xmlns="http://www.w3.org/2000/svg" width="32" height="32" viewBox="0 0 32 32">
<title>emoji-sad-tear-r</title>
<path d="M16 0c-8.819 0-16 7.181-16 16s7.181 16 16 16c8.819 0 16-7.181 16-16s-7.181-16-16-16zM16 3c7.198 0 13 5.802 13 13s-5.802 13-13 13c-7.198 0-13-5.802-13-13s5.802-13 13-13zM10.4 10.945c-1.075 0-1.951 0.875-1.951 1.949s0.877 1.951 1.951 1.951c1.075 0 1.949-0.877 1.949-1.951s-0.875-1.949-1.949-1.949zM21.6 10.945c-1.075 0-1.949 0.875-1.949 1.949s0.875 1.951 1.949 1.951c1.075 0 1.951-0.877 1.951-1.951s-0.877-1.949-1.951-1.949zM10.402 17.238c-0.125 0-0.239 0.046-0.327 0.122l0.001-0.001c-0.025 0.016-0.059 0.010-0.082 0.029-1.222 1.036-2.395 2.402-2.969 4.002-0.366 1.020-0.414 2.188 0.135 3.23 0.63 1.198 1.886 1.959 3.24 1.959s2.612-0.761 3.242-1.959c0.542-1.030 0.497-2.181 0.145-3.189-0.003-0.011-0.004-0.022-0.008-0.033-0.001-0.006-0.002-0.010-0.003-0.013l0.001 0.003c-0.574-1.6-1.746-2.964-2.969-4-0.113-0.096-0.258-0.15-0.406-0.15zM16 18.070c-0.661 0-1.306 0.089-1.938 0.225 0.413 0.559 0.786 1.166 1.086 1.83 0.281-0.033 0.565-0.055 0.852-0.055 2.591 0 4.982 1.381 6.277 3.625 0.176 0.301 0.498 0.5 0.866 0.5 0.552 0 1-0.448 1-1 0-0.184-0.050-0.357-0.137-0.505l0.003 0.005c-1.651-2.86-4.707-4.625-8.010-4.625z"></path>
</svg>
