<!-- Generated by IcoMoon.io -->
<svg version="1.1" xmlns="http://www.w3.org/2000/svg" width="32" height="32" viewBox="0 0 32 32">
<title>emoji-meh-rolling-eyes-r</title>
<path d="M16 0c-8.819 0-16 7.181-16 16s7.181 16 16 16c8.819 0 16-7.181 16-16s-7.181-16-16-16zM16 3c7.198 0 13 5.802 13 13s-5.802 13-13 13c-7.198 0-13-5.802-13-13s5.802-13 13-13zM10.398 7.744c-2.832 0-5.148 2.318-5.148 5.15s2.316 5.15 5.148 5.15c2.832 0 5.15-2.318 5.15-5.15s-2.318-5.15-5.15-5.15zM21.6 7.744c-2.832 0-5.148 2.318-5.148 5.15s2.316 5.15 5.148 5.15c2.832 0 5.15-2.318 5.15-5.15s-2.318-5.15-5.15-5.15zM8.533 10.363c-0.049 0.17-0.084 0.346-0.084 0.531 0 1.075 0.877 1.951 1.951 1.951s1.949-0.877 1.949-1.951c0-0.185-0.034-0.361-0.082-0.531 0.776 0.572 1.281 1.485 1.281 2.531 0 1.751-1.399 3.15-3.15 3.15s-3.148-1.399-3.148-3.15c0-1.047 0.507-1.96 1.283-2.531zM19.734 10.363c-0.049 0.17-0.084 0.346-0.084 0.531 0 1.075 0.875 1.951 1.949 1.951s1.951-0.877 1.951-1.951c0-0.185-0.033-0.361-0.082-0.531 0.776 0.572 1.281 1.485 1.281 2.531 0 1.751-1.399 3.15-3.15 3.15s-3.148-1.399-3.148-3.15c0-1.047 0.507-1.96 1.283-2.531zM11.361 22.568c-0.004 0-0.009 0-0.014 0-0.552 0-1 0.448-1 1s0.448 1 1 1c0.005 0 0.010 0 0.015 0h-0.001c3.093-0.001 6.186-0.001 9.277 0 0.004 0 0.009 0 0.014 0 0.552 0 1-0.448 1-1s-0.448-1-1-1c-0.005 0-0.010 0-0.015 0h0.001c-3.091-0.001-6.184-0.001-9.277 0z"></path>
</svg>
