<!-- Generated by IcoMoon.io -->
<svg version="1.1" xmlns="http://www.w3.org/2000/svg" width="32" height="32" viewBox="0 0 32 32">
<title>emoji-baffled-s</title>
<path d="M16 0c-8.819 0-16 7.181-16 16s7.181 16 16 16c8.819 0 16-7.181 16-16s-7.181-16-16-16zM9.328 8.805c2.832 0 5.15 2.318 5.15 5.15s-2.318 5.15-5.15 5.15c-2.832 0-5.148-2.318-5.148-5.15s2.316-5.15 5.148-5.15zM22.672 8.998c2.832 0 5.148 2.316 5.148 5.148s-2.316 5.15-5.148 5.15c-2.832 0-5.15-2.318-5.15-5.15s2.318-5.148 5.15-5.148zM11.361 22.568c3.093-0.001 6.186-0.001 9.277 0 0.004 0 0.009 0 0.014 0 0.552 0 1 0.448 1 1s-0.448 1-1 1c-0.005 0-0.010 0-0.015 0h0.001c-3.091-0.001-6.184-0.001-9.277 0-0.004 0-0.009 0-0.014 0-0.552 0-1-0.448-1-1s0.448-1 1-1c0.005 0 0.010 0 0.015 0h-0.001z"></path>
<path d="M9.283 12.557c-0.828 0-1.5 0.672-1.5 1.5v0c0 0.828 0.672 1.5 1.5 1.5v0c0.828 0 1.5-0.672 1.5-1.5v0c0-0.828-0.672-1.5-1.5-1.5v0z"></path>
<path d="M22.666 12.748c-0.828 0-1.5 0.672-1.5 1.5v0c0 0.828 0.672 1.5 1.5 1.5v0c0.828 0 1.5-0.672 1.5-1.5v0c0-0.828-0.672-1.5-1.5-1.5v0z"></path>
</svg>
