<!-- Generated by IcoMoon.io -->
<svg version="1.1" xmlns="http://www.w3.org/2000/svg" width="32" height="32" viewBox="0 0 32 32">
<title>emoji-meh-l</title>
<path d="M16 0c-8.826 0-16 7.173-16 16s7.173 16 16 16c8.826 0 16-7.174 16-16s-7.174-16-16-16zM16 1.699c7.908 0 14.301 6.393 14.301 14.301s-6.393 14.301-14.301 14.301c-7.908 0-14.301-6.393-14.301-14.301s6.393-14.301 14.301-14.301zM10.4 11.145c-0.966 0-1.75 0.784-1.75 1.75v0c0 0.966 0.784 1.75 1.75 1.75v0c0.966 0 1.75-0.784 1.75-1.75v0c0-0.966-0.784-1.75-1.75-1.75v0zM21.6 11.145c-0.966 0-1.75 0.784-1.75 1.75v0c0 0.966 0.784 1.75 1.75 1.75v0c0.966 0 1.75-0.784 1.75-1.75v0c0-0.966-0.784-1.75-1.75-1.75v0z"></path>
</svg>
