<!-- Generated by IcoMoon.io -->
<svg version="1.1" xmlns="http://www.w3.org/2000/svg" width="32" height="32" viewBox="0 0 32 32">
<title>envelope-alt-s</title>
<path d="M2.256 5c5.717 4.945 12.656 10.949 13.744 11.891l2.66-2.301c0.001-0.001 0.003-0.003 0.004-0.004l0.010-0.008c0.007-0.007 0.014-0.013 0.021-0.020l11.049-9.559zM0.016 5.047c-0.010 0.049-0.016 0.105-0.016 0.162v0 20.654c4.014-3.472 8.028-6.945 12.041-10.416-2.916-2.522-7.286-6.301-12.025-10.4zM31.984 5.047l-12.025 10.4c4.013 3.471 8.027 6.944 12.041 10.416v-20.654c0-0.057-0.006-0.113-0.017-0.168l0.001 0.005zM13.186 16.439c-4.007 3.466-8.015 6.933-12.023 10.4h29.676c-4.008-3.467-8.017-6.935-12.023-10.4l-2.324 2.010c-0.131 0.113-0.302 0.182-0.49 0.182s-0.36-0.069-0.491-0.183l0.001 0.001c-0.111-0.096-1.893-1.637-2.324-2.010z"></path>
</svg>
