<!-- Generated by IcoMoon.io -->
<svg version="1.1" xmlns="http://www.w3.org/2000/svg" width="32" height="32" viewBox="0 0 32 32">
<title>envelope-alt-l</title>
<path d="M0.85 5c-0.469 0-0.849 0.38-0.85 0.85v20.779c0 0 0 0.001 0 0.002 0 0.469 0.38 0.85 0.85 0.85h30.301c0.060 0 0.118-0.007 0.174-0.019l-0.006 0.001c0.062-0.012 0.116-0.029 0.168-0.051l-0.006 0.002c0.308-0.132 0.52-0.433 0.52-0.783 0-0.001 0-0.001 0-0.002v0-20.779c0-0.469-0.38-0.849-0.85-0.85v0zM3.131 6.701h25.738l-10.268 8.883c-0.007 0.006-0.013 0.011-0.018 0.016l0.001-0.001-2.584 2.234c-0.614-0.531-7.869-6.808-12.869-11.133zM1.699 7.711c3.814 3.299 7.159 6.193 9.879 8.547l-9.879 8.547zM30.301 7.711v17.061l-9.861-8.529zM19.141 17.367l9.727 8.412h-25.699l9.709-8.398c0.1 0.087 0.425 0.368 0.508 0.439l2.059 1.783c0.148 0.129 0.343 0.208 0.557 0.208s0.408-0.079 0.558-0.209l-0.001 0.001z"></path>
</svg>
