<!-- Generated by IcoMoon.io -->
<svg version="1.1" xmlns="http://www.w3.org/2000/svg" width="32" height="32" viewBox="0 0 32 32">
<title>eye-r</title>
<path d="M16 5.5c-6.926 0-13.108 3.72-15.586 9.438-0.239 0.25-0.392 0.584-0.412 0.953v0.004c-0.001 0.024-0.002 0.052-0.002 0.081 0 0.009 0 0.018 0 0.026v-0.001c0 0.003 0 0.007 0 0.010 0 0.402 0.158 0.766 0.415 1.036l-0.001-0.001c2.478 5.718 8.661 9.437 15.586 9.437s13.108-3.72 15.586-9.438c0.238-0.25 0.392-0.583 0.412-0.951v-0.004c0.001-0.025 0.002-0.053 0.002-0.082 0-0.010 0-0.019 0-0.029v0.001c0-0.046-0.002-0.092-0.006-0.137v0.006c-0.030-0.356-0.18-0.672-0.409-0.913l0.001 0.001c-2.478-5.718-8.661-9.437-15.586-9.437zM16 8.5c5.803 0 10.793 3.113 12.771 7.491-1.978 4.378-6.968 7.491-12.771 7.491s-10.793-3.113-12.771-7.491c1.978-4.378 6.968-7.491 12.771-7.491zM16 8.991c-1.181 0.001-2.293 0.294-3.269 0.811l0.038-0.018c1.159 0.585 1.941 1.766 1.944 3.129v0c0 1.933-1.567 3.5-3.5 3.5v0c-0.835-0.001-1.601-0.294-2.202-0.783l0.006 0.005c-0.008 0.099-0.014 0.222-0.017 0.347v0.009c0 3.866 3.134 7.001 7.001 7.001v0c3.866 0 7.001-3.134 7.001-7.001v0c0-3.866-3.134-7.001-7.001-7.001v0z"></path>
</svg>
