<!-- Generated by IcoMoon.io -->
<svg version="1.1" xmlns="http://www.w3.org/2000/svg" width="27" height="32" viewBox="0 0 27 32">
<title>file-empty-r</title>
<path d="M5.042 0c-2.768 0-5.042 2.275-5.042 5.042v21.915c0 2.768 2.275 5.042 5.042 5.042h17.242c2.768 0 5.042-2.275 5.042-5.042v-18.19c0-0.276-0.075-0.535-0.205-0.758l0.004 0.007c-0.029-0.050-0.118-0.362-0.426-0.844-0.829-1.297-1.797-2.504-2.887-3.594s-2.301-2.060-3.598-2.889c-0.515-0.329-0.874-0.434-0.979-0.494-0.213-0.123-0.468-0.195-0.741-0.195-0.001 0-0.001 0-0.002 0v0zM5.042 3.002h10.282c-0.025 3.269 0.002 7.29 0.002 7.29 0.007 0.824 0.676 1.489 1.501 1.489h7.497v15.176c0 1.157-0.884 2.040-2.040 2.040h-17.242c-1.157 0-2.040-0.884-2.040-2.040v-21.915c0-1.157 0.884-2.040 2.040-2.040zM18.329 3.088c0.112 0.054 0.251 0.119 0.27 0.131 1.117 0.714 2.158 1.548 3.092 2.482 0.932 0.932 1.763 1.966 2.474 3.078h-5.836c-0.007-1.1-0.016-3.348 0-5.691z"></path>
</svg>
