<!-- Generated by IcoMoon.io -->
<svg version="1.1" xmlns="http://www.w3.org/2000/svg" width="32" height="32" viewBox="0 0 32 32">
<title>files-empty-l</title>
<path d="M6.134 0c-2.188 0-3.971 1.784-3.971 3.971v21.37c0 0.008 0 0.016 0 0.025 0 0.406 0.329 0.735 0.735 0.735s0.735-0.329 0.735-0.735c0-0.009 0-0.018 0-0.026v0.001-21.37c0-1.398 1.103-2.502 2.502-2.502h13.605c0.008 0 0.016 0 0.025 0 0.406 0 0.735-0.329 0.735-0.735s-0.329-0.735-0.735-0.735c-0.009 0-0.018 0-0.026 0h0.001zM21.877 4.325c-0.041 0-0.081 0.004-0.119 0.011l0.004-0.001h-11.341c-2.167 0-3.934 1.769-3.934 3.936v19.796c0 2.167 1.767 3.934 3.934 3.934h15.576c2.167 0 3.934-1.767 3.934-3.934v-16.431c0-0.136-0.037-0.263-0.102-0.372l0.002 0.003c-0.075-0.13-0.152-0.4-0.368-0.738-0.725-1.134-1.573-2.191-2.525-3.144s-2.009-1.799-3.144-2.524c-0.371-0.237-0.684-0.332-0.858-0.431-0.105-0.061-0.23-0.096-0.364-0.096 0 0-0.001 0-0.001 0h-0.573c-0.037-0.006-0.079-0.010-0.122-0.010v0zM10.421 5.806h10.723c-0.020 2.908 0.002 6.387 0.002 6.387 0.003 0.404 0.331 0.729 0.735 0.73h6.581v15.144c0 1.378-1.086 2.465-2.465 2.465h-15.576c-1.378 0-2.465-1.086-2.465-2.465v-19.796c0-1.378 1.086-2.465 2.465-2.465zM22.615 5.909c0.147 0.069 0.315 0.145 0.387 0.191 1.046 0.668 2.021 1.45 2.897 2.326s1.656 1.85 2.324 2.895c0.013 0.021 0.045 0.094 0.064 0.132h-5.672c-0.004-0.616-0.014-3.179 0-5.544z"></path>
</svg>
