<!-- Generated by IcoMoon.io -->
<svg version="1.1" xmlns="http://www.w3.org/2000/svg" width="27" height="32" viewBox="0 0 27 32">
<title>file-empty-s</title>
<path d="M5.042 0c-2.768 0-5.042 2.275-5.042 5.042v21.915c0 2.768 2.275 5.042 5.042 5.042h17.242c2.768 0 5.042-2.275 5.042-5.042v-16.026h-9.501c-0.689-0.001-1.247-0.559-1.249-1.247v0c0 0-0.014-5.526-0.006-9.684zM19.077 0.119c-0.003 3.248-0.004 7.209 0 8.31h8.211c-0.037-0.156-0.092-0.294-0.166-0.419l0.004 0.007c-0.029-0.050-0.118-0.362-0.426-0.844-0.829-1.297-1.796-2.504-2.887-3.594s-2.301-2.060-3.598-2.889c-0.515-0.329-0.874-0.434-0.979-0.494-0.043-0.024-0.095-0.050-0.148-0.073l-0.010-0.004z"></path>
</svg>
