<!-- Generated by IcoMoon.io -->
<svg version="1.1" xmlns="http://www.w3.org/2000/svg" width="32" height="32" viewBox="0 0 32 32">
<title>film-r</title>
<path d="M0.838 3c-0.464 0.007-0.838 0.385-0.838 0.85 0 0.004 0 0.008 0 0.012v-0.001 24.249c0 0.008 0 0.018 0 0.028 0 0.469 0.381 0.85 0.85 0.85s0.85-0.381 0.85-0.85c0-0.010 0-0.020 0-0.030v0.001-2.238h3.801v1.748c0 0.69 0.56 1.25 1.25 1.25h18.499c0.69 0 1.25-0.56 1.25-1.25v0-1.748h3.801v2.238c0 0.008 0 0.018 0 0.028 0 0.469 0.381 0.85 0.85 0.85s0.85-0.381 0.85-0.85c0-0.010 0-0.020 0-0.030v0.001-24.249c0-0.003 0-0.007 0-0.011 0-0.469-0.381-0.85-0.85-0.85-0.005 0-0.009 0-0.014 0h0.001c-0.463 0.008-0.836 0.385-0.836 0.85 0 0.004 0 0.008 0 0.012v-0.001 2.31h-3.801v-1.82c0-0.69-0.56-1.25-1.25-1.25h-18.499c-0.69 0-1.25 0.56-1.25 1.25v0 1.82h-3.801v-2.31c0-0.003 0-0.007 0-0.011 0-0.469-0.381-0.85-0.85-0.85-0.004 0-0.008 0-0.012 0h0.001zM8 5.602h16v20.769h-16zM1.7 7.873h3.801v4.299h-3.801zM26.5 7.873h3.801v4.299h-3.801zM13.359 10.523v10.937l7.291-5.469zM1.7 13.873h3.801v4.299h-3.801zM26.5 13.873h3.801v4.299h-3.801zM1.7 19.873h3.801v4.299h-3.801zM26.5 19.873h3.801v4.299h-3.801z"></path>
</svg>
