<!-- Generated by IcoMoon.io -->
<svg version="1.1" xmlns="http://www.w3.org/2000/svg" width="32" height="32" viewBox="0 0 32 32">
<title>film-l</title>
<path d="M0.838 3c-0.464 0.007-0.838 0.385-0.838 0.85 0 0.004 0 0.008 0 0.012v-0.001 24.249c0 0.008 0 0.018 0 0.028 0 0.469 0.381 0.85 0.85 0.85s0.85-0.381 0.85-0.85c0-0.010 0-0.020 0-0.030v0.001-2.238h3.801v2.25c0 0.469 0.381 0.849 0.85 0.85h19.3c0.469 0 0.849-0.381 0.85-0.85v-2.25h3.801v2.238c0 0.008 0 0.018 0 0.028 0 0.469 0.381 0.85 0.85 0.85s0.85-0.381 0.85-0.85c0-0.010 0-0.020 0-0.030v0.001-24.249c0-0.003 0-0.007 0-0.011 0-0.469-0.381-0.85-0.85-0.85-0.005 0-0.009 0-0.014 0h0.001c-0.463 0.008-0.836 0.385-0.836 0.85 0 0.004 0 0.008 0 0.012v-0.001 2.31h-3.801v-2.322c0-0.469-0.381-0.849-0.85-0.85h-19.3c-0.469 0-0.849 0.381-0.85 0.85v2.322h-3.801v-2.31c0-0.003 0-0.007 0-0.011 0-0.469-0.381-0.85-0.85-0.85-0.004 0-0.008 0-0.012 0h0.001zM7.201 4.699h17.597v22.574h-17.597zM1.7 7.873h3.801v4.299h-3.801zM26.5 7.873h3.801v4.299h-3.801zM13.348 9.662c-0.102 0.002-0.199 0.022-0.289 0.057l0.006-0.002c-0.026 0.009-0.046 0.017-0.066 0.026l0.005-0.002c-0.019 0.009-0.032 0.016-0.045 0.024l0.004-0.002c-0.016 0.008-0.028 0.015-0.039 0.022l0.004-0.002c-0.010 0.005-0.015 0.007-0.020 0.010l0.005-0.002c-0.018 0.011-0.032 0.021-0.045 0.031l0.002-0.002c-0.025 0.017-0.047 0.034-0.068 0.052l0.001-0.001c-0.185 0.157-0.302 0.39-0.302 0.65 0 0.044 0.003 0.088 0.010 0.13l-0.001-0.005v10.816c0 0.469 0.381 0.849 0.85 0.849 0.192 0 0.369-0.064 0.512-0.171l-0.002 0.002 7.291-5.469c0.207-0.157 0.34-0.403 0.34-0.68s-0.132-0.523-0.337-0.678l-0.002-0.002-7.191-5.394c-0.154-0.158-0.37-0.256-0.608-0.256-0.005 0-0.009 0-0.014 0h0.001zM14.209 12.223l5.025 3.769-5.025 3.769zM1.7 13.873h3.801v4.299h-3.801zM26.5 13.873h3.801v4.299h-3.801zM1.7 19.873h3.801v4.299h-3.801zM26.5 19.873h3.801v4.299h-3.801z"></path>
</svg>
