<!-- Generated by IcoMoon.io -->
<svg version="1.1" xmlns="http://www.w3.org/2000/svg" width="32" height="32" viewBox="0 0 32 32">
<title>filter-r</title>
<path d="M16 0c-4.179 0-7.961 0.518-10.803 1.406-1.421 0.444-2.61 0.974-3.531 1.654s-1.666 1.622-1.666 2.799v3.283l11.063 11.063v8.701c0 1.185 0.877 1.975 1.771 2.422s1.979 0.672 3.166 0.672c1.187 0 2.271-0.225 3.166-0.672s1.771-1.237 1.771-2.422v-8.701l11.063-11.063v-3.283c0-1.177-0.745-2.118-1.666-2.799s-2.11-1.21-3.531-1.654c-2.842-0.888-6.624-1.406-10.803-1.406zM29.482 5.775c0.010 0.034 0.018 0.065 0.018 0.084v2.248l-11.063 11.063v9.666c-0.008-0.016-0.067 0.095-0.389 0.256-0.44 0.22-1.199 0.408-2.049 0.408s-1.609-0.188-2.049-0.408c-0.322-0.161-0.38-0.271-0.389-0.256v-9.666l-11.063-11.063v-2.248c0-0.019 0.008-0.049 0.018-0.082 0.125 0.090 0.248 0.18 0.432 0.285 0.748 0.426 1.799 0.83 3.039 1.17 2.749 0.753 6.304 1.168 10.012 1.168s7.264-0.416 10.012-1.168c1.24-0.339 2.291-0.743 3.039-1.17 0.184-0.105 0.306-0.197 0.432-0.287z"></path>
</svg>
