<!-- Generated by IcoMoon.io -->
<svg version="1.1" xmlns="http://www.w3.org/2000/svg" width="32" height="32" viewBox="0 0 32 32">
<title>firefox</title>
<path d="M14.348 31.979c-0.133-0.023-0.654-0.112-1.158-0.197-4.64-0.781-8.966-4.046-11.148-8.412-2.766-5.534-1.909-12.241 2.108-16.486 0.734-0.775 1.918-1.77 2.107-1.77 0.045 0 0.082 0.43 0.082 0.956 0 1.072 0.206 2.327 0.441 2.685l0.155 0.237 0.836-0.81c0.46-0.445 1.053-0.964 1.318-1.153 0.591-0.421 1.396-0.89 1.442-0.841 0.019 0.020-0.012 0.428-0.067 0.908-0.082 0.703-0.072 1.045 0.049 1.764l0.15 0.893 0.891 0.841c1.16 1.095 1.468 1.309 3.083 2.137 1.548 0.794 1.52 0.727 0.653 1.572-0.647 0.63-0.83 0.706-2.024 0.837-1.606 0.177-2.714 0.63-3.527 1.443-0.789 0.789-0.918 1.231-0.651 2.233 0.287 1.081 0.795 1.918 1.731 2.855 1.452 1.453 2.952 2.063 5.074 2.063 1.715 0 3.080-0.427 4.238-1.326 2.202-1.71 3.044-4.889 2.023-7.644-0.407-1.098-1.338-2.265-2.342-2.934-0.417-0.278-0.399-0.286 0.52-0.252 0.5 0.019 1.735 0.408 2.195 0.692 0.433 0.267 0.402 0.084-0.109-0.63-1.354-1.896-3.949-3.245-6.244-3.245h-0.595l0.066-0.507c0.314-2.413 1.579-4.925 3.282-6.518 0.642-0.601 1.732-1.371 1.94-1.371 0.070 0 0.158 0.098 0.195 0.217 0.102 0.326 1.091 1.871 1.751 2.735 0.32 0.42 1.209 1.482 1.975 2.362 2.161 2.481 2.804 3.377 3.67 5.107 0.417 0.833 0.556 1.041 0.557 0.836 0.004-0.574-0.732-2.992-1.174-3.861-0.104-0.204-0.16-0.4-0.125-0.434s0.418 0.309 0.851 0.764c1.46 1.536 2.331 3.413 2.828 6.097 0.236 1.273 0.231 4.224-0.008 5.475-1.061 5.543-5.106 10.18-10.428 11.954-1.606 0.535-2.627 0.699-4.583 0.736-0.982 0.018-1.894 0.014-2.026-0.009z"></path>
</svg>
