<!-- Generated by IcoMoon.io -->
<svg version="1.1" xmlns="http://www.w3.org/2000/svg" width="28" height="32" viewBox="0 0 28 32">
<title>fire-l</title>
<path d="M11.667 0c-0.001 0-0.002 0-0.003 0-0.469 0-0.85 0.381-0.85 0.85 0 0.045 0.003 0.089 0.010 0.131l-0.001-0.005c0.554 3.705-1.695 7.946-4.322 11.512-0.172-1.029-0.448-2.054-1.082-3.207-0.147-0.265-0.426-0.442-0.746-0.442-0.45 0-0.819 0.35-0.848 0.793v0.003c-0.099 1.526-0.749 2.986-1.518 4.537s-1.653 3.183-2.043 5.070c-0.512 2.478-0.316 4.777 0.902 6.865 1.199 2.055 3.336 3.871 6.535 5.693 0.036 0.031 0.076 0.059 0.119 0.084l0.004 0.002c0.003 0.002 0.005 0.002 0.008 0.004 0.12 0.069 0.264 0.109 0.417 0.109 0.139 0 0.269-0.033 0.385-0.092l-0.005 0.002h0.002c0.279-0.143 0.467-0.429 0.467-0.759 0-0.138-0.033-0.268-0.091-0.383l0.002 0.005c-0.952-1.985-1.139-3.441-0.957-4.662 0.182-1.223 0.755-2.264 1.504-3.357 0 0 0-0.001 0-0.001s0-0.001 0-0.001v0c0.66-0.965 0.981-1.814 1.326-2.648 0.052 0.494 0.208 0.865 0.080 1.516-0.010 0.048-0.015 0.103-0.015 0.16 0 0.469 0.381 0.85 0.85 0.85 0.25 0 0.474-0.108 0.629-0.279l0.001-0.001c1.312-1.461 2.054-3.29 2.439-4.969 0.189-0.823 0.067-1.358 0.102-2.059 3.981 3.81 5.644 10.416 3.064 15.439-0.059 0.113-0.094 0.247-0.094 0.389 0 0.469 0.381 0.85 0.85 0.85 0.154 0 0.298-0.041 0.422-0.112l-0.004 0.002c4.205-2.379 6.662-5.116 7.861-7.939s1.119-5.685 0.436-8.226c-0.684-2.541-1.959-4.784-3.199-6.506s-2.383-2.884-3.088-3.398c-0.139-0.102-0.313-0.163-0.501-0.163-0.469 0-0.85 0.381-0.85 0.85 0 0.128 0.029 0.25 0.080 0.359l-0.002-0.005c0.289 0.633 0.484 1.577 0.436 2.441-0.009 0.155-0.123 0.221-0.146 0.367-1.287-3.52-3.070-5.899-4.684-7.349-1.924-1.73-3.631-2.281-3.631-2.281-0.075-0.025-0.162-0.039-0.252-0.039v0zM12.45 2.176c0.526 0.295 1.184 0.707 1.963 1.408 1.698 1.527 3.713 4.15 4.891 8.617 0.099 0.367 0.43 0.633 0.822 0.633 0.217 0 0.416-0.082 0.566-0.216l-0.001 0.001c0.946-0.842 1.321-2.056 1.387-3.221 0.003-0.060-0.031-0.107-0.029-0.166 0.353 0.41 0.505 0.46 0.879 0.979 1.152 1.6 2.327 3.686 2.937 5.955s0.669 4.698-0.359 7.119c-0.786 1.851-2.531 3.696-4.935 5.478 1.516-5.904-0.915-12.654-5.836-16.093-0.136-0.096-0.304-0.153-0.487-0.153-0.469 0-0.85 0.381-0.85 0.85 0 0.065 0.007 0.129 0.021 0.19l-0.001-0.006c0.128 0.575 0.133 1.977-0.205 3.449-0.15 0.655-0.39 1.326-0.674 1.977-0.316-1.313-0.869-2.166-0.869-2.166-0.157-0.203-0.401-0.333-0.675-0.333-0.417 0-0.764 0.301-0.836 0.697l-0.001 0.005c0 0-0.411 2.288-2.002 4.613-0.803 1.174-1.545 2.47-1.783 4.068-0.141 0.946-0.018 2.016 0.26 3.16-1.837-1.271-3.269-2.52-3.998-3.769-0.993-1.703-1.159-3.461-0.703-5.666 0.324-1.571 1.116-3.075 1.9-4.658 0.359-0.725 0.705-1.478 1-2.256 0.11 0.635 0.174 1.275 0.223 2.098 0.026 0.448 0.396 0.802 0.849 0.802 0.265 0 0.502-0.121 0.658-0.312l0.001-0.002c2.932-3.592 5.916-8.326 5.889-13.082z"></path>
</svg>
