<!-- Generated by IcoMoon.io -->
<svg version="1.1" xmlns="http://www.w3.org/2000/svg" width="32" height="32" viewBox="0 0 32 32">
<title>flag-l</title>
<path d="M0 0v32h2.301v-32zM12.145 0.016c-1.403 0.068-2.798 0.349-4.115 0.82-0.907 0.324-1.782 0.733-2.611 1.223l-0.418 0.246v16.57l1.281-0.756c0.736-0.434 1.515-0.8 2.32-1.088 3.091-1.105 6.671-0.988 9.484 0.582 0.638 0.356 1.289 0.819 2.045 1.23 1.787 0.974 3.842 1.425 5.873 1.289s4.007-0.857 5.648-2.061l0.348-0.254v-16.705l-1.354 0.992c-1.376 1.009-3.053 1.622-4.756 1.736s-3.449-0.269-4.947-1.086c-0.637-0.347-1.283-0.808-2.029-1.225-1.656-0.924-3.499-1.412-5.367-1.512-0.467-0.025-0.935-0.027-1.402-0.004zM12.219 1.719c0.41-0.020 0.82-0.018 1.229 0.004 1.633 0.087 3.232 0.508 4.639 1.293 0.638 0.356 1.289 0.82 2.045 1.232 1.787 0.974 3.842 1.425 5.873 1.289 1.519-0.102 2.956-0.627 4.297-1.34v12.687c-1.312 0.875-2.838 1.447-4.41 1.553-1.703 0.114-3.449-0.269-4.947-1.086-0.637-0.347-1.283-0.806-2.029-1.223-3.312-1.848-7.371-1.953-10.885-0.697-0.462 0.165-0.886 0.414-1.33 0.623v-12.727c0.616-0.335 1.242-0.657 1.902-0.893 1.159-0.414 2.387-0.658 3.617-0.717z"></path>
</svg>
