<!-- Generated by IcoMoon.io -->
<svg version="1.1" xmlns="http://www.w3.org/2000/svg" width="32" height="32" viewBox="0 0 32 32">
<title>flag-r</title>
<path d="M0 0v32h3v-32h-3zM12.439 0.018c-1.401 0.069-2.791 0.348-4.105 0.818-0.901 0.322-1.771 0.728-2.596 1.215l-0.738 0.436v17.33l2.262-1.334c0.66-0.39 1.36-0.718 2.082-0.977 2.76-0.987 5.96-0.872 8.426 0.504 0.561 0.313 1.18 0.755 1.945 1.172 1.813 0.988 3.889 1.443 5.949 1.305s4.057-0.866 5.723-2.088l0.613-0.449v-17.566l-2.387 1.752c-1.197 0.878-2.667 1.414-4.148 1.514s-3.011-0.237-4.314-0.947c-0.555-0.303-1.167-0.738-1.92-1.158-1.672-0.933-3.521-1.423-5.389-1.523-0.467-0.025-0.935-0.025-1.402-0.002zM12.572 3.023c0.366-0.017 0.73-0.017 1.094 0.002 1.453 0.077 2.871 0.449 4.104 1.137 0.561 0.313 1.18 0.755 1.945 1.172 1.813 0.988 3.889 1.445 5.949 1.307 1.154-0.077 2.269-0.38 3.336-0.811v10.477c-1.077 0.65-2.284 1.104-3.535 1.188-1.481 0.099-3.011-0.237-4.314-0.947-0.555-0.303-1.167-0.736-1.92-1.156-3.345-1.867-7.391-1.962-10.896-0.709-0.116 0.041-0.219 0.112-0.334 0.156v-10.549c0.442-0.222 0.878-0.462 1.344-0.629 1.035-0.37 2.132-0.585 3.229-0.637z"></path>
</svg>
