<!-- Generated by IcoMoon.io -->
<svg version="1.1" xmlns="http://www.w3.org/2000/svg" width="32" height="32" viewBox="0 0 32 32">
<title>flag-s</title>
<path d="M0 0v32h3.5v-32zM12.131 0.016c-1.379 0.067-2.752 0.341-4.049 0.805-0.896 0.32-1.762 0.725-2.582 1.209v15.289c0.82-0.484 1.686-0.89 2.582-1.211 3.459-1.237 7.46-1.12 10.668 0.67 0.725 0.405 1.404 0.888 2.133 1.285 1.721 0.938 3.712 1.375 5.668 1.244s3.869-0.829 5.449-1.988v-15.289c-1.58 1.159-3.494 1.857-5.449 1.988s-3.947-0.306-5.668-1.244c-0.729-0.397-1.408-0.88-2.133-1.285-2.005-1.119-4.32-1.583-6.619-1.473z"></path>
</svg>
