<!-- Generated by IcoMoon.io -->
<svg version="1.1" xmlns="http://www.w3.org/2000/svg" width="32" height="32" viewBox="0 0 32 32">
<title>folder-download-l</title>
<path d="M0 3v26.496h32v-22.826h-13.617l-3.67-3.67h-14.713zM1.699 4.699h12.311l3.668 3.67h12.623v19.428h-28.602v-23.098zM13.656 9.678c-0.234 0.004-0.444 0.102-0.595 0.258v0c-0.005 0.003-0.007 0.005-0.009 0.006l0.003-0.002c-0.007 0.008-0.015 0.017-0.022 0.026l-0.001 0.001c-0.010 0.011-0.020 0.022-0.030 0.034l-0.001 0.001c0.001-0.001-0.001 0.001-0.002 0.003l-0.002 0.003c-0.117 0.145-0.188 0.331-0.188 0.533 0 0.051 0.005 0.101 0.013 0.149l-0.001-0.005c0.001 2.235 0 5.563 0 6.461h-4.471c0 0 0 0 0 0-0.47 0-0.85 0.381-0.85 0.85 0 0.235 0.095 0.447 0.249 0.601l7.65 7.65c0.154 0.154 0.367 0.249 0.602 0.249s0.448-0.095 0.602-0.249v0l7.65-7.65c0.154-0.154 0.249-0.366 0.249-0.601 0-0.47-0.381-0.85-0.85-0.85 0 0 0 0 0 0h-4.471v-6.607c0-0.469-0.381-0.849-0.85-0.85h-4.518c-0.043-0.008-0.091-0.012-0.141-0.012-0.005 0-0.010 0-0.016 0h0.001zM14.52 11.389h2.961v6.607c0 0.469 0.381 0.849 0.85 0.85h3.268l-5.598 5.598-5.598-5.598h3.268c0.469 0 0.849-0.381 0.85-0.85v0c0 0 0-3.989 0-6.607z"></path>
</svg>
