<!-- Generated by IcoMoon.io -->
<svg version="1.1" xmlns="http://www.w3.org/2000/svg" width="32" height="32" viewBox="0 0 32 32">
<title>folder-open-l</title>
<path d="M0.85 3.5c-0.469 0-0.849 0.38-0.85 0.85v0c0 0 0.001 14.614 0 22.821 0 0.002 0 0.004 0 0.006s0 0.004 0 0.006v0c0.001 0.022 0.002 0.042 0.004 0.062v-0.004c0.001 0.017 0.003 0.031 0.004 0.045v-0.004c0 0.001 0 0.003 0 0.005s0 0.003 0 0.005v0c0.057 0.419 0.412 0.739 0.843 0.739 0.047 0 0.092-0.004 0.137-0.011l-0.005 0.001h24.352c0.039 0.006 0.084 0.010 0.129 0.010 0.152 0 0.295-0.040 0.418-0.11l-0.004 0.002c0.026-0.014 0.047-0.027 0.067-0.041l-0.003 0.002c0.007-0.004 0.010-0.006 0.013-0.008l-0.004 0.002c0.013-0.009 0.023-0.017 0.033-0.025l-0.002 0.001c0.025-0.018 0.046-0.036 0.067-0.055l-0.001 0.001c0.133-0.12 0.228-0.28 0.265-0.461l0.001-0.005c-0.001 0.004 0 0.002 0 0l0.002-0.006c1.912-5.096 5.629-15.008 5.629-15.008 0.034-0.089 0.054-0.191 0.054-0.298 0-0.469-0.38-0.849-0.849-0.85h-4.832v-3.033c0-0.469-0.38-0.849-0.85-0.85h-11.957l-3.539-3.539c-0.154-0.153-0.366-0.248-0.6-0.248-0.001 0-0.001 0-0.002 0v0zM1.699 5.199h7.32l3.539 3.539c0.154 0.153 0.366 0.248 0.6 0.248 0.001 0 0.001 0 0.002 0h11.459v2.184h-18.088c-0.362 0-0.67 0.226-0.793 0.545l-0.002 0.006-4.037 10.766c0-7.539 0-16.485 0-17.287zM7.121 12.869h22.803c-0.481 1.282-3.245 8.659-5.043 13.451h-22.805z"></path>
</svg>
