<!-- Generated by IcoMoon.io -->
<svg version="1.1" xmlns="http://www.w3.org/2000/svg" width="32" height="32" viewBox="0 0 32 32">
<title>futbol-l</title>
<path d="M16.008 0c-8.826 0-16 7.173-16 16 0 0.208 0.023 0.411 0.031 0.617-0.025 0.076-0.039 0.163-0.039 0.254 0 0.121 0.025 0.235 0.070 0.339l-0.002-0.005c0.619 8.263 7.52 14.795 15.939 14.795s15.321-6.533 15.939-14.797c0.043-0.098 0.068-0.212 0.068-0.332 0-0.090-0.014-0.177-0.040-0.258l0.002 0.006c0.008-0.207 0.031-0.41 0.031-0.619 0-8.826-7.174-16-16-16zM16.008 1.699c1.355 0 2.661 0.202 3.902 0.553-1.769 1.813-3.16 3.222-3.73 3.777-0.081 0.079-0.082 0.077-0.146 0.139l-3.92-3.92c1.239-0.35 2.542-0.549 3.895-0.549zM10.332 2.873l5.508 5.506 0.549-0.273c0 0 0.13-0.077 0.168-0.107s0.078-0.065 0.139-0.119c0.121-0.108 0.318-0.292 0.668-0.633 0.677-0.658 2.014-2 4.32-4.373 1.986 0.858 3.732 2.156 5.129 3.768-0.005 0.008-0.011 0.021-0.017 0.034l-0.002 0.005c-1.541 3.18-2.322 4.856-2.723 5.746-0.2 0.445-0.305 0.695-0.365 0.846-0.030 0.075-0.047 0.125-0.063 0.172s-0.045 0.193-0.045 0.193l-0.070 0.609 6.711 3.129c-0.191 2.009-0.799 3.894-1.732 5.572 0 0-0.001 0-0.001 0s-0.001 0-0.001 0v0c-0.033-0.009-0.074-0.017-0.115-0.021h-0.004c-3.516-0.361-5.356-0.522-6.33-0.594-0.487-0.036-0.756-0.048-0.918-0.053-0.081-0.002-0.135-0.003-0.184-0.002s-0.199 0.025-0.199 0.025l-0.596 0.143-0.646 7.406c-1.123 0.283-2.292 0.449-3.504 0.449s-2.381-0.167-3.504-0.449l-0.646-7.406-0.596-0.143c0 0-0.15-0.024-0.199-0.025s-0.103 0-0.184 0.002c-0.162 0.005-0.431 0.017-0.918 0.053-0.974 0.072-2.814 0.233-6.33 0.594-0.046 0.006-0.087 0.014-0.127 0.025l0.006-0.001c-0.934-1.679-1.541-3.564-1.732-5.574l6.711-3.129-0.070-0.609c0 0-0.030-0.147-0.045-0.193s-0.033-0.097-0.063-0.172c-0.060-0.151-0.165-0.4-0.365-0.846-0.4-0.89-1.181-2.566-2.723-5.746-0.008-0.017-0.015-0.029-0.022-0.041l0.002 0.004c1.397-1.612 3.142-2.911 5.129-3.77zM4.045 8.168c1.169 2.425 2.012 4.205 2.35 4.955 0.047 0.104 0.044 0.105 0.080 0.188l-4.744 2.211c0.090-2.711 0.922-5.229 2.314-7.354zM27.971 8.168c1.392 2.124 2.225 4.642 2.314 7.354l-4.744-2.211c0.036-0.082 0.033-0.083 0.080-0.188 0.337-0.75 1.181-2.53 2.35-4.955zM16.031 10.186c-0.007 0-0.015 0-0.024 0-0.188 0-0.361 0.061-0.502 0.164l0.002-0.002-5.221 3.793c-0.213 0.156-0.35 0.406-0.35 0.687 0 0.094 0.015 0.184 0.043 0.268l-0.002-0.006 1.994 6.139c0.115 0.343 0.433 0.586 0.808 0.586 0 0 0 0 0.001 0h6.453c0 0 0 0 0.001 0 0.375 0 0.693-0.243 0.806-0.58l0.002-0.006 1.994-6.139c0.026-0.078 0.041-0.168 0.041-0.262 0-0.281-0.137-0.531-0.348-0.686l-0.002-0.002-5.221-3.793c-0.132-0.097-0.297-0.157-0.475-0.162h-0.001zM16.008 12.086l4.223 3.066-1.613 4.963h-5.219l-1.613-4.963zM10.287 24.016l0.463 5.275c-2.485-0.982-4.621-2.637-6.195-4.744 2.746-0.276 4.7-0.458 5.531-0.52 0.113-0.008 0.112-0.006 0.201-0.012zM21.728 24.016c0.089 0.006 0.088 0.003 0.201 0.012 0.831 0.061 2.786 0.243 5.531 0.52-1.574 2.108-3.71 3.762-6.195 4.744z"></path>
</svg>
