<!-- Generated by IcoMoon.io -->
<svg version="1.1" xmlns="http://www.w3.org/2000/svg" width="32" height="32" viewBox="0 0 32 32">
<title>futbol-s</title>
<path d="M16 0c-8.826 0-16 7.173-16 16s7.173 16 16 16c8.826 0 16-7.174 16-16s-7.174-16-16-16zM16 1.699c1.794 0 3.503 0.344 5.084 0.945l-2.377 2.369c-1.404 1.4-2.615 2.547-2.693 2.547s-1.291-1.147-2.693-2.549l-2.377-2.377c1.574-0.595 3.273-0.936 5.057-0.936zM4.732 7.205c0.059 0.164 0.511 1.15 1.137 2.465 1.476 3.101 1.826 3.891 1.826 4.129 0 0.146-0.637 0.478-3.061 1.604l-2.898 1.346c-0.013-0.249-0.037-0.495-0.037-0.748 0-3.322 1.138-6.369 3.033-8.795zM27.283 7.225c1.886 2.423 3.018 5.462 3.018 8.775 0 0.246-0.025 0.485-0.037 0.729l-2.818-1.309c-3.052-1.416-3.117-1.452-3.068-1.705 0.062-0.32 0.659-1.653 1.979-4.418 0.51-1.069 0.856-1.855 0.928-2.072zM16.068 10.715c0.178 0.046 5.517 3.934 5.566 4.055 0.052 0.126-1.964 6.382-2.117 6.57-0.076 0.094-0.898 0.123-3.502 0.123-2.606 0-3.425-0.029-3.498-0.123-0.159-0.204-2.1-6.319-2.064-6.504 0.037-0.194 5.447-4.164 5.615-4.121zM10.58 23.096c0.249-0.002 0.433 0.008 0.49 0.029 0.199 0.076 0.221 0.231 0.494 3.479 0.162 1.926 0.234 2.709 0.309 3.088-3.314-0.995-6.11-3.16-7.93-6.014l0.066-0.008c0.581-0.076 4.309-0.426 5.684-0.533 0.321-0.025 0.637-0.039 0.887-0.041zM21.012 23.098c0.252-0.066 5.792 0.386 7.049 0.574-1.799 2.824-4.552 4.979-7.818 5.99 0.025-0.577 0.472-5.853 0.527-6.207 0.031-0.199 0.117-0.325 0.242-0.357z"></path>
</svg>
