<!-- Generated by IcoMoon.io -->
<svg version="1.1" xmlns="http://www.w3.org/2000/svg" width="32" height="32" viewBox="0 0 32 32">
<title>geometry-r</title>
<path d="M23.342 0l-1.299 2.252-7.361 12.748h17.318zM23.342 6.002l3.461 6h-6.932zM7.5 17c-4.124 0-7.5 3.376-7.5 7.5s3.376 7.5 7.5 7.5 7.5-3.376 7.5-7.5c0-4.124-3.376-7.5-7.5-7.5zM18.572 18.572v13.428h13.428v-13.428zM7.5 19.998c2.503 0 4.504 1.999 4.504 4.502s-2.001 4.504-4.504 4.504-4.504-2.001-4.504-4.504c0-2.503 2.001-4.502 4.504-4.502zM21.578 21.576h7.426v7.428h-7.426z"></path>
</svg>
