<!-- Generated by IcoMoon.io -->
<svg version="1.1" xmlns="http://www.w3.org/2000/svg" width="21" height="32" viewBox="0 0 21 32">
<title>glass-l</title>
<path d="M3.326 0c-0.665 0-1.283 0.367-1.598 0.955h0.002c-1.137 2.117-1.73 4.573-1.73 7.109 0 3.343 1.022 6.512 2.92 8.937 1.39 1.776 3.166 2.968 5.113 3.535 0.108 0.079 0.24 0.134 0.382 0.154h0.004c0.018 0.003 0.040 0.006 0.063 0.008h0.003c0 0 0.001 0 0.001 0s0.001 0 0.001 0v0c0.018 0.001 0.039 0.002 0.060 0.002 0.004 0 0.009 0 0.013 0h-0.001c0.177 0.002 0.574 0.093 1.059 0.16 0.001 3.527 0 8.642 0 9.441-2.162 0-3.308 0-4.963 0-0.008 0-0.018 0-0.028 0-0.469 0-0.849 0.38-0.849 0.849s0.38 0.849 0.849 0.849c0.011 0 0.021 0 0.032-0.001h-0.002c3.874-0.001 11.621 0 11.621 0 0.009 0 0.019 0 0.029 0 0.469 0 0.849-0.38 0.849-0.849s-0.38-0.849-0.849-0.849c-0.010 0-0.020 0-0.030 0.001h0.001c0 0-3.042 0-4.963 0 0-0.797 0.001-5.89 0-9.42 0.541-0.057 0.919-0.149 1.047-0.18 0.003 0 0.006 0 0.009 0 0.079 0 0.155-0.011 0.227-0.031l-0.006 0.001c0.001 0 0.001 0 0.002 0s0.001 0 0.002 0v0c0 0 0.004 0 0.004 0 0.111-0.027 0.208-0.073 0.294-0.135l-0.003 0.002c1.952-0.566 3.731-1.76 5.123-3.539 1.898-2.425 2.922-5.595 2.922-8.937 0-2.537-0.595-4.992-1.732-7.109-0.315-0.586-0.927-0.955-1.594-0.955zM3.326 1.697h14.285c0.042 0 0.080 0.024 0.1 0.061 0.94 1.75 1.451 3.8 1.506 5.937-0.859 0-11.259-0.001-17.508 0 0.055-2.138 0.577-4.187 1.518-5.937 0 0 0-0.001 0-0.001s0-0.001 0-0.001v0c0.020-0.037 0.056-0.059 0.1-0.059zM1.766 9.394c6.242-0.001 16.496 0 17.404 0-0.231 2.488-1.101 4.783-2.492 6.56-1.264 1.616-2.817 2.651-4.49 3.070-0.001 0.001-0.001 0.001-0.002 0.002v0c0 0-0.001 0-0.001 0s-0.001 0-0.001 0v0c0 0-0.828 0.205-1.703 0.205-0.442 0-1.061-0.166-1.73-0.205 0 0-0.002-0.002-0.002-0.002-1.672-0.42-3.225-1.454-4.49-3.070-1.391-1.777-2.261-4.073-2.492-6.56z"></path>
</svg>
