<!-- Generated by IcoMoon.io -->
<svg version="1.1" xmlns="http://www.w3.org/2000/svg" width="32" height="32" viewBox="0 0 32 32">
<title>heartbeat-r</title>
<path d="M8.084 2.010c-0.674-0.028-1.344 0.012-2.004 0.133-0.013 0.002-0.016 0.003-0.020 0.004l0.010-0.002c-1.322 0.252-2.596 0.862-3.609 1.875-1.954 1.953-2.673 4.603-2.408 7.15 0.21 2.052 1.034 4.058 2.328 5.754 0.11 0.207 0.26 0.378 0.441 0.511l0.004 0.003c0.254 0.203 0.579 0.326 0.933 0.326 0.123 0 0.242-0.015 0.356-0.043l-0.010 0.002 5.674-0.010c0.608-0.001 1.13-0.363 1.365-0.883l0.004-0.009 0.805-1.814 2.873 6.6c0.238 0.534 0.763 0.899 1.374 0.899 0.591 0 1.102-0.341 1.346-0.837l0.004-0.009 2.898-6.004 0.748 1.441c0.255 0.484 0.755 0.809 1.331 0.809 0 0 0.001 0 0.001 0h5.596c0.003 0 0.006 0 0.009 0s0.006 0 0.009 0v0c0.026-0.001 0.049-0.002 0.072-0.004h-0.005c0.040-0.002 0.077-0.004 0.114-0.008l-0.007 0.001c0.486-0.058 0.896-0.341 1.127-0.741l0.004-0.007c1.395-1.74 2.281-3.834 2.5-5.975v-0.002c0.264-2.547-0.455-5.195-2.408-7.148-1.013-1.013-2.287-1.623-3.609-1.875 0.008 0.002 0.005 0.001 0.003 0l-0.010-0.002c-1.318-0.244-2.688-0.161-4.041 0.148-2.166 0.49-4.172 1.619-5.881 2.973-1.709-1.353-3.714-2.481-5.879-2.973h-0.002c-0.676-0.154-1.354-0.253-2.035-0.281zM7.961 5.008c0.47 0.019 0.968 0.090 1.492 0.209 0 0 0.001 0 0.001 0s0.001 0 0.001 0v0c1.961 0.445 4.077 1.617 5.514 2.967l-0.004-0.008c0.097 0.091 0.207 0.169 0.326 0.232l0.008 0.004c-0.002-0.002-0.014-0.013-0.018-0.016 0.142 0.080 0.306 0.14 0.482 0.169l0.009 0.001c0.038 0.007 0.086 0.012 0.134 0.015h0.005c0.029 0.002 0.064 0.003 0.098 0.003 0.022 0 0.043 0 0.065-0.001h-0.003c0.053-0.004 0.101-0.009 0.147-0.017l-0.009 0.001c0.19-0.028 0.361-0.088 0.515-0.174l-0.008 0.004c-0.002 0.002-0.012 0.010-0.014 0.012 0.127-0.068 0.236-0.147 0.333-0.239l-0.001 0.001-0.004 0.012c1.437-1.35 3.552-2.523 5.512-2.967 0.001 0 0.001 0 0.002 0s0.001 0 0.002 0v0c1.033-0.237 2.001-0.277 2.826-0.125 0.81 0.155 1.482 0.486 2.045 1.049 1.275 1.275 1.733 2.905 1.545 4.719 0 0.001 0 0.001 0 0.002s0 0.001 0 0.002v0c-0.141 1.38-0.72 2.814-1.602 4.041h-3.922l-1.709-3.289c-0.256-0.483-0.755-0.807-1.331-0.807-0.591 0-1.103 0.342-1.347 0.839l-0.004 0.009-2.777 5.754-2.93-6.732c-0.237-0.535-0.764-0.902-1.376-0.902-0.021 0-0.042 0-0.063 0.001h0.003c-0.584 0.024-1.080 0.379-1.307 0.881l-0.004 0.009-1.795 4.047-4.295 0.006c-0.807-1.186-1.335-2.546-1.469-3.857 0-0.001 0-0.001 0-0.002s0-0.001 0-0.002v0c-0.188-1.814 0.27-3.444 1.545-4.719 0.563-0.563 1.235-0.894 2.045-1.049 0.416-0.076 0.857-0.103 1.334-0.084zM17.242 7.927c0 0.001-0.004 0.016-0.004 0.016s-0.011 0.011-0.012 0.012c0.001-0.002 0.007-0.011 0.012-0.020l0.004-0.007zM14.758 7.929c0.008 0.013 0.011 0.020 0.015 0.026l-0.004-0.006c0 0-0.008-0.006-0.008-0.006s-0.004-0.013-0.004-0.014zM23.795 19.244c-0.408 0.012-0.773 0.184-1.037 0.457l-6.758 6.754-6.758-6.754c-0.273-0.281-0.654-0.455-1.076-0.455v0c-0.828 0-1.5 0.672-1.5 1.5 0 0.422 0.174 0.803 0.455 1.076l7.819 7.815c0.271 0.271 0.646 0.439 1.061 0.439s0.789-0.168 1.061-0.439l7.818-7.814c0.282-0.273 0.458-0.655 0.458-1.079 0-0.828-0.672-1.5-1.5-1.5-0.015 0-0.029 0-0.044 0.001h0.002z"></path>
</svg>
