<!-- Generated by IcoMoon.io -->
<svg version="1.1" xmlns="http://www.w3.org/2000/svg" width="32" height="32" viewBox="0 0 32 32">
<title>heart-l</title>
<path d="M7.699 2.009c-0.657-0.027-1.302 0.011-1.934 0.127-0.001 0-0.002 0-0.003 0s-0.002 0-0.003 0v0c-1.259 0.24-2.445 0.813-3.396 1.764-1.879 1.879-2.569 4.403-2.311 6.889 0.254 2.484 1.43 4.949 3.287 6.806 0 0 0.001 0 0.001 0s0.001 0 0.001 0v0l12.058 12.054c0.154 0.154 0.366 0.248 0.601 0.248s0.447-0.095 0.601-0.249v0l12.058-12.054c1.857-1.857 3.035-4.323 3.289-6.806v-0.002c0.258-2.485-0.432-5.008-2.311-6.887-0.951-0.951-2.139-1.524-3.398-1.764-0.001 0-0.001 0-0.002 0s-0.001 0-0.002 0v0c-1.26-0.233-2.597-0.156-3.935 0.15-2.316 0.525-4.529 1.773-6.301 3.281-1.772-1.507-3.986-2.756-6.301-3.281h-0.002c-0.669-0.153-1.337-0.25-1.998-0.277zM7.63 3.706c0.541 0.022 1.106 0.103 1.689 0.236 0 0 0.001 0 0.001 0s0.001 0 0.001 0v0c2.192 0.497 4.481 1.769 6.080 3.267 0.059 0.059 0.128 0.109 0.202 0.148l0.005 0.002c-0.001 0 0.003 0.002 0.007 0.004l0.005 0.002c0.006 0.003 0.017 0.008 0.028 0.013l0.005 0.002c0.009 0.005 0.024 0.011 0.039 0.017l0.006 0.002c0.030 0.011 0.068 0.022 0.106 0.030l0.006 0.001c0.015 0.004 0.036 0.008 0.058 0.011l0.005 0.001c0.020 0.003 0.046 0.006 0.072 0.008h0.002c0.001 0 0.003 0 0.005 0s0.003 0 0.005 0v0c0.019 0.001 0.040 0.002 0.062 0.002 0.008 0 0.017 0 0.025 0h-0.001c0.028-0.002 0.054-0.005 0.079-0.008l-0.005 0.001c0.031-0.004 0.058-0.009 0.084-0.015l-0.006 0.001c0.058-0.014 0.109-0.031 0.158-0.053l-0.005 0.002c0.012-0.005 0.020-0.009 0.027-0.012l-0.005 0.002c0.012-0.007 0.020-0.011 0.027-0.016l-0.004 0.002c0.075-0.039 0.139-0.085 0.196-0.139v0c0.002-0.002 0.004-0.002 0.006-0.004 1.6-1.501 3.892-2.777 6.086-3.273 0 0 0.001 0 0.001 0s0.001 0 0.001 0v0c1.157-0.265 2.266-0.316 3.246-0.135 0.968 0.185 1.812 0.599 2.508 1.295 1.494 1.494 2.037 3.439 1.822 5.51 0 0 0 0.001 0 0.001s0 0.001 0 0.001v0c-0.211 2.063-1.223 4.203-2.799 5.779l-11.459 11.453-11.457-11.453c-1.576-1.576-2.588-3.717-2.799-5.779 0 0 0-0.001 0-0.001s0-0.001 0-0.001v0c-0.215-2.071 0.326-4.015 1.82-5.51 0.696-0.696 1.542-1.11 2.51-1.295 0.493-0.090 1.010-0.124 1.557-0.102z"></path>
</svg>
