<!-- Generated by IcoMoon.io -->
<svg version="1.1" xmlns="http://www.w3.org/2000/svg" width="32" height="32" viewBox="0 0 32 32">
<title>heart-brken-s</title>
<path d="M7.197 2.008c-0.636-0.026-1.25 0.012-1.844 0.121-1.177 0.224-2.249 0.745-3.119 1.615-1.781 1.781-2.434 4.141-2.184 6.547 0.245 2.401 1.402 4.832 3.215 6.645l12.734 12.73 12.734-12.73c1.813-1.813 2.97-4.244 3.215-6.645 0.25-2.406-0.403-4.766-2.184-6.547-0.87-0.87-1.942-1.391-3.119-1.615-1.183-0.219-2.475-0.152-3.793 0.15-0.654 0.148-1.309 0.356-1.953 0.609l2.67 8.584-8.047 5.551 1.941 5.686-7.213-7.213 7.354-4.855-1.58-4.695c-0.006 0.006-0.014 0.010-0.020 0.016v0.016c0-0.005-0.006-0.004-0.006-0.004s-0.006-0.001-0.006 0.004v-0.016c-1.813-1.703-4.343-3.114-6.848-3.682-0.662-0.151-1.314-0.245-1.949-0.272z"></path>
</svg>
