<!-- Generated by IcoMoon.io -->
<svg version="1.1" xmlns="http://www.w3.org/2000/svg" width="32" height="32" viewBox="0 0 32 32">
<title>heart-r</title>
<path d="M8.084 2.010c-0.674-0.028-1.344 0.012-2.004 0.133-0.001 0-0.003 0-0.005 0s-0.003 0-0.005 0v0c-1.322 0.252-2.596 0.864-3.609 1.877-1.954 1.954-2.673 4.603-2.408 7.15 0.26 2.548 1.452 5.038 3.344 6.93 0 0 0.001 0 0.001 0s0.001 0 0.001 0v0l11.541 11.537c0.271 0.271 0.646 0.439 1.061 0.439s0.789-0.168 1.061-0.439l11.541-11.537c0 0 0.001 0 0.001 0s0.001 0 0.001 0v0c1.892-1.892 3.083-4.382 3.344-6.93v-0.002c0.264-2.547-0.455-5.195-2.408-7.148-1.013-1.013-2.287-1.625-3.609-1.877-0.001 0-0.003 0-0.004 0s-0.003 0-0.004 0v0c-1.318-0.244-2.688-0.161-4.041 0.148-2.166 0.49-4.172 1.619-5.881 2.973-1.709-1.353-3.714-2.481-5.879-2.973h-0.002c-0.676-0.154-1.354-0.253-2.035-0.281zM7.961 5.008c0.47 0.019 0.968 0.090 1.492 0.209 0 0 0.001 0 0.001 0s0.001 0 0.001 0v0c1.961 0.445 4.077 1.617 5.514 2.967l-0.004-0.008c0.093 0.086 0.197 0.162 0.31 0.223l0.008 0.004c0.010 0.006 0.026 0.016 0.043 0.025l0.008 0.004c0.032 0.016 0.074 0.033 0.117 0.049l0.010 0.003c0.028 0.011 0.067 0.025 0.107 0.036l0.011 0.003c0.002 0.001 0.014 0.005 0.026 0.009l0.011 0.003c0.041 0.011 0.093 0.022 0.146 0.030l0.008 0.001c0.042 0.007 0.094 0.013 0.147 0.015h0.004c0.028 0.002 0.061 0.003 0.095 0.003 0.020 0 0.039 0 0.059-0.001h-0.003c0.053-0.004 0.101-0.009 0.147-0.017l-0.009 0.001c0.061-0.007 0.114-0.017 0.166-0.029l-0.010 0.002c0.031-0.009 0.051-0.016 0.071-0.023l-0.011 0.003c0.048-0.016 0.055-0.016 0.1-0.031 0.052-0.019 0.093-0.036 0.132-0.055l-0.009 0.004c0.032-0.016 0.055-0.028 0.078-0.041l-0.007 0.004c0.12-0.066 0.224-0.143 0.317-0.231l-0.001 0.001-0.004 0.012c1.437-1.35 3.552-2.523 5.512-2.967 0.001 0 0.001 0 0.002 0s0.001 0 0.002 0v0c1.033-0.237 2.001-0.277 2.826-0.125 0.81 0.155 1.48 0.486 2.043 1.049 1.275 1.275 1.735 2.905 1.547 4.719 0 0.001 0 0.001 0 0.002s0 0.001 0 0.002v0c-0.184 1.804-1.086 3.721-2.48 5.115l-10.482 10.477-10.482-10.477c-1.394-1.394-2.296-3.311-2.48-5.115 0-0.001 0-0.001 0-0.002s0-0.001 0-0.002v0c-0.188-1.814 0.272-3.444 1.547-4.719 0.563-0.563 1.233-0.894 2.043-1.049 0.416-0.076 0.857-0.103 1.334-0.084zM17.254 7.912c0 0.001-0.006 0.018-0.006 0.018s-0.015 0.013-0.016 0.014c0.004-0.005 0.011-0.016 0.018-0.026l0.003-0.005zM14.748 7.914c0.009 0.015 0.014 0.023 0.019 0.031l-0.004-0.006c0 0-0.012-0.010-0.012-0.010s-0.004-0.015-0.004-0.016z"></path>
</svg>
