<!-- Generated by IcoMoon.io -->
<svg version="1.1" xmlns="http://www.w3.org/2000/svg" width="28" height="32" viewBox="0 0 28 32">
<title>hour-glass-s</title>
<path d="M0.109 0c-0.072 0.655-0.109 1.323-0.109 2 0 6.025 2.916 11.271 7.221 14-4.305 2.729-7.221 7.975-7.221 14 0 0.677 0.037 1.345 0.109 2h27.783c0.072-0.655 0.109-1.323 0.109-2 0-6.025-2.914-11.271-7.219-14 4.305-2.729 7.219-7.975 7.219-14 0-0.677-0.037-1.345-0.109-2zM7.604 8h12.799c-0.789 1.312-1.83 2.373-3.033 3.072-2.248 1.273-2.367 2.928-2.367 3.928v2.008c0 1 0.124 2.648 2.363 3.918 2.271 1.317 3.964 3.927 4.475 7.074h-15.678c0.511-3.145 2.204-5.754 4.473-7.072 2.248-1.273 2.367-2.928 2.367-3.928v-2.008c0-1-0.124-2.648-2.363-3.918-1.204-0.699-2.245-1.761-3.035-3.074z"></path>
</svg>
