<!-- Generated by IcoMoon.io -->
<svg version="1.1" xmlns="http://www.w3.org/2000/svg" width="32" height="32" viewBox="0 0 32 32">
<title>image-r</title>
<path d="M3.313 2c-1.81 0-3.313 1.503-3.313 3.313v21.559c0 1.81 1.503 3.313 3.313 3.313h25.375c1.81 0 3.313-1.503 3.313-3.313v-21.559c0-1.81-1.503-3.313-3.313-3.313zM3.313 5h25.375c0.2 0 0.313 0.113 0.313 0.313v21.559c0 0.2-0.113 0.313-0.313 0.313h-25.375c-0.2 0-0.313-0.113-0.313-0.313v-21.559c0-0.2 0.113-0.313 0.313-0.313zM22.436 6.979c-1.657 0-3 1.343-3 3s1.343 3 3 3c1.657 0 3-1.343 3-3s-1.343-3-3-3zM11.416 10.51l-6.416 11v3.666h22v-11l-6.416 5.5h-1.834z"></path>
</svg>
