<!-- Generated by IcoMoon.io -->
<svg version="1.1" xmlns="http://www.w3.org/2000/svg" width="32" height="32" viewBox="0 0 32 32">
<title>infinite-l</title>
<path d="M7.063 9c-1.88 0-3.664 0.738-4.994 2.068s-2.068 3.116-2.068 4.996c0 1.88 0.738 3.664 2.068 4.994s3.114 2.068 4.994 2.068c1.88 0 3.666-0.738 4.996-2.068l3.941-3.939 3.941 3.941c1.33 1.328 3.113 2.068 4.994 2.066 1.879-0.002 3.664-0.738 4.994-2.068s2.070-3.114 2.070-4.994-0.74-3.666-2.070-4.996c-1.33-1.33-3.114-2.068-4.994-2.068s-3.664 0.738-4.994 2.068l-3.941 3.941-3.941-3.941c-1.33-1.33-3.116-2.068-4.996-2.068zM7.063 10.699c1.439 0 2.775 0.554 3.793 1.572l3.793 3.793-3.793 3.791c-1.018 1.018-2.354 1.572-3.793 1.572s-2.773-0.554-3.791-1.572c-1.018-1.018-1.572-2.352-1.572-3.791s0.554-2.775 1.572-3.793c1.018-1.018 2.352-1.572 3.791-1.572zM24.936 10.699c1.439 0 2.775 0.554 3.793 1.572s1.57 2.354 1.57 3.793c0 1.439-0.552 2.773-1.57 3.791s-2.353 1.571-3.793 1.572c-1.438 0.001-2.775-0.553-3.793-1.57l-3.793-3.793 3.793-3.793c1.018-1.018 2.354-1.572 3.793-1.572z"></path>
</svg>
