<!-- Generated by IcoMoon.io -->
<svg version="1.1" xmlns="http://www.w3.org/2000/svg" width="32" height="32" viewBox="0 0 32 32">
<title>infinite-r</title>
<path d="M7.447 8.5c-1.978 0-3.867 0.783-5.266 2.182s-2.182 3.288-2.182 5.266c0 1.978 0.783 3.867 2.182 5.266s3.288 2.182 5.266 2.182c1.978 0 3.867-0.783 5.266-2.182l3.287-3.287 3.287 3.289c1.398 1.397 3.288 2.181 5.268 2.18 1.976-0.002 3.864-0.782 5.264-2.182s2.182-3.288 2.182-5.266-0.783-3.867-2.182-5.266c-1.399-1.399-3.288-2.182-5.266-2.182s-3.867 0.783-5.266 2.182l-3.287 3.287-3.287-3.287c-1.399-1.399-3.288-2.182-5.266-2.182zM7.447 11.5c1.199 0 2.296 0.454 3.145 1.303l3.145 3.145-3.145 3.145c-0.848 0.848-1.946 1.303-3.145 1.303s-2.296-0.454-3.145-1.303c-0.848-0.848-1.303-1.946-1.303-3.145s0.454-2.296 1.303-3.145c0.848-0.848 1.946-1.303 3.145-1.303zM24.553 11.5c1.199 0 2.296 0.454 3.145 1.303s1.303 1.946 1.303 3.145c0 1.199-0.454 2.296-1.303 3.145s-1.946 1.302-3.146 1.303c-1.197 0.001-2.294-0.455-3.143-1.303l-3.145-3.145 3.145-3.145c0.848-0.848 1.946-1.303 3.145-1.303z"></path>
</svg>
