<!-- Generated by IcoMoon.io -->
<svg version="1.1" xmlns="http://www.w3.org/2000/svg" width="32" height="32" viewBox="0 0 32 32">
<title>info-l</title>
<path d="M16 0c-8.826 0-16 7.174-16 16s7.174 16 16 16c8.826 0 16-7.174 16-16s-7.174-16-16-16zM16 1.699c7.908 0 14.301 6.393 14.301 14.301s-6.393 14.301-14.301 14.301c-7.908 0-14.301-6.393-14.301-14.301s6.393-14.301 14.301-14.301zM16 6.5c0 0-0.001 0-0.001 0-1.424 0-2.579 1.155-2.579 2.579 0 0 0 0.001 0 0.001v0c0.001 1.424 1.155 2.578 2.579 2.578 0 0 0.001 0 0.001 0v0c1.424-0.001 2.578-1.155 2.578-2.578v0c0 0 0-0.001 0-0.001 0-1.424-1.154-2.579-2.578-2.579v0zM13.23 14.867v3.629h1.094v3.287h-1.152v3.717h5.656v-3.686h-1.090v-6.947h-4.508z"></path>
</svg>
