<!-- Generated by IcoMoon.io -->
<svg version="1.1" xmlns="http://www.w3.org/2000/svg" width="32" height="32" viewBox="0 0 32 32">
<title>info-r</title>
<path d="M16 0c-8.819 0-16 7.181-16 16s7.181 16 16 16c8.819 0 16-7.181 16-16s-7.181-16-16-16zM16 3c7.198 0 13 5.802 13 13s-5.802 13-13 13c-7.198 0-13-5.802-13-13s5.802-13 13-13zM16.002 6.5c-1.594-0.001-2.901 1.304-2.9 2.898s1.307 2.899 2.9 2.898c1.592-0.001 2.896-1.306 2.896-2.898s-1.303-2.898-2.896-2.898zM12.934 14.928v4.465h0.955v1.566h-1.006v4.541h6.234v-4.514h-0.953v-6.059h-5.23z"></path>
</svg>
