<!-- Generated by IcoMoon.io -->
<svg version="1.1" xmlns="http://www.w3.org/2000/svg" width="32" height="32" viewBox="0 0 32 32">
<title>key-l</title>
<path d="M21.682 0c-5.689 0-10.318 4.629-10.318 10.318 0 0.483 0.065 0.949 0.129 1.414l-11.492 11.49v6.033c0 1.505 1.239 2.744 2.744 2.744h2.742v-1.895h3.789v-3.787h3.787v-3.787h3.289l2.404-2.404c0.937 0.28 1.9 0.51 2.926 0.51 5.689 0 10.318-4.629 10.318-10.318s-4.629-10.318-10.318-10.318zM21.682 1.699c4.77 0 8.619 3.849 8.619 8.619s-3.849 8.619-8.619 8.619c-1.033 0-2.020-0.18-2.936-0.512l-0.508-0.186-2.59 2.592h-4.285v3.787h-3.789v3.787h-3.787v1.895h-1.043c-0.587 0-1.045-0.458-1.045-1.045v-5.328l11.59-11.59-0.082-0.439c-0.095-0.512-0.145-1.040-0.145-1.58 0-4.77 3.849-8.619 8.619-8.619zM24.178 5.322c-1.381 0-2.5 1.119-2.5 2.5s1.119 2.5 2.5 2.5c1.381 0 2.5-1.119 2.5-2.5s-1.119-2.5-2.5-2.5z"></path>
</svg>
