<!-- Generated by IcoMoon.io -->
<svg version="1.1" xmlns="http://www.w3.org/2000/svg" width="32" height="32" viewBox="0 0 32 32">
<title>keyboard-l</title>
<path d="M2.906 5c-1.595 0-2.906 1.314-2.906 2.908v16.365c0 1.595 1.312 2.906 2.906 2.906h26.188c1.595 0 2.906-1.312 2.906-2.906v-16.365c0-1.595-1.312-2.908-2.906-2.908zM2.906 6.701h26.188c0.664 0 1.207 0.543 1.207 1.207v16.365c0 0.664-0.543 1.207-1.207 1.207h-26.188c-0.664 0-1.205-0.543-1.205-1.207v-16.365c0-0.664 0.541-1.207 1.205-1.207zM9.602 9.289v2.502h2.5v-2.502zM14.801 9.391v2.5h2.5v-2.5zM20 9.49v2.5h2.5v-2.5zM4.301 9.59v2.502h2.5v-2.502zM25.301 9.689v2.502h2.5v-2.502zM12.201 14.789v2.502h2.5v-2.502zM17.4 14.891v2.5h2.5v-2.5zM22.602 14.99v2.5h2.5v-2.5zM6.9 15.090v2.502h2.5v-2.502zM4.201 20.189v2.502h2.5v-2.502zM25.201 20.289v2.502h2.5v-2.502zM9.5 20.389v2.502h12.5v-2.502h-10z"></path>
</svg>
