<!-- Generated by IcoMoon.io -->
<svg version="1.1" xmlns="http://www.w3.org/2000/svg" width="32" height="32" viewBox="0 0 32 32">
<title>keyboard-ss</title>
<path d="M3.469 4.5c-1.902 0-3.469 1.565-3.469 3.467v15.664c0 1.902 1.567 3.469 3.469 3.469h25.064c1.902 0 3.467-1.567 3.467-3.469v-15.664c0-1.902-1.565-3.467-3.467-3.467zM3.273 8.57h3.455v3.459h-3.455zM8.873 8.57h3.455v3.459h-3.455zM14.373 8.57h3.455v3.459h-3.455zM19.873 8.57h3.455v3.459h-3.455zM25.273 8.57h3.455v3.459h-3.455zM5.773 14.070h3.455v3.459h-3.455zM11.373 14.070h3.455v3.459h-3.455zM16.873 14.070h3.455v3.459h-3.455zM22.273 14.070h3.455v3.459h-3.455zM3.773 19.57h3.455v3.459h-3.455zM9 19.57h14v3.459h-14zM24.773 19.57h3.455v3.459h-3.455z"></path>
</svg>
