<!-- Generated by IcoMoon.io -->
<svg version="1.1" xmlns="http://www.w3.org/2000/svg" width="32" height="32" viewBox="0 0 32 32">
<title>keyboard-r</title>
<path d="M3.469 4.5c-1.902 0-3.469 1.565-3.469 3.467v15.664c0 1.902 1.567 3.469 3.469 3.469h25.064c1.902 0 3.467-1.567 3.467-3.469v-15.664c0-1.902-1.565-3.467-3.467-3.467zM3.469 7.5h25.064c0.26 0 0.467 0.206 0.467 0.467v15.664c0 0.26-0.206 0.469-0.467 0.469h-25.064c-0.26 0-0.469-0.208-0.469-0.469v-15.664c0-0.26 0.208-0.467 0.469-0.467zM4.471 9.27v3.061h3.061v-3.061zM9.57 9.27v3.061h3.061v-3.061zM14.57 9.27v3.061h3.061v-3.061zM19.57 9.27v3.061h3.061v-3.061zM24.471 9.27v3.061h3.061v-3.061zM6.971 14.27v3.061h3.061v-3.061zM12.070 14.27v3.061h3.061v-3.061zM17.070 14.27v3.061h3.061v-3.061zM21.971 14.27v3.061h3.061v-3.061zM9 19.268v3.063h14v-3.063h-11.199zM4.471 19.27v3.061h3.061v-3.061zM24.471 19.27v3.061h3.061v-3.061z"></path>
</svg>
