<!-- Generated by IcoMoon.io -->
<svg version="1.1" xmlns="http://www.w3.org/2000/svg" width="31" height="32" viewBox="0 0 31 32">
<title>lab-l</title>
<path d="M9.159 0.001c-0.008 0-0.017 0-0.026 0-0.469 0-0.85 0.381-0.85 0.85s0.381 0.85 0.85 0.85c0.010 0 0.020 0 0.029 0h-0.001c0.488 0 0.976 0 1.465 0v6.412l-9.539 15.896c-1.209 2.014-1.432 4.046-0.557 5.592s2.733 2.4 5.082 2.4h19.546c2.349 0 4.207-0.855 5.082-2.4s0.652-3.577-0.557-5.592l-9.539-15.896v-6.412c0.488 0 0.977 0 1.465 0 0.008 0 0.018 0 0.028 0 0.469 0 0.85-0.381 0.85-0.85s-0.381-0.85-0.85-0.85c-0.009 0-0.018 0-0.027 0h0.001c-4.149-0.001-8.301-0.001-12.453 0zM12.325 1.7c2.041 0 4.081 0 6.121 0v6.883l6 9.998c-6.039-0.001-12.079-0.001-18.121 0l6-9.998zM5.306 20.282c6.721-0.001 13.442-0.001 20.16 0l2.762 4.601c1.004 1.673 1.034 2.994 0.533 3.879s-1.65 1.539-3.601 1.539h-19.546c-1.952 0-3.1-0.654-3.601-1.539s-0.471-2.205 0.533-3.879z"></path>
</svg>
