<!-- Generated by IcoMoon.io -->
<svg version="1.1" xmlns="http://www.w3.org/2000/svg" width="32" height="32" viewBox="0 0 32 32">
<title>laptop-s</title>
<path d="M6.742 4.5c-2.424 0-4.422 1.999-4.422 4.422v11.020h27.359v-11.020c0-2.424-1.999-4.422-4.424-4.422zM12.17 21.643c-3.774 0-7.547 0.002-11.32 0.002-0.469 0-0.849 0.38-0.85 0.85v0.992c0 2.141 1.75 3.889 3.891 3.889h24.221c2.141 0 3.889-1.749 3.889-3.889v-0.992c0-0.469-0.38-0.849-0.85-0.85v0c-3.773 0-7.545-0.002-11.318-0.002h-1.402v2.504h-4.859v-2.504h-0.281z"></path>
</svg>
