<!-- Generated by IcoMoon.io -->
<svg version="1.1" xmlns="http://www.w3.org/2000/svg" width="32" height="32" viewBox="0 0 32 32">
<title>laptop-r</title>
<path d="M6.742 5c-2.424 0-4.422 1.999-4.422 4.422v12.123c-0.49 0-0.98 0-1.471 0-0.469 0-0.849 0.38-0.85 0.85v0.992c0 2.141 1.75 3.889 3.891 3.889h24.221c2.141 0 3.889-1.749 3.889-3.889v-0.992c0-0.469-0.38-0.849-0.85-0.85v0c-0.49 0-0.98 0-1.471 0v-12.123c0-2.424-1.999-4.422-4.424-4.422zM6.742 7.998h18.514c0.815 0 1.424 0.609 1.424 1.424v11.373c-7.119-0.001-14.239-0.001-21.359 0v-11.373c0-0.816 0.607-1.424 1.422-1.424zM13.57 22.096h4.859v2.588h-4.859z"></path>
</svg>
