<!-- Generated by IcoMoon.io -->
<svg version="1.1" xmlns="http://www.w3.org/2000/svg" width="32" height="32" viewBox="0 0 32 32">
<title>leaf-s</title>
<path d="M31.573 4.191c-3.463-2.624-8.791-4.191-14.254-4.191-6.757 0-12.263 2.359-15.106 6.472-1.336 1.932-2.074 4.219-2.195 6.799-0.108 2.297 0.278 4.837 1.147 7.571 2.966-8.891 11.249-15.854 20.8-15.854 0 0-8.936 2.352-14.555 9.636-0.003 0.004-0.078 0.097-0.207 0.272-1.129 1.51-2.112 3.225-2.847 5.168-1.247 2.964-2.401 7.033-2.401 11.937h4.002c0 0-0.607-3.821 0.449-8.216 1.748 0.236 3.31 0.353 4.716 0.353 3.679 0 6.296-0.796 8.235-2.505 1.737-1.532 2.695-3.589 3.709-5.767 1.549-3.327 3.304-7.097 8.399-10.010 0.292-0.167 0.48-0.468 0.502-0.804s-0.126-0.659-0.394-0.862z"></path>
</svg>
