<!-- Generated by IcoMoon.io -->
<svg version="1.1" xmlns="http://www.w3.org/2000/svg" width="32" height="32" viewBox="0 0 32 32">
<title>like-s</title>
<path d="M20.488 0.51c-0.344-0.029-0.695 0.006-1.023 0.116s-0.631 0.295-0.871 0.543c-0.256 0.265-0.437 0.597-0.553 0.947s-0.171 0.717-0.202 1.085c-0.061 0.735-0.023 1.484-0.186 2.204-0.099 0.437-0.271 0.854-0.471 1.255-1.018 2.035-2.745 3.606-4.391 5.177-0.403 0.384-0.804 0.771-1.255 1.097-0.611 0.441-1.308 0.763-2.040 0.941v14.744c2.074 0.683 4.168 1.312 6.275 1.884 1.317 0.358 2.645 0.693 4 0.861 1.691 0.21 3.408 0.156 5.097-0.078 0.758-0.105 1.523-0.25 2.21-0.587s1.296-0.889 1.556-1.608c0.143-0.395 0.174-0.83 0.092-1.243s-0.279-0.801-0.563-1.111c0.7-0.049 1.372-0.416 1.788-0.981s0.568-1.315 0.408-1.998c-0.132-0.562-0.473-1.074-0.941-1.413 0.553-0.247 1.019-0.683 1.301-1.219s0.377-1.167 0.268-1.762c-0.126-0.687-0.528-1.319-1.097-1.724 1.024-0.451 1.806-1.416 2.038-2.511 0.168-0.793 0.051-1.653-0.376-2.342s-1.169-1.186-1.976-1.265c-0.417-0.040-0.836 0-1.255 0h-6.275c1.318-1.452 2.109-3.375 2.196-5.334 0.040-0.9-0.066-1.812-0.372-2.659s-0.816-1.63-1.51-2.204c-0.533-0.44-1.182-0.757-1.87-0.815zM1.852 10.889c-1.026 0-1.852 0.824-1.852 1.848v16.531c0 1.024 0.826 1.848 1.852 1.848h4.393c1.026 0 1.852-0.824 1.852-1.848v-16.531c0-1.024-0.826-1.848-1.852-1.848zM4.925 25.787c0.921 0 1.668 0.747 1.668 1.668v0c0 0.921-0.747 1.668-1.668 1.668v0c-0.921 0-1.668-0.747-1.668-1.668v0c0-0.921 0.747-1.668 1.668-1.668v0z"></path>
</svg>
