<!-- Generated by IcoMoon.io -->
<svg version="1.1" xmlns="http://www.w3.org/2000/svg" width="32" height="32" viewBox="0 0 32 32">
<title>like-l</title>
<path d="M21.532 31.996c0.869-0.017 1.734-0.091 2.588-0.209 0.767-0.106 1.61-0.257 2.424-0.656 0.828-0.406 1.611-1.087 1.967-2.068 0.196-0.542 0.24-1.13 0.127-1.695-0.046-0.23-0.139-0.331-0.225-0.463 0.463-0.207 0.934-0.424 1.258-0.863 0.567-0.77 0.77-1.759 0.551-2.689-0.11-0.466-0.411-0.745-0.672-1.033 0.339-0.238 0.712-0.463 0.943-0.902 0.371-0.704 0.494-1.517 0.35-2.299-0.107-0.58-0.486-0.946-0.814-1.312 0.824-0.607 1.505-1.423 1.727-2.465 0.209-0.985 0.068-2.050-0.484-2.941-0.558-0.901-1.508-1.55-2.603-1.656-0.517-0.050-0.965-0.006-1.311-0.006h-4.535c0.801-1.286 1.397-2.708 1.465-4.252 0.043-0.974-0.069-1.98-0.414-2.937-0.346-0.96-0.927-1.86-1.746-2.537-0.632-0.522-1.427-0.922-2.322-0.998-0.448-0.038-0.912 0.006-1.359 0.156s-0.869 0.404-1.211 0.758c-0.365 0.377-0.597 0.825-0.744 1.266-0.146 0.438-0.209 0.868-0.242 1.268-0.066 0.793-0.039 1.488-0.16 2.021-0.074 0.326-0.212 0.67-0.387 1.019-0.891 1.782-2.48 3.252-4.094 4.791-0.394 0.376-0.76 0.726-1.129 0.992-0.207 0.15-0.504 0.249-0.793 0.359-0.284-1.188-1.237-2.135-2.521-2.135h-4.404c-1.494 0-2.76 1.179-2.76 2.668v15.806c0 1.489 1.265 2.672 2.76 2.672h4.404c1.312 0 2.301-0.979 2.557-2.207 1.714 0.549 3.435 1.080 5.176 1.553 1.293 0.351 2.627 0.692 4.021 0.865 0.87 0.108 1.746 0.148 2.615 0.131zM21.495 30.192c-0.791 0.015-1.578-0.021-2.355-0.117-1.245-0.155-2.496-0.471-3.769-0.816-1.828-0.496-3.643-1.049-5.447-1.633v-13.13c0.549-0.187 1.111-0.385 1.613-0.748 0.508-0.367 0.928-0.778 1.316-1.148 1.592-1.519 3.37-3.113 4.461-5.293 0.215-0.429 0.415-0.902 0.533-1.426 0.194-0.858 0.147-1.641 0.199-2.269 0.026-0.316 0.073-0.605 0.154-0.848 0.080-0.239 0.199-0.444 0.332-0.582 0.123-0.128 0.297-0.235 0.486-0.299 0.191-0.064 0.413-0.089 0.633-0.070 0.442 0.038 0.92 0.258 1.324 0.592 0.533 0.441 0.948 1.068 1.197 1.758 0.25 0.694 0.345 1.465 0.311 2.244-0.075 1.691-0.769 3.373-1.906 4.627-0.256 0.28-0.292 0.673-0.158 0.975s0.448 0.538 0.826 0.537h6.111c0.462 0 0.853-0.033 1.137-0.006 0.466 0.045 0.975 0.376 1.244 0.811 0.276 0.446 0.37 1.063 0.252 1.619-0.162 0.765-0.753 1.491-1.469 1.807-0.624 0.275-0.715 1.164-0.16 1.561h0.002c0.354 0.253 0.626 0.681 0.705 1.109 0.069 0.374 0.005 0.797-0.172 1.133s-0.489 0.628-0.836 0.783c0 0-0.001 0-0.001 0s-0.001 0-0.001 0v0c-0.618 0.278-0.707 1.158-0.158 1.555 0.272 0.197 0.487 0.523 0.564 0.852 0.092 0.393-0.006 0.881-0.244 1.205s-0.676 0.564-1.078 0.592c-0.731 0.051-1.097 0.97-0.602 1.51 0.163 0.178 0.281 0.413 0.328 0.648s0.027 0.501-0.055 0.727c-0.149 0.411-0.558 0.816-1.064 1.064-0.522 0.256-1.17 0.39-1.877 0.488-0.79 0.109-1.586 0.176-2.377 0.191zM7.164 29.848h-4.404c-0.575 0-0.955-0.393-0.955-0.865v-15.806c0-0.472 0.38-0.865 0.955-0.865h4.404c0.575 0 0.953 0.392 0.953 0.865v15.806c0 0.473-0.378 0.865-0.953 0.865zM5.123 28.252c0.767 0 1.393-0.625 1.393-1.393s-0.625-1.393-1.393-1.393c-0.767 0-1.394 0.625-1.394 1.393s0.627 1.393 1.394 1.393z"></path>
</svg>
