<!-- Generated by IcoMoon.io -->
<svg version="1.1" xmlns="http://www.w3.org/2000/svg" width="32" height="32" viewBox="0 0 32 32">
<title>link-l</title>
<path d="M23.855 0c-2.17 0-4.227 0.852-5.762 2.387l-5.742 5.742c-3.171 3.171-3.171 8.352 0 11.523 0.154 0.154 0.366 0.249 0.601 0.249 0.469 0 0.849-0.38 0.849-0.849 0-0.235-0.095-0.447-0.249-0.601v0c-2.52-2.52-2.52-6.601 0-9.121l5.742-5.744c1.222-1.222 2.831-1.889 4.561-1.889s3.338 0.666 4.561 1.889c2.52 2.52 2.52 6.601 0 9.121l-2.625 2.627c-0.165 0.155-0.268 0.375-0.268 0.619 0 0.469 0.38 0.849 0.849 0.849 0.244 0 0.465-0.103 0.62-0.269v0l2.625-2.625c3.171-3.171 3.171-8.35 0-11.521-1.534-1.534-3.592-2.387-5.762-2.387zM19.035 12.092c-0.468 0.001-0.848 0.381-0.848 0.849 0 0.238 0.098 0.454 0.256 0.608v0c2.52 2.52 2.52 6.601 0 9.121l-5.742 5.744c-1.222 1.222-2.831 1.889-4.561 1.889s-3.338-0.666-4.561-1.889c-2.52-2.52-2.52-6.601 0-9.121l2.625-2.627c0.165-0.155 0.268-0.375 0.268-0.619 0-0.469-0.38-0.849-0.849-0.849-0.244 0-0.465 0.103-0.62 0.269v0l-2.625 2.625c-3.171 3.171-3.171 8.35 0 11.521 1.534 1.534 3.592 2.387 5.762 2.387s4.227-0.852 5.762-2.387l5.742-5.742c3.171-3.171 3.171-8.352 0-11.523-0.154-0.158-0.369-0.256-0.608-0.256-0.001 0-0.001 0-0.002 0v0z"></path>
</svg>
