<!-- Generated by IcoMoon.io -->
<svg version="1.1" xmlns="http://www.w3.org/2000/svg" width="20" height="32" viewBox="0 0 20 32">
<title>location-l</title>
<path d="M10.17 0c-5.606 0-10.17 4.563-10.17 10.17 0 4.943 2.41 10.154 4.777 14.178s4.74 6.869 4.74 6.869l0.652 0.783 0.652-0.783c0 0 2.373-2.846 4.74-6.869s4.777-9.235 4.777-14.178c0-5.606-4.563-10.17-10.17-10.17zM10.17 1.699c4.688 0 8.471 3.783 8.471 8.471 0 4.377-2.25 9.416-4.543 13.314-1.966 3.343-3.408 5.054-3.928 5.697-0.519-0.643-1.962-2.355-3.928-5.697-2.293-3.898-4.543-8.938-4.543-13.314 0-4.688 3.783-8.471 8.471-8.471zM10.17 4.18c-3.304 0-6 2.696-6 6s2.696 6 6 6c3.304 0 6-2.696 6-6s-2.696-6-6-6zM10.17 5.879c2.385 0 4.301 1.915 4.301 4.301s-1.915 4.299-4.301 4.299c-2.385 0-4.301-1.913-4.301-4.299s1.915-4.301 4.301-4.301z"></path>
</svg>
