<!-- Generated by IcoMoon.io -->
<svg version="1.1" xmlns="http://www.w3.org/2000/svg" width="21" height="32" viewBox="0 0 21 32">
<title>location-r</title>
<path d="M10.25 0c-5.646 0-10.25 4.604-10.25 10.25 0 4.916 2.37 9.989 4.674 13.906s4.615 6.691 4.615 6.691l0.961 1.152 0.961-1.152c0 0 2.311-2.774 4.615-6.691s4.674-8.99 4.674-13.906c0-5.646-4.604-10.25-10.25-10.25zM10.25 2.5c4.295 0 7.75 3.455 7.75 7.75 0 4.083-2.133 8.906-4.328 12.639-1.714 2.914-2.755 4.123-3.422 4.965-0.667-0.842-1.708-2.051-3.422-4.965-2.196-3.732-4.328-8.556-4.328-12.639 0-4.295 3.455-7.75 7.75-7.75zM10.25 5.285c-2.747 0-4.973 2.226-4.973 4.973s2.226 4.975 4.973 4.975c2.747 0 4.973-2.228 4.973-4.975s-2.226-4.973-4.973-4.973z"></path>
</svg>
