<!-- Generated by IcoMoon.io -->
<svg version="1.1" xmlns="http://www.w3.org/2000/svg" width="24" height="32" viewBox="0 0 24 32">
<title>lock-s</title>
<path d="M12.174 0c-5.392 0-9.779 4.387-9.779 9.779v2.369c-0.298 0-0.596 0-0.895 0-0.828 0-1.5 0.672-1.5 1.5v0 6.176c-0.001 6.706 5.468 12.176 12.174 12.176s12.175-5.47 12.174-12.176v-6.176c0-0.828-0.672-1.5-1.5-1.5v0c-0.297 0-0.595 0-0.893 0v-2.369c0-5.392-4.389-9.779-9.781-9.779zM12.174 3c3.782 0 6.781 2.997 6.781 6.779v2.369c-4.52 0-9.040 0-13.561 0v-2.369c0-3.782 2.997-6.779 6.779-6.779zM12.172 17.564c1.362-0.006 2.475 1.102 2.475 2.465 0 0.763-0.386 1.446-0.975 1.912l-0.037 3.125c0 0.002 0 0.003 0 0.005 0 0.013-0.001 0.026-0.002 0.039v-0.002c-0.043 0.309-0.235 0.516-0.484 0.699s-0.582 0.322-0.961 0.322c-0.755 0-1.385-0.571-1.48-1.303-0.001-0.005-0.001-0.012-0.002-0.018v-0.001c-0.068-0.896-0.032-1.936-0.029-2.861-0.589-0.466-0.975-1.149-0.975-1.908 0-1.363 1.11-2.469 2.471-2.475z"></path>
</svg>
