<!-- Generated by IcoMoon.io -->
<svg version="1.1" xmlns="http://www.w3.org/2000/svg" width="32" height="32" viewBox="0 0 32 32">
<title>magic-wand-s</title>
<path d="M10 0v4h2v-4zM2 2v2l4 4 2-2-4-4zM18 2l-4 4 2 2 4-4v-2zM10.623 7.246c-0.384 0-0.769 0.146-1.061 0.438l-1.879 1.879c-0.583 0.583-0.583 1.538 0 2.121l5.434 5.434c1.334-1.334 2.667-2.668 4-4l-5.434-5.434c-0.291-0.292-0.676-0.438-1.061-0.438zM0 10v2h4v-2zM18 10v2h4v-2zM6 14l-4 4v2h2l4-4zM18.883 14.883c-1.333 1.332-2.667 2.666-4 4l12.68 12.68c0.583 0.583 1.538 0.583 2.121 0l1.879-1.879c0.583-0.583 0.583-1.538 0-2.121zM10 18v4h2v-4z"></path>
</svg>
