<!-- Generated by IcoMoon.io -->
<svg version="1.1" xmlns="http://www.w3.org/2000/svg" width="32" height="32" viewBox="0 0 32 32">
<title>magic-wand-l</title>
<path d="M10.194 0v3.5h1.5v-3.5zM2.301 2.301l0.105 1.609 3.434 3.436 1.506-1.506-3.436-3.434zM19.346 2.301l-1.611 0.105-3.434 3.434 1.504 1.506 3.434-3.436zM10.838 7.629c-0.531 0.049-0.933 0.264-1.291 0.451l-0.115 0.061-1.199 1.199c-0.879 0.879-0.879 2.328 0 3.207l18.793 18.793c0.879 0.879 2.328 0.879 3.207 0l1.107-1.107c0.879-0.879 0.879-2.328 0-3.207l-18.866-18.86c-0.502-0.397-1.106-0.587-1.637-0.537zM10.996 9.322c0.108-0.010 0.179-0.005 0.406 0.17l5.256 5.254-1.957 1.867-5.266-5.268c-0.223-0.223-0.223-0.58 0-0.803l0.994-0.994c0.254-0.125 0.47-0.218 0.566-0.227zM0 10.194v1.5h3.5v-1.5zM18.385 10.194v1.5h3.5v-1.5zM5.84 14.301l-3.434 3.434-0.105 1.611 1.609-0.107 3.436-3.434zM17.862 15.951l12.278 12.276c0.223 0.223 0.223 0.58 0 0.803l-1.109 1.109c-0.223 0.223-0.58 0.223-0.803 0l-12.322-12.323zM10.194 18.385v3.5h1.5v-3.5z"></path>
</svg>
