<!-- Generated by IcoMoon.io -->
<svg version="1.1" xmlns="http://www.w3.org/2000/svg" width="32" height="32" viewBox="0 0 32 32">
<title>medal-l</title>
<path d="M0 0.001l0.738 1.277c2.625 4.545 4.951 8.572 7.566 13.103-1.735 1.875-2.805 4.374-2.805 7.123 0 5.789 4.707 10.496 10.496 10.496s10.506-4.707 10.506-10.496c0-2.747-1.072-5.246-2.807-7.121 2.616-4.532 4.941-8.56 7.566-13.105l0.738-1.277h-1.469c-2.624-0.001-5.247-0.001-7.869 0h-0.494l-0.244 0.428c-1.988 3.442-3.94 6.821-5.924 10.26-1.984-3.438-3.935-6.817-5.924-10.26l-0.244-0.428h-0.494c-2.622-0.001-5.245-0.001-7.869 0zM2.938 1.698c1.971 0 3.944-0.001 5.914 0 1.829 3.166 3.626 6.287 5.451 9.451-1.758 0.287-3.368 1.007-4.719 2.055-2.286-3.96-4.388-7.595-6.646-11.506zM23.15 1.698c1.972-0.001 3.939 0 5.912 0-2.259 3.911-4.366 7.545-6.652 11.506-1.351-1.047-2.962-1.767-4.719-2.055 1.826-3.164 3.63-6.285 5.459-9.451zM15.996 12.698c4.87 0 8.807 3.936 8.807 8.806s-3.936 8.799-8.807 8.799-8.799-3.928-8.799-8.799c0-4.87 3.928-8.806 8.799-8.806zM15.996 14.801c-0.001 0-0.248 0.043-0.25 0.043s-0.168 0.073-0.17 0.074c-0.003 0.002-0.147 0.088-0.186 0.125-0.077 0.074-0.103 0.127-0.133 0.17-0.059 0.085-0.096 0.144-0.133 0.215-0.074 0.143-0.152 0.314-0.236 0.51-0.169 0.391-0.369 0.891-0.568 1.394s-0.392 1.004-0.545 1.381c-0.037 0.091-0.067 0.139-0.098 0.213-0.079 0.008-0.132 0.015-0.229 0.023-0.405 0.030-0.942 0.061-1.482 0.096s-1.082 0.071-1.506 0.111c-0.212 0.019-0.395 0.040-0.555 0.067-0.080 0.011-0.145 0.023-0.244 0.051-0.049 0.015-0.105 0.030-0.199 0.082-0.047 0.026-0.181 0.13-0.184 0.133-0.001 0.001-0.118 0.131-0.119 0.133s-0.117 0.235-0.117 0.236c0 0.001-0.045 0.256-0.045 0.258s0.023 0.184 0.023 0.186c0.001 0.004 0.043 0.159 0.066 0.207 0.046 0.096 0.078 0.142 0.109 0.184 0.062 0.082 0.113 0.134 0.17 0.191 0.113 0.115 0.247 0.236 0.406 0.377 0.319 0.282 0.736 0.629 1.152 0.975s0.84 0.691 1.15 0.953c0.073 0.062 0.11 0.095 0.17 0.147-0.018 0.078-0.027 0.135-0.051 0.231-0.097 0.395-0.235 0.921-0.369 1.445s-0.262 1.047-0.355 1.463c-0.046 0.208-0.085 0.385-0.109 0.545-0.012 0.080-0.021 0.149-0.023 0.252-0.001 0.052-0.004 0.108 0.016 0.213 0.010 0.053 0.065 0.211 0.066 0.215 0.001 0.002 0.095 0.153 0.096 0.154s0.184 0.185 0.186 0.186c0.001 0.001 0.227 0.117 0.229 0.117s0.182 0.045 0.184 0.045c0.004 0 0.17-0.001 0.223-0.008 0.106-0.015 0.156-0.026 0.205-0.045 0.098-0.034 0.164-0.067 0.236-0.104 0.144-0.072 0.305-0.165 0.488-0.274 0.366-0.217 0.82-0.499 1.277-0.789s0.909-0.582 1.254-0.797c0.084-0.052 0.131-0.085 0.199-0.127 0.069 0.042 0.122 0.074 0.207 0.127 0.345 0.215 0.799 0.507 1.256 0.797s0.909 0.572 1.275 0.789c0.183 0.108 0.344 0.201 0.488 0.274 0.072 0.038 0.139 0.070 0.236 0.104 0.049 0.015 0.101 0.030 0.207 0.045 0.053 0.008 0.217 0.008 0.221 0.008 0.002 0 0.184-0.045 0.186-0.045s0.227-0.116 0.229-0.117c0.001-0.001 0.183-0.184 0.184-0.186s0.095-0.152 0.096-0.154c0.002-0.003 0.057-0.163 0.066-0.215 0.019-0.105 0.017-0.161 0.016-0.213-0.002-0.103-0.009-0.172-0.021-0.252-0.024-0.16-0.065-0.337-0.111-0.545-0.093-0.415-0.221-0.939-0.355-1.463s-0.272-1.051-0.369-1.445c-0.024-0.096-0.032-0.153-0.051-0.231 0.059-0.051 0.097-0.085 0.17-0.147 0.311-0.262 0.735-0.608 1.152-0.953s0.823-0.693 1.143-0.975c0.16-0.141 0.301-0.262 0.414-0.377 0.057-0.057 0.108-0.109 0.17-0.191 0.031-0.041 0.065-0.087 0.111-0.184 0.023-0.048 0.066-0.203 0.066-0.207 0-0.002 0.021-0.184 0.021-0.186s-0.044-0.256-0.045-0.258c0-0.001-0.116-0.235-0.117-0.236s-0.118-0.131-0.119-0.133c-0.003-0.003-0.137-0.107-0.184-0.133-0.094-0.051-0.15-0.067-0.199-0.082-0.099-0.030-0.172-0.038-0.252-0.051-0.159-0.026-0.333-0.047-0.545-0.067-0.424-0.040-0.966-0.077-1.506-0.111s-1.079-0.066-1.484-0.096c-0.097-0.008-0.15-0.015-0.229-0.023-0.031-0.074-0.058-0.121-0.096-0.213-0.153-0.376-0.348-0.878-0.547-1.381s-0.399-1.004-0.568-1.395c-0.084-0.195-0.162-0.366-0.236-0.51-0.037-0.072-0.074-0.13-0.133-0.215-0.030-0.042-0.063-0.096-0.141-0.17-0.039-0.038-0.174-0.123-0.178-0.125-0.002-0.001-0.166-0.074-0.168-0.074s-0.258-0.043-0.26-0.043zM16.004 17.709c0.035 0.089 0.060 0.154 0.096 0.244 0.198 0.499 0.394 1.008 0.555 1.402 0.080 0.197 0.151 0.365 0.213 0.502 0.031 0.068 0.056 0.128 0.090 0.191 0.017 0.030 0.036 0.065 0.066 0.111 0.015 0.023 0.028 0.043 0.059 0.080 0.015 0.019 0.033 0.041 0.059 0.067 0.025 0.026 0.11 0.089 0.111 0.090s0.085 0.056 0.117 0.072c0.032 0.015 0.060 0.026 0.082 0.039 0.044 0.019 0.069 0.030 0.096 0.038 0.053 0.015 0.090 0.015 0.125 0.023 0.071 0.011 0.14 0.023 0.215 0.030 0.149 0.015 0.327 0.039 0.539 0.053 0.425 0.030 0.97 0.062 1.506 0.096 0.093 0.008 0.158 0.008 0.25 0.015-0.072 0.060-0.119 0.11-0.191 0.17-0.413 0.342-0.833 0.685-1.158 0.959-0.163 0.137-0.303 0.253-0.414 0.353-0.055 0.050-0.104 0.097-0.154 0.149-0.025 0.026-0.047 0.053-0.082 0.096-0.017 0.023-0.041 0.042-0.066 0.082-0.013 0.019-0.029 0.048-0.045 0.080-0.016 0.030-0.050 0.126-0.051 0.127s-0.024 0.103-0.029 0.139c-0.006 0.034-0.014 0.058-0.016 0.082-0.003 0.048-0.001 0.084 0 0.111 0.003 0.055 0.011 0.090 0.016 0.125 0.010 0.071 0.022 0.134 0.037 0.207 0.031 0.147 0.074 0.324 0.125 0.531 0.102 0.413 0.236 0.941 0.369 1.461 0.023 0.090 0.036 0.156 0.059 0.244-0.078-0.049-0.137-0.083-0.215-0.133-0.453-0.287-0.908-0.58-1.27-0.805-0.181-0.112-0.335-0.207-0.465-0.281-0.065-0.038-0.119-0.072-0.184-0.104-0.032-0.015-0.068-0.034-0.119-0.051-0.026-0.011-0.057-0.019-0.104-0.030-0.023-0.008-0.052-0.008-0.088-0.015-0.035-0.004-0.139-0.015-0.141-0.015s-0.097 0.008-0.133 0.015c-0.035 0.008-0.065 0.008-0.088 0.015-0.046 0.011-0.078 0.019-0.104 0.030-0.052 0.019-0.087 0.034-0.119 0.051-0.065 0.030-0.119 0.066-0.184 0.104-0.13 0.074-0.284 0.169-0.465 0.281-0.362 0.225-0.816 0.517-1.27 0.805-0.081 0.052-0.142 0.090-0.223 0.141 0.023-0.091 0.037-0.16 0.061-0.252 0.133-0.52 0.273-1.048 0.375-1.461 0.051-0.207 0.096-0.385 0.127-0.531 0.015-0.073 0.027-0.136 0.037-0.207 0.005-0.034 0.003-0.070 0.006-0.125 0.001-0.026 0.003-0.064 0-0.111-0.001-0.023 0-0.047-0.006-0.082-0.006-0.034-0.031-0.138-0.031-0.139s-0.042-0.095-0.059-0.127c-0.016-0.030-0.024-0.060-0.037-0.080-0.026-0.040-0.049-0.060-0.066-0.082-0.035-0.043-0.055-0.070-0.080-0.096-0.050-0.051-0.101-0.098-0.156-0.149-0.111-0.101-0.249-0.217-0.412-0.353-0.325-0.274-0.747-0.617-1.16-0.959-0.073-0.060-0.12-0.11-0.191-0.17 0.092-0.008 0.159-0.008 0.252-0.015 0.536-0.034 1.081-0.065 1.506-0.096 0.212-0.015 0.388-0.034 0.537-0.053 0.074-0.008 0.144-0.019 0.215-0.030 0.035-0.008 0.072-0.008 0.125-0.023 0.027-0.008 0.051-0.019 0.096-0.038 0.022-0.008 0.050-0.019 0.082-0.039 0.032-0.015 0.118-0.071 0.119-0.072s0.084-0.065 0.109-0.090c0.025-0.026 0.043-0.048 0.059-0.067 0.030-0.038 0.045-0.057 0.061-0.080 0.030-0.046 0.050-0.080 0.066-0.111 0.034-0.064 0.057-0.123 0.088-0.191 0.061-0.136 0.135-0.305 0.215-0.502 0.16-0.394 0.355-0.904 0.553-1.402 0.036-0.091 0.068-0.154 0.104-0.244z"></path>
</svg>
