<!-- Generated by IcoMoon.io -->
<svg version="1.1" xmlns="http://www.w3.org/2000/svg" width="32" height="32" viewBox="0 0 32 32">
<title>medal-s</title>
<path d="M0 0.001l1.299 2.252c1.933 3.347 3.718 6.437 5.576 9.654 2.281-2.152 5.304-3.512 8.627-3.637-1.448-2.506-2.89-4.994-4.348-7.517l-0.428-0.752h-0.871c-2.419-0.001-4.837-0.001-7.258 0zM21.275 0.001l-0.43 0.752c-1.457 2.522-2.894 5.012-4.34 7.517 3.319 0.128 6.339 1.488 8.619 3.639 1.858-3.218 3.643-6.309 5.576-9.656l1.299-2.252h-2.598c-2.421-0.001-4.837-0.001-7.256 0zM15.996 11.198c-5.727 0-10.4 4.675-10.4 10.402s4.673 10.4 10.4 10.4 10.408-4.673 10.408-10.4c0-5.727-4.681-10.402-10.408-10.402zM16 15.891c0.172 0 1.566 3.859 1.705 3.961s4.242 0.234 4.295 0.398c0.053 0.164-3.187 2.682-3.24 2.846s1.087 4.104 0.947 4.205c-0.14 0.101-3.535-2.201-3.707-2.201s-3.567 2.302-3.707 2.201c-0.14-0.101 1.001-4.041 0.947-4.205s-3.294-2.682-3.24-2.846 4.155-0.297 4.295-0.398c0.14-0.101 1.533-3.961 1.705-3.961z"></path>
</svg>
