<!-- Generated by IcoMoon.io -->
<svg version="1.1" xmlns="http://www.w3.org/2000/svg" width="32" height="32" viewBox="0 0 32 32">
<title>menu-apps-alt-s</title>
<path d="M3.84 0c-2.12 0-3.84 1.72-3.84 3.84s1.72 3.844 3.84 3.844c2.12 0 3.844-1.724 3.844-3.844s-1.724-3.84-3.844-3.84zM16 0c-2.12 0-3.838 1.72-3.838 3.84s1.718 3.844 3.838 3.844c2.12 0 3.84-1.724 3.84-3.844s-1.72-3.84-3.84-3.84zM28.16 0c-2.12 0-3.844 1.72-3.844 3.84s1.724 3.844 3.844 3.844c2.12 0 3.84-1.724 3.84-3.844s-1.72-3.84-3.84-3.84zM3.84 12.16c-2.12 0-3.84 1.72-3.84 3.84s1.72 3.84 3.84 3.84c2.12 0 3.844-1.72 3.844-3.84s-1.724-3.84-3.844-3.84zM16 12.16c-2.12 0-3.838 1.72-3.838 3.84s1.718 3.84 3.838 3.84c2.12 0 3.84-1.72 3.84-3.84s-1.72-3.84-3.84-3.84zM28.16 12.16c-2.12 0-3.844 1.72-3.844 3.84s1.724 3.84 3.844 3.84c2.12 0 3.84-1.72 3.84-3.84s-1.72-3.84-3.84-3.84zM3.84 24.316c-2.12 0-3.84 1.724-3.84 3.844s1.72 3.84 3.84 3.84c2.12 0 3.844-1.72 3.844-3.84s-1.724-3.844-3.844-3.844zM16 24.316c-2.12 0-3.838 1.724-3.838 3.844s1.718 3.84 3.838 3.84c2.12 0 3.84-1.72 3.84-3.84s-1.72-3.844-3.84-3.844zM28.16 24.316c-2.12 0-3.844 1.724-3.844 3.844s1.724 3.84 3.844 3.84c2.12 0 3.84-1.72 3.84-3.84s-1.72-3.844-3.84-3.844z"></path>
</svg>
