<!-- Generated by IcoMoon.io -->
<svg version="1.1" xmlns="http://www.w3.org/2000/svg" width="32" height="32" viewBox="0 0 32 32">
<title>menu-list-s</title>
<path d="M0 4.001v4.301h4.301v-4.301zM8 4.001v4.301c8.001-0.001 16.001-0.001 24 0v-4.301c-7.999-0.001-15.999-0.001-24 0zM0 13.85v4.301h4.301v-4.301zM8 13.85v4.301c8.001-0.001 16.001-0.001 24 0v-4.301c-7.999-0.001-15.999-0.001-24 0zM0 23.699v4.301h4.301v-4.301zM8 23.699v4.301c8.001-0.001 16.001-0.001 24 0v-4.301c-7.999-0.001-15.999-0.001-24 0z"></path>
</svg>
