<!-- Generated by IcoMoon.io -->
<svg version="1.1" xmlns="http://www.w3.org/2000/svg" width="20" height="32" viewBox="0 0 20 32">
<title>mic-r</title>
<path d="M10.174 0c-3.026 0-5.506 2.479-5.506 5.506v10.217c0 3.026 2.479 5.506 5.506 5.506s5.506-2.479 5.506-5.506v-10.217c0-3.026-2.479-5.506-5.506-5.506zM10.174 2.5c1.675 0 3.006 1.331 3.006 3.006v10.217c0 1.675-1.331 3.006-3.006 3.006s-3.006-1.331-3.006-3.006v-10.217c0-1.675 1.331-3.006 3.006-3.006zM0 14.808v0.635c0 5.19 3.899 9.469 8.924 10.088 0 1.297 0 2.658 0 3.969-1.186 0-2.372 0-3.559 0v2.5c3.208 0.001 6.413 0.001 9.617 0v-2.5c-1.185 0-2.372 0-3.559 0 0-1.311 0-2.672 0-3.969 5.024-0.618 8.924-4.897 8.924-10.088v-0.635h-2.5v0.635c0 4.273-3.401 7.674-7.674 7.674s-7.674-3.401-7.674-7.674v-0.635z"></path>
</svg>
