<!-- Generated by IcoMoon.io -->
<svg version="1.1" xmlns="http://www.w3.org/2000/svg" width="19" height="32" viewBox="0 0 19 32">
<title>mic-l</title>
<path d="M9.435 0c-2.874 0-5.223 2.349-5.223 5.223v10.492c0 2.874 2.349 5.223 5.223 5.223s5.223-2.349 5.223-5.223v-10.492c0-2.874-2.349-5.223-5.223-5.223zM9.435 1.701c1.955 0 3.521 1.567 3.521 3.521v10.492c0 1.955-1.567 3.521-3.521 3.521s-3.521-1.567-3.521-3.521v-10.492c0-1.955 1.567-3.521 3.521-3.521zM0 13.355v2.535c0 4.926 3.772 8.962 8.586 9.392 0.001 1.547 0.001 3.432 0 5.015-1.363 0-2.726 0-4.090 0v1.701c3.295 0.001 6.588 0.001 9.879 0v-1.701c-1.362 0-2.727 0-4.090 0 0.001-1.584 0.001-3.468 0-5.015 4.813-0.43 8.586-4.467 8.586-9.392v-2.535h-1.701v2.535c0 4.3-3.434 7.736-7.734 7.736s-7.734-3.436-7.734-7.736v-2.535z"></path>
</svg>
