<!-- Generated by IcoMoon.io -->
<svg version="1.1" xmlns="http://www.w3.org/2000/svg" width="21" height="32" viewBox="0 0 21 32">
<title>mobile-alt-l</title>
<path d="M3.689 0c-2.026 0-3.689 1.665-3.689 3.691v24.617c0 2.026 1.664 3.691 3.689 3.691h13.258c2.026 0 3.689-1.665 3.689-3.691v-24.617c0-2.026-1.664-3.691-3.689-3.691zM3.689 1.699h13.258c1.099 0 1.99 0.893 1.99 1.992v18.746c-5.745-0.001-11.492-0.001-17.238 0v-18.746c0-1.099 0.891-1.992 1.99-1.992zM6.568 3.316v1.699c2.501-0.001 5.001-0.001 7.5 0v-1.699c-2.499-0.001-4.999-0.001-7.5 0zM1.699 24.139c5.747-0.001 11.493-0.001 17.238 0v4.17c0 1.099-0.891 1.992-1.99 1.992h-13.258c-1.099 0-1.99-0.893-1.99-1.992zM10.318 25.801c-0.829 0-1.5 0.671-1.5 1.5s0.671 1.5 1.5 1.5c0.829 0 1.5-0.671 1.5-1.5s-0.671-1.5-1.5-1.5z"></path>
</svg>
