<!-- Generated by IcoMoon.io -->
<svg version="1.1" xmlns="http://www.w3.org/2000/svg" width="23" height="32" viewBox="0 0 23 32">
<title>mobile-l</title>
<path d="M2.744 0c-1.505 0-2.744 1.239-2.744 2.744v26.512c0 1.505 1.239 2.744 2.744 2.744h17.043c1.505 0 2.744-1.239 2.744-2.744v-26.512c0-1.505-1.239-2.744-2.744-2.744zM2.744 1.699h17.043c0.578 0 1.045 0.467 1.045 1.045v21.342c-6.377-0.001-12.754-0.001-19.133 0v-21.342c0-0.578 0.467-1.045 1.045-1.045zM1.699 25.086c6.378-0.001 12.756-0.001 19.133 0v4.17c0 0.578-0.467 1.045-1.045 1.045h-17.043c-0.578 0-1.045-0.467-1.045-1.045zM11.266 26.355c-0.69 0-1.25 0.56-1.25 1.25s0.56 1.25 1.25 1.25c0.69 0 1.25-0.56 1.25-1.25s-0.56-1.25-1.25-1.25z"></path>
</svg>
