<!-- Generated by IcoMoon.io -->
<svg version="1.1" xmlns="http://www.w3.org/2000/svg" width="32" height="32" viewBox="0 0 32 32">
<title>mug-hot-l</title>
<path d="M8.008 0c-0.252 0.006-0.475 0.124-0.622 0.305l-0.001 0.002c-0.431 0.521-0.606 1.197-0.481 1.862 0.073 0.388 0.239 0.719 0.428 0.996 0.188 0.276 0.397 0.497 0.593 0.689 0.282 0.277 0.546 0.505 0.754 0.727 0.207 0.22 0.362 0.436 0.441 0.634 0.133 0.33 0.128 0.796 0.023 1.299-0.045 0.213-0.101 0.423-0.17 0.629-0.035 0.088-0.056 0.191-0.056 0.298 0 0.455 0.369 0.824 0.824 0.824 0.374 0 0.69-0.249 0.79-0.59l0.001-0.006c0.090-0.268 0.165-0.541 0.223-0.818 0.141-0.673 0.208-1.467-0.108-2.252-0.19-0.471-0.48-0.84-0.767-1.146-0.285-0.304-0.568-0.548-0.801-0.776-0.161-0.159-0.294-0.306-0.388-0.443s-0.149-0.267-0.169-0.371c-0.031-0.162 0.025-0.378 0.131-0.506 0.122-0.143 0.196-0.33 0.196-0.534 0-0.455-0.369-0.824-0.824-0.824-0.006 0-0.012 0-0.019 0h0.001zM13.438 0c-0.252 0.006-0.475 0.124-0.622 0.305l-0.001 0.002c-0.431 0.521-0.606 1.197-0.481 1.862 0.073 0.388 0.239 0.719 0.428 0.996 0.188 0.276 0.399 0.497 0.595 0.689 0.282 0.277 0.546 0.505 0.754 0.727 0.207 0.22 0.36 0.436 0.439 0.634 0.133 0.33 0.128 0.796 0.023 1.299-0.045 0.213-0.101 0.423-0.17 0.629-0.027 0.079-0.043 0.169-0.043 0.263 0 0.455 0.369 0.824 0.824 0.824 0.361 0 0.668-0.232 0.78-0.555l0.002-0.006c0.090-0.268 0.164-0.541 0.222-0.818 0.141-0.673 0.208-1.467-0.108-2.252-0.19-0.471-0.48-0.84-0.767-1.146-0.285-0.304-0.566-0.548-0.799-0.776-0.161-0.159-0.294-0.306-0.388-0.443s-0.149-0.267-0.169-0.371c-0.031-0.162 0.025-0.378 0.131-0.506 0.122-0.143 0.196-0.33 0.196-0.534 0-0.455-0.369-0.824-0.824-0.824-0.007 0-0.014 0-0.021 0h0.001zM1.83 9.527c-0.415 0-0.77 0.197-0.998 0.47s-0.347 0.617-0.347 0.964v15.991c0 2.879 2.493 5.155 5.477 5.155h11.379c2.984 0 5.479-2.276 5.479-5.155v-5.593h2.782c3.256-0.001 5.913-2.661 5.913-5.917s-2.657-5.914-5.913-5.915h-3.746c0 0-0.001 0-0.001 0s-0.001 0-0.001 0v0c-0.080 0-0.155 0.031-0.233 0.051-0.048-0.024-0.071-0.051-0.146-0.051h-15.513zM2.417 11.46h18.47v15.491c0 1.762-1.524 3.222-3.545 3.222h-11.379c-2.022 0-3.545-1.46-3.545-3.222v-12.271zM22.822 11.46h2.778c2.211 0 3.983 1.77 3.983 3.981s-1.77 3.982-3.981 3.983h-2.78z"></path>
</svg>
