<!-- Generated by IcoMoon.io -->
<svg version="1.1" xmlns="http://www.w3.org/2000/svg" width="32" height="32" viewBox="0 0 32 32">
<title>mug-hot-s</title>
<path d="M8.287 0c-0.287 0.007-0.542 0.142-0.71 0.349l-0.001 0.002c-0.447 0.539-0.628 1.235-0.498 1.923 0.075 0.4 0.245 0.739 0.438 1.020 0.191 0.279 0.401 0.5 0.594 0.689 0.277 0.273 0.533 0.494 0.728 0.702 0.194 0.207 0.331 0.403 0.399 0.572 0.113 0.282 0.116 0.704 0.017 1.178-0.042 0.201-0.096 0.401-0.162 0.596-0.037 0.097-0.059 0.21-0.059 0.327 0 0.52 0.421 0.941 0.941 0.941 0.422 0 0.78-0.278 0.899-0.661l0.002-0.007c0.090-0.265 0.163-0.535 0.221-0.809 0.14-0.668 0.21-1.468-0.112-2.268-0.193-0.481-0.487-0.852-0.772-1.156-0.284-0.302-0.559-0.541-0.781-0.759-0.154-0.151-0.275-0.286-0.358-0.408-0.082-0.12-0.127-0.23-0.142-0.307-0.022-0.115 0.021-0.283 0.096-0.373 0.14-0.163 0.225-0.377 0.225-0.61 0-0.52-0.421-0.941-0.941-0.941-0.007 0-0.014 0-0.022 0h0.001zM13.557 0c-0.287 0.007-0.542 0.142-0.71 0.349l-0.001 0.002c-0.447 0.539-0.626 1.235-0.496 1.923 0.075 0.4 0.243 0.739 0.436 1.020 0.191 0.279 0.403 0.5 0.596 0.689 0.277 0.273 0.531 0.494 0.726 0.702 0.194 0.207 0.331 0.403 0.399 0.572 0.113 0.282 0.116 0.704 0.017 1.178-0.042 0.201-0.096 0.401-0.162 0.596-0.037 0.097-0.059 0.21-0.059 0.327 0 0.52 0.421 0.941 0.941 0.941 0.422 0 0.78-0.278 0.899-0.661l0.002-0.007c0.090-0.265 0.163-0.535 0.221-0.809 0.14-0.668 0.21-1.468-0.112-2.268-0.193-0.481-0.487-0.852-0.772-1.156-0.284-0.302-0.559-0.541-0.781-0.759-0.154-0.151-0.275-0.286-0.358-0.408-0.082-0.12-0.127-0.23-0.142-0.307-0.022-0.115 0.023-0.283 0.097-0.373 0.14-0.163 0.225-0.377 0.225-0.61 0-0.52-0.421-0.941-0.941-0.941-0.008 0-0.016 0-0.024 0h0.001zM1.346 10.089c-0.224 0-0.404 0.223-0.404 0.5v17.138c0 2.487 2.157 4.491 4.836 4.491h12.195c2.68 0 4.836-2.004 4.836-4.491v-5.752h2.307c0 0 0.001 0 0.001 0s0.001 0 0.001 0v0c3.267-0.001 5.941-2.676 5.941-5.943s-2.675-5.942-5.941-5.943c0 0-0.001 0-0.001 0s-0.001 0-0.001 0h-19.338zM22.809 12.57h2.307c1.925 0 3.461 1.536 3.461 3.461s-1.536 3.461-3.461 3.461h-2.307v-4.915z"></path>
</svg>
