<!-- Generated by IcoMoon.io -->
<svg version="1.1" xmlns="http://www.w3.org/2000/svg" width="32" height="32" viewBox="0 0 32 32">
<title>mug-hearts-l</title>
<path d="M12.638 0.002c-0.119-0.005-0.242 0.001-0.365 0.024-0.004 0.002-0.005 0.003-0.006 0.003l0.003-0.002c-0.249 0.047-0.502 0.167-0.7 0.365-0.36 0.359-0.494 0.859-0.447 1.309 0.046 0.452 0.251 0.875 0.58 1.204l1.641 1.641c0.104 0.104 0.248 0.168 0.406 0.168s0.302-0.064 0.406-0.168l1.641-1.641c0.329-0.329 0.534-0.751 0.58-1.204 0.047-0.451-0.088-0.95-0.447-1.309-0.198-0.198-0.451-0.318-0.7-0.365 0.002 0.001 0.001 0 0 0l-0.003-0.002c-0.247-0.046-0.49-0.027-0.721 0.026v-0.002c-0.291 0.066-0.516 0.248-0.756 0.405-0.24-0.157-0.465-0.34-0.755-0.405h-0.002c-0.079-0.018-0.162-0.025-0.245-0.034-0.032-0.008-0.070-0.013-0.108-0.014h-0.001zM12.591 1.149c0.041 0.002 0.089 0.008 0.146 0.021 0 0 0.001 0 0.001 0s0.001 0 0.001 0v0c0.204 0.046 0.461 0.188 0.615 0.333l-0.005-0.011c0.001 0.001 0.003 0.002 0.005 0.004l0.001 0.001c0.013 0.013 0.026 0.025 0.041 0.036l0.001 0.001c0 0 0.001 0 0.001 0s0.001 0 0.001 0v0c0.013 0.011 0.028 0.022 0.043 0.032l0.002 0.001c0.004 0.002 0.012 0.006 0.019 0.010l0.003 0.002c-0.002-0.001-0.001 0 0 0l0.003 0.002c0.006 0.004 0.014 0.008 0.023 0.013l0.003 0.002c0 0 0.001 0 0.001 0s0.001 0 0.001 0v0c0.013 0.007 0.030 0.014 0.047 0.021l0.004 0.001c0 0 0.001 0 0.001 0s0.001 0 0.001 0v0c0.013 0.005 0.031 0.011 0.049 0.017l0.004 0.001c0 0 0.001 0 0.001 0s0.001 0 0.001 0v0c0.014 0.004 0.033 0.008 0.051 0.011h0.003c0 0 0.001 0 0.001 0s0.001 0 0.001 0v0c0.016 0.003 0.035 0.005 0.054 0.006h0.002c0.008 0 0.018 0.001 0.028 0.001s0.020 0 0.029-0.001h-0.001c0.062-0.002 0.12-0.014 0.174-0.033l-0.004 0.001c0.022-0.008 0.039-0.016 0.056-0.024l-0.003 0.002c0.015-0.007 0.026-0.013 0.036-0.019l-0.003 0.001c0 0 0.002-0.002 0.002-0.002 0.008-0.004 0.012-0.007 0.017-0.010l-0.003 0.001c0.039-0.024 0.072-0.049 0.103-0.079v0l-0.005 0.011c0.155-0.145 0.413-0.287 0.617-0.333 0 0 0.001 0 0.001 0s0.001 0 0.001 0v0c0.108-0.025 0.195-0.025 0.253-0.014 0.054 0.010 0.076 0.023 0.103 0.050 0.1 0.1 0.135 0.208 0.117 0.378 0 0 0 0.001 0 0.001s0 0.001 0 0.001v0c-0.017 0.167-0.112 0.37-0.25 0.508l-1.236 1.236-1.236-1.236c-0.138-0.138-0.231-0.341-0.248-0.508 0 0 0-0.001 0-0.001s0-0.001 0-0.001v0c-0.018-0.17 0.016-0.279 0.115-0.378 0.026-0.026 0.050-0.039 0.104-0.050 0.030-0.005 0.064-0.008 0.107-0.006zM13.266 1.391c0.007 0.011 0.014 0.020 0.020 0.029l-0.001-0.001c-0.002-0.002-0.014-0.013-0.014-0.013s-0.004-0.013-0.005-0.014zM14.229 1.393c0 0.001-0.003 0.013-0.003 0.013s-0.009 0.007-0.010 0.008c0.003-0.004 0.007-0.011 0.011-0.018l0.001-0.003zM7.035 4.697c-0.165-0.007-0.333 0.003-0.498 0.034 0 0-0.001 0-0.002 0s-0.001 0-0.002 0v0c-0.334 0.064-0.665 0.223-0.926 0.484-0.488 0.488-0.669 1.156-0.604 1.78s0.353 1.223 0.813 1.683l2.559 2.559c0.104 0.104 0.248 0.168 0.406 0.168s0.302-0.064 0.406-0.168l2.559-2.559c0.46-0.46 0.749-1.058 0.813-1.683h-0.002c0.065-0.624-0.115-1.293-0.603-1.78-0.261-0.261-0.592-0.42-0.926-0.484 0 0-0.001 0-0.002 0s-0.001 0-0.002 0v0c-0.332-0.061-0.669-0.040-0.995 0.035-0.473 0.107-0.866 0.392-1.248 0.671-0.383-0.28-0.777-0.564-1.252-0.671-0.162-0.037-0.327-0.062-0.495-0.069zM6.989 5.847c0.087 0.004 0.183 0.016 0.287 0.040 0.385 0.087 0.825 0.331 1.111 0.599l-0.005-0.011c0.001 0.001 0.003 0.002 0.005 0.004l0.002 0.001c0.013 0.013 0.026 0.025 0.041 0.036l0.001 0.001c0 0 0.001 0 0.001 0s0.001 0 0.001 0v0c0.021 0.016 0.044 0.031 0.068 0.045l0.003 0.002c0.006 0.004 0.014 0.008 0.023 0.013l0.003 0.002c0 0 0.001 0 0.001 0s0.001 0 0.001 0v0c0.013 0.007 0.030 0.014 0.047 0.021l0.004 0.001c0 0 0.001 0 0.001 0s0.001 0 0.001 0v0c0.013 0.005 0.031 0.011 0.049 0.017l0.004 0.001c0 0 0.001 0 0.001 0s0.001 0 0.001 0v0c0.014 0.004 0.032 0.008 0.051 0.011h0.003c0 0 0.001 0 0.001 0s0.001 0 0.001 0v0c0.016 0.003 0.035 0.005 0.054 0.006h0.002c0 0 0.001 0 0.001 0s0.001 0 0.001 0v0c0.009 0.001 0.020 0.001 0.031 0.001 0.062 0 0.121-0.010 0.176-0.028l-0.004 0.001c0.010-0.003 0.010-0.003 0.019-0.006s0.012-0.005 0.017-0.006l-0.004 0.001c0.018-0.007 0.032-0.013 0.045-0.019l-0.003 0.002c0.012-0.006 0.021-0.011 0.030-0.016l-0.003 0.001c0 0 0.003-0.001 0.003-0.002 0.027-0.014 0.049-0.029 0.070-0.044l-0.002 0.001c0.019-0.014 0.036-0.028 0.052-0.043v0l-0.003 0.008c0.286-0.268 0.726-0.512 1.111-0.599 0 0 0.001 0 0.001 0s0.001 0 0.001 0v0c0.202-0.046 0.384-0.052 0.527-0.026 0.139 0.026 0.24 0.078 0.329 0.167 0.228 0.228 0.308 0.506 0.272 0.849 0 0 0 0.001 0 0.001s0 0.001 0 0.001v0c-0.035 0.34-0.212 0.718-0.481 0.987l-2.154 2.154-2.154-2.154c-0.268-0.269-0.446-0.648-0.481-0.987 0 0 0-0.001 0-0.001s0-0.001 0-0.001v0c-0.036-0.343 0.046-0.621 0.274-0.849 0.089-0.089 0.19-0.14 0.329-0.167 0.072-0.013 0.151-0.018 0.24-0.014zM15.631 6.29c-0.146-0.007-0.297 0.007-0.446 0.046-0.543 0.146-0.946 0.547-1.152 1.008-0.207 0.462-0.247 0.988-0.112 1.49 0 0 0.001 0 0.001 0s0.001 0 0.001 0v0l0.7 2.615c0.068 0.247 0.291 0.425 0.555 0.425 0.053 0 0.104-0.007 0.153-0.021l-0.004 0.001 2.615-0.7c0.503-0.135 0.939-0.431 1.236-0.841 0.296-0.409 0.444-0.958 0.298-1.502-0.079-0.296-0.253-0.55-0.465-0.732 0.002 0.001 0.001 0 0 0l-0.003-0.002c-0.21-0.18-0.453-0.298-0.707-0.377h-0.002c-0.338-0.105-0.683-0.058-1.024-0.032-0.148-0.309-0.28-0.631-0.54-0.872-0.097-0.090-0.202-0.172-0.317-0.245-0.029-0.019-0.063-0.036-0.099-0.050l-0.004-0.001c0.002 0.001 0.001 0 0 0l-0.003-0.002c-0.083-0.046-0.166-0.094-0.258-0.127 0.002 0.001 0.001 0 0 0l-0.003-0.002c-0.132-0.046-0.274-0.074-0.42-0.082zM8.301 6.379c0.004 0.007 0.008 0.012 0.011 0.016l-0.001-0.002c0 0-0.006-0.005-0.006-0.005s-0.003-0.009-0.003-0.010zM9.261 6.379c0 0.001-0.003 0.010-0.003 0.010s-0.009 0.007-0.010 0.008c0.003-0.004 0.008-0.010 0.012-0.016l0.001-0.002zM15.484 7.446c0.061-0.016 0.113-0.015 0.189 0.011 0.040 0.015 0.083 0.035 0.131 0.066 0.047 0.029 0.098 0.070 0.151 0.119 0.194 0.18 0.378 0.484 0.455 0.739v-0.003c0.018 0.057 0.042 0.107 0.072 0.153l-0.001-0.002c0-0.001-0.006-0.012-0.006-0.014 0.015 0.023 0.030 0.043 0.046 0.062l-0.001-0.001c-0.013-0.015-0.029-0.031-0.032-0.034 0.029 0.041 0.062 0.077 0.099 0.108l0.001 0.001c-0.004-0.005-0.015-0.017-0.026-0.029 0.067 0.065 0.149 0.115 0.241 0.142l0.004 0.001c-0.020-0.005-0.038-0.008-0.045-0.010 0.041 0.016 0.089 0.027 0.139 0.032h0.002c-0.007-0.002-0.022-0.005-0.040-0.010 0.023 0.004 0.050 0.007 0.078 0.008h0.001c-0.001 0-0.011 0.003-0.011 0.003 0.010 0.001 0.022 0.001 0.034 0.001 0.047 0 0.093-0.006 0.136-0.016l-0.004 0.001-0.003 0.002c0.259-0.061 0.615-0.053 0.867 0.026 0 0 0.001 0 0.001 0s0.001 0 0.001 0v0c0.133 0.041 0.233 0.096 0.298 0.151 0.061 0.053 0.089 0.097 0.106 0.159 0.050 0.188 0.012 0.352-0.119 0.532-0.129 0.178-0.359 0.341-0.601 0.405l-2.061 0.551-0.553-2.059v-0.002c-0.064-0.242-0.040-0.523 0.050-0.723 0 0 0.001 0 0.001 0s0.001 0 0.001 0v0c0.091-0.203 0.212-0.318 0.401-0.369zM4.010 12.871c-0.351 0-0.651 0.166-0.845 0.397s-0.293 0.522-0.293 0.816v13.53c0 2.436 2.11 4.362 4.635 4.362h9.628c2.525 0 4.636-1.926 4.636-4.362v-4.732h2.354c2.755-0.001 5.003-2.251 5.003-5.006s-2.248-5.004-5.003-5.005h-3.17c0 0-0.001 0-0.001 0s-0.001 0-0.001 0v0c-0.068 0-0.132 0.026-0.197 0.043-0.040-0.020-0.060-0.043-0.123-0.043h-13.127zM4.506 14.507h15.628v13.107c0 1.491-1.289 2.726-3 2.726h-9.628c-1.711 0-3-1.235-3-2.726v-10.383zM21.772 14.507h2.351c1.871 0 3.37 1.497 3.37 3.369s-1.498 3.369-3.369 3.37h-2.353z"></path>
</svg>
