<!-- Generated by IcoMoon.io -->
<svg version="1.1" xmlns="http://www.w3.org/2000/svg" width="32" height="32" viewBox="0 0 32 32">
<title>newspaper-l</title>
<path d="M0 3.5v22.652c0 1.554 1.278 2.832 2.832 2.832h26.26c1.051 0 1.946-0.537 2.383-1.297s0.525-1.633 0.525-2.525v-17.697h-3.164v-3.965zM1.699 5.199h25.436v22.086h-24.303c-0.636 0-1.133-0.497-1.133-1.133zM28.836 9.164h1.465v15.998c0 0.749-0.119 1.362-0.301 1.678s-0.317 0.443-0.908 0.443h-0.256zM4.814 9.957v1.701c6.608-0.001 13.215-0.001 19.82 0v-1.701c-6.606-0.001-13.212-0.001-19.82 0zM4.346 13.902v10.236h10.236v-10.236zM16.707 14.432v1.701c2.644-0.001 5.286-0.001 7.928 0v-1.701c-2.642-0.001-5.284-0.001-7.928 0zM6.047 15.602h6.834v6.836h-6.834zM16.707 18.52v1.701c2.644-0.001 5.286-0.001 7.928 0v-1.701c-2.642-0.001-5.284-0.001-7.928 0zM16.705 22.607l0.002 1.701c1.827-0.001 3.651-0.001 5.477 0l0.002-1.701c-1.826-0.001-3.653-0.001-5.48 0z"></path>
</svg>
