<!-- Generated by IcoMoon.io -->
<svg version="1.1" xmlns="http://www.w3.org/2000/svg" width="32" height="32" viewBox="0 0 32 32">
<title>newspaper-r</title>
<path d="M0 3v22.684c0 1.752 1.448 3.199 3.199 3.199h26.678c1.694 0 2.123-1.374 2.123-3.068v-17.381h-2.822v-5.434zM2.5 5.5h24.178v20.883h-23.479c-0.402 0-0.699-0.298-0.699-0.699zM4.814 9.084v2c6.608-0.001 13.215-0.001 19.82 0v-2c-6.606-0.001-13.212-0.001-19.82 0zM16.707 13.359v2c2.643-0.001 5.286-0.001 7.928 0v-2c-2.642-0.001-5.284-0.001-7.928 0zM4.996 13.564v9.5h9.5v-9.5zM16.707 17.646v2c2.643-0.001 5.286-0.001 7.928 0v-2c-2.642-0.001-5.284-0.001-7.928 0zM16.705 21.936l0.002 2c1.827-0.001 3.651-0.001 5.477 0l0.002-2c-1.826-0.001-3.653-0.001-5.48 0z"></path>
</svg>
