<!-- Generated by IcoMoon.io -->
<svg version="1.1" xmlns="http://www.w3.org/2000/svg" width="32" height="32" viewBox="0 0 32 32">
<title>notification-l</title>
<path d="M15.274 0.501c-1.501 0.024-2.978 0.526-4.182 1.432-1.723 1.297-2.724 3.264-3.215 5.242-0.662 2.669-0.485 5.323-0.846 7.748-0.148 0.994-0.382 1.95-0.779 2.805-0.395 0.851-0.965 1.608-1.676 2.123-0.425 0.308-0.956 0.565-1.533 0.863-0.578 0.299-1.212 0.646-1.77 1.182-0.447 0.43-0.813 0.957-1.037 1.561-0.245 0.66-0.296 1.374-0.17 2.064-0.004 0.029-0.006 0.063-0.006 0.098 0 0.47 0.381 0.852 0.852 0.852 0.009 0 0.019 0 0.028 0h-0.001l9.973-0.098c0.073 0.737 0.105 1.492 0.465 2.145 0.462 0.835 1.139 1.541 1.955 2.035 0.716 0.433 1.526 0.685 2.357 0.758 0.069 0.020 0.148 0.032 0.23 0.032 0.008 0 0.017 0 0.025 0h-0.001c0.016 0 0.032-0.003 0.049-0.004 0.016 0.001 0.032 0.003 0.049 0.004 0.008 0 0.018 0 0.028 0 0.082 0 0.161-0.012 0.236-0.033l-0.006 0.001c0.83-0.073 1.639-0.325 2.354-0.758 0.817-0.494 1.494-1.2 1.955-2.035 0.36-0.652 0.392-1.407 0.465-2.145l9.973 0.098c0.008 0 0.017 0 0.027 0 0.47 0 0.852-0.381 0.852-0.852 0-0.034-0.002-0.067-0.006-0.1v0.004c0.127-0.691 0.076-1.406-0.17-2.066-0.224-0.604-0.59-1.131-1.037-1.561-0.558-0.536-1.191-0.883-1.77-1.182-0.577-0.298-1.108-0.555-1.533-0.863-0.711-0.515-1.28-1.272-1.676-2.123-0.397-0.855-0.631-1.811-0.779-2.805-0.361-2.425-0.184-5.079-0.846-7.748-0.491-1.978-1.492-3.945-3.215-5.242-1.375-1.035-3.11-1.542-4.826-1.412-0.031 0.002-0.058 0.006-0.085 0.010l0.005-0.001c-0.018-0.004-0.041-0.007-0.065-0.009h-0.004c-0.215-0.016-0.43-0.023-0.645-0.020zM15.991 2.21c0.043 0.008 0.092 0.012 0.143 0.012 0.022 0 0.044-0.001 0.065-0.002h-0.003c1.291-0.098 2.637 0.296 3.672 1.074 1.308 0.984 2.165 2.587 2.588 4.291 0.578 2.328 0.416 4.923 0.813 7.59 0.163 1.095 0.427 2.212 0.92 3.271 0.494 1.063 1.222 2.062 2.221 2.785 0.595 0.431 1.21 0.716 1.752 0.996s1.021 0.56 1.371 0.896c0.278 0.267 0.494 0.588 0.619 0.926 0.083 0.224 0.12 0.466 0.127 0.709l-9.846-0.096c-0.002 0-0.005 0-0.008 0-0.47 0-0.852 0.381-0.852 0.852 0 0.023 0.001 0.046 0.003 0.069v-0.003c0.056 0.724-0.108 1.477-0.459 2.113-0.315 0.57-0.788 1.063-1.346 1.4-0.532 0.322-1.155 0.506-1.777 0.535-0.622-0.029-1.245-0.213-1.777-0.535-0.557-0.337-1.031-0.83-1.346-1.4-0.351-0.636-0.515-1.389-0.459-2.113 0.002-0.020 0.003-0.043 0.003-0.066 0-0.47-0.381-0.852-0.852-0.852-0.003 0-0.006 0-0.009 0v0l-9.846 0.096c0.007-0.243 0.044-0.485 0.127-0.709 0.126-0.338 0.342-0.659 0.619-0.926 0.35-0.337 0.83-0.617 1.371-0.896 0.542-0.28 1.157-0.565 1.752-0.996 0.999-0.723 1.726-1.722 2.221-2.785 0.493-1.060 0.757-2.177 0.92-3.271 0.397-2.667 0.235-5.262 0.813-7.59 0.423-1.704 1.28-3.307 2.588-4.291 1.035-0.779 2.381-1.172 3.672-1.074 0.018 0.001 0.039 0.002 0.060 0.002 0.050 0 0.099-0.004 0.147-0.013l-0.005 0.001z"></path>
</svg>
