<!-- Generated by IcoMoon.io -->
<svg version="1.1" xmlns="http://www.w3.org/2000/svg" width="32" height="32" viewBox="0 0 32 32">
<title>notification-s</title>
<path d="M16.7 1.001c-0.226-0.004-0.453 0.004-0.68 0.022-0.013 0.001-0.018 0.002-0.023 0.003l0.008-0.001c-0.002 0-0.010-0.001-0.018-0.002h-0.005c-0.227-0.017-0.454-0.023-0.68-0.020-1.583 0.025-3.133 0.551-4.405 1.509-1.817 1.368-2.836 3.399-3.334 5.403-0.668 2.693-0.49 5.259-0.821 7.484-0.136 0.911-0.35 1.762-0.692 2.497-0.339 0.729-0.818 1.357-1.384 1.767-0.339 0.246-0.815 0.481-1.382 0.774-0.568 0.294-1.237 0.651-1.855 1.245-0.496 0.477-0.906 1.066-1.161 1.751-0.274 0.737-0.335 1.525-0.201 2.294 0 0.004 0 0.008 0 0.013 0 0.507 0.251 0.955 0.636 1.227l0.005 0.003c3.7 0 7.4 0 11.1 0 0.048 1.493 0.869 2.785 2.075 3.491l0.020 0.011c0.601 0.353 1.325 0.562 2.097 0.562s1.495-0.209 2.117-0.573l-0.020 0.011c1.223-0.718 2.043-2.009 2.089-3.495v-0.006c3.702 0 7.404 0 11.106 0 0.39-0.275 0.641-0.723 0.641-1.23 0-0.006 0-0.013 0-0.020v0.001c0.132-0.768 0.072-1.554-0.201-2.288-0.255-0.685-0.665-1.274-1.161-1.751-0.618-0.593-1.286-0.951-1.855-1.245-0.566-0.293-1.043-0.528-1.382-0.774-0.565-0.409-1.045-1.037-1.384-1.767-0.342-0.736-0.556-1.587-0.692-2.497-0.331-2.225-0.153-4.791-0.821-7.484-0.497-2.005-1.517-4.036-3.334-5.403-1.272-0.957-2.822-1.486-4.405-1.511z"></path>
</svg>
