<!-- Generated by IcoMoon.io -->
<svg version="1.1" xmlns="http://www.w3.org/2000/svg" width="32" height="32" viewBox="0 0 32 32">
<title>opera</title>
<path d="M16.002 0c-8.838 0-16 7.162-16 16 0 8.581 6.755 15.58 15.236 15.98 0.25 0.013 0.508 0.020 0.764 0.020 4.094 0 7.831-1.537 10.668-4.068-1.875 1.244-4.068 1.955-6.412 1.955-3.813 0-7.226-1.888-9.52-4.869-1.769-2.087-2.919-5.175-2.994-8.637v-0.756c0.075-3.469 1.217-6.558 2.986-8.645l0.002 0.002c2.3-2.982 5.712-4.869 9.525-4.869 2.339 0 4.526 0.715 6.398 1.953-4.098-1.996-7.919-0.597-9.188 0.277 4.031 0.887 7.076 5.762 7.076 11.656s-3.045 10.769-7.076 11.65c1.263 0.875 5.087 2.275 9.193 0.275 3.274-2.925 5.338-7.188 5.338-11.926 0-4.734-2.059-8.995-5.33-11.926-0.003-0.002-0.005-0.004-0.008-0.006-2.818-2.521-6.526-4.055-10.598-4.068h-0.063z"></path>
</svg>
