<!-- Generated by IcoMoon.io -->
<svg version="1.1" xmlns="http://www.w3.org/2000/svg" width="32" height="32" viewBox="0 0 32 32">
<title>paint-format-l</title>
<path d="M2.234 0.5c-1.223 0-2.234 1.012-2.234 2.234v5.133c0 1.223 1.012 2.234 2.234 2.234h21.531c1.223 0 2.234-1.012 2.234-2.234v-1.717h4.299v8.619h-18.090l0.002 0.85c0 0 0 1.648 0 2.926h-0.152c-1.389 0-2.535 1.144-2.535 2.533v8.035c0 1.389 1.146 2.533 2.535 2.533h2.004c1.389 0 2.535-1.144 2.535-2.533v-8.035c0-1.389-1.146-2.533-2.535-2.533h-0.152c0-0.769 0-1.557 0-2.074h18.090v-12.020h-6v-1.717c0-1.223-1.012-2.234-2.234-2.234zM2.234 2.199h21.531c0.31 0 0.535 0.225 0.535 0.535v5.133c0 0.31-0.225 0.535-0.535 0.535h-21.531c-0.31 0-0.535-0.225-0.535-0.535v-5.133c0-0.31 0.225-0.535 0.535-0.535zM3.861 4.395c-0.008 0-0.017 0-0.026 0-0.469 0-0.85 0.381-0.85 0.85s0.381 0.85 0.85 0.85c0.009 0 0.018 0 0.027 0h-0.001c6.093-0.001 12.186-0.001 18.277 0 0.008 0 0.017 0 0.026 0 0.469 0 0.85-0.381 0.85-0.85s-0.381-0.85-0.85-0.85c-0.009 0-0.018 0-0.027 0h0.001c-6.091-0.001-12.184-0.001-18.277 0zM12.059 20.244h2.004c0.477 0 0.834 0.357 0.834 0.834v8.035c0 0.477-0.357 0.834-0.834 0.834h-2.004c-0.477 0-0.834-0.357-0.834-0.834v-8.035c0-0.477 0.357-0.834 0.834-0.834z"></path>
</svg>
