<!-- Generated by IcoMoon.io -->
<svg version="1.1" xmlns="http://www.w3.org/2000/svg" width="32" height="32" viewBox="0 0 32 32">
<title>paint-format-r</title>
<path d="M2.588 0c-1.412 0-2.588 1.176-2.588 2.588v4.965c0 1.412 1.176 2.588 2.588 2.588h20.824c1.412 0 2.588-1.176 2.588-2.588v-1.631h4.299v8.348h-18.088v0.85c0 0 0 2.266 0 3.777h-0.26c-1.072 0-1.936 0.863-1.936 1.936v9.232c0 1.072 0.863 1.936 1.936 1.936h2.303c1.072 0 1.936-0.863 1.936-1.936v-9.232c0-1.072-0.863-1.936-1.936-1.936h-0.344c0-1.031 0-2.266 0-2.926h18.090v-11.75h-6v-1.633c0-1.412-1.176-2.588-2.588-2.588zM2.5 4.369h0.537c6.644-0.001 13.284-0.001 19.926 0h0.537v3.184c0 0.071-0.017 0.088-0.088 0.088h-20.824c-0.071 0-0.088-0.017-0.088-0.088z"></path>
</svg>
