<!-- Generated by IcoMoon.io -->
<svg version="1.1" xmlns="http://www.w3.org/2000/svg" width="32" height="32" viewBox="0 0 32 32">
<title>paste-l</title>
<path d="M12.255 0c-1.388 0-2.529 1.058-2.69 2.404h-5.306c-0.841 0-1.536 0.695-1.536 1.536v16.311c0 0.841 0.695 1.536 1.536 1.536h6.634v7.116c0 1.706 1.391 3.097 3.097 3.097h12.262c1.706 0 3.097-1.391 3.097-3.097v-12.935c0-0.107-0.029-0.207-0.080-0.293l0.001 0.003c-0.059-0.102-0.12-0.315-0.29-0.581-0.571-0.893-1.238-1.725-1.988-2.475s-1.582-1.416-2.475-1.987c-0.292-0.187-0.538-0.261-0.676-0.339-0.082-0.048-0.181-0.076-0.286-0.076 0 0-0.001 0-0.001 0h-0.451c-0.029-0.005-0.062-0.008-0.096-0.008v0c-0.032 0-0.063 0.003-0.094 0.008l0.003-0.001h-1.132v-6.281c0-0.841-0.695-1.536-1.536-1.536h-5.306c-0.161-1.347-1.302-2.404-2.69-2.404zM12.255 1.158c0.817 0 1.47 0.612 1.549 1.406v0.319c-0.080 0.794-0.732 1.406-1.549 1.406-0.813 0-1.463-0.605-1.548-1.394v-0.343c0.085-0.788 0.735-1.394 1.548-1.394zM4.259 3.561h2.354v3.073c0 0.671 0.558 1.23 1.229 1.23h8.827c0.671 0 1.229-0.559 1.229-1.23v-3.073h2.354c0.22 0 0.379 0.159 0.379 0.379v6.281h-6.64c-1.706 0-3.097 1.392-3.097 3.098v7.311h-6.634c-0.22 0-0.379-0.159-0.379-0.379v-16.311c0-0.22 0.159-0.379 0.379-0.379zM7.77 3.561h1.908c0.357 1.088 1.374 1.886 2.577 1.886s2.22-0.797 2.577-1.886h1.908v3.073c0 0.050-0.022 0.072-0.072 0.072h-8.827c-0.050 0-0.072-0.022-0.072-0.072v-2.923zM13.991 11.379h8.441c-0.016 2.29 0.001 5.028 0.001 5.028 0.002 0.318 0.26 0.574 0.578 0.574h5.181v11.922c0 1.085-0.855 1.94-1.94 1.94h-12.262c-1.085 0-1.94-0.855-1.94-1.94v-15.584c0-1.085 0.855-1.94 1.94-1.94zM23.59 11.46c0.116 0.054 0.248 0.114 0.305 0.15 0.823 0.526 1.591 1.141 2.281 1.831s1.304 1.456 1.83 2.279c0.011 0.016 0.035 0.074 0.051 0.104h-4.465c-0.003-0.485-0.011-2.503 0-4.364z"></path>
</svg>
