<!-- Generated by IcoMoon.io -->
<svg version="1.1" xmlns="http://www.w3.org/2000/svg" width="32" height="32" viewBox="0 0 32 32">
<title>paste-s</title>
<path d="M12.102 0c-1.566 0-2.856 1.201-3.029 2.723h-4.586c-0.962 0-1.763 0.801-1.763 1.763v15.537c0 0.962 0.801 1.763 1.763 1.763h4.943v-8.141c0-2.686 2.211-4.898 4.898-4.898h7.154v-4.262c0-0.962-0.801-1.763-1.763-1.763h-4.586c-0.173-1.522-1.464-2.723-3.029-2.723zM12.102 1.702c0.644 0 1.168 0.429 1.316 1.021 0 0.001 0 0.002 0 0.003 0.027 0.108 0.045 0.22 0.045 0.338 0 0.667-0.459 1.21-1.084 1.335-0.089 0.018-0.183 0.027-0.278 0.027-0.762 0-1.362-0.6-1.362-1.362 0-0.118 0.018-0.23 0.045-0.338 0-0.001 0-0.002 0-0.003 0.148-0.592 0.673-1.021 1.316-1.021zM14.327 10.213c-1.885 0-3.434 1.549-3.434 3.434v14.92c0 1.884 1.549 3.433 3.434 3.433h11.739c1.884 0 3.432-1.549 3.432-3.433v-10.911h-6.468c-0.469-0.001-0.849-0.381-0.85-0.85v0c0 0-0.009-3.762-0.004-6.593zM23.883 10.294c-0.002 2.211-0.002 4.909 0 5.658h5.589c-0.025-0.106-0.063-0.2-0.113-0.285l0.003 0.005c-0.020-0.034-0.080-0.248-0.29-0.576-0.564-0.883-1.223-1.705-1.965-2.447s-1.566-1.402-2.449-1.967c-0.35-0.224-0.594-0.296-0.666-0.336-0.029-0.017-0.064-0.034-0.101-0.049l-0.007-0.002z"></path>
</svg>
