<!-- Generated by IcoMoon.io -->
<svg version="1.1" xmlns="http://www.w3.org/2000/svg" width="32" height="32" viewBox="0 0 32 32">
<title>pencil-alt-s</title>
<path d="M24.154 0.002c-2.135-0.002-4.426-0.007-6.072 0.018l-0.504 0.008-0.359 0.359c-3.593 3.594-7.19 7.188-10.785 10.783-0.013 0.013-0.028 0.026-0.041 0.039-0.016 0.016-0.031 0.032-0.046 0.048l-0.177 0.177-0.074 0.246c-0.012 0.033-0.025 0.075-0.035 0.118l-0.002 0.009-6.059 20.193 20.264-6.078c0.016-0.005 0.023-0.008 0.030-0.011l-0.009 0.003 0.281-0.084 0.205-0.205 0.023-0.021c0.005-0.005 0.011-0.012 0.016-0.018l10.437-10.439h0.715l0.018-1.229c0.024-1.646 0.020-3.935 0.018-6.070l-4.797 4.797-3.385 1.193 1.193-3.383 6.982-6.982c-0.005-0.76-0.012-2.213-0.012-2.213l-0.010-1.23-1.23-0.010c0 0-1.453-0.007-2.213-0.012l-6.982 6.982-3.383 1.193 1.193-3.385 4.799-4.797zM13.924 11.762c-0.512 2.105-1.026 4.211-1.539 6.316-0.020 0.071-0.034 0.155-0.039 0.241v0.004c-0.001 0.010-0.003 0.025-0.004 0.041v0.004c0 0 0 0.001 0 0.001s0 0.001 0 0.001v0c0 0.011-0.001 0.024-0.001 0.038 0 0.028 0.001 0.056 0.003 0.083v-0.004c0 0.001 0 0.003 0 0.004s0 0.003 0 0.004v0c0.003 0.044 0.008 0.084 0.015 0.123l-0.001-0.007c0.028 0.168 0.086 0.319 0.169 0.453l-0.003-0.005c0.008 0.012 0.012 0.019 0.017 0.026l-0.003-0.005c0 0 0 0.001 0 0.001s0 0.001 0 0.001v0c0.024 0.038 0.047 0.070 0.070 0.1l-0.002-0.003c0.018 0.022 0.034 0.041 0.052 0.059l-0.001-0.001c0.012 0.015 0.023 0.028 0.034 0.040l-0.001-0.001c0.001 0.001 0.001 0.001 0.002 0.002v0c0.027 0.028 0.055 0.054 0.084 0.079l0.002 0.001c0.011 0.009 0.025 0.020 0.040 0.031l0.003 0.002c0.047 0.038 0.1 0.074 0.156 0.106l0.006 0.003c0.007 0.004 0.020 0.011 0.034 0.018l0.007 0.003c0.052 0.028 0.114 0.054 0.179 0.076l0.009 0.003c-0.006-0.001-0.003-0.001-0.001 0l0.009 0.002c0.111 0.036 0.239 0.057 0.372 0.057 0.043 0 0.085-0.002 0.127-0.006h-0.005c0.045-0.004 0.084-0.010 0.123-0.017l-0.008 0.001c0.011-0.003 0.014-0.003 0.017-0.004l-0.009 0.002c0.011-0.003 0.013-0.004 0.015-0.005l-0.009 0.003c0.023-0.004 0.038-0.008 0.053-0.012l-0.009 0.002c2.117-0.516 4.235-1.032 6.352-1.547-0.459 1.885-0.918 3.773-1.377 5.658l-8.242 2.473c-0.294-1.085-0.962-2.103-1.844-2.984s-1.896-1.548-2.98-1.842l2.473-8.242c1.885-0.459 3.772-0.919 5.656-1.377z"></path>
</svg>
