<!-- Generated by IcoMoon.io -->
<svg version="1.1" xmlns="http://www.w3.org/2000/svg" width="32" height="32" viewBox="0 0 32 32">
<title>pencil-alt-l</title>
<path d="M17.615 0l-11.27 11.271c-0.021 0.019-0.041 0.039-0.060 0.060l-0.001 0.001-0.121 0.119-0.051 0.172-6.113 20.377 20.549-6.164 0.154-0.156 11.297-11.295-1.201-1.203-9.156 9.156c0.459-1.885 0.919-3.77 1.377-5.654 0.039-0.094 0.061-0.202 0.061-0.316 0-0.225-0.087-0.429-0.229-0.581v0c-0.002-0.002-0.004-0.004-0.006-0.006v0c-0.017-0.018-0.035-0.036-0.054-0.052l-0.001-0.001c-0.002-0.002-0.004-0.004-0.006-0.006v0c-0.018-0.015-0.038-0.031-0.058-0.045l-0.003-0.002c-0.133-0.099-0.3-0.161-0.481-0.166h-0.001c-0.006 0-0.013 0-0.020 0-0.117 0-0.229 0.024-0.331 0.067l0.006-0.002c-2.41 0.586-4.821 1.174-7.232 1.762 0.588-2.414 1.177-4.827 1.764-7.24 0.039-0.094 0.062-0.204 0.062-0.319 0-0.195-0.066-0.375-0.177-0.519l0.001 0.002c-0.001-0.001-0.003-0.003-0.004-0.004v0c-0.008-0.009-0.014-0.017-0.020-0.024l0.001 0.001c-0.011-0.014-0.021-0.026-0.032-0.038l0.001 0.001c-0.151-0.166-0.367-0.271-0.606-0.277h-0.001c-0.006 0-0.013 0-0.019 0-0.116 0-0.226 0.023-0.326 0.065l0.006-0.002c-1.883 0.458-3.767 0.918-5.65 1.377l9.156-9.156-1.203-1.201zM25.131 0l-6.473 6.473-0.781 1.994 1.992-0.781 6.475-6.473-1.213-1.213zM30.787 5.656l-6.473 6.475-0.781 1.992 1.994-0.781 6.473-6.473-1.213-1.213zM14.473 10.936c-0.58 2.385-1.159 4.771-1.74 7.156-0.065 0.117-0.104 0.258-0.104 0.407 0 0.249 0.107 0.472 0.277 0.628l0.001 0.001c0.153 0.151 0.364 0.244 0.596 0.244 0.149 0 0.289-0.038 0.41-0.105l-0.004 0.002c2.385-0.581 4.772-1.16 7.156-1.74-0.558 2.293-1.117 4.587-1.676 6.881l-9.326 2.799c-0.2-1.192-0.903-2.371-1.9-3.369s-2.177-1.699-3.369-1.898l2.799-9.328c2.294-0.559 4.587-1.118 6.881-1.676zM4.293 23.604c0.731 0.069 1.796 0.564 2.668 1.436s1.369 1.937 1.438 2.668l-5.863 1.758 1.758-5.861z"></path>
</svg>
