<!-- Generated by IcoMoon.io -->
<svg version="1.1" xmlns="http://www.w3.org/2000/svg" width="32" height="32" viewBox="0 0 32 32">
<title>phone-l</title>
<path d="M8.297 23.703c2.067 2.067 5.128 4.095 8.221 5.649s6.149 2.648 8.489 2.648h0.299l0.25-0.167c0 0 1.537-1.021 3.088-2.314 0.776-0.646 1.557-1.36 2.181-2.087s1.175-1.43 1.175-2.425c0-0.994-0.511-1.759-1.159-2.646s-1.503-1.807-2.437-2.608c-0.935-0.801-1.934-1.487-2.958-1.866-0.512-0.189-1.038-0.306-1.586-0.27s-1.128 0.261-1.553 0.686c-1.117 1.117-1.679 2.237-2.123 2.903-0.222 0.333-0.405 0.538-0.559 0.645s-0.286 0.165-0.621 0.165c-0.671 0-1.494-0.368-2.41-1.055s-1.896-1.658-2.897-2.659c-1.001-1.001-1.972-1.98-2.659-2.897s-1.055-1.739-1.055-2.41c0-0.336 0.058-0.468 0.165-0.621s0.312-0.337 0.646-0.559c0.666-0.444 1.786-1.005 2.903-2.123 0.425-0.425 0.649-1.005 0.686-1.553s-0.080-1.075-0.27-1.586c-0.379-1.023-1.065-2.023-1.866-2.958s-1.721-1.789-2.608-2.437c-0.887-0.648-1.652-1.159-2.646-1.159s-1.697 0.552-2.425 1.175c-0.727 0.624-1.441 1.405-2.087 2.181-1.293 1.551-2.314 3.088-2.314 3.088l-0.167 0.25v0.299c0 2.34 1.094 5.396 2.648 8.489s3.582 6.154 5.649 8.221zM9.694 22.306c-1.827-1.827-3.803-4.771-5.28-7.711-1.419-2.826-2.315-5.651-2.386-7.348 0.17-0.251 0.882-1.319 1.97-2.625 0.605-0.726 1.268-1.445 1.855-1.948s1.134-0.7 1.14-0.7c0.006 0 0.743 0.238 1.482 0.779s1.57 1.312 2.27 2.129c0.7 0.817 1.268 1.693 1.514 2.359 0.123 0.333 0.162 0.604 0.151 0.768s-0.037 0.21-0.112 0.286c-0.884 0.884-1.766 1.322-2.601 1.879-0.417 0.278-0.837 0.596-1.167 1.068s-0.523 1.092-0.523 1.757c0 1.33 0.634 2.508 1.448 3.594s1.844 2.108 2.845 3.109c1.001 1.001 2.024 2.031 3.109 2.845s2.263 1.448 3.594 1.448c0.665 0 1.285-0.193 1.757-0.523s0.789-0.75 1.068-1.167c0.557-0.835 0.994-1.717 1.879-2.601 0.076-0.076 0.122-0.102 0.286-0.112s0.435 0.028 0.768 0.151c0.666 0.247 1.542 0.814 2.359 1.514s1.589 1.531 2.129 2.27c0.54 0.739 0.779 1.476 0.779 1.482s-0.198 0.554-0.7 1.14-1.222 1.25-1.948 1.855c-1.306 1.089-2.375 1.801-2.625 1.97-1.696-0.071-4.522-0.967-7.348-2.386-2.939-1.476-5.883-3.452-7.711-5.28z"></path>
</svg>
