<!-- Generated by IcoMoon.io -->
<svg version="1.1" xmlns="http://www.w3.org/2000/svg" width="32" height="32" viewBox="0 0 32 32">
<title>phone-hang-up-l</title>
<path d="M16 8.5c-2.514 0-5.61 0.628-8.436 1.565s-5.35 2.13-6.774 3.553l-0.182 0.182-0.051 0.254c0 0-0.314 1.556-0.471 3.285-0.079 0.865-0.12 1.774-0.057 2.596s0.155 1.585 0.76 2.189c0.605 0.605 1.381 0.759 2.314 0.904s2.013 0.185 3.068 0.104c1.056-0.081 2.081-0.272 2.934-0.664 0.426-0.196 0.818-0.446 1.129-0.801s0.527-0.845 0.527-1.361c0-1.359-0.34-2.381-0.475-3.057-0.068-0.338-0.081-0.574-0.053-0.732s0.073-0.274 0.277-0.479c0.408-0.408 1.132-0.685 2.107-0.824s2.162-0.145 3.379-0.145c1.217 0 2.403 0.005 3.379 0.145s1.699 0.416 2.107 0.824c0.204 0.204 0.249 0.32 0.277 0.479s0.015 0.395-0.053 0.732c-0.135 0.675-0.475 1.698-0.475 3.057 0 0.517 0.216 1.006 0.527 1.361s0.703 0.605 1.129 0.801c0.853 0.392 1.878 0.583 2.934 0.664s2.135 0.042 3.068-0.104c0.934-0.145 1.71-0.299 2.314-0.904s0.697-1.368 0.76-2.189c0.063-0.822 0.022-1.731-0.057-2.596-0.157-1.729-0.471-3.285-0.471-3.285l-0.051-0.254-0.182-0.182c-1.423-1.423-3.948-2.616-6.774-3.553s-5.922-1.565-8.436-1.565zM16 10.199c2.223 0 5.215 0.589 7.901 1.479 2.582 0.855 4.845 2.029 5.92 3.018 0.049 0.256 0.266 1.338 0.398 2.795 0.074 0.809 0.108 1.65 0.057 2.313s-0.264 1.115-0.268 1.119c-0.004 0.004-0.597 0.307-1.375 0.428s-1.753 0.157-2.676 0.086c-0.923-0.071-1.801-0.259-2.356-0.514-0.277-0.127-0.466-0.269-0.559-0.375s-0.105-0.15-0.105-0.242c0-1.076 0.27-1.878 0.439-2.725 0.085-0.423 0.147-0.871 0.061-1.359s-0.346-0.982-0.75-1.387c-0.809-0.809-1.912-1.14-3.066-1.305s-2.404-0.16-3.621-0.16c-1.217 0-2.466-0.005-3.621 0.16s-2.257 0.496-3.066 1.305c-0.405 0.405-0.664 0.899-0.75 1.387s-0.024 0.936 0.061 1.359c0.169 0.846 0.439 1.649 0.439 2.725 0 0.092-0.013 0.136-0.105 0.242s-0.281 0.248-0.559 0.375c-0.555 0.255-1.433 0.443-2.356 0.514s-1.898 0.035-2.676-0.086c-0.778-0.121-1.371-0.424-1.375-0.428s-0.217-0.457-0.268-1.119-0.017-1.503 0.057-2.313c0.132-1.457 0.349-2.539 0.398-2.795 1.075-0.989 3.338-2.162 5.92-3.018 2.685-0.89 5.678-1.479 7.901-1.479z"></path>
</svg>
