<!-- Generated by IcoMoon.io -->
<svg version="1.1" xmlns="http://www.w3.org/2000/svg" width="32" height="32" viewBox="0 0 32 32">
<title>point-r</title>
<path d="M16.908 2c-1.141 0-2.122 0.35-2.705 0.957l-0.004 0.006-4.836 5.283c-0.389-0.442-0.875-0.797-1.541-0.797h-5.449c-1.301 0-2.373 1.071-2.373 2.373v18.168c0 1.302 1.071 2.373 2.373 2.373h5.449c0.945 0 1.606-0.649 1.98-1.455l2.406 1.203c0.183 0.092 0.211 0.071 0.285 0.078l0.174 0.174h5.148c2.3 0 4.189-1.89 4.189-4.189 0-0.428-0.136-0.697-0.242-0.975 0.642-0.704 1.152-1.583 1.152-2.658 0-0.697-0.273-1.276-0.561-1.816 0.199-0.375 0.308-0.808 0.389-1.26h5.066c2.3 0 4.189-1.891 4.189-4.191s-1.89-4.189-4.189-4.189h-8.766l1.492-2.801v-0.002c0.366-0.635 0.561-1.357 0.561-2.092 0-2.3-1.89-4.189-4.189-4.189zM16.908 4.93c0.714 0 1.26 0.546 1.26 1.26 0 0.216-0.061 0.438-0.166 0.623l-0.006 0.010-3.83 7.191h13.645c0.714 0 1.26 0.547 1.26 1.26s-0.547 1.26-1.26 1.26h-8.588l0.693 1.955c0.045 0.126 0.068 0.266 0.068 0.42 0 0.332-0.116 0.61-0.32 0.838l-0.875 0.977 0.875 0.98c0.204 0.228 0.32 0.506 0.32 0.838 0 0.454-0.23 0.838-0.584 1.064l-1.17 0.748 0.688 1.207c0.104 0.183 0.16 0.381 0.16 0.613 0 0.713-0.549 1.262-1.262 1.262l-4.41-0.002-3.211-1.605c-0.001-4.715-0.001-9.431 0-14.148l5.805-6.365c0.254-0.263 0.541-0.385 0.908-0.385zM2.928 10.379h4.34v2.834c-0.001 4.069-0.001 8.137 0 12.205 0 0.439 0 0.877 0 1.316v0.699h-4.34zM5.111 24.043c-0.763-0.001-1.392 0.625-1.393 1.389v0.002c0 0.763 0.629 1.389 1.393 1.389s1.39-0.626 1.391-1.389v-0.002c0-0.762-0.628-1.388-1.391-1.389z"></path>
</svg>
