<!-- Generated by IcoMoon.io -->
<svg version="1.1" xmlns="http://www.w3.org/2000/svg" width="32" height="32" viewBox="0 0 32 32">
<title>power-cord-l</title>
<path d="M23.888 0l-6.039 6.039-4.132-4.134c-0.164-0.164-0.39-0.265-0.64-0.265-0.004 0-0.009 0-0.013 0h0.001c-0.245 0.003-0.467 0.104-0.628 0.265v0l-3.002 3.004c-0.164 0.164-0.265 0.39-0.265 0.64s0.101 0.476 0.265 0.64l0.375 0.375c-2.736 3.259-4.614 6.759-5.302 10.025-0.664 3.147-0.287 6.121 1.362 8.26l-5.87 5.87 1.281 1.281 5.868-5.868c2.138 1.65 5.113 2.027 8.26 1.364 3.267-0.688 6.768-2.568 10.029-5.304l0.371 0.371c0.164 0.164 0.39 0.265 0.64 0.265s0.476-0.101 0.64-0.265l3.002-3.002c0.164-0.164 0.265-0.39 0.265-0.64s-0.101-0.476-0.265-0.64l-4.13-4.13 6.039-6.039-1.281-1.281-6.039 6.039-5.551-5.551 6.039-6.039zM13.077 3.826l15.094 15.096-1.721 1.721-0.265-0.267c-0.164-0.164-0.39-0.265-0.64-0.265-0.232 0-0.443 0.087-0.604 0.231l0.001-0.001c-3.246 2.894-6.798 4.729-9.906 5.384s-5.686 0.146-7.297-1.462c-1.607-1.611-2.113-4.191-1.458-7.299s2.489-6.657 5.382-9.902c0.143-0.159 0.23-0.371 0.23-0.603 0-0.25-0.101-0.476-0.265-0.64v0l-0.271-0.269z"></path>
</svg>
