<!-- Generated by IcoMoon.io -->
<svg version="1.1" xmlns="http://www.w3.org/2000/svg" width="32" height="32" viewBox="0 0 32 32">
<title>power-r</title>
<path d="M12.375 0c0 0-0.001 0-0.001 0-0.489 0-0.923 0.234-1.197 0.596l-10.878 14.506c-0.187 0.247-0.299 0.56-0.299 0.898 0 0.828 0.67 1.499 1.498 1.5h8.452l-6.166 12.33c-0.099 0.195-0.157 0.425-0.157 0.669 0 0.828 0.672 1.5 1.5 1.5 0.326 0 0.628-0.104 0.875-0.281l-0.004 0.003 25.376-18.125c0.382-0.275 0.628-0.719 0.628-1.221 0-0.828-0.671-1.5-1.499-1.5h-10.879l8.315-8.315c0.271-0.271 0.439-0.646 0.439-1.061 0-0.828-0.671-1.5-1.5-1.5v0zM13.125 3h10.129l-8.315 8.315c-0.271 0.271-0.439 0.646-0.439 1.061 0 0.828 0.671 1.5 1.5 1.5h9.819l-16.655 11.897 4.551-9.1c0.1-0.196 0.159-0.427 0.159-0.672 0-0.828-0.671-1.499-1.499-1.5h-7.875z"></path>
</svg>
