<!-- Generated by IcoMoon.io -->
<svg version="1.1" xmlns="http://www.w3.org/2000/svg" width="32" height="32" viewBox="0 0 32 32">
<title>power-l</title>
<path d="M12.213 0c-0.277 0-0.523 0.133-0.678 0.338l-0.002 0.002-11.363 15.15c-0.106 0.14-0.17 0.317-0.17 0.509 0 0.469 0.38 0.85 0.849 0.85h9.988l-6.961 13.92c-0.057 0.111-0.090 0.242-0.090 0.38 0 0.469 0.381 0.85 0.85 0.85 0.185 0 0.357-0.059 0.496-0.16l-0.003 0.002 26.514-18.938c0.216-0.156 0.355-0.407 0.355-0.691 0-0.469-0.38-0.85-0.849-0.85h-13.098l9.91-9.912c0.154-0.154 0.249-0.366 0.249-0.601 0-0.469-0.38-0.849-0.849-0.85v0zM12.637 1.699h12.674l-9.912 9.912c-0.154 0.154-0.249 0.366-0.249 0.601 0 0.469 0.381 0.85 0.85 0.85 0 0 0 0 0.001 0h12.498l-21.568 15.406 6.043-12.088c0.057-0.111 0.090-0.242 0.090-0.38 0-0.469-0.38-0.85-0.85-0.85h-9.664z"></path>
</svg>
