<!-- Generated by IcoMoon.io -->
<svg version="1.1" xmlns="http://www.w3.org/2000/svg" width="32" height="32" viewBox="0 0 32 32">
<title>price-tag-s</title>
<path d="M30.47 0h-12.238c-0.841 0-2.016 0.486-2.612 1.082l-15.174 15.174c-0.595 0.595-0.595 1.569 0 2.163l13.135 13.135c0.595 0.595 1.569 0.595 2.163 0l15.174-15.174c0.595-0.595 1.082-1.77 1.082-2.612v-12.238c0-0.841-0.688-1.53-1.53-1.53zM22.821 12.238c-1.69 0-3.060-1.37-3.060-3.060s1.37-3.060 3.060-3.060c1.69 0 3.060 1.37 3.060 3.060s-1.37 3.060-3.060 3.060z"></path>
</svg>
