<!-- Generated by IcoMoon.io -->
<svg version="1.1" xmlns="http://www.w3.org/2000/svg" width="40" height="32" viewBox="0 0 40 32">
<title>price-tags-r</title>
<path d="M18.233 0c-0.841 0-2.016 0.487-2.612 1.082l-15.175 15.175c-0.595 0.595-0.595 1.568 0 2.163l13.136 13.134c0.595 0.595 1.568 0.595 2.163 0l0.957-0.957-13.257-13.259 17.338-17.338zM26.18 0c-1.343 0-2.482 0.472-3.431 1.422l-13.749 13.749c-1.12 1.12-1.12 2.968 0 4.088l11.902 11.9c1.12 1.12 2.968 1.12 4.088 0l13.748-13.748c0.949-0.949 1.422-2.087 1.422-3.431v-11.087c0-1.583-1.305-2.894-2.89-2.894zM26.18 3.012h10.969v10.969c0 0.18-0.413 1.174-0.541 1.302l-13.663 13.663-11.73-11.732 13.663-13.663c0.13-0.13 1.121-0.539 1.302-0.539zM30.98 6.12c-1.69 0-3.059 1.369-3.059 3.059s1.369 3.061 3.059 3.061c1.69 0 3.059-1.371 3.059-3.061s-1.369-3.059-3.059-3.059z"></path>
</svg>
