<!-- Generated by IcoMoon.io -->
<svg version="1.1" xmlns="http://www.w3.org/2000/svg" width="40" height="32" viewBox="0 0 40 32">
<title>price-tags-l</title>
<path d="M17.525 0c-0.234 0.007-0.443 0.106-0.595 0.262v0c-5.486 5.485-10.973 10.968-16.46 16.456-0.282 0.147-0.471 0.436-0.471 0.77 0 0.245 0.102 0.466 0.265 0.623v0c4.545 4.546 9.089 9.090 13.634 13.634 0.157 0.157 0.374 0.255 0.613 0.255 0.478 0 0.866-0.387 0.866-0.866 0-0.239-0.097-0.456-0.254-0.612v0c-4.334-4.333-8.671-8.668-13.006-13.004 5.345-5.346 10.69-10.692 16.035-16.035 0.161-0.157 0.26-0.376 0.26-0.618 0-0.478-0.387-0.865-0.865-0.865-0.008 0-0.016 0-0.024 0h0.001zM26.218 0c-1.127 0-2.281 0.476-3.078 1.274l-14.323 14.327c-0.895 0.895-0.895 2.369 0 3.264l12.397 12.397c0.895 0.895 2.369 0.895 3.264 0l14.327-14.325c0.797-0.797 1.274-1.948 1.274-3.076v-11.554c0-1.266-1.042-2.307-2.307-2.307zM26.218 1.726h11.554c0.323 0 0.579 0.258 0.579 0.581v11.554c0 0.461-0.444 1.528-0.769 1.853l-14.325 14.327c-0.228 0.228-0.592 0.228-0.82 0l-12.401-12.399c-0.228-0.228-0.228-0.594 0-0.822l14.327-14.325c0.327-0.327 1.394-0.769 1.855-0.769zM30.548 5.789c-2.055 0-3.74 1.684-3.74 3.74s1.684 3.74 3.74 3.74c2.056 0 3.74-1.684 3.74-3.74s-1.684-3.74-3.74-3.74zM30.548 7.493c1.135 0 2.037 0.9 2.037 2.035s-0.902 2.037-2.037 2.037c-1.135 0-2.035-0.902-2.035-2.037s0.9-2.035 2.035-2.035z"></path>
</svg>
