<!-- Generated by IcoMoon.io -->
<svg version="1.1" xmlns="http://www.w3.org/2000/svg" width="32" height="32" viewBox="0 0 32 32">
<title>printer-r</title>
<path d="M8 2v4h16v-4zM3.125 8.049c-1.71 0-3.125 1.415-3.125 3.125v9.342c0 1.71 1.415 3.125 3.125 3.125h5.625v6.709h14.5v-6.709h5.625c1.71 0 3.125-1.415 3.125-3.125v-9.342c0-1.71-1.415-3.125-3.125-3.125zM3.125 10.549h25.75c0.368 0 0.625 0.257 0.625 0.625v9.342c0 0.368-0.257 0.625-0.625 0.625h-5.625v-2.873h-14.5v2.873h-5.625c-0.368 0-0.625-0.257-0.625-0.625v-9.342c0-0.368 0.257-0.625 0.625-0.625zM5.801 11.848c-1.105 0-2 0.895-2 2s0.895 2 2 2c1.105 0 2-0.895 2-2s-0.895-2-2-2z"></path>
</svg>
