<!-- Generated by IcoMoon.io -->
<svg version="1.1" xmlns="http://www.w3.org/2000/svg" width="32" height="32" viewBox="0 0 32 32">
<title>pushpin-l</title>
<path d="M17.127 0l-1.203 1.203c0.838 0.838 1.676 1.676 2.514 2.514l-8.045 8.734h-8.619l6.381 6.383-8.154 10.811v2.355h2.355l10.811-8.154 6.383 6.381v-8.619l8.734-8.045c0.838 0.838 1.676 1.676 2.514 2.514l1.203-1.203c-4.957-4.959-9.914-9.916-14.873-14.873zM19.641 4.92c2.48 2.48 4.96 4.959 7.439 7.439l-9.232 8.502v5.262l-4.525-4.525-11.537 8.703h-0.086v-0.086l8.703-11.537-4.525-4.525h5.262l8.502-9.232zM20.172 8.434l-6.941 6.941 1.203 1.203 6.941-6.941-1.203-1.203z"></path>
</svg>
