<!-- Generated by IcoMoon.io -->
<svg version="1.1" xmlns="http://www.w3.org/2000/svg" width="32" height="32" viewBox="0 0 32 32">
<title>question-s</title>
<path d="M16 0c-8.819 0-16 7.181-16 16s7.181 16 16 16c8.819 0 16-7.181 16-16s-7.181-16-16-16zM15.934 6.049c0.779-0.002 1.551 0.17 2.26 0.506 0.944 0.447 1.731 1.161 2.27 2.051 0.742 1.227 0.972 2.73 0.529 4.146-0.22 0.703-0.598 1.352-1.119 1.891s-1.168 0.949-1.896 1.182c-0.59 0.188-1.046 0.228-1.322 0.293-0.26 0.061-0.361 0.149-0.326 0.111 0.033-0.035-0.019 0.021-0.041 0.166-0.024 0.158-0.023 0.422-0.012 0.787 0.028 0.912 0.028 1.826 0 2.738-0.007 0.823-0.676 1.488-1.5 1.488-0.828 0-1.5-0.672-1.5-1.5 0-0.028 0.001-0.056 0.002-0.083v0.004c0.026-0.852 0.026-1.703 0-2.555-0.010-0.342-0.037-0.79 0.045-1.33 0.084-0.553 0.286-1.191 0.797-1.746 0.594-0.646 1.304-0.872 1.848-1 0.528-0.124 0.901-0.17 1.098-0.232 0.236-0.075 0.471-0.22 0.652-0.408s0.33-0.438 0.412-0.701c0.161-0.515 0.071-1.192-0.234-1.697-0.23-0.38-0.588-0.705-0.984-0.893s-0.871-0.257-1.299-0.191c-0.428 0.066-0.855 0.276-1.166 0.57s-0.538 0.707-0.621 1.121c-0.029 0.146-0.044 0.296-0.041 0.445 0.001 0.023 0.002 0.050 0.002 0.077 0 0.828-0.672 1.5-1.5 1.5s-1.5-0.672-1.5-1.5c0-0.008 0-0.017 0-0.025v0.001c-0.006-0.364 0.026-0.728 0.098-1.086 0.208-1.041 0.733-1.984 1.5-2.711s1.733-1.197 2.771-1.357c0.259-0.040 0.52-0.060 0.779-0.061zM14.777 22.951c0.005 0 0.011 0 0.018 0 0.828 0 1.5 0.672 1.5 1.5s-0.672 1.5-1.5 1.5c-0.006 0-0.012 0-0.018 0h0.001c-0.005 0-0.011 0-0.018 0-0.828 0-1.5-0.672-1.5-1.5s0.672-1.5 1.5-1.5c0.006 0 0.012 0 0.018 0h-0.001z"></path>
</svg>
