<!-- Generated by IcoMoon.io -->
<svg version="1.1" xmlns="http://www.w3.org/2000/svg" width="32" height="32" viewBox="0 0 32 32">
<title>question-l</title>
<path d="M16 0c-8.826 0-16 7.173-16 16s7.173 16 16 16c8.826 0 16-7.174 16-16s-7.174-16-16-16zM16 1.699c7.908 0 14.301 6.393 14.301 14.301s-6.393 14.301-14.301 14.301c-7.908 0-14.301-6.393-14.301-14.301s6.393-14.301 14.301-14.301zM15.934 7c-0.236 0.001-0.472 0.019-0.707 0.055-0.939 0.145-1.82 0.573-2.512 1.229s-1.17 1.516-1.357 2.453c-0.064 0.323-0.094 0.652-0.088 0.98 0 0.002 0 0.003 0 0.005 0 0.469 0.381 0.85 0.85 0.85s0.85-0.381 0.85-0.85c0-0.012 0-0.024-0.001-0.036v0.002c-0.004-0.207 0.014-0.416 0.055-0.619 0.116-0.582 0.426-1.14 0.859-1.551s1.009-0.692 1.602-0.783c0.593-0.091 1.23 0.002 1.775 0.26s1.022 0.692 1.336 1.211c0.424 0.7 0.55 1.603 0.314 2.357-0.119 0.38-0.328 0.737-0.6 1.018s-0.614 0.495-0.979 0.611c-0.3 0.096-0.71 0.142-1.201 0.258-0.5 0.118-1.096 0.321-1.566 0.832-0.404 0.439-0.579 0.967-0.652 1.447-0.072 0.473-0.050 0.895-0.039 1.258 0.027 0.904 0.027 1.811 0 2.715 0 0.008 0 0.016 0 0.025 0 0.469 0.381 0.85 0.85 0.85 0.46 0 0.835-0.366 0.85-0.823v-0.001c0.028-0.939 0.028-1.878 0-2.816-0.011-0.375-0.020-0.694 0.020-0.951 0.038-0.249 0.129-0.448 0.225-0.553 0.114-0.124 0.363-0.248 0.703-0.328 0.349-0.082 0.805-0.126 1.328-0.293 0.643-0.205 1.222-0.569 1.686-1.049s0.801-1.062 0.998-1.691c0.395-1.265 0.188-2.637-0.482-3.746-0.488-0.808-1.207-1.46-2.063-1.865-0.642-0.304-1.345-0.461-2.053-0.459zM14.723 23.301c-0.007 0-0.016 0-0.025 0-0.469 0-0.85 0.381-0.85 0.85s0.381 0.85 0.85 0.85c0.009 0 0.017 0 0.026 0h-0.001c0.007 0 0.016 0 0.025 0 0.469 0 0.85-0.381 0.85-0.85s-0.381-0.85-0.85-0.85c-0.009 0-0.017 0-0.026 0h0.001z"></path>
</svg>
