<!-- Generated by IcoMoon.io -->
<svg version="1.1" xmlns="http://www.w3.org/2000/svg" width="32" height="32" viewBox="0 0 32 32">
<title>rocket-r</title>
<path d="M30.451 0.001c-0.089 0.003-0.174 0.014-0.256 0.031l-9.052 1.81c-0.302 0.062-0.563 0.207-0.766 0.41l-8.622 8.622h-4.816c-0.489 0-0.923 0.234-1.196 0.596l-5.442 7.253c-0.188 0.248-0.301 0.561-0.301 0.901 0 0.828 0.672 1.5 1.5 1.5 0.144 0 0.283-0.020 0.415-0.058l-0.011 0.003c0 0 1.366-0.381 3.142-0.674 0.837-0.138 1.59-0.031 2.472-0.076l-7.201 9.259c-0.194 0.25-0.311 0.569-0.311 0.914 0 0.828 0.672 1.5 1.5 1.5 0.346 0 0.664-0.117 0.918-0.313l-0.003 0.003 9.993-7.773c0.021 1-0.083 2.039-0.33 2.998-0.434 1.684-1.051 2.922-1.051 2.922-0.1 0.196-0.159 0.427-0.159 0.672 0 0.828 0.672 1.5 1.5 1.5 0.34 0 0.653-0.113 0.905-0.303l7.245-5.434c0.366-0.277 0.6-0.711 0.6-1.2 0 0 0-0.001 0-0.002v0-4.816l8.622-8.622c0.203-0.203 0.348-0.464 0.408-0.756l0.002-0.010 1.812-9.062c0.019-0.089 0.029-0.191 0.029-0.296 0-0.828-0.672-1.5-1.5-1.5-0.017 0-0.034 0-0.051 0.001h0.002zM28.588 3.413l-1.281 6.41-8.741 8.741c-0.271 0.271-0.439 0.646-0.439 1.060v0 4.687l-2.967 2.226c0.363-1.826 0.548-3.911-0.336-5.933-0.238-0.533-0.763-0.898-1.374-0.898-0.349 0-0.669 0.119-0.924 0.318l0.003-0.002-2.478 1.928 1.756-2.258c0.196-0.251 0.315-0.571 0.315-0.919 0-0.712-0.495-1.307-1.16-1.461l-0.010-0.002c-1.914-0.428-4.043-0.214-5.89 0.070l2.629-3.506h4.687c0.414 0 0.789-0.168 1.060-0.439l8.739-8.739z"></path>
</svg>
