<!-- Generated by IcoMoon.io -->
<svg version="1.1" xmlns="http://www.w3.org/2000/svg" width="32" height="32" viewBox="0 0 32 32">
<title>rss-r</title>
<path d="M0 0v1.076c0 0.722 0 1.445 0 2.168v0.922l0.92 0.074c6.932 0.551 13.702 3.66 18.572 8.611 4.758 4.837 7.731 11.456 8.268 18.229l0.074 0.92h0.924c0.723 0 1.444 0 2.166 0h1.076l-0.078-1.072c-0.573-7.825-3.945-15.387-9.459-20.994-5.644-5.739-13.38-9.267-21.391-9.855zM0 11.609v1.158c0 0.737 0 1.476 0 2.213v0.848l0.836 0.139c3.83 0.635 7.49 2.474 10.193 5.223 2.633 2.677 4.392 6.245 5.010 9.975l0.137 0.836h0.85c0.728 0 1.456 0 2.184 0h1.156l-0.168-1.146c-0.694-4.704-2.849-9.17-6.203-12.58-3.441-3.499-8.014-5.781-12.848-6.494zM2.629 26.795c-0.708-0.011-1.391 0.264-1.893 0.764v0.002h-0.002c-0.366 0.366-0.614 0.832-0.715 1.34l-0.020 0.098v0.098c0 0.213 0 0.426 0 0.639v0.1l0.020 0.098c0.101 0.505 0.35 0.969 0.713 1.334l0.002 0.002c0.363 0.362 0.826 0.61 1.328 0.713l0.098 0.020h0.102c0.22 0 0.438 0 0.658 0h0.103l0.102-0.021c0.499-0.104 0.958-0.352 1.318-0.713 1.014-1.016 1.012-2.693-0.004-3.707-0.481-0.48-1.131-0.753-1.811-0.764z"></path>
</svg>
