<!-- Generated by IcoMoon.io -->
<svg version="1.1" xmlns="http://www.w3.org/2000/svg" width="32" height="32" viewBox="0 0 32 32">
<title>rss-l</title>
<path d="M0 0v0.377c0 0.755 0 1.509 0 2.264v0.324l0.322 0.025c7.414 0.589 14.637 3.907 19.85 9.207 5.092 5.178 8.264 12.237 8.838 19.48l0.025 0.322h0.324c0.755 0 1.509 0 2.264 0h0.377l-0.027-0.375c-0.587-8.012-4.045-15.767-9.688-21.504-5.776-5.873-13.709-9.491-21.91-10.094zM0 12.189v0.406c0 0.771 0 1.54 0 2.311v0.297l0.293 0.049c4.145 0.687 8.097 2.673 11.033 5.658 2.859 2.907 4.757 6.761 5.426 10.797l0.049 0.293h0.297c0.761 0 1.521 0 2.281 0h0.406l-0.061-0.4c-0.704-4.773-2.893-9.308-6.289-12.762-3.486-3.545-8.133-5.864-13.035-6.588zM2.041 27.949c-0.552-0.009-1.084 0.206-1.475 0.596l-0.002 0.002c-0.285 0.285-0.48 0.649-0.559 1.045l-0.006 0.033v0.035c0 0.223 0 0.445 0 0.668v0.033l0.008 0.035c0.079 0.394 0.271 0.755 0.555 1.039v0.002c0.283 0.282 0.643 0.475 1.035 0.555l0.035 0.008h0.035c0.23 0 0.46 0 0.689 0h0.035l0.037-0.008c0.389-0.081 0.746-0.273 1.027-0.555 0.795-0.796 0.792-2.098-0.004-2.893-0.375-0.375-0.882-0.588-1.412-0.596z"></path>
</svg>
