<!-- Generated by IcoMoon.io -->
<svg version="1.1" xmlns="http://www.w3.org/2000/svg" width="32" height="32" viewBox="0 0 32 32">
<title>scissors-l</title>
<path d="M7.928 0.534c-1.294 0.912-1.649 2.675-0.779 4.014l7.158 11.023c-1.113 1.713-2.225 3.426-3.337 5.139-0.279-0.648-0.71-1.206-1.317-1.6-1.247-0.81-2.826-0.667-4.231 0.006s-2.739 1.882-3.777 3.481-1.598 3.307-1.642 4.864c-0.043 1.557 0.467 3.057 1.715 3.867s2.824 0.667 4.229-0.006c1.405-0.673 2.741-1.88 3.779-3.479l6.275-9.662 6.275 9.662c1.038 1.599 2.372 2.806 3.777 3.479s2.982 0.816 4.229 0.006c1.247-0.81 1.76-2.309 1.717-3.867s-0.605-3.265-1.644-4.864c-1.038-1.599-2.372-2.808-3.777-3.481s-2.982-0.816-4.229-0.006c-0.607 0.394-1.038 0.952-1.317 1.6-1.113-1.713-2.225-3.426-3.337-5.139l7.158-11.023c0.87-1.34 0.513-3.102-0.781-4.014-2.691 4.143-5.38 8.286-8.071 12.429-2.691-4.143-5.382-8.286-8.073-12.429zM15.934 14.663c0.001 0 0.001 0 0.002 0s0.001 0 0.002 0v0c0.009 0 0.020-0.001 0.031-0.001s0.022 0 0.033 0.001h-0.002c0.5 0 0.906 0.406 0.906 0.906v0c0 0.5-0.406 0.906-0.906 0.906v0c-0.5 0-0.906-0.406-0.906-0.906v0c0-0.001 0-0.001 0-0.002 0-0.477 0.369-0.868 0.837-0.904h0.003zM7.607 20.444c0.4-0.015 0.742 0.075 1.015 0.252 0.546 0.354 0.888 1.101 0.856 2.231s-0.469 2.55-1.337 3.887c-0.869 1.337-1.991 2.316-3.010 2.804s-1.835 0.479-2.381 0.125c-0.546-0.354-0.888-1.097-0.856-2.227s0.471-2.552 1.34-3.889c0.869-1.337 1.987-2.314 3.006-2.802 0.51-0.244 0.968-0.366 1.369-0.381zM24.392 20.444c0.4 0.015 0.859 0.137 1.369 0.381 1.020 0.488 2.14 1.465 3.008 2.802s1.308 2.76 1.34 3.889c0.031 1.13-0.31 1.873-0.856 2.227s-1.362 0.363-2.381-0.125c-1.020-0.488-2.142-1.467-3.010-2.804s-1.306-2.757-1.337-3.887c-0.031-1.13 0.308-1.877 0.854-2.231 0.273-0.177 0.614-0.267 1.015-0.252z"></path>
</svg>
