<!-- Generated by IcoMoon.io -->
<svg version="1.1" xmlns="http://www.w3.org/2000/svg" width="32" height="32" viewBox="0 0 32 32">
<title>scissors-r</title>
<path d="M8.396 0.533c-0.136 0.002-0.262 0.046-0.364 0.12l0.002-0.001c-1.506 1.061-1.923 3.137-0.91 4.696l6.602 10.167c-0.833 1.283-1.667 2.567-2.5 3.85-0.265-0.35-0.445-0.757-0.831-1.008-1.425-0.925-3.184-0.742-4.66-0.035-1.467 0.703-2.816 1.939-3.862 3.55s-1.624 3.345-1.669 4.971c-0.045 1.636 0.502 3.314 1.927 4.24s3.18 0.742 4.656 0.035c1.466-0.702 2.818-1.934 3.865-3.546l5.45-8.394 5.45 8.394c1.047 1.611 2.398 2.843 3.865 3.546 1.476 0.707 3.232 0.89 4.656-0.035s1.973-2.603 1.927-4.24c-0.045-1.626-0.625-3.36-1.671-4.971s-2.395-2.847-3.863-3.55c-1.476-0.707-3.234-0.89-4.658 0.035-0.387 0.251-0.567 0.658-0.831 1.008-0.833-1.283-1.667-2.567-2.5-3.85l6.604-10.167c1.013-1.559 0.593-3.635-0.913-4.696-0.102-0.073-0.23-0.117-0.368-0.117-0.223 0-0.419 0.114-0.533 0.287l-0.001 0.002c-2.388 3.677-4.777 7.354-7.165 11.031-2.388-3.677-4.779-7.354-7.167-11.031-0.115-0.177-0.312-0.292-0.536-0.292-0.001 0-0.001 0-0.002 0v0zM16 14.477c0.589 0 1.067 0.478 1.067 1.067v0c0 0.589-0.478 1.067-1.067 1.067v0c-0.589 0-1.067-0.478-1.067-1.067v0c0-0.589 0.478-1.067 1.067-1.067v0zM0 16.454v0.619c0 0.217 0.031 0.427 0.077 0.629-0.047-0.406-0.077-0.821-0.077-1.248zM8.119 20.802c0.273-0.010 0.457 0.045 0.596 0.135 0.279 0.181 0.551 0.636 0.525 1.577-0.026 0.928-0.401 2.194-1.171 3.379s-1.775 2.045-2.612 2.446c-0.85 0.407-1.367 0.343-1.648 0.16s-0.555-0.631-0.529-1.573c0.026-0.927 0.408-2.194 1.177-3.379s1.771-2.045 2.608-2.446c0.427-0.204 0.783-0.29 1.054-0.3zM24.081 20.802c0.271 0.010 0.625 0.096 1.052 0.3 0.838 0.401 1.843 1.261 2.613 2.446s1.149 2.452 1.175 3.379c0.026 0.942-0.246 1.39-0.527 1.573s-0.798 0.247-1.648-0.16c-0.838-0.401-1.845-1.261-2.615-2.446s-1.145-2.451-1.171-3.379c-0.026-0.942 0.244-1.396 0.523-1.577 0.139-0.090 0.325-0.146 0.598-0.135z"></path>
</svg>
