<!-- Generated by IcoMoon.io -->
<svg version="1.1" xmlns="http://www.w3.org/2000/svg" width="32" height="32" viewBox="0 0 32 32">
<title>share-l</title>
<path d="M26 0c-3.304 0-6 2.696-6 6 0 0.826 0.17 1.617 0.475 2.334-3.085 1.572-6.171 3.144-9.258 4.717-1.033-1.818-2.985-3.051-5.217-3.051-3.304 0-6 2.696-6 6s2.696 6 6 6c2.234 0 4.186-1.235 5.219-3.055 3.086 1.572 6.171 3.145 9.256 4.719-0.305 0.718-0.475 1.508-0.475 2.336 0 3.304 2.696 6 6 6s6-2.696 6-6c0-3.304-2.696-6-6-6-1.867 0-3.539 0.862-4.641 2.207-3.173-1.618-6.347-3.235-9.521-4.852 0.102-0.436 0.162-0.889 0.162-1.355 0-0.468-0.060-0.922-0.162-1.359 3.174-1.617 6.347-3.232 9.52-4.848 1.102 1.346 2.775 2.207 4.643 2.207 3.304 0 6-2.696 6-6s-2.696-6-6-6zM26 1.699c2.385 0 4.301 1.916 4.301 4.301s-1.916 4.301-4.301 4.301c-2.385 0-4.301-1.916-4.301-4.301s1.916-4.301 4.301-4.301zM6 11.699c2.385 0 4.301 1.916 4.301 4.301s-1.916 4.301-4.301 4.301c-2.385 0-4.301-1.916-4.301-4.301s1.916-4.301 4.301-4.301zM26 21.699c2.385 0 4.301 1.916 4.301 4.301s-1.916 4.301-4.301 4.301c-2.385 0-4.301-1.916-4.301-4.301s1.916-4.301 4.301-4.301z"></path>
</svg>
