<!-- Generated by IcoMoon.io -->
<svg version="1.1" xmlns="http://www.w3.org/2000/svg" width="28" height="32" viewBox="0 0 28 32">
<title>shield-l</title>
<path d="M14.039 0c-1.291 0.010-2.577 0.071-3.859 0.176-0.001 0-0.001 0-0.002 0s-0.001 0-0.002 0v0c-1.036 0.090-2.071 0.211-3.098 0.361-0.779 0.111-1.379 0.778-1.41 1.564-0.049 1.040-0.333 2.079-0.816 3.002 0.001-0.004 0-0.002 0 0l-0.002 0.006c-0.209 0.406-0.458 0.756-0.711 1.006-0.001 0.001-0.003 0.003-0.004 0.004v0c-0.245 0.245-0.523 0.406-0.734 0.461-0.006 0.003-0.007 0.004-0.009 0.004l0.005-0.002c-0.233 0.062-0.571 0.023-0.797-0.092l-0.010-0.004c-0.47-0.251-1.037-0.258-1.516-0.014-0.478 0.244-0.802 0.706-0.883 1.225 0 0 0 0.001 0 0.001s0 0.001 0 0.001v0c-0.398 2.632-0.129 5.224 0.373 7.693 0 0.005-0.004 0.024-0.004 0.029v0.004c0 0 0 0.001 0 0.001s0 0.001 0 0.001v0c0 0.123 0.015 0.219 0.033 0.305 0.001 0.003 0.001 0.008 0.002 0.012 0.002 0.023-0.005-0.013 0.008 0.045 0 0.001 0.002 0.002 0.002 0.004 0.93 4.309 2.948 8.437 6.176 11.591 0 0 0 0.001 0 0.001s0 0.001 0 0.001v0c1.916 1.864 4.158 3.383 6.595 4.474 0.221 0.101 0.445 0.131 0.652 0.133 0.264 0.021 0.54-0.007 0.801-0.121 0.008-0.002 0.010-0.003 0.012-0.004l-0.006 0.002c2.438-1.097 4.681-2.618 6.594-4.484 3.247-3.17 5.272-7.326 6.195-11.664 0.547-2.569 0.821-5.279 0.406-8.021 0 0 0-0.001 0-0.001s0-0.001 0-0.001v0c-0.082-0.53-0.421-0.983-0.898-1.221-0.475-0.239-1.038-0.232-1.5 0.004-0.010 0.005-0.016 0.009-0.022 0.012l0.004-0.002c-0.21 0.114-0.554 0.154-0.795 0.090 0.004 0.001 0.002 0 0 0l-0.006-0.002c-0.21-0.054-0.492-0.218-0.742-0.465-0.246-0.242-0.488-0.591-0.707-1.008v-0.002c0 0-0.002-0.002-0.002-0.002-0.479-0.923-0.76-1.963-0.808-3.002v-0.006c-0.034-0.79-0.636-1.446-1.41-1.559h-0.002c-1.027-0.15-2.059-0.271-3.096-0.361-0.001 0-0.002 0-0.003 0s-0.002 0-0.003 0v0c-1.278-0.105-2.567-0.166-3.853-0.176-0.008 0 0.004 0-0.004 0-0.101-0.002-0.017 0.002-0.053 0.006-0.027-0.003-0.059-0.006-0.091-0.006v0zM13.934 1.705c0.024 0.001 0.036 0.001 0.111 0.006 0.017 0.001 0.036 0.002 0.056 0.002s0.039-0.001 0.058-0.002h-0.003c0.095-0.006 0.12-0.005 0.139-0.006 1.202 0.012 2.409 0.070 3.607 0.168l-0.004-0.002c0.994 0.087 1.982 0.203 2.967 0.346 0.066 1.28 0.402 2.541 0.99 3.674 0.003 0.006 0.004 0.007 0.004 0.009l-0.002-0.005c0.273 0.519 0.596 1.014 1.020 1.432 0.419 0.413 0.922 0.748 1.51 0.9 0.661 0.175 1.35 0.080 1.963-0.23 0.365 2.455 0.128 4.94-0.389 7.371-0.863 4.058-2.753 7.905-5.72 10.802-1.763 1.721-3.833 3.124-6.084 4.139-0.024-0.003-0.053-0.004-0.082-0.004-0.003 0-0.006 0-0.008 0v0c-2.252-1.009-4.327-2.414-6.097-4.137-2.951-2.884-4.833-6.705-5.703-10.738-0.002-0.008-0.003-0.011-0.003-0.014l0.001 0.006c0-0.001 0-0.001 0-0.002s0-0.001 0-0.002v0c0.001-0.013 0.002-0.030 0.002-0.046v-0.016c0-0.061-0.006-0.12-0.019-0.177l0.001 0.006c-0.493-2.38-0.731-4.795-0.377-7.181 0.607 0.299 1.297 0.402 1.965 0.225 0.584-0.153 1.082-0.488 1.496-0.9 0.416-0.41 0.752-0.903 1.025-1.434 0.594-1.134 0.932-2.396 0.998-3.676 0.984-0.143 1.974-0.259 2.967-0.346l-0.004 0.002c1.203-0.098 2.409-0.156 3.615-0.168zM14.344 5.002c-0.872 0.007-1.742 0.046-2.607 0.117-0.006 0.003-0.007 0.004-0.009 0.004l0.005-0.002c-0.701 0.061-1.4 0.143-2.094 0.244-0.648 0.094-1.155 0.65-1.184 1.307 0 0.001 0 0.003 0 0.004s-0.002 0.002-0.002 0.002c-0.031 0.655-0.209 1.314-0.514 1.894 0.001-0.004 0-0.002 0 0l-0.002 0.006c-0.129 0.251-0.282 0.463-0.424 0.604-0.001 0.001-0.003 0.003-0.004 0.004v0c-0.135 0.135-0.283 0.213-0.363 0.234-0.006 0.003-0.007 0.004-0.009 0.004l0.005-0.002c-0.084 0.022-0.252 0.004-0.338-0.041-0.395-0.21-0.87-0.217-1.273-0.012-0.401 0.205-0.675 0.592-0.742 1.027 0 0.001 0 0.001 0 0.002s0 0.001 0 0.002v0c-0.271 1.791-0.088 3.542 0.246 5.201 0 0.001-0.002 0.006-0.002 0.008s0 0.002 0 0.003 0 0.002 0 0.003v0 0.004c0 0 0 0.001 0 0.001s0 0.001 0 0.001v0c0 0.125 0.018 0.207 0.031 0.27 0.002 0.020-0.004-0.008 0.004 0.029 0.633 2.934 2.008 5.753 4.217 7.912-0.003-0.002-0.002-0.001-0.001 0l0.005 0.002c1.308 1.273 2.835 2.31 4.498 3.055 0.19 0.086 0.382 0.108 0.555 0.109 0.122-0.001 0.239-0.015 0.248-0.018 0.378-0.091 0.655-0.426 0.656-0.826v-20.294c0-0.428-0.317-0.783-0.73-0.841l-0.005-0.001c-0.014-0.003-0.033-0.005-0.053-0.008h-0.004c-0.033-0.005-0.072-0.008-0.111-0.008v0zM14.59 26.98c0.011-0.003-0.079 0.026-0.23 0.021 0.002 0 0.005 0.002 0.008 0.002 0.007 0 0.015 0 0.023 0 0.071 0 0.14-0.009 0.205-0.025l-0.006 0.001zM13.545 6.738v17.96c-1.090-0.6-2.179-1.216-3.070-2.084-1.926-1.883-3.163-4.384-3.738-7.033v-0.012c0-0.061-0.006-0.12-0.019-0.177l0.001 0.006c-0.309-1.491-0.413-2.986-0.234-4.459 0.359 0.098 0.718 0.225 1.094 0.125 0.452-0.119 0.824-0.37 1.131-0.676 0.305-0.301 0.545-0.653 0.738-1.027 0.378-0.722 0.558-1.527 0.633-2.338 0.596-0.084 1.194-0.157 1.795-0.209 0.556-0.045 1.113-0.058 1.67-0.076zM26.423 7.988l-0.018 0.010c0 0-0.018-0.001-0.031-0.004 0.015-0.008 0.034 0.002 0.049-0.006zM0.606 15.117c-0.048 0.154-0.039 0.204-0.037 0.254l-0.002-0.006z"></path>
</svg>
