<!-- Generated by IcoMoon.io -->
<svg version="1.1" xmlns="http://www.w3.org/2000/svg" width="28" height="32" viewBox="0 0 28 32">
<title>spades-r</title>
<path d="M14.185 0c0 0 0 0-0.001 0-0.58 0-1.084 0.33-1.333 0.812l-0.004 0.008c-1.249 2.459-2.904 5.392-8.211 9.336-2.49 1.851-3.946 3.999-4.443 6.164s-0.003 4.288 1.133 5.924c1.683 2.423 4.784 3.791 8.057 3.313-0.545 0.832-1.138 1.446-1.635 1.742-0.589 0.351-0.953 0.994-0.953 1.68v1.068c0 1.061 0.892 1.953 1.953 1.953h10.877c1.061 0 1.953-0.892 1.953-1.953v-1.068c0-0.686-0.364-1.329-0.953-1.68 0 0-0.001 0-0.001 0s-0.001 0-0.001 0v0c-0.498-0.296-1.092-0.912-1.637-1.744 3.274 0.479 6.375-0.886 8.059-3.311 1.136-1.636 1.628-3.761 1.131-5.926s-1.951-4.312-4.441-6.162c-5.307-3.944-6.961-6.876-8.211-9.336-0.253-0.491-0.757-0.82-1.337-0.82 0 0 0 0-0.001 0v0zM14.185 4.281c1.41 2.334 3.397 5.042 7.758 8.283 2.054 1.526 2.999 3.078 3.309 4.426s0.020 2.55-0.67 3.543c-1.379 1.986-4.347 3.075-7.529 1.227-0.216-0.128-0.477-0.204-0.755-0.204-0.828 0-1.5 0.672-1.5 1.5 0 0.122 0.015 0.241 0.042 0.355l-0.002-0.010c0.595 2.526 1.876 4.34 3.355 5.6h-8.014c1.479-1.259 2.759-3.073 3.354-5.6 0.025-0.103 0.040-0.221 0.040-0.343 0-0.828-0.672-1.5-1.5-1.5-0.277 0-0.537 0.075-0.76 0.206l0.007-0.004c-3.183 1.849-6.152 0.76-7.531-1.227-0.69-0.993-0.982-2.193-0.672-3.541s1.255-2.901 3.309-4.428c4.361-3.241 6.35-5.949 7.76-8.283z"></path>
</svg>
