<!-- Generated by IcoMoon.io -->
<svg version="1.1" xmlns="http://www.w3.org/2000/svg" width="28" height="32" viewBox="0 0 28 32">
<title>spades-s</title>
<path d="M14 0c-1.415 2.785-3.5 6.385-9.549 10.881-10.029 7.453-1.128 17.755 7.219 12.906-0.704 2.992-2.344 5.162-3.926 6.104-0.147 0.089-0.244 0.248-0.244 0.43 0 0 0 0 0 0v0 1.18c0 0.276 0.224 0.5 0.5 0.5h12.002c0.276 0 0.5-0.224 0.5-0.5v0-1.18c0 0 0 0 0 0 0-0.182-0.097-0.341-0.242-0.428l-0.002-0.001c-1.583-0.942-3.221-3.112-3.926-6.104 8.346 4.846 17.245-5.454 7.217-12.906-6.049-4.496-8.133-8.095-9.549-10.881z"></path>
</svg>
