<!-- Generated by IcoMoon.io -->
<svg version="1.1" xmlns="http://www.w3.org/2000/svg" width="28" height="32" viewBox="0 0 28 32">
<title>spades-l</title>
<path d="M14.105 0c0 0 0 0 0 0-0.329 0-0.614 0.187-0.755 0.46l-0.002 0.005c-1.321 2.6-3.163 5.822-8.791 10.006-2.498 1.856-3.896 3.959-4.371 6.025s-0.006 4.066 1.074 5.621c1.833 2.64 5.435 3.868 9.105 2.705-0.735 1.688-1.693 3.051-2.617 3.602-0.4 0.238-0.647 0.672-0.646 1.137v1.117c0 0.721 0.602 1.322 1.322 1.322h11.365c0.721 0 1.324-0.602 1.324-1.322v-1.117c0-0.465-0.247-0.899-0.646-1.137-0.925-0.55-1.884-1.914-2.619-3.602 3.67 1.162 7.272-0.067 9.105-2.707 1.080-1.555 1.547-3.555 1.072-5.621s-1.874-4.167-4.371-6.023c-5.628-4.183-7.469-7.405-8.791-10.006-0.144-0.278-0.429-0.465-0.758-0.465 0 0 0 0 0 0v0zM14.105 2.43c1.394 2.536 3.451 5.628 8.535 9.406 2.25 1.672 3.36 3.435 3.729 5.039s0.015 3.080-0.813 4.271c-1.655 2.383-5.205 3.589-8.816 1.492-0.122-0.072-0.269-0.115-0.427-0.115-0.469 0-0.85 0.381-0.85 0.85 0 0.069 0.008 0.136 0.024 0.2l-0.001-0.006c0.687 2.915 2.234 5.034 3.926 6.133v0.6h-10.611v-0.6c1.692-1.098 3.239-3.216 3.926-6.133 0.014-0.058 0.023-0.125 0.023-0.194 0-0.469-0.381-0.85-0.85-0.85-0.157 0-0.304 0.043-0.43 0.117l0.004-0.002c-3.612 2.098-7.163 0.891-8.818-1.492-0.827-1.191-1.179-2.668-0.811-4.271s1.476-3.367 3.727-5.039c5.084-3.779 7.141-6.871 8.535-9.406z"></path>
</svg>
