<!-- Generated by IcoMoon.io -->
<svg version="1.1" xmlns="http://www.w3.org/2000/svg" width="32" height="32" viewBox="0 0 32 32">
<title>sphere-s</title>
<path d="M16 0c-0.321 0-0.635 0.028-0.951 0.047-1.994 1.851-3.643 4.778-4.645 8.297 3.841 0 7.351 0 11.191 0-1.001-3.519-2.651-6.446-4.645-8.297-0.317-0.019-0.63-0.047-0.951-0.047zM11.105 0.773c-3.926 1.266-7.197 4.006-9.148 7.57 1.963 0 3.833 0 5.805 0 0.717-2.882 1.859-5.46 3.344-7.57zM20.895 0.773c1.485 2.11 2.627 4.688 3.344 7.57 1.971 0 3.841 0 5.805 0-1.951-3.564-5.222-6.305-9.148-7.57zM0.869 10.844c-0.554 1.621-0.869 3.35-0.869 5.156s0.315 3.536 0.869 5.156c2.146 0 4.227 0 6.393 0-0.265-1.663-0.41-3.39-0.41-5.156s0.145-3.493 0.41-5.156c-2.166 0-4.246 0-6.393 0zM9.822 10.844c-0.301 1.644-0.471 3.373-0.471 5.156s0.17 3.512 0.471 5.156c4.232 0 8.124 0 12.355 0 0.301-1.644 0.471-3.373 0.471-5.156s-0.17-3.512-0.471-5.156c-4.232 0-8.123 0-12.355 0zM24.738 10.844c0.265 1.663 0.41 3.39 0.41 5.156s-0.145 3.493-0.41 5.156c2.165 0 4.246 0 6.393 0 0.554-1.621 0.869-3.35 0.869-5.156s-0.315-3.536-0.869-5.156c-2.146 0-4.227 0-6.393 0zM1.957 23.656c1.951 3.562 5.219 6.302 9.143 7.568-1.482-2.111-2.621-4.689-3.338-7.568-1.971 0-3.841 0-5.805 0zM10.404 23.656c1.001 3.519 2.651 6.446 4.645 8.297 0.317 0.019 0.63 0.047 0.951 0.047s0.635-0.028 0.951-0.047c1.994-1.851 3.643-4.778 4.645-8.297-3.841 0-7.35 0-11.191 0zM24.238 23.656c-0.716 2.879-1.856 5.457-3.338 7.568 3.924-1.266 7.192-4.006 9.143-7.568-1.963 0-3.834 0-5.805 0z"></path>
</svg>
