<!-- Generated by IcoMoon.io -->
<svg version="1.1" xmlns="http://www.w3.org/2000/svg" width="32" height="32" viewBox="0 0 32 32">
<title>sphere-l</title>
<path d="M16 0c-8.826 0-16 7.173-16 16s7.173 16 16 16c8.826 0 16-7.174 16-16s-7.174-16-16-16zM13.477 1.936c-1.925 1.266-3.518 3.069-4.684 5.215-1.336 0-2.576 0-4.020 0 2.122-2.689 5.187-4.59 8.703-5.215zM18.523 1.936c3.516 0.625 6.581 2.525 8.703 5.215-1.443 0-2.683 0-4.020 0-1.166-2.146-2.758-3.949-4.684-5.215zM15.15 2.908c0 1.414 0 2.828 0 4.242-1.373 0-2.957 0-4.371 0 1.147-1.817 2.639-3.289 4.371-4.242zM16.85 2.908c1.732 0.953 3.224 2.425 4.371 4.242-1.414 0-2.998 0-4.371 0 0-1.414 0-2.828 0-4.242zM3.623 8.85c1.608 0 2.892 0 4.361 0-0.789 1.934-1.254 4.073-1.35 6.301-1.631 0-3.261 0-4.893 0 0.134-2.288 0.798-4.428 1.881-6.301zM9.854 8.85c1.734 0 3.633 0 5.297 0 0 2.1 0 4.201 0 6.301-2.272 0-4.544 0-6.816 0 0.108-2.267 0.644-4.414 1.52-6.301zM16.85 8.85c1.663 0 3.563 0 5.297 0 0.875 1.887 1.411 4.034 1.52 6.301-2.272 0-4.544 0-6.816 0 0-2.1 0-4.201 0-6.301zM24.016 8.85c1.469 0 2.753 0 4.361 0 1.083 1.873 1.746 4.013 1.881 6.301-1.631 0-3.262 0-4.893 0-0.096-2.227-0.56-4.367-1.35-6.301zM1.742 16.85c1.631 0 3.262 0 4.893 0 0.096 2.227 0.56 4.367 1.35 6.301-1.469 0-2.753 0-4.361 0-1.083-1.873-1.746-4.013-1.881-6.301zM8.334 16.85c2.272 0 4.544 0 6.816 0 0 2.1 0 4.2 0 6.301-1.663 0-3.563 0-5.297 0-0.875-1.887-1.411-4.034-1.52-6.301zM16.85 16.85c2.272 0 4.544 0 6.816 0-0.108 2.267-0.644 4.414-1.52 6.301-1.734 0-3.634 0-5.297 0 0-2.1 0-4.201 0-6.301zM25.365 16.85c1.631 0 3.262 0 4.893 0-0.134 2.288-0.798 4.428-1.881 6.301-1.608 0-2.892 0-4.361 0 0.789-1.934 1.254-4.073 1.35-6.301zM4.773 24.85c1.443 0 2.683 0 4.020 0 1.166 2.146 2.758 3.949 4.684 5.215-3.516-0.625-6.581-2.525-8.703-5.215zM10.779 24.85c1.414 0 2.998 0 4.371 0 0 1.414 0 2.828 0 4.242-1.732-0.953-3.224-2.425-4.371-4.242zM16.85 24.85c1.373 0 2.957 0 4.371 0-1.147 1.817-2.639 3.289-4.371 4.242 0-1.414 0-2.828 0-4.242zM23.207 24.85c1.336 0 2.577 0 4.020 0-2.122 2.689-5.187 4.59-8.703 5.215 1.925-1.266 3.518-3.069 4.684-5.215z"></path>
</svg>
