<!-- Generated by IcoMoon.io -->
<svg version="1.1" xmlns="http://www.w3.org/2000/svg" width="32" height="32" viewBox="0 0 32 32">
<title>sphere-r</title>
<path d="M16 0c-8.819 0-16 7.181-16 16s7.181 16 16 16c8.819 0 16-7.181 16-16s-7.181-16-16-16zM12.264 3.547c-1.43 1.661-2.504 3.786-3.186 6.168-1.482 0-2.912 0-4.463 0 1.626-2.947 4.359-5.187 7.648-6.168zM19.736 3.547c3.289 0.981 6.023 3.221 7.648 6.168-1.551 0-2.982 0-4.463 0-0.681-2.382-1.755-4.507-3.186-6.168zM16 4.168c1.529 1.143 2.856 3.107 3.721 5.547-2.422 0-5.020 0-7.441 0 0.865-2.44 2.192-4.404 3.721-5.547zM3.432 12.715c1.771 0 3.343 0 5.018 0-0.148 1.070-0.229 2.168-0.229 3.285s0.081 2.216 0.229 3.285c-1.674 0-3.246 0-5.018 0-0.272-1.050-0.432-2.148-0.432-3.285s0.159-2.235 0.432-3.285zM11.502 12.715c2.939 0 6.058 0 8.996 0 0.18 1.053 0.281 2.153 0.281 3.285s-0.101 2.232-0.281 3.285c-2.939 0-6.057 0-8.996 0-0.18-1.053-0.281-2.153-0.281-3.285s0.101-2.232 0.281-3.285zM23.551 12.715c1.674 0 3.246 0 5.018 0 0.273 1.050 0.432 2.148 0.432 3.285s-0.159 2.235-0.432 3.285c-1.771 0-3.343 0-5.018 0 0.148-1.070 0.229-2.168 0.229-3.285s-0.081-2.216-0.229-3.285zM4.615 22.285c1.551 0 2.981 0 4.463 0 0.681 2.382 1.755 4.507 3.186 6.168-3.289-0.981-6.023-3.221-7.648-6.168zM12.279 22.285c2.422 0 5.020 0 7.441 0-0.865 2.44-2.192 4.404-3.721 5.547-1.529-1.143-2.856-3.107-3.721-5.547zM22.922 22.285c1.481 0 2.912 0 4.463 0-1.626 2.947-4.359 5.187-7.648 6.168 1.43-1.661 2.504-3.786 3.186-6.168z"></path>
</svg>
