<!-- Generated by IcoMoon.io -->
<svg version="1.1" xmlns="http://www.w3.org/2000/svg" width="32" height="32" viewBox="0 0 32 32">
<title>sun-l</title>
<path d="M15.982 0c-0.611 0.010-1.108 0.522-1.098 1.133 0.001 0.992 0 2.965 0 2.965 0 0.337 0.14 0.641 0.355 0.834s0.49 0.281 0.758 0.281 0.541-0.085 0.758-0.277c0.217-0.192 0.359-0.498 0.359-0.836 0 0 0.001-1.974 0-2.971 0.008-0.623-0.51-1.139-1.133-1.129zM5.465 4.361c-0.482 0.001-0.875 0.311-1.031 0.697s-0.091 0.881 0.256 1.217c0.702 0.701 2.1 2.098 2.1 2.098 0.239 0.239 0.555 0.355 0.844 0.338s0.543-0.149 0.732-0.338c0.189-0.189 0.323-0.443 0.34-0.732s-0.099-0.605-0.338-0.844c0 0-1.397-1.396-2.102-2.1l-0.004-0.002c-0.209-0.213-0.496-0.334-0.795-0.334zM26.5 4.363c-0.289 0.008-0.564 0.127-0.766 0.334-0.705 0.703-2.102 2.1-2.102 2.1-0.239 0.239-0.355 0.554-0.338 0.844s0.148 0.545 0.338 0.734c0.189 0.189 0.445 0.319 0.734 0.336s0.604-0.099 0.844-0.338c0 0 1.395-1.397 2.098-2.098 0.352-0.341 0.416-0.844 0.252-1.232s-0.57-0.693-1.059-0.68zM16 7.315c-4.791 0-8.693 3.9-8.693 8.689s3.903 8.689 8.693 8.689c4.791 0 8.693-3.9 8.693-8.689s-3.903-8.689-8.693-8.689zM16 9.090c3.831 0 6.918 3.085 6.918 6.914s-3.087 6.914-6.918 6.914c-3.831 0-6.918-3.085-6.918-6.914s3.087-6.914 6.918-6.914zM1.113 14.891c-0.338 0-0.642 0.141-0.834 0.357s-0.28 0.49-0.279 0.758c0 0.267 0.089 0.54 0.281 0.756s0.498 0.358 0.836 0.357c0.99-0.001 2.971 0 2.971 0 0.338 0 0.643-0.141 0.836-0.357s0.281-0.488 0.281-0.756c0-0.268-0.087-0.541-0.279-0.758s-0.496-0.357-0.834-0.357h-0.002c0 0-1.982-0.001-2.977 0zM27.908 14.891c-0.338 0-0.642 0.141-0.834 0.357s-0.28 0.49-0.279 0.758c0 0.267 0.089 0.54 0.281 0.756s0.498 0.358 0.836 0.357c0.99-0.001 2.973 0 2.973 0h0.002c0.338 0 0.642-0.141 0.834-0.357s0.279-0.49 0.279-0.758c0-0.268-0.087-0.539-0.279-0.756s-0.496-0.357-0.834-0.357c0 0-1.981-0.001-2.977 0zM7.553 23.303c-0.289 0.008-0.563 0.127-0.766 0.334-0.705 0.704-2.102 2.104-2.102 2.104-0.238 0.239-0.355 0.553-0.338 0.842s0.15 0.545 0.34 0.734 0.443 0.319 0.732 0.336c0.289 0.017 0.605-0.099 0.844-0.338 0 0 1.396-1.399 2.098-2.1 0.352-0.341 0.414-0.844 0.25-1.232s-0.569-0.694-1.059-0.68zM24.41 23.303c-0.481 0.002-0.873 0.31-1.029 0.695s-0.088 0.881 0.258 1.217c0.702 0.7 2.098 2.1 2.098 2.1 0.239 0.24 0.553 0.354 0.842 0.338s0.545-0.147 0.734-0.336c0.189-0.189 0.321-0.443 0.338-0.732s-0.097-0.604-0.336-0.844c0 0-1.396-1.4-2.102-2.104l-0.004-0.002c-0.21-0.213-0.497-0.333-0.797-0.332zM15.982 26.785c-0.611 0.010-1.108 0.522-1.098 1.133 0.001 0.992 0 2.967 0 2.967 0 0.338 0.141 0.643 0.357 0.836s0.49 0.279 0.758 0.279c0.268 0 0.539-0.087 0.756-0.279s0.359-0.498 0.359-0.836c0 0 0.001-1.974 0-2.971 0.008-0.623-0.51-1.139-1.133-1.129z"></path>
</svg>
