<!-- Generated by IcoMoon.io -->
<svg version="1.1" xmlns="http://www.w3.org/2000/svg" width="28" height="32" viewBox="0 0 28 32">
<title>switch-r</title>
<path d="M12.5 0c0.001 5.332 0.001 10.666 0 16h3c0.001-5.335 0.001-10.667 0-16zM9.4 4.793c-5.461 1.911-9.4 7.105-9.4 13.207 0 7.714 6.286 14 14 14s14-6.286 14-14c0-6.102-3.94-11.297-9.402-13.207 0 1.072 0 2.145 0 3.217 3.782 1.736 6.402 5.543 6.402 9.99 0 6.093-4.907 11-11 11s-11-4.907-11-11c0-4.447 2.619-8.253 6.4-9.99 0-1.072 0-2.145 0-3.217z"></path>
</svg>
