<!-- Generated by IcoMoon.io -->
<svg version="1.1" xmlns="http://www.w3.org/2000/svg" width="32" height="32" viewBox="0 0 32 32">
<title>truck-s</title>
<path d="M3.707 3.5c-2.032 0-3.707 1.673-3.707 3.705v1.631h0.002v13.191l2.17 2.172h2.189c0 0.024-0.008 0.046-0.008 0.070 0 2.228 1.813 4.041 4.041 4.041s4.039-1.813 4.039-4.041c0-0.024-0.007-0.046-0.008-0.070h8.535c0 0.024-0.008 0.046-0.008 0.070 0 2.228 1.813 4.041 4.041 4.041s4.039-1.813 4.039-4.041c0-0.024-0.007-0.046-0.008-0.070h2.975v-6.289l-4.006-9.104h-5.764l-0.004-1.223v-0.379c0-2.030-1.671-3.705-3.703-3.705zM22.002 11.781h4.121l2.916 5.83h-7.037v-0.4c0 0 0.001-2.87 0-4.629v-0.4z"></path>
</svg>
