<!-- Generated by IcoMoon.io -->
<svg version="1.1" xmlns="http://www.w3.org/2000/svg" width="39" height="32" viewBox="0 0 39 32">
<title>unlock-r</title>
<path d="M28.734 0c-5.392 0-9.779 4.387-9.779 9.779v2.369c-5.818 0-11.636-0.001-17.455 0-0.828 0-1.5 0.672-1.5 1.5v0 6.176c-0.001 6.706 5.468 12.176 12.174 12.176s12.175-5.47 12.174-12.176v-6.176c0-0.828-0.672-1.5-1.5-1.5v0c-0.297 0-0.595 0-0.893 0v-2.369c0-3.782 2.997-6.779 6.779-6.779s6.781 2.997 6.781 6.779v3.586c0 0.007 0 0.014 0 0.022 0 0.829 0.672 1.5 1.5 1.5s1.5-0.672 1.5-1.5c0-0.008 0-0.015 0-0.023v0.001-3.586c0-5.392-4.389-9.779-9.781-9.779zM3 15.148c6.116-0.001 12.233 0 18.348 0v4.676c0 0 0 0.001 0 0.001s0 0.001 0 0.001v0c0.001 5.084-4.089 9.174-9.174 9.174s-9.175-4.089-9.174-9.174c0 0 0-0.001 0-0.001s0-0.001 0-0.001v0zM12.172 17.564c-1.361 0.006-2.471 1.112-2.471 2.475 0 0.759 0.385 1.442 0.975 1.908-0.003 0.926-0.039 1.965 0.029 2.861 0.001 0.008 0.001 0.015 0.002 0.021v-0.002c0.096 0.732 0.725 1.303 1.48 1.303 0.379 0 0.711-0.139 0.961-0.322s0.442-0.391 0.484-0.699c0.001-0.011 0.002-0.024 0.002-0.038 0-0.002 0-0.004 0-0.006v0l0.037-3.125c0.589-0.466 0.975-1.149 0.975-1.912 0-1.363-1.112-2.47-2.475-2.465z"></path>
</svg>
