<!-- Generated by IcoMoon.io -->
<svg version="1.1" xmlns="http://www.w3.org/2000/svg" width="32" height="32" viewBox="0 0 32 32">
<title>usb-drive-l</title>
<path d="M4.318 8c-2.354 0-4.318 1.815-4.318 4.098v7.848c0 2.286 1.965 4.096 4.318 4.096h18.779c0.458-0.003 0.836-0.384 0.834-0.842v-0.988h7.227c0.459-0.001 0.844-0.382 0.842-0.842v-10.695c0.002-0.462-0.388-0.844-0.85-0.842h-7.219v-0.99c0.002-0.458-0.376-0.838-0.834-0.842zM4.318 9.684h17.938v12.676h-17.938c-1.513 0-2.65-1.090-2.65-2.414v-7.848c0-1.318 1.139-2.414 2.65-2.414zM23.932 11.514h6.393v9.021h-6.393zM26.471 12.807c-0.336 0-0.598 0.285-0.598 0.605v1.174c0 0.331 0.269 0.598 0.598 0.598h1.336c0.335 0 0.598-0.276 0.598-0.598v-1.174c0-0.332-0.269-0.605-0.598-0.605zM26.471 16.859c-0.335 0-0.598 0.277-0.598 0.598v1.174c0 0.331 0.269 0.605 0.598 0.605h1.336c0.336 0 0.598-0.283 0.598-0.605v-1.174c0-0.332-0.269-0.598-0.598-0.598z"></path>
</svg>
