<!-- Generated by IcoMoon.io -->
<svg version="1.1" xmlns="http://www.w3.org/2000/svg" width="32" height="32" viewBox="0 0 32 32">
<title>usb-drive-s</title>
<path d="M4.303 8c-2.34 0-4.303 1.802-4.303 4.074v7.773c0 2.276 1.964 4.074 4.303 4.074h16.82c0.001-5.303 0.001-10.601 0-15.922zM23.209 9.992c-0.254 0.026-0.451 0.239-0.451 0.497 0 0.002 0 0.003 0 0.005v0 10.934c0 0.001 0 0.001 0 0.002 0 0.276 0.224 0.5 0.5 0.5 0.001 0 0.001 0 0.002 0h8.238c0.001 0 0.001 0 0.002 0 0.276 0 0.5-0.224 0.5-0.5 0-0.001 0-0.002 0-0.002v0-10.934c0-0.001 0-0.001 0-0.002 0-0.276-0.224-0.5-0.5-0.5-0.001 0-0.001 0-0.002 0h-8.238c-0.008 0-0.016-0.001-0.025-0.001s-0.018 0-0.027 0.001h0.001zM26.699 12.83h1.359c0.255 0 0.461 0.203 0.461 0.461v1.201c0 0.242-0.206 0.459-0.461 0.459h-1.359c-0.255 0-0.459-0.201-0.459-0.459v-1.201c0-0.242 0.204-0.461 0.459-0.461zM26.699 16.971h1.359c0.255 0 0.461 0.201 0.461 0.459v1.201c0 0.242-0.206 0.461-0.461 0.461h-1.359c-0.255 0-0.459-0.203-0.459-0.461v-1.201c0-0.242 0.204-0.459 0.459-0.459z"></path>
</svg>
