<!-- Generated by IcoMoon.io -->
<svg version="1.1" xmlns="http://www.w3.org/2000/svg" width="29" height="32" viewBox="0 0 29 32">
<title>user-alien-s</title>
<path d="M14.512 0.009c-2.951-0.109-5.862 0.757-8.199 2.475-1.47 1.080-2.719 2.487-3.568 4.135-0.851 1.651-1.287 3.525-1.172 5.408 0.155 2.535 1.272 4.831 2.684 6.752 1.13 1.537 2.46 2.873 3.854 4.084 1.167 1.014 2.5 2.059 4.166 2.619 0.684 0.23 1.396 0.367 2.115 0.406 0.019 0.001 0.041 0.002 0.063 0.002s0.045-0.001 0.067-0.002h-0.003c0.003 0 0.006 0 0.009 0s0.006 0 0.009 0v0c0.013 0.001 0.029 0.001 0.045 0.001s0.032 0 0.047-0.001h-0.002c0.719-0.040 1.431-0.176 2.115-0.406 1.666-0.56 2.999-1.606 4.166-2.619 1.394-1.211 2.724-2.547 3.854-4.084 1.412-1.921 2.529-4.217 2.684-6.752 0.115-1.883-0.321-3.758-1.172-5.408-0.85-1.648-2.098-3.054-3.568-4.135-2.336-1.716-5.243-2.582-8.192-2.475zM22.248 9.908v0.002c0.547 0.015 1.090 0.112 1.615 0.277 0.107 0.008 0.204 0.040 0.29 0.090l-0.003-0.002c0.236 0.112 0.397 0.349 0.397 0.623 0 0.121-0.031 0.235-0.086 0.333l0.002-0.004c-0.152 1.721-0.939 3.364-2.211 4.539-1.013 0.936-2.295 1.559-3.656 1.781-0.742 0.12-1.505 0.116-2.248 0.002-0.001 0-0.002 0-0.004 0-0.381 0-0.69-0.309-0.69-0.69 0-0.032 0.002-0.063 0.006-0.093v0.004c0.108-0.868 0.325-1.719 0.647-2.533 0.4-1.014 0.981-2.005 1.828-2.785 0.778-0.713 1.74-1.214 2.779-1.428h0.006c0.258-0.053 0.519-0.089 0.781-0.107 0.182-0.011 0.365-0.014 0.547-0.010zM6.527 9.916v0.004c0.524-0.034 1.054 0.002 1.57 0.107h0.006c1.040 0.214 2.002 0.714 2.779 1.428 0.847 0.78 1.422 1.769 1.822 2.783 0.321 0.814 0.544 1.668 0.652 2.535 0 0.002 0 0.005 0 0.008s0 0.006 0 0.008v0c0.002 0.021 0.004 0.045 0.004 0.070 0 0.377-0.303 0.684-0.679 0.69h-0.001c-0.747 0.116-1.511 0.121-2.258 0-1.361-0.223-2.647-0.846-3.66-1.781-1.275-1.178-2.069-2.827-2.219-4.553-0.048-0.091-0.076-0.2-0.076-0.315 0-0.266 0.151-0.496 0.371-0.611l0.004-0.002c0.001-0.001 0.005-0.004 0.009-0.006l0.003-0.002c0.085-0.051 0.185-0.085 0.292-0.094h0.003c0.449-0.142 0.91-0.238 1.377-0.27zM4.99 22.998c-2.914 1.054-4.99 3.829-4.99 7.115v1.564c0 0.108 0.013 0.215 0.018 0.322 9.662-0.001 19.321-0.001 28.981 0 0.005-0.107 0.018-0.213 0.018-0.322v-1.564c0-3.286-2.077-6.062-4.99-7.115-0.545 0.54-1.096 1.058-1.656 1.545-1.228 1.067-2.8 2.34-4.92 3.053-0.873 0.293-1.781 0.469-2.701 0.52h-0.037c-0.025 0.001-0.053 0-0.078 0-0.119 0.008-0.238 0.008-0.357 0h-0.008c-0.922-0.050-1.827-0.225-2.701-0.52-2.12-0.713-3.69-1.986-4.918-3.053-0.56-0.487-1.113-1.005-1.658-1.545z"></path>
</svg>
