<!-- Generated by IcoMoon.io -->
<svg version="1.1" xmlns="http://www.w3.org/2000/svg" width="28" height="32" viewBox="0 0 28 32">
<title>user-s</title>
<path d="M13.901 0c-4.447 0-8.068 3.615-8.068 8.063 0 4.453 3.621 8.068 8.068 8.068s8.068-3.616 8.068-8.068c0-4.448-3.621-8.063-8.068-8.063zM8.307 17.227c-0.657 0.019-1.313 0.126-1.941 0.316h-0.002c-1.667 0.513-3.122 1.586-4.172 2.961-0.97 1.267-1.59 2.757-1.91 4.289v0.002c-0.32 1.536-0.344 3.106-0.189 4.641 0.037 0.367 0.084 0.794 0.277 1.215v0.002c0.16 0.357 0.412 0.665 0.729 0.896 0.315 0.241 0.684 0.394 1.068 0.447l0.033 0.004h11.666c0.011 0 0.020-0.001 0.030-0.002h-0.002c0.013 0.001 0.028 0.002 0.043 0.002l11.699-0.004c0.384-0.053 0.753-0.207 1.068-0.447 0.316-0.232 0.569-0.54 0.729-0.896v-0.002c0.194-0.421 0.241-0.847 0.277-1.215 0.155-1.534 0.13-3.105-0.189-4.641v-0.002c-0.32-1.532-0.94-3.022-1.91-4.289-1.049-1.375-2.505-2.448-4.172-2.961h-0.002c-1.677-0.509-3.538-0.424-5.133 0.346h-0.002v0.002c-0.427 0.208-0.794 0.434-1.145 0.574h-0.002c-0.386 0.157-0.8 0.234-1.223 0.234-0.003 0-0.007 0-0.011 0s-0.008 0-0.011 0h0.001c-0.006 0-0.013 0-0.021 0s-0.014 0-0.022 0h0.001c-0.423 0-0.837-0.078-1.223-0.234h-0.002c-0.351-0.14-0.717-0.366-1.145-0.574v-0.002h-0.002c-0.797-0.385-1.661-0.598-2.535-0.652-0.219-0.013-0.437-0.016-0.656-0.010z"></path>
</svg>
