<!-- Generated by IcoMoon.io -->
<svg version="1.1" xmlns="http://www.w3.org/2000/svg" width="29" height="32" viewBox="0 0 29 32">
<title>user-alien-l</title>
<path d="M14.52 0.010c-2.963-0.115-5.885 0.767-8.227 2.488-1.469 1.080-2.713 2.484-3.557 4.119-0.844 1.637-1.274 3.495-1.161 5.351 0.153 2.499 1.26 4.805 2.691 6.752 0.782 1.064 1.671 2.034 2.609 2.943-3.878 0.512-6.875 3.825-6.875 7.842v1.483c0 0.153 0.013 0.27 0.016 0.34 0.016 0.375 0.323 0.672 0.7 0.672 0.001 0 0.001 0 0.002 0v0c9.2-0.001 18.402-0.001 27.601 0 0 0 0.001 0 0.002 0 0.377 0 0.684-0.298 0.7-0.671v-0.001c0.003-0.070 0.016-0.186 0.016-0.34v-1.483c0-4.017-2.996-7.329-6.873-7.842 0.938-0.909 1.825-1.879 2.607-2.943 1.431-1.946 2.538-4.252 2.691-6.752 0.113-1.855-0.317-3.713-1.161-5.351-0.843-1.636-2.087-3.040-3.557-4.119-2.34-1.719-5.261-2.601-8.221-2.488zM14.49 1.38h0.055c2.658-0.109 5.288 0.695 7.377 2.23 1.31 0.962 2.415 2.211 3.152 3.641 0.736 1.428 1.107 3.047 1.010 4.633-0.131 2.142-1.104 4.22-2.427 6.021-1.066 1.45-2.354 2.753-3.738 3.955-1.154 1.003-2.36 1.906-3.695 2.355v-0.006c-0.541 0.182-1.103 0.296-1.673 0.328-0.006 0-0.012 0-0.018 0-0.004 0-0.009 0-0.015 0s-0.010 0-0.015 0h0.001c-0.576-0.031-1.148-0.139-1.694-0.322-1.335-0.449-2.541-1.354-3.695-2.357-1.384-1.203-2.671-2.502-3.736-3.951-1.323-1.8-2.296-3.879-2.427-6.021-0.097-1.587 0.274-3.206 1.010-4.633 0.737-1.429 1.835-2.68 3.144-3.643 2.090-1.535 4.726-2.338 7.385-2.23zM21.953 9.916c-0.182-0.006-0.365-0.002-0.547 0.010-0.262 0.018-0.523 0.053-0.782 0.106h-0.006c-1.040 0.214-2.001 0.715-2.779 1.428-0.847 0.78-1.431 1.772-1.831 2.787-0.321 0.814-0.536 1.668-0.645 2.537-0.004 0.027-0.006 0.058-0.006 0.090 0 0.381 0.309 0.69 0.69 0.69 0.001 0 0.003 0 0.004 0v0c0.744 0.114 1.505 0.116 2.247-0.004 1.361-0.222 2.646-0.844 3.66-1.78 1.272-1.175 2.060-2.822 2.212-4.543 0.052-0.095 0.083-0.208 0.083-0.328 0-0.275-0.161-0.512-0.393-0.622l-0.004-0.002c-0.082-0.048-0.179-0.079-0.283-0.088h-0.003c-0.526-0.165-1.071-0.262-1.618-0.279zM6.84 9.926c-0.467 0.031-0.929 0.128-1.378 0.27-0.109 0.009-0.209 0.043-0.296 0.096l0.003-0.002c-0.009 0.004-0.014 0.006-0.018 0.008l0.004-0.002c-0.225 0.117-0.375 0.347-0.375 0.613 0 0.115 0.028 0.224 0.078 0.319l-0.002-0.004c0.15 1.727 0.947 3.377 2.222 4.555 1.014 0.936 2.297 1.558 3.658 1.78 0.747 0.121 1.511 0.119 2.259 0.002 0.377-0.005 0.682-0.312 0.682-0.69 0-0.025-0.001-0.049-0.004-0.073v0.003c-0.001-0.009-0.002-0.016-0.002-0.023v0.003c-0.109-0.868-0.331-1.72-0.653-2.535-0.4-1.014-0.974-2.006-1.821-2.787-0.778-0.713-1.743-1.215-2.783-1.428h-0.006c-0.517-0.105-1.045-0.141-1.569-0.106zM6.928 11.301c0.404-0.024 0.81 0.001 1.206 0.082 0.787 0.162 1.535 0.546 2.13 1.092 0.648 0.597 1.132 1.403 1.477 2.279 0.191 0.484 0.323 0.987 0.428 1.497-0.406 0.021-0.811 0.017-1.212-0.049-1.090-0.178-2.138-0.688-2.949-1.436-0.942-0.87-1.57-2.093-1.751-3.367 0.22-0.048 0.445-0.083 0.67-0.098zM21.502 11.301c0.202-0.014 0.404-0.013 0.606 0 0.226 0.015 0.448 0.050 0.668 0.098-0.181 1.273-0.809 2.497-1.751 3.367-0.811 0.749-1.857 1.258-2.947 1.436-0.4 0.065-0.808 0.070-1.214 0.049 0.105-0.51 0.239-1.013 0.43-1.497 0.346-0.876 0.83-1.682 1.477-2.279 0.595-0.546 1.341-0.931 2.128-1.092 0.198-0.040 0.4-0.068 0.602-0.082zM7.918 22.989h0.406c1.172 1.011 2.476 2 4.049 2.529 0.665 0.223 1.356 0.357 2.056 0.395 0.015 0.001 0.032 0.002 0.049 0.002s0.034-0.001 0.051-0.002h-0.002c0.011 0.001 0.025 0.001 0.038 0.001s0.027 0 0.040-0.001h-0.002c0.7-0.038 1.393-0.172 2.058-0.395 1.573-0.529 2.878-1.518 4.051-2.529 0 0 0.002 0 0.002 0h0.403c3.62 0 6.515 2.895 6.515 6.515v1.092c-8.741-0.001-17.485-0.001-26.227 0v-1.092c0-3.62 2.893-6.515 6.513-6.515z"></path>
</svg>
