<!-- Generated by IcoMoon.io -->
<svg version="1.1" xmlns="http://www.w3.org/2000/svg" width="26" height="32" viewBox="0 0 26 32">
<title>user-r</title>
<path d="M12.819 0c-4.435 0-8.070 3.63-8.070 8.066 0 4.44 3.635 8.072 8.070 8.072s8.072-3.632 8.072-8.072c0-4.437-3.637-8.066-8.072-8.066zM12.819 3c2.809 0 5.072 2.257 5.072 5.066 0 2.813-2.263 5.072-5.072 5.072s-5.070-2.258-5.070-5.072c0-2.808 2.261-5.066 5.070-5.066zM16.885 16.908c-0.809 0.014-1.583 0.178-2.289 0.52-0.858 0.415-1.205 0.613-1.309 0.654 0 0-0.002 0-0.002 0l-0.010 0.004c-0.127 0.052-0.259 0.080-0.457 0.080s-0.33-0.028-0.457-0.080l-0.010-0.004c0 0-0.002 0-0.002 0-0.103-0.041-0.427-0.226-0.982-0.496-0.743-0.361-1.649-0.564-2.719-0.586-1-0.020-1.823 0.113-2.83 0.422-1.413 0.433-2.696 1.452-3.728 2.805-0.947 1.237-1.532 2.659-1.832 4.096v0.004l-0.031 0.148v0.045c-0.262 1.371-0.278 2.737-0.146 4.043l-0.002-0.002c0.019 0.191 0.138 0.573 0.219 0.902v0.262l0.133 0.291c0 0 0.002 0.002 0.002 0.002 0.237 0.528 0.608 0.977 1.064 1.314 0.458 0.346 0.993 0.572 1.559 0.65l0.018 0.002 0.131 0.016h9.621c0.003 0 0.007 0 0.010 0h9.603l0.146-0.018c0.566-0.079 1.1-0.304 1.559-0.65 0.456-0.336 0.825-0.784 1.063-1.311 0.001-0.002 0.003-0.004 0.004-0.006l0.131-0.293v-0.26c0.081-0.329 0.2-0.709 0.219-0.9v-0.002c0.132-1.305 0.115-2.671-0.146-4.041v-0.045l-0.031-0.148v-0.004c-0.3-1.436-0.886-2.859-1.832-4.096l-0.002-0.002c-1.032-1.351-2.464-2.415-4.148-2.934l-0.006-0.002-0.209-0.064h-0.215c-0.706-0.18-1.412-0.328-2.084-0.316zM16.917 19.984c0.497-0.017 1.092 0.020 1.605 0.176 1.028 0.317 1.966 1 2.643 1.887h0.002c0.632 0.826 1.056 1.828 1.277 2.887 0 0 0 0.002 0 0.002v0.002c0.222 1.066 0.245 2.19 0.131 3.322v0.002c-0.029 0.288-0.060 0.435-0.096 0.514l-0.006 0.014-0.002 0.002c-0.022 0.047-0.057 0.092-0.109 0.131l-0.012 0.010-0.012 0.008c-0.044 0.034-0.094 0.050-0.141 0.061h-9.301l-0.094-0.010-0.084 0.010h-9.279c-0.047-0.011-0.095-0.027-0.139-0.061l-0.023-0.016c-0.053-0.038-0.088-0.086-0.109-0.133 0 0-0.002-0.002-0.002-0.002l-0.006-0.014c-0.036-0.078-0.067-0.226-0.096-0.514v-0.002c-0.114-1.132-0.091-2.256 0.131-3.322l0.002-0.008c0.222-1.056 0.645-2.057 1.275-2.881v-0.002h0.002c0.677-0.887 1.765-1.618 2.223-1.758 0.864-0.265 1.109-0.305 1.891-0.289 0.712 0.014 1.213 0.161 1.469 0.285 0.439 0.213 0.714 0.395 1.176 0.58 0.003 0.001 0.005 0.003 0.008 0.004l0.268 0.105h0.1c0.394 0.116 0.8 0.191 1.211 0.191s0.817-0.075 1.211-0.191h0.102l0.268-0.105c0.002-0.001 0.004-0.003 0.006-0.004 0.464-0.186 0.714-0.356 1.5-0.736 0.118-0.057 0.515-0.128 1.012-0.145z"></path>
</svg>
