<!-- Generated by IcoMoon.io -->
<svg version="1.1" xmlns="http://www.w3.org/2000/svg" width="29" height="32" viewBox="0 0 29 32">
<title>user-alien-r</title>
<path d="M13.542 0.005c-4.883 0.141-9.68 3.234-11.353 7.899-1.273 3.3-0.506 7.083 1.432 9.962 0.764 1.154 1.643 2.23 2.602 3.23-3.566 0.879-6.223 4.095-6.223 7.928v1.424c0 0.189 0.014 0.306 0.016 0.348 0.026 0.67 0.576 1.204 1.25 1.204 0.002 0 0.005 0 0.007 0v0c8.832-0.001 17.657-0.001 26.487 0 0.001 0 0.003 0 0.005 0 0.674 0 1.224-0.533 1.25-1.201v-0.002c0.002-0.041 0.016-0.158 0.016-0.348v-1.424c0-3.834-2.657-7.052-6.225-7.93-0.608 0.625-1.242 1.22-1.891 1.784-0.047 0.040-0.097 0.081-0.145 0.121 0.932-0.805 1.809-1.683 2.653-2.558 2.585-2.802 4.567-6.597 3.937-10.507-0.744-5.116-5.347-9.116-10.375-9.781-0.815-0.122-1.644-0.167-2.466-0.137-0.325-0.017-0.651-0.021-0.977-0.012zM15.306 2.41c4.215 0.107 8.421 2.905 9.488 7.094 0.899 3.261-0.749 6.552-2.864 8.954-1.664 1.813-3.456 3.655-5.742 4.658-1.874 0.839-3.961-0.024-5.453-1.231-2.891-2.324-5.754-5.181-6.59-8.927-0.819-3.784 1.573-7.647 4.922-9.323 1.652-0.866 3.535-1.286 5.398-1.209 0.28-0.017 0.561-0.023 0.842-0.016zM21.951 9.92c-2.615-0.13-4.98 1.745-5.867 4.138-0.362 0.954-0.724 1.971-0.703 2.999 0.306 0.809 1.418 0.499 2.075 0.588 3.322-0.063 6.303-2.788 6.676-6.084 0.106-0.428 0.254-1.048-0.277-1.274-0.604-0.217-1.259-0.343-1.903-0.367zM6.838 9.928c-0.643 0.127-1.463 0.080-1.94 0.594-0.282 0.622 0.121 1.334 0.188 1.979 0.855 3.374 4.481 5.693 7.907 5.062 0.647 0.002 0.811-0.773 0.604-1.266-0.437-2.597-1.936-5.313-4.607-6.111-0.693-0.219-1.427-0.305-2.151-0.258zM7.997 22.77c0.091 0.078 0.179 0.16 0.272 0.236-0.051-0.043-0.105-0.086-0.154-0.129-0.040-0.035-0.078-0.073-0.117-0.107zM8.458 23.163c0.586 0.48 1.19 0.935 1.813 1.362 1.932 1.257 4.437 1.828 6.633 0.916 1.282-0.488 2.419-1.232 3.472-2.094h0.479c3.165 0 5.672 2.513 5.672 5.678v0.473c-8.008 0-16.012-0.001-24.022 0v-0.473c0-3.165 2.505-5.678 5.67-5.678h0.502c-0.074-0.061-0.145-0.123-0.219-0.184z"></path>
</svg>
