<!-- Generated by IcoMoon.io -->
<svg version="1.1" xmlns="http://www.w3.org/2000/svg" width="27" height="32" viewBox="0 0 27 32">
<title>user-l</title>
<path d="M13.659 0c-4.452 0-8.084 3.626-8.084 8.078 0 4.457 3.632 8.084 8.084 8.084s8.084-3.627 8.084-8.084c0-4.453-3.632-8.078-8.084-8.078zM13.659 1.699c3.533 0 6.383 2.845 6.383 6.379 0 3.538-2.85 6.385-6.383 6.385s-6.383-2.846-6.383-6.385c0-3.532 2.85-6.379 6.383-6.379zM19.016 17.133c-1.102-0.032-2.212 0.184-3.223 0.672l-0.002 0.002h-0.002c-0.432 0.21-0.775 0.42-1.068 0.537l-0.002 0.002h-0.002c-0.322 0.131-0.671 0.197-1.029 0.197-0.011 0.001-0.020 0.001-0.029 0.002h0.003c-0.008-0.001-0.020-0.001-0.031-0.002h-0.002c-0.358 0-0.707-0.066-1.029-0.197h-0.002l-0.002-0.002c-0.294-0.117-0.637-0.327-1.068-0.537h-0.002l-0.002-0.002c-0.809-0.39-1.68-0.606-2.561-0.66s-1.771 0.053-2.615 0.309h-0.002v0.002c-1.674 0.515-3.127 1.587-4.174 2.959-0.966 1.262-1.579 2.739-1.895 4.25-0.315 1.514-0.339 3.055-0.188 4.551 0.036 0.357 0.080 0.805 0.295 1.275 0.179 0.398 0.46 0.742 0.813 1.002 0.354 0.27 0.764 0.44 1.193 0.5l0.059 0.008h11.174c0.012-0.001 0.022-0.001 0.033-0.002h-0.003c0.011 0.001 0.026 0.002 0.040 0.002l11.233-0.008c0.429-0.060 0.839-0.23 1.193-0.5 0.352-0.26 0.634-0.604 0.813-1.002 0.215-0.471 0.259-0.919 0.295-1.275 0.151-1.496 0.128-3.037-0.188-4.551-0.316-1.511-0.928-2.988-1.895-4.25-1.047-1.372-2.5-2.444-4.174-2.959v-0.002h-0.002c-0.633-0.192-1.292-0.301-1.953-0.32zM8.854 18.846c0.675 0.041 1.336 0.203 1.932 0.49 0.324 0.158 0.697 0.394 1.176 0.586 0.467 0.19 0.964 0.256 1.459 0.279 0.061 0.021 0.133 0.036 0.206 0.041h0.003c0.009 0 0.019 0 0.029 0s0.021 0 0.031-0.001h-0.001c0.003 0 0.005-0.002 0.008-0.002 0.076-0.005 0.147-0.019 0.215-0.041l-0.006 0.002c0.493-0.024 0.986-0.090 1.451-0.279 0.479-0.192 0.852-0.428 1.176-0.586 1.19-0.574 2.64-0.649 3.939-0.256 1.302 0.4 2.479 1.258 3.324 2.365v0.002c0.787 1.028 1.309 2.268 1.58 3.564 0.272 1.304 0.3 2.671 0.162 4.033h-0.002c-0.033 0.328-0.078 0.586-0.148 0.74l-0.004 0.004-0.002 0.006c-0.059 0.132-0.153 0.248-0.271 0.334l-0.008 0.006-0.008 0.008c-0.107 0.082-0.244 0.135-0.383 0.158h-11.018c-0.001 0-0.003 0-0.004 0s-0.003 0-0.004 0v0c0 0-0.001 0-0.001 0s-0.001 0-0.001 0v0c-0.009 0-0.020-0.001-0.030-0.001s-0.021 0-0.032 0.001h-11.016c-0.138-0.023-0.275-0.076-0.383-0.158l-0.008-0.008-0.008-0.006c-0.118-0.086-0.213-0.202-0.271-0.334l-0.002-0.006-0.004-0.004c-0.071-0.154-0.116-0.412-0.148-0.74h-0.002c-0.138-1.362-0.109-2.729 0.162-4.033 0.271-1.297 0.793-2.537 1.58-3.564v-0.002c0.845-1.107 2.023-1.965 3.324-2.365 0.649-0.196 1.334-0.276 2.008-0.234z"></path>
</svg>
