<!-- Generated by IcoMoon.io -->
<svg version="1.1" xmlns="http://www.w3.org/2000/svg" width="32" height="32" viewBox="0 0 32 32">
<title>video-camera-l</title>
<path d="M5.584 4c-3.074 0-5.584 2.51-5.584 5.584 0 1.604 0.687 3.049 1.777 4.070-1.033 0.395-1.777 1.394-1.777 2.559v9.469c0 1.505 1.239 2.744 2.744 2.744h18.938c1.505 0 2.744-1.239 2.744-2.744v-1.307l6.273 3.922c0.128 0.081 0.284 0.129 0.451 0.129 0.469 0 0.85-0.381 0.85-0.85v0-13.258c0-0.469-0.381-0.85-0.85-0.85-0.167 0-0.323 0.048-0.454 0.131l0.003-0.002-6.273 3.922v-1.307c0-1.505-1.239-2.744-2.744-2.744h-0.734c0.978-1.007 1.584-2.377 1.584-3.885 0-3.074-2.51-5.584-5.584-5.584s-5.584 2.51-5.584 5.584c0 1.508 0.606 2.878 1.584 3.885h-3.363c0.978-1.007 1.584-2.377 1.584-3.885 0-3.074-2.51-5.584-5.584-5.584zM5.584 5.701c2.155 0 3.885 1.728 3.885 3.883s-1.73 3.885-3.885 3.885c-2.155 0-3.885-1.73-3.885-3.885s1.73-3.883 3.885-3.883zM16.947 5.701c2.155 0 3.885 1.728 3.885 3.883s-1.73 3.885-3.885 3.885c-2.155 0-3.885-1.73-3.885-3.885s1.73-3.883 3.885-3.883zM2.744 15.17h18.938c0.578 0 1.043 0.465 1.043 1.043v2.84c0 0 0 0.001 0 0.001s0 0.001 0 0.001v0c0.001 1.253 0.001 2.506 0 3.762 0 0.008 0 0.016 0 0.023 0 0 0 0.001 0 0.001s0 0.001 0 0.001v0 2.84c0 0.578-0.465 1.043-1.043 1.043h-18.938c-0.578 0-1.045-0.465-1.045-1.043v-9.469c0-0.578 0.467-1.043 1.045-1.043zM30.301 15.852v10.191l-5.875-3.672c0.001-0.95 0.001-1.899 0-2.848z"></path>
</svg>
