<!-- Generated by IcoMoon.io -->
<svg version="1.1" xmlns="http://www.w3.org/2000/svg" width="32" height="32" viewBox="0 0 32 32">
<title>volume-low-r</title>
<path d="M17.442 0.011c-0.258-0.024-0.518-0.010-0.77 0.040-0.505 0.101-0.98 0.345-1.357 0.723l-7.635 7.635h-3.107c-1.446 0-2.652 1.206-2.652 2.652v10.515c0 1.446 1.206 2.65 2.652 2.65h3.107l7.635 7.635c0.505 0.505 1.181 0.778 1.873 0.778 0.342 0 0.688-0.067 1.012-0.2l0.003-0.003h0.003c0.986-0.41 1.635-1.381 1.635-2.45v-27.337c0-1.066-0.65-2.042-1.635-2.45-0.247-0.102-0.504-0.164-0.762-0.188zM16.64 3.974v24.688l-7.635-7.635h-3.885v-9.418h3.885zM26.545 9.441c-0.884 0-1.6 0.716-1.6 1.6 0 0.45 0.186 0.856 0.484 1.147v0c2.294 2.294 2.294 5.966 0 8.26-0.302 0.291-0.49 0.7-0.49 1.152 0 0.884 0.716 1.6 1.6 1.6 0.452 0 0.861-0.188 1.152-0.49v0c3.517-3.517 3.517-9.268 0-12.785-0.291-0.299-0.698-0.485-1.148-0.485v0z"></path>
</svg>
