<!-- Generated by IcoMoon.io -->
<svg version="1.1" xmlns="http://www.w3.org/2000/svg" width="32" height="32" viewBox="0 0 32 32">
<title>volume-medium-l</title>
<path d="M14.212 1.152c-0.193-0.018-0.386-0.008-0.574 0.029-0.376 0.075-0.73 0.257-1.011 0.538l-7.453 7.455h-3.199c-1.080 0-1.975 0.896-1.975 1.975v10.040c0 1.080 0.896 1.975 1.975 1.975h3.199l7.453 7.453c0.376 0.376 0.882 0.58 1.397 0.58 0.255 0 0.512-0.050 0.754-0.15l0.002-0.002c0.735-0.305 1.219-1.027 1.219-1.824v-26.107c0-0.795-0.484-1.521-1.219-1.826-0.184-0.076-0.377-0.121-0.569-0.138zM14.038 3.085c0.016 0.007 0.020 0.013 0.020 0.031v26.107c0 0.015-0.008 0.023-0.022 0.029-0.004 0.001-0.008 0.002-0.011 0.002-0.007 0-0.015-0.002-0.022-0.009l-8.025-8.022h-4.002c-0.029 0-0.033-0.005-0.033-0.033v-10.040c0-0.029 0.005-0.033 0.033-0.033h4.002l8.025-8.022c0.012-0.012 0.021-0.015 0.036-0.009zM26.839 5.652c0 0 0 0 0 0-0.537 0-0.972 0.435-0.972 0.972 0 0.273 0.112 0.519 0.293 0.696v0c4.897 4.897 4.897 12.806 0 17.703-0.176 0.176-0.285 0.419-0.285 0.688 0 0.537 0.435 0.972 0.972 0.972 0.269 0 0.512-0.109 0.688-0.285v0c5.639-5.639 5.639-14.812 0-20.451-0.177-0.182-0.423-0.294-0.696-0.295v0zM21.609 10.163c0 0 0 0 0 0-0.537 0-0.972 0.435-0.972 0.972 0 0.274 0.113 0.521 0.295 0.698v0c2.404 2.404 2.404 6.272 0 8.676-0.176 0.176-0.285 0.419-0.285 0.688 0 0.537 0.435 0.972 0.972 0.972 0.268 0 0.512-0.109 0.688-0.285v0c3.147-3.147 3.147-8.279 0-11.426-0.177-0.182-0.424-0.295-0.697-0.295-0.001 0-0.001 0-0.002 0v0z"></path>
</svg>
