<!-- Generated by IcoMoon.io -->
<svg version="1.1" xmlns="http://www.w3.org/2000/svg" width="32" height="32" viewBox="0 0 32 32">
<title>volume-low-s</title>
<path d="M18.967 0.005c-0.334-0.032-0.672 0.085-0.917 0.33l-8.808 8.808h-4.098c-0.631 0-1.143 0.512-1.143 1.143v11.429c0 0.631 0.512 1.143 1.143 1.143h4.098l8.808 8.808c0.218 0.218 0.511 0.335 0.808 0.335 0.147 0 0.296-0.029 0.438-0.087 0.426-0.177 0.705-0.594 0.705-1.056v-29.714c0-0.463-0.278-0.879-0.705-1.056-0.107-0.044-0.217-0.072-0.328-0.083zM24.315 9.347c-0.788 0.001-1.427 0.64-1.427 1.428 0 0.401 0.165 0.763 0.431 1.022v0c2.33 2.33 2.33 6.065 0 8.395-0.259 0.259-0.419 0.616-0.419 1.010 0 0.789 0.64 1.428 1.428 1.428 0.395 0 0.752-0.16 1.010-0.419v0c3.421-3.421 3.421-9.012 0-12.433-0.26-0.267-0.623-0.433-1.024-0.433 0 0 0 0 0 0v0z"></path>
</svg>
