<!-- Generated by IcoMoon.io -->
<svg version="1.1" xmlns="http://www.w3.org/2000/svg" width="32" height="32" viewBox="0 0 32 32">
<title>volume-high-s</title>
<path d="M25.855 2.824c0 0 0 0 0 0-0.65 0-1.176 0.527-1.176 1.176 0 0.331 0.137 0.63 0.357 0.844v0c6.169 6.169 6.169 16.136 0 22.305-0.213 0.213-0.345 0.507-0.345 0.832 0 0.65 0.527 1.176 1.176 1.176 0.325 0 0.619-0.132 0.832-0.345v0c7.068-7.068 7.068-18.564 0-25.632-0.214-0.22-0.513-0.357-0.844-0.357 0 0 0 0 0 0v0zM12.325 2.828c-0.275-0.026-0.554 0.070-0.755 0.272l-7.254 7.254h-3.375c-0.52 0-0.941 0.422-0.941 0.941v9.412c0 0.52 0.422 0.941 0.941 0.941h3.375l7.254 7.254c0.18 0.18 0.421 0.276 0.665 0.276 0.121 0 0.244-0.024 0.36-0.072 0.351-0.146 0.581-0.489 0.581-0.869v-24.471c0-0.381-0.229-0.724-0.581-0.869-0.088-0.036-0.179-0.059-0.27-0.068zM21.294 6.669c0 0 0 0 0 0-0.65 0-1.176 0.527-1.176 1.176 0 0.331 0.137 0.63 0.357 0.844v0c4.045 4.045 4.045 10.569 0 14.614-0.229 0.215-0.372 0.52-0.372 0.858 0 0.65 0.527 1.176 1.176 1.176 0.339 0 0.644-0.143 0.858-0.372l0.001-0.001c4.944-4.944 4.944-12.995 0-17.939-0.214-0.22-0.513-0.357-0.844-0.357 0 0 0 0 0 0v0zM16.73 10.521c-0.649 0.001-1.175 0.527-1.175 1.176 0 0.33 0.136 0.628 0.355 0.842v0c1.919 1.919 1.919 4.995 0 6.914-0.213 0.213-0.345 0.507-0.345 0.832 0 0.65 0.527 1.176 1.176 1.176 0.325 0 0.619-0.132 0.832-0.345v0c2.818-2.818 2.818-7.421 0-10.239-0.214-0.22-0.513-0.357-0.844-0.357 0 0 0 0 0 0v0z"></path>
</svg>
