<!-- Generated by IcoMoon.io -->
<svg version="1.1" xmlns="http://www.w3.org/2000/svg" width="32" height="32" viewBox="0 0 32 32">
<title>volume-mute-r</title>
<path d="M19.831 0.011c-0.248-0.023-0.498-0.010-0.74 0.038-0.485 0.097-0.943 0.332-1.305 0.695l-5.611 5.611c0.725 0.725 1.45 1.45 2.175 2.175l4.709-4.709v9.418c1.026 1.026 2.051 2.051 3.077 3.077v-13.769c0-1.025-0.625-1.963-1.572-2.356-0.237-0.098-0.485-0.157-0.733-0.18zM2.151 1.061c-0.849 0.002-1.536 0.69-1.536 1.539 0 0.433 0.178 0.823 0.466 1.103v0c9.128 9.126 18.255 18.253 27.382 27.382 0.28 0.292 0.674 0.474 1.111 0.474 0.85 0 1.539-0.689 1.539-1.539 0-0.436-0.182-0.83-0.473-1.11h-0.001c-9.128-9.129-18.254-18.256-27.382-27.382-0.28-0.288-0.671-0.466-1.103-0.466-0.001 0-0.002 0-0.002 0v0zM4.906 11.617v9.13c0 1.39 1.16 2.548 2.55 2.548h2.988l7.341 7.341c0.485 0.485 1.135 0.748 1.8 0.748 0.329 0 0.662-0.064 0.974-0.192l0.002-0.002h0.002c0.944-0.392 1.565-1.321 1.57-2.344-1.025-1.025-2.050-2.050-3.075-3.075v1.788l-7.341-7.341h-3.736v-5.524c-1.026-1.026-2.051-2.051-3.077-3.077z"></path>
</svg>
