<!-- Generated by IcoMoon.io -->
<svg version="1.1" xmlns="http://www.w3.org/2000/svg" width="32" height="32" viewBox="0 0 32 32">
<title>volume-high-r</title>
<path d="M26.34 4.233c-0.65 0-1.176 0.527-1.176 1.177 0 0.331 0.137 0.63 0.356 0.843v0c5.522 5.522 5.522 14.438 0 19.96-0.222 0.214-0.36 0.515-0.36 0.847 0 0.65 0.527 1.177 1.177 1.177 0.333 0 0.633-0.138 0.847-0.36v0c6.421-6.421 6.421-16.866 0-23.287-0.214-0.22-0.513-0.357-0.844-0.357v0zM11.414 4.242c-0.19-0.018-0.381-0.008-0.566 0.029-0.371 0.074-0.721 0.254-0.998 0.531l-5.614 5.614h-2.285c-1.063 0-1.95 0.887-1.95 1.95v7.732c0 1.063 0.887 1.949 1.95 1.949h2.285l5.614 5.614c0.371 0.371 0.868 0.572 1.377 0.572 0.252 0 0.506-0.049 0.745-0.147l0.002-0.002h0.002c0.725-0.301 1.202-1.015 1.202-1.801v-20.101c0-0.784-0.478-1.501-1.202-1.801-0.181-0.075-0.371-0.12-0.561-0.138zM10.824 7.156v18.153l-5.614-5.614h-2.857v-6.925h2.857zM22.224 7.704c-0.649 0.001-1.174 0.527-1.174 1.177 0 0.331 0.137 0.63 0.356 0.843v0c3.605 3.605 3.605 9.413 0 13.018-0.222 0.214-0.36 0.515-0.36 0.847 0 0.65 0.527 1.177 1.177 1.177 0.333 0 0.633-0.138 0.847-0.36v0c4.504-4.504 4.504-11.841 0-16.346-0.214-0.22-0.513-0.357-0.844-0.357-0.001 0-0.001 0-0.002 0v0zM18.107 11.176c-0.65 0-1.176 0.527-1.176 1.177 0 0.331 0.137 0.63 0.356 0.843v0c1.687 1.687 1.687 4.387 0 6.074-0.222 0.214-0.36 0.515-0.36 0.847 0 0.65 0.527 1.177 1.177 1.177 0.333 0 0.633-0.138 0.847-0.36v0c2.586-2.586 2.586-6.815 0-9.401-0.214-0.22-0.513-0.357-0.844-0.357v0z"></path>
</svg>
