<!-- Generated by IcoMoon.io -->
<svg version="1.1" xmlns="http://www.w3.org/2000/svg" width="32" height="32" viewBox="0 0 32 32">
<title>volume-mute-s</title>
<path d="M3.428 0c-0.947 0-1.714 0.768-1.714 1.714 0 0.482 0.199 0.918 0.519 1.229v0c8.476 8.474 16.951 16.949 25.426 25.426 0.313 0.325 0.751 0.527 1.237 0.527 0.947 0 1.714-0.768 1.714-1.714 0-0.486-0.202-0.924-0.526-1.236l-0.001-0.001c-3.042-3.042-6.083-6.083-9.125-9.125v-15.176c0-0.463-0.278-0.879-0.705-1.056-0.107-0.044-0.217-0.072-0.328-0.083-0.334-0.032-0.672 0.085-0.917 0.33l-7.018 7.018c-2.445-2.444-4.888-4.891-7.333-7.335-0.312-0.321-0.748-0.52-1.23-0.52v0zM4.991 10.638c-0.007 0.051-0.031 0.096-0.031 0.15v11.429c0 0.631 0.512 1.143 1.143 1.143h4.098l8.808 8.808c0.218 0.218 0.511 0.335 0.808 0.335 0.147 0 0.296-0.029 0.438-0.087 0.426-0.177 0.705-0.594 0.705-1.056v-4.75c-5.323-5.324-10.646-10.648-15.969-15.971z"></path>
</svg>
