<!-- Generated by IcoMoon.io -->
<svg version="1.1" xmlns="http://www.w3.org/2000/svg" width="32" height="32" viewBox="0 0 32 32">
<title>wrench-l</title>
<path d="M9.377 0c-0.945 0-1.862 0.141-2.725 0.402l-1.354 0.412 5.928 5.928c0.41 0.41 0.409 1.070 0 1.479l-3.006 3.006c-0.41 0.41-1.070 0.409-1.479 0l-5.928-5.928-0.412 1.355c-0.262 0.862-0.402 1.777-0.402 2.723 0 5.169 4.208 9.377 9.377 9.377 1.338 0 2.588-0.334 3.742-0.842l11.301 13.186c0.979 1.142 2.755 1.21 3.818 0.146l3.006-3.006c1.064-1.064 0.995-2.839-0.146-3.818l-0.596-0.512-12.59-10.789c0.507-1.154 0.842-2.404 0.842-3.742 0-5.169-4.208-9.377-9.377-9.377zM9.377 1.699c4.251 0 7.678 3.427 7.678 7.678 0 1.305-0.325 2.527-0.896 3.602l-0.318 0.6 14.154 12.137c0.435 0.378 0.458 0.913 0.049 1.322l-3.006 3.006c-0.411 0.411-0.95 0.39-1.328-0.051l-12.131-14.152-0.602 0.32c-1.074 0.572-2.295 0.895-3.6 0.895-4.251 0-7.68-3.427-7.68-7.678 0-0.241 0.080-0.457 0.102-0.691l3.742 3.742c1.064 1.065 2.816 1.065 3.881 0l3.004-3.006c1.065-1.064 1.067-2.816 0.002-3.881l-3.742-3.74c0.235-0.022 0.45-0.102 0.691-0.102z"></path>
</svg>
