<!-- Generated by IcoMoon.io -->
<svg version="1.1" xmlns="http://www.w3.org/2000/svg" width="32" height="32" viewBox="0 0 32 32">
<title>wrench-r</title>
<path d="M9.646 0c-0.971 0-1.915 0.145-2.803 0.414l-2.336 0.711 6.453 6.453c0.146 0.146 0.145 0.355 0 0.5l-2.885 2.885c-0.146 0.146-0.353 0.145-0.498 0l-6.453-6.455-0.711 2.338c-0.269 0.888-0.414 1.829-0.414 2.801 0 5.312 4.335 9.646 9.646 9.646 1.208 0 2.299-0.343 3.342-0.748l10.598 12.365c1.184 1.38 3.329 1.462 4.615 0.176l2.885-2.883c1.286-1.286 1.203-3.433-0.178-4.617l-0.57-0.49-11.793-10.105c0.405-1.042 0.748-2.135 0.748-3.344 0-5.312-4.335-9.646-9.646-9.646zM10.658 3.133c3.222 0.502 5.703 3.144 5.703 6.514 0 1.144-0.283 2.21-0.783 3.15l-0.549 1.035 13.974 11.984c0.090 0.081 0.101 0.129 0.102 0.154s0 0.068-0.092 0.16l-2.883 2.885c-0.093 0.093-0.139 0.093-0.166 0.092s-0.071-0.004-0.156-0.104l-11.976-13.974-1.039 0.553c-0.939 0.5-2.002 0.781-3.146 0.781-3.37 0-6.014-2.484-6.516-5.705l2.375 2.375c1.273 1.275 3.369 1.273 4.643 0l2.883-2.883c1.274-1.273 1.276-3.369 0.002-4.643z"></path>
</svg>
