<!-- Generated by IcoMoon.io -->
<svg version="1.1" xmlns="http://www.w3.org/2000/svg" width="32" height="32" viewBox="0 0 32 32">
<title>accessibility-s</title>
<path d="M15.996 0c-8.819 0-15.996 7.177-15.996 15.996s7.177 16.004 15.996 16.004c8.819 0 16.004-7.185 16.004-16.004s-7.185-15.996-16.004-15.996zM15.996 4c1.419 0 2.59 1.162 2.59 2.582s-1.17 2.584-2.59 2.584-2.582-1.164-2.582-2.584c0-1.42 1.163-2.582 2.582-2.582zM23.889 8.854c0.705-0.004 1.351 0.488 1.504 1.203 0.174 0.818-0.361 1.636-1.178 1.811-1.682 0.355-3.365 0.715-5.051 1.074-0.094 2.016-0.242 5.115-0.248 5.24l2.68 7.752c0.279 0.811-0.166 1.702-0.977 1.98-0.002 0.004-0.004 0.005-0.006 0.008-0.018 0.008-0.052 0.014-0.084 0.021-0.784 0.217-1.622-0.209-1.891-0.99l-2.559-7.438h-0.16l-2.557 7.438c-0.269 0.78-1.108 1.207-1.893 0.99-0.036-0.008-0.070-0.014-0.090-0.021-0.003-0.004-0.005-0.005-0.008-0.008-0.81-0.279-1.248-1.17-0.969-1.98l2.682-7.77c-0.007-0.146-0.156-3.214-0.25-5.223-1.686-0.359-3.369-0.72-5.051-1.074-0.002 0-0.004 0-0.006 0-0.817-0.174-1.346-0.993-1.172-1.811 0.152-0.715 0.796-1.203 1.502-1.199 1.786 0.321 3.803 0.818 5.793 1.199 1.434-0.001 4.132 0 4.195 0l5.486-1.168c0.102-0.023 0.204-0.035 0.305-0.035z"></path>
</svg>
