<!-- Generated by IcoMoon.io -->
<svg version="1.1" xmlns="http://www.w3.org/2000/svg" width="32" height="32" viewBox="0 0 32 32">
<title>accessibility-r</title>
<path d="M15.996 0c-8.819 0-15.996 7.177-15.996 15.996s7.177 16.004 15.996 16.004c8.819 0 16.004-7.185 16.004-16.004s-7.185-15.996-16.004-15.996zM15.996 2.996c7.198 0 13.008 5.802 13.008 13s-5.81 13.008-13.008 13.008c-7.198 0-13-5.81-13-13.008s5.802-13 13-13zM15.996 4c-1.419 0-2.582 1.162-2.582 2.582s1.162 2.584 2.582 2.584 2.59-1.164 2.59-2.584c0-1.42-1.17-2.582-2.59-2.582zM23.889 8.854c-0.101 0.001-0.203 0.012-0.305 0.035l-5.486 1.168c-0.063 0-2.761-0.001-4.195 0-1.99-0.381-4.007-0.878-5.793-1.199-0.706-0.004-1.35 0.485-1.502 1.199-0.174 0.817 0.355 1.637 1.172 1.811 0.002 0 0.004 0 0.006 0 1.682 0.354 3.365 0.715 5.051 1.074 0.094 2.009 0.243 5.077 0.25 5.223l-2.682 7.77c-0.279 0.811 0.158 1.702 0.969 1.98 0.003 0.003 0.005 0.004 0.008 0.008 0.019 0.008 0.054 0.014 0.090 0.021 0.784 0.217 1.624-0.21 1.893-0.99l2.557-7.438h0.16l2.559 7.438c0.268 0.781 1.106 1.208 1.891 0.99 0.032-0.008 0.066-0.014 0.084-0.021 0.002-0.003 0.004-0.004 0.006-0.008 0.81-0.279 1.256-1.17 0.977-1.98l-2.68-7.752c0.006-0.125 0.154-3.224 0.248-5.24 1.686-0.359 3.369-0.719 5.051-1.074 0.817-0.174 1.352-0.993 1.178-1.811-0.153-0.715-0.799-1.207-1.504-1.203z"></path>
</svg>
