<!-- Generated by IcoMoon.io -->
<svg version="1.1" xmlns="http://www.w3.org/2000/svg" width="29" height="32" viewBox="0 0 29 32">
<title>acorn-s</title>
<path d="M15.297 0c-0.546 0.853-1.124 1.72-1.422 2.613-0.218 0.655-0.213 1.212-0.176 1.709h-7.031c-3.68 0-6.668 2.988-6.668 6.668v1.264c0 0.708 0.208 1.267 0.328 1.713 0.101 0.365 0.43 0.629 0.82 0.629h26.758c0.391 0 0.72-0.264 0.819-0.623l0.001-0.006c0.12-0.446 0.328-1.005 0.328-1.713v-1.264c0-3.68-2.988-6.668-6.668-6.668h-6.99c-0.038-0.4-0.049-0.749 0.092-1.17 0.18-0.54 0.695-1.384 1.24-2.236zM2.35 16.555c0.993 8 6.175 14.33 12.127 15.445l0.051-0.27 0.051 0.27c5.952-1.115 11.134-7.446 12.127-15.445z"></path>
</svg>
