<!-- Generated by IcoMoon.io -->
<svg version="1.1" xmlns="http://www.w3.org/2000/svg" width="32" height="32" viewBox="0 0 32 32">
<title>aid-kit-r</title>
<path d="M11.717 1c-1.051 0-1.867 0.907-1.867 1.922v3.652h-4.922c-2.703 0-4.928 2.222-4.928 4.926v14.656c0 2.703 2.224 4.928 4.928 4.928h22.145c2.703 0 4.928-2.224 4.928-4.928v-14.656c0-2.703-2.224-4.926-4.928-4.926h-4.922v-3.652c0-1.015-0.816-1.922-1.867-1.922zM11.85 3h8.301v3.574h-8.301zM4.928 9.574h22.145c1.093 0 1.928 0.832 1.928 1.926v14.656c0 1.093-0.834 1.928-1.928 1.928h-22.145c-1.093 0-1.928-0.834-1.928-1.928v-14.656c0-1.093 0.834-1.926 1.928-1.926zM18 11.578l-4 0.002c0 1.749 0 3.499 0 5.248-1.75 0-3.5 0-5.25 0v4c1.751 0 3.5 0 5.25 0 0 1.75 0 3.499 0 5.25l4 0.002c0-1.751 0-3.501 0-5.252 1.75 0 3.5 0 5.25 0v-4c-1.749 0-3.5 0-5.25 0 0-1.75 0-3.501 0-5.25z"></path>
</svg>
