<!-- Generated by IcoMoon.io -->
<svg version="1.1" xmlns="http://www.w3.org/2000/svg" width="32" height="32" viewBox="0 0 32 32">
<title>airplane-l</title>
<path d="M26.877 0l-15.424 6.17-4.301-4.301c-0.862-0.862-1.904-1.417-2.967-1.6-1.072-0.184-2.241 0.036-3.061 0.855s-1.039 1.989-0.855 3.061c0.183 1.065 0.741 2.105 1.602 2.965l4.299 4.301-6.17 15.426 5.123 5.123 9.258-12.34 3.822 3.822v7.895h5.645l1.883-5.648 5.648-1.883v-5.646h-7.898l-3.818-3.82 12.338-9.256zM3.898 1.945c0.671 0.115 1.422 0.494 2.053 1.125l5.092 5.096 15.426-6.17 2.943 2.943-12.338 9.256 5.701 5.703h6.902v2.723l-5.289 1.764-1.766 5.293h-2.721v-6.9l-5.705-5.705-9.258 12.34-2.945-2.945 6.172-15.426-5.094-5.092c-0.632-0.632-1.012-1.381-1.127-2.051-0.114-0.663 0.025-1.217 0.381-1.572s0.91-0.494 1.572-0.381z"></path>
</svg>
