<!-- Generated by IcoMoon.io -->
<svg version="1.1" xmlns="http://www.w3.org/2000/svg" width="28" height="32" viewBox="0 0 28 32">
<title>alarm-s</title>
<path d="M6 0c-3.314 0-6 2.686-6 6 0 1.082 0.286 2.099 0.787 2.975 2.297-3.356 5.839-5.794 9.961-6.645-1.097-1.418-2.816-2.33-4.748-2.33zM22 0c-1.932 0-3.649 0.912-4.746 2.33 4.121 0.851 7.662 3.289 9.959 6.645 0.501-0.877 0.787-1.893 0.787-2.975 0-3.314-2.686-6-6-6zM14 4c-7.732 0-14 6.268-14 14s6.268 14 14 14c7.732 0 14-6.268 14-14s-6.268-14-14-14zM12 10h2v8h6v2h-8z"></path>
</svg>
