<!-- Generated by IcoMoon.io -->
<svg version="1.1" xmlns="http://www.w3.org/2000/svg" width="32" height="32" viewBox="0 0 32 32">
<title>alien-r</title>
<path d="M16.015 0c-3.647-0.135-7.245 0.936-10.135 3.059-1.817 1.335-3.361 3.074-4.411 5.111-1.052 2.040-1.589 4.357-1.446 6.684 0.191 3.134 1.57 5.974 3.315 8.348 1.396 1.899 3.042 3.548 4.765 5.045 1.442 1.253 3.089 2.544 5.148 3.237 0.846 0.284 1.726 0.454 2.615 0.502 0.023 0.001 0.051 0.002 0.078 0.002s0.055-0.001 0.082-0.002h-0.004c0.003 0 0.007 0 0.011 0s0.008 0 0.011 0h-0.001c0.017 0.001 0.036 0.001 0.056 0.001s0.039 0 0.058-0.001h-0.003c0.889-0.049 1.77-0.218 2.615-0.502 2.060-0.692 3.706-1.984 5.148-3.237 1.723-1.497 3.369-3.145 4.765-5.045 1.745-2.374 3.124-5.214 3.315-8.348 0.142-2.328-0.394-4.644-1.446-6.684-1.050-2.037-2.594-3.776-4.411-5.111-2.887-2.121-6.482-3.192-10.127-3.059zM15.948 2.977h0.125c2.987-0.122 5.948 0.783 8.289 2.504 1.469 1.079 2.704 2.476 3.522 4.063 0.817 1.584 1.223 3.384 1.116 5.127-0.144 2.355-1.229 4.695-2.74 6.751-1.22 1.659-2.702 3.166-4.314 4.566-1.342 1.166-2.701 2.17-4.138 2.652-0.579 0.195-1.191 0.304-1.802 0.34-0.611-0.034-1.215-0.145-1.794-0.34-1.436-0.483-2.795-1.486-4.138-2.652-1.611-1.4-3.102-2.906-4.321-4.566-1.512-2.056-2.589-4.396-2.732-6.751-0.106-1.742 0.299-3.543 1.116-5.127 0.818-1.587 2.053-2.984 3.522-4.064 2.342-1.721 5.302-2.626 8.289-2.504zM25.2 12.238c-0.225-0.008-0.451-0.003-0.676 0.011-0.324 0.023-0.646 0.066-0.966 0.131h-0.008c-1.285 0.264-2.473 0.883-3.434 1.765-1.047 0.964-1.767 2.189-2.261 3.442-0.397 1.006-0.663 2.060-0.797 3.133-0.005 0.033-0.007 0.072-0.007 0.111 0 0.471 0.382 0.853 0.853 0.853 0.002 0 0.003 0 0.005 0v0c0.919 0.141 1.86 0.145 2.777-0.004 1.682-0.275 3.268-1.045 4.521-2.201 1.572-1.452 2.545-3.484 2.732-5.612 0.065-0.117 0.103-0.257 0.103-0.406 0-0.339-0.198-0.632-0.485-0.768l-0.005-0.002c-0.102-0.059-0.222-0.098-0.351-0.109h-0.003c-0.649-0.204-1.322-0.323-1.998-0.344zM6.526 12.249c-0.577 0.039-1.148 0.157-1.702 0.332-0.136 0.011-0.259 0.053-0.367 0.117l0.004-0.002c-0.010 0.005-0.015 0.007-0.020 0.010l0.005-0.002c-0.278 0.144-0.464 0.429-0.464 0.758 0 0.142 0.035 0.276 0.097 0.394l-0.002-0.005c0.185 2.133 1.169 4.171 2.744 5.627 1.253 1.156 2.839 1.926 4.521 2.201 0.923 0.15 1.867 0.146 2.791 0.002 0.466-0.006 0.841-0.386 0.841-0.853 0-0.031-0.002-0.061-0.005-0.091v0.004c-0.001-0.011-0.001-0.019-0.002-0.026v0.004c-0.134-1.072-0.408-2.125-0.805-3.131-0.495-1.253-1.205-2.478-2.252-3.442-0.961-0.882-2.151-1.501-3.436-1.765h-0.008c-0.639-0.13-1.291-0.174-1.939-0.131z"></path>
</svg>
