<!-- Generated by IcoMoon.io -->
<svg version="1.1" xmlns="http://www.w3.org/2000/svg" width="68" height="32" viewBox="0 0 68 32">
<title>aliens-s</title>
<path d="M33.322 0c-3.411 0.014-6.743 1.080-9.451 3.070-1.817 1.335-3.362 3.074-4.412 5.111-1.052 2.040-1.588 4.356-1.445 6.684 0.191 3.134 1.569 5.973 3.314 8.348 1.396 1.899 3.043 3.551 4.766 5.047 1.442 1.253 3.088 2.543 5.148 3.236 0.846 0.284 1.726 0.454 2.615 0.502 0.023 0.001 0.051 0.002 0.078 0.002 0.025 0 0.051-0.001 0.076-0.002h0.023c0.017 0.001 0.035 0.002 0.055 0.002s0.037-0.001 0.055-0.002c0.889-0.049 1.77-0.218 2.615-0.502 2.060-0.692 3.706-1.983 5.148-3.236 1.723-1.497 3.368-3.148 4.764-5.047 1.745-2.374 3.124-5.214 3.316-8.348 0.142-2.328-0.395-4.644-1.447-6.684-1.050-2.037-2.593-3.776-4.41-5.111-2.887-2.121-6.483-3.191-10.127-3.059-0.228-0.008-0.454-0.013-0.682-0.012zM13.406 2c-2.983 0.012-5.895 0.944-8.264 2.686-1.589 1.168-2.939 2.69-3.857 4.473-0.92 1.785-1.391 3.811-1.266 5.848 0.167 2.742 1.374 5.227 2.9 7.305 1.221 1.662 2.659 3.107 4.166 4.416 1.261 1.096 2.701 2.226 4.502 2.832 0.74 0.248 1.51 0.397 2.287 0.439 0.020 0.001 0.045 0.002 0.068 0.002s0.045-0.001 0.068-0.002h0.018c0.015 0.001 0.031 0 0.049 0s0.033 0.001 0.049 0h0.002c0.777-0.043 1.545-0.191 2.283-0.439 1.801-0.605 3.241-1.736 4.502-2.832 0.189-0.164 0.372-0.337 0.559-0.506-0.601-0.675-1.179-1.375-1.721-2.111-0.702-0.956-1.348-1.982-1.902-3.062-0.62 0.052-1.244 0.030-1.859-0.064h-0.006c-0.412 0-0.744-0.334-0.744-0.746 0-0.034 0.001-0.068 0.006-0.102 0.117-0.938 0.351-1.859 0.697-2.738 0.1-0.253 0.212-0.504 0.334-0.752-0.125-0.628-0.212-1.268-0.252-1.92-0.161-2.617 0.442-5.222 1.625-7.516 0.746-1.448 1.716-2.76 2.844-3.91-2.007-0.923-4.237-1.371-6.49-1.289-0.199-0.007-0.399-0.011-0.598-0.010zM53.406 2c-2.051 0.009-4.069 0.454-5.9 1.297 1.127 1.15 2.095 2.464 2.842 3.912 1.183 2.294 1.787 4.898 1.627 7.516-0.040 0.655-0.126 1.297-0.252 1.928 0.12 0.246 0.231 0.495 0.33 0.746 0.347 0.88 0.586 1.802 0.703 2.74 0.001 0.003 0.001 0.011 0.002 0.018v0.004c0.003 0.023 0.006 0.049 0.006 0.076 0 0.409-0.328 0.74-0.734 0.746h-0.002c-0.622 0.097-1.253 0.12-1.879 0.066-0.555 1.081-1.2 2.105-1.902 3.061-0.542 0.737-1.118 1.438-1.719 2.113 0.186 0.168 0.37 0.34 0.559 0.504 1.261 1.096 2.7 2.226 4.502 2.832 0.74 0.248 1.51 0.397 2.287 0.439 0.020 0.001 0.045 0.002 0.068 0.002s0.045-0.001 0.068-0.002h0.018c0.015 0.001 0.031 0 0.049 0s0.033 0.001 0.049 0h0.002c0.777-0.043 1.545-0.191 2.283-0.439 1.801-0.605 3.241-1.736 4.502-2.832 1.507-1.31 2.947-2.754 4.168-4.416 1.526-2.077 2.731-4.562 2.898-7.305 0.124-2.037-0.344-4.063-1.264-5.848-0.918-1.782-2.268-3.304-3.857-4.473-2.525-1.856-5.669-2.791-8.855-2.676-0.199-0.007-0.399-0.011-0.598-0.010zM24.623 12.244c0.487 0 0.976 0.049 1.455 0.146h0.008c1.285 0.264 2.475 0.884 3.436 1.766 1.047 0.964 1.757 2.188 2.252 3.441 0.397 1.006 0.671 2.061 0.805 3.133 0.001 0.004 0.001 0.013 0.002 0.021v0.002c0.003 0.026 0.006 0.057 0.006 0.088 0 0.467-0.375 0.846-0.84 0.854h-0.002c-0.924 0.144-1.868 0.148-2.791-0.002-1.682-0.275-3.27-1.045-4.523-2.201-1.576-1.456-2.557-3.494-2.742-5.627-0.060-0.113-0.096-0.248-0.096-0.391 0-0.329 0.186-0.613 0.459-0.754l0.006-0.002c0 0 0.006-0.004 0.012-0.006l0.004-0.002c0.104-0.063 0.229-0.104 0.361-0.115h0.002c0.555-0.175 1.124-0.294 1.701-0.332v-0.004c0.162-0.011 0.324-0.016 0.486-0.016zM43.566 12.248h0.002c0.676 0.023 1.347 0.14 1.996 0.344 0.13 0.011 0.248 0.050 0.353 0.109 0 0 0.002 0 0.002 0s0.002 0.002 0.002 0.002c0.29 0.14 0.486 0.432 0.486 0.77 0 0.147-0.038 0.286-0.103 0.406-0.188 2.127-1.159 4.159-2.73 5.611-1.253 1.156-2.839 1.924-4.521 2.199-0.918 0.149-1.858 0.147-2.777 0.006h-0.004c-0.471 0-0.853-0.383-0.853-0.854 0-0.039 0.003-0.077 0.008-0.115 0.134-1.072 0.4-2.124 0.797-3.129 0.494-1.253 1.216-2.477 2.262-3.441 0.961-0.882 2.149-1.502 3.434-1.766h0.008c0.319-0.065 0.641-0.108 0.965-0.131 0.225-0.015 0.451-0.020 0.676-0.012zM5.801 12.713c0.426 0 0.852 0.044 1.271 0.129h0.006c1.124 0.231 2.165 0.773 3.006 1.545 0.916 0.843 1.536 1.915 1.969 3.012 0.347 0.88 0.586 1.802 0.703 2.74 0.001 0.003 0.001 0.011 0.002 0.018v0.004c0.003 0.023 0.006 0.049 0.006 0.076 0 0.409-0.328 0.74-0.734 0.746h-0.002c-0.808 0.126-1.634 0.129-2.441-0.002-1.471-0.241-2.859-0.914-3.955-1.926-1.378-1.274-2.237-3.057-2.398-4.924-0.052-0.099-0.082-0.215-0.082-0.34 0-0.288 0.162-0.539 0.4-0.662h0.004c0 0 0.005-0.004 0.010-0.006l0.006-0.002c0.091-0.055 0.199-0.090 0.314-0.1h0.002c0.485-0.153 0.984-0.258 1.488-0.291v-0.004c0.142-0.009 0.284-0.014 0.426-0.014zM62.365 12.717h0.002c0.591 0.020 1.179 0.122 1.746 0.301 0.114 0.009 0.217 0.044 0.309 0.096h0.002l0.002 0.002c0.253 0.122 0.426 0.377 0.426 0.672 0 0.13-0.033 0.254-0.092 0.359-0.165 1.86-1.016 3.637-2.389 4.906-1.096 1.011-2.482 1.685-3.953 1.926-0.803 0.13-1.624 0.127-2.428 0.004h-0.006c-0.412 0-0.744-0.334-0.744-0.746 0-0.034 0.001-0.068 0.006-0.102 0.117-0.938 0.351-1.859 0.697-2.738 0.432-1.096 1.062-2.168 1.977-3.012 0.84-0.772 1.88-1.312 3.004-1.543h0.006c0.279-0.057 0.56-0.095 0.844-0.115 0.197-0.013 0.395-0.017 0.592-0.010z"></path>
</svg>
