<!-- Generated by IcoMoon.io -->
<svg version="1.1" xmlns="http://www.w3.org/2000/svg" width="68" height="32" viewBox="0 0 68 32">
<title>aliens-r</title>
<path d="M33.322 0c-3.411 0.014-6.742 1.080-9.451 3.070-0.53 0.39-1.035 0.818-1.514 1.273-2.433-1.621-5.374-2.433-8.353-2.324-0.199-0.007-0.397-0.011-0.596-0.010-2.983 0.012-5.896 0.943-8.266 2.684-1.589 1.167-2.939 2.689-3.857 4.471-0.92 1.784-1.391 3.809-1.266 5.844 0.167 2.741 1.374 5.225 2.9 7.301 1.221 1.661 2.659 3.103 4.166 4.412 1.261 1.096 2.701 2.224 4.502 2.83 0.74 0.248 1.51 0.397 2.287 0.439 0.020 0.001 0.045 0.002 0.068 0.002s0.045-0.001 0.068-0.002h0.018c0.015 0.001 0.031 0 0.049 0s0.033 0.001 0.049 0h0.002c0.777-0.043 1.545-0.191 2.283-0.439 1.801-0.605 3.241-1.734 4.502-2.83 0.634-0.551 1.251-1.132 1.85-1.736 1.040 1.18 2.166 2.262 3.33 3.273 1.442 1.253 3.089 2.545 5.148 3.238 0.846 0.284 1.724 0.454 2.613 0.502 0.023 0.001 0.051 0.002 0.078 0.002 0.026 0 0.052-0.001 0.078-0.002h0.023c0.017 0.001 0.035 0 0.055 0s0.036 0.001 0.055 0c0 0 0.002 0 0.002 0 0.888-0.049 1.769-0.218 2.613-0.502 2.060-0.692 3.706-1.985 5.148-3.238 1.164-1.011 2.29-2.092 3.33-3.271 0.598 0.603 1.215 1.184 1.848 1.734 1.261 1.096 2.701 2.224 4.502 2.83 0.74 0.248 1.51 0.397 2.287 0.439 0.020 0.001 0.045 0.002 0.068 0.002s0.045-0.001 0.068-0.002h0.018c0.015 0.001 0.031 0 0.049 0s0.033 0.001 0.049 0h0.002c0.777-0.043 1.545-0.191 2.283-0.439 1.801-0.605 3.241-1.734 4.502-2.83 1.507-1.309 2.947-2.751 4.168-4.412 1.526-2.076 2.731-4.56 2.898-7.301 0.124-2.036-0.344-4.060-1.264-5.844-0.918-1.781-2.269-3.303-3.857-4.471-2.525-1.855-5.668-2.79-8.855-2.674-0.199-0.007-0.397-0.011-0.596-0.010-2.776 0.012-5.492 0.819-7.766 2.334-0.478-0.456-0.981-0.884-1.512-1.273-2.886-2.121-6.481-3.191-10.125-3.059 0 0-0.002 0-0.002 0-0.227-0.008-0.455-0.013-0.682-0.012zM33.379 2.977c0.186-0 0.372 0.004 0.559 0.012h0.125c2.987-0.122 5.948 0.783 8.289 2.504 1.469 1.079 2.705 2.477 3.523 4.064 0.817 1.584 1.222 3.384 1.115 5.127-0.144 2.355-1.229 4.694-2.74 6.75-1.22 1.659-2.702 3.166-4.314 4.566-1.342 1.166-2.7 2.17-4.137 2.652-0.579 0.195-1.192 0.304-1.803 0.34-0.611-0.034-1.214-0.145-1.793-0.34-1.436-0.483-2.796-1.486-4.139-2.652-1.611-1.4-3.101-2.906-4.32-4.566-1.512-2.056-2.589-4.395-2.732-6.75-0.106-1.742 0.298-3.543 1.115-5.127 0.818-1.587 2.052-2.984 3.521-4.064 2.196-1.613 4.935-2.51 7.73-2.516zM13.455 4.611c0.163-0 0.327 0.003 0.49 0.010h0.109c2.324-0.095 4.629 0.524 6.551 1.721-0.425 0.582-0.814 1.194-1.146 1.84-0.929 1.802-1.455 3.821-1.467 5.871-0.137 0.107-0.272 0.218-0.4 0.336-0.916 0.843-1.547 1.914-1.979 3.010-0.347 0.88-0.58 1.802-0.697 2.74-0.004 0.029-0.006 0.062-0.006 0.096 0 0.412 0.334 0.746 0.746 0.746h0.004c0.804 0.123 1.628 0.126 2.43-0.004 0.54-0.088 1.067-0.235 1.574-0.436 0.431 0.833 0.924 1.625 1.457 2.375-0.61 0.633-1.255 1.242-1.93 1.828-1.174 1.020-2.363 1.899-3.619 2.32-0.506 0.171-1.042 0.265-1.576 0.297-0.534-0.030-1.062-0.126-1.568-0.297-1.256-0.422-2.445-1.301-3.619-2.32-1.409-1.224-2.711-2.541-3.777-3.992-1.322-1.798-2.264-3.845-2.389-5.904-0.093-1.523 0.26-3.097 0.975-4.482 0.715-1.388 1.795-2.61 3.080-3.555 1.92-1.411 4.314-2.195 6.758-2.199zM54.545 4.611c2.444 0.005 4.841 0.79 6.76 2.201 1.285 0.944 2.365 2.165 3.080 3.553 0.714 1.385 1.068 2.958 0.975 4.482-0.126 2.059-1.075 4.106-2.396 5.904-1.067 1.451-2.362 2.768-3.771 3.992-1.174 1.020-2.362 1.899-3.619 2.32-0.506 0.171-1.042 0.265-1.576 0.297-0.534-0.030-1.062-0.126-1.568-0.297-1.256-0.422-2.445-1.301-3.619-2.32-0.674-0.586-1.32-1.194-1.932-1.826 0.534-0.751 1.029-1.545 1.461-2.381 0-0 0.002 0 0.002 0 0.508 0.201 1.037 0.351 1.578 0.439 0.807 0.131 1.633 0.128 2.441 0.002 0.407-0.005 0.734-0.338 0.734-0.746 0-0.026-0.001-0.051-0.004-0.076v-0.004c-0-0.006-0.002-0.011-0.002-0.016v-0.004c-0.117-0.936-0.356-1.856-0.703-2.734-0.433-1.096-1.055-2.167-1.971-3.010-0.13-0.119-0.267-0.23-0.406-0.338-0.013-2.050-0.538-4.068-1.467-5.869-0.333-0.646-0.721-1.259-1.146-1.842 1.923-1.197 4.227-1.814 6.551-1.719h0.109c0.163-0.007 0.327-0.010 0.49-0.010zM25.004 12.246c-0.162-0-0.324 0.005-0.486 0.016l-0.002-0.002c-0.577 0.039-1.147 0.157-1.701 0.332-0.136 0.011-0.259 0.053-0.367 0.117-0.007 0.003-0.012 0.005-0.016 0.008-0.276 0.145-0.459 0.43-0.459 0.758 0 0.14 0.033 0.272 0.094 0.389 0.185 2.133 1.169 4.171 2.744 5.627 1.253 1.156 2.839 1.926 4.521 2.201 0.923 0.15 1.867 0.146 2.791 0.002 0.466-0.006 0.842-0.387 0.842-0.854 0-0.030-0.003-0.059-0.006-0.088v-0.004c-0.001-0.007-0.001-0.012-0.002-0.018v-0.004c-0.134-1.071-0.408-2.122-0.805-3.127-0.495-1.253-1.205-2.477-2.252-3.441-0.961-0.882-2.151-1.502-3.436-1.766h-0.008c-0.479-0.098-0.966-0.146-1.453-0.146zM43.19 12.25c-0.225-0.008-0.451-0.004-0.676 0.010-0.324 0.023-0.645 0.068-0.965 0.133h-0.008c-1.285 0.264-2.475 0.882-3.436 1.764-1.047 0.964-1.766 2.19-2.26 3.443-0.397 1.006-0.663 2.060-0.797 3.133-0.005 0.033-0.008 0.070-0.008 0.109 0 0.471 0.383 0.854 0.853 0.854h0.004c0.919 0.141 1.86 0.145 2.777-0.004 1.682-0.275 3.268-1.045 4.521-2.201 1.572-1.452 2.545-3.483 2.732-5.611 0.065-0.117 0.103-0.257 0.103-0.406 0-0.339-0.199-0.632-0.486-0.768l-0.004-0.002c-0.102-0.059-0.223-0.098-0.352-0.109h-0.004c-0.649-0.204-1.322-0.323-1.998-0.344zM6.133 12.717c-0.142-0-0.284 0.004-0.426 0.014-0.505 0.034-1.004 0.136-1.488 0.289-0.118 0.009-0.226 0.048-0.32 0.104-0.007 0.003-0.012 0.004-0.016 0.006h0.006c-0.243 0.126-0.406 0.374-0.406 0.662 0 0.123 0.029 0.238 0.082 0.34 0.162 1.865 1.023 3.647 2.4 4.92 1.096 1.011 2.482 1.685 3.953 1.926 0.807 0.131 1.633 0.128 2.441 0.002 0.408-0.005 0.734-0.338 0.734-0.746 0-0.026-0.001-0.051-0.004-0.076v-0.004c-0-0.006-0.002-0.011-0.002-0.016v-0.004c-0.117-0.936-0.356-1.856-0.703-2.734-0.433-1.096-1.055-2.167-1.971-3.010-0.84-0.771-1.88-1.312-3.004-1.543h-0.008c-0.419-0.085-0.844-0.129-1.27-0.129zM62.037 12.721c-0.197-0.007-0.395-0.002-0.592 0.010-0.283 0.020-0.564 0.056-0.844 0.113h-0.008c-1.124 0.231-2.162 0.774-3.002 1.545-0.916 0.843-1.547 1.914-1.978 3.010-0.347 0.88-0.58 1.802-0.697 2.74-0.004 0.029-0.006 0.062-0.006 0.096 0 0.412 0.334 0.746 0.746 0.746h0.004c0.804 0.123 1.628 0.126 2.43-0.004 1.471-0.24 2.857-0.913 3.953-1.924 1.375-1.27 2.225-3.047 2.389-4.908 0.057-0.102 0.090-0.225 0.090-0.355 0-0.296-0.173-0.551-0.424-0.67l-0.004-0.002c-0.089-0.052-0.194-0.086-0.307-0.096h-0.004c-0.568-0.178-1.155-0.282-1.746-0.301zM18.082 15.592c0.003 0.029 0.006 0.057 0.010 0.086-0.004-0.029-0.006-0.057-0.010-0.086zM49.918 15.592c-0.003 0.028-0.006 0.056-0.010 0.084 0.004-0.028 0.006-0.056 0.010-0.084zM18.188 16.297c0.007 0.040 0.014 0.079 0.021 0.119-0.007-0.040-0.014-0.079-0.021-0.119zM49.811 16.309c-0.006 0.032-0.010 0.064-0.016 0.096 0.006-0.032 0.010-0.064 0.016-0.096zM18.752 18.434c0.073 0.208 0.151 0.413 0.232 0.617-0.081-0.204-0.16-0.409-0.232-0.617zM49.24 18.455c-0.071 0.202-0.147 0.401-0.227 0.6 0.079-0.198 0.156-0.398 0.227-0.6zM48.76 19.656c-0.058 0.13-0.117 0.259-0.178 0.387 0.061-0.128 0.12-0.257 0.178-0.387zM19.258 19.693c0.049 0.108 0.097 0.217 0.148 0.324-0.051-0.107-0.1-0.216-0.148-0.324zM21.983 24.061c0.042 0.053 0.086 0.104 0.129 0.156-0.043-0.052-0.086-0.104-0.129-0.156z"></path>
</svg>
