<!-- Generated by IcoMoon.io -->
<svg version="1.1" xmlns="http://www.w3.org/2000/svg" width="68" height="32" viewBox="0 0 68 32">
<title>aliens-l</title>
<path d="M33.316 0c-3.422 0.010-6.763 1.092-9.475 3.084-0.522 0.383-1.016 0.803-1.486 1.25-2.432-1.614-5.373-2.432-8.351-2.318h-0.002c-0.2-0.008-0.4-0.012-0.6-0.012-2.993 0.008-5.915 0.955-8.287 2.697-1.588 1.166-2.931 2.682-3.842 4.449-0.911 1.769-1.376 3.777-1.254 5.781 0.165 2.699 1.361 5.19 2.906 7.293 1.239 1.685 2.714 3.167 4.264 4.514 1.296 1.127 2.743 2.241 4.494 2.83 0.718 0.241 1.466 0.386 2.223 0.426 0.016 0.001 0.034 0.002 0.053 0.002 0.017 0 0.034-0.001 0.051-0.002 0.012 0.001 0.028 0 0.043 0s0.028 0 0.041 0h0.002c0.755-0.041 1.503-0.185 2.221-0.426 1.751-0.589 3.2-1.704 4.496-2.83 0.675-0.587 1.334-1.2 1.967-1.844 1.067 1.214 2.231 2.336 3.436 3.383 1.482 1.288 3.135 2.561 5.137 3.234 0.821 0.276 1.676 0.44 2.541 0.486 0.018 0.001 0.038 0.002 0.059 0.002s0.041-0.001 0.061-0.002c0 0 0.002 0 0.002 0 0.014 0.001 0.029 0 0.045 0s0.033 0 0.049 0c0 0 0.002 0 0.002 0 0.863-0.047 1.717-0.212 2.537-0.486 2.002-0.673 3.659-1.947 5.141-3.234 1.206-1.047 2.369-2.168 3.436-3.383 0.633 0.643 1.292 1.257 1.967 1.844 1.296 1.127 2.743 2.241 4.494 2.83 0.718 0.241 1.466 0.386 2.223 0.426 0.016 0.001 0.034 0.002 0.053 0.002 0.017 0 0.034-0.001 0.051-0.002 0.012 0.001 0.028 0 0.043 0s0.028 0 0.041 0h0.002c0.755-0.041 1.503-0.185 2.221-0.426 1.751-0.589 3.2-1.704 4.496-2.83 1.551-1.347 3.023-2.829 4.262-4.514 1.546-2.102 2.741-4.593 2.906-7.293 0.122-2.004-0.34-4.012-1.252-5.781-0.912-1.767-2.256-3.283-3.844-4.449-2.528-1.857-5.684-2.808-8.881-2.686h-0.002c-0.2-0.008-0.4-0.012-0.6-0.012-2.774 0.008-5.487 0.822-7.758 2.328 0.034 0.032 0.066 0.065 0.1 0.098-0.5-0.483-1.029-0.935-1.588-1.346-2.89-2.123-6.497-3.212-10.152-3.072h-0.002c-0.229-0.009-0.457-0.012-0.685-0.012zM33.349 1.692c0.205-0 0.41 0.003 0.615 0.012v0.002h0.066c3.282-0.134 6.531 0.857 9.111 2.752 1.617 1.188 2.98 2.731 3.891 4.496 0.909 1.763 1.368 3.763 1.248 5.723-0.162 2.645-1.363 5.213-2.998 7.435-1.316 1.79-2.904 3.396-4.613 4.881-1.426 1.239-2.916 2.355-4.564 2.91v-0.008c-0.668 0.224-1.362 0.364-2.066 0.404h-0.061c-0.71-0.039-1.414-0.172-2.088-0.398-1.649-0.554-3.139-1.671-4.564-2.91-1.71-1.485-3.297-3.091-4.613-4.881-1.634-2.223-2.834-4.791-2.996-7.435-0.12-1.96 0.337-3.958 1.246-5.721 0.91-1.765 2.265-3.31 3.883-4.498 2.419-1.777 5.432-2.759 8.504-2.764zM13.433 3.485c0.179-0 0.358 0.002 0.537 0.010h0.057c2.584-0.106 5.144 0.59 7.275 1.937-0.718 0.836-1.344 1.753-1.852 2.738-0.93 1.805-1.449 3.828-1.451 5.871-0.141 0.109-0.28 0.223-0.412 0.344-0.915 0.843-1.544 1.913-1.977 3.008-0.347 0.88-0.58 1.802-0.697 2.74-0.004 0.029-0.006 0.062-0.006 0.096 0 0.412 0.333 0.746 0.744 0.746h0.006c0.803 0.123 1.626 0.126 2.428-0.004 0.559-0.091 1.104-0.246 1.627-0.457 0.478 0.912 1.026 1.784 1.627 2.602 0.156 0.212 0.316 0.421 0.479 0.627-0.632 0.65-1.295 1.274-1.984 1.873-1.247 1.084-2.551 2.059-3.992 2.545v-0.006c-0.584 0.196-1.191 0.319-1.807 0.354h-0.053c-0.622-0.034-1.239-0.149-1.828-0.348-1.442-0.485-2.744-1.463-3.99-2.547-1.496-1.299-2.886-2.704-4.037-4.27-1.429-1.945-2.479-4.19-2.621-6.504-0.105-1.714 0.295-3.462 1.090-5.004 0.796-1.544 1.981-2.894 3.396-3.934 2.116-1.555 4.754-2.414 7.441-2.418zM53.486 3.485c0.161 0 0.323 0.003 0.484 0.010h0.057c2.871-0.117 5.714 0.751 7.971 2.408 1.414 1.039 2.607 2.39 3.404 3.934 0.795 1.542 1.197 3.291 1.092 5.006-0.142 2.314-1.193 4.559-2.623 6.504-1.151 1.566-2.542 2.971-4.037 4.27-1.247 1.084-2.551 2.059-3.992 2.545v-0.006c-0.584 0.196-1.191 0.319-1.807 0.354h-0.053c-0.622-0.034-1.239-0.149-1.828-0.348-1.442-0.485-2.744-1.463-3.99-2.547-0.689-0.599-1.353-1.222-1.984-1.871 0.162-0.206 0.323-0.415 0.478-0.627 0.601-0.817 1.151-1.689 1.629-2.602 0.523 0.211 1.068 0.366 1.627 0.457 0.806 0.131 1.633 0.128 2.441 0.002 0.408-0.005 0.734-0.338 0.734-0.746 0-0.026-0.001-0.051-0.004-0.076v-0.002c-0.001-0.007-0.002-0.011-0.002-0.016v-0.004c-0.117-0.936-0.356-1.856-0.703-2.734-0.432-1.096-1.054-2.166-1.969-3.010-0.132-0.121-0.271-0.232-0.412-0.342-0.001-2.044-0.518-4.068-1.449-5.873-0.509-0.987-1.139-1.905-1.859-2.742 1.999-1.263 4.377-1.95 6.795-1.943zM25.003 12.242c-0.162-0-0.324 0.005-0.486 0.016-0.577 0.039-1.148 0.157-1.703 0.332-0.135 0.011-0.259 0.053-0.367 0.117-0.004 0.002-0.007 0.004-0.010 0.006-0.277 0.144-0.465 0.428-0.465 0.756 0 0.14 0.035 0.274 0.096 0.391 0.185 2.132 1.167 4.168 2.742 5.623 1.252 1.156 2.838 1.924 4.52 2.199 0.922 0.15 1.865 0.148 2.789 0.004 0.466-0.006 0.842-0.387 0.842-0.854 0-0.030-0.003-0.057-0.006-0.086v-0.004c-0.001-0.007-0.001-0.014-0.002-0.020v-0.004c-0.134-1.071-0.408-2.121-0.805-3.125-0.494-1.253-1.204-2.475-2.25-3.439-0.961-0.881-2.15-1.502-3.434-1.766h-0.008c-0.479-0.098-0.966-0.146-1.453-0.146zM43.181 12.244c-0.225-0.007-0.451-0.003-0.676 0.012v0.002c-0.324 0.023-0.646 0.066-0.965 0.131h-0.008c-1.284 0.264-2.472 0.883-3.432 1.764-1.046 0.964-1.766 2.187-2.26 3.439-0.397 1.006-0.663 2.059-0.797 3.131-0.005 0.033-0.008 0.072-0.008 0.111 0 0.471 0.382 0.854 0.852 0.854h0.006c0.918 0.141 1.858 0.143 2.775-0.006 1.681-0.274 3.267-1.043 4.518-2.199 1.571-1.451 2.545-3.482 2.732-5.609 0.065-0.117 0.102-0.257 0.102-0.406 0-0.339-0.197-0.631-0.484-0.768l-0.006-0.002c-0.102-0.059-0.221-0.098-0.35-0.109h-0.004c-0.65-0.204-1.321-0.323-1.996-0.344zM6.131 12.713c-0.142-0-0.282 0.004-0.424 0.014h-0.002c-0.505 0.034-1.003 0.138-1.488 0.291-0.117 0.009-0.225 0.045-0.318 0.1l-0.002 0.002h-0.002c-0.003 0.002-0.006 0.005-0.008 0.006-0.242 0.126-0.406 0.375-0.406 0.662 0 0.123 0.029 0.238 0.082 0.34 0.162 1.865 1.023 3.647 2.4 4.92 1.095 1.011 2.481 1.683 3.951 1.924 0.806 0.131 1.633 0.128 2.441 0.002 0.408-0.005 0.734-0.338 0.734-0.746 0-0.026-0.001-0.051-0.004-0.076v-0.002c-0.001-0.007-0.002-0.011-0.002-0.016v-0.004c-0.117-0.936-0.356-1.856-0.703-2.734-0.432-1.096-1.054-2.166-1.969-3.010-0.841-0.771-1.881-1.312-3.004-1.543h-0.006c-0.419-0.085-0.846-0.129-1.271-0.129zM62.031 12.715c-0.197-0.006-0.393-0.003-0.59 0.010v0.002c-0.283 0.020-0.565 0.058-0.844 0.115h-0.008c-1.123 0.231-2.162 0.772-3.002 1.543-0.915 0.843-1.544 1.913-1.977 3.008-0.347 0.88-0.58 1.802-0.697 2.74-0.004 0.029-0.006 0.062-0.006 0.096 0 0.412 0.333 0.746 0.744 0.746h0.006c0.803 0.123 1.626 0.126 2.428-0.004 1.47-0.24 2.857-0.913 3.951-1.924 1.374-1.269 2.225-3.046 2.389-4.906 0.057-0.102 0.092-0.225 0.092-0.355 0-0.297-0.175-0.552-0.426-0.672l-0.004-0.002c-0.089-0.052-0.194-0.086-0.307-0.096h-0.002c-0.568-0.178-1.157-0.282-1.748-0.301zM42.995 13.942c0.125-0 0.25 0.004 0.375 0.012v0.002c0.279 0.019 0.554 0.062 0.826 0.121-0.223 1.573-1.001 3.083-2.164 4.158-1.002 0.924-2.293 1.551-3.639 1.771-0.494 0.080-0.997 0.088-1.498 0.063 0.13-0.629 0.295-1.252 0.531-1.85 0.427-1.082 1.024-2.075 1.824-2.812 0.735-0.674 1.658-1.152 2.629-1.352 0.367-0.074 0.74-0.112 1.115-0.113zM25 13.944c0.375 0.001 0.748 0.038 1.115 0.113 0.971 0.2 1.896 0.676 2.631 1.35 0.8 0.737 1.397 1.73 1.824 2.812 0.236 0.598 0.4 1.223 0.529 1.852-0.501 0.026-1.004 0.018-1.498-0.063-1.347-0.22-2.638-0.846-3.639-1.771-1.163-1.075-1.941-2.587-2.164-4.16 0.272-0.059 0.548-0.103 0.826-0.121 0.125-0.008 0.25-0.012 0.375-0.012zM61.868 14.199c0.109-0 0.219 0.003 0.328 0.010v0.002c0.244 0.017 0.485 0.054 0.723 0.105-0.195 1.376-0.875 2.698-1.893 3.639-0.877 0.808-2.004 1.356-3.182 1.549-0.432 0.070-0.872 0.077-1.311 0.055 0.114-0.55 0.258-1.094 0.465-1.617 0.373-0.946 0.894-1.816 1.594-2.461 0.643-0.59 1.449-1.007 2.299-1.182 0.321-0.065 0.649-0.099 0.977-0.1zM6.127 14.201c0.328 0.001 0.656 0.034 0.977 0.1 0.849 0.175 1.658 0.59 2.301 1.18 0.7 0.645 1.222 1.514 1.596 2.461 0.206 0.523 0.35 1.069 0.463 1.619-0.438 0.023-0.878 0.016-1.311-0.055-1.178-0.192-2.308-0.742-3.184-1.551-1.017-0.94-1.696-2.261-1.891-3.637 0.238-0.052 0.478-0.092 0.721-0.107 0.109-0.007 0.219-0.010 0.328-0.010zM18.146 15.951c0.176 1.111 0.497 2.185 0.926 3.215-0.397 0.154-0.808 0.27-1.227 0.338-0.432 0.070-0.872 0.077-1.311 0.055 0.114-0.55 0.258-1.094 0.465-1.617 0.289-0.733 0.666-1.418 1.146-1.99zM49.851 15.955c0.48 0.571 0.86 1.255 1.148 1.986 0.206 0.523 0.35 1.069 0.463 1.619-0.438 0.023-0.878 0.016-1.311-0.055-0.419-0.068-0.829-0.184-1.227-0.338 0.429-1.029 0.75-2.102 0.926-3.213zM48.826 19.391c-0.085 0.194-0.173 0.386-0.266 0.576 0.092-0.19 0.181-0.382 0.266-0.576zM19.234 19.526c0.067 0.15 0.136 0.299 0.207 0.447-0.072-0.148-0.14-0.297-0.207-0.447z"></path>
</svg>
