<!-- Generated by IcoMoon.io -->
<svg version="1.1" xmlns="http://www.w3.org/2000/svg" width="32" height="32" viewBox="0 0 32 32">
<title>alien-l</title>
<path d="M16.008 0.038c-3.659-0.143-7.268 0.946-10.16 3.071-1.815 1.333-3.35 3.067-4.391 5.087-1.042 2.022-1.574 4.318-1.434 6.609 0.189 3.086 1.556 5.932 3.323 8.336 1.416 1.926 3.102 3.621 4.874 5.161 1.482 1.288 3.136 2.562 5.138 3.235 0.821 0.276 1.675 0.44 2.54 0.486 0.018 0.001 0.039 0.002 0.060 0.002s0.042-0.001 0.062-0.002h-0.003c0.014 0.001 0.031 0.001 0.048 0.001s0.034-0.001 0.050-0.001h-0.002c0.864-0.047 1.719-0.211 2.54-0.486 2.002-0.673 3.658-1.948 5.14-3.235 1.773-1.54 3.456-3.235 4.872-5.161 1.767-2.403 3.134-5.25 3.323-8.336 0.14-2.291-0.389-4.587-1.432-6.609-1.042-2.020-2.579-3.754-4.394-5.087-2.89-2.123-6.497-3.211-10.152-3.071zM15.971 1.73h0.066c3.282-0.134 6.531 0.857 9.111 2.752 1.617 1.188 2.981 2.732 3.892 4.497 0.909 1.763 1.368 3.762 1.248 5.722-0.162 2.645-1.364 5.212-2.999 7.435-1.316 1.79-2.905 3.397-4.614 4.882-1.426 1.239-2.915 2.354-4.563 2.909v-0.008c-0.668 0.224-1.363 0.366-2.067 0.406-0.007 0-0.014 0-0.021 0-0.006 0-0.012 0-0.019 0s-0.013 0-0.020 0h0.001c-0.711-0.039-1.416-0.172-2.090-0.399-1.649-0.554-3.138-1.672-4.563-2.911-1.71-1.485-3.298-3.090-4.614-4.88-1.634-2.223-2.835-4.79-2.997-7.435-0.12-1.96 0.337-3.959 1.246-5.722 0.91-1.765 2.266-3.309 3.884-4.497 2.58-1.896 5.836-2.887 9.119-2.752zM6.523 12.283c-0.577 0.039-1.147 0.157-1.702 0.332-0.135 0.011-0.259 0.053-0.367 0.117l0.004-0.002c-0.010 0.005-0.015 0.007-0.020 0.010l0.005-0.002c-0.277 0.144-0.464 0.429-0.464 0.757 0 0.142 0.035 0.276 0.097 0.394l-0.002-0.005c0.185 2.132 1.168 4.169 2.743 5.624 1.252 1.156 2.837 1.925 4.518 2.2 0.922 0.15 1.866 0.146 2.79 0.002 0.466-0.006 0.841-0.386 0.841-0.852 0-0.031-0.002-0.061-0.005-0.091v0.004c-0.001-0.011-0.001-0.019-0.002-0.026v0.004c-0.134-1.072-0.408-2.125-0.805-3.13-0.494-1.253-1.204-2.476-2.25-3.44-0.961-0.881-2.15-1.5-3.434-1.764h-0.008c-0.638-0.13-1.29-0.174-1.938-0.131zM24.512 12.283c-0.324 0.023-0.646 0.066-0.965 0.131h-0.008c-1.284 0.264-2.472 0.883-3.432 1.764-1.046 0.964-1.766 2.188-2.26 3.44-0.397 1.006-0.663 2.059-0.797 3.131-0.005 0.033-0.007 0.072-0.007 0.111 0 0.471 0.382 0.852 0.852 0.852 0.002 0 0.003 0 0.005 0v0c0.918 0.141 1.859 0.145 2.776-0.004 1.681-0.274 3.267-1.044 4.518-2.2 1.571-1.451 2.544-3.482 2.731-5.609 0.065-0.117 0.103-0.257 0.103-0.406 0-0.339-0.198-0.631-0.485-0.768l-0.005-0.002c-0.102-0.059-0.222-0.098-0.351-0.109h-0.003c-0.866-0.272-1.772-0.392-2.672-0.332zM6.631 13.98c0.499-0.030 1.002 0.002 1.491 0.102 0.971 0.2 1.894 0.676 2.629 1.35 0.8 0.737 1.398 1.731 1.825 2.813 0.236 0.598 0.4 1.221 0.529 1.85-0.501 0.026-1.004 0.019-1.498-0.062-1.347-0.22-2.638-0.847-3.639-1.772-1.163-1.075-1.94-2.586-2.163-4.159 0.272-0.059 0.548-0.103 0.826-0.121zM25.377 13.98c0.279 0.019 0.554 0.062 0.826 0.121-0.223 1.573-1 3.084-2.163 4.159-1.002 0.924-2.293 1.552-3.639 1.772-0.494 0.080-0.997 0.088-1.498 0.062 0.13-0.629 0.295-1.252 0.531-1.85 0.427-1.082 1.023-2.076 1.823-2.813 0.735-0.674 1.658-1.15 2.629-1.35 0.489-0.099 0.992-0.134 1.491-0.102z"></path>
</svg>
