<!-- Generated by IcoMoon.io -->
<svg version="1.1" xmlns="http://www.w3.org/2000/svg" width="32" height="32" viewBox="0 0 32 32">
<title>android</title>
<path d="M10.936 0.002c-0.13 0.008-0.259 0.042-0.383 0.104-0.494 0.247-0.694 0.848-0.447 1.342l1.002 2.002c-2.207 1.433-3.747 3.805-4.051 6.551v1h17.943v-1h-0.057c-0.304-2.746-1.844-5.119-4.051-6.551l1.002-2.002c0.247-0.494 0.047-1.095-0.447-1.342s-1.095-0.047-1.342 0.447l-1.004 2.010-0.262-0.105c-0.893-0.297-1.848-0.457-2.84-0.457s-1.947 0.16-2.84 0.457l-0.262 0.105-1.004-2.010c-0.185-0.37-0.57-0.576-0.959-0.551zM12.998 6h0.006c0.551 0.001 0.998 0.448 0.998 1s-0.448 1-1 1h-0.002c-0.552 0-1-0.448-1-1s0.447-0.999 0.998-1zM18.998 6h0.006c0.551 0.001 0.998 0.448 0.998 1s-0.448 1-1 1h-0.002c-0.552 0-1-0.448-1-1s0.446-0.999 0.998-1zM4 12c-1.1 0-2 0.9-2 2v8c0 1.1 0.9 2 2 2s2-0.9 2-2v-8c0-1.1-0.9-2-2-2zM7 12v11c0 1.657 1.343 3 3 3v4c0 1.1 0.9 2 2 2s2-0.9 2-2v-4h4v4c0 1.1 0.9 2 2 2s2-0.9 2-2v-4c1.657 0 3-1.343 3-3v-11h-18zM28 12c-1.1 0-2 0.9-2 2v8c0 1.1 0.9 2 2 2s2-0.9 2-2v-8c0-1.1-0.9-2-2-2z"></path>
</svg>
