<!-- Generated by IcoMoon.io -->
<svg version="1.1" xmlns="http://www.w3.org/2000/svg" width="32" height="32" viewBox="0 0 32 32">
<title>arrow-r</title>
<path d="M18.055 1.846c-1.007 0.015-1.818 0.834-1.82 1.844v5.464h-14.389c0 0 0 0 0 0-1.020 0-1.846 0.827-1.846 1.846 0 0 0 0 0 0v0 9.995c0 0 0 0 0 0 0 1.020 0.827 1.846 1.846 1.846 0 0 0 0 0 0h14.389v5.466c0 1.020 0.827 1.846 1.846 1.846 0.51 0 0.971-0.207 1.305-0.541l12.308-12.31c0.334-0.334 0.541-0.796 0.541-1.305s-0.207-0.971-0.541-1.305l-12.308-12.308c-0.334-0.333-0.795-0.539-1.303-0.539-0.010 0-0.020 0-0.030 0h0.002zM19.928 8.147l7.853 7.851-7.853 7.853v-2.856c-0.001-1.019-0.827-1.844-1.846-1.844 0 0 0 0 0 0h-14.389v-6.305h14.389c0 0 0 0 0 0 1.020 0 1.846-0.827 1.846-1.846 0 0 0 0 0 0v0z"></path>
</svg>
