<!-- Generated by IcoMoon.io -->
<svg version="1.1" xmlns="http://www.w3.org/2000/svg" width="30" height="32" viewBox="0 0 30 32">
<title>astronaut-l</title>
<path d="M15.088 0c-6.299 0-11.486 4.714-11.486 10.6 0 0.345 0.022 0.686 0.057 1.021-0.11 0.003-0.24 0.001-0.344 0.006-0.458 0.023-1.005 0.062-1.492 0.436-0.244 0.187-0.52 0.578-0.648 1.033s-0.2 1.033-0.252 1.963c-0.102 1.81-0.104 4.931-0.104 8.084-0.52 1.083-0.818 2.291-0.818 3.572v3.293c0 0.643 0.207 1.046 0.244 1.275 0.067 0.409 0.417 0.717 0.84 0.717 0 0 0 0 0 0h28.016c0.001 0 0.001 0 0.002 0 0.422 0 0.773-0.308 0.839-0.712l0.001-0.005c0.037-0.232 0.242-0.636 0.242-1.275v-3.293c0-1.281-0.299-2.489-0.818-3.572 0-3.153-0.002-6.274-0.104-8.084-0.052-0.93-0.124-1.508-0.252-1.963s-0.405-0.846-0.648-1.033c-0.487-0.374-1.034-0.414-1.492-0.436-0.104-0.004-0.233-0.003-0.344-0.006 0.035-0.336 0.057-0.677 0.057-1.021 0-5.885-5.196-10.6-11.494-10.6zM15.088 1.697c5.457 0 9.797 4.020 9.797 8.902 0 3.414-2.125 6.398-5.268 7.887-0.014 0.006-0.022 0.010-0.030 0.014l0.005-0.002c-0.128 0.060-0.259 0.117-0.391 0.172-0.152 0.062-0.302 0.124-0.457 0.18-0.101 0.037-0.205 0.070-0.309 0.104-0.178 0.060-0.359 0.118-0.541 0.168-0.21 0.057-0.423 0.106-0.639 0.15-0.083 0.017-0.165 0.036-0.248 0.051-0.222 0.040-0.45 0.068-0.678 0.094-0.127 0.014-0.253 0.032-0.381 0.041-0.284 0.022-0.57 0.039-0.861 0.039-1.015 0-1.991-0.141-2.908-0.398-0.003-0.001-0.005-0.001-0.008-0.002-0.154-0.043-0.301-0.1-0.451-0.15-0.153-0.050-0.309-0.093-0.457-0.15l-0.008-0.004c-0.002-0.001-0.004-0.003-0.006-0.004-0.183-0.075-0.627-0.279-0.627-0.279-0.029-0.014-0.065-0.028-0.101-0.039l-0.006-0.002c-3.115-1.496-5.215-4.469-5.215-7.867 0-4.882 4.33-8.902 9.787-8.902zM9.256 6.385c-0.238 0.001-0.452 0.1-0.605 0.258v0c-1.125 1.164-1.767 2.642-1.771 4.172 0 3.823 3.774 6.733 8.209 6.732s8.217-2.91 8.217-6.732c-0.003-1.529-0.64-3.007-1.764-4.172-0.155-0.159-0.371-0.258-0.61-0.258-0.001 0-0.002 0-0.004 0v0zM9.758 8.082h10.668c0.715 0.834 1.18 1.764 1.182 2.732 0 2.672-2.818 5.028-6.52 5.027s-6.51-2.356-6.51-5.027c0.003-0.969 0.463-1.899 1.18-2.732zM12.432 8.248c-0.102 0-0.515 2.418-0.588 2.49s-2.49 0.485-2.49 0.588c0 0.102 2.418 0.515 2.49 0.588s0.486 2.49 0.588 2.49 0.515-2.418 0.588-2.49c0.072-0.072 2.49-0.485 2.49-0.588s-2.418-0.515-2.49-0.588c-0.072-0.072-0.486-2.49-0.588-2.49zM3.998 13.318c0.582 2.023 1.791 3.799 3.426 5.152-1.897 0.199-3.601 1.041-4.898 2.299 0.007-2.251 0.025-4.359 0.096-5.615 0.049-0.873 0.127-1.373 0.191-1.602s0.026-0.126 0.045-0.141c0.039-0.030 0.141-0.070 0.531-0.088 0.166-0.008 0.406-0.004 0.609-0.006zM26.186 13.318c0.204 0.002 0.444-0.002 0.611 0.006 0.39 0.019 0.493 0.058 0.531 0.088 0.019 0.015-0.021-0.088 0.043 0.141s0.144 0.729 0.193 1.602c0.071 1.256 0.089 3.364 0.096 5.615-1.298-1.259-3.004-2.101-4.902-2.299 1.635-1.353 2.845-3.129 3.428-5.152zM8.297 20.123h1.787c0.137 0.065 0.328 0.156 0.545 0.244 0.001 0 0.003 0.002 0.006 0.004l0.002 0.002c0.352 0.136 0.713 0.26 1.078 0.363v-0.008c0.365 0.104 0.734 0.196 1.107 0.266 0.376 0.070 0.755 0.118 1.129 0.154 0.381 0.034 0.765 0.053 1.145 0.053 0.274 0 0.54-0.016 0.797-0.031 0.001 0 0.003 0 0.004 0s0.003 0 0.004 0v0c0.077-0.005 0.153-0.019 0.23-0.025 0.127-0.011 0.251-0.027 0.377-0.041 0.177-0.020 0.354-0.031 0.529-0.059 0.085-0.014 0.169-0.037 0.254-0.053 0.107-0.019 0.211-0.043 0.316-0.064 0.179-0.037 0.36-0.066 0.537-0.111 0.080-0.020 0.157-0.050 0.236-0.072 0.12-0.033 0.237-0.073 0.355-0.109 0.164-0.051 0.332-0.093 0.494-0.15 0.070-0.025 0.136-0.057 0.205-0.084 0.114-0.043 0.224-0.091 0.336-0.137 0.114-0.048 0.231-0.090 0.344-0.141h1.771c3.666 0 6.592 2.926 6.592 6.592v3.291c0 0.051-0.041 0.221-0.059 0.295h-3.971v-5.416c0-0.469-0.38-0.849-0.85-0.85h-16.115c-0.013-0.001-0.029-0.001-0.044-0.001s-0.031 0-0.046 0.001h0.002c-0.429 0.047-0.76 0.408-0.76 0.845 0 0.002 0 0.003 0 0.005v0 5.416h-4.865c-0.018-0.074-0.066-0.245-0.066-0.295v-3.291c0-3.666 2.926-6.592 6.592-6.592zM8.334 25.732h14.416v1.432h-6.953v1.707h6.953v1.43h-14.416zM11.375 26.518c-0.828 0-1.5 0.672-1.5 1.5v0c0 0.828 0.672 1.5 1.5 1.5v0c0.828 0 1.5-0.672 1.5-1.5v0c0-0.828-0.672-1.5-1.5-1.5v0z"></path>
</svg>
