<!-- Generated by IcoMoon.io -->
<svg version="1.1" xmlns="http://www.w3.org/2000/svg" width="28" height="32" viewBox="0 0 28 32">
<title>attachment-r</title>
<path d="M21.308 0.004c-0.803 0.027-1.628 0.228-2.594 0.787s-2.087 1.463-3.613 2.926c-3.030 2.904-7.618 7.492-10.797 10.78-3.213 3.323-4.223 5.503-4.299 7.766-0.087 2.591 0.92 5.145 2.754 6.979s4.389 2.841 6.981 2.754c2.248-0.076 4.397-1.065 7.041-3.584 2.601-2.477 5.893-5.749 9.17-9.037 0.35-0.351 0.515-0.805 0.49-1.223s-0.216-0.787-0.492-1.063c-0.276-0.275-0.647-0.466-1.064-0.49s-0.872 0.141-1.223 0.492c-3.253 3.264-6.523 6.52-9.785 9.789-0.004 0.004-0.023 0.021-0.055 0.053h-0.002c-1.090 1.094-2.654 1.782-4.19 1.834-1.663 0.056-3.41-0.632-4.586-1.809s-1.867-2.925-1.811-4.588c0.051-1.519 0.732-3.063 1.809-4.152 0 0 0.002-0.002 0.002-0.002 0.010-0.009 0.020-0.018 0.029-0.027l0.004-0.004c4.601-4.599 9.198-9.198 13.795-13.797l0.020-0.018c0.018-0.017 0.034-0.033 0.051-0.051l0.006-0.006c0.637-0.638 1.576-1.050 2.469-1.080 0.967-0.033 2.019 0.384 2.703 1.068s1.099 1.737 1.066 2.703c-0.030 0.893-0.443 1.835-1.082 2.471 0.005-0.005 0.001-0.001-0.012 0.012-4.567 4.568-9.136 9.137-13.705 13.705-0.033 0.033-0.066 0.066-0.1 0.1l-0.055 0.053c-0.179 0.18-0.507 0.322-0.75 0.33-0.262 0.009-0.628-0.135-0.814-0.322s-0.331-0.552-0.322-0.814c0.008-0.243 0.151-0.571 0.33-0.75l0.002-0.002c4.687-4.702 9.4-9.385 14.092-14.094 0.366-0.349 0.541-0.808 0.52-1.232s-0.216-0.801-0.496-1.080c-0.28-0.279-0.657-0.472-1.082-0.492s-0.883 0.158-1.23 0.525c-4.682 4.699-9.391 9.377-12.125 12.242-1.371 1.437-2.153 2.348-2.617 3.049s-0.605 1.246-0.621 1.725c-0.040 1.199 0.417 2.36 1.266 3.209s2.012 1.306 3.211 1.266c0.479-0.016 1.024-0.157 1.719-0.617s1.598-1.231 3.012-2.584c2.82-2.697 7.442-7.318 10.363-10.367 1.471-1.535 2.379-2.662 2.939-3.629s0.762-1.792 0.789-2.594c0.064-1.897-0.67-3.754-2.012-5.096s-3.201-2.076-5.098-2.012z"></path>
</svg>
