<!-- Generated by IcoMoon.io -->
<svg version="1.1" xmlns="http://www.w3.org/2000/svg" width="28" height="32" viewBox="0 0 28 32">
<title>attachment-l</title>
<path d="M21.574 0.004c-0.783 0.026-1.587 0.221-2.545 0.783s-2.083 1.482-3.613 2.981c-3.041 2.978-7.835 7.769-11.069 11.045-3.265 3.307-4.266 5.506-4.342 7.76-0.084 2.502 0.894 4.988 2.664 6.758s4.258 2.748 6.76 2.664c2.237-0.075 4.404-1.059 7.018-3.611 2.573-2.513 6.011-5.931 9.434-9.366 0.21-0.201 0.318-0.478 0.305-0.732s-0.127-0.475-0.291-0.639c-0.164-0.163-0.384-0.279-0.639-0.291s-0.532 0.098-0.732 0.309c-3.419 3.43-6.858 6.846-9.248 9.243-2.348 2.354-4.112 3.111-5.912 3.172-1.951 0.066-3.956-0.723-5.336-2.104s-2.171-3.387-2.106-5.338c0.060-1.787 0.804-3.526 3.869-6.594 3.097-3.1 7.922-7.925 10.786-10.791 1.42-1.421 2.427-2.254 3.201-2.725s1.298-0.588 1.863-0.607c1.225-0.041 2.501 0.463 3.367 1.33s1.371 2.143 1.33 3.367c-0.019 0.566-0.137 1.089-0.607 1.863s-1.304 1.781-2.725 3.201c-2.865 2.864-7.677 7.675-10.299 10.297-1.305 1.305-2.099 2.014-2.606 2.381s-0.66 0.387-0.889 0.395c-0.496 0.017-1.044-0.198-1.395-0.549s-0.566-0.898-0.549-1.395c0.015-0.458 0.229-0.949 0.557-1.275l0.025-0.025 0.096-0.094v-0.006c4.863-4.878 9.753-9.733 14.618-14.616 0.21-0.201 0.32-0.478 0.307-0.732s-0.129-0.475-0.293-0.639c-0.164-0.163-0.384-0.279-0.639-0.291s-0.532 0.098-0.732 0.309c-4.89 4.908-9.807 9.79-12.582 12.745-1.387 1.476-2.178 2.374-2.645 3.024s-0.617 1.11-0.631 1.535c-0.035 1.049 0.372 2.075 1.113 2.817s1.767 1.145 2.815 1.109c0.425-0.014 0.885-0.162 1.529-0.623s1.529-1.244 2.983-2.611c2.909-2.737 7.719-7.545 10.7-10.59 1.5-1.533 2.42-2.661 2.983-3.619s0.757-1.762 0.783-2.545c0.060-1.776-0.632-3.533-1.889-4.789s-3.015-1.949-4.791-1.889z"></path>
</svg>
