<!-- Generated by IcoMoon.io -->
<svg version="1.1" xmlns="http://www.w3.org/2000/svg" width="24" height="32" viewBox="0 0 24 32">
<title>award-l</title>
<path d="M12.188 0.001c-0.807-0.008-1.423 0.355-1.832 0.645s-0.663 0.487-1.037 0.584c-0.363 0.093-0.666 0.041-1.158-0.019-0.492-0.057-1.211-0.077-1.908 0.318-0.702 0.399-1.058 1.021-1.268 1.477s-0.322 0.751-0.598 1.022c-0.268 0.262-0.559 0.37-1.014 0.566s-1.086 0.535-1.492 1.227c-0.409 0.696-0.407 1.417-0.361 1.916s0.094 0.811-0.010 1.184c-0.1 0.361-0.3 0.604-0.596 1.002s-0.672 1.003-0.678 1.805c-0.006 0.807 0.359 1.429 0.648 1.838s0.489 0.659 0.586 1.033c0.094 0.363 0.040 0.666-0.018 1.158s-0.081 1.209 0.315 1.906c0.399 0.702 1.021 1.058 1.477 1.268s0.753 0.328 1.024 0.604c0.089 0.091 0.146 0.195 0.209 0.297l-0.973 1.686-3.352 5.803c-0.449 0.767 0.16 1.81 1.049 1.801h2.651l1.328 2.295c0.438 0.775 1.644 0.775 2.082 0l1.676-2.885 1.647-2.858c0.008-0.013 0.018-0.030 0.027-0.048l0.002-0.005 1.141-1.965c0.073 0.008 0.139 0.026 0.215 0.026 0.151 0.001 0.289-0.023 0.426-0.043l1.149 1.985c0.016 0.029 0.031 0.054 0.047 0.077l-0.002-0.003 1.631 2.834 1.676 2.887c0.438 0.775 1.644 0.775 2.082 0l1.328-2.297h2.651c0.889 0.008 1.498-1.034 1.049-1.801l-3.352-5.803-0.99-1.723c0.038-0.047 0.062-0.102 0.107-0.147 0.268-0.262 0.561-0.368 1.016-0.564s1.084-0.537 1.49-1.229c0.409-0.696 0.405-1.411 0.359-1.91s-0.096-0.817 0.008-1.19c0.1-0.361 0.304-0.599 0.6-0.996s0.672-1.005 0.678-1.807c0.006-0.807-0.359-1.427-0.648-1.836s-0.489-0.659-0.586-1.033c-0.094-0.363-0.038-0.672 0.020-1.164s0.079-1.203-0.316-1.901c-0.399-0.702-1.021-1.058-1.477-1.268s-0.755-0.328-1.026-0.604c-0.262-0.268-0.368-0.559-0.564-1.014s-0.535-1.086-1.227-1.492c-0.696-0.409-1.413-0.405-1.912-0.359s-0.817 0.096-1.19-0.008c-0.361-0.101-0.597-0.304-0.994-0.6s-1.011-0.668-1.813-0.674zM12.178 1.698c0.345 0.003 0.475 0.093 0.807 0.34s0.813 0.666 1.557 0.873c0.749 0.209 1.379 0.103 1.797 0.064s0.59-0.048 0.899 0.133c0.298 0.175 0.36 0.316 0.523 0.695s0.371 0.982 0.912 1.533c0.545 0.555 1.146 0.779 1.527 0.955s0.533 0.252 0.709 0.563c0.17 0.3 0.157 0.459 0.109 0.869s-0.171 1.038 0.021 1.785c0.194 0.753 0.604 1.245 0.846 1.588s0.337 0.485 0.334 0.842c-0.003 0.345-0.093 0.473-0.34 0.805s-0.664 0.813-0.871 1.557c-0.209 0.749-0.105 1.381-0.066 1.799s0.048 0.588-0.133 0.897c-0.175 0.297-0.318 0.365-0.697 0.529s-0.982 0.372-1.533 0.912c-0.555 0.545-0.777 1.14-0.953 1.522s-0.254 0.538-0.564 0.715c-0.3 0.17-0.457 0.152-0.867 0.104s-1.034-0.162-1.781 0.030c-0.753 0.194-1.249 0.596-1.592 0.838s-0.483 0.337-0.84 0.334c-0.345-0.003-0.475-0.093-0.807-0.34s-0.813-0.664-1.557-0.871c-0.749-0.209-1.383-0.101-1.801-0.062s-0.588 0.048-0.897-0.133c-0.298-0.175-0.364-0.322-0.527-0.701s-0.368-0.976-0.908-1.527c-0.545-0.555-1.146-0.779-1.527-0.955s-0.533-0.252-0.709-0.563c-0.17-0.3-0.157-0.459-0.109-0.869s0.169-1.036-0.023-1.783c-0.194-0.753-0.602-1.245-0.844-1.588s-0.335-0.489-0.332-0.846c0.003-0.345 0.093-0.475 0.34-0.807s0.662-0.809 0.869-1.553c0.208-0.749 0.105-1.381 0.066-1.799s-0.048-0.588 0.133-0.897c0.175-0.297 0.316-0.365 0.695-0.529s0.98-0.373 1.531-0.914c0.555-0.545 0.783-1.144 0.959-1.526s0.248-0.535 0.559-0.711c0.3-0.17 0.459-0.155 0.869-0.107s1.036 0.169 1.783-0.023c0.753-0.194 1.249-0.602 1.592-0.844s0.485-0.337 0.842-0.334zM12.075 4.331c-4.135 0-7.501 3.373-7.501 7.509s3.365 7.509 7.501 7.509c4.135 0 7.509-3.373 7.509-7.509s-3.373-7.509-7.509-7.509zM12.075 6.036c3.216 0 5.811 2.587 5.811 5.803s-2.595 5.803-5.811 5.803-5.801-2.587-5.801-5.803c0-3.216 2.585-5.803 5.801-5.803zM18.673 21.487l0.512 0.881 1.676 2.909 1.248 2.149h-2.297c0 0 0 0-0.001 0-0.314 0-0.588 0.17-0.736 0.424l-0.002 0.004-1.137 1.971-2.916-5.049c-0.015-0.023-0.029-0.042-0.044-0.060l0.001 0.002c-0.005-0.010-0.007-0.015-0.010-0.020l0.002 0.005-0.924-1.61c0.267-0.187 0.504-0.369 0.791-0.443 0.362-0.093 0.664-0.042 1.158 0.015 0.495 0.059 1.215 0.077 1.912-0.318 0.371-0.211 0.511-0.49 0.686-0.77 0.026-0.030 0.056-0.058 0.080-0.088zM5.455 21.532c0.032 0.034 0.059 0.071 0.094 0.105 0.135 0.216 0.231 0.434 0.51 0.598 0.693 0.407 1.412 0.4 1.912 0.353s0.814-0.088 1.188 0.015c0.33 0.092 0.573 0.288 0.916 0.545l-0.893 1.567c-0.006 0.005-0.011 0.010-0.016 0.015v0c-0.008 0.012-0.018 0.026-0.027 0.041l-0.002 0.004-2.916 5.049-1.137-1.971c-0.149-0.258-0.424-0.429-0.738-0.429 0 0 0 0 0 0h-2.295l1.246-2.149 1.676-2.909z"></path>
</svg>
