<!-- Generated by IcoMoon.io -->
<svg version="1.1" xmlns="http://www.w3.org/2000/svg" width="32" height="32" viewBox="0 0 32 32">
<title>back-r</title>
<path d="M14.077 1.95c1 0.015 1.805 0.828 1.807 1.831v5.424h14.284c0 0 0 0 0 0 1.013 0 1.833 0.821 1.833 1.833 0 0 0 0 0 0v0 9.922c0 0 0 0 0 0 0 1.013-0.821 1.833-1.833 1.833 0 0 0 0 0 0h-14.284v5.426c0 1.013-0.821 1.833-1.833 1.833-0.506 0-0.964-0.206-1.296-0.537l-12.218-12.22c-0.332-0.332-0.537-0.79-0.537-1.296s0.205-0.964 0.537-1.296l12.218-12.218c0.332-0.331 0.789-0.535 1.293-0.535 0.010 0 0.020 0 0.030 0h-0.002zM12.217 8.205l-7.796 7.794 7.796 7.796v-2.835c0.001-1.012 0.821-1.831 1.833-1.831 0 0 0 0 0 0h14.284v-6.259h-14.284c0 0 0 0 0 0-1.013 0-1.833-0.821-1.833-1.833 0 0 0 0 0 0v0z"></path>
</svg>
