<!-- Generated by IcoMoon.io -->
<svg version="1.1" xmlns="http://www.w3.org/2000/svg" width="32" height="32" viewBox="0 0 32 32">
<title>balance-right-l</title>
<path d="M7.432 0.501c-0.009 0-0.020-0.001-0.031-0.001-0.47 0-0.85 0.381-0.85 0.85 0 0.317 0.174 0.594 0.432 0.74l0.004 0.002 5.275 3.047c-0.472 1.676 0.215 3.532 1.787 4.439 0.352 0.203 0.727 0.325 1.105 0.408-0.002 0.022-0.004 0.048-0.004 0.074v19.467h-9.010c-0.008 0-0.018 0-0.028 0-0.47 0-0.85 0.381-0.85 0.85s0.381 0.85 0.85 0.85c0.010 0 0.020 0 0.030 0h9.858c0.008 0 0.018 0 0.027 0 0.47 0 0.85-0.381 0.85-0.85 0-0.076-0.010-0.15-0.029-0.221l0.001 0.006v-20.102c0-0.025-0.002-0.050-0.004-0.074v0.004c0.73-0.163 1.407-0.533 1.943-1.084l5.273 3.045c0.122 0.072 0.269 0.114 0.426 0.114 0.47 0 0.851-0.381 0.851-0.851 0-0.313-0.169-0.586-0.421-0.734l-0.004-0.002-5.227-3.018c0.587-1.725-0.102-3.697-1.736-4.641-0.929-0.536-1.993-0.642-2.959-0.383-0.734 0.197-1.41 0.607-1.928 1.199l-5.229-3.018c-0.116-0.070-0.254-0.114-0.403-0.119h-0.002zM15.846 3.999c0.422-0.029 0.858 0.067 1.256 0.297 1.045 0.603 1.402 1.9 0.828 2.953 0 0.001 0 0.001 0 0.002-0.045 0.053-0.085 0.112-0.117 0.177l-0.002 0.005c-0.646 0.951-1.899 1.261-2.912 0.676-1.021-0.59-1.381-1.845-0.861-2.885 0.028-0.044 0.054-0.094 0.074-0.147l0.002-0.006c0.307-0.514 0.785-0.859 1.316-1.002 0.136-0.036 0.275-0.061 0.416-0.070zM6.813 7.241c-1.097-0.041-1.878 0.687-2.674 1.564s-1.57 2.026-2.238 3.252c-0.669 1.226-1.229 2.527-1.563 3.715s-0.522 2.258-0.072 3.219c0.414 0.884 1.25 1.606 2.33 2.203s2.422 1.029 3.863 1.049c1.322 0.019 2.637-0.342 3.736-0.85s1.991-1.088 2.459-1.947c0.509-0.933 0.376-2.012 0.111-3.221s-0.748-2.545-1.344-3.818c-0.596-1.273-1.299-2.475-2.041-3.408s-1.471-1.717-2.568-1.758zM6.75 8.94c0.045 0.002 0.677 0.333 1.299 1.115s1.283 1.896 1.834 3.072c0.366 0.781 0.573 1.536 0.813 2.297h-8.381c0.296-0.832 0.609-1.69 1.078-2.551 0.617-1.132 1.342-2.194 2.006-2.926s1.307-1.009 1.352-1.008zM25.813 16.225c-1.097-0.041-1.878 0.687-2.674 1.564s-1.57 2.026-2.238 3.252c-0.669 1.226-1.229 2.527-1.563 3.715s-0.522 2.258-0.072 3.219c0.414 0.884 1.25 1.606 2.33 2.203s2.422 1.029 3.863 1.049c1.322 0.019 2.637-0.342 3.736-0.85s1.991-1.088 2.459-1.947c0.509-0.933 0.376-2.012 0.111-3.221s-0.748-2.545-1.344-3.818c-0.596-1.273-1.299-2.475-2.041-3.408s-1.471-1.717-2.568-1.758zM1.9 17.126h9.223c0.064 0.661 0.109 1.378 0.039 1.506-0.104 0.192-0.78 0.804-1.68 1.219s-2.015 0.705-3 0.691c-1.111-0.016-2.204-0.362-3.063-0.836s-1.464-1.114-1.615-1.438c-0.050-0.106 0.062-0.713 0.096-1.143zM25.75 17.924c0.045 0.002 0.677 0.333 1.299 1.115s1.283 1.894 1.834 3.070c0.366 0.782 0.573 1.537 0.813 2.299h-8.381c0.296-0.832 0.609-1.69 1.078-2.551 0.617-1.132 1.342-2.194 2.006-2.926s1.307-1.009 1.352-1.008zM20.9 26.11h9.223c0.064 0.661 0.109 1.378 0.039 1.506-0.104 0.192-0.78 0.804-1.68 1.219s-2.015 0.705-3 0.691c-1.111-0.016-2.204-0.362-3.063-0.836s-1.464-1.114-1.615-1.438c-0.049-0.106 0.062-0.713 0.096-1.143z"></path>
</svg>
