<!-- Generated by IcoMoon.io -->
<svg version="1.1" xmlns="http://www.w3.org/2000/svg" width="32" height="32" viewBox="0 0 32 32">
<title>balance-s</title>
<path d="M16 2c-1.6 0-2.976 1.006-3.541 2.412h-5.883c-0.006 0-0.014 0-0.021 0-0.828 0-1.5 0.672-1.5 1.5s0.672 1.5 1.5 1.5c0.007 0 0.015 0 0.022 0h5.967c0.398 0.853 1.097 1.542 1.965 1.914-0.006 0.051-0.010 0.111-0.010 0.171 0 0.004 0 0.008 0 0.011v-0.001 17.919h-7.924c-0.006 0-0.014 0-0.021 0-0.828 0-1.5 0.672-1.5 1.5s0.672 1.5 1.5 1.5c0.007 0 0.015 0 0.022 0h18.846c0.006 0 0.014 0 0.021 0 0.828 0 1.5-0.672 1.5-1.5s-0.672-1.5-1.5-1.5c-0.007 0-0.015 0-0.022 0h-7.922v-17.919c0-0.003 0-0.007 0-0.011 0-0.060-0.004-0.12-0.010-0.178l0.001 0.007c0.867-0.372 1.563-1.061 1.961-1.914h5.972c0.006 0 0.014 0 0.021 0 0.828 0 1.5-0.672 1.5-1.5s-0.672-1.5-1.5-1.5c-0.007 0-0.015 0-0.022 0h-5.885c-0.564-1.406-1.937-2.412-3.537-2.412zM6.979 9.242c-1.319-0.050-2.104 0.765-2.898 1.641s-1.545 1.997-2.197 3.193c-0.652 1.197-1.2 2.458-1.531 3.637s-0.57 2.265-0.047 3.383c0.463 0.989 1.324 1.703 2.414 2.305s2.436 1.034 3.898 1.055c1.35 0.019 2.658-0.343 3.76-0.852s2.009-1.056 2.551-2.049c0.593-1.087 0.415-2.181 0.152-3.381s-0.735-2.5-1.316-3.742c-0.581-1.242-1.266-2.415-2.006-3.346s-1.46-1.794-2.779-1.844zM25.654 9.242c-1.319-0.050-2.102 0.765-2.896 1.641s-1.549 1.997-2.201 3.193c-0.652 1.197-1.2 2.458-1.531 3.637s-0.566 2.265-0.043 3.383c0.463 0.989 1.32 1.703 2.41 2.305s2.436 1.034 3.898 1.055c1.35 0.019 2.66-0.343 3.762-0.852s2.009-1.056 2.551-2.049c0.593-1.087 0.415-2.181 0.152-3.381s-0.735-2.5-1.316-3.742c-0.581-1.242-1.268-2.415-2.008-3.346s-1.458-1.794-2.777-1.844zM6.885 11.74c0.067 0.003 0.052 0.024 0 0.061 0.122 0.098 0.518 0.337 0.918 0.84 0.563 0.708 1.182 1.752 1.697 2.851 0.252 0.538 0.365 1.035 0.557 1.572h-6.738c0.245-0.605 0.428-1.185 0.76-1.793 0.577-1.057 1.253-2.047 1.853-2.709 0.425-0.469 0.828-0.674 0.953-0.762-0.050-0.040-0.066-0.063 0-0.061zM25.56 11.74c0.067 0.003 0.049 0.024-0.002 0.061 0.122 0.098 0.518 0.337 0.918 0.84 0.563 0.708 1.182 1.752 1.697 2.851 0.252 0.538 0.367 1.035 0.559 1.572h-6.738c0.245-0.605 0.426-1.185 0.758-1.793 0.577-1.057 1.257-2.047 1.857-2.709 0.425-0.469 0.825-0.674 0.949-0.762-0.050-0.040-0.064-0.063 0.002-0.061z"></path>
</svg>
