<!-- Generated by IcoMoon.io -->
<svg version="1.1" xmlns="http://www.w3.org/2000/svg" width="32" height="32" viewBox="0 0 32 32">
<title>basket-ball-s</title>
<path d="M16 0c-1.288 0.007-2.545 0.161-3.745 0.446 0.439 0.592 3.351 4.551 5.97 9.365 5.693-2.129 8.098-5.37 8.384-5.78-2.825-2.51-6.54-4.031-10.609-4.031zM9.203 1.523c-4.478 2.114-7.831 6.242-8.862 11.203l0.002-0.002c0.716 0.007 7.309 0.036 14.793-1.946-2.648-4.712-5.508-8.677-5.933-9.255zM28.385 5.89c-0.337 0.454-3.021 3.893-8.933 6.308 0.373 0.761 0.732 1.536 1.061 2.318 0.117 0.279 0.235 0.548 0.345 0.825 5.326-0.666 10.617 0.404 11.144 0.514-0.036-3.775-1.392-7.243-3.615-9.964zM16.448 13.236c-7.982 2.393-15.739 2.289-16.441 2.282-0.007 0.16-0.007 0.323-0.007 0.492 0 4.104 1.558 7.857 4.111 10.689 0.366-0.622 4.756-7.888 13-10.558 0.205-0.066 0.418-0.132 0.631-0.19-0.403-0.907-0.841-1.821-1.294-2.714zM25.427 17.603c-1.126-0.012-2.341 0.057-3.594 0.258 2.093 5.75 2.941 10.433 3.109 11.407 3.586-2.429 6.145-6.271 6.855-10.728-0.412-0.132-2.991-0.901-6.37-0.937zM18.837 18.597c-0.036 0.014-0.073 0.023-0.101 0.037-9.029 3.147-12.271 9.402-12.557 9.987 2.715 2.114 6.123 3.379 9.818 3.379 2.217 0 4.333-0.452 6.251-1.271-0.241-1.405-1.165-6.292-3.411-12.131z"></path>
</svg>
