<!-- Generated by IcoMoon.io -->
<svg version="1.1" xmlns="http://www.w3.org/2000/svg" width="32" height="32" viewBox="0 0 32 32">
<title>binoculars-l</title>
<path d="M2.244 0.001v1.699c0.473 0 1.043 0 1.543 0v7.769h-0.807c-1.635 0-2.98 1.345-2.98 2.98v16.57c0 1.635 1.345 2.98 2.98 2.98h8.996c1.635 0 2.98-1.345 2.98-2.98v-10.275h2.086v10.275c0 1.635 1.345 2.98 2.98 2.98h8.996c1.635 0 2.98-1.345 2.98-2.98v-16.57c0-1.635-1.345-2.98-2.98-2.98h-0.807v-7.769c0.5 0 1.070 0 1.543 0v-1.699c-3.787-0.001-8.573-0.001-12.361 0v1.699c0.473 0 1.043 0 1.543 0v7.769h-5.875v-7.769c0.5 0 1.070 0 1.543 0l0.002-1.699c-3.787-0.001-8.575-0.001-12.363 0zM5.486 1.7c1.985 0 3.893 0 5.877 0v9.469h9.273v-9.469c1.985 0 3.893 0 5.877 0v9.469h2.506c0.709 0 1.281 0.572 1.281 1.281v14.064c-3.851-0.001-7.704-0.001-11.557 0v-9.471h-5.488v9.471c-3.851-0.001-7.704-0.001-11.557 0v-14.064c0-0.709 0.572-1.281 1.281-1.281h2.506zM15 13.473c-0.55 0-1 0.45-1 1s0.45 1 1 1h2c0.55 0 1-0.45 1-1s-0.45-1-1-1zM1.699 28.213c3.853-0.001 7.705-0.001 11.557 0v0.807c0 0.709-0.57 1.281-1.279 1.281h-8.996c-0.709 0-1.281-0.572-1.281-1.281zM18.744 28.213c3.853-0.001 7.706-0.001 11.557 0v0.807c0 0.709-0.572 1.281-1.281 1.281h-8.996c-0.709 0-1.279-0.572-1.279-1.281z"></path>
</svg>
