<!-- Generated by IcoMoon.io -->
<svg version="1.1" xmlns="http://www.w3.org/2000/svg" width="32" height="32" viewBox="0 0 32 32">
<title>blocked-l</title>
<path d="M16 0c-8.822 0-16 7.178-16 16s7.178 16 16 16c8.822 0 16-7.178 16-16s-7.178-16-16-16zM16 2.373c7.54 0 13.627 6.087 13.627 13.627 0 3.34-1.243 6.354-3.229 8.721-6.373-6.374-12.746-12.747-19.119-19.119 2.367-1.986 5.381-3.228 8.721-3.228zM5.602 7.279c6.373 6.372 12.746 12.745 19.119 19.119-2.367 1.986-5.381 3.229-8.721 3.229-7.54 0-13.627-6.087-13.627-13.627 0-3.34 1.243-6.354 3.229-8.721z"></path>
</svg>
