<!-- Generated by IcoMoon.io -->
<svg version="1.1" xmlns="http://www.w3.org/2000/svg" width="24" height="32" viewBox="0 0 24 32">
<title>book-s</title>
<path d="M4.112 0c-2.263 0-4.112 1.848-4.112 4.112v0.205c0 2.263 1.848 4.112 4.112 4.112h18.234c0.469-0.001 0.849-0.381 0.849-0.85 0-0.217-0.081-0.415-0.215-0.565l0.001 0.001c-0.34-0.383-0.615-0.755-0.777-1.141-0.152-0.361-0.235-0.754-0.283-1.16-4.676 0.001-9.353 0.001-14.030 0-0.002 0-0.005 0-0.007 0-0.276 0-0.5-0.224-0.5-0.5s0.224-0.5 0.5-0.5c0.003 0 0.005 0 0.007 0v0c4.677 0.001 9.355 0.001 14.030 0 0.048-0.406 0.131-0.799 0.283-1.16 0.162-0.385 0.438-0.756 0.777-1.139 0.133-0.149 0.214-0.347 0.214-0.564 0-0.469-0.38-0.849-0.849-0.85v0zM0 7.958v16.521c0 2.441 1.992 4.434 4.434 4.434h0.002c-0.101-6.362-0.202-12.723-0.305-19.083h-0.020c-1.625 0-3.097-0.729-4.112-1.871zM23.552 9.475c-0.342 0.221-0.759 0.353-1.207 0.354h-16.216c0.103 6.36 0.206 12.721 0.307 19.083h8.166v3.088l2.635-1.561 2.633 1.561v-3.164c2.084-0.361 3.682-2.174 3.682-4.358z"></path>
</svg>
