<!-- Generated by IcoMoon.io -->
<svg version="1.1" xmlns="http://www.w3.org/2000/svg" width="21" height="32" viewBox="0 0 21 32">
<title>bookmark-r</title>
<path d="M1.5 0c-0.828 0-1.5 0.672-1.5 1.5v0 29c0 0.828 0.672 1.5 1.5 1.5 0.414 0 0.789-0.168 1.060-0.439l8.002-8.002 8.002 8.002c0.271 0.271 0.646 0.439 1.060 0.439 0.828 0 1.5-0.671 1.5-1.5v-29c0-0.828-0.672-1.5-1.5-1.5v0zM3 3h15.125v23.879l-6.502-6.502c-0.271-0.271-0.646-0.439-1.061-0.439s-0.789 0.168-1.061 0.439l-6.502 6.502z"></path>
</svg>
