<!-- Generated by IcoMoon.io -->
<svg version="1.1" xmlns="http://www.w3.org/2000/svg" width="21" height="32" viewBox="0 0 21 32">
<title>bookmark-l</title>
<path d="M0.85 0c-0.469 0-0.849 0.381-0.85 0.85v30.3c0 0 0 0 0 0 0 0.47 0.381 0.85 0.85 0.85 0.235 0 0.447-0.095 0.601-0.249l8.867-8.867 8.867 8.867c0.154 0.154 0.366 0.249 0.601 0.249 0.47 0 0.85-0.381 0.85-0.85 0 0 0 0 0 0v0-30.3c0-0.469-0.381-0.849-0.85-0.85v0zM1.699 1.699h17.238v27.398l-8.017-8.017c-0.154-0.154-0.367-0.249-0.602-0.249s-0.448 0.095-0.602 0.249v0l-8.017 8.017z"></path>
</svg>
