<!-- Generated by IcoMoon.io -->
<svg version="1.1" xmlns="http://www.w3.org/2000/svg" width="32" height="32" viewBox="0 0 32 32">
<title>book-open-l</title>
<path d="M5.58 3c-0.679-0.002-1.358 0.034-2.033 0.109-0.427 0.049-0.756 0.409-0.756 0.845 0 0 0 0.001 0 0.001v0 19.884c0 0.469 0.381 0.85 0.85 0.85 0.036 0 0.071-0.002 0.105-0.006h-0.004c3.377-0.404 6.89 0.288 9.867 1.934-1.245-0.073-2.493-0.114-3.74-0.086-2.747 0.061-5.475 0.452-8.17 0.988v-18.689c0-0.003 0-0.007 0-0.011 0-0.469-0.381-0.85-0.85-0.85-0.004 0-0.008 0-0.012 0h0.001c-0.464 0.007-0.838 0.385-0.838 0.85 0 0.004 0 0.008 0 0.012v-0.001 19.644c0 0 0 0 0 0 0 0.469 0.381 0.85 0.85 0.85 0.066 0 0.129-0.007 0.191-0.021l-0.006 0.001c2.913-0.647 5.89-1.008 8.873-1.074 2.003-0.045 4.007 0.043 5.998 0.262 0.028 0.003 0.061 0.005 0.094 0.005s0.066-0.002 0.098-0.006h-0.004c1.991-0.219 3.995-0.306 5.998-0.262 2.983 0.067 5.96 0.427 8.873 1.074 0.056 0.013 0.119 0.020 0.185 0.020 0.469 0 0.85-0.381 0.85-0.85 0 0 0 0 0 0v0-19.644c0-0.008 0-0.017 0-0.027 0-0.469-0.381-0.85-0.85-0.85s-0.85 0.381-0.85 0.85c0 0.009 0 0.019 0 0.028v-0.001 18.689c-2.695-0.536-5.423-0.927-8.17-0.988-1.247-0.028-2.495 0.013-3.74 0.086 2.977-1.645 6.49-2.338 9.867-1.934 0.030 0.004 0.066 0.006 0.101 0.006 0.469 0 0.85-0.38 0.85-0.85v0-19.884c0 0 0-0.001 0-0.001 0-0.436-0.329-0.796-0.752-0.844h-0.004c-0.675-0.076-1.354-0.112-2.033-0.109-3.728 0.013-7.417 1.25-10.42 3.455-3.003-2.205-6.692-3.442-10.42-3.455zM5.574 4.699c3.433 0.012 6.838 1.224 9.576 3.295v17.586c-0.197-0.121-0.379-0.265-0.58-0.379-3.047-1.719-6.59-2.393-10.078-2.166v-18.277c0.361-0.023 0.72-0.060 1.082-0.059zM26.425 4.699c0.362-0.001 0.721 0.035 1.082 0.059v18.277c-3.488-0.227-7.031 0.447-10.078 2.166-0.201 0.114-0.383 0.258-0.58 0.379v-17.586c2.738-2.071 6.143-3.283 9.576-3.295z"></path>
</svg>
