<!-- Generated by IcoMoon.io -->
<svg version="1.1" xmlns="http://www.w3.org/2000/svg" width="24" height="32" viewBox="0 0 24 32">
<title>book-l</title>
<path d="M4.434 0c-0.007 0-0.013 0.002-0.020 0.002h-0.303c-2.263 0-4.111 1.848-4.111 4.111v0.205c0 0.019 0.006 0.037 0.006 0.057s-0.006 0.039-0.006 0.059v20.045c0 2.441 1.992 4.434 4.434 4.434h10.168v3.088l2.635-1.561 2.635 1.561v-3.164c2.084-0.361 3.682-2.174 3.682-4.357v-16.592c-0.001-0.342-0.203-0.637-0.495-0.771l-0.005-0.002c-0.024-0.037-0.049-0.069-0.075-0.099l0.001 0.001c-0.34-0.382-0.615-0.755-0.777-1.141-0.214-0.508-0.332-1.067-0.332-1.66s0.117-1.151 0.332-1.66c0.162-0.385 0.438-0.756 0.777-1.139 0.133-0.149 0.214-0.347 0.214-0.564 0-0.469-0.38-0.849-0.849-0.85h-3.168c-0.017-0.001-0.037-0.002-0.057-0.002v0zM4.434 1.701h16.33c-0.036 0.074-0.096 0.115-0.129 0.193-0.218 0.518-0.363 1.074-0.428 1.654-4.505 0.001-9.011 0.001-13.518 0-0.368 0-0.667 0.299-0.667 0.667s0.299 0.667 0.667 0.667v0c4.507 0.001 9.014 0.001 13.52 0 0.064 0.58 0.208 1.137 0.426 1.654 0.033 0.078 0.092 0.119 0.129 0.193h-16.652c-1.332 0-2.374-1.032-2.404-2.355 0.031-1.5 1.218-2.674 2.727-2.674zM1.701 7.629c0.68 0.497 1.508 0.801 2.41 0.801h0.369c-0.029 0.081-0.045 0.175-0.045 0.273 0 0.004 0 0.007 0 0.011v-0.001c0.001 6.107 0.001 12.215 0 18.324 0 0.007 0 0.014 0 0.022 0 0.054 0.005 0.107 0.015 0.159l-0.001-0.005h-0.016c-1.529 0-2.732-1.205-2.732-2.734zM6.090 8.43h15.762v16.049c0 1.529-1.204 2.734-2.732 2.734h-12.996c0.008-0.043 0.012-0.093 0.012-0.144 0-0.011 0-0.022-0.001-0.033v0.002c0.001-6.109 0.001-12.217 0-18.324 0-0.003 0-0.007 0-0.010 0-0.098-0.016-0.191-0.047-0.279l0.002 0.006z"></path>
</svg>
