<!-- Generated by IcoMoon.io -->
<svg version="1.1" xmlns="http://www.w3.org/2000/svg" width="32" height="32" viewBox="0 0 32 32">
<title>brain-alt-r</title>
<path d="M14.69 1.001c-0.513 0.017-1.028 0.090-1.533 0.227-1.37 0.369-2.399 1.299-3.233 2.309-0.641-0.135-1.309-0.275-2.033-0.119-0.992 0.214-1.912 0.697-2.645 1.406-0.763 0.739-1.066 1.691-1.268 2.594-0.517 0.117-1.055 0.218-1.567 0.568v0.002c-0.746 0.511-1.348 1.209-1.746 2.020h-0.002c-0.418 0.851-0.601 1.802-0.522 2.75 0.051 0.613 0.263 1.192 0.52 1.746-0.353 0.722-0.622 1.487-0.656 2.287-0.043 1.007 0.164 2.004 0.584 2.903 0.84 1.796 2.445 3.068 4.244 3.662 1.38 0.455 2.862 0.479 4.272 0.141 1.027 0.442 2.211 1.396 3.625 1.647l0.008 0.002 0.010 0.002c1.255 0.186 2.534-0.029 3.698-0.541 0.501 0.415 1.030 0.81 1.676 0.969 0.508 0.125 0.862-0.003 1.236-0.082l1.934 4.752 0.51 0.244 0.002 0.002c0.771 0.365 1.628 0.508 2.473 0.426s1.658-0.388 2.344-0.897c0.758-0.561 1.331-1.336 1.643-2.227l0.002-0.002 0.201-0.586-1.791-3.571c1.269-0.477 2.55-1.118 3.319-2.412 0.952-1.605 1.137-3.536 0.66-5.323 0.966-1.32 1.472-2.94 1.318-4.577-0.153-1.631-0.907-3.163-2.102-4.282-1.023-0.958-2.336-1.386-3.641-1.567-0.751-1.136-1.72-2.162-3.006-2.774-0.958-0.455-2.026-0.725-3.127-0.723-0.483 0.001-0.958 0.088-1.426 0.195-1.269-0.685-2.642-1.198-3.971-1.174h-0.006zM14.776 3.94h0.014c0.283-0.008 0.552 0.109 0.834 0.162-0.363 0.398-0.798 0.728-1.035 1.231-0.382 0.81-0.435 1.716-0.375 2.61-0.195 0.266-0.468 0.494-0.75 0.594-0.22 0.076-0.46 0.107-0.682 0.088-0.029-0.002-0.071-0.006-0.129-0.006-0.801 0-1.465 0.662-1.465 1.463 0 0.755 0.585 1.39 1.328 1.459h0.004l0.025 0.002h0.033c0.631 0.047 1.261-0.039 1.848-0.242h0.004c0.401-0.141 0.739-0.39 1.080-0.631 0.405 0.324 0.805 0.67 1.328 0.764v0.002c0.775 0.138 1.574-0.014 2.242-0.428h0.002v-0.002c0.416-0.259 0.693-0.726 0.693-1.246 0-0.802-0.664-1.465-1.465-1.465-0.259 0-0.5 0.085-0.713 0.205l-0.008-0.014-0.004 0.002 0.008 0.012c-0.015 0.009-0.036 0.005-0.051 0.014-0.024 0.015-0.154 0.039-0.184 0.033h-0.002c-0.032-0.006-0.145-0.077-0.158-0.094h-0.002c-0.011-0.014-0.073-0.129-0.117-0.287l0.016 0.082c-0.009-0.061-0.028-0.124-0.045-0.186l0.004-0.002c-0.1-0.466-0.032-1.019 0.184-1.479v-0.002c0.229-0.485 0.649-0.937 1.141-1.223 0.498-0.29 1.112-0.448 1.729-0.449 0.619-0.002 1.269 0.151 1.86 0.432 0.902 0.429 1.691 1.178 2.174 2.057l0.002 0.004 0.406 0.725 0.83 0.027c0.897 0.024 1.835 0.412 2.492 1.027s1.102 1.517 1.186 2.412c0.041 0.434-0.157 0.861-0.273 1.297-0.456-0.451-0.856-0.965-1.426-1.275h-0.002c-1.443-0.787-3.136-1.036-4.743-0.697l-0.004 0.002h-0.002c-0.661 0.145-1.156 0.738-1.156 1.432 0 0.802 0.665 1.467 1.467 1.467 0.094 0 0.185-0.014 0.273-0.031v0.004h0.006v-0.004c0.008-0.002 0.017 0 0.025-0.002 0.904-0.191 1.923-0.042 2.735 0.4s1.482 1.213 1.813 2.078c0.416 1.089 0.302 2.467-0.291 3.467-0.594 1.001-1.745 1.761-2.901 1.918h-0.002l-2.024 0.279 2.637 5.287c-0.105 0.172-0.209 0.371-0.316 0.451-0.248 0.182-0.567 0.303-0.879 0.334-0.127 0.012-0.317-0.049-0.494-0.094l-2.377-5.858-1.387 0.6c-0.267 0.117-0.602 0.141-0.883 0.080 0.845-0.96 1.581-1.995 2.17-2.797 0.424-0.577 0.859-1.004 1.193-1.152 0.245-0.109 0.574-0.138 0.836-0.074l-0.004-0.002c0.112 0.028 0.225 0.043 0.348 0.043 0.802 0 1.467-0.665 1.467-1.467 0-0.682-0.472-1.265-1.113-1.424l-0.010-0.002c-0.856-0.207-1.747-0.129-2.559 0.195h-0.033l-0.127 0.055c-1.122 0.5-1.829 1.371-2.356 2.086v0.002c-1.055 1.434-1.835 2.783-2.785 3.444-0.009 0.006-0.023 0.015-0.023 0.016l0.359 0.541c-0.001 0-0.001 0.002-0.002 0.002l-0.367-0.537c-0.001 0.001-0.003 0.001-0.004 0.002-0.745 0.503-1.755 0.724-2.674 0.588-0.935-0.139-1.859-0.635-2.524-1.35v-0.002c-0.69-0.742-1.142-1.762-1.23-2.774l0.002 0.035c-0.027-0.78-0.681-1.414-1.465-1.414-0.801 0-1.465 0.664-1.465 1.465 0 0.056 0.005 0.113 0.012 0.17 0 0 0 0.002 0 0.002 0.002 0.015 0.002 0.028 0.004 0.043l0.010-0.002c0.001 0.009 0.009 0.016 0.010 0.025l-0.014 0.002v0.006l0.016-0.002c0.078 0.799 0.434 1.514 0.754 2.238-0.52 0.002-1.048 0.048-1.531-0.111-1.086-0.358-2.057-1.171-2.506-2.129v-0.002c-0.225-0.483-0.336-1.019-0.314-1.531 0.020-0.475 0.161-0.95 0.391-1.342 0.13-0.133 0.243-0.283 0.318-0.457l-0.074 0.135c0.439-0.526 1.11-0.908 1.758-0.982 0.754-0.086 1.636 0.216 2.178 0.746 0.264 0.262 0.632 0.428 1.033 0.428 0.802 0 1.467-0.665 1.467-1.467 0-0.413-0.177-0.793-0.455-1.059-1.201-1.172-2.886-1.753-4.555-1.563-0.69 0.079-1.261 0.472-1.863 0.789 0.026-0.291 0.036-0.589 0.162-0.846 0.172-0.348 0.451-0.671 0.775-0.893s0.717-0.363 1.104-0.396l1.276-0.105 0.064-1.277c0.031-0.608 0.332-1.261 0.774-1.688 0.333-0.321 0.774-0.558 1.223-0.654 0.451-0.097 0.952-0.065 1.385 0.090h0.002l1.119 0.395 0.621-1.004v-0.002c0.503-0.81 1.365-1.447 2.287-1.695 0.275-0.074 0.565-0.117 0.859-0.125zM16.876 8.029l-0.457 0.16c-0.002-0.010-0.002-0.021-0.004-0.031zM16.923 12.394l-0.064 0.010 0.066-0.006c-0.786 0.044-1.548 0.323-2.18 0.809-0.748 0.577-1.256 1.403-1.445 2.322-0.19 0.922-0.043 1.886 0.418 2.709l0.008 0.012 0.006 0.014c0.259 0.418 0.727 0.695 1.248 0.695 0.802 0 1.467-0.663 1.467-1.465 0-0.221-0.062-0.428-0.15-0.617l0.012-0.006-0.004-0.004-0.010 0.004c-0.008-0.017-0.005-0.038-0.014-0.055l-0.588 0.273c0-0.001-0.002-0.001-0.002-0.002l0.584-0.283c-0.105-0.188-0.15-0.477-0.107-0.688 0.042-0.208 0.195-0.45 0.369-0.584 0.189-0.146 0.516-0.232 0.746-0.199 0.079 0.012 0.148 0.016 0.217 0.016 0.802 0 1.467-0.665 1.467-1.467 0-0.724-0.537-1.334-1.236-1.445-0.345-0.064-0.628-0.034-0.74-0.039zM7.151 18.34c0 0.005 0.002 0.009 0.002 0.014l-0.463 0.066z"></path>
</svg>
