<!-- Generated by IcoMoon.io -->
<svg version="1.1" xmlns="http://www.w3.org/2000/svg" width="32" height="32" viewBox="0 0 32 32">
<title>briefcase-l</title>
<path d="M11.592 3c-0.868 0-1.592 0.724-1.592 1.592v2.234c0 0.006 0 0.012 0 0.019 0 0.082 0.011 0.16 0.033 0.235l-0.001-0.006h-6.762c-1.797 0-3.27 1.473-3.27 3.27v15.387c0 1.797 1.473 3.27 3.27 3.27h25.461c1.797 0 3.27-1.473 3.27-3.27v-15.387c0-1.797-1.473-3.27-3.27-3.27h-6.76c0 0 0-0.001 0-0.001s0-0.001 0-0.001v0c0.019-0.067 0.030-0.143 0.030-0.222 0-0.008 0-0.017 0-0.025v0.001-2.234c0-0.868-0.724-1.592-1.592-1.592h-8.816zM11.699 4.699h8.602v2.127c0 0.006 0 0.012 0 0.019 0 0.082 0.012 0.16 0.033 0.235l-0.001-0.006h-8.662c0 0 0-0.001 0-0.001s0-0.001 0-0.001v0c0.019-0.067 0.030-0.143 0.030-0.222 0-0.008 0-0.017 0-0.025v0.001-2.127zM3.27 8.773h25.461c0.885 0 1.57 0.686 1.57 1.57v15.387c0 0.885-0.686 1.57-1.57 1.57h-25.461c-0.885 0-1.57-0.686-1.57-1.57v-15.387c0-0.885 0.686-1.57 1.57-1.57zM4.475 12.828v1.699c0.68 0 1.359 0 2.039 0-0.005 0.049-0.014 0.098-0.014 0.148v1.887c0 0.762 0.613 1.375 1.375 1.375h1.25c0.762 0 1.375-0.613 1.375-1.375v-1.887c0-0.051-0.008-0.099-0.014-0.148 3.676 0 7.352 0 11.027 0-0.005 0.049-0.014 0.098-0.014 0.148v1.887c0 0.762 0.613 1.375 1.375 1.375h1.25c0.762 0 1.375-0.613 1.375-1.375v-1.887c0-0.051-0.008-0.099-0.014-0.148 0.68 0 1.359 0 2.039 0v-1.699c-7.683-0.001-15.366-0.001-23.051 0z"></path>
</svg>
