<!-- Generated by IcoMoon.io -->
<svg version="1.1" xmlns="http://www.w3.org/2000/svg" width="32" height="32" viewBox="0 0 32 32">
<title>bubbles-l</title>
<path d="M13.459 1.5c-0.097 0.001-0.191 0.018-0.277 0.049l0.006-0.002c-7.208 0.125-13.188 4.887-13.188 11.010 0 3.376 1.877 6.351 4.707 8.354 0.007 0.093 0.021 0.184 0.021 0.279 0 1.265-1.086 2.551-2.57 3.275-0.284 0.141-0.477 0.43-0.477 0.764 0 0 0 0 0 0v0 0.66c0 0.469 0.381 0.85 0.85 0.85 0.007 0 0.013 0 0.020 0h-0.001c2.932-0.066 6.050-0.589 8.787-2.895 0.493 0.599 1.057 1.138 1.682 1.598 1.96 1.442 4.388 2.049 6.746 2.045 0.629-0.001 1.257-0.055 1.881-0.139 2.442 2.227 5.134 2.694 7.803 2.754 0.006 0 0.012 0 0.019 0 0.469 0 0.85-0.38 0.85-0.85v0-0.566c0 0 0 0 0 0 0-0.335-0.194-0.625-0.475-0.763l-0.005-0.002c-1.229-0.593-1.936-1.594-1.936-2.695 0-0.031 0.005-0.061 0.008-0.092 0.663-0.399 1.251-0.886 1.771-1.439 0.955-1.016 1.618-2.267 1.971-3.602 0.031-0.101 0.059-0.202 0.086-0.305 0.165-0.633 0.262-1.288 0.262-1.965 0-2.272-0.975-4.358-2.557-5.977-0.039-0.041-0.081-0.077-0.126-0.11l-0.003-0.002c-0.001-0.001-0.001-0.001-0.002-0.002v0c-0.24-0.236-0.491-0.461-0.758-0.668-0.623-0.483-1.314-0.871-2.041-1.174-1.46-4.871-6.811-8.391-13.055-8.391zM13.459 3.201c0.001 0 0.003 0 0.005 0s0.003 0 0.005 0v0c6.587 0.005 11.752 4.288 11.752 9.354 0 5.068-5.169 9.355-11.762 9.355-0.601 0-1.19-0.040-1.768-0.109-0.062-0.016-0.133-0.025-0.206-0.025-0.001 0-0.002 0-0.003 0v0c-0.271 0.001-0.512 0.13-0.667 0.328l-0.001 0.002c-1.937 1.886-4.099 2.431-6.361 2.672 1.094-0.952 1.975-2.103 1.975-3.588 0-0.283-0.020-0.559-0.061-0.828-0.038-0.246-0.176-0.454-0.372-0.584l-0.003-0.002c-2.659-1.744-4.293-4.339-4.293-7.219 0-5.068 5.167-9.355 11.76-9.355zM26.885 11.988c0.215 0.133 0.43 0.265 0.629 0.42 1.505 1.167 2.525 2.99 2.705 4.877 0.082 0.854-0.018 1.727-0.264 2.557-0.539 1.596-1.696 3.009-3.314 4.061-0.007 0.003-0.010 0.005-0.013 0.006l0.005-0.002c-0.049 0.032-0.092 0.067-0.131 0.106v0c-0.162 0.155-0.263 0.373-0.263 0.615 0 0.025 0.001 0.050 0.003 0.074v-0.003c0 0.001 0 0.003 0 0.004s0 0.003 0 0.004v0c-0.019 0.172-0.041 0.343-0.041 0.52 0 1.141 0.56 2.093 1.316 2.912-1.764-0.236-3.411-0.718-4.996-2.279-0.116-0.114-0.266-0.195-0.432-0.228l-0.005-0.001c0.003 0.001 0.001 0-0.002-0.001l-0.006-0.001c-0.004-0.001-0.012-0.002-0.021-0.003l-0.005-0.001c-0.015-0.003-0.036-0.006-0.057-0.008h-0.003c-0.025-0.003-0.054-0.004-0.083-0.004-0.054 0-0.107 0.005-0.158 0.015l0.005-0.001c-0.657 0.107-1.324 0.161-1.99 0.162-2.062 0.003-4.136-0.537-5.736-1.715-0.196-0.144-0.385-0.3-0.566-0.463 7.335-0.001 13.459-4.852 13.459-11.055 0-0.192-0.024-0.378-0.035-0.566z"></path>
</svg>
