<!-- Generated by IcoMoon.io -->
<svg version="1.1" xmlns="http://www.w3.org/2000/svg" width="32" height="32" viewBox="0 0 32 32">
<title>bug-r</title>
<path d="M16.006 0.5c-1.351 0-2.702 0.405-3.859 1.215-2.059 1.442-3.026 3.899-2.723 6.334-0.082 0.076-0.162 0.153-0.24 0.23-1.086 0-2.265 0-2.992 0l-1.582-6.271c-0.16-0.68-0.795-1.153-1.492-1.109-0.897 0.055-1.537 0.947-1.305 1.814 0 0 0 0.002 0 0.002l2.012 7.977c0.071 0.274 0.316 0.473 0.607 0.473 0 0 0 0 0 0h2.721c-0.731 1.384-1.213 2.887-1.375 4.473-1.436-0.021-2.876-0.050-4.334-0.049-0.429 0-0.829 0.185-1.080 0.467s-0.363 0.633-0.363 0.977c0 0.343 0.112 0.696 0.363 0.979s0.651 0.465 1.080 0.465c1.438-0.001 2.892 0.029 4.352 0.051 0.074 0.586 0.148 1.173 0.311 1.756 0.072 0.257 0.177 0.491 0.264 0.738-0.553 0-1.301 0-1.301 0h-0.637c0 0 0 0 0 0-0.291 0-0.536 0.199-0.606 0.468l-0.001 0.004-2.014 7.988c-0.105 0.416-0.027 0.848 0.186 1.16s0.527 0.508 0.859 0.592c0.333 0.084 0.702 0.063 1.037-0.111s0.61-0.518 0.715-0.934c0 0 0-0.001 0-0.001s0-0.001 0-0.001v0l1.584-6.281c0.477 0 1.042 0 1.656 0 1.903 2.722 4.858 4.484 8.152 4.484s6.249-1.762 8.152-4.484c0.614 0 1.179 0 1.656 0l1.584 6.281c0 0 0 0.001 0 0.001s0 0.001 0 0.001v0c0.105 0.416 0.38 0.758 0.715 0.932s0.704 0.197 1.037 0.113c0.333-0.084 0.645-0.279 0.857-0.592s0.292-0.745 0.188-1.16l-2.014-7.988c-0.071-0.274-0.316-0.473-0.607-0.473 0 0 0 0 0 0h-0.637c0 0-0.748 0-1.301 0 0.087-0.247 0.192-0.481 0.264-0.738 0.166-0.595 0.24-1.194 0.314-1.793 1.436 0.010 2.878 0.032 4.332 0.049 0.429 0.005 0.832-0.174 1.086-0.453s0.369-0.631 0.373-0.975c0.004-0.343-0.104-0.695-0.352-0.98s-0.645-0.474-1.074-0.479c-1.44-0.017-2.896-0.039-4.355-0.049-0.166-1.574-0.647-3.064-1.373-4.438h2.723c0 0 0 0 0 0 0.291 0 0.536-0.199 0.606-0.468l0.001-0.004 2.012-7.979c0.237-0.884-0.433-1.785-1.348-1.814-0.682-0.022-1.292 0.444-1.449 1.107l-1.582 6.273c-0.728 0-1.909 0-2.996 0-0.074-0.073-0.15-0.145-0.227-0.217 0.308-2.439-0.656-4.903-2.719-6.348-1.157-0.81-2.511-1.215-3.861-1.215zM16.006 3.383c0.772 0 1.543 0.23 2.207 0.695 1.32 0.924 1.911 2.557 1.506 4.117l0.008-0.023c-0.082 0.271-0.071 0.559 0.010 0.83l-0.023-0.133c0 0 0 0.001 0 0.001 0 0.058 0.008 0.114 0.023 0.167l-0.001-0.004c0 0.001 0.001 0.003 0.002 0.004s0 0.002 0 0.002 0 0.002 0 0.002c0.002 0.009 0.004 0.014 0.005 0.018l-0.001-0.004c0.002 0.006 0.006 0.013 0.008 0.020 0 0.001 0 0.001 0 0.002s0 0.001 0 0.002v0c0.006 0.017 0.015 0.034 0.021 0.051 0.002 0.006 0.003 0.012 0.006 0.018 0.008 0.023 0.016 0.042 0.025 0.060l-0.002-0.004c0 0 0.002 0.002 0.002 0.002s0 0.002 0 0.002c0.107 0.234 0.273 0.434 0.484 0.582l-0.033-0.023c2.652 2.129 3.877 6.104 2.863 9.74-1.020 3.659-3.929 5.998-7.115 5.998s-6.095-2.339-7.115-5.998c-1.011-3.625 0.206-7.585 2.842-9.719l-0.063 0.045c0.54-0.337 0.796-0.995 0.627-1.607l-0.002-0.008c-0.416-1.565 0.184-3.209 1.512-4.139 0.665-0.466 1.433-0.695 2.205-0.695z"></path>
</svg>
