<!-- Generated by IcoMoon.io -->
<svg version="1.1" xmlns="http://www.w3.org/2000/svg" width="32" height="32" viewBox="0 0 32 32">
<title>bullhorn-l</title>
<path d="M27.645 1l-3.041 0.037c-0.078 0.001-0.149 0.027-0.206 0.071l0.001-0.001c0 0-5.689 4.264-13.779 5.926-1.419 0.197-4.817 0.662-6.152 0.662h-2.266c0 0 0 0 0 0-0.128 0-0.241 0.069-0.302 0.172l-0.001 0.002-1.852 3.16c-0.029 0.050-0.047 0.111-0.047 0.175 0 0 0 0.001 0 0.001v0 2.875c0 0.001 0 0.002 0 0.003 0 0.064 0.017 0.125 0.048 0.177l-0.001-0.002 1.852 3.16c0.062 0.104 0.174 0.172 0.301 0.172 0.001 0 0.001 0 0.002 0h2.266c0.677 0 1.898 0.13 3.102 0.273l1.982 11.838c0.001 0.006 0.002 0.009 0.002 0.012v-0.002l0.004 0.020c0.002 0.008 0.003 0.014 0.004 0.020l-0.001-0.002c0.242 0.955 1.295 1.493 2.211 1.127 0 0 0.001 0 0.001 0s0.001 0 0.001 0v0l3.51-1.408c0.875-0.35 1.271-1.374 0.895-2.221l0.016 0.039-2.533-8.219c6.4 1.93 10.738 5.111 10.738 5.111 0.056 0.043 0.128 0.069 0.205 0.070l3.030 0.037c0.002 0 0.004 0 0.007 0s0.005 0 0.007 0v0c0.307-0.009 0.588-0.149 0.889-0.35s0.609-0.476 0.889-0.807c0.561-0.663 1.012-1.536 1.387-2.576 0 0 0-0.001 0-0.001s0-0.001 0-0.001v0c0.75-2.082 1.189-4.852 1.189-7.908s-0.44-5.826-1.189-7.908c-0.375-1.040-0.826-1.915-1.387-2.578-0.28-0.331-0.588-0.606-0.887-0.807s-0.573-0.339-0.877-0.35c-0.002 0-0.005 0-0.008 0s-0.006 0-0.008 0v0zM25.066 2.666h0.361c-0.704 0.78-1.366 1.643-1.84 2.775-0.798 1.909-1.277 4.243-1.348 6.758-0.116 4.15 0.885 7.98 2.752 10.379-0.493-0.361-5.657-4.061-13.439-5.805-0.192-1.617-0.287-2.673-0.363-4.141 0.001-1.298 0.177-2.847 0.359-4.129 7.852-1.762 13.117-5.543 13.518-5.838zM27.633 2.838c0.156 0.085 0.316 0.173 0.51 0.402 0.369 0.436 0.761 1.15 1.090 2.063 0.658 1.827 1.090 4.447 1.090 7.34s-0.432 5.513-1.090 7.34c-0.329 0.913-0.721 1.629-1.090 2.064s-0.656 0.56-0.883 0.566c-0.954-0.719-1.842-2.141-2.453-3.973s-0.956-4.067-0.891-6.395c0.065-2.329 0.517-4.48 1.219-6.158 0.674-1.612 1.592-2.729 2.498-3.25zM9.844 8.805c-0.175 1.152-0.332 2.362-0.332 3.838v0.027c0 0.003 0 0.006 0 0.009s0 0.006 0 0.009v0c0.069 1.333 0.176 2.426 0.33 3.795-1.597-0.224-3.957-0.57-5.375-0.57h-1.506l-1.283-2.191v-2.154l1.283-2.191h1.506c1.419 0 3.78-0.346 5.377-0.57zM27.039 9.315c-0.109 0-0.228 0.114-0.289 0.182-0.147 0.165-0.289 0.419-0.41 0.738-0.271 0.715-0.42 1.672-0.42 2.697s0.149 1.982 0.42 2.697c0.121 0.32 0.263 0.577 0.41 0.74 0.061 0.068 0.18 0.18 0.289 0.18s0.228-0.112 0.289-0.18c0.147-0.165 0.289-0.421 0.41-0.74 0.271-0.715 0.42-1.672 0.42-2.697s-0.149-1.983-0.42-2.697c-0.121-0.32-0.263-0.575-0.41-0.738-0.061-0.068-0.18-0.182-0.289-0.182zM9.313 18.113c0.5 0.051 1.037 0.103 1.305 0.139 0.358 0.075 0.731 0.208 1.137 0.334l2.85 9.24c0.008 0.025 0.017 0.046 0.028 0.066l-0.001-0.002 0.014 0.025-3.457 1.385z"></path>
</svg>
