<!-- Generated by IcoMoon.io -->
<svg version="1.1" xmlns="http://www.w3.org/2000/svg" width="32" height="32" viewBox="0 0 32 32">
<title>bullhorn-r</title>
<path d="M27.158 1l-2.916 0.035c-0.209 0.004-0.411 0.075-0.578 0.201-0.003 0.003-5.346 3.994-12.939 5.559-1.37 0.19-4.664 0.629-5.789 0.629h-2.174c-0.35-0.001-0.675 0.187-0.852 0.488l-1.777 3.033v0.002c-0.087 0.152-0.134 0.323-0.133 0.498v2.754c0 0.174 0.046 0.344 0.133 0.494v0.002l1.779 3.039c0.179 0.3 0.504 0.485 0.853 0.482h2.17c0.472 0 1.464 0.106 2.416 0.213l1.82 10.869 0.002 0.004c0.002 0.010 0.004 0.020 0.006 0.029v0.002l0.004 0.020c0.002 0.012 0.005 0.024 0.008 0.035v0.002c0.314 1.237 1.625 1.943 2.824 1.572h0.057l3.48-1.398c1.141-0.456 1.633-1.754 1.213-2.873l0.041-0.016-2.043-6.631c5.314 1.822 8.899 4.36 8.904 4.363h0.002l0.002 0.002c0.166 0.123 0.368 0.191 0.574 0.193l2.9 0.037c0.013 0 0.028 0 0.041 0h0.006c0.48-0.015 0.866-0.226 1.193-0.445 0.344-0.23 0.682-0.532 0.988-0.895 0.609-0.72 1.069-1.626 1.445-2.672v-0.002l0.039-0.104v-0.057c0.723-2.075 1.14-4.719 1.14-7.647 0-2.994-0.425-5.714-1.18-7.809-0.377-1.045-0.836-1.952-1.445-2.672-0.306-0.362-0.644-0.663-0.986-0.893-0.324-0.217-0.705-0.431-1.182-0.447h-0.008c-0.011 0-0.024 0-0.035 0zM23.174 4.914c-0.153 0.273-0.365 0.439-0.494 0.748-0.803 1.92-1.274 4.231-1.344 6.715-0.084 3.007 0.426 5.842 1.459 8.123-2.023-1.244-5.26-2.974-10.453-4.213-0.145-1.271-0.242-2.247-0.307-3.477v-0.006c0.001-1.062 0.151-2.33 0.303-3.459 5.534-1.322 8.931-3.226 10.836-4.432zM26.59 8.977c0.278 0 0.432 0.11 0.539 0.188s0.174 0.149 0.223 0.203c0.227 0.252 0.382 0.555 0.518 0.912 0.301 0.792 0.445 1.772 0.445 2.818s-0.145 2.026-0.445 2.818c-0.135 0.356-0.292 0.659-0.518 0.912v0.002c-0.050 0.056-0.119 0.128-0.227 0.205s-0.261 0.182-0.535 0.182c-0.274 0-0.426-0.105-0.533-0.182s-0.176-0.149-0.227-0.205c-0.229-0.254-0.383-0.558-0.518-0.914-0.301-0.792-0.445-1.772-0.445-2.818s0.145-2.026 0.445-2.818c0.135-0.357 0.291-0.661 0.516-0.912h0.002c0.048-0.054 0.116-0.126 0.223-0.203s0.259-0.188 0.537-0.188zM9.379 9.867c-0.122 0.907-0.254 1.811-0.254 2.953v0.025c0 0.011 0 0.024 0 0.035v0.008l0.002 0.008c0.053 1.013 0.147 1.915 0.248 2.879-1.452-0.205-3.199-0.469-4.439-0.469h-1.072l-0.953-1.629v-1.715l0.953-1.627h1.072c1.242 0 2.991-0.264 4.443-0.469zM10.365 18.805c0.108 0.012 0.285 0.028 0.354 0.037 0.19 0.041 0.444 0.127 0.689 0.205l2.482 8.049-2 0.801z"></path>
</svg>
