<!-- Generated by IcoMoon.io -->
<svg version="1.1" xmlns="http://www.w3.org/2000/svg" width="25" height="32" viewBox="0 0 25 32">
<title>calculator-s</title>
<path d="M5.543 0c-3.045 0-5.543 2.498-5.543 5.543v5.924h24.916v-5.924c0-3.045-2.496-5.543-5.541-5.543h-13.832zM18.746 2.053c1.58 0 2.883 1.303 2.883 2.883v1.541c0 1.58-1.303 2.883-2.883 2.883s-2.883-1.303-2.883-2.883v-1.541c0-1.58 1.303-2.883 2.883-2.883zM18.746 4.014c-0.528 0-0.922 0.394-0.922 0.922v1.541c0 0.528 0.394 0.924 0.922 0.924s0.924-0.396 0.924-0.924v-1.541c0-0.528-0.396-0.922-0.924-0.922zM0 13.168v13.289c0 3.045 2.498 5.543 5.543 5.543h13.832c3.045 0 5.541-2.498 5.541-5.543v-13.289h-24.916zM5.219 15.854h4.293v3.889h-4.293v-3.889zM10.6 15.854h4.293v3.889h-4.293v-3.889zM15.691 16.793h4.295v7.777h-4.295v-7.777zM5.219 20.754h4.293v3.889h-4.293v-3.889zM10.6 20.754h4.293v3.889h-4.293v-3.889zM5.219 25.654h4.293v3.889h-4.293v-3.889zM10.6 25.654h4.293v3.889h-4.293v-3.889zM15.691 25.654h4.295v3.889h-4.295v-3.889z"></path>
</svg>
