<!-- Generated by IcoMoon.io -->
<svg version="1.1" xmlns="http://www.w3.org/2000/svg" width="25" height="32" viewBox="0 0 25 32">
<title>calculator-l</title>
<path d="M5.117 0c-2.82 0-5.117 2.297-5.117 5.117v21.766c0 2.82 2.297 5.117 5.117 5.117h14.395c2.82 0 5.117-2.297 5.117-5.117v-21.766c0-2.82-2.297-5.117-5.117-5.117zM5.117 1.699h14.395c1.908 0 3.416 1.51 3.416 3.418v4.846h-21.227v-4.846c0-1.908 1.508-3.418 3.416-3.418zM18.965 2.781c-1.37 0-2.5 1.13-2.5 2.5v1.336c0 1.37 1.13 2.5 2.5 2.5s2.5-1.13 2.5-2.5v-1.336c0-1.37-1.13-2.5-2.5-2.5zM18.965 4.48c0.458 0 0.801 0.343 0.801 0.801v1.336c0 0.458-0.343 0.801-0.801 0.801s-0.801-0.343-0.801-0.801v-1.336c0-0.458 0.343-0.801 0.801-0.801zM1.701 11.662h21.227v15.221c0 1.908-1.508 3.418-3.416 3.418h-14.395c-1.908 0-3.416-1.51-3.416-3.418zM4.365 12.977c-0.469 0-0.849 0.381-0.85 0.85v14.4c0 0.469 0.381 0.849 0.85 0.85h15.898c0.469 0 0.849-0.381 0.85-0.85v-14.4c0-0.469-0.381-0.849-0.85-0.85h-10.6zM5.215 14.678h3.6v3.098h-3.6zM10.516 14.678h3.598v3.098h-3.598zM15.814 14.678h3.6v7.898h-3.6v-3.949zM5.215 19.477h3.6v3.1h-3.6zM10.516 19.477h3.598v3.1h-3.598zM5.215 24.275h3.6v3.1h-3.6zM10.516 24.275h3.598v3.1h-3.598zM15.814 24.277h3.6v3.098h-3.6z"></path>
</svg>
