<!-- Generated by IcoMoon.io -->
<svg version="1.1" xmlns="http://www.w3.org/2000/svg" width="25" height="32" viewBox="0 0 25 32">
<title>calculator-r</title>
<path d="M5.543 0c-3.045 0-5.543 2.498-5.543 5.543v20.914c0 3.045 2.498 5.543 5.543 5.543h13.832c3.045 0 5.541-2.498 5.541-5.543v-20.914c0-3.045-2.496-5.543-5.541-5.543h-13.832zM5.543 2.883h13.832c1.498 0 2.658 1.162 2.658 2.66v5.377h-19.15v-5.377c0-1.498 1.162-2.66 2.66-2.66zM18.197 3.738c-1.388 0-2.533 1.145-2.533 2.533v1.355c0 1.388 1.145 2.531 2.533 2.531s2.533-1.143 2.533-2.531v-1.355c0-1.388-1.145-2.533-2.533-2.533zM18.197 5.463c0.464 0 0.811 0.345 0.811 0.809v1.355c0 0.464-0.347 0.811-0.811 0.811s-0.811-0.347-0.811-0.811v-1.355c0-0.464 0.347-0.809 0.811-0.809zM2.883 13.803h19.15v12.654c0 1.498-1.16 2.66-2.658 2.66h-13.832c-1.498 0-2.66-1.162-2.66-2.66v-12.654zM5.219 14.754v3.889h4.293v-3.889h-4.293zM10.6 14.754v3.889h4.293v-3.889h-4.293zM15.691 15.693v7.777h4.295v-7.777h-4.295zM5.219 19.654v3.889h4.293v-3.889h-4.293zM10.6 19.654v3.889h4.293v-3.889h-4.293zM5.219 24.555v3.889h4.293v-3.889h-4.293zM10.6 24.555v3.889h4.293v-3.889h-4.293zM15.691 24.555v3.889h4.295v-3.889h-4.295z"></path>
</svg>
