<!-- Generated by IcoMoon.io -->
<svg version="1.1" xmlns="http://www.w3.org/2000/svg" width="32" height="32" viewBox="0 0 32 32">
<title>camera-l</title>
<path d="M12.213 3c-1.23 0-2.179 0.733-2.688 1.605-0.393 0.674-0.563 1.439-0.756 2.184h-6.025c-1.505 0-2.744 1.237-2.744 2.742v17.045c0 1.505 1.239 2.744 2.744 2.744h26.512c1.505 0 2.744-1.239 2.744-2.744v-17.045c0-1.505-1.239-2.742-2.744-2.742h-6.025c-0.193-0.745-0.363-1.51-0.756-2.184-0.509-0.872-1.457-1.605-2.688-1.605zM12.213 4.701h7.574c0.664 0 0.899 0.214 1.219 0.762s0.56 1.434 0.797 2.381l0.162 0.645h7.291c0.578 0 1.045 0.465 1.045 1.043v17.045c0 0.578-0.467 1.043-1.045 1.043h-26.512c-0.578 0-1.045-0.465-1.045-1.043v-17.045c0-0.578 0.467-1.043 1.045-1.043h7.291l0.162-0.645c0.237-0.947 0.477-1.833 0.797-2.381s0.555-0.762 1.219-0.762zM16 10.17c-4.344 0-7.885 3.541-7.885 7.885s3.541 7.883 7.885 7.883c4.344 0 7.885-3.539 7.885-7.883s-3.541-7.885-7.885-7.885zM25.186 11.541v1.699h4.070v-1.699zM16 11.869c3.426 0 6.184 2.76 6.184 6.186s-2.758 6.184-6.184 6.184c-3.426 0-6.184-2.758-6.184-6.184s2.758-6.186 6.184-6.186z"></path>
</svg>
