<!-- Generated by IcoMoon.io -->
<svg version="1.1" xmlns="http://www.w3.org/2000/svg" width="32" height="32" viewBox="0 0 32 32">
<title>camera-r</title>
<path d="M12.375 2.5c-1.406 0-2.601 0.911-3.164 1.877-0.342 0.586-0.444 1.162-0.611 1.748h-5.287c-1.815 0-3.313 1.495-3.313 3.311v16.314c0 1.815 1.497 3.313 3.313 3.313h25.375c1.815 0 3.313-1.497 3.313-3.313v-16.314c0-1.815-1.497-3.311-3.313-3.311h-5.287c-0.167-0.586-0.27-1.162-0.611-1.748-0.564-0.966-1.758-1.877-3.164-1.877zM12.375 5.498h7.25c0.406 0 0.345-0.005 0.574 0.389s0.463 1.195 0.689 2.102l0.283 1.135h7.516c0.179 0 0.313 0.134 0.313 0.313v16.314c0 0.179-0.134 0.313-0.313 0.313h-25.375c-0.179 0-0.313-0.134-0.313-0.313v-16.314c0-0.179 0.134-0.313 0.313-0.313h7.516l0.283-1.135c0.227-0.906 0.46-1.708 0.689-2.102s0.168-0.389 0.574-0.389zM16 9.623c-4.296 0-7.811 3.514-7.811 7.811s3.514 7.811 7.811 7.811c4.296 0 7.811-3.514 7.811-7.811s-3.514-7.811-7.811-7.811zM24.121 10.672v3h3.896v-3zM16 12.623c2.675 0 4.811 2.136 4.811 4.811s-2.136 4.811-4.811 4.811c-2.675 0-4.811-2.136-4.811-4.811s2.136-4.811 4.811-4.811z"></path>
</svg>
