<!-- Generated by IcoMoon.io -->
<svg version="1.1" xmlns="http://www.w3.org/2000/svg" width="32" height="32" viewBox="0 0 32 32">
<title>cart-l</title>
<path d="M6.756 0c-0.008 0-0.017 0-0.027 0-0.051 0-0.1 0.004-0.148 0.013l0.005-0.001c-0.189 0-3.824-0.001-5.736 0-0.469 0.001-0.85 0.381-0.85 0.851s0.381 0.851 0.851 0.851c0 0 0.001 0 0.001 0v0c1.719 0 4.387 0 5.156 0 1.074 6.78 2.149 13.561 3.223 20.342 0 0.002 0 0.005 0 0.008 0 0.228 0.090 0.436 0.237 0.588v0c0.017 0.019 0.034 0.036 0.052 0.052l0.001 0.001c0.006 0.005 0.013 0.010 0.021 0.016l0.002 0.002c0.007 0.006 0.016 0.013 0.025 0.020l0.002 0.002c0.017 0.014 0.037 0.028 0.057 0.041l0.003 0.002c0.131 0.087 0.292 0.139 0.466 0.139 0.050 0 0.099-0.004 0.147-0.013l-0.005 0.001c5.835-0.001 11.668-0.001 17.502 0 0.008 0 0.018 0 0.028 0 0.469 0 0.85-0.381 0.85-0.85s-0.381-0.85-0.85-0.85c-0.010 0-0.020 0-0.030 0h0.001c-5.64-0.001-11.28-0.001-16.922 0-0.162-1.020-0.323-2.040-0.484-3.061 6.625 0 18.539 0 18.539 0 0.008 0 0.018 0 0.027 0 0.469 0 0.85-0.381 0.85-0.85 0-0.046-0.004-0.091-0.011-0.136l0.001 0.005c0.731-4.271 1.504-8.544 2.187-12.84 0.049-0.104 0.077-0.225 0.077-0.353 0-0.469-0.381-0.85-0.85-0.85-0.010 0-0.019 0-0.029 0.001h0.001c0 0-15.218-0.001-23.174 0-0.119-0.753-0.238-1.505-0.357-2.258 0-0.002 0-0.004 0-0.005 0-0.229-0.091-0.438-0.239-0.59v0c-0.010-0.011-0.020-0.021-0.029-0.031v0c-0.010-0.010-0.020-0.019-0.030-0.029l-0.001-0.001c-0.010-0.008-0.020-0.017-0.031-0.026l-0.002-0.001c0 0-0.003-0.002-0.006-0.004l-0.002-0.002c-0.137-0.108-0.31-0.176-0.499-0.182h-0.001zM8.223 4.828c7.675 0 20.694 0 21.9 0-0.626 3.872-1.316 7.743-1.982 11.625-0.892 0-11.768 0-18.076 0-0.614-3.875-1.228-7.75-1.842-11.625zM11.844 24.322c-2.11 0-3.838 1.73-3.838 3.84s1.728 3.838 3.838 3.838c2.11 0 3.84-1.728 3.84-3.838s-1.73-3.84-3.84-3.84zM25.916 24.322c-2.11 0-3.838 1.73-3.838 3.84s1.728 3.838 3.838 3.838c2.11 0 3.838-1.728 3.838-3.838s-1.728-3.84-3.838-3.84zM11.844 26.024c1.191 0 2.139 0.948 2.139 2.139s-0.948 2.139-2.139 2.139c-1.191 0-2.139-0.948-2.139-2.139s0.948-2.139 2.139-2.139zM25.916 26.024c1.191 0 2.139 0.948 2.139 2.139s-0.948 2.139-2.139 2.139c-1.191 0-2.139-0.948-2.139-2.139s0.948-2.139 2.139-2.139z"></path>
</svg>
