<!-- Generated by IcoMoon.io -->
<svg version="1.1" xmlns="http://www.w3.org/2000/svg" width="32" height="32" viewBox="0 0 32 32">
<title>cash-l</title>
<path d="M22.672 6c-0.491-0.001-0.984 0.019-1.475 0.067-0.983 0.095-1.958 0.296-2.905 0.637-0.875 0.314-1.653 0.716-2.402 1.028-4.17 1.74-9.064 1.548-13.382-0.016-0.393-0.142-0.781-0.299-1.166-0.462-0.124-0.074-0.273-0.118-0.432-0.118-0.148 0-0.287 0.038-0.409 0.104l0.004-0.002c-0.020 0.010-0.034 0.019-0.049 0.028l0.004-0.002c-0.017 0.010-0.029 0.019-0.042 0.027l0.003-0.002c-0.007 0.005-0.011 0.007-0.015 0.010l0.003-0.002c-0.022 0.016-0.041 0.032-0.060 0.048l0.001-0.001c-0.186 0.157-0.303 0.391-0.303 0.652 0 0.045 0.004 0.089 0.010 0.132l-0.001-0.005v4.568c-0.031 0.085-0.049 0.183-0.049 0.286s0.018 0.201 0.051 0.292l-0.002-0.006v6.95c-0.037 0.091-0.058 0.198-0.058 0.309s0.021 0.217 0.060 0.314l-0.002-0.006v2.504c-0.006 0.039-0.010 0.085-0.010 0.131 0 0.175 0.053 0.338 0.143 0.473l-0.002-0.003c0.006 0.010 0.010 0.017 0.014 0.023l-0.002-0.004c0 0 0 0.001 0 0.001s0 0.001 0 0.001v0c0.017 0.025 0.034 0.047 0.052 0.068l-0.001-0.001c0 0 0 0.001 0 0.001s0 0.001 0 0.001v0c0.119 0.143 0.281 0.246 0.466 0.289l0.006 0.001c0.398 0.168 0.799 0.331 1.205 0.478 4.662 1.689 9.973 1.922 14.618-0.016 0.832-0.347 1.585-0.732 2.321-0.997 1.593-0.572 3.362-0.696 5.119-0.543 2.329 0.204 4.616 0.891 6.68 1.99 0.132 0.088 0.294 0.14 0.469 0.14 0.122 0 0.239-0.026 0.344-0.072l-0.005 0.002c0.024-0.010 0.042-0.019 0.060-0.028l-0.005 0.002c0.013-0.006 0.021-0.010 0.028-0.014l-0.005 0.002c0.005-0.003 0.007-0.005 0.009-0.006l-0.003 0.002c0.029-0.016 0.052-0.031 0.075-0.047l-0.003 0.002c0.224-0.156 0.37-0.412 0.37-0.702 0-0.044-0.003-0.087-0.010-0.129l0.001 0.005v-15.227c0.006-0.037 0.009-0.079 0.009-0.122 0-0.153-0.040-0.297-0.111-0.421l0.002 0.004c-0.012-0.022-0.022-0.039-0.033-0.056l0.002 0.003c-0.006-0.010-0.010-0.017-0.014-0.023l0.002 0.004c-0.003-0.005-0.005-0.007-0.007-0.010l0.002 0.002c-0.123-0.18-0.31-0.309-0.527-0.356l-0.006-0.001c-2.227-1.161-4.671-1.899-7.174-2.118-0.483-0.042-0.972-0.065-1.463-0.067zM22.67 7.704c0.438 0.001 0.877 0.022 1.316 0.061 0.835 0.073 1.657 0.231 2.47 0.431-0.397 0.749-0.459 1.66-0.18 2.506 0.37 1.125 1.259 2.014 2.384 2.384 0.481 0.158 0.953 0.27 1.467 0.214 0.053-0.006 0.104-0.023 0.157-0.033v4.623c-0.538-0.083-1.103-0.019-1.624 0.153-1.125 0.37-2.014 1.259-2.384 2.384-0.155 0.471-0.198 0.96-0.143 1.432-0.659-0.142-1.324-0.258-1.998-0.317-1.934-0.169-3.95-0.044-5.844 0.637-0.875 0.314-1.653 0.716-2.402 1.028-3.177 1.325-6.772 1.523-10.214 0.854 0.373-0.738 0.429-1.624 0.157-2.451-0.37-1.125-1.259-2.014-2.384-2.384-0.556-0.183-1.139-0.217-1.687-0.108v-4.741c0.547 0.109 1.131 0.075 1.687-0.108 1.125-0.37 2.014-1.259 2.384-2.384 0.165-0.5 0.203-1.021 0.131-1.52 3.546 0.591 7.236 0.336 10.582-1.060 0.832-0.347 1.585-0.732 2.321-0.997 0.796-0.286 1.637-0.461 2.498-0.545 0.431-0.042 0.867-0.060 1.305-0.059zM28.173 8.711c0.719 0.257 1.429 0.543 2.112 0.885v1.826c-0.147 0.137-0.226 0.171-0.343 0.184-0.13 0.014-0.372-0.015-0.748-0.139-0.59-0.194-1.105-0.709-1.299-1.299s-0.062-1.117 0.268-1.448c0.003-0.003 0.007-0.006 0.010-0.010v0zM1.762 9.252c0.056 0.021 0.11 0.046 0.167 0.067 0.67 0.243 1.356 0.446 2.049 0.627 0.305 0.332 0.422 0.837 0.235 1.407-0.194 0.59-0.707 1.105-1.297 1.299-0.438 0.144-0.841 0.106-1.154-0.057zM16.023 10.578c-2.71 0-4.77 2.542-4.77 5.495s2.060 5.495 4.77 5.495c2.71 0 4.772-2.542 4.772-5.495s-2.062-5.495-4.772-5.495zM16.023 12.282c1.619 0 3.068 1.616 3.068 3.791s-1.449 3.791-3.068 3.791c-1.619 0-3.066-1.616-3.066-3.791s1.447-3.791 3.066-3.791zM29.987 19.523c0.11 0.012 0.206 0.049 0.298 0.102v3.61c-0.687-0.308-1.392-0.572-2.104-0.811-0.006-0.007-0.012-0.014-0.018-0.020v0.001c-0.33-0.33-0.462-0.858-0.268-1.448s0.709-1.103 1.299-1.297c0.342-0.112 0.59-0.16 0.793-0.137zM2.489 20.757c0.138 0.010 0.282 0.038 0.429 0.086 0.59 0.194 1.103 0.709 1.297 1.299s0.062 1.116-0.268 1.446c-0.014 0.014-0.027 0.029-0.040 0.044l-0.001 0.001c-0.47-0.134-0.938-0.277-1.397-0.443-0.252-0.091-0.498-0.196-0.746-0.296v-1.996c0.208-0.108 0.456-0.16 0.727-0.141z"></path>
</svg>
