<!-- Generated by IcoMoon.io -->
<svg version="1.1" xmlns="http://www.w3.org/2000/svg" width="32" height="32" viewBox="0 0 32 32">
<title>cash-s</title>
<path d="M22.371 5.5c-0.491-0.002-0.986 0.020-1.481 0.068-0.99 0.096-1.982 0.301-2.949 0.649-0.894 0.321-1.65 0.713-2.334 0.998-3.806 1.588-8.325 1.421-12.325-0.027-0.338-0.122-0.669-0.257-1-0.397-0.218-0.131-0.482-0.209-0.763-0.209-0.261 0-0.506 0.066-0.719 0.183l0.008-0.004c-0.038 0.020-0.067 0.038-0.096 0.056l0.006-0.004c-0.024 0.015-0.042 0.027-0.060 0.038l0.005-0.003c-0.014 0.010-0.024 0.017-0.033 0.024l0.004-0.003c-0.038 0.027-0.071 0.052-0.102 0.078l0.002-0.002c-0.327 0.277-0.533 0.688-0.533 1.146 0 0.079 0.006 0.157 0.018 0.233l-0.001-0.008v14.372c-0.011 0.069-0.018 0.148-0.018 0.229 0 0.309 0.093 0.596 0.254 0.835l-0.003-0.005c0.010 0.017 0.015 0.026 0.021 0.036l-0.004-0.006c0 0 0 0.001 0 0.001s0 0.001 0 0.001v0c0.212 0.315 0.533 0.542 0.908 0.629l0.010 0.002c0.355 0.148 0.712 0.295 1.074 0.426 4.605 1.668 9.862 1.909 14.503-0.027 0.831-0.347 1.541-0.708 2.192-0.941 1.405-0.505 3.004-0.626 4.616-0.484 2.119 0.186 4.201 0.814 6.083 1.807l0.002 0.002c0.232 0.155 0.517 0.247 0.824 0.247 0.295 0 0.571-0.085 0.803-0.233l-0.006 0.004c0.436-0.268 0.722-0.742 0.722-1.283 0-0.080-0.006-0.159-0.018-0.236l0.001 0.009v-14.363c0.012-0.071 0.019-0.153 0.019-0.237 0-0.269-0.071-0.521-0.195-0.739l0.004 0.007c-0.015-0.026-0.027-0.044-0.039-0.062l0.003 0.006c-0.214-0.364-0.568-0.625-0.986-0.713l-0.010-0.002c-2.167-1.101-4.523-1.817-6.946-2.029-0.481-0.042-0.97-0.067-1.461-0.068zM26.871 8.612l1.36 0.531 1.135 0.447-0.006 2.58-0.088 0.033c-0.321 0.12-0.684 0.099-1.315-0.102-0.021-0.007-0.022 0.003-0.043-0.004-0.702-0.231-1.273-0.802-1.504-1.504s-0.083-1.438 0.398-1.92zM2.752 9.719c0.001 0 0.001 0 0.002 0s0.001 0 0.002 0v0c0.003 0 0.007 0 0.010 0 0.015 0 0.029 0.002 0.042 0.007h-0.001c0.006 0.001 0.011 0.003 0.017 0.004h0.001l2.326 0.633c0.284 0.045 0.548 0.194 0.732 0.414s0.285 0.505 0.279 0.793c-0.007 0.39-0.205 0.749-0.484 1.002s-0.627 0.402-0.979 0.486c-0.627 0.15-1.293 0.075-1.893-0.162-0.010 0.003-0.022 0.004-0.034 0.004-0.020 0-0.040-0.004-0.057-0.012h0.001c-0.012-0.005-0.022-0.012-0.031-0.020v0c-0.004-0.003-0.007-0.005-0.010-0.008v0c-0.006-0.006-0.012-0.013-0.017-0.021v-0.001c-0.002-0.003-0.005-0.007-0.007-0.011v-0.001c-0.006-0.011-0.011-0.023-0.014-0.036v-0.001c-0.002-0.008-0.003-0.017-0.003-0.027 0-0.005 0-0.010 0.001-0.015v0.001-2.871c-0.001-0.005-0.001-0.011-0.001-0.017 0-0.019 0.004-0.038 0.011-0.054v0.001c0.001-0.004 0.001-0.007 0.002-0.011v0.001c0.001-0.001 0.001-0.001 0.002-0.002v0c0.002-0.004 0.004-0.007 0.006-0.010v0.001c0.001-0.001 0.001-0.001 0.002-0.002v0c0.003-0.005 0.005-0.008 0.008-0.012v0c0.002-0.003 0.004-0.006 0.006-0.008v0c0.001-0.001 0.001-0.001 0.002-0.002v0c0.003-0.003 0.005-0.005 0.008-0.008v0c0.001-0.001 0.001-0.001 0.002-0.002v0c0.001 0 0.002-0.001 0.003-0.002h0.001c0.002-0.002 0.005-0.004 0.007-0.006v0c0.002-0.002 0.005-0.004 0.007-0.006v0c0.001 0 0.002-0.001 0.003-0.002h0.001c0.002-0.001 0.004-0.002 0.007-0.004h0.001c0.001 0 0.002-0.001 0.003-0.002h0.001c0.002-0.001 0.006-0.002 0.009-0.004h0.001c0.007-0.003 0.016-0.006 0.025-0.008h0.001zM15.999 11.21c0 0 0 0 0.001 0 2.158 0 3.908 2.072 3.908 4.629 0 0 0 0 0 0.001v0c0 0 0 0 0 0.001 0 2.556-1.75 4.629-3.908 4.629 0 0 0 0-0.001 0v0c0 0 0 0-0.001 0-2.158 0-3.908-2.072-3.908-4.629 0 0 0 0 0-0.001v0c0 0 0 0 0-0.001 0-2.556 1.75-4.629 3.908-4.629 0 0 0 0 0.001 0v0zM27.776 18.548c0.48-0.031 0.966 0.057 1.416 0.234 0.010-0.003 0.022-0.004 0.034-0.004 0.020 0 0.040 0.004 0.057 0.012h-0.001c0.012 0.005 0.022 0.012 0.031 0.020v0c0.004 0.003 0.007 0.005 0.010 0.008v0c0.003 0.003 0.007 0.006 0.010 0.010v0c0.006 0.007 0.011 0.015 0.015 0.023v0.001c0.004 0.007 0.007 0.014 0.010 0.022v0.001c0.001 0.003 0.003 0.008 0.004 0.013v0.001c0.002 0.008 0.003 0.017 0.003 0.027 0 0.005 0 0.010-0.001 0.015v-0.001 2.871c0.001 0.005 0.001 0.011 0.001 0.017 0 0.019-0.004 0.038-0.011 0.054v-0.001c-0.001 0.004-0.001 0.007-0.002 0.011v-0.001c-0.001 0.001-0.001 0.001-0.002 0.002v0c-0.002 0.004-0.004 0.007-0.006 0.010v0c-0.001 0.001-0.001 0.001-0.002 0.002v0c-0.003 0.005-0.005 0.008-0.008 0.012v0c-0.002 0.003-0.004 0.006-0.006 0.008v0c-0.001 0.001-0.001 0.001-0.002 0.002v0c-0.003 0.003-0.005 0.005-0.008 0.008v0c-0.001 0.001-0.001 0.001-0.002 0.002v0c-0.002 0.002-0.005 0.004-0.007 0.006v0c-0.001 0-0.002 0.001-0.003 0.002h-0.001c-0.002 0.002-0.005 0.004-0.007 0.006v0c-0.001 0-0.002 0.001-0.003 0.002h-0.001c-0.002 0.001-0.004 0.002-0.007 0.004h-0.001c-0.001 0-0.002 0.001-0.003 0.002h-0.001c-0.002 0.001-0.006 0.002-0.009 0.004h-0.001c-0.013 0.004-0.028 0.007-0.043 0.007-0.013 0-0.026-0.002-0.038-0.005h-0.001c-0.006-0.001-0.010-0.003-0.015-0.004h-0.001l-2.326-0.633c-0.284-0.045-0.547-0.194-0.732-0.414s-0.285-0.505-0.279-0.793c0.007-0.39 0.205-0.749 0.484-1.002 0.278-0.252 0.627-0.402 0.979-0.486 0.157-0.038 0.317-0.062 0.477-0.072zM3.268 19.404c0.21 0.015 0.458 0.071 0.773 0.172 0.021 0.007 0.022-0.003 0.043 0.004 0.702 0.231 1.273 0.802 1.504 1.504s0.083 1.438-0.398 1.92l-0.063 0.063-1.359-0.531-1.135-0.447 0.006-2.58 0.088-0.033c0.16-0.060 0.331-0.086 0.541-0.070z"></path>
</svg>
