<!-- Generated by IcoMoon.io -->
<svg version="1.1" xmlns="http://www.w3.org/2000/svg" width="32" height="32" viewBox="0 0 32 32">
<title>cash-r</title>
<path d="M22.371 5.5c-0.491-0.002-0.986 0.020-1.481 0.068-0.99 0.096-1.982 0.301-2.949 0.649-0.894 0.321-1.65 0.713-2.334 0.998-3.806 1.588-8.325 1.421-12.325-0.027-0.338-0.122-0.669-0.257-1-0.397-0.218-0.131-0.482-0.209-0.763-0.209-0.261 0-0.506 0.066-0.719 0.183l0.008-0.004c-0.038 0.020-0.067 0.038-0.096 0.056l0.006-0.004c-0.024 0.015-0.042 0.027-0.060 0.038l0.005-0.003c-0.014 0.010-0.024 0.017-0.033 0.024l0.004-0.003c-0.038 0.027-0.071 0.052-0.102 0.078l0.002-0.002c-0.327 0.277-0.533 0.688-0.533 1.146 0 0.079 0.006 0.157 0.018 0.233l-0.001-0.008v14.372c-0.011 0.069-0.018 0.148-0.018 0.229 0 0.309 0.093 0.596 0.254 0.835l-0.003-0.005c0.010 0.017 0.015 0.026 0.021 0.036l-0.004-0.006c0 0 0 0.001 0 0.001s0 0.001 0 0.001v0c0.212 0.315 0.533 0.542 0.908 0.629l0.010 0.002c0.355 0.148 0.712 0.295 1.074 0.426 4.605 1.668 9.862 1.909 14.503-0.027 0.831-0.347 1.541-0.708 2.192-0.941 1.405-0.505 3.004-0.626 4.616-0.484 2.119 0.186 4.201 0.814 6.083 1.807 0 0 0.002 0.002 0.002 0.002 0.232 0.155 0.517 0.247 0.824 0.247 0.295 0 0.571-0.085 0.803-0.233l-0.006 0.004c0.436-0.268 0.722-0.742 0.722-1.283 0-0.080-0.006-0.159-0.018-0.236l0.001 0.009v-14.363c0.012-0.071 0.019-0.153 0.019-0.237 0-0.269-0.071-0.521-0.195-0.739l0.004 0.007c-0.015-0.026-0.027-0.044-0.039-0.062l0.003 0.006c-0.214-0.364-0.568-0.625-0.986-0.713l-0.010-0.002c-2.167-1.101-4.523-1.817-6.946-2.029-0.481-0.042-0.97-0.067-1.461-0.068zM22.367 8.502c0.398 0.001 0.8 0.019 1.203 0.055 0.992 0.087 1.967 0.289 2.92 0.574-0.211 0.434-0.247 0.956-0.080 1.463 0.231 0.702 0.802 1.273 1.504 1.504 0.021 0.007 0.022-0.003 0.043 0.004 0.452 0.144 0.764 0.193 1.024 0.166v6.456c-0.39-0.127-0.798-0.202-1.205-0.176-0.16 0.010-0.32 0.035-0.477 0.072-0.351 0.084-0.701 0.235-0.979 0.486-0.28 0.253-0.477 0.612-0.484 1.002-0.004 0.236 0.077 0.462 0.203 0.66-0.726-0.171-1.46-0.308-2.207-0.373-1.924-0.168-3.956-0.047-5.891 0.648-0.894 0.321-1.65 0.713-2.334 0.998-3.131 1.306-6.743 1.409-10.153 0.604 0.259-0.452 0.315-1.015 0.135-1.563-0.231-0.702-0.802-1.273-1.504-1.504-0.021-0.007-0.022 0.003-0.043-0.004-0.315-0.1-0.564-0.157-0.773-0.172-0.091-0.007-0.172-0.002-0.25 0.006v-6.448c0.543 0.176 1.126 0.229 1.682 0.096 0.351-0.084 0.701-0.235 0.979-0.486 0.28-0.253 0.477-0.612 0.484-1.002 0.004-0.219-0.069-0.427-0.178-0.615 3.589 0.659 7.346 0.461 10.778-0.971 0.831-0.347 1.541-0.708 2.192-0.941 0.703-0.252 1.454-0.409 2.231-0.484 0.388-0.038 0.783-0.055 1.182-0.055zM15.999 11.21c0 0 0 0-0.001 0-2.158 0-3.908 2.072-3.908 4.629 0 0 0 0 0 0.001v0c0 0 0 0 0 0.001 0 2.556 1.75 4.629 3.908 4.629 0 0 0 0 0.001 0v0c0 0 0 0 0.001 0 2.158 0 3.908-2.072 3.908-4.629 0 0 0 0 0-0.001v0c0 0 0 0 0-0.001 0-2.556-1.75-4.629-3.908-4.629 0 0 0 0-0.001 0v0z"></path>
</svg>
