<!-- Generated by IcoMoon.io -->
<svg version="1.1" xmlns="http://www.w3.org/2000/svg" width="40" height="32" viewBox="0 0 40 32">
<title>charity-r</title>
<path d="M25.719 0.006c-0.376-0.015-0.757 0.006-1.138 0.076-0.013 0.002-0.016 0.003-0.020 0.004l0.010-0.002c-0.77 0.147-1.541 0.514-2.146 1.119-1.118 1.119-1.532 2.661-1.384 4.080 0.146 1.422 0.796 2.773 1.837 3.814l5.571 5.57c0.271 0.271 0.646 0.439 1.060 0.439s0.789-0.168 1.060-0.439l5.571-5.57c1.041-1.042 1.692-2.392 1.837-3.814v-0.002c0.147-1.419-0.267-2.96-1.384-4.078-0.605-0.605-1.376-0.973-2.146-1.119 0.008 0.002 0.005 0.001 0.003 0l-0.010-0.002c-0.763-0.141-1.528-0.090-2.263 0.078-0.981 0.222-1.86 0.688-2.667 1.24-0.807-0.551-1.685-1.018-2.665-1.24h-0.002c-0.365-0.083-0.74-0.139-1.123-0.154zM25.596 3.004c0.172 0.007 0.367 0.033 0.58 0.082 0 0 0.001 0 0.001 0s0.001 0 0.001 0v0c0.786 0.178 1.715 0.691 2.302 1.242l-0.012-0.027c0.091 0.087 0.194 0.163 0.305 0.225l0.008 0.004c0.058 0.033 0.126 0.065 0.197 0.092l0.010 0.003c0.035 0.014 0.081 0.030 0.128 0.044l0.011 0.003c0.001 0 0.001 0 0.002 0s0.001 0 0.002 0v0c0.037 0.010 0.085 0.020 0.134 0.028l0.009 0.001c0.001 0 0.001 0 0.002 0s0.001 0 0.002 0v0c0.040 0.007 0.090 0.012 0.14 0.015h0.004c0.029 0.002 0.062 0.003 0.096 0.003 0.020 0 0.041 0 0.061-0.001h-0.003c0.108-0.005 0.209-0.020 0.307-0.045l-0.010 0.002c0.139-0.036 0.261-0.087 0.374-0.152l-0.007 0.004c0.118-0.066 0.22-0.141 0.311-0.227l-0.001 0.001-0.012 0.027c0.587-0.552 1.515-1.064 2.3-1.242 0.010-0.005 0.011-0.005 0.012-0.006l-0.008 0.004c0.415-0.095 0.778-0.102 1.048-0.053 0.257 0.050 0.426 0.138 0.582 0.293 0.44 0.44 0.595 0.964 0.523 1.65-0.001 0.001-0.002 0.002-0.002 0.002v0c-0.069 0.678-0.43 1.455-0.974 2l-4.51 4.51-4.51-4.51c-0.544-0.545-0.905-1.322-0.974-2 0 0-0.001-0.001-0.002-0.002v0c-0.071-0.686 0.083-1.21 0.523-1.65 0.155-0.155 0.325-0.243 0.582-0.293 0.137-0.025 0.29-0.035 0.469-0.027zM28.253 4.041c0.015 0.024 0.028 0.042 0.040 0.059l-0.003-0.005c-0.002-0.002-0.027-0.023-0.027-0.023s-0.009-0.029-0.010-0.031zM30.764 4.043c-0.001 0.002-0.010 0.029-0.010 0.029s-0.022 0.020-0.023 0.021c0.008-0.011 0.019-0.028 0.030-0.045l0.004-0.006zM24.831 16.090c-0.018 0-0.035 0.001-0.052 0.002h0.004c-3.592 0.143-7.189 0.148-10.782 0.020-0.436-0.016-0.925-0.037-1.46 0.004-1.191 0.091-2.338 0.491-3.329 1.148-0.905 0.6-1.543 1.285-2.146 1.748-0.851 0.654-1.847 1.088-2.819 1.16-0.337 0.025-0.735 0.009-1.191-0.004-0.601-0.016-1.203-0.017-1.804 0 0 0 0 0-0.001 0-0.69 0-1.25 0.56-1.25 1.25s0.559 1.25 1.25 1.25c0.025 0 0.050-0.001 0.074-0.002h-0.003c0.555-0.016 1.112-0.015 1.667 0 0.421 0.011 0.902 0.038 1.441-0.002 1.566-0.116 2.991-0.772 4.159-1.67 0.815-0.627 1.418-1.26 2.003-1.648 0.634-0.421 1.387-0.681 2.14-0.738 0.342-0.026 0.736-0.014 1.179 0.002 3.636 0.13 7.279 0.123 10.915-0.020 0.001 0 0.002 0 0.003 0s0.002 0 0.003 0v0c0.371 0 0.646 0.273 0.646 0.645s-0.275 0.646-0.646 0.646h-5.207c-0.003 0-0.006 0-0.009 0-0.089 0-0.175 0.009-0.259 0.027l0.008-0.001c-1.621 0.136-2.921 1.502-2.921 3.156 0 1.633 1.267 2.984 2.858 3.15 0.084 0.020 0.18 0.031 0.278 0.031 0.006 0 0.012 0 0.018 0h-0.001c0.009 0 0.018 0.002 0.027 0.002 0.023 0 0.046-0.001 0.068-0.002h-0.003c2.457 0 4.913 0 6.229-0.008 1.329-0.008 1.636-0.032 1.869-0.076s0.505-0.117 0.793-0.248c0.144-0.065 0.374-0.199 0.631-0.393s0.619-0.487 1.254-1.012c1.266-1.046 3.625-3.028 5.975-5.002 0.007-0.006 0.013-0.011 0.019-0.017l-0.001 0.001c0 0 0.002 0 0.002 0 0.284-0.237 0.67-0.204 0.908 0.080s0.204 0.667-0.076 0.906c-0.007 0.004-0.008 0.005-0.010 0.007l0.004-0.003c-3.42 2.881-6.843 5.766-8.693 7.283-0.925 0.758-1.461 1.176-1.759 1.387s-0.263 0.179-0.355 0.209c-0.092 0.030-0.075 0.039-0.599 0.064s-1.477 0.044-3.198 0.055c-3.442 0.022-9.942 0.021-14.021 0.021s-5.722 0-7.371 0c-0.002 0-0.005 0-0.008 0-0.69 0-1.25 0.56-1.25 1.25s0.559 1.25 1.25 1.25c0.003 0 0.006 0 0.009 0v0c1.648 0 3.292 0 7.371 0s10.575 0.001 14.037-0.021c1.731-0.011 2.693-0.029 3.306-0.059s0.991-0.1 1.244-0.182c0.253-0.082 0.617-0.256 1.027-0.545s0.963-0.725 1.904-1.496c1.881-1.543 5.299-4.422 8.718-7.303 0 0 0.002-0.002 0.002-0.002 0.070-0.058 0.131-0.121 0.185-0.191l0.002-0.003c1.131-1.134 1.244-2.988 0.197-4.236-0.553-0.66-1.33-1.033-2.134-1.104-0.713-0.062-1.441 0.129-2.058 0.557-0.091 0.047-0.169 0.1-0.24 0.162l0.002-0.001c-2.357 1.98-4.727 3.973-5.977 5.006-0.625 0.516-0.977 0.798-1.166 0.939s-0.133 0.102-0.162 0.115c-0.057 0.026-0.13 0.050-0.227 0.068s-0.105 0.025-1.416 0.033c-1.31 0.008-3.795 0.008-6.277 0.008-0.392 0-0.681-0.292-0.681-0.684s0.29-0.682 0.681-0.682h5.207c0 0 0.001 0 0.002 0 0.092 0 0.182-0.010 0.268-0.029l-0.008 0.002c1.6-0.138 2.884-1.487 2.884-3.119 0-1.637-1.291-2.988-2.898-3.119-0.061-0.013-0.133-0.023-0.207-0.025h-0.002c-0.005 0-0.010 0-0.016 0s-0.011 0-0.016 0h0.001c-0.003 0-0.005 0-0.008 0z"></path>
</svg>
