<!-- Generated by IcoMoon.io -->
<svg version="1.1" xmlns="http://www.w3.org/2000/svg" width="32" height="32" viewBox="0 0 32 32">
<title>checkmark-l</title>
<path d="M31.065 5.5c-0.002 0-0.005 0-0.008 0-0.252 0-0.481 0.099-0.651 0.26v0l-19.905 18.438c-0.754-0.636-5.954-5.021-8.936-7.528-0.165-0.146-0.384-0.235-0.623-0.235-0.521 0-0.944 0.422-0.944 0.944 0 0.297 0.138 0.562 0.352 0.735l0.002 0.001c3.192 2.684 9.57 8.063 9.57 8.063l0.637 0.537 21.127-19.571c0.192-0.173 0.312-0.423 0.312-0.701 0-0.518-0.417-0.938-0.934-0.943v0z"></path>
</svg>
