<!-- Generated by IcoMoon.io -->
<svg version="1.1" xmlns="http://www.w3.org/2000/svg" width="28" height="32" viewBox="0 0 28 32">
<title>clipboard-l</title>
<path d="M14 0c-2.039 0-3.714 1.554-3.951 3.531h-7.793c-1.235 0-2.256 1.020-2.256 2.256v23.957c0 1.235 1.020 2.256 2.256 2.256h23.488c1.235 0 2.256-1.020 2.256-2.256v-23.957c0-1.235-1.020-2.256-2.256-2.256h-7.793c-0.237-1.978-1.913-3.531-3.951-3.531zM14 1.701c1.2 0 2.158 0.898 2.275 2.064v0.469c-0.117 1.166-1.076 2.064-2.275 2.064-1.194 0-2.148-0.889-2.273-2.047v-0.504c0.125-1.158 1.080-2.047 2.273-2.047zM2.256 5.23h3.457v4.514c0 0.986 0.819 1.807 1.805 1.807h12.965c0.986 0 1.805-0.821 1.805-1.807v-4.514h3.457c0.323 0 0.557 0.233 0.557 0.557v23.957c0 0.323-0.233 0.557-0.557 0.557h-23.488c-0.323 0-0.557-0.233-0.557-0.557v-23.957c0-0.323 0.233-0.557 0.557-0.557zM7.412 5.23h2.803c0.525 1.598 2.018 2.77 3.785 2.77s3.26-1.171 3.785-2.77h2.803v4.514c0 0.073-0.032 0.105-0.105 0.105h-12.965c-0.073 0-0.105-0.032-0.105-0.105v-4.293zM20.125 16.119l-8.215 7.258c-0.595-0.466-2.74-2.145-4.113-3.217l-1.047 1.34c1.557 1.216 4.67 3.65 4.67 3.65l0.557 0.436 9.273-8.193z"></path>
</svg>
