<!-- Generated by IcoMoon.io -->
<svg version="1.1" xmlns="http://www.w3.org/2000/svg" width="32" height="32" viewBox="0 0 32 32">
<title>clock-l</title>
<path d="M16 0c-8.826 0-16 7.174-16 16s7.174 16 16 16c8.826 0 16-7.174 16-16s-7.174-16-16-16zM16 1.98c7.756 0 14.020 6.264 14.020 14.020s-6.264 14.020-14.020 14.020c-7.756 0-14.020-6.264-14.020-14.020s6.264-14.020 14.020-14.020zM14.916 7.395v0.352c0.001 2.759 0 8.281 0 8.281v0.41l6.717 6.715 1.398-1.4-6.135-6.135c0-0.492 0.001-5.249 0-7.873v-0.35h-1.98z"></path>
</svg>
