<!-- Generated by IcoMoon.io -->
<svg version="1.1" xmlns="http://www.w3.org/2000/svg" width="32" height="32" viewBox="0 0 32 32">
<title>close-r</title>
<path d="M2.406 0.007c-1.325 0-2.399 1.074-2.399 2.399 0 0.675 0.279 1.284 0.727 1.72l11.874 11.874-11.873 11.873c-0.453 0.437-0.735 1.050-0.735 1.728 0 1.325 1.074 2.399 2.399 2.399 0.678 0 1.291-0.281 1.727-0.734l11.874-11.874 11.873 11.873c0.437 0.453 1.050 0.735 1.728 0.735 1.325 0 2.399-1.074 2.399-2.399 0-0.678-0.281-1.291-0.734-1.727l-11.874-11.874 11.873-11.873c0.453-0.437 0.735-1.050 0.735-1.728 0-1.325-1.074-2.399-2.399-2.399-0.678 0-1.291 0.281-1.727 0.734l-11.874 11.874-11.873-11.873c-0.436-0.449-1.046-0.728-1.721-0.728v0z"></path>
</svg>
