<!-- Generated by IcoMoon.io -->
<svg version="1.1" xmlns="http://www.w3.org/2000/svg" width="32" height="32" viewBox="0 0 32 32">
<title>cloud-check-s</title>
<path d="M20.408 7c-2.369 0-4.476 1.11-5.838 2.836-0.764-0.987-1.959-1.625-3.303-1.625-2.307 0-4.176 1.872-4.176 4.18 0 0.201 0.015 0.399 0.043 0.592-0.351-0.063-0.711-0.098-1.080-0.098-3.344 0-6.055 2.711-6.055 6.057s2.711 6.059 6.055 6.059h20.508c3.004-0.006 5.438-2.444 5.438-5.451h-0.002c0-2.565-1.771-4.717-4.156-5.297-0.101-4.022-3.39-7.252-7.434-7.252zM21.379 11.529l2.121 2.121-1.061 1.059-8.289 8.291-5.65-5.65 2.121-2.119 3.527 3.527 7.23-7.229z"></path>
</svg>
