<!-- Generated by IcoMoon.io -->
<svg version="1.1" xmlns="http://www.w3.org/2000/svg" width="32" height="32" viewBox="0 0 32 32">
<title>cloud-download-s</title>
<path d="M20.408 3c-2.369 0-4.476 1.11-5.838 2.836-0.764-0.987-1.959-1.625-3.303-1.625-2.307 0-4.176 1.872-4.176 4.18 0 0.201 0.015 0.399 0.043 0.592-0.351-0.063-0.711-0.098-1.080-0.098-3.344 0-6.055 2.711-6.055 6.057s2.711 6.059 6.055 6.059h1.391c0.094 0.071 0.202 0.133 0.316 0.182l0.010 0.004-0.277-0.113 7.445 7.445c0.271 0.271 0.646 0.439 1.061 0.439s0.789-0.168 1.061-0.439l7.518-7.518h1.984c3.004-0.006 5.438-2.444 5.438-5.451h-0.002c0-2.565-1.771-4.717-4.156-5.297-0.101-4.022-3.39-7.252-7.434-7.252zM14.41 15.264h3.18l-0.020 4.527c0 0.002 0 0.005 0 0.008 0 0.828 0.672 1.5 1.5 1.5h0.967l-4.037 4.037-4.037-4.037h0.967c0.828 0 1.5-0.672 1.5-1.5 0-0.003 0-0.005 0-0.008v0z"></path>
</svg>
