<!-- Generated by IcoMoon.io -->
<svg version="1.1" xmlns="http://www.w3.org/2000/svg" width="32" height="32" viewBox="0 0 32 32">
<title>cloud-upload-l</title>
<path d="M20.176 3.5c-2.196 0-4.094 1.010-5.525 2.463-0.851-0.764-1.904-1.316-3.133-1.316-2.515 0-4.532 1.976-4.729 4.443-0.070-0.002-0.136-0.020-0.207-0.020-3.626 0-6.582 2.959-6.582 6.586s2.956 6.586 6.582 6.586h1.561c0.060 0.015 0.128 0.023 0.198 0.023 0 0 0.001 0 0.001 0h3.734l-0.021 5.182c0 0.001 0 0.002 0 0.003 0 0.469 0.38 0.85 0.85 0.85h6.191c0.469 0 0.85-0.381 0.85-0.85 0-0.001 0-0.002 0-0.004v0l-0.021-5.182h3.734c0.070 0 0.138-0.009 0.203-0.025l-0.006 0.001h2.146c3.303-0.007 5.998-2.704 5.998-6.010v-0.527l-0.102-0.051c-0.234-2.358-1.797-4.286-3.967-5.041-0.409-3.971-3.682-7.113-7.756-7.113zM20.176 5.199c3.377 0 6.103 2.68 6.188 6.037l0.016 0.652 0.633 0.152c1.883 0.458 3.287 2.152 3.287 4.189v0.012c-0.006 2.384-1.917 4.296-4.299 4.301h-2.012l-7.387-7.389c-0.154-0.154-0.366-0.248-0.601-0.248s-0.447 0.095-0.601 0.248v0l-7.389 7.389h-1.43c-2.707 0-4.883-2.177-4.883-4.887s2.176-4.887 4.883-4.887c0.296 0 0.586 0.029 0.873 0.080l1.16 0.209-0.17-1.168c-0.021-0.144-0.031-0.289-0.031-0.438 0-1.727 1.379-3.107 3.104-3.107 1.004 0 1.888 0.474 2.457 1.209l0.664 0.859 0.674-0.854c1.135-1.439 2.885-2.361 4.863-2.361zM16.002 14.957l5.582 5.586h-3.361l-0.004 0.846c0 0.002 0 0.004 0 0.007s0 0.005 0 0.007v0c0 0.002 0 0.005 0 0.008s0 0.006 0 0.008v0l0.023 5.182h-4.484l0.023-5.182c0-0.002 0-0.005 0-0.008s0-0.006 0-0.008v0c0-0.002 0-0.004 0-0.007s0-0.005 0-0.007v0l-0.004-0.846h-3.363z"></path>
</svg>
