<!-- Generated by IcoMoon.io -->
<svg version="1.1" xmlns="http://www.w3.org/2000/svg" width="32" height="32" viewBox="0 0 32 32">
<title>cloud-upload-r</title>
<path d="M19.996 3.5c-2.066 0-3.836 0.916-5.285 2.18-0.869-0.623-1.857-1.082-3-1.082-2.556 0-4.609 1.885-5.086 4.309-3.666 0.2-6.625 3.202-6.625 6.916 0 3.842 3.145 6.99 6.986 6.99h1.209c0.043 0.005 0.094 0.009 0.145 0.010h3.083l-0.020 4.529c0 0.002 0 0.004 0 0.006 0 0.828 0.672 1.5 1.5 1.5h6.191c0.828 0 1.5-0.672 1.5-1.5 0-0.002 0-0.004 0-0.006v0l-0.020-4.529h3.082c0.058 0 0.115-0.004 0.171-0.010l-0.007 0.001h1.752c3.532-0.007 6.426-2.905 6.426-6.439v-0.93l-0.178-0.088c-0.363-2.21-1.808-4.003-3.824-4.848-0.62-3.932-3.905-7.008-8.002-7.008zM19.996 6.5c2.866 0 5.165 2.261 5.236 5.109l0.029 1.148 1.115 0.271c1.5 0.365 2.621 1.708 2.621 3.342v0.012c-0.006 1.911-1.521 3.426-3.43 3.43h-1.299l-7.209-7.211c-0.271-0.272-0.647-0.44-1.061-0.44-0.007 0-0.015 0-0.022 0h0.001c-0.406 0.006-0.773 0.173-1.039 0.439l-7.209 7.211h-0.744c-2.22 0-3.986-1.768-3.986-3.99s1.767-3.99 3.986-3.99c0.24 0 0.475 0.024 0.713 0.066l2.049 0.367-0.299-2.061c-0.015-0.106-0.023-0.213-0.023-0.32 0-1.282 1.005-2.287 2.285-2.287 0.744 0 1.386 0.348 1.807 0.891l1.176 1.518 1.188-1.508c0.962-1.219 2.436-1.998 4.115-1.998zM16 15.783l4.027 4.029h-0.949v0.010h-0.008c-0.828 0-1.5 0.672-1.5 1.5 0 0.002 0 0.004 0 0.006v0l0.020 4.529h-3.18l0.020-4.529c0-0.002 0-0.004 0-0.006 0-0.828-0.672-1.5-1.5-1.5h-0.008v-0.010h-0.949z"></path>
</svg>
