<!-- Generated by IcoMoon.io -->
<svg version="1.1" xmlns="http://www.w3.org/2000/svg" width="31" height="32" viewBox="0 0 31 32">
<title>clubs-r</title>
<path d="M15.248 0c-0.001 0-0.002 0-0.002 0-0.066 0-0.131 0.004-0.195 0.013l0.008-0.001c-3.356 0.427-5.932 2.34-7.092 4.877-0.759 1.659-0.82 3.567-0.27 5.402-4.265 0.212-7.697 3.737-7.697 8.057 0 4.453 3.624 8.135 8.074 8.135 1.154 0 2.138-0.23 2.805-0.322 0.064-0.009 0.007-0.004 0.061-0.010-0.028 0.048-0.019 0.059-0.051 0.109-0.43 0.675-1.238 1.49-1.885 1.875-0.442 0.266-0.732 0.744-0.732 1.289 0 0 0 0 0 0v0 1.076c0 0.828 0.672 1.5 1.5 1.5h10.957c0.828 0 1.5-0.672 1.5-1.5v0-1.076c0 0 0 0 0 0 0-0.545-0.291-1.022-0.726-1.285l-0.007-0.004c-0.647-0.385-1.455-1.2-1.885-1.875-0.032-0.051-0.025-0.061-0.053-0.109 0.056 0.006-0.003 0 0.064 0.010 0.666 0.092 1.648 0.322 2.803 0.322 4.45 0 8.076-3.682 8.076-8.135 0-4.307-3.416-7.82-7.664-8.051 0.223-0.699 0.426-1.413 0.426-2.201 0-4.424-3.585-8.096-8.016-8.096zM15.35 3.022c2.729 0.058 4.914 2.295 4.914 5.074 0 1.16-0.456 2.199-1.205 3.143-0.202 0.253-0.324 0.578-0.324 0.931 0 0.828 0.672 1.5 1.5 1.5 0.181 0 0.355-0.032 0.516-0.091l-0.010 0.003c0.633-0.228 1.175-0.369 1.684-0.369h0.002c2.799 0 5.076 2.301 5.076 5.135s-2.276 5.135-5.076 5.135c-0.722 0-1.525-0.175-2.393-0.295s-2.055-0.245-3.045 0.641c-0.718 0.643-0.796 1.624-0.666 2.281s0.41 1.213 0.76 1.762c0.278 0.436 0.78 0.729 1.145 1.129h-5.953c0.365-0.4 0.867-0.693 1.145-1.129 0.349-0.549 0.63-1.105 0.76-1.762s0.054-1.638-0.664-2.281c-0.99-0.886-2.179-0.761-3.047-0.641s-1.671 0.295-2.393 0.295c-2.799 0-5.074-2.301-5.074-5.135s2.274-5.135 5.074-5.135c0.508 0 1.051 0.141 1.684 0.369 0.151 0.056 0.325 0.088 0.507 0.088 0.828 0 1.5-0.672 1.5-1.5 0-0.347-0.118-0.667-0.316-0.922l0.002 0.003c-1.351-1.738-1.463-3.57-0.756-5.117 0.697-1.524 2.257-2.777 4.654-3.113z"></path>
</svg>
