<!-- Generated by IcoMoon.io -->
<svg version="1.1" xmlns="http://www.w3.org/2000/svg" width="30" height="32" viewBox="0 0 30 32">
<title>clubs-l</title>
<path d="M15.215 0c-0.002 0-0.005 0-0.008 0-0.035 0-0.070 0.002-0.104 0.006h0.004c-3.292 0.419-5.744 2.268-6.848 4.682-0.855 1.871-0.856 4.067 0.063 6.105-0.214-0.025-0.378-0.123-0.604-0.123-4.255 0-7.719 3.515-7.719 7.781s3.464 7.783 7.719 7.783c1.103 0 2.088-0.227 2.832-0.33s1.102-0.046 1.238 0.076c-0.058-0.052-0.018-0.112-0.063 0.113s-0.206 0.609-0.463 1.012c-0.513 0.806-1.401 1.708-2.205 2.188-0.251 0.151-0.416 0.421-0.416 0.73v1.127c0 0.469 0.381 0.85 0.85 0.85 0 0 0.001 0 0.001 0h11.447c0.469 0 0.849-0.381 0.85-0.85v-1.127c0-0.309-0.165-0.58-0.412-0.728l-0.004-0.002c-0.805-0.479-1.692-1.381-2.205-2.188-0.257-0.403-0.416-0.786-0.461-1.012s-0.006-0.165-0.064-0.113c0.136-0.122 0.494-0.179 1.238-0.076s1.729 0.33 2.832 0.33c4.255 0 7.719-3.517 7.719-7.783s-3.465-7.781-7.719-7.781h-0.002c-0.228 0-0.394 0.1-0.609 0.125 0.444-0.932 0.77-1.933 0.77-3.055 0-4.238-3.424-7.74-7.658-7.74zM15.273 1.711c3.27 0.034 5.9 2.724 5.9 6.029 0 1.404-0.559 2.651-1.416 3.73-0.114 0.144-0.184 0.328-0.184 0.528 0 0.47 0.381 0.85 0.85 0.85 0.103 0 0.201-0.018 0.292-0.052l-0.006 0.002c0.691-0.249 1.343-0.428 2.002-0.428h0.002c3.319 0 6.020 2.732 6.020 6.080s-2.7 6.084-6.020 6.084c-0.857 0-1.739-0.196-2.598-0.314s-1.84-0.195-2.607 0.492c-0.51 0.457-0.579 1.161-0.471 1.711s0.362 1.071 0.695 1.594c0.555 0.872 1.422 1.636 2.311 2.281h-9.656c0.888-0.645 1.756-1.41 2.311-2.281 0.333-0.523 0.587-1.044 0.695-1.594s0.040-1.254-0.471-1.711c-0.768-0.688-1.747-0.611-2.605-0.492s-1.742 0.314-2.6 0.314c-3.319 0-6.020-2.736-6.020-6.084s2.7-6.080 6.020-6.080c0.659 0 1.311 0.179 2.002 0.428 0.085 0.031 0.184 0.050 0.286 0.050 0.47 0 0.85-0.381 0.85-0.85 0-0.197-0.067-0.378-0.179-0.522l0.001 0.002c-1.559-2.006-1.72-4.231-0.873-6.084 0.841-1.84 2.715-3.316 5.467-3.684z"></path>
</svg>
