<!-- Generated by IcoMoon.io -->
<svg version="1.1" xmlns="http://www.w3.org/2000/svg" width="32" height="32" viewBox="0 0 32 32">
<title>codepen</title>
<path d="M24.802 16l4.197-2.798v5.596zM16.999 21.203l6-4 5.197 3.465-11.197 7.465zM8.999 17.203l6 4v6.93l-11.197-7.465zM7.196 16l-4.197 2.798v-5.596zM14.999 10.799l-6 4-5.197-3.465 11.197-7.465zM16.999 10.799v-6.93l11.197 7.465-5.197 3.465zM15.999 19.465l-5.197-3.465 5.197-3.465 5.197 3.465zM30.554 10.502l-14-9.333c-0.336-0.224-0.774-0.224-1.109 0l-14 9.333c-0.278 0.185-0.445 0.498-0.445 0.832v9.333c0 0.334 0.167 0.647 0.445 0.832l14 9.333c0.168 0.112 0.361 0.168 0.555 0.168s0.387-0.056 0.555-0.168l14-9.333c0.278-0.185 0.445-0.498 0.445-0.832v-9.333c0-0.334-0.167-0.647-0.445-0.832z"></path>
</svg>
