<!-- Generated by IcoMoon.io -->
<svg version="1.1" xmlns="http://www.w3.org/2000/svg" width="31" height="32" viewBox="0 0 31 32">
<title>cog-l</title>
<path d="M11.605 0l0.008 0.855c0.007 0.843-0.202 1.695-0.654 2.477-1.359 2.354-4.359 3.15-6.736 1.781l-0.736-0.424-3.828 6.635 0.742 0.422c0.731 0.416 1.362 1.021 1.813 1.803 1.356 2.349 0.55 5.34-1.814 6.717l-0.732 0.426 3.828 6.631 0.738-0.43c0.722-0.421 1.555-0.66 2.453-0.66 2.711 0 4.898 2.189 4.912 4.922l0.004 0.846h7.652l-0.002-0.852c-0.002-0.833 0.208-1.674 0.654-2.449v-0.002c1.357-2.348 4.35-3.147 6.725-1.787l0.734 0.42 3.789-6.563-0.633-0.447c-0.815-0.577-1.515-1.246-1.869-1.842-1.356-2.353-0.547-5.346 1.826-6.721l0.734-0.426-3.83-6.633-0.738 0.432c-0.724 0.425-1.563 0.668-2.465 0.668-2.72 0-4.912-2.202-4.912-4.949v-0.85zM13.086 1.699h4.652c0.433 3.243 3.096 5.801 6.441 5.801 0.898 0 1.688-0.342 2.471-0.67l2.328 4.031c-2.586 1.999-3.468 5.577-1.797 8.471l0.004 0.008c0.42 0.71 1.116 1.255 1.791 1.801l-2.322 4.021c-3.021-1.232-6.553-0.204-8.221 2.686v0.002c-0.444 0.771-0.545 1.616-0.654 2.451h-4.656c-0.447-3.228-3.103-5.77-6.438-5.77-0.892 0-1.676 0.338-2.455 0.662l-2.33-4.031c2.577-2 3.451-5.573 1.783-8.463-0.449-0.779-1.138-1.292-1.814-1.807l2.328-4.031c3.023 1.24 6.562 0.214 8.232-2.68 0.451-0.781 0.55-1.637 0.656-2.482zM15.437 9.016c-3.847 0-6.986 3.137-6.986 6.984s3.139 6.986 6.986 6.986c3.847 0 6.984-3.139 6.984-6.986s-3.137-6.984-6.984-6.984zM15.437 10.717c2.929 0 5.283 2.355 5.283 5.283s-2.355 5.285-5.283 5.285c-2.929 0-5.285-2.357-5.285-5.285s2.357-5.283 5.285-5.283z"></path>
</svg>
