<!-- Generated by IcoMoon.io -->
<svg version="1.1" xmlns="http://www.w3.org/2000/svg" width="31" height="32" viewBox="0 0 31 32">
<title>cogs-s</title>
<path d="M19.137 0l-4.107 1.102c0.184 0.676 0.196 1.407 0.002 2.131h0.002c-0.588 2.193-2.852 3.492-5.061 2.904l-1.102 4.107c0.681 0.177 1.326 0.533 1.859 1.066 1.607 1.607 1.598 4.22-0.020 5.838l3.008 3.008c0.495-0.503 1.126-0.885 1.855-1.080 2.193-0.588 4.451 0.723 5.045 2.93l4.107-1.102c-0.186-0.679-0.201-1.412-0.006-2.141 0.587-2.19 2.845-3.49 5.049-2.908l1.102-4.107c-0.678-0.178-1.317-0.534-1.848-1.064-1.602-1.602-1.598-4.204 0.004-5.822l-3.008-3.006c-0.493 0.496-1.118 0.87-1.84 1.064-2.19 0.587-4.445-0.72-5.043-2.92zM19.867 6.621c1.121 0 2.242 0.428 3.098 1.283 1.711 1.711 1.711 4.486 0 6.197s-4.484 1.711-6.195 0c-1.711-1.711-1.711-4.486 0-6.197 0.855-0.855 1.976-1.283 3.098-1.283zM7.482 18.004c-0.113 0.433-0.339 0.842-0.678 1.182-1.022 1.022-2.686 1.017-3.715-0.012l-1.912 1.914c0.32 0.315 0.561 0.715 0.686 1.18 0.374 1.395-0.46 2.831-1.863 3.209l0.701 2.615c0.432-0.119 0.898-0.128 1.361-0.004 1.393 0.373 2.22 1.809 1.85 3.211l2.613 0.701c0.113-0.431 0.34-0.838 0.678-1.176 1.019-1.019 2.674-1.017 3.703 0.002l1.914-1.912c-0.315-0.314-0.554-0.713-0.678-1.172-0.373-1.393 0.458-2.826 1.857-3.207l-0.701-2.613c-0.43 0.117-0.895 0.125-1.355 0.002-1.395-0.374-2.222-1.814-1.848-3.219zM7 22.213c0.713 0 1.426 0.272 1.971 0.816 1.088 1.088 1.088 2.853 0 3.941s-2.853 1.088-3.941 0c-1.088-1.088-1.088-2.853 0-3.941 0.544-0.544 1.257-0.816 1.971-0.816z"></path>
</svg>
