<!-- Generated by IcoMoon.io -->
<svg version="1.1" xmlns="http://www.w3.org/2000/svg" width="32" height="32" viewBox="0 0 32 32">
<title>compass-l</title>
<path d="M16 0c-2.031 0-3.692 1.661-3.692 3.692 0 0.996 0.403 1.9 1.050 2.566-5.978 1.226-10.486 6.524-10.486 12.861 0 7.242 5.886 13.128 13.128 13.128s13.128-5.886 13.128-13.128c0-6.337-4.507-11.635-10.486-12.861 0.647-0.666 1.050-1.57 1.050-2.566 0-2.031-1.661-3.692-3.692-3.692zM16 1.396c1.277 0 2.298 1.019 2.298 2.296s-1.021 2.298-2.298 2.298c-1.277 0-2.298-1.021-2.298-2.298s1.021-2.296 2.298-2.296zM16 7.386c6.488 0 11.732 5.244 11.732 11.732s-5.244 11.732-11.732 11.732c-6.488 0-11.732-5.244-11.732-11.732s5.244-11.732 11.732-11.732zM16 9.272c-0.338 0-1.293 8.075-1.532 8.314s-8.314 1.194-8.314 1.532c0 0.338 8.075 1.293 8.314 1.532s1.194 8.314 1.532 8.314c0.338 0 1.293-8.075 1.532-8.314s8.314-1.194 8.314-1.532c0-0.338-8.075-1.293-8.314-1.532s-1.194-8.314-1.532-8.314zM8.022 11.141l2.146 3.143 3.143 2.146-2.146-3.143zM23.978 11.141l-3.143 2.146-2.146 3.143 3.143-2.146zM16 17.683c0.793 0 1.436 0.643 1.436 1.436v0c0 0.793-0.643 1.436-1.436 1.436v0c-0.793 0-1.436-0.643-1.436-1.436v0c0-0.793 0.643-1.436 1.436-1.436v0zM13.311 21.808l-3.143 2.146-2.146 3.143 3.143-2.146zM18.689 21.808l2.146 3.143 3.143 2.146-2.146-3.143z"></path>
</svg>
