<!-- Generated by IcoMoon.io -->
<svg version="1.1" xmlns="http://www.w3.org/2000/svg" width="32" height="32" viewBox="0 0 32 32">
<title>compass-s</title>
<path d="M16 0c-2.030 0-3.692 1.663-3.692 3.692 0 0.901 0.34 1.719 0.881 2.362-5.891 1.292-10.317 6.544-10.317 12.817 0 7.238 5.89 13.128 13.128 13.128s13.128-5.89 13.128-13.128c0-6.273-4.426-11.526-10.317-12.817 0.542-0.643 0.881-1.461 0.881-2.362 0-2.030-1.663-3.692-3.692-3.692zM16 1.641c1.143 0 2.051 0.908 2.051 2.051s-0.908 2.051-2.051 2.051c-1.143 0-2.051-0.908-2.051-2.051s0.908-2.051 2.051-2.051zM16 9.026l2.088 7.758 7.758 2.088-7.758 2.088-2.088 7.758-2.088-7.758-7.758-2.088 7.758-2.088zM7.439 10.311l3.614 2.021 2.021 3.614-3.614-2.021zM24.561 10.311l-2.021 3.614-3.614 2.021 2.021-3.614zM16 16.82c-1.133 0-2.051 0.918-2.051 2.051v0c0 1.133 0.918 2.051 2.051 2.051v0c1.133 0 2.051-0.918 2.051-2.051v0c0-1.133-0.918-2.051-2.051-2.051v0zM13.074 21.798l-2.021 3.614-3.614 2.021 2.021-3.614zM18.926 21.798l3.614 2.021 2.021 3.614-3.614-2.021z"></path>
</svg>
