<!-- Generated by IcoMoon.io -->
<svg version="1.1" xmlns="http://www.w3.org/2000/svg" width="32" height="32" viewBox="0 0 32 32">
<title>connection-r</title>
<path d="M16.001 17.43c2.673 0 5.098 1.088 6.854 2.844l-2.285 2.285c-1.171-1.171-2.787-1.896-4.569-1.896s-3.399 0.725-4.569 1.896l-2.285-2.285c1.756-1.756 4.18-2.844 6.854-2.844zM4.572 15.699c3.052-3.052 7.111-4.734 11.428-4.734s8.376 1.681 11.428 4.734l-2.285 2.285c-2.442-2.442-5.689-3.787-9.143-3.787s-6.701 1.345-9.143 3.787zM24.809 6.279c2.694 1.139 5.115 2.771 7.191 4.849v0l-2.285 2.285c-3.663-3.663-8.534-5.68-13.715-5.68s-10.051 2.017-13.715 5.68l-2.285-2.285c2.078-2.078 4.497-3.708 7.191-4.849 2.79-1.181 5.754-1.779 8.808-1.779s6.017 0.599 8.808 1.779zM14.385 25.511c0-0.893 0.723-1.616 1.616-1.616s1.616 0.723 1.616 1.616c0 0.893-0.723 1.616-1.616 1.616s-1.616-0.723-1.616-1.616z"></path>
</svg>
