<!-- Generated by IcoMoon.io -->
<svg version="1.1" xmlns="http://www.w3.org/2000/svg" width="32" height="32" viewBox="0 0 32 32">
<title>copy-l</title>
<path d="M13.818 0c-0.032 0-0.063 0.003-0.094 0.008l0.003-0.001h-8.928c-1.706 0-3.097 1.392-3.097 3.098v15.584c0 1.706 1.391 3.097 3.097 3.097h7.116v7.116c0 1.706 1.391 3.097 3.097 3.097h12.262c1.706 0 3.097-1.391 3.097-3.097v-12.935c0-0.107-0.029-0.207-0.080-0.293l0.001 0.003c-0.059-0.102-0.12-0.315-0.29-0.581-0.571-0.893-1.238-1.725-1.988-2.475s-1.582-1.416-2.475-1.987c-0.292-0.187-0.538-0.261-0.676-0.339-0.082-0.048-0.181-0.076-0.286-0.076 0 0-0.001 0-0.001 0h-0.451c-0.029-0.005-0.062-0.008-0.096-0.008v0c-0.032 0-0.063 0.003-0.094 0.008l0.003-0.001h-3.782v-4.465c0-0.107-0.029-0.207-0.080-0.293l0.001 0.003c-0.059-0.102-0.12-0.315-0.29-0.581-0.571-0.893-1.238-1.725-1.988-2.475s-1.582-1.416-2.475-1.987c-0.292-0.187-0.538-0.261-0.676-0.339-0.082-0.048-0.181-0.076-0.286-0.076 0 0-0.001 0-0.001 0h-0.451c-0.029-0.005-0.062-0.008-0.096-0.008v0zM4.799 1.166h8.441c-0.016 2.29 0.001 5.028 0.001 5.028 0.002 0.318 0.26 0.574 0.578 0.574h5.181v3.452h-3.989c-1.706 0-3.097 1.392-3.097 3.098v7.311h-7.116c-1.085 0-1.94-0.855-1.94-1.94v-15.584c0-1.085 0.855-1.94 1.94-1.94zM14.399 1.247c0.116 0.054 0.248 0.114 0.305 0.15 0.823 0.526 1.591 1.141 2.281 1.831s1.304 1.456 1.83 2.279c0.011 0.016 0.035 0.074 0.051 0.104h-4.465c-0.003-0.485-0.011-2.503 0-4.364zM15.012 11.379h8.441c-0.016 2.29 0.001 5.028 0.001 5.028 0.002 0.318 0.26 0.574 0.578 0.574h5.181v11.922c0 1.085-0.855 1.94-1.94 1.94h-12.262c-1.085 0-1.94-0.855-1.94-1.94v-15.584c0-1.085 0.855-1.94 1.94-1.94zM24.612 11.46c0.116 0.054 0.248 0.114 0.305 0.15 0.823 0.526 1.591 1.141 2.281 1.831s1.304 1.456 1.83 2.279c0.011 0.016 0.035 0.074 0.051 0.104h-4.465c-0.003-0.485-0.011-2.503 0-4.364z"></path>
</svg>
