<!-- Generated by IcoMoon.io -->
<svg version="1.1" xmlns="http://www.w3.org/2000/svg" width="32" height="32" viewBox="0 0 32 32">
<title>credit-card-s</title>
<path d="M3 4c-1.65 0-3 1.35-3 3v3.537h32v-3.537c0-1.65-1.35-3-3-3zM0 15.154v9.846c0 1.65 1.35 3 3 3h26c1.65 0 3-1.35 3-3v-9.846zM5.908 19.689c0.001 1.506 0 4.518 0 4.518l-2.371-0.002c0 0 0.001-3.011 0-4.514zM10.033 19.689c0.001 1.506 0 4.518 0 4.518l-2.371-0.002c0 0 0.001-3.011 0-4.514zM14.158 19.689c0.001 1.506 0 4.518 0 4.518l-2.371-0.002c0 0 0.001-3.011 0-4.514z"></path>
</svg>
