<!-- Generated by IcoMoon.io -->
<svg version="1.1" xmlns="http://www.w3.org/2000/svg" width="32" height="32" viewBox="0 0 32 32">
<title>database-l</title>
<path d="M16.123 0c-3.991-0.011-7.668 0.472-10.509 1.309-1.421 0.418-2.633 0.924-3.588 1.529-0.816 0.518-1.408 1.146-1.766 1.889-0.12 0.117-0.205 0.268-0.239 0.438l-0.001 0.005c-0.003 0.012-0.006 0.030-0.009 0.048l-0.001 0.005c-0.007 0.040-0.010 0.086-0.010 0.133 0 0.023 0.001 0.047 0.003 0.070v-0.003 5.184c-0.002 0.019-0.002 0.041-0.002 0.063s0.001 0.044 0.003 0.066v-0.003 8.088c-0.002 0.019-0.002 0.042-0.002 0.064s0.001 0.045 0.003 0.067v-0.003 7.531c0.001 0.024 0.002 0.047 0.004 0.070v-0.004c-0.004 0.030-0.006 0.064-0.006 0.099 0 0.095 0.016 0.187 0.045 0.273l-0.002-0.006c0.296 0.928 1.028 1.645 1.982 2.25s2.167 1.111 3.588 1.529c2.841 0.837 6.518 1.32 10.509 1.309s7.642-0.517 10.443-1.371c1.4-0.427 2.589-0.938 3.517-1.553 0.789-0.523 1.355-1.162 1.68-1.91 0.117-0.123 0.198-0.282 0.224-0.458l0.001-0.005c0.002-0.010 0.004-0.026 0.006-0.041v-0.004c0.001-0.006 0.002-0.017 0.004-0.027v-0.004c0.002-0.020 0.003-0.044 0.003-0.067s-0.001-0.047-0.003-0.070v0.003-7.621c0.002-0.021 0.003-0.046 0.003-0.070s-0.001-0.049-0.003-0.073v0.003-8.074c0.002-0.021 0.003-0.046 0.003-0.070s-0.001-0.049-0.003-0.073v0.003-4.99c0.002-0.022 0.003-0.047 0.003-0.073 0-0.033-0.002-0.065-0.006-0.097v0.004c0-0.002 0-0.004 0-0.006s0-0.004 0-0.006v0c-0.018-0.201-0.103-0.379-0.233-0.514v0c-0.325-0.749-0.89-1.388-1.68-1.91-0.929-0.615-2.117-1.126-3.517-1.553-2.801-0.854-6.452-1.36-10.443-1.371zM16.117 1.699c3.849 0.011 7.37 0.509 9.953 1.297 1.291 0.394 2.346 0.864 3.074 1.346 0.711 0.471 1.052 0.932 1.154 1.277v4.785c-0.102 0.345-0.443 0.806-1.154 1.277-0.728 0.482-1.783 0.952-3.074 1.346-2.582 0.787-6.104 1.286-9.953 1.297s-7.395-0.466-10.023-1.24c-1.314-0.387-2.398-0.85-3.158-1.332-0.737-0.467-1.107-0.937-1.234-1.291v-4.898c0.128-0.355 0.498-0.822 1.234-1.289 0.76-0.482 1.844-0.947 3.158-1.334 2.628-0.774 6.174-1.251 10.023-1.24zM30.298 12.916v5.703c-0.102 0.345-0.443 0.806-1.154 1.277-0.728 0.482-1.783 0.952-3.074 1.346-2.582 0.788-6.104 1.286-9.953 1.297s-7.395-0.466-10.023-1.24c-1.314-0.387-2.398-0.85-3.158-1.332-0.737-0.467-1.107-0.936-1.234-1.291v-5.752c0.117 0.083 0.199 0.184 0.324 0.264 0.955 0.605 2.167 1.109 3.588 1.527 2.841 0.837 6.518 1.32 10.509 1.309s7.642-0.517 10.443-1.371c1.4-0.427 2.589-0.938 3.517-1.553 0.083-0.055 0.135-0.126 0.215-0.184zM30.298 21.131v5.25c-0.102 0.345-0.443 0.806-1.154 1.277-0.728 0.482-1.783 0.952-3.074 1.346-2.582 0.788-6.104 1.286-9.953 1.297s-7.395-0.466-10.023-1.24c-1.314-0.387-2.398-0.852-3.158-1.334-0.737-0.467-1.107-0.935-1.234-1.289v-5.299c0.117 0.083 0.199 0.184 0.324 0.264 0.955 0.605 2.167 1.109 3.588 1.527 2.841 0.837 6.518 1.32 10.509 1.309s7.642-0.515 10.443-1.369c1.4-0.427 2.589-0.94 3.517-1.555 0.083-0.055 0.135-0.126 0.215-0.184z"></path>
</svg>
