<!-- Generated by IcoMoon.io -->
<svg version="1.1" xmlns="http://www.w3.org/2000/svg" width="32" height="32" viewBox="0 0 32 32">
<title>database-r</title>
<path d="M16.119 0c-3.882-0.011-7.461 0.457-10.267 1.283-1.403 0.413-2.62 0.914-3.607 1.541-0.829 0.526-1.445 1.203-1.852 1.994-0.17 0.193-0.311 0.412-0.361 0.666-0.005 0.026-0.010 0.052-0.014 0.078-0.018 0.113-0.023 0.226-0.014 0.34l-0.002-0.051v4.975l0.002-0.049c-0.005 0.073-0.005 0.146 0 0.219l-0.002-0.049v7.76l0.002-0.051c-0.006 0.074-0.006 0.149 0 0.223l-0.002-0.049v7.225c0 0.002 0 0.004 0 0.007s0 0.005 0 0.007v0c0.001 0.038 0.002 0.075 0.006 0.113l0.002-0.139c-0.025 0.21-0.001 0.424 0.064 0.625 0.349 1.093 1.186 1.886 2.17 2.51 0.988 0.627 2.205 1.128 3.607 1.541 2.806 0.826 6.385 1.292 10.267 1.281s7.438-0.499 10.207-1.344c1.384-0.422 2.577-0.929 3.543-1.568 0.807-0.535 1.402-1.229 1.775-2.031 0.164-0.203 0.296-0.432 0.334-0.691 0 0 0.002-0.002 0.002-0.002 0.004-0.023 0.005-0.047 0.008-0.070 0.001-0.010 0.003-0.020 0.004-0.029 0-0.002 0.001-0.007 0.002-0.013v-0.003c0.006-0.077 0.006-0.155 0-0.232l0.002 0.051v-7.31l-0.002 0.053c0.007-0.081 0.007-0.162 0-0.242l0.002 0.055v-7.748l-0.002 0.055c0.007-0.081 0.007-0.162 0-0.242l0.002 0.053v-4.787l-0.002 0.057c0.008-0.095 0.007-0.192-0.004-0.287-0.027-0.296-0.169-0.561-0.358-0.789-0.374-0.796-0.961-1.486-1.764-2.018-0.966-0.64-2.159-1.148-3.543-1.57-2.769-0.844-6.325-1.333-10.207-1.344zM31.99 5.721l0.004 0.057c0-0.001 0-0.001 0-0.002 0-0.018-0.001-0.036-0.002-0.053v0.002c0-0.002-0.002-0.002-0.002-0.004zM16.11 2.932c0 0 0.002 0 0.002 0 3.637 0.011 6.967 0.485 9.359 1.215 1.195 0.364 2.16 0.801 2.779 1.211 0.58 0.384 0.775 0.724 0.816 0.842v4.275c-0.042 0.118-0.237 0.458-0.816 0.842-0.62 0.41-1.584 0.846-2.779 1.211-2.393 0.73-5.724 1.204-9.361 1.215s-6.991-0.444-9.43-1.162c-1.219-0.359-2.213-0.79-2.865-1.203-0.597-0.379-0.82-0.722-0.883-0.871v-4.338c0.063-0.148 0.285-0.49 0.883-0.869 0.653-0.414 1.647-0.846 2.865-1.205 2.439-0.718 5.792-1.173 9.43-1.162zM29.067 14.115v4.24c-0.042 0.118-0.237 0.458-0.816 0.842-0.62 0.41-1.584 0.846-2.779 1.211-2.393 0.73-5.724 1.206-9.361 1.217s-6.991-0.446-9.43-1.164c-1.219-0.359-2.213-0.79-2.865-1.203-0.597-0.379-0.82-0.722-0.883-0.871v-4.242c0.869 0.47 1.785 0.912 2.92 1.246 2.806 0.826 6.385 1.294 10.267 1.283s7.438-0.499 10.207-1.344c1.070-0.326 1.915-0.764 2.74-1.215zM29.067 21.996v3.807c-0.042 0.118-0.237 0.456-0.816 0.84-0.62 0.41-1.584 0.848-2.779 1.213-2.393 0.73-5.724 1.204-9.361 1.215s-6.991-0.446-9.43-1.164c-1.218-0.359-2.213-0.791-2.865-1.205-0.598-0.379-0.82-0.719-0.883-0.867v-3.809c0.869 0.47 1.785 0.912 2.92 1.246 2.806 0.826 6.385 1.294 10.267 1.283s7.438-0.497 10.207-1.342c1.071-0.326 1.915-0.766 2.74-1.217z"></path>
</svg>
