<!-- Generated by IcoMoon.io -->
<svg version="1.1" xmlns="http://www.w3.org/2000/svg" width="32" height="32" viewBox="0 0 32 32">
<title>dice-six-s</title>
<path d="M5.318 0c-2.921 0-5.318 2.397-5.318 5.318v21.363c0 2.921 2.397 5.318 5.318 5.318h21.363c2.921 0 5.318-2.397 5.318-5.318v-21.363c0-2.921-2.397-5.318-5.318-5.318h-21.363zM8.217 3.959c1.839 0 3.342 1.501 3.342 3.34s-1.503 3.344-3.342 3.344-3.344-1.505-3.344-3.344c0-1.839 1.505-3.34 3.344-3.34zM23.783 3.959c1.839 0 3.344 1.501 3.344 3.34s-1.505 3.344-3.344 3.344-3.342-1.505-3.342-3.344c0-1.839 1.503-3.34 3.342-3.34zM8.217 12.658c1.839 0 3.342 1.501 3.342 3.34s-1.503 3.344-3.342 3.344c-1.839 0-3.344-1.505-3.344-3.344s1.505-3.34 3.344-3.34zM23.783 12.658c1.839 0 3.344 1.501 3.344 3.34s-1.505 3.344-3.344 3.344c-1.839 0-3.342-1.505-3.342-3.344s1.503-3.34 3.342-3.34zM8.217 21.357c1.839 0 3.342 1.503 3.342 3.342s-1.503 3.342-3.342 3.342-3.344-1.503-3.344-3.342c0-1.839 1.505-3.342 3.344-3.342zM23.783 21.357c1.839 0 3.344 1.503 3.344 3.342s-1.505 3.342-3.344 3.342-3.342-1.503-3.342-3.342c0-1.839 1.503-3.342 3.342-3.342z"></path>
</svg>
