<!-- Generated by IcoMoon.io -->
<svg version="1.1" xmlns="http://www.w3.org/2000/svg" width="32" height="32" viewBox="0 0 32 32">
<title>dice-one-r</title>
<path d="M5.318 0c-2.921 0-5.318 2.397-5.318 5.318v21.363c0 2.921 2.397 5.318 5.318 5.318h21.363c2.921 0 5.318-2.397 5.318-5.318v-21.363c0-2.921-2.397-5.318-5.318-5.318h-21.363zM5.318 3h21.363c1.311 0 2.318 1.008 2.318 2.318v21.363c0 1.311-1.008 2.318-2.318 2.318h-21.363c-1.311 0-2.318-1.008-2.318-2.318v-21.363c0-1.311 1.008-2.318 2.318-2.318zM16 12.35c-2.008 0-3.65 1.642-3.65 3.65s1.642 3.65 3.65 3.65c2.008 0 3.65-1.642 3.65-3.65s-1.642-3.65-3.65-3.65z"></path>
</svg>
