<!-- Generated by IcoMoon.io -->
<svg version="1.1" xmlns="http://www.w3.org/2000/svg" width="32" height="32" viewBox="0 0 32 32">
<title>dice-six-l</title>
<path d="M4.84 0c-2.667 0-4.84 2.173-4.84 4.84v22.32c0 2.667 2.173 4.84 4.84 4.84h22.32c2.667 0 4.84-2.173 4.84-4.84v-22.32c0-2.667-2.173-4.84-4.84-4.84h-22.32zM4.84 1.701h22.32c1.754 0 3.139 1.384 3.139 3.139v22.32c0 1.754-1.384 3.139-3.139 3.139h-22.32c-1.754 0-3.139-1.384-3.139-3.139v-22.32c0-1.754 1.384-3.139 3.139-3.139zM8.623 4.934c0 0-0.001 0-0.001 0-1.528 0-2.766 1.239-2.766 2.766 0 0 0 0.001 0 0.001v0c0 1.528 1.239 2.766 2.766 2.766 0 0 0.001 0 0.001 0v0c1.527 0 2.765-1.238 2.766-2.766v0c0 0 0-0.001 0-0.001 0-1.528-1.238-2.766-2.766-2.766v0zM23.377 4.934c-1.528 0-2.766 1.239-2.766 2.766 0 0 0 0.001 0 0.001v0c0 1.527 1.238 2.765 2.766 2.766v0c0 0 0.001 0 0.001 0 1.528 0 2.766-1.238 2.766-2.766v0c0 0 0-0.001 0-0.001 0-1.528-1.239-2.766-2.766-2.766 0 0-0.001 0-0.001 0v0zM8.623 13.234c0 0-0.001 0-0.001 0-1.528 0-2.766 1.238-2.766 2.766v0c0 1.528 1.239 2.766 2.766 2.766 0 0 0.001 0 0.001 0v0c1.527 0 2.765-1.238 2.766-2.766v0c0-1.527-1.238-2.765-2.766-2.766v0zM23.377 13.234c-1.527 0-2.765 1.238-2.766 2.766v0c0 1.527 1.238 2.765 2.766 2.766v0c0 0 0.001 0 0.001 0 1.528 0 2.766-1.238 2.766-2.766v0c0-1.528-1.239-2.766-2.766-2.766 0 0-0.001 0-0.001 0v0zM8.623 21.533c0 0-0.001 0-0.001 0-1.528 0-2.766 1.238-2.766 2.766v0c0 0 0 0.001 0 0.001 0 1.528 1.239 2.766 2.766 2.766 0 0 0.001 0 0.001 0v0c1.528 0 2.766-1.239 2.766-2.766 0 0 0-0.001 0-0.001v0c0-1.527-1.238-2.765-2.766-2.766v0zM23.377 21.533c-1.527 0-2.765 1.238-2.766 2.766v0c0 0 0 0.001 0 0.001 0 1.528 1.238 2.766 2.766 2.766v0c0 0 0.001 0 0.001 0 1.528 0 2.766-1.239 2.766-2.766 0 0 0-0.001 0-0.001v0c0-1.528-1.239-2.766-2.766-2.766 0 0-0.001 0-0.001 0v0z"></path>
</svg>
