<!-- Generated by IcoMoon.io -->
<svg version="1.1" xmlns="http://www.w3.org/2000/svg" width="32" height="32" viewBox="0 0 32 32">
<title>dices-four-l</title>
<path d="M3.973 0c-2.188 0-3.973 1.783-3.973 3.971v18.314c0 2.189 1.785 3.971 3.973 3.971h1.771v1.772c0 2.188 1.783 3.971 3.971 3.971h18.314c2.188 0 3.971-1.783 3.971-3.971v-18.314c0-2.188-1.783-3.971-3.971-3.971h-1.772v-1.772c0-2.188-1.783-3.971-3.971-3.971zM3.973 1.394h18.313c1.44 0 2.577 1.137 2.577 2.577v1.772h-15.147c-0.274 0-0.541 0.027-0.8 0.080s-0.509 0.13-0.747 0.231c-0.476 0.201-0.904 0.491-1.263 0.849s-0.65 0.787-0.851 1.264c-0.1 0.238-0.178 0.488-0.231 0.747s-0.080 0.526-0.080 0.8v15.147h-1.771c-1.44 0-2.579-1.138-2.579-2.577v-18.314c0-1.439 1.139-2.577 2.579-2.577zM9.715 7.138h18.314c1.44 0 2.577 1.137 2.577 2.577v18.314c0 1.44-1.137 2.577-2.577 2.577h-18.314c-1.44 0-2.577-1.137-2.577-2.577v-18.314c0-0.36 0.072-0.697 0.202-1.005 0.129-0.307 0.32-0.586 0.553-0.819s0.51-0.422 0.817-0.551c0.307-0.13 0.645-0.202 1.005-0.202zM12.308 9.846c-1.359 0-2.462 1.102-2.462 2.462v0c0 1.359 1.102 2.462 2.462 2.462v0c1.359 0 2.462-1.102 2.462-2.462v0c0-1.359-1.102-2.462-2.462-2.462v0zM25.436 9.846c-1.359 0-2.462 1.102-2.462 2.462v0c0 1.359 1.102 2.462 2.462 2.462v0c1.359 0 2.462-1.102 2.462-2.462v0c0-1.359-1.102-2.462-2.462-2.462v0zM12.308 22.974c-1.359 0-2.462 1.102-2.462 2.462v0c0 1.359 1.102 2.462 2.462 2.462v0c1.359 0 2.462-1.102 2.462-2.462v0c0-1.359-1.102-2.462-2.462-2.462v0zM25.436 22.974c-1.359 0-2.462 1.102-2.462 2.462v0c0 1.359 1.102 2.462 2.462 2.462v0c1.359 0 2.462-1.102 2.462-2.462v0c0-1.359-1.102-2.462-2.462-2.462v0z"></path>
</svg>
