<!-- Generated by IcoMoon.io -->
<svg version="1.1" xmlns="http://www.w3.org/2000/svg" width="32" height="32" viewBox="0 0 32 32">
<title>earth-r</title>
<path d="M16 0c-8.819 0-16 7.181-16 16s7.181 16 16 16c8.819 0 16-7.181 16-16s-7.181-16-16-16zM16 3c0.469 0 0.931 0.026 1.387 0.074-0.204 0.185-0.415 0.376-0.563 0.512l-0.551 0.508 0.096 0.719c0.19 1.411 0.169 1.351 0.459 1.281 0.143-0.034 0.475-0.141 0.738-0.238l0.48-0.176-0.031-0.457c-0.037-0.539 0.099-1.448 0.266-2.012 0.571 0.101 1.132 0.228 1.674 0.4-0.007 0.085-0.005 0.161-0.020 0.258-0.083 0.544-0.073 0.635 0.1 0.879 0.295 0.415 0.316 0.995 0.053 1.445-0.438 0.749-1.902 1.503-3.275 1.688l-0.684 0.092-0.988 1.031c-0.585 0.612-1.158 1.325-1.406 1.748l-0.42 0.713 0.471 0.545c1.078 1.244 1.75 1.588 3.318 1.693l0.785 0.053-0.055-0.402c-0.086-0.638 0.262-1.063 0.871-1.063 0.315 0 0.991 0.477 1.658 1.172l0.578 0.604 0.459-0.576c0.896-1.124 1.224-1.667 1.863-3.074 0.399-0.88 0.736-1.489 0.879-1.594 0.179-0.13 1.48-0.347 2.398-0.426 0.365 0.506 0.696 1.036 0.986 1.594-0.221 0.092-0.567 0.158-1.199 0.236-0.583 0.072-1.068 0.145-1.080 0.162-0.097 0.142-0.73 1.631-0.73 1.717 0 0.072 0.058 0.081 0.168 0.027 0.092-0.045 0.478-0.082 0.855-0.082 0.609 0 0.734 0.032 1.096 0.287 0.897 0.632 1.108 1.788 0.563 3.066-0.157 0.368-0.283 0.674-0.283 0.682s0.176 0.044 0.393 0.078c0.785 0.125 1.359 0.567 1.619 1.211-0.22 2.11-0.947 4.062-2.049 5.746-0.833-0.1-1.044-0.313-1.32-1.203l-0.225-0.725-0.389 0.059c-0.214 0.032-0.668 0.143-1.008 0.246-1.098 0.334-1.188 0.297-2.322-0.949-0.462-0.508-1.26-1.368-1.773-1.91l-0.934-0.984-3.271-0.32-2.264 1.555c-1.246 0.855-2.287 1.629-2.313 1.721s-0.074 0.849-0.109 1.684l-0.064 1.518 0.852 0.842c0.702 0.693 1.015 0.921 1.76 1.289 0.498 0.246 1.15 0.499 1.449 0.561 0.509 0.105 0.586 0.094 1.229-0.158 1.195-0.469 2.019-0.262 2.469 0.619 0.247 0.484 0.259 0.875 0.063 1.752-0.873 0.184-1.778 0.285-2.707 0.285-7.198 0-13-5.802-13-13s5.802-13 13-13zM11.014 4.391c-0.817 0.015-1.473 0.681-1.473 1.5 0 0.325 0.103 0.626 0.279 0.872l-0.003-0.005c0.057 0.083 0.087 0.271 0.059 0.367-0.018 0.061-0.076 0.187-0.189 0.355-0.353 0.524-0.852 0.967-1.414 1.254-0.506 0.248-0.848 0.76-0.848 1.351 0 0.829 0.672 1.5 1.5 1.5 0.26 0 0.505-0.066 0.719-0.183l-0.008 0.004c1.023-0.522 1.898-1.297 2.539-2.25 0.207-0.307 0.433-0.691 0.578-1.18 0.297-1.003 0.13-2.059-0.463-2.92-0.273-0.404-0.729-0.666-1.247-0.666-0.010 0-0.020 0-0.030 0h0.002z"></path>
</svg>
