<!-- Generated by IcoMoon.io -->
<svg version="1.1" xmlns="http://www.w3.org/2000/svg" width="32" height="32" viewBox="0 0 32 32">
<title>earth-l</title>
<path d="M16 0c-8.826 0-16 7.173-16 16s7.173 16 16 16c8.826 0 16-7.174 16-16s-7.174-16-16-16zM16 1.699c0.095 0 0.187 0.012 0.281 0.014l-1.51 1.375c-0.171 0.156-0.278 0.38-0.278 0.629 0 0.037 0.002 0.074 0.007 0.11v-0.004l0.365 2.924-2.115 2.242c-0.045 0.047-0.085 0.101-0.119 0.158l-0.002 0.004-1.176 2.066c-0.069 0.12-0.11 0.265-0.11 0.419 0 0.227 0.089 0.433 0.234 0.585v0l2.102 2.217c0.065 0.068 0.14 0.126 0.224 0.17l0.005 0.002c1.148 0.589 2.432 0.894 3.723 0.887 0.171-0.001 0.376-0.004 0.609-0.049 0.236-0.045 0.499-0.13 0.75-0.305 0.106-0.073 0.103-0.221 0.188-0.313 0.142 0.157 0.335 0.262 0.455 0.436 0.084 0.122 0.22 0.379 0.551 0.605 0.171 0.117 0.387 0.214 0.654 0.234 0.278 0.021 0.575-0.042 0.838-0.254 0.096-0.077 0.146-0.139 0.168-0.164 0.581-0.649 1.081-1.364 1.592-2.070l0.389 0.467c0.157 0.188 0.392 0.307 0.654 0.307 0.35 0 0.651-0.212 0.781-0.515l0.002-0.006c0.017-0.040 0.051-0.084 0.086-0.109s0.086-0.047 0.129-0.051c0 0 0.001 0 0.001 0s0.001 0 0.001 0v0c0.043-0.004 0.098 0.007 0.137 0.025s0.081 0.056 0.105 0.092c0.038 0.057 0.074 0.187 0.061 0.336-0.015 0.159-0.080 0.357-0.189 0.576-0.091 0.183-0.257 0.44-0.375 0.818-0.059 0.19-0.102 0.41-0.094 0.656 0.009 0.25 0.068 0.517 0.221 0.771 0.241 0.403 0.6 0.607 0.916 0.721 0.305 0.11 0.558 0.138 0.736 0.168 0.138 0.023 0.233 0.046 0.283 0.066 0.046 0.018 0.054 0.036 0.033 0.010-0.017-0.021 0.006 0.008 0.035 0.096 0.030 0.090 0.066 0.243 0.15 0.443 0.166 0.396 0.439 0.732 0.793 0.975s0.767 0.377 1.195 0.389c0.097 0.003 0.19-0.023 0.285-0.033-0.165 0.597-0.352 1.184-0.59 1.746l-1.945-0.158c-0.066-0.2-0.144-0.397-0.193-0.602-0.033-0.136-0.070-0.358-0.209-0.629-0.070-0.137-0.166-0.282-0.307-0.416-0.143-0.136-0.325-0.254-0.553-0.318-0.33-0.094-0.568-0.041-0.691-0.023-0.646 0.094-1.277 0.27-1.904 0.451l-3.371-3.637c-0.137-0.147-0.324-0.245-0.533-0.267h-0.004l-3.992-0.406c-0.024-0.002-0.053-0.004-0.081-0.004-0.001 0-0.002 0-0.003 0v0c-0.001 0-0.002 0-0.002 0-0.179 0-0.346 0.056-0.483 0.15l0.003-0.002-5.209 3.586c-0.212 0.147-0.353 0.384-0.367 0.654v0.002l-0.203 3.992c-0.001 0.013-0.001 0.029-0.001 0.045 0 0.171 0.051 0.331 0.138 0.464l-0.002-0.003c1.044 1.611 2.61 2.858 4.414 3.516 0.409 0.149 0.858 0.279 1.352 0.326 0.497 0.047 1.033 0.007 1.553-0.199 0.25-0.1 0.421-0.197 0.529-0.242 0.004-0.002 0-0.001 0.004-0.002-0.009 0.082-0.033 0.193-0.076 0.363-0.173 0.68-0.309 1.369-0.42 2.063-0.208 0.009-0.411 0.031-0.621 0.031-7.908 0-14.301-6.393-14.301-14.301s6.393-14.301 14.301-14.301zM18.555 1.939c6.683 1.204 11.746 7.026 11.746 14.061 0 0.545-0.037 1.080-0.096 1.609-0.076 0.070-0.139 0.153-0.185 0.245l-0.002 0.005c-0.042 0.086-0.117 0.169-0.199 0.219s-0.191 0.079-0.287 0.076c-0.096-0.003-0.202-0.038-0.281-0.092s-0.15-0.142-0.188-0.23c-0.020-0.047-0.049-0.156-0.104-0.32-0.055-0.167-0.138-0.392-0.322-0.623-0.217-0.271-0.483-0.427-0.729-0.525-0.241-0.096-0.455-0.135-0.627-0.164-0.22-0.038-0.372-0.064-0.447-0.092-0.007-0.003 0.002 0.003-0.004 0 0.003-0.016 0-0.020 0.008-0.045 0.034-0.108 0.137-0.29 0.273-0.563 0.166-0.333 0.317-0.723 0.359-1.178 0.043-0.465-0.033-0.979-0.336-1.436-0.197-0.297-0.468-0.532-0.789-0.686s-0.675-0.215-1.029-0.182c-0.276 0.026-0.521 0.154-0.76 0.289l-0.152-0.182 0.826-1.818 1.963-0.229c0.423-0.054 0.746-0.411 0.746-0.844 0-0.47-0.381-0.85-0.85-0.85-0.033 0-0.065 0.002-0.097 0.005h0.004l-2.439 0.285c-0.302 0.036-0.552 0.225-0.674 0.487l-0.002 0.005-1.186 2.611c-0.015 0.022-0.030 0.048-0.045 0.075l-0.002 0.005c-0.534 0.806-1.138 1.563-1.768 2.297-0.434-0.588-0.971-1.090-1.574-1.504-0.006-0.008-0.001-0.020-0.008-0.027l-0.010 0.010c-0.069-0.047-0.109-0.127-0.18-0.172-0.129-0.083-0.287-0.132-0.456-0.132-0.469 0-0.85 0.381-0.85 0.85 0 0.217 0.081 0.414 0.215 0.565l-0.001-0.001v0.002c0 0-0.032 0.019-0.096 0.031-0.066 0.013-0.168 0.019-0.303 0.020-0.984 0.005-1.969-0.244-2.852-0.682l-1.525-1.605 0.813-1.43 2.125-2.25c1.255-0.013 2.495-0.386 3.471-1.186 0.067-0.055 0.162-0.132 0.264-0.25 0.104-0.119 0.212-0.277 0.279-0.492 0.070-0.226 0.077-0.46 0.018-0.689s-0.178-0.432-0.35-0.596c-0.020-0.019-0.050-0.020-0.070-0.037l0.162-1.107c0.008-0.043 0.012-0.092 0.012-0.142 0-0.469-0.381-0.85-0.85-0.85-0.433 0-0.79 0.323-0.843 0.742v0.004l-0.262 1.793c-0.005 0.036-0.009 0.078-0.009 0.121 0 0.159 0.044 0.308 0.12 0.436l-0.002-0.004c-0.497 0.303-1.041 0.479-1.621 0.539l-0.258-2.063 2.314-2.109zM10.83 4.283c-0.459 0.013-0.826 0.389-0.826 0.85 0 0.217 0.081 0.415 0.215 0.565l-0.001-0.001c0.116 0.134 0.19 0.333 0.189 0.51s-0.075 0.376-0.191 0.51c-0.101 0.117-0.317 0.265-0.611 0.484-0.603 0.451-1.128 1.002-1.549 1.627-0.094 0.135-0.15 0.302-0.15 0.483 0 0.469 0.381 0.85 0.85 0.85 0.296 0 0.556-0.151 0.709-0.38l0.002-0.003c0.314-0.465 0.707-0.879 1.156-1.215 0.221-0.165 0.557-0.364 0.877-0.732 0.392-0.451 0.607-1.023 0.607-1.621s-0.212-1.171-0.604-1.623c-0.157-0.186-0.39-0.303-0.651-0.303-0.008 0-0.016 0-0.024 0h0.001zM15.615 17.283l3.361 0.342 3.488 3.762c0.156 0.168 0.378 0.273 0.624 0.273 0.095 0 0.187-0.016 0.272-0.045l-0.006 0.002c0.656-0.218 1.333-0.369 2.016-0.477 0.008 0.031 0.008 0.023 0.018 0.064 0.108 0.45 0.25 0.893 0.424 1.322 0.121 0.293 0.392 0.502 0.716 0.529h0.003l1.813 0.146c-2.097 3.59-5.707 6.173-9.967 6.885 0.089-0.491 0.189-0.98 0.313-1.463 0.045-0.177 0.113-0.41 0.133-0.709 0.021-0.307-0.012-0.674-0.223-1.035-0.248-0.425-0.66-0.697-1.145-0.762-0.41-0.055-0.742 0.052-0.99 0.154-0.242 0.1-0.405 0.194-0.508 0.234-0.211 0.084-0.481 0.115-0.766 0.088-0.288-0.027-0.6-0.112-0.93-0.232-1.377-0.502-2.578-1.471-3.416-2.676l0.164-3.234 4.605-3.17z"></path>
</svg>
