<!-- Generated by IcoMoon.io -->
<svg version="1.1" xmlns="http://www.w3.org/2000/svg" width="32" height="32" viewBox="0 0 32 32">
<title>edge-r</title>
<path d="M0.481 14.202c0.938-7.398 5.987-14.109 15.037-14.202 5.463 0.106 9.956 2.58 12.631 7.298 1.344 2.461 1.762 5.049 1.85 7.904v3.355h-20.081c0.094 8.279 12.188 7.998 17.394 4.349v6.742c-3.050 1.831-9.969 3.468-15.325 1.363-4.563-1.712-7.813-6.486-7.794-11.078-0.15-5.954 2.962-9.897 7.794-12.141-1.025 1.269-1.806 2.668-2.213 5.093h11.338c0 0 0.663-6.773-6.419-6.773-6.675 0.231-11.488 4.111-14.213 8.092v0z"></path>
</svg>
