<!-- Generated by IcoMoon.io -->
<svg version="1.1" xmlns="http://www.w3.org/2000/svg" width="32" height="32" viewBox="0 0 32 32">
<title>emoji-wondering-l</title>
<path d="M16 0c-8.826 0-16 7.173-16 16s7.173 16 16 16c8.826 0 16-7.174 16-16s-7.174-16-16-16zM16 1.699c7.908 0 14.301 6.393 14.301 14.301s-6.393 14.301-14.301 14.301c-7.908 0-14.301-6.393-14.301-14.301s6.393-14.301 14.301-14.301zM10.4 11.145c-0.966 0-1.75 0.784-1.75 1.75v0c0 0.966 0.784 1.75 1.75 1.75v0c0.966 0 1.75-0.784 1.75-1.75v0c0-0.966-0.784-1.75-1.75-1.75v0zM21.6 11.145c-0.966 0-1.75 0.784-1.75 1.75v0c0 0.966 0.784 1.75 1.75 1.75v0c0.966 0 1.75-0.784 1.75-1.75v0c0-0.966-0.784-1.75-1.75-1.75v0zM20.463 20.516c-0.073 0.002-0.143 0.012-0.209 0.031l0.006-0.001c-2.986 0.799-5.973 1.601-8.961 2.402-0.374 0.095-0.646 0.429-0.646 0.826 0 0.47 0.381 0.851 0.851 0.851 0.084 0 0.166-0.012 0.243-0.035l-0.006 0.002c2.987-0.802 5.975-1.603 8.961-2.402 0.366-0.101 0.63-0.43 0.63-0.821 0-0.47-0.381-0.851-0.851-0.851-0.006 0-0.012 0-0.019 0h0.001z"></path>
</svg>
