<!-- Generated by IcoMoon.io -->
<svg version="1.1" xmlns="http://www.w3.org/2000/svg" width="32" height="32" viewBox="0 0 32 32">
<title>emoji-crying-s</title>
<path d="M16 0c-8.819 0-16 7.181-16 16s7.181 16 16 16c8.819 0 16-7.181 16-16s-7.181-16-16-16zM7.42 7.627c1.188 0.001 2.375 0.001 3.561 0 0.005 0 0.010 0 0.015 0 0.552 0 1 0.448 1 1s-0.448 1-1 1c-0.005 0-0.009 0-0.014 0h0.001c-1.187 0.001-2.376 0.001-3.564 0-0.004 0-0.008 0-0.013 0-0.552 0-1-0.448-1-1s0.448-1 1-1c0.005 0 0.011 0 0.016 0h-0.001zM21.020 7.627c1.188 0.001 2.375 0.001 3.561 0 0.005 0 0.010 0 0.015 0 0.552 0 1 0.448 1 1s-0.448 1-1 1c-0.005 0-0.009 0-0.014 0h0.001c-1.187 0.001-2.375 0.001-3.564 0-0.004 0-0.009 0-0.013 0-0.552 0-1-0.448-1-1s0.448-1 1-1c0.005 0 0.011 0 0.016 0h-0.001zM9.184 11.258c0.005 0 0.010 0 0.016 0 0.552 0 1 0.448 1 1 0 0.005 0 0.010 0 0.014v-0.001c0.001 0.759 0.001 1.519 0 2.279 0 0.004 0 0.008 0 0.012 0 0.552-0.448 1-1 1s-1-0.448-1-1c0-0.006 0-0.011 0-0.017v0.001c0.001-0.759 0.001-1.516 0-2.273 0-0.005 0-0.010 0-0.016 0-0.547 0.439-0.991 0.984-1h0.001zM22.783 11.258c0.005 0 0.011 0 0.018 0 0.552 0 1 0.448 1 1 0 0.005 0 0.010 0 0.014v-0.001c0.001 0.759 0.001 1.519 0 2.279 0 0.004 0 0.008 0 0.012 0 0.552-0.448 1-1 1s-1-0.448-1-1c0-0.006 0-0.011 0-0.017v0.001c0.001-0.759 0.001-1.516 0-2.273 0-0.005 0-0.010 0-0.016 0-0.546 0.438-0.99 0.982-1h0.001zM9.184 17.131c0.005 0 0.010 0 0.016 0 0.552 0 1 0.448 1 1 0 0.005 0 0.010 0 0.014v-0.001c0.001 0.994 0.001 1.99 0 2.986 0 0.004 0 0.008 0 0.012 0 0.552-0.448 1-1 1s-1-0.448-1-1c0-0.006 0-0.011 0-0.017v0.001c0.001-0.995 0.001-1.988 0-2.98 0-0.005 0-0.010 0-0.016 0-0.547 0.439-0.991 0.984-1h0.001zM22.783 17.131c0.005 0 0.011 0 0.018 0 0.552 0 1 0.448 1 1 0 0.005 0 0.010 0 0.014v-0.001c0.001 0.994 0.001 1.99 0 2.986 0 0.004 0 0.008 0 0.012 0 0.552-0.448 1-1 1s-1-0.448-1-1c0-0.006 0-0.011 0-0.017v0.001c0.001-0.995 0.001-1.988 0-2.98 0-0.005 0-0.010 0-0.016 0-0.546 0.438-0.99 0.982-1h0.001zM16 22.656c1.977 0 3.788 1.136 4.352 2.943 0.029 0.089 0.045 0.192 0.045 0.298 0 0.553-0.448 1-1 1-0.446 0-0.824-0.292-0.953-0.696l-0.002-0.007c-0.261-0.836-1.235-1.539-2.441-1.539s-2.181 0.703-2.441 1.539c-0.127 0.417-0.508 0.715-0.959 0.715-0.006 0-0.013 0-0.019 0h0.001c-0.545-0.010-0.983-0.454-0.983-1 0-0.111 0.018-0.218 0.052-0.318l-0.002 0.007c0.563-1.808 2.375-2.943 4.352-2.943z"></path>
</svg>
