<!-- Generated by IcoMoon.io -->
<svg version="1.1" xmlns="http://www.w3.org/2000/svg" width="32" height="32" viewBox="0 0 32 32">
<title>emoji-tongue-l</title>
<path d="M16 0c-8.826 0-16 7.173-16 16s7.173 16 16 16c8.826 0 16-7.174 16-16s-7.174-16-16-16zM16 1.699c7.908 0 14.301 6.393 14.301 14.301s-6.393 14.301-14.301 14.301c-7.908 0-14.301-6.393-14.301-14.301s6.393-14.301 14.301-14.301zM10.4 11.145c-0.966 0-1.75 0.784-1.75 1.75v0c0 0.966 0.784 1.75 1.75 1.75v0c0.966 0 1.75-0.784 1.75-1.75v0c0-0.966-0.784-1.75-1.75-1.75v0zM21.6 11.145c-0.966 0-1.75 0.784-1.75 1.75v0c0 0.966 0.784 1.75 1.75 1.75v0c0.966 0 1.75-0.784 1.75-1.75v0c0-0.966-0.784-1.75-1.75-1.75v0zM9.361 19.549c-0.009 0-0.020-0.001-0.031-0.001-0.47 0-0.85 0.381-0.85 0.85s0.381 0.85 0.85 0.85c0.012 0 0.023 0 0.035-0.001h-0.002c2.376-0.001 4.75 0 7.125 0v0.771c0 1.924 1.574 3.498 3.498 3.498s3.502-1.574 3.502-3.498v-1.391c0.020-0.068 0.031-0.147 0.031-0.228 0-0.46-0.365-0.834-0.821-0.85h-0.001c-0.017-0.001-0.037-0.002-0.058-0.002 0 0-0.001 0-0.001 0v0c-1.766 0-3.534 0-5.301 0-2.659 0-5.317-0.001-7.977 0zM18.188 21.248c1.2 0 2.4 0 3.6 0v0.771c0 1.011-0.789 1.799-1.801 1.799s-1.799-0.787-1.799-1.799v-0.771z"></path>
</svg>
