<!-- Generated by IcoMoon.io -->
<svg version="1.1" xmlns="http://www.w3.org/2000/svg" width="32" height="32" viewBox="0 0 32 32">
<title>emoji-sad-cry-s</title>
<path d="M16 0c-8.819 0-16 7.181-16 16 0 5.695 3.004 10.693 7.5 13.529 0-4.403 0.001-8.805 0-13.207 0-0.005 0-0.010 0-0.016 0-0.547 0.439-0.991 0.984-1h0.001c0.005 0 0.010 0 0.016 0 0.552 0 1 0.448 1 1 0 0.005 0 0.010 0 0.014v-0.001c0.001 4.761 0.001 9.523 0 14.285 1.989 0.889 4.185 1.395 6.5 1.395s4.511-0.505 6.5-1.395c0.001-4.762 0.001-9.523 0-14.283 0-0.005 0-0.010 0-0.016 0-0.547 0.439-0.991 0.984-1h0.001c0.005 0 0.010 0 0.016 0 0.552 0 1 0.448 1 1 0 0.005 0 0.010 0 0.014v-0.001c0.001 4.402 0 8.805 0 13.209 4.496-2.836 7.5-7.835 7.5-13.529 0-8.819-7.181-16-16-16zM10.5 8.828c1.896 0 3.346 1.622 3.865 3.674 0.026 0.085 0.041 0.183 0.041 0.284 0 0.552-0.448 1-1 1-0.479 0-0.88-0.337-0.978-0.788l-0.001-0.007c-0.368-1.454-1.232-2.164-1.928-2.164s-1.56 0.71-1.928 2.164c-0.105 0.432-0.481 0.75-0.934 0.768h-0.002c-0.011 0-0.023 0.001-0.036 0.001-0.552 0-1-0.448-1-1 0-0.092 0.012-0.181 0.036-0.265l-0.002 0.007c0.519-2.052 1.969-3.674 3.865-3.674zM21.5 8.828c1.896 0 3.346 1.622 3.865 3.674 0.026 0.085 0.041 0.183 0.041 0.284 0 0.552-0.448 1-1 1-0.479 0-0.88-0.337-0.977-0.788l-0.001-0.007c-0.368-1.454-1.232-2.164-1.928-2.164s-1.56 0.71-1.928 2.164c-0.105 0.432-0.481 0.75-0.934 0.768h-0.002c-0.011 0-0.023 0.001-0.036 0.001-0.552 0-1-0.448-1-1 0-0.092 0.012-0.181 0.036-0.265l-0.002 0.007c0.519-2.052 1.969-3.674 3.865-3.674zM16 17c1.188 0 2.243 0.627 2.957 1.543s1.127 2.132 1.127 3.457c0 1.325-0.413 2.541-1.127 3.457s-1.769 1.543-2.957 1.543c-1.188 0-2.243-0.627-2.957-1.543s-1.127-2.132-1.127-3.457c0-1.325 0.413-2.541 1.127-3.457s1.769-1.543 2.957-1.543z"></path>
</svg>
