<!-- Generated by IcoMoon.io -->
<svg version="1.1" xmlns="http://www.w3.org/2000/svg" width="32" height="32" viewBox="0 0 32 32">
<title>emoji-angry-l</title>
<path d="M16 0c-8.826 0-16 7.174-16 16s7.174 16 16 16c8.826 0 16-7.174 16-16s-7.174-16-16-16zM16 1.699c7.908 0 14.301 6.393 14.301 14.301s-6.393 14.301-14.301 14.301c-7.908 0-14.301-6.393-14.301-14.301s6.393-14.301 14.301-14.301zM9.604 9.268c-0.618 0.038-1.104 0.548-1.104 1.172 0 0.438 0.24 0.82 0.595 1.022l0.006 0.003c0.289 0.167 0.58 0.335 0.869 0.502-0.102 0.239-0.162 0.517-0.162 0.808 0 0.001 0 0.001 0 0.002v0c0 0 0 0.001 0 0.001 0 1.158 0.938 2.096 2.096 2.097v0c0 0 0.001 0 0.001 0 1.158 0 2.097-0.939 2.097-2.097 0 0 0-0.001 0-0.001v0c-0.001-0.849-0.507-1.58-1.233-1.909l-0.013-0.005c-0.001-0.001-0.001-0.001-0.002-0.002v0c-0.826-0.476-1.651-0.953-2.475-1.43-0.159-0.096-0.35-0.156-0.554-0.164h-0.002c-0.018-0.001-0.038-0.001-0.059-0.001s-0.041 0.001-0.061 0.002h0.003zM22.279 9.268c-0.206 0.008-0.397 0.068-0.562 0.167l0.005-0.003c-0.824 0.477-1.649 0.954-2.475 1.43-0.001 0.001-0.001 0.001-0.002 0.002v0c-0.74 0.334-1.245 1.065-1.246 1.914v0c0 0 0 0.001 0 0.001 0 1.158 0.939 2.097 2.097 2.097 0 0 0.001 0 0.001 0v0c1.158-0.001 2.096-0.939 2.096-2.097 0 0 0-0.001 0-0.001v0c0-0.001 0-0.001 0-0.002 0-0.292-0.060-0.57-0.167-0.822l0.005 0.014c0.29-0.167 0.58-0.335 0.869-0.502 0.36-0.205 0.598-0.587 0.598-1.024 0-0.649-0.526-1.175-1.175-1.175-0.016 0-0.031 0-0.047 0.001h0.002zM16 18.693c-2.712 0-5.294 1.054-7.070 2.924-0.149 0.153-0.242 0.363-0.242 0.594 0 0.47 0.381 0.85 0.85 0.85 0.007 0 0.014 0 0.021 0h-0.001c0.239-0.006 0.452-0.11 0.603-0.273l0.001-0.001c1.426-1.501 3.569-2.393 5.838-2.393s4.412 0.892 5.838 2.393c0.156 0.175 0.383 0.285 0.635 0.285 0.47 0 0.85-0.381 0.85-0.85 0-0.237-0.097-0.451-0.253-0.605v0c-1.776-1.869-4.359-2.924-7.070-2.924z"></path>
</svg>
