<!-- Generated by IcoMoon.io -->
<svg version="1.1" xmlns="http://www.w3.org/2000/svg" width="32" height="32" viewBox="0 0 32 32">
<title>emoji-cool-s</title>
<path d="M16 0c-8.819 0-16 7.181-16 16s7.181 16 16 16c8.819 0 16-7.181 16-16s-7.181-16-16-16zM5.859 10.994c0 0 0.001 0 0.001 0s0.001 0 0.001 0v0c2.426-0.001 4.852-0.001 7.277 0 0 0 0 0 0 0 0.133 0 0.241 0.103 0.249 0.234v0.001c0.001 0.011 0.012 0.056 0.012 0.135v1.293c0.046-0.007 0.099-0.012 0.153-0.012 0.002 0 0.004 0 0.006 0v0c1.629-0.001 3.256-0.001 4.883 0 0.005 0 0.011 0 0.018 0 0.050 0 0.098 0.004 0.146 0.011l-0.005-0.001v-1.291c0-0.079 0.011-0.123 0.012-0.135 0.008-0.131 0.117-0.234 0.25-0.234 0 0 0 0 0 0v0c2.426-0.001 4.852-0.001 7.277 0 0 0 0 0 0 0 0.133 0 0.241 0.103 0.25 0.234v0.001c0.001 0.011 0.012 0.056 0.012 0.135v3.527c0 1.136-0.924 2.059-2.061 2.059h-3.68c-1.136 0-2.061-0.922-2.061-2.059v-0.258c-0.046 0.007-0.099 0.012-0.153 0.012-0.003 0-0.005 0-0.008 0v0c-1.626-0.001-3.251-0.001-4.879 0-0.002 0-0.005 0-0.007 0-0.054 0-0.107-0.004-0.159-0.012l0.006 0.001v0.258c0 1.136-0.924 2.059-2.061 2.059h-3.68c-1.136 0-2.061-0.922-2.061-2.059v-3.527c0-0.079 0.011-0.123 0.012-0.135 0.008-0.131 0.116-0.234 0.248-0.234v0zM22.648 19.242c0.673 0.023 1.21 0.573 1.21 1.249 0 0.159-0.030 0.311-0.084 0.45l0.003-0.009c-0.87 2.404-2.747 4.309-5.137 5.217s-5.059 0.728-7.305-0.492c-0.392-0.216-0.654-0.627-0.654-1.099 0-0.69 0.56-1.25 1.25-1.25 0.219 0 0.424 0.056 0.603 0.155l-0.006-0.003c1.607 0.873 3.515 1.001 5.225 0.352s3.049-2.011 3.672-3.73c0.175-0.493 0.637-0.841 1.181-0.841 0.015 0 0.029 0 0.044 0.001h-0.002z"></path>
</svg>
