<!-- Generated by IcoMoon.io -->
<svg version="1.1" xmlns="http://www.w3.org/2000/svg" width="32" height="32" viewBox="0 0 32 32">
<title>emoji-wink-l</title>
<path d="M16 0c-8.826 0-16 7.173-16 16s7.173 16 16 16c8.826 0 16-7.174 16-16s-7.174-16-16-16zM16 1.699c7.908 0 14.301 6.393 14.301 14.301s-6.393 14.301-14.301 14.301c-7.908 0-14.301-6.393-14.301-14.301s6.393-14.301 14.301-14.301zM21.6 9.395c-0.967 0-1.75 1.175-1.75 2.625s0.783 2.625 1.75 2.625c0.967 0 1.75-1.175 1.75-2.625s-0.783-2.625-1.75-2.625zM10.4 9.701c-1.806 0-3.213 1.556-3.721 3.563-0.018 0.066-0.029 0.142-0.029 0.22 0 0.451 0.351 0.819 0.794 0.848h0.003c0.016 0.001 0.035 0.002 0.054 0.002 0.4 0 0.735-0.276 0.826-0.648l0.001-0.006c0.379-1.498 1.287-2.277 2.072-2.277s1.693 0.779 2.072 2.277c0.090 0.38 0.427 0.659 0.829 0.659 0.47 0 0.85-0.381 0.85-0.85 0-0.080-0.011-0.158-0.032-0.231l0.001 0.006c-0.508-2.007-1.915-3.563-3.721-3.563zM25.59 17.053c-1.229 2.658-4.631 4.654-9.014 5.52v-0.002c-4.086 0.807-7.966 0.473-10.166-1.248 1.844 3.021 5.114 5.029 8.84 5.029 5.292 0 9.663-4.050 10.34-9.299z"></path>
</svg>
