<!-- Generated by IcoMoon.io -->
<svg version="1.1" xmlns="http://www.w3.org/2000/svg" width="32" height="32" viewBox="0 0 32 32">
<title>emoji-sad-cry-r</title>
<path d="M16 0c-8.819 0-16 7.181-16 16s7.181 16 16 16c8.819 0 16-7.181 16-16s-7.181-16-16-16zM16 3c7.198 0 13 5.802 13 13 0 3.94-1.746 7.453-4.5 9.834 0-3.172 0.001-6.343 0-9.514 0-0.004 0-0.009 0-0.014 0-0.552-0.448-1-1-1-0.006 0-0.011 0-0.016 0h0.001c-0.546 0.009-0.985 0.453-0.985 1 0 0.006 0 0.011 0 0.016v-0.001c0.001 3.644 0.001 7.288 0 10.934-1.912 1.104-4.127 1.744-6.5 1.744s-4.588-0.641-6.5-1.744c0.001-3.646 0.001-7.291 0-10.936 0-0.004 0-0.009 0-0.014 0-0.552-0.448-1-1-1-0.005 0-0.011 0-0.016 0h0.001c-0.546 0.009-0.984 0.453-0.984 1 0 0.006 0 0.011 0 0.016v-0.001c0.001 3.17 0 6.341 0 9.512-2.754-2.381-4.5-5.894-4.5-9.834 0-7.198 5.802-13 13-13zM10.5 8.828c-1.896 0-3.346 1.622-3.865 3.674-0.022 0.078-0.034 0.166-0.034 0.258 0 0.552 0.448 1 1 1 0.013 0 0.025 0 0.038-0.001h-0.002c0.455-0.018 0.83-0.336 0.934-0.761l0.001-0.007c0.368-1.454 1.232-2.164 1.928-2.164s1.56 0.71 1.928 2.164c0.099 0.457 0.499 0.794 0.979 0.794 0.552 0 1-0.448 1-1 0-0.101-0.015-0.199-0.043-0.291l0.002 0.007c-0.519-2.052-1.969-3.674-3.865-3.674zM21.5 8.828c-1.896 0-3.346 1.622-3.865 3.674-0.022 0.078-0.034 0.166-0.034 0.258 0 0.552 0.448 1 1 1 0.013 0 0.025 0 0.038-0.001h-0.002c0.455-0.018 0.83-0.336 0.934-0.761l0.001-0.007c0.368-1.454 1.232-2.164 1.928-2.164s1.56 0.71 1.928 2.164c0.099 0.457 0.499 0.794 0.979 0.794 0.552 0 1-0.448 1-1 0-0.101-0.015-0.199-0.043-0.291l0.002 0.007c-0.519-2.052-1.969-3.674-3.865-3.674zM16 17c-1.188 0-2.243 0.627-2.957 1.543s-1.127 2.132-1.127 3.457c0 1.325 0.413 2.541 1.127 3.457s1.769 1.543 2.957 1.543c1.188 0 2.243-0.627 2.957-1.543s1.127-2.132 1.127-3.457c0-1.325-0.413-2.541-1.127-3.457s-1.769-1.543-2.957-1.543z"></path>
</svg>
