<!-- Generated by IcoMoon.io -->
<svg version="1.1" xmlns="http://www.w3.org/2000/svg" width="29" height="32" viewBox="0 0 29 32">
<title>emoji-pacman-l</title>
<path d="M16 0c-8.827 0-16 7.173-16 16s7.173 16 16 16c4.854 0 9.212-2.168 12.146-5.588l0.506-0.59-9.572-9.822 9.572-9.822-0.506-0.59c-2.933-3.419-7.292-5.588-12.146-5.588zM16 1.701c4.070 0 7.69 1.74 10.293 4.463l-9.588 9.836 9.59 9.838c-2.604 2.724-6.225 4.461-10.295 4.461-7.908 0-14.301-6.391-14.301-14.299s6.393-14.299 14.301-14.299zM19.242 5.354c-0.956 0-1.732 0.775-1.732 1.73s0.777 1.732 1.732 1.732c0.956 0 1.73-0.777 1.73-1.732s-0.775-1.73-1.73-1.73z"></path>
</svg>
