<!-- Generated by IcoMoon.io -->
<svg version="1.1" xmlns="http://www.w3.org/2000/svg" width="32" height="32" viewBox="0 0 32 32">
<title>emoji-confused-r</title>
<path d="M16 0c-8.819 0-16 7.181-16 16s7.181 16 16 16c8.819 0 16-7.181 16-16s-7.181-16-16-16zM16 3c7.198 0 13 5.802 13 13s-5.802 13-13 13c-7.198 0-13-5.802-13-13s5.802-13 13-13zM10.4 10.945c-1.075 0-1.951 0.875-1.951 1.949s0.877 1.951 1.951 1.951c1.075 0 1.949-0.877 1.949-1.951s-0.875-1.949-1.949-1.949zM21.6 10.945c-1.075 0-1.949 0.875-1.949 1.949s0.875 1.951 1.949 1.951c1.075 0 1.951-0.877 1.951-1.951s-0.877-1.949-1.951-1.949zM12.594 18.758c-0.254 0.015-0.51 0.050-0.764 0.109-2.033 0.476-3.48 2.301-3.48 4.389 0 0.004 0 0.009 0 0.014 0 0.552 0.448 1 1 1s1-0.448 1-1c0-0.005 0-0.010 0-0.015v0.001c0-1.17 0.796-2.175 1.936-2.441s2.299 0.282 2.818 1.33c0.027 0.054 0.056 0.1 0.088 0.143l-0.002-0.003c0.962 1.775 3.002 2.709 4.98 2.246 2.033-0.476 3.48-2.301 3.48-4.389 0-0.004 0-0.009 0-0.014 0-0.552-0.448-1-1-1-0.006 0-0.011 0-0.016 0h0.001c-0.546 0.009-0.984 0.453-0.984 1 0 0.005 0 0.010 0 0.014v-0.001c0 1.17-0.796 2.175-1.936 2.441s-2.299-0.28-2.818-1.328c-0.021-0.042-0.042-0.077-0.065-0.111l0.002 0.004c-0.711-1.34-2.031-2.209-3.484-2.371-0.249-0.028-0.502-0.034-0.756-0.020z"></path>
</svg>
