<!-- Generated by IcoMoon.io -->
<svg version="1.1" xmlns="http://www.w3.org/2000/svg" width="32" height="32" viewBox="0 0 32 32">
<title>emoji-kiss-l</title>
<path d="M16 0c-8.826 0-16 7.173-16 16s7.173 16 16 16c8.826 0 16-7.174 16-16s-7.174-16-16-16zM16 1.699c7.908 0 14.301 6.393 14.301 14.301s-6.393 14.301-14.301 14.301c-7.908 0-14.301-6.393-14.301-14.301s6.393-14.301 14.301-14.301zM10.4 11.145c-0.966 0-1.75 0.784-1.75 1.75v0c0 0.966 0.784 1.75 1.75 1.75v0c0.966 0 1.75-0.784 1.75-1.75v0c0-0.966-0.784-1.75-1.75-1.75v0zM21.6 11.145c-0.966 0-1.75 0.784-1.75 1.75v0c0 0.966 0.784 1.75 1.75 1.75v0c0.966 0 1.75-0.784 1.75-1.75v0c0-0.966-0.784-1.75-1.75-1.75v0zM14.729 16.135c-0.453 0.021-0.813 0.393-0.813 0.85 0 0.401 0.277 0.737 0.651 0.827l0.006 0.001c1.3 0.322 1.938 1.080 1.938 1.682 0 0.286-0.047 0.352-0.357 0.557-0.304 0.2-0.886 0.407-1.605 0.588-0.328 0.065-0.586 0.312-0.665 0.629l-0.001 0.006c0.001-0.003 0-0.001-0.001 0.002l-0.001 0.006c-0.005 0.020-0.010 0.047-0.013 0.074v0.004c-0.002 0.017-0.004 0.038-0.006 0.060v0.002c-0.001 0.005-0.001 0.013-0.002 0.021v0.003c0 0.001 0 0.003 0 0.004s0 0.003 0 0.004v0c0 0.007 0 0.016 0 0.025 0 0.050 0.004 0.1 0.013 0.148l-0.001-0.005c0.059 0.345 0.319 0.616 0.653 0.69l0.006 0.001h0.002c1.286 0.325 1.922 1.078 1.922 1.676 0 0.286-0.047 0.35-0.357 0.555s-0.898 0.416-1.639 0.6c-0.382 0.089-0.662 0.426-0.662 0.829 0 0.47 0.381 0.85 0.85 0.85 0.079 0 0.156-0.011 0.228-0.031l-0.006 0.001c0.809-0.2 1.542-0.419 2.164-0.828s1.121-1.14 1.121-1.977c0-0.996-0.608-1.761-1.422-2.375 0.109-0.058 0.256-0.069 0.359-0.137 0.622-0.409 1.121-1.142 1.121-1.979 0-1.643-1.427-2.888-3.227-3.334-0.065-0.018-0.14-0.028-0.217-0.028-0.013 0-0.026 0-0.039 0.001h0.002v-0.002z"></path>
</svg>
