<!-- Generated by IcoMoon.io -->
<svg version="1.1" xmlns="http://www.w3.org/2000/svg" width="32" height="32" viewBox="0 0 32 32">
<title>emoji-in-love-r</title>
<path d="M16 0c-8.819 0-16 7.181-16 16s7.181 16 16 16c8.819 0 16-7.181 16-16s-7.181-16-16-16zM16 3c7.198 0 13 5.802 13 13s-5.802 13-13 13c-7.198 0-13-5.802-13-13s5.802-13 13-13zM11.875 8.072c-0.152 0.008-0.304 0.039-0.451 0.090-0.294 0.104-0.575 0.289-0.832 0.527-0.489 0.452-0.874 1.097-1.061 1.715 0 0 0 0.002 0 0.002s-0.002 0-0.002 0c-0.628-0.147-1.381-0.137-2.018 0.061-0.167 0.055-0.326 0.118-0.473 0.193l-0.002-0.004c-0.145 0.079-0.278 0.166-0.396 0.27-0.235 0.203-0.41 0.459-0.492 0.768-0.169 0.631-0.009 1.246 0.359 1.754 0.367 0.508 0.941 0.904 1.584 1.076l4.512 1.207 1.211-4.512c0.172-0.643 0.116-1.339-0.141-1.91-0.256-0.573-0.707-1.018-1.338-1.188-0.154-0.041-0.309-0.057-0.461-0.049zM20.125 8.072c-0.152-0.008-0.307 0.007-0.461 0.049-0.631 0.169-1.082 0.614-1.338 1.188-0.256 0.571-0.313 1.268-0.141 1.91l1.211 4.512 4.512-1.207c0.642-0.172 1.217-0.568 1.584-1.076s0.529-1.123 0.359-1.754c-0.082-0.309-0.257-0.565-0.492-0.768-0.118-0.103-0.251-0.191-0.396-0.27l-0.002 0.004c-0.146-0.076-0.306-0.139-0.473-0.193-0.637-0.197-1.389-0.208-2.018-0.061 0 0-0.002 0-0.002 0s0-0.002 0-0.002c-0.186-0.618-0.571-1.262-1.061-1.715-0.257-0.239-0.538-0.423-0.832-0.527-0.147-0.051-0.299-0.082-0.451-0.090zM8.125 18.879c-0.008 0-0.016 0-0.025 0-0.552 0-1 0.448-1 1 0 0 0 0 0 0v0c0 3.029 2.256 5.054 4.521 6.133 2.653 1.263 6.105 1.263 8.758 0 2.265-1.079 4.521-3.104 4.521-6.133 0 0 0 0 0 0 0-0.552-0.448-1-1-1-0.080 0-0.157 0.009-0.231 0.027l0.007-0.001c0 0-5.248 1.164-7.676 1.164s-7.676-1.164-7.676-1.164c-0.059-0.014-0.128-0.023-0.198-0.025h-0.001zM9.338 21.156c1.577 0.341 4.401 0.912 6.662 0.912s5.085-0.571 6.662-0.912c-0.481 1.359-1.688 2.358-3.143 3.051-2.001 0.953-5.038 0.953-7.039 0-1.454-0.693-2.662-1.692-3.143-3.051z"></path>
</svg>
