<!-- Generated by IcoMoon.io -->
<svg version="1.1" xmlns="http://www.w3.org/2000/svg" width="32" height="32" viewBox="0 0 32 32">
<title>emoji-grin-squint-tears-l</title>
<path d="M4.418 4.421c-5.684 5.693-5.88 14.789-0.612 20.77-0.19 0.35-0.36 0.711-0.495 1.088 0-0.002-0.001 0.002-0.002 0.006l-0.002 0.006c-0.001 0.002 0 0.004 0 0.005s-0.003 0.007-0.005 0.014l-0.002 0.006c-0.003 0.011-0.004 0.022-0.007 0.033-0.329 0.956-0.406 2.048-0.013 3.070 0.053 0.14 0.115 0.278 0.186 0.415 0.175 0.332 0.392 0.633 0.643 0.898 0.126 0.133 0.26 0.256 0.402 0.37l0.001 0.001c0.141 0.113 0.29 0.218 0.445 0.311l0.001 0.001c0.155 0.093 0.317 0.175 0.483 0.247l0.001 0.001c0.166 0.072 0.338 0.133 0.513 0.183l0.001 0.001c0.176 0.050 0.355 0.087 0.538 0.113s0.368 0.038 0.555 0.038l0.001 0.001c0.187 0 0.375-0.014 0.557-0.039 1.28-0.179 2.417-0.966 3.028-2.127 0.039-0.074 0.068-0.15 0.101-0.224 5.35 1.641 11.193 0.308 15.188-3.676 0.001-0.001 0.002-0.002 0.003-0.003v0c3.984-3.994 5.318-9.838 3.676-15.188 0.075-0.033 0.151-0.062 0.224-0.101 1.16-0.611 1.948-1.75 2.127-3.030 0.025-0.182 0.039-0.367 0.039-0.554l-0.001-0.001c0-0.188-0.013-0.372-0.038-0.555s-0.065-0.364-0.114-0.54c-0.049-0.175-0.11-0.347-0.183-0.513l-0.001-0.001c-0.072-0.166-0.153-0.328-0.247-0.483l-0.001-0.001c-0.093-0.155-0.198-0.304-0.311-0.445l-0.001-0.001c-0.114-0.142-0.238-0.276-0.37-0.402-0.265-0.252-0.566-0.469-0.898-0.643-0.137-0.072-0.275-0.133-0.415-0.186-1.021-0.393-2.113-0.316-3.070 0.013-0.011 0.003-0.022 0.003-0.033 0.007-0.014 0.003-0.022 0.006-0.031 0.008l0.006-0.001c-0.010 0.003-0.014 0.004-0.017 0.006l0.006-0.002c-0.376 0.135-0.736 0.305-1.084 0.494-5.982-5.271-15.081-5.074-20.774 0.613zM5.561 5.563c5.001-4.995 12.909-5.287 18.265-0.846-0.665 0.526-1.263 1.121-1.779 1.729-0.144 0.169-0.223 0.384-0.223 0.607 0 0 0.001 0.001 0.001 0.001v0c0 0.001 0 0.001 0 0.002 0 0.201 0.074 0.385 0.195 0.527l-0.001-0.001c0.017 0.024 0.010 0.059 0.029 0.081 1.086 1.281 2.517 2.518 4.23 3.133 0.576 0.207 1.203 0.318 1.835 0.294 1.524 4.814 0.264 10.096-3.326 13.697-3.601 3.592-8.885 4.853-13.7 3.328 0.024-0.632-0.087-1.259-0.294-1.835-0.614-1.712-1.85-3.143-3.131-4.229-0.024-0.020-0.061-0.014-0.087-0.032-0.14-0.12-0.323-0.193-0.524-0.193v0c0 0-0.001-0.001-0.001-0.001v0c-0.222 0.001-0.437 0.079-0.607 0.223-0.608 0.515-1.201 1.113-1.726 1.776-4.441-5.355-4.15-13.261 0.843-18.262zM5.804 16.267c0.147 0.295 0.295 0.591 0.863 0.768s1.556 0.238 2.544 0.299c0.061 0.988 0.122 1.977 0.299 2.544s0.473 0.715 0.768 0.863c0.612-1.927 1.225-3.852 1.503-4.877s0.224-1.148 0.169-1.27c-0.122-0.055-0.245-0.109-1.27 0.169s-2.951 0.891-4.877 1.503zM16.265 5.806c-0.612 1.927-1.225 3.852-1.503 4.877s-0.224 1.148-0.169 1.27c0.122 0.055 0.245 0.109 1.27-0.169s2.951-0.891 4.877-1.503c-0.147-0.295-0.295-0.591-0.863-0.768s-1.556-0.238-2.544-0.299c-0.061-0.988-0.122-1.977-0.299-2.544s-0.473-0.715-0.768-0.863zM7.053 23.735c0.948 0.895 1.811 1.952 2.219 3.091 0.202 0.563 0.261 1.126 0.148 1.653-0.001 0.002-0.003 0.009-0.005 0.017l-0.001 0.006c-0.047 0.21-0.112 0.401-0.206 0.579-0.311 0.592-0.867 1.030-1.501 1.212-0.211 0.060-0.43 0.090-0.652 0.091-0.89 0-1.741-0.514-2.156-1.302-0.089-0.169-0.155-0.346-0.2-0.525s-0.067-0.362-0.071-0.549v-0.003c-0.001-0.032 0.007-0.065 0.008-0.097 0.002-0.157 0.010-0.314 0.038-0.474 0.034-0.193 0.086-0.388 0.155-0.583 0 0.001 0.001-0.004 0.003-0.009l0.001-0.006c0 0 0.003-0.006 0.005-0.012l0.002-0.006c-0.001 0.004-0.001 0.003 0 0.002l0.002-0.006c0.006-0.016 0.015-0.033 0.021-0.050 0.083-0.223 0.187-0.441 0.302-0.656 0.054-0.102 0.118-0.204 0.179-0.307 0.452-0.747 1.056-1.447 1.711-2.065zM23.733 7.056c0.623-0.66 1.329-1.268 2.082-1.72 0.092-0.055 0.185-0.109 0.277-0.159 0.237-0.127 0.478-0.246 0.723-0.335 0.016-0.005 0.027-0.008 0.037-0.012l-0.006 0.002c0.584-0.205 1.166-0.264 1.705-0.13h0.003c0.179 0.045 0.354 0.111 0.523 0.2 0.788 0.414 1.302 1.266 1.302 2.156 0 0.222-0.032 0.443-0.092 0.654-0.181 0.633-0.619 1.188-1.211 1.499-0.178 0.094-0.369 0.159-0.579 0.206-0.013 0.004-0.021 0.006-0.028 0.008l0.006-0.002c-0.527 0.112-1.090 0.053-1.653-0.148-1.139-0.408-2.196-1.271-3.091-2.219zM11.914 22.509c-0.155 0.148-0.251 0.355-0.251 0.585 0 0.223 0.090 0.425 0.237 0.571v0c1.986 1.986 4.796 1.839 7.015 1.052 2.584-0.917 4.884-3.217 5.8-5.8 0.787-2.219 0.935-5.028-1.052-7.015-0.146-0.146-0.348-0.236-0.571-0.236-0.288 0-0.54 0.15-0.683 0.376l-0.002 0.003c0 0-2.735 4.306-4.397 5.967s-5.967 4.397-5.967 4.397c-0.048 0.031-0.091 0.063-0.129 0.1v0zM13.907 23.116c1.191-0.763 3.673-2.389 5.245-3.961s3.198-4.054 3.961-5.245c0.731 1.318 0.626 2.924 0.079 4.466-0.722 2.034-2.785 4.097-4.818 4.818-1.543 0.547-3.149 0.652-4.466-0.079z"></path>
</svg>
