<!-- Generated by IcoMoon.io -->
<svg version="1.1" xmlns="http://www.w3.org/2000/svg" width="32" height="32" viewBox="0 0 32 32">
<title>emoji-tongue-squint-s</title>
<path d="M16 0c-8.819 0-16 7.181-16 16s7.181 16 16 16c8.819 0 16-7.181 16-16s-7.181-16-16-16zM8.205 8.512c0.004 0 0.008 0 0.013 0 0.083 0 0.162 0.020 0.23 0.056l-0.003-0.001c1.888 0.978 3.777 1.957 4.77 2.525 0.496 0.284 0.766 0.461 0.953 0.619s0.307 0.385 0.332 0.451c0.020 0.052 0.032 0.113 0.032 0.177s-0.012 0.124-0.033 0.18l0.001-0.003c-0.025 0.067-0.145 0.301-0.332 0.459s-0.457 0.335-0.953 0.619c-0.993 0.569-2.881 1.54-4.77 2.518-0.066 0.035-0.145 0.055-0.229 0.055-0.218 0-0.403-0.139-0.471-0.333l-0.001-0.004c-0.11-0.329-0.248-0.929 0.104-1.602 0.299-0.572 0.895-1.225 1.477-1.883-0.583-0.659-1.177-1.316-1.477-1.889-0.352-0.672-0.213-1.272-0.104-1.602 0.061-0.182 0.219-0.315 0.412-0.34h0.002c0.013-0.001 0.029-0.002 0.044-0.002 0.001 0 0.002 0 0.003 0v0-0.002zM23.74 8.516c0.002 0 0.005 0 0.008 0s0.006 0 0.008 0v0c0.006 0 0.013 0 0.020 0 0.219 0 0.405 0.141 0.473 0.337l0.001 0.004c0.11 0.329 0.256 0.929-0.096 1.602-0.3 0.573-0.899 1.231-1.482 1.891 0.582 0.658 1.183 1.309 1.482 1.881 0.352 0.672 0.206 1.272 0.096 1.602-0.070 0.198-0.255 0.337-0.473 0.337-0.083 0-0.162-0.020-0.231-0.057l0.003 0.001c-1.888-0.978-3.767-1.949-4.76-2.518-0.496-0.284-0.774-0.461-0.961-0.619s-0.307-0.392-0.332-0.459c-0.020-0.052-0.032-0.113-0.032-0.177s0.012-0.124 0.033-0.18l-0.001 0.003c0.025-0.067 0.145-0.291 0.332-0.449s0.465-0.337 0.961-0.621c0.993-0.569 2.871-1.548 4.76-2.525 0.056-0.028 0.121-0.046 0.19-0.051h0.001zM7 17.811c0 0 5.962 1.604 9 1.604s9-1.604 9-1.604c0 1.918-1.129 3.709-3.021 4.957v1.23c0 3.296-2.683 5.979-5.979 5.979s-5.979-2.683-5.979-5.979v-1.23c-1.893-1.248-3.021-3.039-3.021-4.957zM11.92 21.492v2.506c0 2.276 1.804 4.078 4.080 4.078s4.080-1.802 4.080-4.078v-2.506h-3.15c0.020 0.683 0.039 1.367 0.059 2.051 0.001 0.017 0.002 0.037 0.002 0.058 0 0.525-0.425 0.95-0.95 0.95s-0.95-0.425-0.95-0.95c0-0.001 0-0.002 0-0.003v0c-0.020-0.702-0.040-1.404-0.061-2.105h-3.109z"></path>
</svg>
