<!-- Generated by IcoMoon.io -->
<svg version="1.1" xmlns="http://www.w3.org/2000/svg" width="32" height="32" viewBox="0 0 32 32">
<title>emoji-baffled-r</title>
<path d="M16 0c-8.819 0-16 7.181-16 16s7.181 16 16 16c8.819 0 16-7.181 16-16s-7.181-16-16-16zM16 3c7.198 0 13 5.802 13 13s-5.802 13-13 13c-7.198 0-13-5.802-13-13s5.802-13 13-13zM9.328 8.805c-2.832 0-5.148 2.318-5.148 5.15s2.316 5.15 5.148 5.15c2.832 0 5.15-2.318 5.15-5.15s-2.318-5.15-5.15-5.15zM22.672 8.998c-2.832 0-5.15 2.316-5.15 5.148s2.318 5.15 5.15 5.15c2.832 0 5.148-2.318 5.148-5.15s-2.316-5.148-5.148-5.148zM9.328 10.805c1.751 0 3.15 1.399 3.15 3.15s-1.399 3.15-3.15 3.15c-1.751 0-3.148-1.399-3.148-3.15s1.397-3.15 3.148-3.15zM22.672 10.998c1.751 0 3.148 1.397 3.148 3.148s-1.397 3.15-3.148 3.15c-1.751 0-3.15-1.399-3.15-3.15s1.399-3.148 3.15-3.148zM9.283 12.557c-0.828 0-1.5 0.672-1.5 1.5v0c0 0.828 0.672 1.5 1.5 1.5v0c0.828 0 1.5-0.672 1.5-1.5v0c0-0.828-0.672-1.5-1.5-1.5v0zM22.666 12.748c-0.828 0-1.5 0.672-1.5 1.5v0c0 0.828 0.672 1.5 1.5 1.5v0c0.828 0 1.5-0.672 1.5-1.5v0c0-0.828-0.672-1.5-1.5-1.5v0zM11.361 22.568c-0.004 0-0.009 0-0.014 0-0.552 0-1 0.448-1 1s0.448 1 1 1c0.005 0 0.010 0 0.015 0h-0.001c3.093-0.001 6.186-0.001 9.277 0 0.004 0 0.009 0 0.014 0 0.552 0 1-0.448 1-1s-0.448-1-1-1c-0.005 0-0.010 0-0.015 0h0.001c-3.091-0.001-6.184-0.001-9.277 0z"></path>
</svg>
