<!-- Generated by IcoMoon.io -->
<svg version="1.1" xmlns="http://www.w3.org/2000/svg" width="32" height="32" viewBox="0 0 32 32">
<title>emoji-dizzy-s</title>
<path d="M16 0c-8.819 0-16 7.181-16 16s7.181 16 16 16c8.819 0 16-7.181 16-16s-7.181-16-16-16zM12.746 8.008c0.006 0 0.014 0 0.021 0 0.635 0 1.15 0.515 1.15 1.15 0 0.328-0.138 0.624-0.358 0.834h-0.001c-0.527 0.527-1.055 1.055-1.582 1.582 0.528 0.528 1.054 1.056 1.582 1.584 0.22 0.21 0.357 0.506 0.357 0.833 0 0.635-0.515 1.15-1.15 1.15-0.328 0-0.624-0.137-0.834-0.358v-0.001c-0.527-0.528-1.055-1.055-1.582-1.582-0.527 0.527-1.055 1.054-1.582 1.582-0.21 0.221-0.506 0.358-0.834 0.358-0.635 0-1.15-0.515-1.15-1.15 0-0.328 0.137-0.623 0.357-0.833v0c0.528-0.528 1.054-1.056 1.582-1.584-0.527-0.527-1.055-1.055-1.582-1.582-0.215-0.209-0.348-0.501-0.348-0.825 0-0.635 0.514-1.149 1.149-1.15v0c0.001 0 0.001 0 0.002 0 0.323 0 0.615 0.133 0.824 0.347v0c0.528 0.527 1.054 1.056 1.582 1.584 0.528-0.528 1.056-1.057 1.584-1.584 0.205-0.216 0.492-0.351 0.811-0.357h0.001zM19.242 8.018c0 0 0 0 0 0 0.323 0 0.615 0.133 0.824 0.347v0c0.528 0.527 1.056 1.056 1.584 1.584 0.528-0.528 1.054-1.057 1.582-1.584 0.208-0.208 0.496-0.337 0.813-0.337 0.635 0 1.15 0.515 1.15 1.15 0 0.318-0.129 0.605-0.337 0.813v0c-0.527 0.527-1.055 1.055-1.582 1.582 0.528 0.528 1.054 1.056 1.582 1.584 0.22 0.21 0.357 0.506 0.357 0.833 0 0.635-0.515 1.15-1.15 1.15-0.328 0-0.624-0.137-0.834-0.358v-0.001c-0.527-0.528-1.055-1.055-1.582-1.582-0.527 0.527-1.055 1.054-1.582 1.582-0.21 0.221-0.506 0.358-0.834 0.358-0.635 0-1.15-0.515-1.15-1.15 0-0.328 0.137-0.623 0.357-0.833v0c0.528-0.528 1.054-1.056 1.582-1.584-0.527-0.527-1.055-1.055-1.582-1.582-0.215-0.209-0.348-0.501-0.348-0.825 0-0.635 0.514-1.149 1.149-1.15v0zM16 17.77c0 0 0 0 0 0 2.292 0 4.15 1.919 4.15 4.287v0c0 2.368-1.858 4.287-4.15 4.287 0 0 0 0 0 0v0c0 0 0 0 0 0-2.292 0-4.15-1.919-4.15-4.287v0c0-2.368 1.858-4.287 4.15-4.287 0 0 0 0 0 0v0z"></path>
</svg>
