<!-- Generated by IcoMoon.io -->
<svg version="1.1" xmlns="http://www.w3.org/2000/svg" width="32" height="32" viewBox="0 0 32 32">
<title>emoji-grin-squint-tears-r</title>
<path d="M4.436 4.436c-5.27 5.27-5.84 13.481-1.735 19.403 0.481-0.768 1.036-1.461 1.626-2.067 0.088-0.090 0.179-0.163 0.268-0.249-2.853-4.748-2.243-10.971 1.857-15.071s10.323-4.71 15.071-1.857c0.086-0.089 0.16-0.18 0.249-0.268 0.605-0.59 1.299-1.145 2.067-1.626-5.922-4.105-14.133-3.535-19.403 1.735zM5.477 15.949c-0.081 0.085-0.132 0.201-0.132 0.328 0 0.077 0.019 0.151 0.051 0.215l-0.001-0.003c0.147 0.295 0.458 0.794 1.146 1.009 0.585 0.183 1.426 0.22 2.258 0.272 0.051 0.832 0.089 1.674 0.272 2.258 0.215 0.688 0.714 0.998 1.009 1.146 0.062 0.031 0.134 0.050 0.211 0.050 0.211 0 0.389-0.137 0.452-0.327l0.001-0.003c0.612-1.926 1.224-3.845 1.509-4.895 0.143-0.524 0.205-0.827 0.224-1.059s-0.052-0.467-0.080-0.529c-0.049-0.107-0.132-0.19-0.236-0.238l-0.003-0.001c-0.062-0.028-0.297-0.099-0.529-0.080s-0.535 0.082-1.059 0.224c-1.049 0.285-2.969 0.897-4.895 1.509-0.079 0.025-0.146 0.068-0.199 0.123v0zM15.924 5.502c-0.044 0.049-0.078 0.108-0.099 0.172l-0.001 0.003c-0.612 1.926-1.223 3.844-1.508 4.893-0.143 0.524-0.205 0.827-0.224 1.059s0.051 0.468 0.079 0.53c0.049 0.107 0.132 0.19 0.236 0.238l0.003 0.001c0.062 0.028 0.298 0.098 0.53 0.079s0.535-0.082 1.059-0.224c1.049-0.285 2.968-0.896 4.893-1.508 0.194-0.063 0.332-0.242 0.332-0.453 0-0.077-0.018-0.15-0.051-0.215l0.001 0.003c-0.147-0.295-0.458-0.794-1.146-1.009-0.585-0.183-1.426-0.22-2.258-0.272-0.051-0.833-0.089-1.673-0.272-2.258-0.215-0.688-0.714-0.998-1.009-1.146-0.062-0.032-0.135-0.050-0.213-0.050-0.14 0-0.265 0.060-0.352 0.156v0zM5.518 22.934c-0.917 0.941-1.727 2.066-2.188 3.35 0-0.002-0.001 0.002-0.002 0.006l-0.002 0.006c-0.002 0.007-0.002 0.015-0.004 0.022-0.385 1.095-0.439 2.372 0.164 3.518 0.698 1.327 2.084 2.164 3.584 2.164s2.886-0.838 3.584-2.164c0.608-1.156 0.551-2.447 0.155-3.551-0.614-1.712-1.849-3.141-3.13-4.227-0.024-0.020-0.061-0.014-0.087-0.032-0.14-0.12-0.323-0.193-0.524-0.193v0c0 0-0.001-0.001-0.001-0.001v0c-0.222 0.001-0.437 0.079-0.606 0.223-0.32 0.271-0.638 0.564-0.944 0.878zM22.934 5.518c-0.314 0.306-0.607 0.623-0.878 0.944-0.144 0.169-0.222 0.384-0.223 0.606 0 0 0.001 0.001 0.001 0.001v0c0 0.001 0 0.001 0 0.002 0 0.201 0.073 0.385 0.195 0.527l-0.001-0.001c0.017 0.024 0.010 0.059 0.029 0.081 1.085 1.281 2.516 2.517 4.228 3.131 1.104 0.396 2.395 0.453 3.551-0.155 1.326-0.698 2.164-2.084 2.164-3.584s-0.837-2.886-2.164-3.584c-1.146-0.603-2.423-0.549-3.518-0.164-0.007 0.002-0.015 0.002-0.022 0.004-0.010 0.003-0.014 0.004-0.017 0.006l0.006-0.002c-1.284 0.46-2.41 1.271-3.35 2.188zM11.829 22.411c-0.182 0.173-0.296 0.418-0.296 0.689 0 0.262 0.106 0.5 0.278 0.672v0c2.035 2.035 4.912 1.88 7.158 1.083 2.631-0.934 4.951-3.253 5.884-5.884 0.797-2.247 0.953-5.123-1.083-7.158-0.172-0.172-0.41-0.278-0.672-0.278-0.338 0-0.635 0.177-0.803 0.442l-0.002 0.004c0 0-2.744 4.308-4.375 5.939s-5.939 4.375-5.939 4.375c-0.057 0.036-0.106 0.074-0.151 0.117v0zM14.174 23.127c1.289-0.83 3.57-2.344 5.089-3.863s3.033-3.8 3.863-5.089c0.59 1.236 0.45 2.719-0.062 4.161-0.704 1.984-2.745 4.025-4.729 4.729-1.442 0.512-2.925 0.651-4.161 0.062zM12.73 27.296c0.096 0.912 0 1.878-0.381 2.816 4.775 0.899 9.902-0.49 13.587-4.176s5.075-8.812 4.176-13.587c-0.938 0.381-1.904 0.477-2.816 0.381 0.795 3.918-0.327 8.143-3.375 11.191s-7.273 4.17-11.191 3.375z"></path>
</svg>
