<!-- Generated by IcoMoon.io -->
<svg version="1.1" xmlns="http://www.w3.org/2000/svg" width="32" height="32" viewBox="0 0 32 32">
<title>emoji-crying-l</title>
<path d="M16 0c-8.826 0-16 7.173-16 16s7.173 16 16 16c8.826 0 16-7.174 16-16s-7.174-16-16-16zM16 1.699c7.908 0 14.301 6.393 14.301 14.301s-6.393 14.301-14.301 14.301c-7.908 0-14.301-6.393-14.301-14.301s6.393-14.301 14.301-14.301zM7.42 7.777c-0.009 0-0.019 0-0.029 0-0.47 0-0.85 0.381-0.85 0.85s0.381 0.85 0.85 0.85c0.010 0 0.019 0 0.029 0h-0.001c1.189 0.001 2.378 0.001 3.564 0 0.008 0 0.018 0 0.027 0 0.47 0 0.85-0.381 0.85-0.85s-0.381-0.85-0.85-0.85c-0.010 0-0.021 0-0.031 0.001h0.002c-1.186 0.001-2.373 0.001-3.561 0zM21.020 7.777c-0.009 0-0.019 0-0.029 0-0.47 0-0.85 0.381-0.85 0.85s0.381 0.85 0.85 0.85c0.010 0 0.019 0 0.029 0h-0.001c1.189 0.001 2.378 0.001 3.564 0 0.008 0 0.018 0 0.027 0 0.47 0 0.85-0.381 0.85-0.85s-0.381-0.85-0.85-0.85c-0.010 0-0.021 0-0.031 0.001h0.002c-1.186 0.001-2.373 0.001-3.561 0zM9.186 11.41c-0.463 0.008-0.836 0.385-0.836 0.85 0 0.005 0 0.009 0 0.014v-0.001c0.001 0.757 0.001 1.517 0 2.275 0 0 0 0.001 0 0.001 0 0.47 0.381 0.851 0.851 0.851s0.85-0.38 0.851-0.85v0c0.001-0.76 0.001-1.521 0-2.279 0-0.003 0-0.007 0-0.011 0-0.469-0.381-0.85-0.85-0.85-0.005 0-0.011 0-0.016 0h0.001zM22.785 11.41c-0.463 0.008-0.836 0.385-0.836 0.85 0 0.005 0 0.009 0 0.014v-0.001c0.001 0.757 0.001 1.517 0 2.275 0 0 0 0.001 0 0.001 0 0.47 0.381 0.851 0.851 0.851s0.85-0.38 0.851-0.85v0c0.001-0.76 0.001-1.521 0-2.279 0-0.003 0-0.007 0-0.011 0-0.469-0.381-0.85-0.85-0.85-0.005 0-0.011 0-0.016 0h0.001zM9.186 17.283c-0.463 0.008-0.836 0.385-0.836 0.85 0 0.005 0 0.009 0 0.014v-0.001c0.001 0.993 0.001 1.988 0 2.982 0 0.47 0.381 0.851 0.851 0.851s0.851-0.381 0.851-0.851v0c0.001-0.996 0.001-1.99 0-2.984 0-0.003 0-0.007 0-0.011 0-0.47-0.381-0.85-0.85-0.85-0.005 0-0.011 0-0.016 0h0.001zM22.787 17.283c-0.464 0.007-0.838 0.385-0.838 0.85 0 0.005 0 0.009 0 0.014v-0.001c0.001 0.993 0.001 1.988 0 2.982 0 0.47 0.381 0.851 0.851 0.851s0.851-0.381 0.851-0.851v0c0.001-0.996 0.001-1.99 0-2.984 0-0.003 0-0.007 0-0.011 0-0.47-0.381-0.85-0.85-0.85-0.005 0-0.009 0-0.014 0h0.001zM16 22.807c-1.919 0-3.667 1.103-4.207 2.838-0.027 0.079-0.043 0.171-0.043 0.265 0 0.464 0.372 0.842 0.835 0.85h0.001c0.004 0 0.008 0 0.013 0 0.384 0 0.708-0.254 0.814-0.603l0.002-0.006c0.283-0.909 1.322-1.645 2.586-1.645s2.303 0.735 2.586 1.645c0.099 0.368 0.429 0.634 0.822 0.634 0.469 0 0.85-0.381 0.85-0.85 0-0.104-0.019-0.204-0.053-0.296l0.002 0.006c-0.541-1.735-2.288-2.838-4.207-2.838z"></path>
</svg>
