<!-- Generated by IcoMoon.io -->
<svg version="1.1" xmlns="http://www.w3.org/2000/svg" width="32" height="32" viewBox="0 0 32 32">
<title>emoji-baffled-l</title>
<path d="M16 0c-8.826 0-16 7.173-16 16s7.173 16 16 16c8.826 0 16-7.174 16-16s-7.174-16-16-16zM16 1.699c7.908 0 14.301 6.393 14.301 14.301s-6.393 14.301-14.301 14.301c-7.908 0-14.301-6.393-14.301-14.301s6.393-14.301 14.301-14.301zM9.328 8.955c-2.751 0-5 2.249-5 5s2.249 5 5 5c2.751 0 5-2.249 5-5s-2.249-5-5-5zM22.672 9.146c-2.751 0-5 2.249-5 5s2.249 5 5 5c2.751 0 5-2.249 5-5s-2.249-5-5-5zM9.328 10.656c1.832 0 3.301 1.466 3.301 3.299s-1.468 3.299-3.301 3.299c-1.832 0-3.299-1.466-3.299-3.299s1.466-3.299 3.299-3.299zM22.672 10.848c1.832 0 3.299 1.466 3.299 3.299s-1.466 3.301-3.299 3.301c-1.832 0-3.301-1.468-3.301-3.301s1.468-3.299 3.301-3.299zM9.283 12.557c-0.828 0-1.5 0.672-1.5 1.5v0c0 0.828 0.672 1.5 1.5 1.5v0c0.828 0 1.5-0.672 1.5-1.5v0c0-0.828-0.672-1.5-1.5-1.5v0zM22.666 12.748c-0.828 0-1.5 0.672-1.5 1.5v0c0 0.828 0.672 1.5 1.5 1.5v0c0.828 0 1.5-0.672 1.5-1.5v0c0-0.828-0.672-1.5-1.5-1.5v0zM11.361 22.568c-0.004 0-0.009 0-0.014 0-0.552 0-1 0.448-1 1s0.448 1 1 1c0.005 0 0.010 0 0.015 0h-0.001c3.093-0.001 6.186-0.001 9.277 0 0.004 0 0.009 0 0.014 0 0.552 0 1-0.448 1-1s-0.448-1-1-1c-0.005 0-0.010 0-0.015 0h0.001c-3.091-0.001-6.184-0.001-9.277 0z"></path>
</svg>
