<!-- Generated by IcoMoon.io -->
<svg version="1.1" xmlns="http://www.w3.org/2000/svg" width="32" height="32" viewBox="0 0 32 32">
<title>emoji-frustrated-s</title>
<path d="M16 0c-8.82 0-16 7.18-16 16s7.18 16 16 16c8.82 0 16-7.18 16-16s-7.18-16-16-16zM9.465 8.855c0.014-0.001 0.031-0.001 0.048-0.001s0.034 0 0.050 0.001h-0.002c0.244 0.010 0.47 0.081 0.664 0.199l-0.006-0.003c0.974 0.564 1.95 1.127 2.926 1.689 0.001 0.001 0.001 0.001 0.002 0.002v0c0.874 0.395 1.471 1.258 1.473 2.262v0c0 0 0 0 0 0 0 1.369-1.11 2.478-2.478 2.478 0 0 0 0 0 0v0c0 0 0 0 0 0-1.369 0-2.478-1.11-2.478-2.478 0 0 0 0 0 0v0c0-0.346 0.071-0.675 0.2-0.973l-0.006 0.016c-0.342-0.198-0.686-0.396-1.027-0.594-0.426-0.243-0.708-0.693-0.708-1.21 0-0.751 0.597-1.363 1.343-1.387h0.002zM22.438 8.855c0.017-0.001 0.037-0.001 0.057-0.001 0.767 0 1.388 0.621 1.388 1.388 0 0.519-0.284 0.971-0.706 1.209l-0.007 0.004c-0.342 0.198-0.683 0.394-1.025 0.592 0.121 0.282 0.191 0.61 0.191 0.955 0 0.001 0 0.001 0 0.002v0c0 0 0 0 0 0 0 1.369-1.11 2.478-2.478 2.478 0 0 0 0 0 0v0c-1.368-0.001-2.477-1.11-2.477-2.478 0 0 0 0 0 0v0c0.001-1.003 0.598-1.866 1.455-2.255l0.016-0.006c0.001-0.001 0.001-0.001 0.002-0.002v0c0.976-0.562 1.952-1.126 2.926-1.689 0.188-0.114 0.414-0.186 0.656-0.195h0.003zM10.316 18.16h1.584c0.001 1.81 0.001 3.62 0 5.432-0.779 0.183-1.52 0.371-1.613 0.396-1.555-0.018-2.787-1.244-2.787-2.805v-0.207c0-1.572 1.245-2.816 2.816-2.816zM13.6 18.16h4.801c0.001 1.693 0.001 3.387 0 5.082-0.845-0.155-1.691-0.283-2.4-0.283s-1.556 0.128-2.4 0.283c0.001-1.695 0.001-3.389 0-5.082zM20.1 18.16h1.584c1.572 0 2.816 1.245 2.816 2.816v0.207c0 1.56-1.232 2.787-2.787 2.805-0.093-0.026-0.834-0.213-1.613-0.396 0.001-1.811 0.001-3.622 0-5.432z"></path>
</svg>
