<!-- Generated by IcoMoon.io -->
<svg version="1.1" xmlns="http://www.w3.org/2000/svg" width="32" height="32" viewBox="0 0 32 32">
<title>emoji-tongue-squint-l</title>
<path d="M16 0c-8.826 0-16 7.173-16 16s7.173 16 16 16c8.826 0 16-7.174 16-16s-7.174-16-16-16zM16 1.699c7.908 0 14.301 6.393 14.301 14.301s-6.393 14.301-14.301 14.301c-7.908 0-14.301-6.393-14.301-14.301s6.393-14.301 14.301-14.301zM8.219 9.012c-0.11 0.329-0.22 0.659 0.070 1.213s0.981 1.335 1.67 2.115c-0.689 0.78-1.38 1.561-1.67 2.115s-0.18 0.884-0.070 1.213c1.888-0.978 3.777-1.955 4.746-2.51s1.021-0.687 1.070-0.818c-0.050-0.131-0.101-0.263-1.070-0.818s-2.858-1.532-4.746-2.51zM23.781 9.012c-1.888 0.978-3.776 1.955-4.746 2.51s-1.021 0.687-1.070 0.818c0.050 0.131 0.101 0.263 1.070 0.818s2.858 1.532 4.746 2.51c0.11-0.329 0.22-0.659-0.070-1.213s-0.981-1.335-1.67-2.115c0.689-0.78 1.38-1.561 1.67-2.115s0.18-0.884 0.070-1.213zM7 17.811c0 1.953 1.167 3.775 3.121 5.025v1.162c0 3.242 2.637 5.879 5.879 5.879s5.879-2.637 5.879-5.879v-1.162c1.954-1.25 3.121-3.073 3.121-5.025 0 0-5.962 1.604-9 1.604s-9-1.604-9-1.604zM11.82 21.393h3.307c0.021 0.733 0.041 1.467 0.063 2.201 0.006 0.465 0.384 0.84 0.85 0.84 0.47 0 0.85-0.381 0.85-0.85 0-0.014 0-0.027-0.001-0.041v0.002c-0.021-0.718-0.042-1.436-0.063-2.152h3.354v2.605c0 2.33-1.85 4.18-4.18 4.18s-4.18-1.85-4.18-4.18v-2.605z"></path>
</svg>
