<!-- Generated by IcoMoon.io -->
<svg version="1.1" xmlns="http://www.w3.org/2000/svg" width="32" height="32" viewBox="0 0 32 32">
<title>emoji-grin-sweet-l</title>
<path d="M16 0c-8.827 0-16 7.173-16 16s7.173 16 16 16c8.827 0 16-7.173 16-16 0 0 0-0.001 0-0.001s0-0.001 0-0.001v0c-0.003-2.211-0.521-4.375-1.41-6.395 0.373-0.333 0.694-0.727 0.934-1.182 0.076-0.144 0.14-0.289 0.195-0.436 0.052-0.136 0.094-0.274 0.131-0.412 0-0.002 0-0.004 0-0.006 0.246-0.925 0.155-1.88-0.129-2.74-0.008-0.041-0.014-0.083-0.027-0.123-0.005-0.011-0.007-0.017-0.010-0.023l0.002 0.005c0 0 0-0.001 0-0.001s0-0.001 0-0.001v0c-0.484-1.351-1.338-2.537-2.303-3.527-0.322-0.33-0.655-0.638-0.992-0.924-0.104-0.088-0.228-0.145-0.357-0.184-0.082-0.031-0.176-0.049-0.275-0.051h-0.001c-0.001 0-0.001 0-0.002 0s-0.001 0-0.002 0v0c0 0-0.001 0-0.001 0s-0.001 0-0.001 0v0c-0.051 0-0.099 0.020-0.148 0.027-0.065 0.010-0.132 0.011-0.193 0.033-0.015 0.006-0.026 0.019-0.041 0.025-0.091 0.039-0.181 0.084-0.258 0.148 0 0-0.001 0-0.001 0s-0.001 0-0.001 0v0c-0.093 0.078-0.178 0.17-0.268 0.254-0.745 0.663-1.469 1.423-2.055 2.297-2.611-1.743-5.633-2.779-8.785-2.785 0 0-0.001 0-0.001 0s-0.001 0-0.001 0v0zM15.998 1.699h0.002c2.867 0.006 5.655 0.885 8.016 2.494-0.071 0.162-0.141 0.325-0.201 0.492-0.417 1.162-0.476 2.52 0.164 3.736 0.735 1.396 2.193 2.279 3.771 2.279 0.484 0 0.952-0.093 1.396-0.248 0.743 1.756 1.152 3.637 1.154 5.549-0.001 7.907-6.394 14.299-14.301 14.299s-14.301-6.393-14.301-14.301c0-7.907 6.392-14.3 14.299-14.301zM27.779 2.039c0.1 0.095 0.193 0.197 0.291 0.295 0.142 0.143 0.287 0.282 0.422 0.432 0.009 0.010 0.016 0.021 0.025 0.031 0.218 0.243 0.426 0.492 0.617 0.75 0.199 0.268 0.382 0.544 0.541 0.826 0 0 0 0.002 0 0.002 0.159 0.283 0.294 0.572 0.4 0.867 0.006 0.020 0.011 0.035 0.015 0.049l-0.002-0.006c0.072 0.205 0.128 0.411 0.164 0.613 0.072 0.405 0.068 0.802-0.025 1.18 0 0 0 0.002 0 0.002-0.047 0.188-0.116 0.372-0.209 0.549 0 0 0 0.002 0 0.002s-0.002 0-0.002 0c-0.106 0.202-0.24 0.385-0.395 0.549-0.084 0.088-0.186 0.157-0.281 0.232-0.451 0.361-1.007 0.59-1.592 0.59-0.937 0-1.831-0.542-2.268-1.371-0.378-0.719-0.362-1.546-0.066-2.371 0.21-0.585 0.537-1.149 0.93-1.684 0.421-0.55 0.925-1.057 1.434-1.537zM10.5 8.977c-1.806 0-3.213 1.556-3.721 3.563-0.018 0.066-0.029 0.142-0.029 0.22 0 0.451 0.351 0.819 0.794 0.848h0.003c0.016 0.001 0.035 0.002 0.054 0.002 0.4 0 0.735-0.276 0.826-0.648l0.001-0.006c0.379-1.498 1.287-2.277 2.072-2.277s1.693 0.779 2.072 2.277c0.090 0.38 0.427 0.658 0.828 0.658 0.47 0 0.85-0.381 0.85-0.85 0-0.080-0.011-0.157-0.031-0.23l0.001 0.006c-0.508-2.007-1.915-3.563-3.721-3.563zM21.5 8.977c-1.806 0-3.213 1.556-3.721 3.563-0.018 0.066-0.029 0.142-0.029 0.22 0 0.451 0.351 0.819 0.794 0.848h0.003c0.016 0.001 0.035 0.002 0.054 0.002 0.4 0 0.735-0.276 0.826-0.648l0.001-0.006c0.379-1.498 1.287-2.277 2.072-2.277s1.693 0.779 2.072 2.277c0.090 0.38 0.427 0.658 0.828 0.658 0.47 0 0.85-0.381 0.85-0.85 0-0.080-0.011-0.157-0.031-0.23l0.001 0.006c-0.508-2.007-1.915-3.563-3.721-3.563zM8.121 19.029c-0.006 0-0.014 0-0.021 0-0.469 0-0.85 0.38-0.85 0.85v0c0 2.955 2.199 4.933 4.436 5.998 2.604 1.24 6.025 1.24 8.629 0 2.236-1.065 4.436-3.043 4.436-5.998 0-0.469-0.381-0.85-0.85-0.85-0.068 0-0.134 0.008-0.197 0.023l0.006-0.001c0 0-5.237 1.168-7.709 1.168s-7.709-1.168-7.709-1.168c-0.050-0.012-0.109-0.020-0.169-0.021h-0.001zM9.152 20.963c1.453 0.319 4.509 0.955 6.848 0.955s5.394-0.636 6.848-0.955c-0.436 1.524-1.709 2.641-3.264 3.381-2.050 0.976-5.118 0.976-7.168 0-1.555-0.74-2.827-1.857-3.264-3.381z"></path>
</svg>
