<!-- Generated by IcoMoon.io -->
<svg version="1.1" xmlns="http://www.w3.org/2000/svg" width="40" height="32" viewBox="0 0 40 32">
<title>emoji-grin-tears-s</title>
<path d="M19.8 0c-8.031 0-14.684 5.962-15.813 13.686 0.952-0.237 1.913-0.354 2.836-0.365 0.504-0.006 0.997 0.013 1.473 0.053h0.002c0.528 0.044 1.021 0.274 1.395 0.645-0.002-0.003 0-0.001 0.001 0.001l0.003 0.005c0.133 0.134 0.236 0.298 0.298 0.481l0.003 0.009c0.031 0.079 0.142 0.208 0.17 0.277 0.039 0.097 0.069 0.183 0.094 0.258 0.012 0.037 0.022 0.071 0.033 0.109s0.024-0.064 0.051 0.268c0.157 1.904 0.018 4.098-0.932 6.109-0.589 1.247-1.622 2.43-3.104 3.029 2.843 4.461 7.823 7.436 13.49 7.436s10.647-2.975 13.49-7.436c-1.482-0.6-2.515-1.782-3.104-3.029-0.951-2.013-1.089-4.208-0.932-6.113 0.029-0.345 0.040-0.23 0.051-0.268s0.021-0.070 0.033-0.107c0.024-0.074 0.053-0.157 0.092-0.254 0.028-0.069 0.139-0.198 0.17-0.275 0.065-0.195 0.17-0.362 0.307-0.498v0c0 0 0-0.001 0-0.001s0-0.001 0-0.001v0c0.373-0.371 0.867-0.601 1.395-0.645 0.476-0.039 0.97-0.059 1.475-0.053 0.923 0.012 1.883 0.128 2.836 0.365-1.129-7.724-7.782-13.685-15.813-13.685zM14.3 8.828c1.896 0 3.346 1.622 3.865 3.674 0.026 0.085 0.041 0.183 0.041 0.284 0 0.552-0.448 1-1 1-0.479 0-0.88-0.337-0.977-0.788l-0.001-0.007c-0.368-1.454-1.232-2.164-1.928-2.164s-1.56 0.71-1.928 2.164c-0.105 0.432-0.481 0.75-0.934 0.768h-0.002c-0.011 0-0.023 0.001-0.036 0.001-0.552 0-1-0.448-1-1 0-0.092 0.012-0.181 0.036-0.265l-0.002 0.007c0.519-2.052 1.969-3.674 3.865-3.674zM25.3 8.828c1.896 0 3.346 1.622 3.865 3.674 0.026 0.085 0.041 0.183 0.041 0.284 0 0.552-0.448 1-1 1-0.479 0-0.88-0.337-0.977-0.788l-0.001-0.007c-0.368-1.454-1.232-2.164-1.928-2.164s-1.56 0.71-1.928 2.164c-0.105 0.432-0.481 0.75-0.934 0.768h-0.002c-0.011 0-0.023 0.001-0.036 0.001-0.552 0-1-0.448-1-1 0-0.092 0.012-0.181 0.036-0.265l-0.002 0.007c0.519-2.052 1.969-3.674 3.865-3.674zM6.839 14.57c-1.382 0.018-2.823 0.252-4.121 0.865-0.009 0.004-0.013 0.006-0.016 0.008l0.005-0.002c-0.007 0.004-0.013 0.010-0.020 0.014-1.101 0.528-2.092 1.439-2.496 2.74-0.468 1.506-0.059 3.161 1.057 4.277s2.771 1.524 4.277 1.057c1.313-0.408 2.231-1.411 2.758-2.527 0.817-1.73 0.961-3.714 0.816-5.475-0.003-0.033-0.035-0.055-0.041-0.088-0.017-0.21-0.108-0.395-0.246-0.533v0c0 0 0-0.001 0-0.001s0-0.001 0-0.001v0c-0.166-0.165-0.384-0.266-0.617-0.285-0.44-0.036-0.895-0.055-1.355-0.049zM32.761 14.57c-0.461-0.006-0.915 0.012-1.355 0.049-0.233 0.019-0.451 0.12-0.617 0.285 0 0 0 0.001 0 0.001s0 0.001 0 0.001v0c-0.14 0.139-0.231 0.326-0.248 0.534v0.003c-0.006 0.030-0.036 0.051-0.039 0.082-0.145 1.761-0.001 3.746 0.816 5.477 0.527 1.116 1.445 2.12 2.758 2.527 1.506 0.468 3.161 0.059 4.277-1.057s1.525-2.771 1.057-4.277c-0.404-1.301-1.395-2.212-2.496-2.74-0.007-0.004-0.012-0.010-0.020-0.014 0.001 0-0.003-0.002-0.007-0.004l-0.005-0.002c-1.298-0.613-2.739-0.848-4.121-0.865zM11.925 18.879c0.072 0.002 0.14 0.011 0.206 0.027l-0.007-0.001c0 0 5.248 1.164 7.676 1.164s7.676-1.164 7.676-1.164c0.067-0.016 0.145-0.026 0.224-0.026 0.552 0 1 0.448 1 1 0 0 0 0 0 0v0c0 3.029-2.256 5.054-4.521 6.133-2.653 1.263-6.105 1.263-8.758 0-2.265-1.079-4.521-3.104-4.521-6.133 0 0 0 0 0 0 0-0.552 0.448-1 1-1 0.009 0 0.018 0 0.027 0h-0.001z"></path>
</svg>
