<!-- Generated by IcoMoon.io -->
<svg version="1.1" xmlns="http://www.w3.org/2000/svg" width="32" height="32" viewBox="0 0 32 32">
<title>emoji-sad-tear-s</title>
<path d="M16 0c-8.819 0-16 7.181-16 16s7.181 16 16 16c8.819 0 16-7.181 16-16s-7.181-16-16-16zM10.4 10.945c1.075 0 1.949 0.875 1.949 1.949s-0.875 1.951-1.949 1.951c-1.075 0-1.951-0.877-1.951-1.951s0.877-1.949 1.951-1.949zM21.6 10.945c1.075 0 1.951 0.875 1.951 1.949s-0.877 1.951-1.951 1.951c-1.075 0-1.949-0.877-1.949-1.951s0.875-1.949 1.949-1.949zM10.396 17.238c0.001 0 0.002 0 0.003 0s0.002 0 0.003 0v0c0.149 0 0.293 0.054 0.406 0.15 1.223 1.036 2.395 2.4 2.969 4 0 0 0.001 0.003 0.001 0.007l0.001 0.003c0.004 0.011 0.005 0.022 0.008 0.033 0.352 1.009 0.397 2.16-0.145 3.189-0.63 1.198-1.888 1.959-3.242 1.959s-2.61-0.761-3.24-1.959c-0.549-1.043-0.5-2.211-0.135-3.23 0.574-1.6 1.746-2.966 2.969-4.002 0.023-0.019 0.057-0.013 0.082-0.029 0.086-0.074 0.197-0.12 0.32-0.121v0zM16 18.070c3.303 0 6.358 1.765 8.010 4.625 0.084 0.143 0.134 0.316 0.134 0.5 0 0.552-0.448 1-1 1-0.368 0-0.69-0.199-0.864-0.495l-0.003-0.005c-1.296-2.244-3.686-3.625-6.277-3.625-0.287 0-0.571 0.021-0.852 0.055-0.3-0.664-0.673-1.271-1.086-1.83 0.632-0.136 1.277-0.225 1.938-0.225z"></path>
</svg>
