<!-- Generated by IcoMoon.io -->
<svg version="1.1" xmlns="http://www.w3.org/2000/svg" width="32" height="32" viewBox="0 0 32 32">
<title>emoji-tongue-s</title>
<path d="M16 0c-8.819 0-16 7.181-16 16s7.181 16 16 16c8.819 0 16-7.181 16-16s-7.181-16-16-16zM10.4 10.945c1.075 0 1.949 0.875 1.949 1.949s-0.875 1.951-1.949 1.951c-1.075 0-1.951-0.877-1.951-1.951s0.877-1.949 1.951-1.949zM21.6 10.945c1.075 0 1.951 0.875 1.951 1.949s-0.877 1.951-1.951 1.951c-1.075 0-1.949-0.877-1.949-1.951s0.875-1.949 1.949-1.949zM9.473 19.398c0.006 0 0.013 0 0.021 0s0.014 0 0.022 0h-0.001c2.658-0.001 5.315 0 7.973 0 1.667 0 3.334 0 5 0 0.020 0 0.040 0.001 0.060 0.002h-0.003c0.002 0 0.004 0 0.007 0s0.005 0 0.007 0v0c0.028 0.002 0.052 0.005 0.076 0.009l-0.006-0.001c0.009 0.003 0.011 0.003 0.013 0.004l-0.007-0.002c0.030 0.005 0.055 0.009 0.079 0.015l-0.007-0.001c0.013 0.002 0.020 0.004 0.026 0.005l-0.007-0.001c0.017 0.004 0.027 0.007 0.036 0.010l-0.007-0.002c0.030 0.008 0.053 0.016 0.075 0.024l-0.007-0.002c0.016 0.005 0.025 0.009 0.034 0.012l-0.007-0.002c0.015 0.006 0.023 0.010 0.031 0.014l-0.006-0.003c0.028 0.012 0.049 0.021 0.070 0.032l-0.006-0.003c0.027 0.013 0.047 0.024 0.067 0.036l-0.005-0.003c0.008 0.005 0.011 0.007 0.015 0.010l-0.003-0.002c0.024 0.015 0.044 0.029 0.063 0.043l-0.003-0.002c0.005 0.004 0.008 0.007 0.012 0.009l-0.002-0.001c0.011 0.008 0.018 0.013 0.026 0.019l-0.002-0.002c0.006 0.006 0.012 0.010 0.017 0.015l-0.001-0.001c0.021 0.017 0.039 0.033 0.057 0.049l-0.001-0.001c0.001 0.001 0.003 0.003 0.004 0.004v0c0.017 0.016 0.033 0.033 0.048 0.050l0.001 0.001c-0.001-0.002 0 0 0.002 0.002l0.002 0.004c0.019 0.021 0.037 0.043 0.055 0.066l0.002 0.002c-0.002-0.004-0.001-0.003-0.001-0.002l0.003 0.006c0 0 0 0.001 0 0.001s0 0.001 0 0.001v0c0.012 0.016 0.026 0.036 0.039 0.056l0.002 0.004c0.002 0.003 0.007 0.010 0.011 0.017l0.002 0.004c0.002 0.003 0.007 0.012 0.011 0.020l0.003 0.005c-0.002-0.004-0.001-0.003-0.001-0.002l0.003 0.006c0.012 0.020 0.025 0.046 0.037 0.072l0.003 0.006c-0.001-0.003 0 0 0.001 0.002l0.003 0.006c0-0.003 0.001 0.002 0.002 0.007l0.002 0.007c0.009 0.019 0.018 0.046 0.027 0.073l0.002 0.007c0.007 0.020 0.015 0.049 0.022 0.077l0.001 0.007c0-0.002 0 0.002 0.001 0.006l0.001 0.006c0 0.001 0.002 0.008 0.003 0.015l0.001 0.006c0.004 0.020 0.007 0.047 0.009 0.074v0.004c0.003 0.027 0.005 0.059 0.006 0.091v0.001c0 0.001 0 0.003 0 0.004s0 0.003 0 0.004v0 1.529c0 1.922-1.581 3.5-3.502 3.5s-3.498-1.579-3.498-3.5v-0.529c-2.324 0-4.648-0.001-6.973 0-0.006 0-0.013 0-0.020 0-0.552 0-1-0.448-1-1 0-0.545 0.436-0.988 0.978-1h0.001z"></path>
</svg>
