<!-- Generated by IcoMoon.io -->
<svg version="1.1" xmlns="http://www.w3.org/2000/svg" width="32" height="32" viewBox="0 0 32 32">
<title>emoji-in-love-l</title>
<path d="M16 0c-8.826 0-16 7.173-16 16s7.173 16 16 16c8.826 0 16-7.174 16-16s-7.174-16-16-16zM16 1.699c7.908 0 14.301 6.393 14.301 14.301s-6.393 14.301-14.301 14.301c-7.908 0-14.301-6.393-14.301-14.301s6.393-14.301 14.301-14.301zM11.83 7.225c-0.238 0.013-0.47 0.060-0.686 0.135-0.006 0.003-0.007 0.004-0.009 0.004l0.005-0.002c-0.429 0.152-0.801 0.403-1.125 0.703-0.455 0.421-0.7 0.985-0.951 1.533-0.6-0.056-1.212-0.127-1.805 0.057-0.010 0.004-0.015 0.006-0.019 0.008l0.005-0.002c-0.138 0.045-0.283 0.109-0.428 0.174-0.008 0.002-0.010 0.003-0.012 0.004l0.006-0.002c-0.069 0.020-0.13 0.045-0.186 0.076l0.004-0.002c-0.18 0.098-0.366 0.216-0.545 0.371 0 0-0.002 0.002-0.002 0.002s-0.002 0.002-0.002 0.002c-0.345 0.299-0.625 0.707-0.754 1.188-0.239 0.893 0 1.794 0.49 2.471 0.491 0.68 1.219 1.177 2.055 1.4l4.512 1.209c0.066 0.018 0.142 0.029 0.22 0.029 0.391 0 0.721-0.265 0.82-0.625l0.001-0.006 1.209-4.512c0.224-0.835 0.158-1.714-0.186-2.479-0.341-0.763-1.002-1.423-1.895-1.662-0.241-0.065-0.486-0.087-0.725-0.074zM20.17 7.225c-0.238-0.013-0.483 0.010-0.725 0.074-0.893 0.239-1.553 0.899-1.895 1.662-0.343 0.765-0.409 1.643-0.186 2.479l1.209 4.512c0.1 0.366 0.43 0.63 0.821 0.63 0.078 0 0.154-0.011 0.226-0.030l-0.006 0.001 4.512-1.209c0.834-0.223 1.562-0.72 2.053-1.398s0.732-1.579 0.492-2.473c-0.129-0.481-0.409-0.889-0.754-1.188l-0.002-0.002c-0.18-0.156-0.367-0.275-0.547-0.373-0.053-0.029-0.114-0.055-0.178-0.073l-0.006-0.001c-0.146-0.065-0.292-0.13-0.432-0.176 0.001 0-0.004-0.002-0.008-0.004l-0.006-0.002c-0.592-0.184-1.204-0.113-1.805-0.057-0.251-0.547-0.495-1.111-0.949-1.531-0.325-0.301-0.697-0.553-1.127-0.705 0.004 0.002 0.002 0.001 0.001 0l-0.005-0.002c-0.216-0.075-0.447-0.122-0.686-0.135zM11.916 8.92c0.067-0.004 0.132 0.003 0.199 0.021 0.369 0.099 0.612 0.331 0.783 0.713 0 0 0 0.001 0 0.001s0 0.001 0 0.001v0c0.17 0.378 0.216 0.892 0.096 1.342l-0.99 3.691-3.691-0.988c-0.45-0.12-0.873-0.416-1.115-0.752-0.001-0.001-0.001-0.001-0.002-0.002v0c-0.246-0.339-0.325-0.666-0.227-1.035 0 0 0.001 0 0.001 0s0.001 0 0.001 0v0c0.036-0.134 0.1-0.237 0.225-0.344 0.001-0.001 0.003-0.003 0.004-0.004v0c0.050-0.044 0.126-0.093 0.217-0.145 0.002-0.001 0.004-0.001 0.006-0.002 0.007-0.004 0.010-0.005 0.013-0.006l-0.005 0.002c0.086-0.044 0.201-0.091 0.334-0.135 0.465-0.144 1.098-0.158 1.57-0.047 0.053 0.013 0.114 0.022 0.177 0.023h0.001c0 0-0.009-0.002-0.010-0.002 0.001 0 0.003 0 0.005 0 0.020 0 0.040-0.001 0.060-0.002h-0.003c-0.017 0.001-0.037 0.004-0.041 0.004 0.003 0 0.006 0 0.010 0 0.045 0 0.090-0.004 0.134-0.010l-0.005 0.001c-0.009 0.001-0.025 0-0.047 0.002 0.020-0.001 0.038-0.002 0.056-0.004h-0.004c0.021-0.004 0.037-0.007 0.053-0.011l-0.006 0.001c0.015-0.003 0.025-0.005 0.035-0.007l-0.006 0.001c0.006-0.003 0.007-0.004 0.009-0.004l-0.005 0.002c0.033-0.009 0.060-0.017 0.086-0.027l-0.006 0.002c0.014-0.004 0.022-0.007 0.029-0.010l-0.006 0.002c-0.001 0-0.009 0.001-0.012 0.002 0.033-0.012 0.059-0.024 0.085-0.037l-0.005 0.002c0.024-0.012 0.043-0.024 0.062-0.035l-0.004 0.002c0.001-0.001 0.001-0.001 0.002-0.002v0c0.026-0.016 0.048-0.031 0.069-0.046l-0.002 0.002c0.001-0.001 0.003-0.003 0.004-0.004v0c0.006-0.005 0.011-0.010 0.016-0.014l-0.001 0.001c0.005-0.004 0.008-0.006 0.011-0.009l-0.002 0.001c0.013-0.011 0.024-0.021 0.036-0.032v0c0.006-0.003 0.007-0.004 0.009-0.004l-0.005 0.002c0.020-0.019 0.038-0.038 0.056-0.058l0.001-0.001c0.001-0.001 0.001-0.001 0.002-0.002v0c0.003-0.004 0.008-0.010 0.012-0.015l0.002-0.002c0.002-0.003 0.006-0.008 0.010-0.013l0.002-0.002c0.008-0.010 0.017-0.021 0.026-0.033l0.002-0.002c0.013-0.019 0.028-0.041 0.041-0.064l0.002-0.004c0.001-0.001 0.001-0.001 0.002-0.002v0c0.011-0.019 0.022-0.044 0.033-0.069l0.002-0.006c0.001-0.001 0.001-0.001 0.002-0.002v0c0.009-0.019 0.019-0.044 0.028-0.070l0.002-0.006c-0.002 0.004-0.001 0.002 0 0.001l0.002-0.005c0 0 0.002-0.006 0.003-0.012l0.001-0.006c0.14-0.464 0.47-1.007 0.826-1.336 0 0 0-0.001 0-0.001s0-0.001 0-0.001v0c0.188-0.175 0.375-0.289 0.533-0.346 0.078-0.027 0.146-0.041 0.213-0.045zM20.082 8.92c0.066 0.004 0.134 0.019 0.211 0.045 0.159 0.056 0.348 0.17 0.537 0.346 0 0 0 0.001 0 0.001s0 0.001 0 0.001v0c0.355 0.328 0.681 0.867 0.822 1.33 0 0.001 0.002 0.003 0.002 0.004 0.003 0.006 0.004 0.007 0.004 0.009l-0.002-0.005c0.006 0.022 0.012 0.039 0.017 0.055l-0.002-0.006c0.010 0.025 0.018 0.045 0.028 0.064l-0.002-0.005c0.008 0.019 0.014 0.031 0.020 0.044l-0.002-0.005c0.003 0.005 0.005 0.007 0.007 0.010l-0.002-0.002c0.013 0.025 0.025 0.045 0.037 0.064l-0.002-0.003c0.006 0.011 0.011 0.018 0.016 0.025l-0.002-0.003c0.012 0.018 0.023 0.032 0.035 0.047l-0.001-0.002c0.003 0.006 0.004 0.007 0.004 0.009l-0.002-0.005 0.002 0.002c0.003 0.006 0.004 0.007 0.004 0.009l-0.002-0.005c0.014 0.016 0.027 0.031 0.041 0.045v0c0.019 0.021 0.039 0.040 0.060 0.058l0.001 0.001c0.005 0.004 0.011 0.009 0.018 0.014l0.002 0.001c0.011 0.009 0.023 0.018 0.035 0.028l0.002 0.002c0.002 0.001 0.005 0.004 0.008 0.006l0.002 0.001c0.011 0.008 0.024 0.017 0.038 0.025l0.003 0.002c0.007 0.005 0.017 0.011 0.027 0.017l0.004 0.002c0.037 0.021 0.080 0.041 0.125 0.057l0.006 0.002c0.002 0.001 0.010 0.005 0.018 0.008l0.006 0.002c0.033 0.012 0.073 0.023 0.114 0.030l0.005 0.001c0 0-0.021-0.005-0.029-0.008 0.013 0.003 0.031 0.006 0.050 0.009l0.005 0.001c-0.007-0.001-0.025-0.002-0.025-0.002 0.011 0.002 0.027 0.004 0.043 0.006h0.004c0.025 0.003 0.054 0.005 0.083 0.006h0.001c0.005 0 0.010 0 0.016 0s0.011 0 0.016 0h-0.001c0.009-0.001 0.013-0.002 0.017-0.003l-0.005 0.001c0.064-0.001 0.125-0.009 0.183-0.023l-0.006 0.001c0.471-0.109 1.1-0.096 1.563 0.047 0.133 0.044 0.248 0.090 0.334 0.135-0.001 0 0.004 0.002 0.008 0.004l0.006 0.002c0.091 0.052 0.167 0.101 0.217 0.145 0.001 0.001 0.003 0.003 0.004 0.004v0c0.124 0.107 0.189 0.209 0.225 0.344 0.099 0.369 0.021 0.696-0.225 1.035-0.001 0.001-0.001 0.001-0.002 0.002v0c-0.242 0.336-0.666 0.632-1.115 0.752l-3.691 0.988-0.99-3.691c-0.121-0.45-0.074-0.964 0.096-1.342 0 0 0-0.001 0-0.001s0-0.001 0-0.001v0c0.171-0.382 0.415-0.614 0.783-0.713 0.067-0.018 0.131-0.025 0.197-0.021zM10.266 9.982h0.002c0.001 0.002 0.014 0.022 0.014 0.021v0.006c0 0-0.003-0.007-0.004-0.008-0.004-0.008-0.008-0.012-0.010-0.016 0 0 0.002 0.007 0.002 0.008-0.001-0.002-0.006-0.008-0.008-0.010h0.004c0 0 0-0.002 0-0.002zM10.363 10.57c0 0.001 0 0.010 0 0.010s-0.002 0.004-0.002 0.004c0 0 0.001-0.005 0.001-0.009l0.001-0.004zM23.273 10.678h0.002c0 0-0.007 0.020-0.014 0.035 0.002-0.006 0.006-0.017 0.010-0.029l0.002-0.006zM23.25 10.74c-0.011 0.025-0.021 0.051-0.021 0.051s-0.012 0.024-0.016 0.029c0-0.001 0.002-0.007 0.002-0.008 0.004-0.007 0.010-0.019 0.015-0.032l0.002-0.005c0 0-0.009 0.011-0.010 0.012 0.001-0.004 0.004-0.009 0.006-0.014l0.004 0.002c0.004-0.007 0.010-0.018 0.015-0.030l0.002-0.005zM8.773 10.787c0.003 0.010 0.004 0.014 0.006 0.018l-0.002-0.006 0.004-0.002c0.001 0.003 0.005 0.012 0.006 0.014 0-0.001-0.006-0.006-0.006-0.006s0.004 0.008 0.008 0.016c0 0.001 0.004 0.009 0.004 0.010 0.002 0.003-0.024-0.041-0.023-0.041l0.004-0.002zM8.121 19.029c-0.006 0-0.014 0-0.021 0-0.469 0-0.85 0.38-0.85 0.85v0c0 2.955 2.199 4.933 4.436 5.998 2.604 1.24 6.025 1.24 8.629 0 2.236-1.065 4.436-3.043 4.436-5.998 0-0.469-0.381-0.85-0.85-0.85-0.068 0-0.134 0.008-0.197 0.023l0.006-0.001c0 0-5.237 1.168-7.709 1.168s-7.709-1.168-7.709-1.168c-0.050-0.012-0.109-0.020-0.169-0.021h-0.001zM9.152 20.963c1.453 0.319 4.509 0.955 6.848 0.955s5.394-0.636 6.848-0.955c-0.436 1.524-1.709 2.641-3.264 3.381-2.050 0.976-5.118 0.976-7.168 0-1.555-0.74-2.827-1.857-3.264-3.381z"></path>
</svg>
