<!-- Generated by IcoMoon.io -->
<svg version="1.1" xmlns="http://www.w3.org/2000/svg" width="32" height="32" viewBox="0 0 32 32">
<title>emoji-tongue-wink-r</title>
<path d="M16 0c-8.819 0-16 7.181-16 16s7.181 16 16 16c8.819 0 16-7.181 16-16s-7.181-16-16-16zM16 3c7.198 0 13 5.802 13 13 0 5.76-3.721 10.618-8.895 12.332 1.15-1.090 1.873-2.628 1.873-4.334v-1.23c1.893-1.248 3.021-3.039 3.021-4.957 0 0-5.962 1.604-9 1.604s-9-1.604-9-1.604c0 1.918 1.129 3.709 3.021 4.957v1.23c0 1.706 0.723 3.244 1.873 4.334-5.174-1.714-8.895-6.572-8.895-12.332 0-7.198 5.802-13 13-13zM21.5 6.156c-2.832 0-5.148 2.318-5.148 5.15s2.316 5.15 5.148 5.15c2.832 0 5.148-2.318 5.148-5.15s-2.316-5.15-5.148-5.15zM21.5 8.156c1.751 0 3.15 1.399 3.15 3.15s-1.399 3.15-3.15 3.15c-1.751 0-3.148-1.399-3.148-3.15s1.397-3.15 3.148-3.15zM10.496 8.828c-1.896 0-3.346 1.622-3.865 3.674-0.022 0.078-0.034 0.166-0.034 0.258 0 0.552 0.448 1 1 1 0.013 0 0.025 0 0.038-0.001h-0.002c0.455-0.018 0.83-0.336 0.934-0.761l0.001-0.007c0.368-1.454 1.232-2.164 1.928-2.164s1.56 0.71 1.928 2.164c0.099 0.457 0.499 0.794 0.979 0.794 0.552 0 1-0.448 1-1 0-0.101-0.015-0.199-0.043-0.291l0.002 0.007c-0.519-2.052-1.969-3.674-3.865-3.674zM21.455 9.908c-0.828 0-1.5 0.672-1.5 1.5v0c0 0.828 0.672 1.5 1.5 1.5v0c0.828 0 1.5-0.672 1.5-1.5v0c0-0.828-0.672-1.5-1.5-1.5v0zM11.92 21.492h3.109c0.020 0.701 0.040 1.403 0.061 2.105 0 0.001 0 0.002 0 0.003 0 0.525 0.425 0.95 0.95 0.95s0.95-0.425 0.95-0.95c0-0.020-0.001-0.040-0.002-0.060v0.003c-0.020-0.684-0.039-1.368-0.059-2.051h3.15v2.506c0 2.276-1.804 4.078-4.080 4.078s-4.080-1.802-4.080-4.078v-2.506z"></path>
</svg>
