<!-- Generated by IcoMoon.io -->
<svg version="1.1" xmlns="http://www.w3.org/2000/svg" width="32" height="32" viewBox="0 0 32 32">
<title>emoji-tongue-wink-l</title>
<path d="M16 0c-8.826 0-16 7.173-16 16s7.173 16 16 16c8.826 0 16-7.174 16-16s-7.174-16-16-16zM16 1.699c7.908 0 14.301 6.393 14.301 14.301s-6.393 14.301-14.301 14.301c-7.908 0-14.301-6.393-14.301-14.301s6.393-14.301 14.301-14.301zM21.5 6.295c-2.751 0-5 2.249-5 5s2.249 5 5 5c2.751 0 5-2.249 5-5s-2.249-5-5-5zM21.5 7.996c1.832 0 3.301 1.466 3.301 3.299s-1.468 3.299-3.301 3.299c-1.832 0-3.299-1.466-3.299-3.299s1.466-3.299 3.299-3.299zM10.5 8.977c-1.806 0-3.213 1.556-3.721 3.563-0.018 0.066-0.029 0.142-0.029 0.22 0 0.451 0.351 0.819 0.794 0.848h0.003c0.016 0.001 0.035 0.002 0.054 0.002 0.4 0 0.735-0.276 0.826-0.648l0.001-0.006c0.379-1.498 1.287-2.277 2.072-2.277s1.693 0.779 2.072 2.277c0.090 0.38 0.427 0.659 0.829 0.659 0.47 0 0.85-0.381 0.85-0.85 0-0.080-0.011-0.158-0.032-0.231l0.001 0.006c-0.508-2.007-1.915-3.563-3.721-3.563zM21.455 9.896c-0.828 0-1.5 0.672-1.5 1.5v0c0 0.828 0.672 1.5 1.5 1.5v0c0.828 0 1.5-0.672 1.5-1.5v0c0-0.828-0.672-1.5-1.5-1.5v0zM7 17.811c0 1.918 1.129 3.709 3.021 4.957v1.23c0 3.296 2.683 5.979 5.979 5.979s5.979-2.683 5.979-5.979v-1.23c1.893-1.248 3.021-3.039 3.021-4.957 0 0-5.962 1.604-9 1.604s-9-1.604-9-1.604zM11.92 21.492h3.109c0.020 0.701 0.040 1.403 0.061 2.105 0 0.001 0 0.002 0 0.003 0 0.525 0.425 0.95 0.95 0.95s0.95-0.425 0.95-0.95c0-0.020-0.001-0.040-0.002-0.060v0.003c-0.020-0.684-0.039-1.368-0.059-2.051h3.15v2.506c0 2.276-1.804 4.078-4.080 4.078s-4.080-1.802-4.080-4.078v-2.506z"></path>
</svg>
