<!-- Generated by IcoMoon.io -->
<svg version="1.1" xmlns="http://www.w3.org/2000/svg" width="40" height="32" viewBox="0 0 40 32">
<title>emoji-grin-tears-r</title>
<path d="M19.8 0c-7.844 0-14.379 5.687-15.73 13.148 0.93-0.213 1.858-0.317 2.748-0.328 0.132-0.002 0.255 0.012 0.385 0.014 1.41-5.657 6.495-9.834 12.598-9.834s11.187 4.178 12.598 9.834c0.13-0.002 0.253-0.015 0.385-0.014 0.89 0.011 1.819 0.115 2.748 0.328-1.352-7.462-7.886-13.148-15.73-13.148zM14.3 8.828c-1.896 0-3.346 1.622-3.865 3.674-0.022 0.078-0.034 0.166-0.034 0.258 0 0.552 0.448 1 1 1 0.013 0 0.025 0 0.038-0.001h-0.002c0.455-0.018 0.83-0.336 0.934-0.761l0.001-0.007c0.368-1.454 1.232-2.164 1.928-2.164s1.56 0.71 1.928 2.164c0.099 0.457 0.499 0.794 0.979 0.794 0.552 0 1-0.448 1-1 0-0.101-0.015-0.199-0.043-0.291l0.002 0.007c-0.519-2.052-1.969-3.674-3.865-3.674zM25.3 8.828c-1.896 0-3.346 1.622-3.865 3.674-0.022 0.078-0.034 0.166-0.034 0.258 0 0.552 0.448 1 1 1 0.013 0 0.025 0 0.038-0.001h-0.002c0.455-0.018 0.83-0.336 0.934-0.761l0.001-0.007c0.368-1.454 1.232-2.164 1.928-2.164s1.56 0.71 1.928 2.164c0.099 0.457 0.499 0.794 0.979 0.794 0.552 0 1-0.448 1-1 0-0.101-0.015-0.199-0.043-0.291l0.002 0.007c-0.519-2.052-1.969-3.674-3.865-3.674zM6.839 14.57c-1.382 0.018-2.823 0.252-4.121 0.865-0.009 0.004-0.013 0.006-0.016 0.008l0.005-0.002c-0.007 0.004-0.013 0.010-0.020 0.014-1.101 0.528-2.092 1.439-2.496 2.74-0.468 1.506-0.059 3.161 1.057 4.277s2.771 1.524 4.277 1.057c1.313-0.408 2.231-1.411 2.758-2.527 0.817-1.73 0.961-3.714 0.816-5.475-0.003-0.033-0.035-0.055-0.041-0.088-0.017-0.21-0.108-0.395-0.246-0.533v0c0 0 0-0.001 0-0.001s0-0.001 0-0.001v0c-0.166-0.165-0.384-0.266-0.617-0.285-0.44-0.036-0.895-0.055-1.355-0.049zM32.761 14.57c-0.461-0.006-0.915 0.012-1.355 0.049-0.233 0.019-0.451 0.12-0.617 0.285 0 0 0 0.001 0 0.001s0 0.001 0 0.001v0c-0.14 0.139-0.231 0.326-0.248 0.534v0.003c-0.006 0.030-0.036 0.051-0.039 0.082-0.145 1.761-0.001 3.746 0.816 5.477 0.527 1.116 1.445 2.12 2.758 2.527 1.506 0.468 3.161 0.059 4.277-1.057s1.525-2.771 1.057-4.277c-0.404-1.301-1.395-2.212-2.496-2.74-0.007-0.004-0.012-0.010-0.020-0.014 0.001 0-0.003-0.002-0.007-0.004l-0.005-0.002c-1.298-0.613-2.739-0.848-4.121-0.865zM11.925 18.879c-0.008 0-0.016 0-0.025 0-0.552 0-1 0.448-1 1 0 0 0 0 0 0v0c0 3.029 2.256 5.054 4.521 6.133 2.653 1.263 6.105 1.263 8.758 0 2.265-1.079 4.521-3.104 4.521-6.133 0 0 0 0 0 0 0-0.552-0.448-1-1-1-0.080 0-0.157 0.009-0.231 0.027l0.007-0.001c0 0-5.248 1.164-7.676 1.164s-7.676-1.164-7.676-1.164c-0.059-0.014-0.128-0.023-0.198-0.025h-0.001zM13.138 21.156c1.577 0.341 4.401 0.912 6.662 0.912s5.085-0.571 6.662-0.912c-0.481 1.359-1.688 2.358-3.143 3.051-2.001 0.953-5.038 0.953-7.039 0-1.454-0.693-2.662-1.692-3.143-3.051zM8.96 23.184c-0.607 0.751-1.398 1.398-2.379 1.813 2.884 4.223 7.733 7.004 13.219 7.004s10.335-2.781 13.219-7.004c-0.981-0.415-1.772-1.062-2.379-1.813-2.324 3.507-6.303 5.816-10.84 5.816s-8.515-2.309-10.84-5.816z"></path>
</svg>
