<!-- Generated by IcoMoon.io -->
<svg version="1.1" xmlns="http://www.w3.org/2000/svg" width="32" height="32" viewBox="0 0 32 32">
<title>emoji-hipster-l</title>
<path d="M16 0c-8.826 0-16 7.173-16 16s7.173 16 16 16c8.826 0 16-7.174 16-16s-7.174-16-16-16zM16 1.699c7.908 0 14.301 6.393 14.301 14.301s-6.393 14.301-14.301 14.301c-7.908 0-14.301-6.393-14.301-14.301s6.393-14.301 14.301-14.301zM10.4 11.145c-0.966 0-1.75 0.784-1.75 1.75v0c0 0.966 0.784 1.75 1.75 1.75v0c0.966 0 1.75-0.784 1.75-1.75v0c0-0.966-0.784-1.75-1.75-1.75v0zM21.6 11.145c-0.966 0-1.75 0.784-1.75 1.75v0c0 0.966 0.784 1.75 1.75 1.75v0c0.966 0 1.75-0.784 1.75-1.75v0c0-0.966-0.784-1.75-1.75-1.75v0zM13.105 17.357c-0.957 0-1.922 0.37-2.65 1.098-0.649 0.648-1.274 1.124-1.828 1.303s-1.048 0.162-1.816-0.334l-1.311-0.846v1.561c0 1.047 0.515 1.976 1.234 2.707s1.659 1.299 2.684 1.684c2.047 0.768 4.536 0.856 6.191-0.643 0.057-0.051 0.105-0.096 0.143-0.133v-0.002h0.002c0.109-0.109 0.153-0.252 0.246-0.371 0.092 0.118 0.136 0.261 0.244 0.369 0.046 0.046 0.094 0.091 0.143 0.135 1.655 1.501 4.147 1.413 6.195 0.645 1.024-0.384 1.964-0.953 2.684-1.684s1.234-1.66 1.234-2.707v-1.561l-1.311 0.846c-0.769 0.496-1.262 0.513-1.816 0.334s-1.181-0.654-1.83-1.303c-1.456-1.456-3.841-1.456-5.297 0-0.11 0.11-0.153 0.254-0.246 0.373-0.093-0.119-0.136-0.263-0.246-0.373-0.728-0.728-1.691-1.098-2.648-1.098zM18.895 19.053c0.521 0 1.042 0.2 1.445 0.604 0.729 0.729 1.522 1.399 2.51 1.719 0.402 0.13 0.846 0.129 1.291 0.102-0.052 0.060-0.029 0.118-0.088 0.178-0.502 0.51-1.246 0.975-2.068 1.283-1.645 0.617-3.5 0.555-4.455-0.311l-0.006-0.006c-0.024-0.022-0.049-0.045-0.074-0.070l-0.002-0.002c-0.401-0.401-0.593-0.916-0.596-1.438 0.003-0.521 0.202-1.061 0.596-1.455 0.403-0.403 0.926-0.604 1.447-0.604zM13.105 19.059c0.525 0 1.044 0.194 1.447 0.598 0.393 0.393 0.591 0.932 0.594 1.455-0.002 0.523-0.193 1.037-0.594 1.438-0.034 0.033-0.058 0.056-0.070 0.066l-0.012 0.012c-0.955 0.866-2.81 0.928-4.455 0.311-0.822-0.309-1.566-0.773-2.068-1.283-0.059-0.060-0.036-0.118-0.088-0.178 0.445 0.028 0.889 0.028 1.291-0.102 0.988-0.319 1.779-0.989 2.508-1.717 0.403-0.402 0.924-0.6 1.447-0.6z"></path>
</svg>
