<!-- Generated by IcoMoon.io -->
<svg version="1.1" xmlns="http://www.w3.org/2000/svg" width="32" height="32" viewBox="0 0 32 32">
<title>emoji-sleepy-s</title>
<path d="M16 0c-8.819 0-16 7.181-16 16s7.181 16 16 16c8.819 0 16-7.181 16-16s-7.181-16-16-16zM11.15 9.98c0.939 0 1.876 0.26 2.68 0.783 0.292 0.178 0.484 0.495 0.484 0.857 0 0.552-0.448 1-1 1-0.215 0-0.414-0.068-0.577-0.183l0.003 0.002c-0.863-0.561-2.317-0.561-3.18 0-0.156 0.106-0.348 0.169-0.556 0.169-0.552 0-1-0.448-1-1 0-0.353 0.183-0.664 0.46-0.842l0.004-0.002c0.804-0.523 1.743-0.783 2.682-0.783zM20.85 9.98c0.939 0 1.878 0.26 2.682 0.783 0.281 0.18 0.464 0.491 0.464 0.844 0 0.552-0.448 1-1 1-0.207 0-0.4-0.063-0.559-0.171l0.004 0.002c-0.863-0.561-2.317-0.561-3.18 0-0.16 0.113-0.359 0.181-0.574 0.181-0.552 0-1-0.448-1-1 0-0.362 0.192-0.679 0.48-0.854l0.004-0.002c0.804-0.523 1.741-0.783 2.68-0.783zM16 17c1.188 0 2.243 0.627 2.957 1.543s1.127 2.132 1.127 3.457c0 1.325-0.413 2.541-1.127 3.457s-1.769 1.543-2.957 1.543c-1.188 0-2.243-0.627-2.957-1.543s-1.127-2.132-1.127-3.457c0-1.325 0.413-2.541 1.127-3.457s1.769-1.543 2.957-1.543z"></path>
</svg>
