<!-- Generated by IcoMoon.io -->
<svg version="1.1" xmlns="http://www.w3.org/2000/svg" width="32" height="32" viewBox="0 0 32 32">
<title>emoji-grimace-l</title>
<path d="M16 0c-8.826 0-16 7.173-16 16s7.173 16 16 16c8.826 0 16-7.174 16-16s-7.174-16-16-16zM16 1.699c7.908 0 14.301 6.393 14.301 14.301s-6.393 14.301-14.301 14.301c-7.908 0-14.301-6.393-14.301-14.301s6.393-14.301 14.301-14.301zM10.4 11.145c-0.966 0-1.75 0.784-1.75 1.75v0c0 0.966 0.784 1.75 1.75 1.75v0c0.966 0 1.75-0.784 1.75-1.75v0c0-0.966-0.784-1.75-1.75-1.75v0zM21.6 11.145c-0.966 0-1.75 0.784-1.75 1.75v0c0 0.966 0.784 1.75 1.75 1.75v0c0.966 0 1.75-0.784 1.75-1.75v0c0-0.966-0.784-1.75-1.75-1.75v0zM10.412 17.027c-2.301 0-4.18 1.879-4.18 4.18v1.127c0 2.301 1.879 4.18 4.18 4.18h11.176c2.301 0 4.18-1.879 4.18-4.18v-1.127c0-2.301-1.879-4.18-4.18-4.18h-11.176zM10.412 18.727h0.139c0 0.847 0 1.695 0 2.543-0.872 0-1.745 0-2.617 0v-0.063c0-1.388 1.090-2.48 2.479-2.48zM11.551 18.727h2.299c0 0.847 0 1.695 0 2.543-0.766 0-1.532 0-2.299 0 0-0.848 0-1.696 0-2.543zM14.85 18.727h2.301c0 0.847 0 1.695 0 2.543-0.767 0-1.534 0-2.301 0 0-0.848 0-1.696 0-2.543zM18.15 18.727h2.299c0 0.847 0 1.695 0 2.543-0.766 0-1.533 0-2.299 0 0-0.848 0-1.696 0-2.543zM21.449 18.727h0.139c1.388 0 2.479 1.092 2.479 2.48v0.063c-0.872 0-1.745 0-2.617 0 0-0.848 0-1.696 0-2.543zM7.934 22.27c0.873 0 1.745 0 2.617 0 0 0.848 0 1.696 0 2.545h-0.139c-1.388 0-2.479-1.092-2.479-2.48v-0.064zM11.551 22.27c0.766 0 1.533 0 2.299 0 0 0.848 0 1.696 0 2.545h-2.299c0-0.848 0-1.696 0-2.545zM14.85 22.27c0.767 0 1.534 0 2.301 0 0 0.848 0 1.696 0 2.545h-2.301c0-0.848 0-1.696 0-2.545zM18.15 22.27c0.766 0 1.533 0 2.299 0 0 0.848 0 1.696 0 2.545h-2.299c0-0.848 0-1.696 0-2.545zM21.449 22.27c0.872 0 1.745 0 2.617 0v0.064c0 1.388-1.090 2.48-2.479 2.48h-0.139c0-0.848 0-1.696 0-2.545z"></path>
</svg>
