<!-- Generated by IcoMoon.io -->
<svg version="1.1" xmlns="http://www.w3.org/2000/svg" width="32" height="32" viewBox="0 0 32 32">
<title>emoji-grin-s</title>
<path d="M16 0c-8.819 0-16 7.181-16 16s7.181 16 16 16c8.819 0 16-7.181 16-16s-7.181-16-16-16zM10.5 8.828c1.896 0 3.346 1.622 3.865 3.674 0.026 0.085 0.041 0.183 0.041 0.284 0 0.552-0.448 1-1 1-0.479 0-0.88-0.337-0.978-0.788l-0.001-0.007c-0.368-1.454-1.232-2.164-1.928-2.164s-1.56 0.71-1.928 2.164c-0.105 0.432-0.481 0.75-0.934 0.768h-0.002c-0.011 0-0.023 0.001-0.036 0.001-0.552 0-1-0.448-1-1 0-0.092 0.012-0.181 0.036-0.265l-0.002 0.007c0.519-2.052 1.969-3.674 3.865-3.674zM21.5 8.828c1.896 0 3.346 1.622 3.865 3.674 0.026 0.085 0.041 0.183 0.041 0.284 0 0.552-0.448 1-1 1-0.479 0-0.88-0.337-0.977-0.788l-0.001-0.007c-0.368-1.454-1.232-2.164-1.928-2.164s-1.56 0.71-1.928 2.164c-0.105 0.432-0.481 0.75-0.934 0.768h-0.002c-0.011 0-0.023 0.001-0.036 0.001-0.552 0-1-0.448-1-1 0-0.092 0.012-0.181 0.036-0.265l-0.002 0.007c0.519-2.052 1.969-3.674 3.865-3.674zM6.85 18.154h18.301c0 0 0 0.001 0 0.001 0 2.97-1.821 5.565-4.533 6.965l-0.043 0.021c-1.312 0.679-2.89 1.080-4.574 1.080s-3.262-0.401-4.617-1.101l0.043 0.021c-2.755-1.42-4.576-4.015-4.576-6.985 0 0 0-0.001 0-0.001v0z"></path>
</svg>
