<!-- Generated by IcoMoon.io -->
<svg version="1.1" xmlns="http://www.w3.org/2000/svg" width="32" height="32" viewBox="0 0 32 32">
<title>emoji-wink-r</title>
<path d="M16 0c-8.819 0-16 7.181-16 16s7.181 16 16 16c8.819 0 16-7.181 16-16s-7.181-16-16-16zM16 3c7.198 0 13 5.802 13 13s-5.802 13-13 13c-7.198 0-13-5.802-13-13s5.802-13 13-13zM21.6 9.145c-0.585 0-1.096 0.357-1.445 0.881s-0.555 1.224-0.555 1.994c0 0.77 0.206 1.472 0.555 1.996s0.861 0.879 1.445 0.879c0.585 0 1.096-0.355 1.445-0.879s0.555-1.226 0.555-1.996c0-0.77-0.205-1.47-0.555-1.994s-0.861-0.881-1.445-0.881zM10.396 9.541c-1.896 0-3.346 1.622-3.865 3.674-0.022 0.078-0.034 0.166-0.034 0.258 0 0.552 0.448 1 1 1 0.013 0 0.025 0 0.038-0.001h-0.002c0.455-0.018 0.83-0.336 0.934-0.761l0.001-0.007c0.368-1.454 1.232-2.164 1.928-2.164s1.56 0.71 1.928 2.164c0.099 0.457 0.499 0.794 0.979 0.794 0.552 0 1-0.448 1-1 0-0.101-0.015-0.199-0.043-0.291l0.002 0.007c-0.519-2.052-1.969-3.674-3.865-3.674zM25.588 16.553c-0.2 0-0.372 0.118-0.452 0.288l-0.001 0.003c-1.12 2.422-4.359 4.383-8.637 5.232-0.010 0.002-0.016 0.003-0.023 0.005l0.003-0.001c-4.001 0.79-7.76 0.412-9.76-1.152-0.084-0.066-0.191-0.105-0.307-0.105-0.276 0-0.5 0.224-0.5 0.5 0 0.096 0.027 0.186 0.074 0.262l-0.001-0.002c1.93 3.161 5.36 5.27 9.266 5.27 5.491 0 10.010-4.173 10.787-9.58 0.001-0.003 0.004-0.005 0.006-0.008h-0.004c0.008-0.052 0.040-0.094 0.047-0.146 0.003-0.019 0.004-0.042 0.004-0.064 0-0.276-0.224-0.5-0.5-0.5-0.001 0-0.002 0-0.002 0v0z"></path>
</svg>
