<!-- Generated by IcoMoon.io -->
<svg version="1.1" xmlns="http://www.w3.org/2000/svg" width="32" height="32" viewBox="0 0 32 32">
<title>emoji-sad-cry-l</title>
<path d="M16 0c-8.826 0-16 7.173-16 16s7.173 16 16 16c8.826 0 16-7.174 16-16s-7.174-16-16-16zM16 1.699c7.908 0 14.301 6.393 14.301 14.301 0 4.785-2.35 9.005-5.951 11.6 0.001-3.761 0.001-7.521 0-11.279 0-0.003 0-0.007 0-0.011 0-0.47-0.381-0.85-0.85-0.85-0.005 0-0.009 0-0.014 0h0.001c-0.463 0.008-0.836 0.385-0.836 0.85 0 0.005 0 0.009 0 0.014v-0.001c0.001 4.063 0.001 8.126 0 12.191 0 0.007 0 0.015 0 0.023 0 0.041 0.003 0.082 0.009 0.122l-0.001-0.005c-1.989 1.047-4.251 1.646-6.658 1.646s-4.669-0.599-6.658-1.646c0.005-0.035 0.008-0.076 0.008-0.117 0-0.008 0-0.016 0-0.025v0.001c0.001-4.065 0.001-8.13 0-12.193 0-0.003 0-0.007 0-0.011 0-0.47-0.381-0.85-0.85-0.85-0.005 0-0.009 0-0.014 0h0.001c-0.463 0.008-0.836 0.385-0.836 0.85 0 0.005 0 0.009 0 0.014v-0.001c0.001 3.758 0.001 7.517 0 11.277-3.601-2.595-5.951-6.814-5.951-11.6 0-7.908 6.393-14.301 14.301-14.301zM10.5 8.977c-1.806 0-3.213 1.556-3.721 3.563-0.018 0.066-0.029 0.142-0.029 0.22 0 0.451 0.351 0.819 0.794 0.848h0.003c0.016 0.001 0.035 0.002 0.054 0.002 0.4 0 0.735-0.276 0.826-0.648l0.001-0.006c0.379-1.498 1.287-2.277 2.072-2.277s1.693 0.779 2.072 2.277c0.090 0.38 0.427 0.659 0.829 0.659 0.47 0 0.85-0.381 0.85-0.85 0-0.080-0.011-0.158-0.032-0.231l0.001 0.006c-0.508-2.007-1.915-3.563-3.721-3.563zM21.5 8.977c-1.806 0-3.213 1.556-3.721 3.563-0.018 0.066-0.029 0.142-0.029 0.22 0 0.451 0.351 0.819 0.794 0.848h0.003c0.016 0.001 0.035 0.002 0.054 0.002 0.4 0 0.735-0.276 0.826-0.648l0.001-0.006c0.379-1.498 1.287-2.277 2.072-2.277s1.693 0.779 2.072 2.277c0.090 0.38 0.427 0.659 0.829 0.659 0.47 0 0.85-0.381 0.85-0.85 0-0.080-0.011-0.158-0.032-0.231l0.001 0.006c-0.508-2.007-1.915-3.563-3.721-3.563zM16 17c-1.188 0-2.243 0.627-2.957 1.543s-1.127 2.132-1.127 3.457c0 1.325 0.413 2.541 1.127 3.457s1.769 1.543 2.957 1.543c1.188 0 2.243-0.627 2.957-1.543s1.127-2.132 1.127-3.457c0-1.325-0.413-2.541-1.127-3.457s-1.769-1.543-2.957-1.543zM16 18.699c0.598 0 1.159 0.303 1.615 0.889s0.77 1.445 0.77 2.412c0 0.967-0.313 1.826-0.77 2.412s-1.017 0.889-1.615 0.889c-0.598 0-1.159-0.303-1.615-0.889s-0.77-1.445-0.77-2.412c0-0.967 0.313-1.826 0.77-2.412s1.017-0.889 1.615-0.889z"></path>
</svg>
