<!-- Generated by IcoMoon.io -->
<svg version="1.1" xmlns="http://www.w3.org/2000/svg" width="32" height="32" viewBox="0 0 32 32">
<title>emoji-smile-beam-r</title>
<path d="M16 0c-8.819 0-16 7.181-16 16s7.181 16 16 16c8.819 0 16-7.181 16-16s-7.181-16-16-16zM16 3c7.198 0 13 5.802 13 13s-5.802 13-13 13c-7.198 0-13-5.802-13-13s5.802-13 13-13zM10.496 8.828c-1.896 0-3.346 1.622-3.865 3.674-0.022 0.078-0.034 0.166-0.034 0.258 0 0.552 0.448 1 1 1 0.013 0 0.025 0 0.038-0.001h-0.002c0.455-0.018 0.83-0.336 0.934-0.761l0.001-0.007c0.368-1.454 1.232-2.164 1.928-2.164s1.56 0.71 1.928 2.164c0.099 0.457 0.499 0.794 0.979 0.794 0.552 0 1-0.448 1-1 0-0.101-0.015-0.199-0.043-0.291l0.002 0.007c-0.519-2.052-1.969-3.674-3.865-3.674zM21.496 8.828c-1.896 0-3.346 1.622-3.865 3.674-0.022 0.078-0.034 0.166-0.034 0.258 0 0.552 0.448 1 1 1 0.013 0 0.025 0 0.038-0.001h-0.002c0.455-0.018 0.83-0.336 0.934-0.761l0.001-0.007c0.368-1.454 1.232-2.164 1.928-2.164s1.56 0.71 1.928 2.164c0.099 0.457 0.499 0.794 0.979 0.794 0.552 0 1-0.448 1-1 0-0.101-0.015-0.199-0.043-0.291l0.002 0.007c-0.519-2.052-1.969-3.674-3.865-3.674zM8.811 20.070c-0.536 0.021-0.962 0.461-0.962 0.999 0 0.189 0.053 0.366 0.144 0.517l-0.003-0.004c1.651 2.86 4.707 4.625 8.010 4.625s6.358-1.765 8.010-4.625c0.084-0.143 0.134-0.316 0.134-0.5 0-0.552-0.448-1-1-1-0.368 0-0.69 0.199-0.864 0.495l-0.003 0.005c-1.296 2.244-3.686 3.625-6.277 3.625s-4.982-1.381-6.277-3.625c-0.174-0.308-0.5-0.512-0.873-0.512-0.014 0-0.027 0-0.041 0.001h0.002z"></path>
</svg>
