<!-- Generated by IcoMoon.io -->
<svg version="1.1" xmlns="http://www.w3.org/2000/svg" width="32" height="32" viewBox="0 0 32 32">
<title>emoji-grimace-r</title>
<path d="M16 0c-8.819 0-16 7.181-16 16s7.181 16 16 16c8.819 0 16-7.181 16-16s-7.181-16-16-16zM16 3c7.198 0 13 5.802 13 13s-5.802 13-13 13c-7.198 0-13-5.802-13-13s5.802-13 13-13zM10.4 10.945c-1.075 0-1.951 0.875-1.951 1.949s0.877 1.951 1.951 1.951c1.075 0 1.949-0.877 1.949-1.951s-0.875-1.949-1.949-1.949zM21.6 10.945c-1.075 0-1.949 0.875-1.949 1.949s0.875 1.951 1.949 1.951c1.075 0 1.951-0.877 1.951-1.951s-0.877-1.949-1.951-1.949zM10.412 16.178c-2.381 0-4.328 1.949-4.328 4.33v1.127c0 2.381 1.947 4.33 4.328 4.33h11.176c2.381 0 4.328-1.949 4.328-4.33v-1.127c0-2.381-1.947-4.33-4.328-4.33h-11.176zM10.412 18.178h0.139c0 0.797 0 1.595 0 2.393-0.822 0-1.644 0-2.467 0v-0.063c0-1.308 1.020-2.33 2.328-2.33zM11.551 18.178h2.299c0 0.797 0 1.595 0 2.393-0.766 0-1.532 0-2.299 0 0-0.798 0-1.596 0-2.393zM14.85 18.178h2.301c0 0.797 0 1.595 0 2.393-0.767 0-1.534 0-2.301 0 0-0.798 0-1.596 0-2.393zM18.15 18.178h2.299c0 0.797 0 1.595 0 2.393-0.766 0-1.533 0-2.299 0 0-0.798 0-1.596 0-2.393zM21.449 18.178h0.139c1.308 0 2.328 1.022 2.328 2.33v0.063c-0.822 0-1.645 0-2.467 0 0-0.798 0-1.596 0-2.393zM8.084 21.57c0.822 0 1.644 0 2.467 0 0 0.798 0 1.596 0 2.395h-0.139c-1.308 0-2.328-1.022-2.328-2.33v-0.064zM11.551 21.57c0.766 0 1.533 0 2.299 0 0 0.798 0 1.596 0 2.395h-2.299c0-0.798 0-1.596 0-2.395zM14.85 21.57c0.767 0 1.534 0 2.301 0 0 0.798 0 1.596 0 2.395h-2.301c0-0.798 0-1.596 0-2.395zM18.15 21.57c0.766 0 1.533 0 2.299 0 0 0.798 0 1.596 0 2.395h-2.299c0-0.798 0-1.596 0-2.395zM21.449 21.57c0.822 0 1.645 0 2.467 0v0.064c0 1.308-1.020 2.33-2.328 2.33h-0.139c0-0.798 0-1.596 0-2.395z"></path>
</svg>
