<!-- Generated by IcoMoon.io -->
<svg version="1.1" xmlns="http://www.w3.org/2000/svg" width="32" height="32" viewBox="0 0 32 32">
<title>emoji-tongue-wink-s</title>
<path d="M16 0c-8.819 0-16 7.181-16 16s7.181 16 16 16c8.819 0 16-7.181 16-16s-7.181-16-16-16zM21.5 6.156c2.832 0 5.148 2.318 5.148 5.15s-2.316 5.15-5.148 5.15c-2.832 0-5.148-2.318-5.148-5.15s2.316-5.15 5.148-5.15zM10.496 8.828c1.896 0 3.346 1.622 3.865 3.674 0.026 0.085 0.041 0.183 0.041 0.284 0 0.552-0.448 1-1 1-0.479 0-0.88-0.337-0.978-0.788l-0.001-0.007c-0.368-1.454-1.232-2.164-1.928-2.164s-1.56 0.71-1.928 2.164c-0.105 0.432-0.481 0.75-0.934 0.768h-0.002c-0.011 0-0.023 0.001-0.036 0.001-0.552 0-1-0.448-1-1 0-0.092 0.012-0.181 0.036-0.265l-0.002 0.007c0.519-2.052 1.969-3.674 3.865-3.674zM7 17.811c0 0 5.962 1.604 9 1.604s9-1.604 9-1.604c0 1.918-1.129 3.709-3.021 4.957v1.23c0 3.296-2.683 5.979-5.979 5.979s-5.979-2.683-5.979-5.979v-1.23c-1.893-1.248-3.021-3.039-3.021-4.957zM11.92 21.492v2.506c0 2.276 1.804 4.078 4.080 4.078s4.080-1.802 4.080-4.078v-2.506h-3.15c0.020 0.683 0.039 1.367 0.059 2.051 0.001 0.017 0.002 0.037 0.002 0.058 0 0.525-0.425 0.95-0.95 0.95s-0.95-0.425-0.95-0.95c0-0.001 0-0.002 0-0.003v0c-0.020-0.702-0.040-1.404-0.061-2.105h-3.109z"></path>
<path d="M21.454 9.908c-0.828 0-1.5 0.672-1.5 1.5v0c0 0.828 0.672 1.5 1.5 1.5v0c0.828 0 1.5-0.672 1.5-1.5v0c0-0.828-0.672-1.5-1.5-1.5v0z"></path>
</svg>
