<!-- Generated by IcoMoon.io -->
<svg version="1.1" xmlns="http://www.w3.org/2000/svg" width="32" height="32" viewBox="0 0 32 32">
<title>emoji-tired-l</title>
<path d="M16 0c-8.826 0-16 7.173-16 16s7.173 16 16 16c8.826 0 16-7.174 16-16s-7.174-16-16-16zM16 1.699c7.908 0 14.301 6.393 14.301 14.301s-6.393 14.301-14.301 14.301c-7.908 0-14.301-6.393-14.301-14.301s6.393-14.301 14.301-14.301zM8.219 9.012c-0.11 0.329-0.22 0.659 0.070 1.213s0.981 1.335 1.67 2.115c-0.689 0.78-1.38 1.561-1.67 2.115s-0.18 0.884-0.070 1.213c1.888-0.978 3.777-1.955 4.746-2.51s1.021-0.687 1.070-0.818c-0.050-0.131-0.101-0.263-1.070-0.818s-2.858-1.532-4.746-2.51zM23.781 9.012c-1.888 0.978-3.776 1.955-4.746 2.51s-1.021 0.687-1.070 0.818c0.050 0.131 0.101 0.263 1.070 0.818s2.858 1.532 4.746 2.51c0.11-0.329 0.22-0.659-0.070-1.213s-0.981-1.335-1.67-2.115c0.689-0.78 1.38-1.561 1.67-2.115s0.18-0.884 0.070-1.213zM16 16.277c-1.506 0-3.013 0.31-4.314 0.93-2.236 1.065-4.436 3.043-4.436 5.998 0 0.469 0.381 0.85 0.85 0.85 0.007 0 0.015 0 0.022 0h-0.001c0.061-0.002 0.119-0.009 0.176-0.023l-0.006 0.001c0 0 5.237-1.168 7.709-1.168s7.709 1.168 7.709 1.168c0.057 0.014 0.123 0.022 0.191 0.022 0.469 0 0.85-0.38 0.85-0.85v0c0-2.955-2.199-4.933-4.436-5.998-1.302-0.62-2.808-0.93-4.314-0.93zM16 18.010c1.28 0 2.559 0.242 3.584 0.73 1.555 0.74 2.827 1.857 3.264 3.381-1.453-0.319-4.509-0.955-6.848-0.955s-5.394 0.636-6.848 0.955c0.436-1.524 1.709-2.641 3.264-3.381 1.025-0.488 2.304-0.73 3.584-0.73z"></path>
</svg>
