<!-- Generated by IcoMoon.io -->
<svg version="1.1" xmlns="http://www.w3.org/2000/svg" width="32" height="32" viewBox="0 0 32 32">
<title>emoji-tired-r</title>
<path d="M16 0c-8.819 0-16 7.181-16 16s7.181 16 16 16c8.819 0 16-7.181 16-16s-7.181-16-16-16zM16 3c7.198 0 13 5.802 13 13s-5.802 13-13 13c-7.198 0-13-5.802-13-13s5.802-13 13-13zM8.205 8.512v0.002c-0.001 0-0.002 0-0.003 0-0.016 0-0.031 0.001-0.046 0.002h0.002c-0.195 0.025-0.353 0.158-0.413 0.336l-0.001 0.004c-0.11 0.33-0.248 0.929 0.104 1.602 0.3 0.573 0.894 1.229 1.477 1.889-0.581 0.658-1.177 1.311-1.477 1.883-0.352 0.672-0.214 1.272-0.104 1.602 0.070 0.198 0.255 0.337 0.473 0.337 0.083 0 0.162-0.020 0.231-0.057l-0.003 0.001c1.888-0.978 3.776-1.949 4.77-2.518 0.496-0.284 0.766-0.461 0.953-0.619s0.307-0.392 0.332-0.459c0.020-0.052 0.032-0.113 0.032-0.177s-0.012-0.124-0.033-0.18l0.001 0.003c-0.025-0.067-0.145-0.293-0.332-0.451s-0.457-0.335-0.953-0.619c-0.993-0.569-2.881-1.548-4.77-2.525-0.066-0.035-0.145-0.055-0.228-0.055-0.004 0-0.009 0-0.013 0h0.001zM23.756 8.516c-0.076 0.002-0.147 0.021-0.21 0.052l0.003-0.001c-1.888 0.978-3.767 1.957-4.76 2.525-0.496 0.284-0.774 0.463-0.961 0.621s-0.307 0.383-0.332 0.449c-0.020 0.052-0.032 0.113-0.032 0.177s0.012 0.124 0.033 0.18l-0.001-0.003c0.025 0.067 0.145 0.3 0.332 0.459s0.465 0.335 0.961 0.619c0.993 0.569 2.871 1.54 4.76 2.518 0.066 0.035 0.145 0.055 0.229 0.055 0.218 0 0.403-0.139 0.471-0.333l0.001-0.004c0.11-0.33 0.256-0.929-0.096-1.602-0.299-0.572-0.901-1.223-1.482-1.881 0.583-0.659 1.183-1.318 1.482-1.891 0.352-0.672 0.206-1.272 0.096-1.602-0.069-0.2-0.255-0.34-0.474-0.34-0.007 0-0.014 0-0.021 0h0.001zM16 16.127c-1.526 0-3.053 0.316-4.379 0.947-2.265 1.079-4.521 3.104-4.521 6.133 0 0 0 0 0 0 0 0.552 0.448 1 1 1 0.009 0 0.018 0 0.027 0h-0.001c0.072-0.002 0.14-0.011 0.206-0.027l-0.007 0.001c0 0 5.248-1.164 7.676-1.164s7.676 1.164 7.676 1.164c0.067 0.016 0.145 0.026 0.224 0.026 0.552 0 1-0.448 1-1 0 0 0 0 0 0v0c0-3.029-2.256-5.054-4.521-6.133-1.326-0.632-2.853-0.947-4.379-0.947zM16 18.164c1.26 0 2.519 0.239 3.52 0.715 1.454 0.693 2.662 1.692 3.143 3.051-1.577-0.341-4.401-0.912-6.662-0.912s-5.085 0.571-6.662 0.912c0.481-1.359 1.688-2.358 3.143-3.051 1-0.476 2.26-0.715 3.52-0.715z"></path>
</svg>
