<!-- Generated by IcoMoon.io -->
<svg version="1.1" xmlns="http://www.w3.org/2000/svg" width="32" height="32" viewBox="0 0 32 32">
<title>emoji-sad-r</title>
<path d="M16 0c-8.819 0-16 7.181-16 16s7.181 16 16 16c8.819 0 16-7.181 16-16s-7.181-16-16-16zM16 3c7.198 0 13 5.802 13 13s-5.802 13-13 13c-7.198 0-13-5.802-13-13s5.802-13 13-13zM10.4 10.945c-1.075 0-1.951 0.875-1.951 1.949s0.877 1.951 1.951 1.951c1.075 0 1.949-0.877 1.949-1.951s-0.875-1.949-1.949-1.949zM21.6 10.945c-1.075 0-1.949 0.875-1.949 1.949s0.875 1.951 1.949 1.951c1.075 0 1.951-0.877 1.951-1.951s-0.877-1.949-1.951-1.949zM16 18.070c-3.303 0-6.358 1.765-8.010 4.625-0.089 0.146-0.141 0.323-0.141 0.512 0 0.539 0.426 0.978 0.96 0.999h0.002c0.012 0 0.025 0.001 0.039 0.001 0.373 0 0.699-0.204 0.871-0.508l0.003-0.005c1.296-2.244 3.686-3.625 6.277-3.625s4.982 1.381 6.277 3.625c0.176 0.301 0.498 0.5 0.866 0.5 0.552 0 1-0.448 1-1 0-0.184-0.050-0.357-0.137-0.505l0.003 0.005c-1.651-2.86-4.707-4.625-8.010-4.625z"></path>
</svg>
