<!-- Generated by IcoMoon.io -->
<svg version="1.1" xmlns="http://www.w3.org/2000/svg" width="32" height="32" viewBox="0 0 32 32">
<title>emoji-grin-l</title>
<path d="M16 0c-8.826 0-16 7.173-16 16s7.173 16 16 16c8.826 0 16-7.174 16-16s-7.174-16-16-16zM16 1.699c7.908 0 14.301 6.393 14.301 14.301s-6.393 14.301-14.301 14.301c-7.908 0-14.301-6.393-14.301-14.301s6.393-14.301 14.301-14.301zM10.5 8.977c-1.806 0-3.213 1.556-3.721 3.563-0.018 0.066-0.029 0.142-0.029 0.22 0 0.451 0.351 0.819 0.794 0.848h0.003c0.016 0.001 0.035 0.002 0.054 0.002 0.4 0 0.735-0.276 0.826-0.648l0.001-0.006c0.379-1.498 1.287-2.277 2.072-2.277s1.693 0.779 2.072 2.277c0.090 0.38 0.427 0.659 0.829 0.659 0.47 0 0.85-0.381 0.85-0.85 0-0.080-0.011-0.158-0.032-0.231l0.001 0.006c-0.508-2.007-1.915-3.563-3.721-3.563zM21.5 8.977c-1.806 0-3.213 1.556-3.721 3.563-0.018 0.066-0.029 0.142-0.029 0.22 0 0.451 0.351 0.819 0.794 0.848h0.003c0.016 0.001 0.035 0.002 0.054 0.002 0.4 0 0.735-0.276 0.826-0.648l0.001-0.006c0.379-1.498 1.287-2.277 2.072-2.277s1.693 0.779 2.072 2.277c0.090 0.38 0.427 0.659 0.829 0.659 0.47 0 0.85-0.381 0.85-0.85 0-0.080-0.011-0.158-0.032-0.231l0.001 0.006c-0.508-2.007-1.915-3.563-3.721-3.563zM6.85 17.305c-0.469 0-0.849 0.38-0.85 0.85v0c0 3.224 1.957 6.173 5.039 7.742s6.839 1.569 9.922 0c3.083-1.569 5.039-4.518 5.039-7.742 0-0.469-0.38-0.849-0.85-0.85h-18.301zM7.826 19.004h16.348c-0.304 2.205-1.699 4.216-3.984 5.379-2.58 1.313-5.799 1.313-8.379 0-2.285-1.163-3.68-3.174-3.984-5.379z"></path>
</svg>
