<!-- Generated by IcoMoon.io -->
<svg version="1.1" xmlns="http://www.w3.org/2000/svg" width="32" height="32" viewBox="0 0 32 32">
<title>emoji-wink-s</title>
<path d="M16 0c-8.819 0-16 7.181-16 16s7.181 16 16 16c8.819 0 16-7.181 16-16s-7.181-16-16-16zM21.6 9.145c0.585 0 1.096 0.357 1.445 0.881s0.555 1.224 0.555 1.994c0 0.77-0.205 1.472-0.555 1.996s-0.861 0.879-1.445 0.879c-0.585 0-1.096-0.355-1.445-0.879s-0.555-1.226-0.555-1.996c0-0.77 0.206-1.47 0.555-1.994s0.861-0.881 1.445-0.881zM10.396 9.541c1.896 0 3.346 1.622 3.865 3.674 0.026 0.085 0.041 0.183 0.041 0.284 0 0.552-0.448 1-1 1-0.479 0-0.88-0.337-0.978-0.788l-0.001-0.007c-0.368-1.454-1.232-2.164-1.928-2.164s-1.56 0.71-1.928 2.164c-0.105 0.432-0.481 0.75-0.934 0.768h-0.002c-0.011 0-0.023 0.001-0.036 0.001-0.552 0-1-0.448-1-1 0-0.092 0.012-0.181 0.036-0.265l-0.002 0.007c0.519-2.052 1.969-3.674 3.865-3.674zM25.568 16.553c0.003 0 0.006 0 0.010 0s0.007 0 0.010 0v0c0.001 0 0.001 0 0.002 0 0.276 0 0.5 0.224 0.5 0.5 0 0.023-0.002 0.045-0.004 0.067v-0.003c-0.007 0.052-0.039 0.094-0.047 0.146h0.004c-0.001 0.003-0.005 0.005-0.006 0.008-0.777 5.407-5.296 9.58-10.787 9.58-3.906 0-7.336-2.108-9.266-5.27-0.046-0.074-0.073-0.164-0.073-0.26 0-0.276 0.224-0.5 0.5-0.5 0.116 0 0.223 0.040 0.308 0.106l-0.001-0.001c2 1.565 5.759 1.943 9.76 1.152 0.003-0.001 0.010-0.002 0.016-0.003h0.003c4.278-0.849 7.517-2.811 8.637-5.232 0.078-0.167 0.241-0.283 0.433-0.291h0.001z"></path>
</svg>
