<!-- Generated by IcoMoon.io -->
<svg version="1.1" xmlns="http://www.w3.org/2000/svg" width="32" height="32" viewBox="0 0 32 32">
<title>emoji-grimace-s</title>
<path d="M16 0c-8.819 0-16 7.181-16 16s7.181 16 16 16c8.819 0 16-7.181 16-16s-7.181-16-16-16zM10.4 10.945c1.075 0 1.949 0.875 1.949 1.949s-0.875 1.951-1.949 1.951c-1.075 0-1.951-0.877-1.951-1.951s0.877-1.949 1.951-1.949zM21.6 10.945c1.075 0 1.951 0.875 1.951 1.949s-0.877 1.951-1.951 1.951c-1.075 0-1.949-0.877-1.949-1.951s0.875-1.949 1.949-1.949zM10.412 18.627h0.143c-0.003 0.019-0.004 0.041-0.004 0.064 0 0.004 0 0.009 0 0.013v-0.001c0 0.855 0 1.711 0 2.566-0.906 0-1.811 0-2.717 0v-0.063c0-1.442 1.136-2.58 2.578-2.58zM11.545 18.627h2.309c-0.003 0.019-0.004 0.041-0.004 0.064 0 0.004 0 0.009 0 0.013v-0.001c0 0.855 0 1.711 0 2.566-0.766 0-1.532 0-2.299 0 0-0.856 0-1.713 0-2.568 0-0.026-0.002-0.052-0.006-0.077v0.003zM14.844 18.627h2.311c-0.003 0.019-0.004 0.041-0.004 0.064 0 0.004 0 0.009 0 0.013v-0.001c0 0.855 0 1.711 0 2.566-0.767 0-1.534 0-2.301 0 0-0.856 0-1.713 0-2.568 0-0.026-0.002-0.052-0.006-0.077v0.003zM18.145 18.627h2.309c-0.003 0.019-0.004 0.041-0.004 0.064 0 0.004 0 0.009 0 0.013v-0.001c0 0.855 0 1.711 0 2.566-0.766 0-1.533 0-2.299 0 0-0.856 0-1.713 0-2.568 0-0.026-0.002-0.052-0.006-0.077v0.003zM21.443 18.627h0.145c1.442 0 2.578 1.138 2.578 2.58v0.063c-0.905 0-1.811 0-2.717 0 0-0.856 0-1.713 0-2.568 0-0.026-0.002-0.052-0.006-0.077v0.003zM7.834 22.27c0.906 0 1.811 0 2.717 0 0 0.856 0 1.712 0 2.568 0 0.027 0.002 0.053 0.006 0.079v-0.003h-0.145c-1.442 0-2.578-1.138-2.578-2.58v-0.064zM11.551 22.27c0.766 0 1.533 0 2.299 0 0 0.856 0 1.712 0 2.568 0 0.027 0.002 0.053 0.006 0.079v-0.003h-2.309c0.003-0.019 0.004-0.041 0.004-0.063 0-0.004 0-0.008 0-0.011v0.001c0-0.857 0-1.713 0-2.57zM14.85 22.27c0.767 0 1.534 0 2.301 0 0 0.856 0 1.712 0 2.568 0 0.027 0.002 0.053 0.006 0.079v-0.003h-2.311c0.003-0.019 0.004-0.041 0.004-0.063 0-0.004 0-0.008 0-0.011v0.001c0-0.857 0-1.713 0-2.57zM18.15 22.27c0.766 0 1.533 0 2.299 0 0 0.856 0 1.712 0 2.568 0 0.027 0.002 0.053 0.006 0.079v-0.003h-2.309c0.003-0.019 0.004-0.041 0.004-0.063 0-0.004 0-0.008 0-0.011v0.001c0-0.857 0-1.713 0-2.57zM21.449 22.27c0.905 0 1.811 0 2.717 0v0.064c0 1.442-1.136 2.58-2.578 2.58h-0.143c0.003-0.019 0.004-0.041 0.004-0.063 0-0.004 0-0.008 0-0.011v0.001c0-0.857 0-1.713 0-2.57z"></path>
</svg>
