<!-- Generated by IcoMoon.io -->
<svg version="1.1" xmlns="http://www.w3.org/2000/svg" width="32" height="32" viewBox="0 0 32 32">
<title>emoji-wondering-s</title>
<path d="M16 0c-8.819 0-16 7.181-16 16s7.181 16 16 16c8.819 0 16-7.181 16-16s-7.181-16-16-16zM10.4 10.945c1.075 0 1.949 0.875 1.949 1.949s-0.875 1.951-1.949 1.951c-1.075 0-1.951-0.877-1.951-1.951s0.877-1.949 1.951-1.949zM21.6 10.945c1.075 0 1.951 0.875 1.951 1.949s-0.877 1.951-1.951 1.951c-1.075 0-1.949-0.877-1.949-1.951s0.875-1.949 1.949-1.949zM20.488 20.363c0.003 0 0.007 0 0.011 0 0.552 0 1 0.448 1 1 0 0.467-0.32 0.859-0.752 0.969l-0.007 0.002c-2.986 0.799-5.976 1.599-8.963 2.4-0.083 0.025-0.179 0.040-0.279 0.040-0.552 0-1-0.448-1-1 0-0.467 0.321-0.86 0.754-0.97l0.007-0.001c2.988-0.802 5.977-1.601 8.963-2.4 0.079-0.024 0.171-0.038 0.265-0.039h0.001z"></path>
</svg>
