<!-- Generated by IcoMoon.io -->
<svg version="1.1" xmlns="http://www.w3.org/2000/svg" width="32" height="32" viewBox="0 0 32 32">
<title>envelope-r</title>
<path d="M4.1 4.5c-2.252 0-4.1 1.848-4.1 4.1v15.275c0 2.252 1.848 4.1 4.1 4.1h23.801c2.252 0 4.1-1.848 4.1-4.1v-15.275c0-2.252-1.848-4.1-4.1-4.1zM4.1 7.432h23.801c0.683 0 1.168 0.485 1.168 1.168v0.898l-12.244 9.434c-0.167 0.128-0.491 0.232-0.824 0.232s-0.659-0.104-0.826-0.232l-12.244-9.434v-0.898c0-0.683 0.487-1.168 1.17-1.168zM2.93 13.197l10.457 8.055c1.529 1.178 3.698 1.178 5.227 0l10.455-8.055v10.678c0 0.683-0.485 1.17-1.168 1.17h-23.801c-0.683 0-1.17-0.487-1.17-1.17z"></path>
</svg>
