<!-- Generated by IcoMoon.io -->
<svg version="1.1" xmlns="http://www.w3.org/2000/svg" width="32" height="32" viewBox="0 0 32 32">
<title>envelope-alt-r</title>
<path d="M1.465 4.5c-0.801 0-1.464 0.664-1.465 1.465v19.936c-0.001 0.802 0.662 1.466 1.465 1.467h29.070c0 0 0.001 0 0.001 0s0.001 0 0.001 0v0c0.097 0 0.194-0.010 0.289-0.029 0.094-0.019 0.185-0.047 0.273-0.084 0.001 0 0.001 0 0.002 0s0.001 0 0.002 0v0c0.542-0.229 0.898-0.767 0.897-1.355v-19.934c0-0.801-0.664-1.464-1.465-1.465zM5.398 7.434h21.201l-8.529 7.379c-0.010 0.009-0.021 0.018-0.031 0.027l-2.041 1.764c-0.875-0.757-6.168-5.337-10.6-9.17zM2.93 9.174c2.938 2.541 5.618 4.86 7.834 6.777l-7.834 6.777zM29.068 9.174v13.523l-7.816-6.762zM19.014 17.875l7.584 6.561h-21.164l7.568-6.549c0.017 0.015 0.052 0.046 0.063 0.055l1.975 1.711c0.547 0.474 1.373 0.474 1.92 0z"></path>
</svg>
