<!-- Generated by IcoMoon.io -->
<svg version="1.1" xmlns="http://www.w3.org/2000/svg" width="32" height="32" viewBox="0 0 32 32">
<title>envelope-l</title>
<path d="M3.596 4.5c-1.977 0-3.596 1.618-3.596 3.596v15.922c0 1.977 1.618 3.596 3.596 3.596h24.809c1.977 0 3.596-1.618 3.596-3.596v-15.922c0-1.977-1.618-3.596-3.596-3.596zM3.596 6.199h24.809c1.065 0 1.896 0.832 1.896 1.896v1.27l-13.027 10.035c-0.665 0.512-1.882 0.512-2.547 0l-13.027-10.035v-1.27c0-1.065 0.832-1.896 1.896-1.896zM1.699 11.51l11.99 9.236c1.345 1.036 3.276 1.036 4.621 0l11.99-9.236v12.508c0 1.065-0.832 1.896-1.896 1.896h-24.809c-1.065 0-1.897-0.832-1.896-1.896z"></path>
</svg>
