<!-- Generated by IcoMoon.io -->
<svg version="1.1" xmlns="http://www.w3.org/2000/svg" width="32" height="32" viewBox="0 0 32 32">
<title>eye-l</title>
<path d="M15.998 6c-7.146 0-13.54 3.889-15.871 9.788-0.080 0.127-0.127 0.282-0.127 0.447 0 0.004 0 0.007 0 0.011v-0.001c0 0.003 0 0.006 0 0.010 0 0.165 0.047 0.32 0.129 0.451l-0.002-0.004c2.331 5.899 8.725 9.788 15.871 9.788 7.119 0 13.489-3.86 15.842-9.721 0.1-0.138 0.161-0.31 0.161-0.497 0-0.009 0-0.018 0-0.028v0.001c0-0.008 0-0.017 0-0.026 0-0.187-0.060-0.359-0.162-0.5l0.002 0.002c-2.353-5.861-8.723-9.721-15.842-9.721zM15.998 7.701c1.123 0 2.219 0.113 3.281 0.314 0.048 0.039 0.102 0.073 0.159 0.101l0.005 0.002c2.97 1.49 4.444 4.64 3.642 7.673s-3.709 5.198-7.087 5.198c-3.378 0-6.285-2.165-7.087-5.198s0.672-6.183 3.642-7.673c0.063-0.030 0.116-0.065 0.166-0.105l-0.002 0.001c1.062-0.201 2.157-0.314 3.281-0.314zM8.536 9.39c-1.382 1.957-1.904 4.429-1.267 6.837 1.009 3.818 4.624 6.462 8.729 6.462s7.72-2.644 8.729-6.462c0.636-2.408 0.114-4.88-1.267-6.837 3.101 1.501 5.538 3.91 6.757 6.855-2.091 5.051-7.762 8.544-14.219 8.544s-12.128-3.493-14.219-8.544c1.219-2.945 3.655-5.354 6.757-6.855zM15.998 11.347c-0.088 0-0.175 0.004-0.261 0.011l0.011-0.001c0.335 0.39 0.54 0.9 0.541 1.459v0c0 1.242-1.007 2.25-2.25 2.25v0c-0.483-0.001-0.93-0.153-1.296-0.413l0.007 0.005c0.034 1.768 1.475 3.188 3.248 3.189v0c1.795 0 3.25-1.455 3.25-3.25v0c0-1.795-1.455-3.25-3.25-3.25v0z"></path>
</svg>
