<!-- Generated by IcoMoon.io -->
<svg version="1.1" xmlns="http://www.w3.org/2000/svg" width="32" height="32" viewBox="0 0 32 32">
<title>eye-blocked-l</title>
<path d="M2.85 2c0 0 0 0 0 0-0.47 0-0.85 0.381-0.85 0.85 0 0.24 0.099 0.456 0.259 0.611v0c8.761 8.758 17.523 17.518 26.284 26.282 0.156 0.17 0.379 0.276 0.627 0.276 0.47 0 0.85-0.381 0.85-0.85 0-0.248-0.106-0.471-0.275-0.626l-0.001-0.001c-8.761-8.764-17.523-17.526-26.284-26.284-0.155-0.159-0.37-0.258-0.609-0.258v0zM15.999 5.756c-2.121 0-4.173 0.35-6.074 0.986 0.564 0.564 1.129 1.129 1.693 1.693 0.293-0.205 0.604-0.394 0.936-0.561 0.063-0.030 0.116-0.065 0.166-0.105l-0.002 0.001c1.062-0.201 2.158-0.314 3.281-0.314s2.218 0.113 3.279 0.314c0.048 0.039 0.102 0.073 0.159 0.101l0.005 0.002c2.97 1.49 4.444 4.639 3.643 7.672-0.28 1.061-0.829 2.008-1.555 2.801 0.403 0.403 0.806 0.806 1.209 1.209 0.93-0.998 1.628-2.209 1.988-3.574 0.636-2.408 0.114-4.879-1.268-6.836 3.102 1.501 5.539 3.909 6.758 6.854-0.993 2.398-2.799 4.439-5.108 5.928 0.411 0.411 0.822 0.822 1.232 1.232 2.47-1.669 4.412-3.937 5.496-6.637 0.1-0.138 0.161-0.31 0.161-0.497 0-0.009 0-0.018 0-0.028v0.001c0-0.008 0-0.017 0-0.026 0-0.187-0.060-0.359-0.162-0.5l0.002 0.002c-2.353-5.861-8.721-9.721-15.841-9.721zM5.655 8.838c-2.492 1.683-4.449 3.974-5.528 6.705-0.080 0.127-0.127 0.281-0.127 0.447 0 0.004 0 0.007 0 0.011v-0.001c0 0.003 0 0.006 0 0.010 0 0.166 0.047 0.32 0.129 0.451l-0.002-0.004c2.331 5.899 8.725 9.79 15.872 9.79 2.123 0 4.175-0.351 6.078-0.988-0.453-0.453-0.906-0.906-1.359-1.359-1.493 0.419-3.079 0.646-4.719 0.646-6.457 0-12.128-3.494-14.219-8.545 0.994-2.4 2.805-4.433 5.117-5.92-0.414-0.414-0.828-0.828-1.242-1.242zM7.627 10.809c-0.663 1.607-0.826 3.407-0.359 5.174 1.009 3.818 4.625 6.463 8.731 6.463 0.981 0 1.932-0.156 2.828-0.438-0.469-0.469-0.938-0.938-1.406-1.406-0.463 0.086-0.935 0.145-1.422 0.145-3.378 0-6.287-2.166-7.088-5.199-0.305-1.156-0.275-2.327 0.037-3.418-0.44-0.44-0.88-0.88-1.32-1.32zM15.999 11.104c-0.088 0-0.175 0.004-0.261 0.011l0.011-0.001c0.335 0.39 0.54 0.9 0.541 1.459v0c-0.001 0.171-0.021 0.336-0.058 0.496l0.003-0.015c0.898 0.898 1.796 1.796 2.693 2.694 0.199-0.407 0.317-0.886 0.318-1.392v-0.001c0 0 0 0 0-0.001 0-1.794-1.454-3.249-3.248-3.25v0z"></path>
</svg>
