<!-- Generated by IcoMoon.io -->
<svg version="1.1" xmlns="http://www.w3.org/2000/svg" width="32" height="32" viewBox="0 0 32 32">
<title>eye-blocked-s</title>
<path d="M4.894 1.5c-1.1 0.001-1.992 0.894-1.992 1.994 0 0.56 0.231 1.066 0.603 1.429v0c8.354 8.351 16.708 16.706 25.062 25.062 0.363 0.378 0.874 0.613 1.439 0.613 1.101 0 1.994-0.893 1.994-1.994 0-0.565-0.235-1.075-0.612-1.438l-0.001-0.001c-1.187-1.188-2.374-2.374-3.562-3.562 1.563-1.404 2.829-3.090 3.663-5.014 0.238-0.249 0.39-0.581 0.411-0.948v-0.004c0.001-0.024 0.002-0.052 0.002-0.081 0-0.010 0-0.020 0-0.030v0.002c0-0.046-0.002-0.091-0.006-0.136v0.006c-0.030-0.355-0.179-0.67-0.408-0.91l0.001 0.001c-2.47-5.7-8.634-9.407-15.538-9.407-1.433 0-2.829 0.172-4.171 0.477-1.818-1.818-3.636-3.637-5.454-5.454-0.363-0.373-0.869-0.604-1.429-0.604-0.001 0-0.001 0-0.002 0v0zM15.951 9.315c4.543 0 8.225 3.683 8.225 8.225v0c-0.005 0.757-0.111 1.487-0.306 2.18l0.014-0.058c-0.652-0.652-1.305-1.305-1.957-1.957 0.002-0.043 0.004-0.101 0.006-0.159v-0.007c0-3.304-2.678-5.982-5.982-5.982v0c-0.070 0.003-0.126 0.007-0.182 0.011l0.020-0.001c-0.654-0.654-1.309-1.309-1.963-1.963 0.636-0.181 1.367-0.286 2.122-0.29h0.002zM4.162 11.39c-1.604 1.42-2.899 3.138-3.749 5.1-0.238 0.25-0.391 0.582-0.411 0.95v0.004c-0.001 0.024-0.002 0.052-0.002 0.080 0 0.009 0 0.017 0 0.026v-0.001c0 0.003 0 0.007 0 0.010 0 0.4 0.157 0.764 0.413 1.032l-0.001-0.001c2.47 5.7 8.634 9.407 15.538 9.407 1.483 0 2.928-0.181 4.313-0.506-0.683-0.683-1.366-1.366-2.049-2.049-0.678 0.203-1.457 0.32-2.264 0.321h-0.001c-4.543 0-8.225-3.683-8.225-8.225v0c0.003-0.807 0.122-1.584 0.34-2.319l-0.015 0.058c-1.296-1.296-2.592-2.593-3.889-3.889zM9.984 17.236c-0.007 0.084-0.013 0.19-0.015 0.296v0.008c0 3.304 2.678 5.982 5.982 5.982v0c0.121-0.003 0.235-0.008 0.348-0.017l-0.020 0.001c-2.067-2.067-4.133-4.134-6.2-6.2-0.040-0.028-0.070-0.051-0.1-0.075l0.006 0.005z"></path>
</svg>
