<!-- Generated by IcoMoon.io -->
<svg version="1.1" xmlns="http://www.w3.org/2000/svg" width="32" height="32" viewBox="0 0 32 32">
<title>eye-blocked-r</title>
<path d="M2.842 1.5c-0.828 0.001-1.498 0.672-1.498 1.5 0 0.422 0.174 0.803 0.454 1.076v0c8.761 8.758 17.52 17.52 26.281 26.283 0.272 0.272 0.647 0.44 1.062 0.44 0.829 0 1.501-0.672 1.501-1.501 0-0.414-0.168-0.789-0.439-1.061v0c-8.761-8.764-17.522-17.525-26.283-26.283-0.273-0.281-0.654-0.455-1.076-0.455-0.001 0-0.001 0-0.002 0v0zM16 5.666c-1.488 0-2.936 0.182-4.326 0.508 0.865 0.864 1.729 1.729 2.594 2.594 0.569-0.062 1.145-0.102 1.732-0.102 5.803 0 10.793 3.114 12.771 7.492-0.69 1.526-1.752 2.893-3.080 4.033 0.712 0.712 1.423 1.423 2.135 2.135 1.609-1.424 2.907-3.148 3.76-5.115 0.238-0.25 0.392-0.583 0.412-0.951v-0.004c0.001-0.025 0.002-0.053 0.002-0.082 0-0.010 0-0.019 0-0.029v0.001c0-0.046-0.002-0.092-0.006-0.137v0.006c-0.030-0.356-0.18-0.672-0.409-0.913l0.001 0.001c-2.478-5.718-8.661-9.438-15.586-9.438zM16 9.156c-0.436 0.002-0.86 0.044-1.272 0.122l0.044-0.007c2.706 2.705 5.411 5.411 8.117 8.117 0.070-0.37 0.11-0.795 0.111-1.23v-0.001c0 0 0-0.001 0-0.001 0-3.866-3.134-7-7-7.001v0zM4.174 9.988c-1.609 1.424-2.907 3.15-3.76 5.117-0.239 0.25-0.392 0.584-0.412 0.953v0.004c-0.001 0.024-0.002 0.052-0.002 0.081 0 0.009 0 0.018 0 0.026v-0.001c0 0.003 0 0.006 0 0.010 0 0.402 0.158 0.766 0.415 1.035l-0.001-0.001c2.478 5.718 8.661 9.436 15.586 9.436 1.488 0 2.936-0.182 4.326-0.508-0.865-0.865-1.729-1.729-2.594-2.594-0.569 0.062-1.145 0.102-1.732 0.102-5.803 0-10.793-3.112-12.771-7.49 0.69-1.526 1.752-2.895 3.080-4.035-0.712-0.711-1.423-1.423-2.135-2.135zM9.018 15.803c-0.008 0.099-0.014 0.222-0.017 0.347v0.009c0 3.866 3.134 7 7 7v0c0.436-0.002 0.86-0.044 1.272-0.122l-0.044 0.007c-2.168-2.168-4.336-4.336-6.504-6.504-0.655-0.094-1.236-0.356-1.714-0.742l0.007 0.005z"></path>
</svg>
