<!-- Generated by IcoMoon.io -->
<svg version="1.1" xmlns="http://www.w3.org/2000/svg" width="32" height="32" viewBox="0 0 32 32">
<title>files-empty-r</title>
<path d="M6.377 0c-2.344 0-4.271 1.927-4.271 4.271v19.859c0 0.005 0 0.012 0 0.018 0 0.698 0.566 1.263 1.263 1.263s1.263-0.566 1.263-1.263c0-0.006 0-0.013 0-0.019v0.001-19.859c0-0.988 0.757-1.745 1.745-1.745h12.643c0.005 0 0.012 0 0.018 0 0.698 0 1.263-0.566 1.263-1.263s-0.566-1.263-1.263-1.263c-0.006 0-0.013 0-0.019 0h0.001zM11.405 5.053c-2.331 0-4.247 1.916-4.247 4.247v18.454c0 2.331 1.916 4.247 4.247 4.247h14.52c2.331 0 4.245-1.916 4.245-4.247v-15.317c0-0.233-0.063-0.45-0.173-0.638l0.003 0.006c-0.025-0.043-0.099-0.306-0.359-0.712-0.698-1.092-1.513-2.108-2.431-3.026s-1.937-1.735-3.030-2.433c-0.433-0.277-0.735-0.365-0.824-0.416-0.179-0.103-0.394-0.164-0.624-0.164-0.001 0-0.002 0-0.003 0v0zM11.405 7.581h8.658c-0.021 2.753 0.002 6.14 0.002 6.14 0.006 0.693 0.57 1.253 1.264 1.253 0 0 0.001 0 0.001 0h6.312v12.78c0 0.974-0.743 1.719-1.717 1.719h-14.52c-0.974 0-1.719-0.744-1.719-1.719v-18.454c0-0.974 0.745-1.719 1.719-1.719zM22.592 7.653c0.094 0.046 0.211 0.1 0.227 0.11 0.94 0.601 1.817 1.304 2.604 2.090 0.785 0.785 1.485 1.656 2.084 2.592h-4.914c-0.006-0.926-0.014-2.82 0-4.793z"></path>
</svg>
