<!-- Generated by IcoMoon.io -->
<svg version="1.1" xmlns="http://www.w3.org/2000/svg" width="32" height="32" viewBox="0 0 32 32">
<title>files-empty-s</title>
<path d="M6.745 0c-2.57 0-4.694 2.124-4.694 4.694v21.114h3.529v-21.114c0-0.677 0.488-1.165 1.165-1.165h14.083v-3.529h-1.764zM11.933 5.744c-2.271 0-4.138 1.867-4.138 4.138v17.981c0 2.271 1.867 4.138 4.138 4.138h14.147c2.271 0 4.136-1.867 4.136-4.138v-13.149h-7.795c-0.565-0.001-1.023-0.459-1.024-1.024v0c0 0-0.011-4.534-0.005-7.946zM23.449 5.841c-0.003 2.665-0.003 5.916 0 6.819h6.736c-0.030-0.128-0.076-0.241-0.136-0.344l0.003 0.006c-0.024-0.041-0.097-0.299-0.349-0.694-0.68-1.064-1.474-2.054-2.369-2.949s-1.888-1.69-2.952-2.37c-0.422-0.27-0.716-0.356-0.803-0.405-0.035-0.020-0.078-0.041-0.122-0.059l-0.008-0.003z"></path>
</svg>
