<!-- Generated by IcoMoon.io -->
<svg version="1.1" xmlns="http://www.w3.org/2000/svg" width="27" height="32" viewBox="0 0 27 32">
<title>file-empty-l</title>
<path d="M17.795 0c-0.047 0-0.093 0.005-0.138 0.012l0.005-0.001h-13.113c-2.506 0-4.549 2.045-4.549 4.551v22.889c0 2.506 2.043 4.549 4.549 4.549h18.010c2.506 0 4.549-2.043 4.549-4.549v-18.998c0-0.157-0.043-0.304-0.117-0.43l0.002 0.004c-0.087-0.15-0.176-0.462-0.426-0.854-0.838-1.312-1.818-2.533-2.92-3.635s-2.323-2.080-3.635-2.918c-0.429-0.274-0.791-0.383-0.992-0.498-0.121-0.070-0.266-0.111-0.421-0.111 0 0-0.001 0-0.001 0h-0.662c-0.042-0.007-0.091-0.012-0.141-0.012v0zM4.549 1.713h12.398c-0.023 3.363 0.002 7.385 0.002 7.385 0.004 0.467 0.383 0.844 0.85 0.844h7.609v17.51c0 1.594-1.256 2.85-2.85 2.85h-18.010c-1.594 0-2.85-1.256-2.85-2.85v-22.889c0-1.594 1.256-2.85 2.85-2.85zM18.648 1.832c0.17 0.079 0.364 0.167 0.447 0.221 1.209 0.773 2.336 1.676 3.35 2.689s1.915 2.139 2.688 3.348c0.015 0.024 0.052 0.109 0.074 0.152h-6.559c-0.005-0.712-0.016-3.676 0-6.41z"></path>
</svg>
