<!-- Generated by IcoMoon.io -->
<svg version="1.1" xmlns="http://www.w3.org/2000/svg" width="32" height="32" viewBox="0 0 32 32">
<title>filter-l</title>
<path d="M16 0c-4.256 0-8.108 0.532-10.967 1.426-1.43 0.447-2.612 0.978-3.498 1.633s-1.535 1.504-1.535 2.525v3.193l11.363 11.361v9.117c0 0.982 0.738 1.68 1.578 2.1s1.898 0.645 3.059 0.645c1.161 0 2.218-0.225 3.059-0.645s1.578-1.117 1.578-2.1v-9.117l11.363-11.361v-3.193c0-1.021-0.65-1.871-1.535-2.525s-2.069-1.186-3.498-1.633c-2.859-0.894-6.711-1.426-10.967-1.426zM16 1.699c4.112 0 7.835 0.53 10.459 1.35 0.916 0.286 1.688 0.611 2.297 0.943-3.409 1.908-7.978 3.021-12.756 3.021s-9.347-1.114-12.756-3.022c0.609-0.333 1.381-0.657 2.297-0.943 2.624-0.82 6.347-1.35 10.459-1.35zM1.84 5.152c3.797 2.301 8.865 3.563 14.16 3.563s10.363-1.262 14.16-3.563c0.093 0.161 0.141 0.309 0.141 0.432v2.488l-11.363 11.363v9.82c0 0.064-0.108 0.315-0.639 0.58s-1.368 0.465-2.299 0.465c-0.931 0-1.768-0.2-2.299-0.465s-0.639-0.516-0.639-0.58v-9.82l-11.363-11.363v-2.488c0-0.123 0.047-0.271 0.141-0.432z"></path>
</svg>
