<!-- Generated by IcoMoon.io -->
<svg version="1.1" xmlns="http://www.w3.org/2000/svg" width="28" height="32" viewBox="0 0 28 32">
<title>fire-r</title>
<path d="M11.85 0c-0.002 0-0.004 0-0.007 0-0.828 0-1.5 0.672-1.5 1.5 0 0.079 0.006 0.156 0.018 0.231l-0.001-0.008c0.422 2.818-1.248 6.104-3.273 9.156-0.182-0.539-0.298-1.059-0.617-1.64-0.26-0.468-0.751-0.779-1.315-0.779-0.795 0-1.445 0.618-1.497 1.399v0.005c-0.084 1.299-0.653 2.61-1.383 4.082s-1.612 3.085-2.012 5.019c-0.513 2.482-0.316 4.899 0.941 7.054 1.227 2.103 3.363 3.891 6.441 5.654 0.057 0.046 0.121 0.090 0.188 0.129l0.007 0.004c0.212 0.121 0.466 0.193 0.736 0.193 0.244 0 0.475-0.058 0.678-0.162l-0.009 0.004h0.002c0.495-0.252 0.827-0.758 0.827-1.341 0-0.236-0.055-0.459-0.152-0.658l0.004 0.009c0-0.001 0-0.001 0-0.002-0.872-1.815-1.011-3.051-0.859-4.070s0.632-1.913 1.326-2.928c0 0 0-0.001 0-0.001s0-0.001 0-0.001v0c0.14-0.204 0.157-0.358 0.281-0.561 0.265 0.448 0.746 0.744 1.296 0.744 0.442 0 0.839-0.191 1.113-0.495l0.001-0.001c1.363-1.517 2.106-3.372 2.494-5.062 0.046-0.202-0.014-0.322 0.023-0.518 2.785 3.547 3.794 8.827 1.724 12.856-0.105 0.2-0.167 0.437-0.167 0.688 0 0.828 0.672 1.5 1.5 1.5 0.273 0 0.528-0.073 0.748-0.2l-0.007 0.004c4.12-2.331 6.599-5.065 7.816-7.929s1.133-5.776 0.449-8.318c-0.684-2.542-1.945-4.753-3.168-6.451s-2.295-2.811-3.107-3.404c-0.244-0.18-0.552-0.288-0.884-0.288-0.609 0-1.133 0.363-1.368 0.884l-0.004 0.009c-0.994-1.689-2.087-2.987-3.115-3.912-1.933-1.738-3.728-2.328-3.728-2.328-0.132-0.043-0.285-0.068-0.443-0.068v0zM13.233 4.121c0.361 0.242 0.325 0.094 0.783 0.506 1.533 1.379 3.382 3.76 4.476 7.912 0.175 0.648 0.758 1.117 1.45 1.117 0.383 0 0.733-0.144 0.998-0.38l-0.001 0.001c0.692-0.615 1.041-1.39 1.267-2.187 1.019 1.453 2.035 3.28 2.564 5.248 0.554 2.061 0.603 4.212-0.312 6.367-0.551 1.297-1.654 2.617-3.101 3.925 0.701-5.465-1.695-11.243-6.183-14.38-0.239-0.168-0.537-0.269-0.857-0.269-0.828 0-1.5 0.672-1.5 1.5 0 0.115 0.013 0.227 0.037 0.334l-0.002-0.010c0.082 0.368 0.109 1.672-0.195 2.998-0.004 0.018-0.013 0.035-0.018 0.053-0.071-0.114-0.246-0.498-0.246-0.498-0.277-0.357-0.706-0.585-1.189-0.585-0.736 0-1.348 0.53-1.476 1.229l-0.001 0.009c0 0-0.374 2.050-1.808 4.146h0.002c-0.791 1.156-1.567 2.498-1.818 4.179-0.079 0.527 0.005 1.123 0.043 1.699-1.061-0.867-1.874-1.712-2.349-2.527-0.859-1.474-1.009-2.935-0.596-4.935 0 0 0-0.001 0-0.001s0-0.001 0-0.001v0c0.28-1.358 0.993-2.733 1.74-4.238 0.228 0.556 0.765 0.941 1.392 0.941 0.467 0 0.884-0.213 1.159-0.547l0.002-0.003c2.576-3.156 5.262-7.254 5.74-11.601z"></path>
</svg>
