<!-- Generated by IcoMoon.io -->
<svg version="1.1" xmlns="http://www.w3.org/2000/svg" width="32" height="32" viewBox="0 0 32 32">
<title>folder-upload-l</title>
<path d="M0 3v26.496h12.82c0-0.005 0-0.007 0-0.012h1.699v-8.115c0 0 0-0.001 0-0.001 0-0.469-0.38-0.85-0.85-0.85h-3.268l5.598-5.598 5.598 5.598h-3.268c-0.469 0-0.85 0.381-0.85 0.85 0 0.001 0 0.001 0 0.002v0 8.115h1.699v0.012h12.82v-22.826h-13.617l-3.67-3.67h-14.713zM1.699 4.699h12.311l3.668 3.67h12.623v19.428h-11.121v-5.578h4.471c0 0 0 0 0 0 0.47 0 0.85-0.381 0.85-0.85 0-0.235-0.095-0.447-0.249-0.601l-7.65-7.65c-0.154-0.153-0.366-0.248-0.6-0.248-0.005 0-0.009 0-0.014 0h0.001c-0.231 0.003-0.438 0.097-0.59 0.248l-7.65 7.65c-0.154 0.154-0.249 0.366-0.249 0.601 0 0.47 0.381 0.85 0.85 0.85 0 0 0 0 0 0h4.471v5.578h-11.121v-23.098z"></path>
</svg>
