<!-- Generated by IcoMoon.io -->
<svg version="1.1" xmlns="http://www.w3.org/2000/svg" width="32" height="32" viewBox="0 0 32 32">
<title>futbol-r</title>
<path d="M16.007 0c-8.826 0-15.999 7.173-15.999 15.999 0 0.208 0.023 0.411 0.031 0.617-0.025 0.076-0.039 0.164-0.039 0.254 0 0.121 0.025 0.235 0.070 0.339l-0.002-0.005c0.619 8.263 7.519 14.796 15.939 14.796s15.32-6.534 15.939-14.798c0.043-0.098 0.068-0.212 0.068-0.332 0-0.090-0.014-0.177-0.040-0.258l0.002 0.006c0.008-0.207 0.031-0.41 0.031-0.619 0-8.826-7.173-15.999-15.999-15.999zM10.333 2.872l5.506 5.506 0.549-0.274c0 0 0.13-0.077 0.168-0.107s0.078-0.065 0.139-0.119c0.121-0.108 0.318-0.293 0.668-0.633 0.677-0.658 2.014-2 4.32-4.373 1.986 0.858 3.733 2.156 5.129 3.767-0.005 0.008-0.011 0.021-0.017 0.034l-0.002 0.005c-1.541 3.18-2.323 4.856-2.724 5.747-0.2 0.445-0.306 0.695-0.365 0.846-0.030 0.075-0.047 0.125-0.063 0.172s-0.045 0.193-0.045 0.193l-0.070 0.61 6.712 3.128c-0.191 2.009-0.799 3.894-1.733 5.573 0 0-0.001 0-0.001 0s-0.001 0-0.001 0v0c-0.033-0.009-0.074-0.017-0.115-0.021h-0.004c-3.516-0.361-5.355-0.522-6.329-0.594-0.487-0.036-0.756-0.048-0.918-0.053-0.081-0.002-0.135-0.003-0.184-0.002s-0.199 0.025-0.199 0.025l-0.596 0.143-0.647 7.406c-1.123 0.283-2.292 0.449-3.504 0.449s-2.381-0.167-3.504-0.449l-0.647-7.406-0.596-0.143c0 0-0.15-0.024-0.199-0.025s-0.103 0-0.184 0.002c-0.162 0.005-0.43 0.017-0.916 0.053-0.974 0.072-2.815 0.233-6.331 0.594-0.046 0.006-0.087 0.014-0.127 0.025l0.006-0.001c-0.934-1.679-1.54-3.565-1.731-5.575l6.71-3.128-0.070-0.61c0 0-0.030-0.147-0.045-0.193s-0.033-0.097-0.063-0.172c-0.060-0.151-0.165-0.401-0.365-0.846-0.4-0.89-1.181-2.566-2.722-5.747-0.008-0.017-0.015-0.029-0.022-0.041l0.002 0.004c1.397-1.612 3.143-2.911 5.129-3.769zM16.031 10.186c-0.007 0-0.015 0-0.024 0-0.188 0-0.362 0.061-0.502 0.164l0.002-0.002-5.219 3.793c-0.213 0.156-0.35 0.406-0.35 0.687 0 0.093 0.015 0.183 0.043 0.267l-0.002-0.006 1.993 6.14c0.115 0.343 0.433 0.586 0.808 0.586 0 0 0.001 0 0.001 0h6.452c0 0 0.001 0 0.001 0 0.375 0 0.694-0.243 0.806-0.58l0.002-0.006 1.995-6.14c0.026-0.078 0.041-0.167 0.041-0.261 0-0.281-0.137-0.531-0.347-0.685l-0.002-0.002-5.221-3.793c-0.132-0.097-0.297-0.157-0.476-0.162h-0.001z"></path>
</svg>
