<!-- Generated by IcoMoon.io -->
<svg version="1.1" xmlns="http://www.w3.org/2000/svg" width="32" height="32" viewBox="0 0 32 32">
<title>geometry-l</title>
<path d="M23.363 0l-8.645 14.963h17.281zM23.355 3.395l5.699 9.871h-11.391zM7.5 17.008c-4.13 0-7.5 3.362-7.5 7.492s3.37 7.5 7.5 7.5 7.492-3.37 7.492-7.5c0-4.13-3.362-7.492-7.492-7.492zM18.572 18.572v13.428h13.428v-13.428zM7.5 18.705c3.212 0 5.795 2.583 5.795 5.795s-2.583 5.803-5.795 5.803-5.803-2.591-5.803-5.803c0-3.212 2.591-5.795 5.803-5.795zM20.277 20.277h10.025v10.025h-10.025z"></path>
</svg>
