<!-- Generated by IcoMoon.io -->
<svg version="1.1" xmlns="http://www.w3.org/2000/svg" width="32" height="32" viewBox="0 0 32 32">
<title>gift-s</title>
<path d="M23.068 0.017c-0.265 0.024-0.518 0.071-0.758 0.133-1.387 0.356-2.489 1.197-3.377 2.080-1.22 1.212-2.169 2.627-2.943 4.087-0.499 0.942-0.845 1.952-1.212 2.953-0.304-1.006-0.589-2.019-1.045-2.966-0.473-0.981-1.059-2.009-1.953-2.864-0.907-0.868-2.13-1.528-3.523-1.54-0.548-0.005-1.185 0.091-1.777 0.485-0.508 0.338-0.852 0.816-1.047 1.335-0.193 0.512-0.232 1.035-0.18 1.523 0.094 0.877 0.478 1.633 0.955 2.244 0.472 0.605 1.025 1.066 1.549 1.462 0.821 0.62 1.702 1.153 2.619 1.616h-7.468v6.665h26.045v-6.665h-8.269c1.073-0.528 2.085-1.182 3-1.96 0.642-0.546 1.266-1.171 1.782-1.917 0.518-0.749 0.925-1.615 1.091-2.576 0.090-0.518 0.116-1.094-0.021-1.691-0.139-0.606-0.445-1.21-0.977-1.672-0.498-0.432-1.090-0.648-1.667-0.72-0.285-0.035-0.561-0.035-0.826-0.011zM23.273 2.284c0.124-0.011 0.239-0.011 0.341 0.002 0.197 0.025 0.365 0.103 0.456 0.182 0.097 0.084 0.201 0.253 0.248 0.46 0.049 0.216 0.051 0.492-0.002 0.795-0.098 0.568-0.355 1.142-0.72 1.669-0.366 0.529-0.844 1.020-1.384 1.479-1.423 1.21-3.172 1.941-4.987 2.403 0.26-0.631 0.457-1.289 0.776-1.892 0.698-1.316 1.525-2.536 2.534-3.538 0.725-0.72 1.526-1.281 2.341-1.491 0.139-0.036 0.272-0.059 0.396-0.070zM8.239 4.174c0.658 0.006 1.391 0.359 1.966 0.909 0.589 0.563 1.062 1.34 1.479 2.206 0.245 0.508 0.364 1.064 0.561 1.593-1.1-0.473-2.161-1.031-3.116-1.752-0.454-0.342-0.843-0.685-1.125-1.045-0.277-0.355-0.452-0.742-0.489-1.083-0.020-0.186 0.002-0.358 0.047-0.479 0.043-0.115 0.122-0.207 0.178-0.244 0.070-0.047 0.251-0.106 0.498-0.104zM4.769 19.28v12.428h9.216v-12.428zM18.269 19.28v12.428h8.826v-12.428z"></path>
</svg>
