<!-- Generated by IcoMoon.io -->
<svg version="1.1" xmlns="http://www.w3.org/2000/svg" width="32" height="32" viewBox="0 0 32 32">
<title>gift-r</title>
<path d="M24.136 0c-1.747 0-3.531 0.945-5.447 2.86-1.366 1.365-2.339 3.272-3.148 5.174-0.747-1.762-1.607-3.343-2.722-4.456-0.953-0.953-2.187-1.542-3.485-1.542-0.594 0-1.536 0.13-2.295 0.89 0 0-0.001 0-0.001 0s-0.001 0-0.001 0v0c-0.913 0.913-0.921 2.044-0.877 2.61 0 0 0 0.001 0 0.001s0 0.001 0 0.001v0c0.093 1.186 0.658 2.298 1.528 3.169 0 0 0.002 0 0.002 0s0 0.002 0 0.002c0.536 0.537 1.164 1.025 1.86 1.475h-7.127v9.4h1.744v12.208h23.352v-12.208h1.744v-9.4h-6.506c0.867-0.576 1.703-1.233 2.458-1.989 1.074-1.074 1.797-2.351 2.106-3.625s0.215-2.683-0.758-3.655c-0.803-0.803-1.799-0.915-2.43-0.915zM24.136 2.424c0.292 0 0.591 0.080 0.716 0.205 0.15 0.15 0.301 0.604 0.116 1.371s-0.698 1.713-1.466 2.481c-1.663 1.663-3.991 2.881-6.072 3.703h-0.121c0.823-2.118 1.914-4.427 3.095-5.608 1.667-1.667 2.873-2.151 3.733-2.151zM9.335 4.46c0.536 0 1.216 0.277 1.771 0.831 0.88 0.88 1.66 2.348 2.348 4.049-1.701-0.688-3.17-1.466-4.049-2.347 0 0 0-0.001 0-0.001s0-0.001 0-0.001v0c-0.495-0.495-0.785-1.136-0.826-1.642-0.017-0.221 0.030-0.566 0.174-0.71 0.124-0.124 0.35-0.18 0.581-0.18zM4.848 12.608h8.911c0 1.484 0 2.969 0 4.453-2.97 0-5.941 0-8.911 0zM17.93 12.608h8.911v4.453c-2.97 0-5.941 0-8.911 0 0-1.484 0-2.969 0-4.453zM6.593 19c2.389 0 4.778 0 7.167 0 0 3.456 0 6.911 0 10.367h-7.167zM17.93 19c2.389 0 4.778 0 7.167 0v10.367h-7.167c0-3.456 0-6.912 0-10.367z"></path>
</svg>
