<!-- Generated by IcoMoon.io -->
<svg version="1.1" xmlns="http://www.w3.org/2000/svg" width="21" height="32" viewBox="0 0 21 32">
<title>glass-r</title>
<path d="M3.84 0c-0.877 0-1.689 0.481-2.106 1.258-0.025 0.046-0.045 0.098-0.058 0.154l-0.001 0.004c-1.094 2.098-1.676 4.495-1.676 6.971 0 3.339 1.019 6.521 2.94 8.975 1.4 1.789 3.203 3.009 5.184 3.598 0.161 0.091 0.332 0.161 0.516 0.186 0.034 0.005 0.068 0.007 0.102 0.010 0.015 0.001 0.033 0.002 0.051 0.002v0c0.021 0.001 0.041 0.002 0.063 0.002-0.016 0 0.257 0.039 0.375 0.059 0 3.077 0 6.699 0 7.854-1.577 0-2.73 0-4.090 0-0.445-0.015-0.87 0.167-1.135 0.457s-0.379 0.655-0.379 1.010c0 0.354 0.116 0.718 0.381 1.008s0.69 0.469 1.135 0.453c3.716-0.001 11.073 0 11.104 0 0.445 0.015 0.87-0.165 1.135-0.455s0.381-0.654 0.381-1.008c0-0.354-0.116-0.72-0.381-1.010s-0.69-0.47-1.135-0.455c-0.025 0-2.318 0-4.088 0 0-1.153 0-4.763 0-7.84 0.167-0.033 0.451-0.074 0.508-0.088l-0.16 0.018c0.134 0.001 0.267-0.016 0.396-0.051l-0.162 0.023c0.001 0 0.003 0 0.004 0 0.053 0 0.105-0.006 0.155-0.018l-0.004 0.001c0.133-0.032 0.258-0.090 0.377-0.158 1.978-0.59 3.779-1.809 5.176-3.596 1.92-2.454 2.942-5.635 2.942-8.975 0-2.535-0.595-4.996-1.74-7.129-0.415-0.772-1.223-1.258-2.102-1.258zM4.207 2.928h12.971c0.666 1.332 1.046 2.854 1.168 4.453-1.463 0-9.551-0.001-15.315 0 0.124-1.598 0.507-3.119 1.176-4.453zM3.152 10.313c5.717-0.001 13.533 0 15.079 0-0.301 1.984-0.983 3.823-2.094 5.242-1.136 1.452-2.499 2.352-3.951 2.717 0 0-0.002 0-0.002 0s-0.001 0-0.001 0-0.001 0-0.001 0v0c0 0-0.74 0.178-1.479 0.178-0.243 0-0.848-0.13-1.514-0.182-1.448-0.366-2.809-1.263-3.943-2.713-1.111-1.419-1.793-3.259-2.094-5.242z"></path>
</svg>
