<!-- Generated by IcoMoon.io -->
<svg version="1.1" xmlns="http://www.w3.org/2000/svg" width="32" height="32" viewBox="0 0 32 32">
<title>headphones-s</title>
<path d="M9.020 18.040h-2.004v14.031h2.004c0.551 0 1.002-0.451 1.002-1.002v-12.027c0-0.551-0.451-1.002-1.002-1.002z"></path>
<path d="M23.051 18.040c-0.551 0-1.002 0.451-1.002 1.002v12.027c0 0.551 0.451 1.002 1.002 1.002h2.004v-14.031z"></path>
<path d="M32.071 16.036c0-8.857-7.179-16.036-16.036-16.036s-16.036 7.179-16.036 16.036c0 1.923 0.339 3.767 0.96 5.476-0.61 1.040-0.96 2.251-0.96 3.544 0 3.534 2.614 6.457 6.013 6.944v-13.888c-0.999 0.143-1.931 0.496-2.748 1.014-0.168-0.837-0.259-1.703-0.259-2.59 0-7.196 5.833-13.029 13.029-13.029s13.029 5.833 13.029 13.029c0 0.887-0.088 1.753-0.258 2.59-0.818-0.518-1.749-0.872-2.749-1.015v13.889c3.4-0.486 6.013-3.41 6.013-6.944 0-1.293-0.35-2.504-0.96-3.544 0.621-1.709 0.96-3.553 0.96-5.477z"></path>
</svg>
