<!-- Generated by IcoMoon.io -->
<svg version="1.1" xmlns="http://www.w3.org/2000/svg" width="32" height="32" viewBox="0 0 32 32">
<title>headphones-r</title>
<path d="M16.035 0c-3.309 0-6.617 1.019-9.425 3.059-5.616 4.080-7.971 11.326-5.825 17.928 0.047 0.153 0.116 0.286 0.206 0.402l-0.002-0.003c-0.624 1.057-0.989 2.287-0.989 3.6 0.001 3.841 3.077 7.013 6.874 7.013h2.529c0 0 0 0 0 0 0.692 0 1.253-0.561 1.253-1.253 0 0 0 0 0 0v0-11.525c0 0 0 0 0 0 0-0.692-0.561-1.253-1.253-1.253 0 0 0 0 0 0h-2.529c-1.482 0-2.849 0.489-3.972 1.306-1.314-5.313 0.698-10.932 5.179-14.187 4.746-3.448 11.16-3.448 15.906 0 4.481 3.256 6.494 8.874 5.179 14.187-1.122-0.817-2.49-1.305-3.972-1.306h-2.529c0 0 0 0 0 0-0.692 0-1.253 0.561-1.253 1.253 0 0 0 0 0 0v0 11.525c0 0 0 0 0 0 0 0.692 0.561 1.253 1.253 1.253 0 0 0 0 0 0h2.529c3.798 0 6.873-3.172 6.874-7.013 0.001-1.313-0.365-2.543-0.988-3.6 0.087-0.114 0.157-0.247 0.201-0.39l0.002-0.009c2.145-6.602-0.209-13.848-5.825-17.928-2.808-2.040-6.116-3.059-9.425-3.059zM6.446 20.516v8.936c-2.207-0.222-3.94-2.099-3.94-4.467s1.732-4.246 3.94-4.469zM25.625 20.516c2.208 0.222 3.941 2.1 3.94 4.469s-1.733 4.245-3.94 4.467z"></path>
</svg>
