<!-- Generated by IcoMoon.io -->
<svg version="1.1" xmlns="http://www.w3.org/2000/svg" width="32" height="32" viewBox="0 0 32 32">
<title>headphones-l</title>
<path d="M16.168 0c-3.336 0-6.671 1.029-9.503 3.087-5.664 4.115-8.037 11.418-5.873 18.076 0.032 0.097 0.077 0.18 0.134 0.255l-0.002-0.002c-0.585 1.038-0.924 2.236-0.924 3.513 0.001 3.883 3.099 7.071 6.921 7.071h2.728c0.474 0 0.859-0.385 0.859-0.859 0-0.001 0-0.001 0-0.002v0-12.428c0-0.474-0.384-0.858-0.858-0.859h-2.728c-1.834 0-3.496 0.738-4.735 1.93-1.482-5.719 0.661-11.8 5.489-15.307 5.067-3.681 11.918-3.681 16.985 0 4.828 3.508 6.97 9.589 5.489 15.307-1.238-1.192-2.901-1.93-4.735-1.93h-2.728c-0.474 0-0.858 0.384-0.859 0.858v12.428c0 0 0 0.001 0 0.002 0 0.474 0.384 0.859 0.858 0.859h2.728c3.823 0 6.92-3.188 6.921-7.071 0.001-1.277-0.339-2.475-0.924-3.513 0.055-0.072 0.1-0.156 0.13-0.247l0.002-0.006c2.163-6.658-0.21-13.961-5.873-18.076-2.832-2.057-6.167-3.087-9.503-3.087zM6.922 19.57h1.869v10.711h-1.869c-0.015 0-0.028-0.010-0.043-0.010v-10.691c0.015 0 0.028-0.010 0.043-0.010zM23.545 19.57h1.869c0.015 0 0.028 0.010 0.043 0.010v10.691c-0.015 0-0.028 0.010-0.043 0.010h-1.869zM5.161 19.933v9.984c-1.998-0.743-3.444-2.66-3.444-4.991s1.446-4.25 3.444-4.993zM27.175 19.933c1.998 0.743 3.445 2.661 3.444 4.993s-1.446 4.249-3.444 4.991z"></path>
</svg>
