<!-- Generated by IcoMoon.io -->
<svg version="1.1" xmlns="http://www.w3.org/2000/svg" width="32" height="32" viewBox="0 0 32 32">
<title>heart-broken-l</title>
<path d="M7.699 2.009c-0.657-0.027-1.304 0.011-1.936 0.127-0.006 0.003-0.007 0.004-0.009 0.004l0.005-0.002c-1.259 0.24-2.447 0.811-3.399 1.762-1.879 1.879-2.567 4.403-2.309 6.889 0.254 2.484 1.429 4.951 3.287 6.809l12.059 12.053c0.154 0.154 0.367 0.25 0.602 0.25s0.448-0.095 0.602-0.25v0l12.059-12.053c1.858-1.858 3.033-4.325 3.287-6.809v-0.002c0.258-2.485-0.43-5.008-2.309-6.887-0.951-0.951-2.139-1.522-3.399-1.762 0.003 0.002 0.002 0.001 0.001 0l-0.005-0.002c-1.26-0.233-2.597-0.156-3.936 0.15-0.892 0.202-1.656 0.596-2.358 0.897-0.306 0.133-0.517 0.433-0.517 0.782 0 0.090 0.014 0.176 0.040 0.257l-0.002-0.006 2.324 7.477-6.504 4.486 0.012 0.002c-0.018 0.009-0.057 0.029-0.057 0.029s-0.184 0.199-0.184 0.199c0 0-0.121 0.287-0.121 0.287s-0.018 0.113-0.020 0.148c-0.012 0.288 0.022 0.24 0.035 0.293 0.027 0.107 0.068 0.244 0.168 0.549 0.042 0.127 0.258 0.739 0.322 0.928l-2.934-2.934 5.545-3.662c0.231-0.154 0.381-0.414 0.381-0.709 0-0.097-0.016-0.191-0.046-0.278l0.002 0.006-1.58-4.694v0.004c-0.023-0.070-0.051-0.131-0.086-0.187l0.002 0.004c-0.042-0.070-0.090-0.13-0.146-0.183v0c-0.012-0.012-0.030-0.020-0.043-0.031-0.002-0.002-0.006-0.004-0.008-0.006-1.829-1.703-4.302-3.085-6.828-3.658h-0.002c-0.67-0.153-1.338-0.25-1.998-0.277zM7.629 3.709c0.542 0.022 1.109 0.101 1.691 0.234 0 0 0.001 0 0.001 0s0.001 0 0.001 0v0c2.144 0.486 4.364 1.724 5.957 3.18l1.291 3.838-5.869 3.877c-0.231 0.154-0.382 0.414-0.382 0.709 0 0.235 0.095 0.447 0.249 0.601l6.293 6.293c0.154 0.155 0.367 0.25 0.602 0.25 0.469 0 0.85-0.381 0.85-0.85 0-0.103-0.018-0.202-0.052-0.293l0.002 0.006c-0.901-2.538-1.31-3.737-1.504-4.328l6.51-4.49c0.224-0.155 0.368-0.411 0.368-0.7 0-0.090-0.014-0.176-0.040-0.257l0.002 0.006-2.275-7.317c0.467-0.202 0.953-0.435 1.354-0.525 0 0 0.001 0 0.001 0s0.001 0 0.001 0v0c1.157-0.265 2.268-0.316 3.248-0.135 0.968 0.185 1.812 0.599 2.508 1.295 1.494 1.494 2.036 3.439 1.82 5.51 0 0 0 0.001 0 0.001s0 0.001 0 0.001v0c-0.211 2.063-1.223 4.204-2.799 5.78l-11.457 11.454-11.457-11.454c-1.576-1.576-2.588-3.717-2.799-5.779 0 0 0-0.001 0-0.001s0-0.001 0-0.001v0c-0.215-2.071 0.326-4.016 1.82-5.51 0.696-0.696 1.54-1.11 2.508-1.295 0.494-0.091 1.009-0.122 1.557-0.1zM16.822 6.802c0 0.003-0.002 0.018-0.002 0.018s-0.008 0.018-0.010 0.021c0.003-0.007 0.007-0.020 0.010-0.033l0.001-0.006zM16.731 7.033c-0.003 0.007-0.012 0.031-0.012 0.031s-0.025 0.027-0.035 0.039c0.015-0.020 0.030-0.043 0.045-0.067l0.002-0.004zM16.563 7.24c-0.010 0.011-0.035 0.037-0.035 0.037s-0.042 0.023-0.076 0.043c0.022-0.013 0.040-0.025 0.057-0.037l-0.003 0.002c0.021-0.016 0.040-0.030 0.058-0.046l-0.001 0.001zM16.361 7.373c-0.019 0.011-0.053 0.031-0.053 0.031s-0.040 0.007-0.057 0.010c0.043-0.013 0.080-0.027 0.115-0.043l-0.005 0.002zM15.65 7.381c0.011 0.005 0.027 0.013 0.043 0.019l0.006 0.002c0.003 0.001 0.012 0.004 0.021 0.006l0.006 0.001c-0.007-0.001-0.035-0.006-0.035-0.006s-0.029-0.016-0.041-0.023zM15.959 7.453c0.018 0.001 0.039 0.002 0.059 0.002 0.005 0 0.010 0 0.016 0h-0.001c-0.008 0.001-0.031 0.005-0.033 0.006s-0.030-0.006-0.041-0.008z"></path>
</svg>
