<!-- Generated by IcoMoon.io -->
<svg version="1.1" xmlns="http://www.w3.org/2000/svg" width="32" height="32" viewBox="0 0 32 32">
<title>heartbeat-l</title>
<path d="M7.7 2.009c-0.657-0.027-1.304 0.011-1.936 0.127-0.006 0.003-0.007 0.004-0.009 0.004l0.005-0.002c-1.259 0.24-2.447 0.811-3.398 1.762-1.879 1.879-2.569 4.402-2.311 6.888 0.211 2.070 1.069 4.122 2.42 5.826 0.015 0.023 0.029 0.042 0.044 0.060l-0.001-0.002c0.015 0.018 0.029 0.034 0.043 0.049v0c0.011 0.012 0.023 0.024 0.035 0.035v0c0.010 0.010 0.020 0.019 0.030 0.029l0.001 0.001c0.003 0.002 0.008 0.006 0.013 0.010l0.002 0.002c0.018 0.015 0.039 0.031 0.060 0.045l0.003 0.002c0.018 0.013 0.039 0.026 0.060 0.039l0.004 0.002c0 0 0.006 0.003 0.011 0.006l0.005 0.002c0.017 0.009 0.040 0.020 0.063 0.029l0.006 0.002c0.019 0.008 0.044 0.018 0.070 0.026l0.006 0.002c-0.002-0.001 0 0 0.003 0.002l0.005 0.002c0.016 0.005 0.038 0.010 0.061 0.015l0.005 0.001c0.005 0.001 0.015 0.003 0.026 0.005l0.005 0.001c0.013 0.003 0.032 0.005 0.051 0.007h0.004c-0.002 0 0.001 0 0.004 0.001l0.005 0.001c0.001 0 0.003 0 0.005 0s0.003 0 0.005 0v0c0.021 0.002 0.046 0.004 0.072 0.004h0.004l6.318-0.010c0.344-0.001 0.64-0.206 0.773-0.5l0.002-0.005 1.502-3.387 3.652 8.39c0.135 0.303 0.433 0.51 0.779 0.51 0.335 0 0.625-0.194 0.764-0.476l0.002-0.005 3.648-7.56 1.443 2.775c0.144 0.275 0.428 0.459 0.754 0.459h5.846c0.001 0 0.003 0 0.004 0s0.003 0 0.004 0v0c0.016 0 0.031-0.001 0.046-0.002h-0.003c0.022-0.002 0.042-0.004 0.061-0.006l-0.005 0.001c0 0 0.001 0 0.001 0s0.001 0 0.001 0v0c0.025-0.003 0.046-0.007 0.066-0.011l-0.005 0.001c0 0 0.001 0 0.001 0s0.001 0 0.001 0v0c0.025-0.005 0.044-0.010 0.063-0.015l-0.006 0.001c0.014-0.003 0.022-0.005 0.029-0.007l-0.006 0.001c0.014-0.004 0.022-0.007 0.029-0.010l-0.006 0.002c0.010-0.004 0.015-0.006 0.019-0.008l-0.005 0.002c0.027-0.010 0.049-0.020 0.070-0.030l-0.005 0.002c0.031-0.014 0.056-0.027 0.080-0.041l-0.004 0.002c0.021-0.012 0.038-0.022 0.054-0.033l-0.003 0.002c0.009-0.006 0.016-0.011 0.022-0.015l-0.002 0.002c0.005-0.004 0.008-0.006 0.011-0.009l-0.002 0.001c0.021-0.016 0.040-0.031 0.057-0.047l-0.001 0.001c0.015-0.014 0.029-0.027 0.043-0.041v0c0.001-0.001 0.003-0.003 0.004-0.004v0c0.012-0.013 0.024-0.026 0.036-0.040l0.001-0.001c0.002-0.003 0.006-0.008 0.010-0.013l0.002-0.002c0.001-0.001 0.003-0.003 0.004-0.004-0.001 0.001 0.001-0.001 0.002-0.003l0.002-0.003c1.464-1.748 2.39-3.899 2.611-6.066 0.258-2.486-0.432-5.010-2.311-6.888-0.951-0.951-2.137-1.522-3.396-1.762 0.003 0.002 0.002 0.001 0.001 0l-0.005-0.002c-1.26-0.233-2.597-0.156-3.935 0.15-2.316 0.524-4.529 1.774-6.301 3.281-1.772-1.508-3.986-2.756-6.303-3.281-0.67-0.153-1.337-0.25-1.998-0.277zM7.63 3.708c0.541 0.022 1.108 0.103 1.691 0.236 2.192 0.497 4.481 1.771 6.080 3.269 0.062 0.060 0.132 0.111 0.21 0.15l0.005 0.002c-0.001-0.001-0.013-0.013-0.016-0.016 0.029 0.017 0.064 0.034 0.1 0.049l0.006 0.002c0.021 0.008 0.050 0.017 0.078 0.024l0.006 0.001c0.046 0.013 0.1 0.023 0.155 0.027h0.003c0.001 0 0.003 0 0.004 0s0.003 0 0.004 0v0c0.012 0.001 0.025 0.001 0.039 0.001 0.043 0 0.085-0.003 0.126-0.009l-0.005 0.001c0.028-0.004 0.051-0.008 0.074-0.013l-0.006 0.001c0.054-0.012 0.1-0.027 0.144-0.045l-0.006 0.002c-0.012 0.004-0.020 0.006-0.037 0.012 0.047-0.017 0.086-0.036 0.123-0.057l-0.004 0.002c-0.002 0.002-0.012 0.011-0.014 0.012 0.079-0.040 0.148-0.089 0.207-0.147v0c1.599-1.499 3.888-2.773 6.080-3.269 0 0 0.001 0 0.001 0s0.001 0 0.001 0v0c1.156-0.265 2.263-0.317 3.242-0.137 0.97 0.185 1.815 0.598 2.512 1.295 1.494 1.494 2.037 3.439 1.822 5.51 0 0 0 0.001 0 0.001s0 0.001 0 0.001v0c-0.172 1.689-0.886 3.427-2.004 4.867h-4.916l-1.986-3.822c-0.145-0.274-0.428-0.457-0.754-0.457-0.335 0-0.625 0.194-0.763 0.476l-0.002 0.005-3.58 7.418-3.685-8.465c-0.134-0.303-0.433-0.51-0.779-0.51-0.012 0-0.023 0-0.035 0.001h0.002c-0.331 0.013-0.613 0.214-0.742 0.499l-0.002 0.005-2.062 4.652-5.326 0.008c-1.038-1.402-1.712-3.058-1.877-4.676 0 0 0-0.001 0-0.001s0-0.001 0-0.001v0c-0.215-2.071 0.328-4.015 1.822-5.51 0.697-0.697 1.542-1.11 2.512-1.295 0.493-0.090 1.007-0.122 1.553-0.1zM24.157 20.022c-0.232 0.006-0.44 0.105-0.59 0.259l-7.566 7.565-7.566-7.564c-0.155-0.159-0.371-0.258-0.61-0.258-0.001 0-0.001 0-0.002 0v0c0 0 0 0 0 0-0.47 0-0.85 0.381-0.85 0.85 0 0.24 0.099 0.456 0.259 0.611l8.168 8.164c0.154 0.154 0.366 0.248 0.601 0.248s0.447-0.095 0.601-0.248v0l8.168-8.164c0.161-0.155 0.261-0.372 0.261-0.613 0-0.47-0.381-0.85-0.85-0.85-0.008 0-0.016 0-0.023 0h0.001z"></path>
</svg>
