<!-- Generated by IcoMoon.io -->
<svg version="1.1" xmlns="http://www.w3.org/2000/svg" width="32" height="32" viewBox="0 0 32 32">
<title>heart-s</title>
<path d="M7.198 2.008c0.635 0.026 1.286 0.12 1.948 0.271 2.505 0.568 5.036 1.979 6.849 3.682 0 0.005 0 0.010 0 0.016 0-0.005 0.005-0.005 0.005-0.005s0.005 0 0.005 0.005c0-0.005 0-0.010 0-0.016 1.813-1.703 4.344-3.115 6.849-3.682 1.318-0.302 2.609-0.37 3.792-0.151 1.177 0.224 2.25 0.745 3.12 1.615 1.781 1.781 2.432 4.141 2.182 6.547-0.245 2.401-1.401 4.833-3.214 6.646l-12.734 12.729-12.734-12.729c-1.813-1.813-2.969-4.245-3.214-6.646-0.25-2.406 0.401-4.766 2.182-6.547 0.87-0.87 1.943-1.391 3.12-1.615 0.594-0.109 1.208-0.146 1.844-0.12z"></path>
</svg>
