<!-- Generated by IcoMoon.io -->
<svg version="1.1" xmlns="http://www.w3.org/2000/svg" width="32" height="32" viewBox="0 0 32 32">
<title>heartbeat-s</title>
<path d="M7.197 2.008c-0.636-0.026-1.25 0.012-1.844 0.121-1.177 0.224-2.249 0.745-3.119 1.615-1.781 1.781-2.434 4.141-2.184 6.547 0.153 1.499 0.661 3.010 1.463 4.375 0.238-0.165 0.532-0.264 0.85-0.264 0.008 0 0.015 0 0.023 0h6.407l1.793-4.043c0.231-0.512 0.727-0.866 1.308-0.891h0.003c0.018-0.001 0.039-0.001 0.060-0.001 0.612 0 1.138 0.367 1.372 0.892l0.004 0.010 2.93 6.732 2.777-5.756c0.248-0.507 0.76-0.849 1.352-0.849 0.576 0 1.077 0.325 1.328 0.802l0.004 0.008 1.709 3.287h6.184c0.005 0 0.010 0 0.016 0 0.283 0 0.548 0.078 0.774 0.215l-0.007-0.004c0.85-1.402 1.393-2.963 1.551-4.514 0.25-2.406-0.403-4.766-2.184-6.547-0.87-0.87-1.942-1.391-3.119-1.615-1.183-0.219-2.475-0.152-3.793 0.15-2.505 0.567-5.035 1.979-6.848 3.682v0.016c0-0.005-0.006-0.004-0.006-0.004s-0.006-0.001-0.006 0.004v-0.016c-1.813-1.703-4.343-3.114-6.848-3.682-0.662-0.151-1.314-0.245-1.949-0.272zM11.943 14.695l-0.805 1.816c-0.24 0.529-0.763 0.891-1.371 0.891 0 0 0 0 0 0h-6.035l12.268 12.264 12.076-12.072h-5.557c-0.575 0-1.074-0.324-1.326-0.799l-0.004-0.008-0.748-1.441-2.898 6.004c-0.248 0.506-0.76 0.848-1.351 0.848-0.612 0-1.139-0.367-1.372-0.893l-0.004-0.010-2.873-6.6z"></path>
</svg>
