<!-- Generated by IcoMoon.io -->
<svg version="1.1" xmlns="http://www.w3.org/2000/svg" width="32" height="32" viewBox="0 0 32 32">
<title>home-r</title>
<path d="M16 1.5l-0.92 0.713c0 0-6.243 4.847-11.135 8.645h-0.016v0.012c-1.726 1.34-2.619 2.034-3.93 3.051l1.84 2.369c0.697-0.541 1.27-0.987 2.090-1.623 0 2.14 0.001 7.72 0 12.574 0 0.579 0 1 0 1.5v1.5h3c6.814-0.001 16.516 0 18.141 0 0.134 0 1.5 0 1.5 0h1.5v-3c0-4.855 0-10.434 0-12.574l2.090 1.623 1.84-2.369-3.93-3.051v-0.012h-0.016zM16.002 5.297l9.068 7.041v0.020c0 0 0.001 9.138 0 14.883-0.378 0-3.106 0-4.221 0v-8.1h-9.699v8.1c-1.76 0-2.635 0-4.221 0 0.001-5.746 0-14.883 0-14.883v-0.020c3.793-2.944 8.37-6.495 9.072-7.041z"></path>
</svg>
