<!-- Generated by IcoMoon.io -->
<svg version="1.1" xmlns="http://www.w3.org/2000/svg" width="32" height="32" viewBox="0 0 32 32">
<title>home-l</title>
<path d="M16 2l-0.521 0.404c0 0-10.318 8.009-15.479 12.016l1.043 1.342c0.869-0.675 1.544-1.198 2.607-2.023 0 1.099 0.001 9.202 0 14.5 0 0.31 0 0.566 0 0.85v0.85h1.699c7.596-0.001 20.281 0 21.301 0 0.041 0 0.85 0 0.85 0h0.85v-1.699c0.001-5.299 0-13.401 0-14.5l2.607 2.023 1.043-1.342zM16 4.15l10.65 8.268v0.354c0 0 0.001 9.816 0 15.467-0.278 0-4.131 0-5.801 0v-9.4h-9.699v9.4c-2.485 0-3.732 0-5.801 0 0.001-5.652 0-15.467 0-15.467v-0.354c4.559-3.539 10.184-7.906 10.65-8.268zM12.85 20.537h6.301v7.301h-6.301z"></path>
</svg>
