<!-- Generated by IcoMoon.io -->
<svg version="1.1" xmlns="http://www.w3.org/2000/svg" width="28" height="32" viewBox="0 0 28 32">
<title>hour-glass-l</title>
<path d="M0.191 0l-0.084 0.758c-0.072 0.651-0.107 1.314-0.107 1.986 0 5.55 2.548 10.376 6.381 13.256-3.833 2.88-6.381 7.705-6.381 13.256 0 0.672 0.036 1.335 0.107 1.986l0.084 0.758h27.83l0.082-0.758c0.072-0.651 0.109-1.314 0.109-1.986 0-5.55-2.548-10.376-6.381-13.256 3.833-2.88 6.381-7.706 6.381-13.256 0-0.672-0.038-1.335-0.109-1.986l-0.082-0.758zM1.756 1.699h24.699c0.022 0.348 0.059 0.691 0.059 1.045 0 5.431-2.635 10.124-6.441 12.537l-1.133 0.719 1.133 0.719c3.807 2.413 6.441 7.106 6.441 12.537 0 0.354-0.037 0.697-0.059 1.045h-24.699c-0.022-0.348-0.057-0.691-0.057-1.045 0-5.431 2.635-10.124 6.441-12.537l1.131-0.719-1.131-0.719c-3.807-2.413-6.441-7.106-6.441-12.537 0-0.354 0.035-0.697 0.057-1.045zM7.707 6.449c0 0 0 0-0.001 0-0.47 0-0.85 0.381-0.85 0.85 0 0.162 0.045 0.314 0.124 0.443l-0.002-0.004c0.856 1.422 1.994 2.591 3.338 3.371 0.001 0 0.003 0.002 0.006 0.004l0.002 0.002c1.035 0.587 1.797 1.255 2.279 1.854s0.652 1.143 0.652 1.324v2.008c0 0.183-0.17 0.728-0.652 1.328s-1.244 1.271-2.283 1.859c-0.007 0.004-0.010 0.005-0.013 0.006l0.005-0.002c-2.532 1.471-4.338 4.307-4.885 7.672-0.007 0.041-0.011 0.088-0.011 0.136 0 0.47 0.381 0.85 0.85 0.85 0 0 0.001 0 0.001 0h15.678c0.469-0.001 0.849-0.381 0.849-0.85 0-0.048-0.004-0.095-0.012-0.141l0.001 0.005c-0.547-3.367-2.353-6.202-4.887-7.672 0.002 0.001 0 0-0.003-0.002l-0.005-0.002c-1.035-0.587-1.797-1.256-2.279-1.855s-0.652-1.145-0.652-1.326v-2.006c0-0.183 0.17-0.73 0.652-1.33s1.244-1.269 2.283-1.857c0.005-0.003 0.007-0.005 0.010-0.007l-0.002 0.001c1.342-0.78 2.479-1.948 3.334-3.369 0.077-0.125 0.122-0.277 0.122-0.439 0-0.47-0.381-0.85-0.85-0.85 0 0 0 0 0 0v0zM9.703 8.15h8.807c-0.486 0.511-0.893 1.157-1.463 1.488-1.204 0.683-2.124 1.475-2.762 2.268-0.111 0.138-0.083 0.279-0.178 0.416-0.096-0.139-0.069-0.281-0.182-0.42-0.637-0.791-1.557-1.58-2.756-2.262-0.571-0.331-0.98-0.978-1.467-1.49zM14.105 18.279c0.096 0.139 0.069 0.281 0.182 0.42 0.638 0.792 1.556 1.582 2.756 2.264 1.754 1.017 3.044 3.060 3.693 5.486h-13.26c0.649-2.422 1.933-4.463 3.682-5.482l0.008-0.004c1.205-0.683 2.124-1.476 2.762-2.27 0.111-0.138 0.083-0.277 0.178-0.414z"></path>
</svg>
