<!-- Generated by IcoMoon.io -->
<svg version="1.1" xmlns="http://www.w3.org/2000/svg" width="32" height="32" viewBox="0 0 32 32">
<title>image-l</title>
<path d="M2.744 2c-1.506 0-2.744 1.238-2.744 2.744v22.523c0 1.506 1.238 2.744 2.744 2.744h26.512c1.506 0 2.744-1.238 2.744-2.744v-22.523c0-1.506-1.238-2.744-2.744-2.744zM2.744 3.699h26.512c0.593 0 1.045 0.452 1.045 1.045v22.523c0 0.593-0.452 1.045-1.045 1.045h-26.512c-0.593 0-1.045-0.452-1.045-1.045v-22.523c0-0.593 0.452-1.045 1.045-1.045zM22.836 6.043c-1.785 0-3.25 1.465-3.25 3.25s1.465 3.25 3.25 3.25c1.785 0 3.25-1.465 3.25-3.25s-1.465-3.25-3.25-3.25zM22.836 7.744c0.866 0 1.549 0.683 1.549 1.549s-0.683 1.551-1.549 1.551c-0.866 0-1.551-0.685-1.551-1.551s0.685-1.549 1.551-1.549zM11.244 8.824l-0.625 1.070c0 0-4.335 7.433-6.504 11.15l-0.115 0.199v4.797h24v-13.85l-7.668 6.574h-1.137zM11.465 11.82l6.914 8.645h2.582l5.34-4.578v8.453h-20.602v-2.635c1.989-3.409 5.082-8.713 5.766-9.885z"></path>
</svg>
