<!-- Generated by IcoMoon.io -->
<svg version="1.1" xmlns="http://www.w3.org/2000/svg" width="32" height="32" viewBox="0 0 32 32">
<title>images-l</title>
<path d="M6.698 1.73c-1.302 0-2.373 1.071-2.373 2.373v1.951h-1.951c-1.302 0-2.373 1.071-2.373 2.373v19.48c0 1.302 1.071 2.373 2.373 2.373h22.929c1.302 0 2.373-1.071 2.373-2.373v-1.951h1.951c1.302 0 2.373-1.071 2.373-2.373v-19.48c0-1.302-1.071-2.373-2.373-2.373zM6.698 3.199h22.929c0.513 0 0.904 0.391 0.904 0.904v19.48c0 0.513-0.391 0.904-0.904 0.904h-22.929c-0.256 0-0.474-0.101-0.638-0.265s-0.265-0.383-0.265-0.639v-19.48c0-0.513 0.391-0.904 0.904-0.904zM24.074 5.226c-1.544 0-2.811 1.267-2.811 2.811s1.267 2.811 2.811 2.811c1.544 0 2.811-1.267 2.811-2.811s-1.267-2.811-2.811-2.811zM24.074 6.698c0.749 0 1.34 0.59 1.34 1.34s-0.59 1.341-1.34 1.341c-0.749 0-1.341-0.592-1.341-1.341s0.592-1.34 1.341-1.34zM2.373 7.524h1.951v16.059c0 0.163 0.017 0.322 0.049 0.476 0 0.001 0 0.001 0 0.002 0.032 0.153 0.078 0.301 0.138 0.443 0.12 0.286 0.292 0.544 0.507 0.758s0.473 0.387 0.758 0.507c0.141 0.059 0.289 0.107 0.443 0.139 0.001 0 0.001 0 0.002 0 0.154 0.031 0.314 0.049 0.476 0.049h19.508v1.951c0 0.513-0.39 0.904-0.904 0.904h-22.929c-0.513 0-0.904-0.39-0.904-0.904v-19.48c0-0.513 0.39-0.904 0.904-0.904zM14.049 7.632l-0.541 0.926c0 0-3.749 6.428-5.625 9.644l-0.1 0.172v4.149h20.757v-11.978l-6.632 5.686h-0.983zM14.24 10.223l5.98 7.476h2.233l4.618-3.959v7.311h-17.818v-2.279c1.72-2.948 4.395-7.536 4.986-8.549z"></path>
</svg>
