<!-- Generated by IcoMoon.io -->
<svg version="1.1" xmlns="http://www.w3.org/2000/svg" width="32" height="32" viewBox="0 0 32 32">
<title>infinite-s</title>
<path d="M7.83 8c-2.075 0-4.069 0.827-5.537 2.295s-2.293 3.462-2.293 5.537c0 2.075 0.825 4.069 2.293 5.537s3.462 2.293 5.537 2.293c2.075 0 4.069-0.825 5.537-2.293l2.633-2.633 2.633 2.635c1.467 1.465 3.46 2.293 5.537 2.291 2.073-0.002 4.067-0.825 5.535-2.293s2.295-3.462 2.295-5.537-0.827-4.069-2.295-5.537c-1.468-1.468-3.462-2.295-5.537-2.295s-4.069 0.827-5.537 2.295l-2.631 2.633-2.633-2.633c-1.468-1.468-3.462-2.295-5.537-2.295zM7.83 12.301c0.959 0 1.817 0.354 2.496 1.033l2.496 2.496-2.496 2.498c-0.679 0.679-1.537 1.035-2.496 1.035s-1.817-0.356-2.496-1.035c-0.679-0.679-1.035-1.537-1.035-2.496s0.356-1.819 1.035-2.498c0.679-0.679 1.537-1.033 2.496-1.033zM24.168 12.301c0.959 0 1.819 0.354 2.498 1.033s1.033 1.539 1.033 2.498c0 0.959-0.354 1.817-1.033 2.496s-1.537 1.034-2.498 1.035h-0.002c-0.957 0.001-1.815-0.357-2.494-1.035l-2.496-2.496 2.496-2.498c0.679-0.679 1.537-1.033 2.496-1.033z"></path>
</svg>
