<!-- Generated by IcoMoon.io -->
<svg version="1.1" xmlns="http://www.w3.org/2000/svg" width="32" height="32" viewBox="0 0 32 32">
<title>instagram</title>
<path d="M16.010-0.006c-4.346 0-4.89 0.019-6.598 0.094-1.701 0.075-2.872 0.35-3.885 0.744-1.057 0.412-1.95 0.957-2.838 1.852-0.894 0.889-1.439 1.783-1.852 2.834-0.394 1.020-0.669 2.182-0.744 3.883-0.075 1.714-0.094 2.257-0.094 6.604s0.019 4.89 0.094 6.598c0.075 1.701 0.35 2.87 0.744 3.883 0.413 1.057 0.957 1.95 1.852 2.838 0.887 0.887 1.781 1.439 2.832 1.846 1.020 0.394 2.184 0.669 3.885 0.744 1.707 0.075 2.251 0.094 6.598 0.094s4.891-0.019 6.598-0.094c1.701-0.075 2.87-0.35 3.883-0.744 1.051-0.406 1.945-0.957 2.832-1.846s1.439-1.781 1.846-2.832c0.394-1.020 0.669-2.182 0.744-3.883 0.075-1.707 0.094-2.251 0.094-6.598s-0.019-4.89-0.094-6.598c-0.075-1.701-0.35-2.87-0.744-3.883-0.394-1.064-0.939-1.957-1.832-2.846-0.887-0.887-1.783-1.439-2.834-1.846-1.020-0.394-2.182-0.669-3.883-0.744-1.713-0.081-2.257-0.1-6.604-0.1zM24.543 5.537c1.060 0 1.92 0.858 1.92 1.918s-0.86 1.92-1.92 1.92c-1.060 0-1.92-0.86-1.92-1.92s0.86-1.918 1.92-1.918zM16 7.781c4.538 0 8.219 3.682 8.219 8.219 0 4.538-3.681 8.219-8.219 8.219s-8.219-3.681-8.219-8.219c0-4.538 3.682-8.219 8.219-8.219zM16 10.67c-2.944 0-5.33 2.386-5.33 5.33s2.386 5.33 5.33 5.33c2.944 0 5.33-2.386 5.33-5.33s-2.386-5.33-5.33-5.33z"></path>
</svg>
