<!-- Generated by IcoMoon.io -->
<svg version="1.1" xmlns="http://www.w3.org/2000/svg" width="32" height="32" viewBox="0 0 32 32">
<title>key-r</title>
<path d="M21.531 0c-5.767 0-10.469 4.702-10.469 10.469 0 0.415 0.064 0.812 0.111 1.215l-11.174 11.174v6.049c0 1.694 1.4 3.094 3.094 3.094h3.094v-1.844h3.688v-3.688h3.688v-3.688h2.955l2.314-2.314c0.874 0.236 1.754 0.471 2.699 0.471 5.767 0 10.469-4.702 10.469-10.469s-4.702-10.469-10.469-10.469zM21.531 2.5c4.416 0 7.969 3.553 7.969 7.969s-3.553 7.969-7.969 7.969c-0.956 0-1.867-0.166-2.713-0.473l-0.748-0.271-2.588 2.588h-4.42v3.688h-3.688v3.688h-3.688v1.844h-0.594c-0.344 0-0.594-0.25-0.594-0.594v-5.014l11.316-11.316-0.121-0.646c-0.088-0.474-0.133-0.961-0.133-1.461 0-4.416 3.553-7.969 7.969-7.969zM23.719 5.441c-1.569 0-2.842 1.271-2.842 2.84s1.273 2.842 2.842 2.842c1.569 0 2.84-1.273 2.84-2.842s-1.271-2.84-2.84-2.84z"></path>
</svg>
