<!-- Generated by IcoMoon.io -->
<svg version="1.1" xmlns="http://www.w3.org/2000/svg" width="31" height="32" viewBox="0 0 31 32">
<title>lab-r</title>
<path d="M8.868 0.001c-0.004 0-0.009 0-0.014 0-0.552 0-1 0.448-1 1s0.448 1 1 1c0.005 0 0.010 0 0.015 0h-0.001c0.456 0 0.913 0 1.369 0v6.109l-9.095 15.156c-1.247 2.078-1.538 4.322-0.545 6.076s3.065 2.658 5.488 2.658h18.839c2.423 0 4.495-0.904 5.488-2.658s0.702-3.998-0.545-6.076l-9.096-15.156v-6.109c0.456 0 0.913 0 1.369 0 0.004 0 0.009 0 0.014 0 0.552 0 1-0.448 1-1s-0.448-1-1-1c-0.005 0-0.010 0-0.015 0h0.001c-4.423-0.001-8.848-0.001-13.273 0zM13.237 2.001c1.512 0 3.023 0 4.535 0v6.939l5.262 8.767c-5.018 0-10.038 0-15.058 0l5.262-8.767zM6.176 20.707c6.22-0.001 12.439-0.001 18.656 0l2.463 4.103c0.886 1.476 0.839 2.464 0.506 3.053s-1.155 1.137-2.877 1.137h-18.839c-1.721 0-2.544-0.549-2.877-1.137s-0.38-1.577 0.506-3.053z"></path>
</svg>
