<!-- Generated by IcoMoon.io -->
<svg version="1.1" xmlns="http://www.w3.org/2000/svg" width="32" height="32" viewBox="0 0 32 32">
<title>laptop-l</title>
<path d="M6.248 4.5c-2.162 0-3.928 1.766-3.928 3.928v12.787c-0.49 0-0.98 0-1.471 0-0.469 0-0.849 0.38-0.85 0.85v1.992c0 2.141 1.75 3.889 3.891 3.889h24.221c2.141 0 3.889-1.749 3.889-3.889v-1.992c0-0.469-0.38-0.849-0.85-0.85v0c-0.49 0-0.98 0-1.471 0v-12.787c0-2.162-1.768-3.928-3.93-3.928zM6.248 6.199h19.502c1.25 0 2.229 0.978 2.229 2.229v12.711c-7.985-0.001-15.97-0.001-23.957 0v-12.711c0-1.251 0.976-2.229 2.227-2.229zM14.139 22.838c1.241 0 2.482 0 3.723 0v1h-3.723zM12.17 22.912h0.27v1.775c0 0.469 0.38 0.849 0.85 0.85h5.422c0.469 0 0.849-0.38 0.85-0.85v-1.775h0.271c3.49 0 6.979 0.002 10.469 0.002v1.143c0 1.229-0.961 2.189-2.189 2.189h-24.221c-1.229 0-2.191-0.961-2.191-2.189v-1.143c3.491 0 6.981-0.002 10.471-0.002z"></path>
</svg>
