<!-- Generated by IcoMoon.io -->
<svg version="1.1" xmlns="http://www.w3.org/2000/svg" width="32" height="32" viewBox="0 0 32 32">
<title>leaf-l</title>
<path d="M17 0.002c-1.022-0.012-2.046 0.035-3.062 0.152-2.033 0.235-4.032 0.748-5.91 1.625-3.186 1.488-5.965 4.074-7.228 7.441-1.064 2.837-0.961 5.937-0.297 8.785 0.332 1.421 0.815 2.805 1.416 4.135-0.732 3.23-0.753 6.622-0.051 9.859h4.205c-0.827-1.597-1.421-3.315-1.754-5.082-0.158-0.84-0.234-1.695-0.264-2.551 0.082-0.049 0.153-0.108 0.212-0.177l0.001-0.001c0.276-0.321 0.704-0.544 1.125-0.59 0.336-0.036 0.762 0.029 1.273 0.109 1.687 0.264 3.391 0.368 5.090 0.336 1.317-0.025 2.679-0.131 4.017-0.5 1.343-0.37 2.66-1.014 3.707-2.035 1.191-1.162 1.863-2.623 2.473-3.961 1.171-2.572 2.289-5.12 4.017-7.119 1.456-1.683 3.364-2.984 5.463-3.725 0.333-0.12 0.567-0.433 0.567-0.801 0-0.236-0.096-0.449-0.251-0.603v0c-0.401-0.399-0.823-0.775-1.266-1.127-2.996-2.383-6.745-3.523-10.437-3.967-1.005-0.121-2.025-0.193-3.047-0.205zM16.984 1.703c0.954 0.011 1.911 0.077 2.859 0.191 3.483 0.419 6.922 1.494 9.582 3.609 0.082 0.065 0.154 0.142 0.234 0.209-1.879 0.869-3.62 2.036-4.976 3.603-1.955 2.26-3.115 4.975-4.277 7.527-0.602 1.322-1.212 2.57-2.113 3.449-0.789 0.769-1.844 1.302-2.973 1.613-1.133 0.313-2.35 0.416-3.596 0.439-1.608 0.030-3.216-0.069-4.797-0.316-0.481-0.075-1.056-0.191-1.719-0.119-0.436 0.047-0.745 0.387-1.125 0.59 0.072-0.807 0.21-1.607 0.428-2.389 0.981-3.52 3.446-6.453 6.23-8.82 3.326-2.828 7.198-5.014 11.338-6.4-0.538-0.002-1.075 0.024-1.611 0.072-3.689 0.335-7.223 1.868-10.164 4.121-3.447 2.641-6.103 6.291-7.586 10.371-0.218-0.601-0.415-1.21-0.561-1.834-0.611-2.618-0.675-5.385 0.232-7.803 1.074-2.863 3.514-5.17 6.357-6.498 1.688-0.788 3.513-1.26 5.39-1.477 0.939-0.108 1.891-0.152 2.846-0.141z"></path>
</svg>
