<!-- Generated by IcoMoon.io -->
<svg version="1.1" xmlns="http://www.w3.org/2000/svg" width="32" height="32" viewBox="0 0 32 32">
<title>leaf-r</title>
<path d="M16.964 0.002c-1.005-0.012-2.015 0.034-3.019 0.15-2.008 0.232-3.991 0.742-5.865 1.617-3.188 1.489-5.985 4.075-7.271 7.502-1.082 2.884-0.966 5.986-0.309 8.805 0.33 1.412 0.809 2.786 1.408 4.105-0.725 3.218-0.744 6.595-0.041 9.818h5.705c-0.827-1.597-1.421-3.315-1.754-5.082-0.175-0.931-0.257-1.878-0.273-2.826 0.121-0.070 0.252-0.123 0.377-0.137 0.189-0.021 0.538 0.023 1.039 0.102 1.657 0.259 3.33 0.361 4.992 0.33 1.29-0.024 2.649-0.128 4.014-0.504 1.372-0.378 2.738-1.040 3.844-2.119 1.257-1.226 1.927-2.711 2.514-3.998 1.124-2.47 2.175-4.841 3.738-6.648 1.314-1.519 3.043-2.697 4.937-3.365 0.588-0.212 1.001-0.765 1.001-1.415 0-0.416-0.169-0.792-0.442-1.064v0c-0.401-0.4-0.826-0.776-1.269-1.129-3.003-2.388-6.716-3.506-10.334-3.941-0.985-0.118-1.985-0.189-2.99-0.201zM16.935 3.004c0.886 0.010 1.777 0.071 2.662 0.178 2.959 0.356 5.779 1.313 8.091 2.912-1.448 0.823-2.804 1.797-3.896 3.061-1.962 2.269-3.091 4.934-4.199 7.369-0.573 1.259-1.131 2.366-1.877 3.094-0.651 0.635-1.555 1.099-2.549 1.373-1.001 0.276-2.108 0.375-3.271 0.396-1.502 0.028-3.003-0.065-4.472-0.295-0.406-0.064-0.952-0.169-1.619-0.129 0.059-0.286 0.129-0.57 0.207-0.852 0.981-3.52 3.448-6.453 6.232-8.82 3.326-2.828 7.196-5.014 11.335-6.4-0.333-0.002-0.667-0.002-1 0-0.705 0.003-1.409 0.016-2.111 0.072-3.695 0.296-7.228 1.857-10.164 4.121-2.91 2.244-5.262 5.2-6.82 8.525-0.019-0.072-0.045-0.142-0.063-0.215-0.563-2.413-0.609-4.923 0.195-7.068 0.951-2.536 3.15-4.634 5.732-5.84 1.539-0.719 3.217-1.152 4.951-1.352 0.867-0.1 1.749-0.141 2.635-0.131z"></path>
</svg>
