<!-- Generated by IcoMoon.io -->
<svg version="1.1" xmlns="http://www.w3.org/2000/svg" width="32" height="32" viewBox="0 0 32 32">
<title>link-s</title>
<path d="M24.191 0c-2.086 0-4.046 0.812-5.521 2.287l-6.146 6.144c-3.045 3.045-3.045 7.997 0 11.042 0.325 0.325 0.752 0.488 1.178 0.488s0.851-0.164 1.176-0.488c0.65-0.65 0.65-1.703 0-2.353-1.747-1.747-1.747-4.588 0-6.335l6.146-6.144c0.847-0.846 1.97-1.312 3.168-1.312s2.324 0.466 3.17 1.312c1.747 1.747 1.747 4.588 0 6.335l-2.81 2.808c-0.65 0.65-0.65 1.705 0 2.355s1.703 0.65 2.353 0l2.81-2.81c3.045-3.045 3.045-7.997 0-11.042-1.476-1.475-3.437-2.287-5.523-2.287zM18.295 12.040c-0.426 0-0.851 0.163-1.176 0.488-0.65 0.65-0.65 1.703 0 2.353 1.747 1.747 1.747 4.588 0 6.335l-6.146 6.144c-0.847 0.846-1.97 1.312-3.168 1.312s-2.324-0.466-3.17-1.312c-1.747-1.747-1.747-4.588 0-6.335l2.81-2.808c0.65-0.65 0.649-1.705 0-2.355s-1.703-0.65-2.353 0l-2.81 2.81c-3.045 3.045-3.045 7.997 0 11.042 1.475 1.475 3.437 2.287 5.523 2.287s4.046-0.812 5.521-2.287l6.146-6.144c3.045-3.045 3.045-7.997 0-11.042-0.325-0.325-0.752-0.488-1.178-0.488z"></path>
</svg>
