<!-- Generated by IcoMoon.io -->
<svg version="1.1" xmlns="http://www.w3.org/2000/svg" width="24" height="32" viewBox="0 0 24 32">
<title>lock-l</title>
<path d="M12.002 0c-5.249 0-9.502 4.253-9.502 9.502v3.189c-0.55 0-1.1 0-1.65 0-0.469 0-0.849 0.38-0.85 0.85v6.455c-0.001 6.619 5.383 12.004 12.002 12.004s12.003-5.385 12.002-12.004v-6.455c0-0.469-0.38-0.849-0.85-0.85v0c-0.55 0-1.1 0-1.65 0v-3.189c0-5.249-4.253-9.502-9.502-9.502zM12.002 1.699c4.337 0 7.801 3.466 7.801 7.803v3.189c-5.2 0-10.401 0-15.602 0v-3.189c0-4.337 3.464-7.803 7.801-7.803zM1.701 14.393c6.867-0.001 13.735-0.001 20.602 0v5.604c0.001 5.7-4.6 10.305-10.301 10.305s-10.302-4.604-10.301-10.305zM12.002 17.914c-1.173 0.005-2.123 0.951-2.123 2.125 0 0.72 0.367 1.395 0.973 1.785 0 0.963-0.038 2.053 0.031 2.957 0.073 0.559 0.555 1 1.133 1 0.582 0 1.059-0.441 1.098-0.721l0.039-3.244c0.605-0.39 0.973-1.062 0.973-1.787 0-1.174-0.95-2.12-2.123-2.115z"></path>
</svg>
