<!-- Generated by IcoMoon.io -->
<svg version="1.1" xmlns="http://www.w3.org/2000/svg" width="28" height="32" viewBox="0 0 28 32">
<title>magnet-l</title>
<path d="M1.982 0l-1.982 17.846v0.049c0 7.781 6.325 14.105 14.105 14.105s14.105-6.325 14.105-14.105v-0.049l-1.982-17.846h-9.285l1.99 17.916c-0.012 2.668-2.157 4.809-4.828 4.809s-4.816-2.141-4.828-4.809l1.99-17.916zM3.504 1.699h5.863l-0.639 5.748c-1.954-0.001-3.909 0-5.863 0zM18.844 1.699h5.863l0.639 5.748c-1.954 0-3.908-0.001-5.863 0zM2.676 9.146c1.956-0.001 3.91-0.001 5.865 0l-0.967 8.699v0.049c0 3.597 2.934 6.531 6.531 6.531s6.531-2.934 6.531-6.531v-0.049l-0.967-8.699c1.955-0.001 3.911-0.001 5.865 0l0.975 8.77c-0.012 6.852-5.55 12.385-12.404 12.385s-12.392-5.533-12.404-12.385z"></path>
</svg>
