<!-- Generated by IcoMoon.io -->
<svg version="1.1" xmlns="http://www.w3.org/2000/svg" width="32" height="32" viewBox="0 0 32 32">
<title>medal-r</title>
<path d="M0 0.001l1.299 2.252c2.459 4.257 4.633 8.021 7.092 12.281-1.728 1.858-2.795 4.34-2.795 7.066 0 5.727 4.673 10.4 10.4 10.4s10.408-4.673 10.408-10.4c0-2.726-1.068-5.206-2.797-7.064 2.459-4.261 4.634-8.025 7.094-12.283l1.299-2.252h-2.598c-2.421-0.001-4.837-0.001-7.256 0h-0.871l-0.43 0.752c-1.626 2.815-3.228 5.588-4.846 8.388-1.617-2.801-3.22-5.574-4.846-8.388l-0.428-0.752h-0.871c-2.419-0.001-4.837-0.001-7.258 0zM5.197 2.997c1.263 0 2.525 0 3.787 0 1.629 2.82 3.24 5.606 4.869 8.428-1.107 0.234-2.146 0.652-3.094 1.209-1.917-3.321-3.7-6.412-5.563-9.636zM23.018 2.997c1.262 0 2.523 0 3.785 0-1.863 3.225-3.645 6.316-5.563 9.638-0.949-0.557-1.988-0.975-3.096-1.209 1.63-2.822 3.244-5.609 4.873-8.429zM16 11.196l0.006 0.002c-0.003 0-0.006 0-0.010 0zM15.996 14.196c4.106 0 7.404 3.298 7.404 7.404s-3.298 7.404-7.404 7.404-7.396-3.298-7.396-7.404c0-4.106 3.29-7.404 7.396-7.404zM16 15.891c-0.172 0-1.566 3.859-1.705 3.961s-4.242 0.234-4.295 0.398c-0.053 0.164 3.187 2.682 3.24 2.846s-1.087 4.104-0.947 4.205c0.14 0.101 3.535-2.201 3.707-2.201s3.567 2.302 3.707 2.201c0.14-0.101-1.001-4.041-0.947-4.205s3.294-2.682 3.24-2.846c-0.053-0.164-4.155-0.297-4.295-0.398s-1.533-3.961-1.705-3.961z"></path>
</svg>
