<!-- Generated by IcoMoon.io -->
<svg version="1.1" xmlns="http://www.w3.org/2000/svg" width="32" height="32" viewBox="0 0 32 32">
<title>menu-apps-l</title>
<path d="M27.686 0v4.313h4.314v-4.313h-4.314zM18.457 0.037v4.314h4.314v-4.314h-4.314zM9.229 0.076v4.313h4.314v-4.313h-4.314zM0 0.113v4.313h4.314v-4.313h-4.314zM27.686 9.191v4.313h4.314v-4.313h-4.314zM18.457 9.229v4.314h4.314v-4.314h-4.314zM9.229 9.266v4.314h4.314v-4.314h-4.314zM0 9.305v4.313h4.314v-4.313h-4.314zM27.686 18.383v4.313h4.314v-4.313h-4.314zM18.457 18.42v4.314h4.314v-4.314h-4.314zM9.229 18.457v4.314h4.314v-4.314h-4.314zM0 18.496v4.313h4.314v-4.313h-4.314zM27.686 27.574v4.313h4.314v-4.313h-4.314zM18.457 27.611v4.313h4.314v-4.313h-4.314zM9.229 27.648v4.314h4.314v-4.314h-4.314zM0 27.688v4.313h4.314v-4.313h-4.314z"></path>
</svg>
