<!-- Generated by IcoMoon.io -->
<svg version="1.1" xmlns="http://www.w3.org/2000/svg" width="32" height="32" viewBox="0 0 32 32">
<title>menu-apps-alt-r</title>
<path d="M2.713 0c-1.489 0-2.713 1.219-2.713 2.709s1.223 2.713 2.713 2.713c1.49 0 2.709-1.224 2.709-2.713s-1.22-2.709-2.709-2.709zM11.572 0.045c-1.489 0-2.713 1.219-2.713 2.709s1.223 2.713 2.713 2.713c1.49 0 2.709-1.224 2.709-2.713s-1.22-2.709-2.709-2.709zM20.432 0.090c-1.489 0-2.713 1.219-2.713 2.709s1.223 2.713 2.713 2.713c1.49 0 2.709-1.224 2.709-2.713s-1.22-2.709-2.709-2.709zM29.291 0.135c-1.489 0-2.713 1.221-2.713 2.711s1.223 2.711 2.713 2.711c1.489 0 2.709-1.222 2.709-2.711s-1.22-2.711-2.709-2.711zM2.713 8.814c-1.489 0-2.713 1.219-2.713 2.709s1.223 2.713 2.713 2.713c1.49 0 2.709-1.224 2.709-2.713s-1.22-2.709-2.709-2.709zM11.572 8.859c-1.489 0-2.713 1.219-2.713 2.709s1.223 2.713 2.713 2.713c1.49 0 2.709-1.224 2.709-2.713s-1.22-2.709-2.709-2.709zM20.432 8.904c-1.489 0-2.713 1.219-2.713 2.709s1.223 2.713 2.713 2.713c1.49 0 2.709-1.224 2.709-2.713s-1.22-2.709-2.709-2.709zM29.291 8.949c-1.489 0-2.713 1.219-2.713 2.709s1.223 2.713 2.713 2.713c1.49 0 2.709-1.224 2.709-2.713s-1.22-2.709-2.709-2.709zM2.713 17.629c-1.489 0-2.713 1.219-2.713 2.709s1.223 2.713 2.713 2.713c1.49 0 2.709-1.224 2.709-2.713s-1.22-2.709-2.709-2.709zM11.572 17.674c-1.489 0-2.713 1.219-2.713 2.709s1.223 2.713 2.713 2.713c1.49 0 2.709-1.224 2.709-2.713s-1.22-2.709-2.709-2.709zM20.432 17.719c-1.489 0-2.713 1.219-2.713 2.709s1.223 2.713 2.713 2.713c1.49 0 2.709-1.224 2.709-2.713s-1.22-2.709-2.709-2.709zM29.291 17.764c-1.489 0-2.713 1.219-2.713 2.709s1.223 2.713 2.713 2.713c1.49 0 2.709-1.224 2.709-2.713s-1.22-2.709-2.709-2.709zM2.713 26.443c-1.489 0-2.713 1.219-2.713 2.709s1.223 2.713 2.713 2.713c1.49 0 2.709-1.224 2.709-2.713s-1.22-2.709-2.709-2.709zM11.572 26.488c-1.489 0-2.713 1.219-2.713 2.709s1.223 2.713 2.713 2.713c1.49 0 2.709-1.224 2.709-2.713s-1.22-2.709-2.709-2.709zM20.432 26.533c-1.489 0-2.713 1.219-2.713 2.709s1.223 2.713 2.713 2.713c1.49 0 2.709-1.224 2.709-2.713s-1.22-2.709-2.709-2.709zM29.291 26.578c-1.489 0-2.713 1.219-2.713 2.709s1.223 2.713 2.713 2.713c1.49 0 2.709-1.224 2.709-2.713s-1.22-2.709-2.709-2.709z"></path>
</svg>
