<!-- Generated by IcoMoon.io -->
<svg version="1.1" xmlns="http://www.w3.org/2000/svg" width="32" height="32" viewBox="0 0 32 32">
<title>menu-list-l</title>
<path d="M0 4.001v1.699h1.699v-1.699zM5 4.001v1.699c9.001-0.001 18.001-0.001 27 0v-1.699c-8.999-0.001-17.999-0.001-27 0zM0 15.151v1.699h1.699v-1.699zM5 15.151v1.699c9.001-0.001 18.001-0.001 27 0v-1.699c-8.999-0.001-17.999-0.001-27 0zM0 26.301v1.699h1.699v-1.699zM5 26.301v1.699c9.001-0.001 18.001-0.001 27 0v-1.699c-8.999-0.001-17.999-0.001-27 0z"></path>
</svg>
