<!-- Generated by IcoMoon.io -->
<svg version="1.1" xmlns="http://www.w3.org/2000/svg" width="32" height="32" viewBox="0 0 32 32">
<title>menu-apps-r</title>
<path d="M26.561 0v5.438h5.439v-5.438h-5.439zM17.707 0.035v5.439h5.439v-5.439h-5.439zM8.854 0.072v5.438h5.439v-5.438h-5.439zM0 0.109v5.438h5.439v-5.438h-5.439zM26.561 8.818v5.438h5.439v-5.438h-5.439zM17.707 8.854v5.439h5.439v-5.439h-5.439zM8.854 8.889v5.439h5.439v-5.439h-5.439zM0 8.926v5.438h5.439v-5.438h-5.439zM26.561 17.637v5.438h5.439v-5.438h-5.439zM17.707 17.672v5.439h5.439v-5.439h-5.439zM8.854 17.707v5.439h5.439v-5.439h-5.439zM0 17.744v5.438h5.439v-5.438h-5.439zM26.561 26.453v5.438h5.439v-5.438h-5.439zM17.707 26.49v5.438h5.439v-5.438h-5.439zM8.854 26.525v5.439h5.439v-5.439h-5.439zM0 26.563v5.438h5.439v-5.438h-5.439z"></path>
</svg>
