<!-- Generated by IcoMoon.io -->
<svg version="1.1" xmlns="http://www.w3.org/2000/svg" width="32" height="32" viewBox="0 0 32 32">
<title>menu-apps-alt-l</title>
<path d="M2.15 0c-1.186 0-2.15 0.961-2.15 2.147s0.965 2.15 2.15 2.15c1.186 0 2.147-0.965 2.147-2.15s-0.961-2.147-2.147-2.147zM11.385 0.047c-1.186 0-2.15 0.961-2.15 2.147s0.965 2.15 2.15 2.15c1.186 0 2.146-0.965 2.146-2.15s-0.961-2.147-2.146-2.147zM20.619 0.094c-1.186 0-2.15 0.961-2.15 2.147s0.965 2.15 2.15 2.15c1.186 0 2.146-0.965 2.146-2.15s-0.961-2.147-2.146-2.147zM29.854 0.141c-1.186 0-2.15 0.963-2.15 2.148s0.965 2.148 2.15 2.148c1.186 0 2.146-0.963 2.146-2.148s-0.961-2.148-2.146-2.148zM2.15 9.188c-1.186 0-2.15 0.961-2.15 2.146s0.965 2.15 2.15 2.15c1.186 0 2.147-0.965 2.147-2.15s-0.961-2.146-2.147-2.146zM11.385 9.234c-1.186 0-2.15 0.961-2.15 2.146s0.965 2.15 2.15 2.15c1.186 0 2.146-0.965 2.146-2.15s-0.961-2.146-2.146-2.146zM20.619 9.281c-1.186 0-2.15 0.961-2.15 2.146s0.965 2.15 2.15 2.15c1.186 0 2.146-0.965 2.146-2.15s-0.961-2.146-2.146-2.146zM29.854 9.328c-1.186 0-2.15 0.961-2.15 2.146s0.965 2.15 2.15 2.15c1.186 0 2.146-0.965 2.146-2.15s-0.961-2.146-2.146-2.146zM2.15 18.375c-1.186 0-2.15 0.961-2.15 2.146s0.965 2.15 2.15 2.15c1.186 0 2.147-0.965 2.147-2.15s-0.961-2.146-2.147-2.146zM11.385 18.422c-1.186 0-2.15 0.961-2.15 2.146s0.965 2.15 2.15 2.15c1.186 0 2.146-0.965 2.146-2.15s-0.961-2.146-2.146-2.146zM20.619 18.469c-1.186 0-2.15 0.961-2.15 2.146s0.965 2.15 2.15 2.15c1.186 0 2.146-0.965 2.146-2.15s-0.961-2.146-2.146-2.146zM29.854 18.516c-1.186 0-2.15 0.961-2.15 2.146s0.965 2.15 2.15 2.15c1.186 0 2.146-0.965 2.146-2.15s-0.961-2.146-2.146-2.146zM2.15 27.563c-1.186 0-2.15 0.961-2.15 2.146s0.965 2.15 2.15 2.15c1.186 0 2.147-0.965 2.147-2.15s-0.961-2.146-2.147-2.146zM11.385 27.609c-1.186 0-2.15 0.961-2.15 2.146s0.965 2.15 2.15 2.15c1.186 0 2.146-0.965 2.146-2.15s-0.961-2.146-2.146-2.146zM20.619 27.656c-1.186 0-2.15 0.961-2.15 2.146s0.965 2.15 2.15 2.15c1.186 0 2.146-0.965 2.146-2.15s-0.961-2.146-2.146-2.146zM29.854 27.703c-1.186 0-2.15 0.961-2.15 2.146s0.965 2.15 2.15 2.15c1.186 0 2.146-0.965 2.146-2.15s-0.961-2.146-2.146-2.146z"></path>
</svg>
