<!-- Generated by IcoMoon.io -->
<svg version="1.1" xmlns="http://www.w3.org/2000/svg" width="21" height="32" viewBox="0 0 21 32">
<title>mobile-alt-r</title>
<path d="M4.016 0c-2.203 0-4.016 1.813-4.016 4.016v23.969c0 2.203 1.813 4.016 4.016 4.016h12.906c2.203 0 4.016-1.813 4.016-4.016v-23.969c0-2.203-1.813-4.016-4.016-4.016zM4.016 2.5h12.906c0.839 0 1.516 0.676 1.516 1.516v17.26c-5.312-0.001-10.624-0.001-15.938 0v-17.26c0-0.839 0.676-1.516 1.516-1.516zM6.719 3.865v1.701c2.501-0.001 5.001-0.001 7.5 0v-1.701c-2.499-0.001-4.999-0.001-7.5 0zM2.5 23.275c5.313-0.001 10.626-0.001 15.938 0v4.709c0 0.839-0.676 1.516-1.516 1.516h-12.906c-0.839 0-1.516-0.676-1.516-1.516zM10.469 24.699c-0.967 0-1.75 0.783-1.75 1.75s0.783 1.75 1.75 1.75c0.967 0 1.75-0.783 1.75-1.75s-0.783-1.75-1.75-1.75z"></path>
</svg>
