<!-- Generated by IcoMoon.io -->
<svg version="1.1" xmlns="http://www.w3.org/2000/svg" width="23" height="32" viewBox="0 0 23 32">
<title>mobile-r</title>
<path d="M3.094 0c-1.696 0-3.094 1.398-3.094 3.094v25.813c0 1.696 1.398 3.094 3.094 3.094h16.594c1.696 0 3.094-1.398 3.094-3.094v-25.813c0-1.696-1.398-3.094-3.094-3.094zM3.094 2.5h16.594c0.332 0 0.594 0.261 0.594 0.594v19.842c-5.926-0.001-11.853-0.001-17.781 0v-19.842c0-0.332 0.261-0.594 0.594-0.594zM2.5 24.635c5.928-0.001 11.855-0.001 17.781 0v4.271c0 0.332-0.261 0.594-0.594 0.594h-16.594c-0.332 0-0.594-0.261-0.594-0.594zM11.391 25.656c-0.828 0-1.5 0.672-1.5 1.5s0.672 1.5 1.5 1.5c0.828 0 1.5-0.672 1.5-1.5s-0.672-1.5-1.5-1.5z"></path>
</svg>
