<!-- Generated by IcoMoon.io -->
<svg version="1.1" xmlns="http://www.w3.org/2000/svg" width="32" height="32" viewBox="0 0 32 32">
<title>mug-hearts-s</title>
<path d="M12.6 0.002c-0.082-0.003-0.162 0.001-0.239 0.015-0.152 0.029-0.29 0.096-0.403 0.209-0.23 0.23-0.314 0.536-0.281 0.847s0.18 0.624 0.414 0.859l1.646 1.645 1.645-1.645c0.234-0.234 0.384-0.548 0.416-0.859s-0.051-0.617-0.281-0.847c-0.112-0.112-0.252-0.18-0.405-0.209s-0.32-0.019-0.49 0.020c-0.324 0.073-0.651 0.255-0.885 0.475v0.002c0 0-0.002 0.002-0.002 0.002v-0.003c-0.234-0.22-0.561-0.402-0.885-0.475-0.086-0.020-0.17-0.031-0.252-0.035zM6.984 4.711c-0.128-0.005-0.252 0.001-0.372 0.023-0.237 0.045-0.455 0.15-0.63 0.326-0.359 0.359-0.49 0.836-0.439 1.321 0.049 0.484 0.283 0.973 0.648 1.339l2.566 2.566 2.567-2.566c0.365-0.365 0.599-0.855 0.648-1.339 0.050-0.485-0.082-0.962-0.441-1.321-0.175-0.175-0.391-0.28-0.628-0.326-0.238-0.044-0.499-0.030-0.765 0.031-0.505 0.114-1.014 0.399-1.38 0.742v0.003c0 0-0.002 0-0.002 0v-0.003c-0.365-0.343-0.877-0.627-1.382-0.742-0.133-0.030-0.263-0.049-0.391-0.054zM15.595 6.304c-0.089-0.005-0.177 0.006-0.266 0.030-0.367 0.098-0.631 0.356-0.78 0.689-0.149 0.332-0.181 0.737-0.081 1.11l0.702 2.623 2.623-0.702c0.373-0.1 0.708-0.332 0.921-0.627s0.306-0.651 0.207-1.018c-0.048-0.179-0.148-0.329-0.285-0.447-0.138-0.118-0.312-0.205-0.507-0.265-0.37-0.115-0.808-0.122-1.173-0.036 0 0 0 0.002 0 0.002s-0.002 0-0.002 0c0-0.001 0-0.003 0-0.003-0.108-0.359-0.332-0.734-0.617-0.997-0.075-0.070-0.153-0.131-0.234-0.183s-0.164-0.093-0.25-0.123c-0.085-0.030-0.173-0.048-0.261-0.053zM2.888 12.188c-0.2 0-0.362 0.199-0.362 0.447v15.334c0 2.225 1.93 4.018 4.327 4.018h10.911c2.398 0 4.327-1.793 4.327-4.018v-5.146h2.064c0 0 0.001 0 0.001 0s0.001 0 0.001 0v0c2.923-0.001 5.316-2.394 5.316-5.317s-2.393-5.317-5.316-5.317c0 0-0.001 0-0.001 0s-0.001 0-0.001 0h-17.303zM22.092 14.408h2.064c1.723 0 3.097 1.374 3.097 3.097s-1.374 3.097-3.097 3.097h-2.064v-4.398z"></path>
</svg>
