<!-- Generated by IcoMoon.io -->
<svg version="1.1" xmlns="http://www.w3.org/2000/svg" width="32" height="32" viewBox="0 0 32 32">
<title>mug-s</title>
<path d="M0.43 4c-0.238 0-0.43 0.237-0.43 0.531v18.209c0 2.642 2.291 4.771 5.138 4.771h12.957c2.847 0 5.138-2.128 5.138-4.771v-6.111h2.452c0 0 0.001 0 0.001 0s0.001 0 0.001 0v0c3.471-0.001 6.313-2.843 6.312-6.314s-2.842-6.314-6.312-6.314c0 0-0.001 0-0.001 0s-0.001 0-0.001 0h-20.547zM23.234 6.638h2.452c2.046 0 3.676 1.631 3.677 3.677s-1.631 3.676-3.677 3.677h-2.452v-5.222z"></path>
</svg>
