<!-- Generated by IcoMoon.io -->
<svg version="1.1" xmlns="http://www.w3.org/2000/svg" width="32" height="32" viewBox="0 0 32 32">
<title>mug-hot-r</title>
<path d="M8.38 0c-0.287 0.007-0.542 0.142-0.71 0.349l-0.001 0.002c-0.447 0.539-0.628 1.235-0.498 1.923 0.075 0.4 0.245 0.739 0.438 1.020 0.191 0.279 0.401 0.5 0.594 0.689 0.277 0.273 0.533 0.494 0.728 0.702 0.194 0.207 0.331 0.403 0.399 0.572 0.113 0.282 0.116 0.704 0.017 1.178-0.042 0.201-0.096 0.401-0.162 0.596-0.037 0.097-0.059 0.21-0.059 0.327 0 0.52 0.421 0.941 0.941 0.941 0.422 0 0.78-0.278 0.899-0.661l0.002-0.007c0.090-0.265 0.163-0.535 0.221-0.809 0.14-0.668 0.21-1.468-0.112-2.268-0.193-0.481-0.487-0.852-0.772-1.156-0.284-0.302-0.559-0.541-0.781-0.759-0.154-0.151-0.275-0.286-0.358-0.408-0.082-0.12-0.127-0.23-0.142-0.307-0.022-0.115 0.021-0.283 0.096-0.373 0.14-0.163 0.225-0.377 0.225-0.61 0-0.52-0.421-0.941-0.941-0.941-0.007 0-0.014 0-0.022 0h0.001zM13.651 0c-0.287 0.007-0.542 0.142-0.71 0.349l-0.001 0.002c-0.447 0.539-0.626 1.235-0.496 1.923 0.075 0.4 0.243 0.739 0.436 1.020 0.191 0.279 0.403 0.5 0.596 0.689 0.277 0.273 0.531 0.494 0.726 0.702 0.194 0.207 0.331 0.403 0.399 0.572 0.113 0.282 0.116 0.704 0.017 1.178-0.042 0.201-0.096 0.401-0.162 0.596-0.037 0.097-0.059 0.21-0.059 0.327 0 0.52 0.421 0.941 0.941 0.941 0.422 0 0.78-0.278 0.899-0.661l0.002-0.007c0.090-0.265 0.163-0.535 0.221-0.809 0.14-0.668 0.21-1.468-0.112-2.268-0.193-0.481-0.487-0.852-0.772-1.156-0.284-0.302-0.559-0.541-0.781-0.759-0.154-0.151-0.275-0.286-0.358-0.408-0.082-0.12-0.127-0.23-0.142-0.307-0.022-0.115 0.023-0.283 0.097-0.373 0.14-0.163 0.225-0.377 0.225-0.61 0-0.52-0.421-0.941-0.941-0.941-0.008 0-0.016 0-0.024 0h0.001zM2.54 9.664c-1.023 0-1.599 0.899-1.599 1.686v15.186c0 2.921 2.535 5.221 5.528 5.221h10.805c2.993 0 5.528-2.299 5.528-5.221v-4.989h2.316c0 0 0.001 0 0.001 0s0.001 0 0.001 0v0c3.266-0.001 5.939-2.675 5.939-5.941s-2.674-5.941-5.939-5.941c0 0-0.001 0-0.001 0s-0.001 0-0.001 0h-3.557c-0.101 0.001-0.198 0.013-0.292 0.037l0.009-0.002c-0.032-0.002-0.044-0.035-0.077-0.035h-14.732zM3.423 12.147h16.895v14.388c0 1.486-1.288 2.737-3.044 2.737h-10.805c-1.756 0-3.046-1.251-3.046-2.737v-11.653zM22.801 12.147h2.316c1.925 0 3.459 1.533 3.46 3.458s-1.535 3.459-3.46 3.46h-2.316v-4.182z"></path>
</svg>
