<!-- Generated by IcoMoon.io -->
<svg version="1.1" xmlns="http://www.w3.org/2000/svg" width="32" height="32" viewBox="0 0 32 32">
<title>mug-alt-r</title>
<path d="M12.313 1c-3.195 0-6.092 0.526-8.303 1.447-1.105 0.461-2.046 1.017-2.768 1.729s-1.242 1.642-1.242 2.684v18.438c0 1.042 0.52 1.974 1.242 2.686s1.662 1.268 2.768 1.729c2.21 0.921 5.107 1.445 8.303 1.445s6.092-0.524 8.303-1.445c1.105-0.46 2.046-1.017 2.768-1.729s1.242-1.644 1.242-2.686v-2.488h4.281c1.694 0 3.094-1.4 3.094-3.094v-7.271c0-0.853-0.393-1.642-0.945-2.154s-1.231-0.799-1.932-0.922l-0.107-0.018h-4.391v-2.49c0-1.042-0.52-1.972-1.242-2.684s-1.662-1.268-2.768-1.729c-2.21-0.921-5.107-1.447-8.303-1.447zM12.313 3.5c2.914 0 5.548 0.507 7.342 1.254 0.897 0.374 1.577 0.811 1.975 1.203s0.496 0.671 0.496 0.902v18.438c0 0.231-0.098 0.513-0.496 0.904s-1.078 0.828-1.975 1.201c-1.794 0.747-4.428 1.254-7.342 1.254s-5.548-0.507-7.342-1.254c-0.897-0.374-1.577-0.809-1.975-1.201s-0.496-0.673-0.496-0.904v-18.438c0-0.231 0.098-0.511 0.496-0.902s1.078-0.829 1.975-1.203c1.794-0.747 4.428-1.254 7.342-1.254zM12.313 6.074c-2.181 0-4.296 0.301-5.955 0.848-1.060 0.349-1.701 0.722-2.045 0.984 0.344 0.262 0.986 0.637 2.045 0.986 1.659 0.546 3.774 0.848 5.955 0.848s4.296-0.301 5.955-0.848c1.059-0.349 1.701-0.724 2.045-0.986-0.344-0.262-0.986-0.635-2.045-0.984-1.659-0.546-3.774-0.848-5.955-0.848zM24.625 11.85h4.109c0.275 0.059 0.508 0.169 0.619 0.271 0.119 0.11 0.146 0.157 0.146 0.322v7.271c0 0.344-0.25 0.594-0.594 0.594h-4.281z"></path>
</svg>
