<!-- Generated by IcoMoon.io -->
<svg version="1.1" xmlns="http://www.w3.org/2000/svg" width="32" height="32" viewBox="0 0 32 32">
<title>mug-l</title>
<path d="M1.387 4.5c-0.427 0-0.794 0.203-1.029 0.484s-0.357 0.636-0.357 0.994v16.49c0 2.969 2.571 5.316 5.648 5.316h11.734c3.077 0 5.65-2.347 5.65-5.316v-5.768h2.869c3.358-0.001 6.098-2.744 6.098-6.102s-2.74-6.099-6.098-6.1h-3.863c0 0-0.001 0-0.001 0s-0.001 0-0.001 0v0c-0.083 0-0.16 0.032-0.24 0.053-0.049-0.024-0.074-0.053-0.15-0.053h-15.998zM1.992 6.494h19.047v15.975c0 1.817-1.572 3.322-3.656 3.322h-11.734c-2.085 0-3.656-1.505-3.656-3.322v-12.654zM23.035 6.494h2.865c2.281 0 4.107 1.825 4.107 4.105s-1.825 4.106-4.105 4.107h-2.867z"></path>
</svg>
