<!-- Generated by IcoMoon.io -->
<svg version="1.1" xmlns="http://www.w3.org/2000/svg" width="32" height="32" viewBox="0 0 32 32">
<title>mug-r</title>
<path d="M1.699 4.5c-1.087 0-1.699 0.955-1.699 1.791v16.135c0 3.104 2.693 5.547 5.873 5.547h11.48c3.18 0 5.873-2.443 5.873-5.547v-5.301h2.461c0 0 0.001 0 0.001 0s0.001 0 0.001 0v0c3.47-0.001 6.311-2.842 6.31-6.313s-2.841-6.312-6.311-6.313c0 0-0.001 0-0.001 0s-0.001 0-0.001 0h-3.779c-0.107 0.001-0.211 0.014-0.31 0.039l0.009-0.002c-0.034-0.002-0.047-0.037-0.082-0.037h-15.652zM2.637 7.139h17.951v15.287c0 1.579-1.369 2.908-3.234 2.908h-11.48c-1.866 0-3.236-1.329-3.236-2.908v-12.381zM23.227 7.139h2.461c2.045 0 3.675 1.629 3.676 3.674s-1.63 3.675-3.676 3.676h-2.461v-4.443z"></path>
</svg>
