<!-- Generated by IcoMoon.io -->
<svg version="1.1" xmlns="http://www.w3.org/2000/svg" width="32" height="32" viewBox="0 0 32 32">
<title>music-l</title>
<path d="M31.127 0c-0.101 0.002-0.197 0.021-0.285 0.055l0.006-0.002c-6.050 1.191-17.708 3.491-17.904 3.529 0 0-0.001 0-0.001 0s-0.001 0-0.001 0v0c-0.283 0.006-0.532 0.149-0.682 0.366l-0.002 0.003c-0.005 0.006-0.011 0.013-0.016 0.020l-0.001 0.002c0 0-0.002 0.003-0.004 0.006l-0.002 0.004c-0.086 0.131-0.138 0.291-0.138 0.464 0 0.048 0.004 0.095 0.012 0.141l-0.001-0.005c0 2.305 0 3.801 0 6.834-0.007 0.040-0.011 0.087-0.011 0.134s0.004 0.094 0.011 0.139l-0.001-0.005c0 5.131 0 9.257 0 11.551-0.135-0.119-0.275-0.234-0.422-0.342-1.262-0.925-2.943-1.465-4.783-1.465s-3.52 0.54-4.781 1.465c-1.261 0.925-2.121 2.284-2.121 3.822s0.86 2.898 2.121 3.822c1.262 0.925 2.941 1.463 4.781 1.463s3.522-0.538 4.783-1.463c1.040-0.762 1.797-1.823 2.033-3.033 0.054-0.109 0.086-0.237 0.086-0.373 0-0.009 0-0.018 0-0.027v0.001c0 0 0-8.257 0-14.859 0.803-0.158 10.431-2.057 16.486-3.25 0 4.259 0 7.943 0 9.65-0.136-0.12-0.276-0.236-0.424-0.344-1.262-0.925-2.941-1.463-4.781-1.463s-3.522 0.538-4.783 1.463c-1.262 0.925-2.119 2.284-2.119 3.822s0.858 2.898 2.119 3.822c1.262 0.925 2.943 1.465 4.783 1.465s3.52-0.54 4.781-1.465c1.262-0.925 2.121-2.284 2.121-3.822 0-0.059-0.009-0.119-0.012-0.178 0.008-0.043 0.012-0.093 0.012-0.144 0-0.011 0-0.022-0.001-0.033v0.002c0 0 0-7.609 0-13.693 0.005-0.035 0.008-0.076 0.008-0.117s-0.003-0.082-0.009-0.122l0.001 0.005c0-3.052 0-4.553 0-6.867 0.005-0.036 0.008-0.077 0.008-0.119 0-0.209-0.076-0.4-0.201-0.548l0.001 0.001c-0.003-0.005-0.005-0.007-0.006-0.009l0.002 0.003c-0.017-0.020-0.035-0.039-0.053-0.056v0c0-0.001-0.001-0.001-0.002-0.002v0c-0.001-0.001-0.003-0.003-0.004-0.004v0c-0.018-0.017-0.037-0.034-0.057-0.049l-0.002-0.001c-0.145-0.119-0.333-0.192-0.537-0.192-0.004 0-0.008 0-0.012 0h0.001zM30.291 1.893c0 1.954 0 2.989 0 5.373-5.885 1.159-15.314 3.019-16.486 3.25 0-2.365 0-3.477 0-5.373 0.803-0.158 10.431-2.057 16.486-3.25zM25.086 18.537c1.503 0 2.848 0.456 3.777 1.137s1.428 1.539 1.428 2.451c0 0.912-0.498 1.772-1.428 2.453s-2.274 1.135-3.777 1.135c-1.503 0-2.85-0.454-3.779-1.135s-1.426-1.541-1.426-2.453c0-0.912 0.496-1.77 1.426-2.451s2.276-1.137 3.779-1.137zM6.902 23.125c1.503 0 2.85 0.456 3.779 1.137s1.426 1.541 1.426 2.453c0 0.912-0.496 1.77-1.426 2.451s-2.276 1.137-3.779 1.137c-1.503 0-2.848-0.456-3.777-1.137s-1.428-1.539-1.428-2.451c0-0.912 0.498-1.772 1.428-2.453s2.274-1.137 3.777-1.137z"></path>
</svg>
