<!-- Generated by IcoMoon.io -->
<svg version="1.1" xmlns="http://www.w3.org/2000/svg" width="32" height="32" viewBox="0 0 32 32">
<title>music-r</title>
<path d="M30.502 0c-0.165 0.003-0.328 0.033-0.482 0.090l0.1-0.027c-5.805 1.143-16.988 3.349-17.177 3.386l0.105-0.012c-0.47 0.011-0.908 0.246-1.174 0.635-0.010 0.012-0.020 0.026-0.030 0.041l-0.001 0.002c-0.199 0.305-0.277 0.675-0.219 1.035l-0.010-0.105c0 2.212 0 3.648 0 6.558l0.010-0.104c-0.024 0.153-0.024 0.308 0 0.461l-0.010-0.102c0 4.405 0 7.623 0 9.915-1.244-0.739-2.713-1.217-4.343-1.217-1.892 0-3.635 0.553-4.97 1.531-1.342 0.983-2.301 2.473-2.301 4.191s0.959 3.208 2.301 4.191c1.335 0.979 3.078 1.529 4.97 1.529s3.639-0.55 4.974-1.529c1.080-0.792 1.879-1.911 2.164-3.213 0.086-0.197 0.141-0.408 0.135-0.623 0-0.021 0-7.513 0-13.702 1.21-0.239 8.902-1.757 14.517-2.863 0 3.141 0 5.65 0 7.302-1.244-0.74-2.713-1.217-4.343-1.217-1.892 0-3.637 0.55-4.972 1.529-1.342 0.984-2.301 2.474-2.301 4.191s0.959 3.207 2.301 4.191c1.335 0.979 3.080 1.531 4.972 1.531s3.637-0.553 4.972-1.531c1.342-0.983 2.301-2.473 2.301-4.191 0-0.124-0.011-0.189-0.012-0.197 0.004-0.055 0.012-0.111 0.010-0.166l0.002 0.025c0 0 0-7.301 0-13.138l-0.008 0.090c0.019-0.134 0.019-0.27 0-0.404l0.008 0.090c0-2.928 0-4.369 0-6.589l-0.008 0.092c0.058-0.412-0.062-0.83-0.33-1.148l0.041 0.053c-0.015-0.023-0.030-0.043-0.046-0.062l0.001 0.001c-0.029-0.034-0.060-0.066-0.092-0.098-0.005-0.005-0.009-0.009-0.014-0.014v0c-0.030-0.028-0.060-0.054-0.092-0.080-0.267-0.218-0.603-0.335-0.947-0.33 0 0-0.001 0-0.001 0s-0.001 0-0.001 0v0zM11.874 4.072l0.039-0.053c-0.010 0.012-0.019 0.025-0.029 0.037-0.002 0.003-0.005 0.008-0.008 0.013l-0.002 0.003zM29.061 3.256c0 1.23 0 2.313 0 3.83-5.378 1.059-12.797 2.524-14.517 2.863 0-1.447 0-2.579 0-3.832 1.21-0.239 8.902-1.755 14.517-2.861zM24.717 19.085c1.311 0 2.478 0.406 3.24 0.965 0.771 0.565 1.103 1.188 1.103 1.826s-0.333 1.265-1.103 1.83c-0.762 0.558-1.928 0.963-3.24 0.963s-2.481-0.405-3.242-0.963c-0.77-0.565-1.102-1.191-1.102-1.83s0.331-1.261 1.102-1.826c0.762-0.558 1.931-0.965 3.242-0.965zM7.271 23.485c1.311 0 2.48 0.406 3.242 0.965 0.77 0.565 1.103 1.191 1.103 1.83s-0.333 1.263-1.103 1.828c-0.762 0.558-1.931 0.965-3.242 0.965s-2.478-0.406-3.24-0.965c-0.771-0.565-1.103-1.189-1.103-1.828s0.333-1.265 1.103-1.83c0.762-0.559 1.929-0.965 3.24-0.965z"></path>
</svg>
