<!-- Generated by IcoMoon.io -->
<svg version="1.1" xmlns="http://www.w3.org/2000/svg" width="32" height="32" viewBox="0 0 32 32">
<title>notification-r</title>
<path d="M15.293 0.502c-1.582 0.025-3.131 0.551-4.402 1.508-1.816 1.367-2.835 3.397-3.332 5.4-0.668 2.691-0.489 5.256-0.82 7.48-0.135 0.91-0.35 1.761-0.691 2.496-0.339 0.729-0.818 1.356-1.383 1.766-0.339 0.246-0.815 0.481-1.381 0.773-0.568 0.293-1.236 0.651-1.853 1.244-0.496 0.477-0.906 1.065-1.16 1.75-0.274 0.736-0.335 1.524-0.201 2.293 0 0.004 0 0.009 0 0.014 0 0.828 0.672 1.5 1.5 1.5 0.008 0 0.016 0 0.025 0h-0.001l9.016-0.086c0.121 0.571 0.082 1.177 0.367 1.693 0.501 0.906 1.231 1.665 2.117 2.201 0.76 0.46 1.614 0.729 2.494 0.814 0.103 0.025 0.22 0.039 0.342 0.039 0.012 0 0.023 0 0.035 0h-0.002c0.010 0 0.021-0.002 0.031-0.002s0.021 0.002 0.031 0.002c0.008 0 0.018 0 0.029 0 0.118 0 0.233-0.014 0.343-0.039l-0.010 0.002c0.885-0.084 1.744-0.354 2.508-0.816 0.886-0.536 1.617-1.295 2.117-2.201 0.285-0.516 0.247-1.122 0.367-1.693l9.016 0.086c0.007 0 0.015 0 0.023 0 0.828 0 1.5-0.672 1.5-1.5 0-0.007 0-0.014 0-0.021v0.001c0.132-0.767 0.072-1.553-0.201-2.287-0.255-0.685-0.664-1.273-1.16-1.75-0.617-0.593-1.285-0.951-1.854-1.244-0.566-0.292-1.042-0.528-1.381-0.773-0.565-0.409-1.044-1.037-1.383-1.766-0.342-0.736-0.556-1.586-0.691-2.496-0.331-2.224-0.153-4.789-0.82-7.48-0.497-2.004-1.516-4.034-3.332-5.4-1.453-1.093-3.269-1.626-5.082-1.488-0.013 0.001-0.018 0.002-0.023 0.003l0.008-0.001c-0.002 0-0.010-0.001-0.018-0.002h-0.005c-0.227-0.017-0.454-0.023-0.68-0.020zM15.984 3.51c0.045 0.005 0.097 0.007 0.15 0.007 0.037 0 0.073-0.001 0.109-0.004h-0.005c1.065-0.081 2.197 0.25 3.051 0.893 1.085 0.817 1.847 2.206 2.225 3.727 0.519 2.091 0.371 4.55 0.766 7.199 0.162 1.088 0.428 2.222 0.938 3.318 0.513 1.103 1.272 2.155 2.344 2.932 0.637 0.462 1.259 0.747 1.764 1.008 0.503 0.26 0.9 0.502 1.152 0.744 0.121 0.116 0.213 0.245 0.293 0.377l-8.521-0.082c-0.004 0-0.009 0-0.014 0-0.828 0-1.5 0.672-1.5 1.5 0 0.041 0.002 0.081 0.005 0.12v-0.005c0.043 0.557-0.085 1.15-0.355 1.639-0.243 0.439-0.613 0.826-1.043 1.086-0.401 0.243-0.878 0.377-1.348 0.404-0.47-0.027-0.947-0.162-1.348-0.404-0.43-0.26-0.8-0.646-1.043-1.086-0.27-0.489-0.399-1.082-0.355-1.639 0.003-0.035 0.004-0.075 0.004-0.115 0-0.828-0.672-1.5-1.5-1.5-0.005 0-0.010 0-0.015 0h0.001l-8.521 0.082c0.080-0.132 0.172-0.261 0.293-0.377 0.252-0.242 0.649-0.484 1.152-0.744 0.505-0.261 1.126-0.546 1.764-1.008 1.071-0.776 1.831-1.828 2.344-2.932 0.51-1.097 0.776-2.23 0.938-3.318 0.394-2.65 0.247-5.108 0.766-7.199 0.377-1.521 1.139-2.91 2.225-3.727 0.854-0.642 1.986-0.973 3.051-0.893 0.028 0.002 0.061 0.003 0.095 0.003 0.051 0 0.101-0.002 0.15-0.007l-0.006 0.001z"></path>
</svg>
