<!-- Generated by IcoMoon.io -->
<svg version="1.1" xmlns="http://www.w3.org/2000/svg" width="32" height="32" viewBox="0 0 32 32">
<title>paste-r</title>
<path d="M12.102 0c-1.566 0-2.856 1.201-3.029 2.723h-4.586c-0.962 0-1.763 0.801-1.763 1.763v15.537c0 0.962 0.801 1.763 1.763 1.763h6.407v6.779c0 1.884 1.549 3.433 3.434 3.433h11.739c1.884 0 3.432-1.549 3.432-3.433v-12.384c0-0.188-0.051-0.364-0.14-0.515l0.003 0.005c-0.020-0.034-0.080-0.248-0.29-0.576-0.564-0.883-1.223-1.705-1.965-2.447s-1.566-1.402-2.449-1.967c-0.35-0.224-0.594-0.296-0.666-0.336-0.145-0.084-0.319-0.133-0.504-0.133-0.001 0-0.002 0-0.003 0h-2.003v-5.726c0-0.962-0.801-1.763-1.763-1.763h-4.586c-0.173-1.522-1.464-2.723-3.029-2.723zM12.102 1.702c0.762 0 1.362 0.6 1.362 1.362 0 0.562-0.327 1.035-0.805 1.245h-0.001c-0.084 0.037-0.173 0.067-0.266 0.086s-0.19 0.031-0.29 0.031-0.197-0.011-0.29-0.031c-0.093-0.020-0.181-0.049-0.266-0.086h-0.001c-0.477-0.21-0.805-0.682-0.805-1.245 0-0.762 0.6-1.362 1.362-1.362zM4.487 4.426h2.773v2.524c-0.052 0.356 0.175 0.751 0.559 0.777 2.785 0.008 5.57 0.001 8.355 0.003 0.356 0.052 0.751-0.175 0.777-0.558 0.007-0.915 0.001-1.83 0.003-2.745h2.766c0.049 0 0.063 0.013 0.063 0.061v5.726h-5.453c-1.884 0-3.434 1.549-3.434 3.434v6.439h-6.407c-0.049 0-0.063-0.012-0.063-0.061v-15.537c0-0.049 0.014-0.061 0.063-0.061zM14.327 12.257h7c-0.017 2.225 0.001 4.964 0.001 4.964 0.005 0.561 0.461 1.013 1.022 1.013 0 0 0 0 0.001 0h5.104v10.332c0 0.788-0.601 1.39-1.388 1.39h-11.739c-0.788 0-1.39-0.602-1.39-1.39v-14.92c0-0.788 0.602-1.39 1.39-1.39zM23.372 12.315c0.076 0.037 0.171 0.081 0.183 0.089 0.76 0.486 1.469 1.054 2.105 1.69s1.2 1.339 1.685 2.096h-3.973c-0.005-0.749-0.011-2.28 0-3.875z"></path>
</svg>
