<!-- Generated by IcoMoon.io -->
<svg version="1.1" xmlns="http://www.w3.org/2000/svg" width="32" height="32" viewBox="0 0 32 32">
<title>pencil-l</title>
<path d="M26.531 0c-1.227 0-2.37 0.407-3.283 1.094l-0.047 0.037-2.49 2.49 7.668 7.668 2.49-2.49 0.037-0.047c0.686-0.914 1.094-2.056 1.094-3.283 0-3.010-2.458-5.469-5.469-5.469zM26.531 1.697c2.093 0 3.771 1.679 3.771 3.772 0 0.846-0.281 1.616-0.748 2.244l-1.176 1.178-5.268-5.27 1.176-1.176c0.629-0.467 1.398-0.748 2.244-0.748zM18.098 6.234l-15.906 15.906-0.055 0.24-2.137 9.619 9.859-2.191 15.906-15.906c-0.4-0.4-0.801-0.799-1.201-1.199l-15.129 15.131c-1.755-1.757-3.511-3.512-5.268-5.268l15.129-15.131c-0.4-0.4-0.799-0.801-1.199-1.201zM3.459 24.26c1.427 1.427 2.855 2.854 4.281 4.281l-5.504 1.223 1.223-5.504z"></path>
</svg>
