<!-- Generated by IcoMoon.io -->
<svg version="1.1" xmlns="http://www.w3.org/2000/svg" width="32" height="32" viewBox="0 0 32 32">
<title>pencil-r</title>
<path d="M26.289 0c-1.28 0-2.473 0.426-3.428 1.143l-0.004 0.002-0.068 0.055-2.717 2.717 8.012 8.012 2.717-2.717 0.055-0.068 0.002-0.004c0.717-0.954 1.143-2.147 1.143-3.428 0-3.141-2.57-5.711-5.711-5.711zM26.289 2.447c1.818 0 3.264 1.446 3.264 3.264 0 0.731-0.243 1.388-0.646 1.934l-0.822 0.822-4.549-4.551 0.82-0.822c0.546-0.404 1.203-0.647 1.934-0.647zM18.1 5.889l-0.281 0.283-15.527 15.525-0.080 0.348-2.211 9.955 10.301-2.289 15.811-15.811-0.283-0.283c-0.389-0.389-0.778-0.776-1.166-1.164l-0.283-0.283-14.689 14.691c-1.516-1.517-3.032-3.033-4.549-4.549l14.689-14.691-0.283-0.283c-0.388-0.388-0.775-0.777-1.164-1.166l-0.283-0.283zM4.117 24.754c1.043 1.043 2.086 2.085 3.129 3.129l-4.021 0.893 0.893-4.021z"></path>
</svg>
