<!-- Generated by IcoMoon.io -->
<svg version="1.1" xmlns="http://www.w3.org/2000/svg" width="32" height="32" viewBox="0 0 32 32">
<title>phone-r</title>
<path d="M8.186 23.816c2.063 2.063 5.058 4.040 8.095 5.565s6.015 2.619 8.451 2.619h0.438l0.365-0.243c0 0 1.506-1 3.035-2.273 0.764-0.637 1.538-1.34 2.173-2.080s1.258-1.463 1.258-2.672c0-1.209-0.565-1.957-1.22-2.854s-1.505-1.808-2.44-2.609c-0.935-0.802-1.935-1.496-3.015-1.896-0.54-0.2-1.113-0.332-1.739-0.291s-1.32 0.309-1.818 0.807c-1.141 1.141-1.719 2.285-2.122 2.889-0.201 0.302-0.343 0.447-0.413 0.496s-0.081 0.072-0.325 0.072c-0.488 0-1.195-0.287-2.042-0.922s-1.785-1.564-2.755-2.534c-0.97-0.97-1.899-1.908-2.534-2.755s-0.924-1.555-0.924-2.043c0-0.244 0.025-0.253 0.074-0.323s0.194-0.211 0.496-0.412c0.604-0.403 1.748-0.981 2.889-2.122 0.498-0.498 0.764-1.193 0.806-1.819s-0.091-1.199-0.291-1.739c-0.4-1.080-1.095-2.080-1.896-3.015s-1.713-1.785-2.609-2.44c-0.896-0.655-1.645-1.22-2.854-1.22s-1.93 0.625-2.67 1.26c-0.74 0.634-1.443 1.409-2.080 2.173-1.274 1.528-2.275 3.033-2.275 3.033l-0.243 0.365v0.438c0 2.436 1.094 5.415 2.619 8.451s3.504 6.034 5.567 8.096zM10.232 21.769c-1.712-1.712-3.615-4.537-5.027-7.348-1.325-2.638-2.133-5.258-2.235-6.776 0.229-0.335 0.795-1.189 1.771-2.36 0.576-0.691 1.206-1.372 1.739-1.829s1.023-0.561 0.785-0.561c-0.238 0 0.468 0.165 1.148 0.662s1.466 1.223 2.12 1.986c0.654 0.763 1.174 1.581 1.38 2.138 0.101 0.273 0.12 0.465 0.117 0.532-0.788 0.777-1.575 1.174-2.414 1.733-0.426 0.284-0.886 0.626-1.261 1.162s-0.595 1.256-0.595 1.983c0 1.453 0.683 2.686 1.503 3.78s1.832 2.095 2.803 3.065c0.97 0.97 1.971 1.982 3.065 2.803s2.325 1.501 3.778 1.501c0.726 0 1.446-0.219 1.982-0.595s0.879-0.836 1.162-1.261c0.559-0.839 0.958-1.625 1.735-2.413 0.068-0.003 0.258 0.014 0.531 0.115 0.557 0.206 1.375 0.726 2.138 1.38s1.49 1.442 1.987 2.122c0.497 0.68 0.66 1.385 0.66 1.146s-0.102 0.253-0.56 0.787c-0.457 0.533-1.138 1.163-1.829 1.739-1.171 0.976-2.026 1.541-2.361 1.77-1.518-0.102-4.136-0.909-6.774-2.234-2.811-1.412-5.636-3.314-7.348-5.027z"></path>
</svg>
