<!-- Generated by IcoMoon.io -->
<svg version="1.1" xmlns="http://www.w3.org/2000/svg" width="32" height="32" viewBox="0 0 32 32">
<title>phone-hang-up-r</title>
<path d="M16 8.5c-2.52 0-5.558 0.622-8.344 1.545s-5.274 2.075-6.762 3.563l-0.268 0.268-0.074 0.371c0 0-0.309 1.531-0.465 3.242-0.078 0.856-0.121 1.758-0.057 2.598s0.125 1.662 0.863 2.4c0.738 0.738 1.541 0.851 2.488 0.998s2.023 0.185 3.084 0.104c1.061-0.082 2.096-0.268 3-0.684 0.452-0.208 0.883-0.477 1.24-0.885s0.617-0.995 0.617-1.604c0-1.394-0.346-2.445-0.469-3.061-0.062-0.308-0.064-0.482-0.051-0.555s0.005-0.093 0.154-0.242c0.298-0.298 0.905-0.554 1.811-0.684s2.045-0.135 3.23-0.135c1.185 0 2.325 0.005 3.23 0.135s1.514 0.386 1.813 0.684c0.149 0.149 0.14 0.17 0.152 0.242s0.011 0.247-0.051 0.555c-0.123 0.615-0.469 1.667-0.469 3.061 0 0.609 0.262 1.196 0.619 1.604s0.788 0.677 1.24 0.885c0.904 0.416 1.939 0.602 3 0.684s2.136 0.044 3.084-0.104c0.948-0.147 1.75-0.26 2.488-0.998s0.797-1.561 0.861-2.4c0.065-0.84 0.021-1.742-0.057-2.598-0.156-1.711-0.463-3.242-0.463-3.242l-0.074-0.371-0.268-0.268c-1.488-1.488-3.975-2.639-6.762-3.563s-5.826-1.545-8.346-1.545zM16 11c2.092 0 4.979 0.563 7.559 1.418 2.421 0.802 4.514 1.909 5.504 2.773 0.065 0.345 0.24 1.212 0.359 2.523 0.070 0.774 0.101 1.575 0.055 2.18s-0.282 0.968-0.137 0.822c0.146-0.146-0.386 0.185-1.105 0.297s-1.643 0.149-2.508 0.082c-0.865-0.067-1.682-0.249-2.148-0.463-0.228-0.105-0.357-0.211-0.396-0.254 0.007-0.956 0.245-1.679 0.416-2.533 0.087-0.433 0.159-0.923 0.061-1.48s-0.404-1.131-0.848-1.574c-0.887-0.887-2.058-1.224-3.227-1.391s-2.399-0.16-3.584-0.16c-1.185 0-2.415-0.007-3.584 0.16s-2.337 0.503-3.225 1.391c-0.444 0.444-0.749 1.017-0.848 1.574s-0.026 1.047 0.061 1.48c0.171 0.854 0.407 1.577 0.414 2.533-0.039 0.043-0.166 0.149-0.395 0.254-0.466 0.214-1.283 0.396-2.148 0.463s-1.791 0.030-2.51-0.082c-0.719-0.112-1.249-0.442-1.104-0.297s-0.092-0.217-0.139-0.822c-0.047-0.605-0.016-1.406 0.055-2.18 0.119-1.312 0.296-2.179 0.361-2.523 0.99-0.865 3.081-1.971 5.502-2.773 2.579-0.855 5.467-1.418 7.559-1.418z"></path>
</svg>
