<!-- Generated by IcoMoon.io -->
<svg version="1.1" xmlns="http://www.w3.org/2000/svg" width="32" height="32" viewBox="0 0 32 32">
<title>podcast-l</title>
<path d="M15.887 0c-6.676 0-12.646 4.18-14.93 10.453s-0.395 13.312 4.719 17.604c0.15 0.136 0.35 0.22 0.57 0.22 0.469 0 0.849-0.38 0.849-0.849 0-0.272-0.128-0.514-0.327-0.67l-0.002-0.001c-4.572-3.836-6.254-10.115-4.213-15.723s7.366-9.336 13.334-9.336c5.968 0 11.293 3.728 13.334 9.336s0.359 11.887-4.213 15.723c-0.192 0.157-0.313 0.394-0.313 0.659 0 0.469 0.38 0.849 0.849 0.849 0.004 0 0.008 0 0.012 0h-0.001c0.208-0.003 0.398-0.081 0.544-0.208l-0.001 0.001c5.114-4.291 7.002-11.33 4.719-17.604s-8.254-10.453-14.93-10.453zM15.887 7.354c-4.011 0-7.601 2.514-8.973 6.283s-0.237 8.002 2.836 10.58c0.139 0.12 0.319 0.196 0.516 0.205h0.002c0.010 0 0.023 0.001 0.035 0.001 0.469 0 0.849-0.38 0.849-0.849 0-0.264-0.121-0.501-0.31-0.656l-0.001-0.001c-2.53-2.123-3.46-5.595-2.33-8.699s4.074-5.166 7.377-5.166c3.303 0 6.247 2.062 7.377 5.166s0.2 6.576-2.33 8.699c-0.201 0.157-0.329 0.399-0.329 0.671 0 0.469 0.38 0.849 0.849 0.849 0.22 0 0.42-0.083 0.571-0.22l-0.001 0.001c3.073-2.578 4.208-6.811 2.836-10.58s-4.962-6.283-8.973-6.283zM15.887 13.143c-2.066 0-3.76 1.694-3.76 3.76s1.694 3.758 3.76 3.758c2.066 0 3.76-1.692 3.76-3.758s-1.694-3.76-3.76-3.76zM15.887 14.84c1.148 0 2.061 0.914 2.061 2.063s-0.912 2.061-2.061 2.061c-1.148 0-2.061-0.912-2.061-2.061s0.912-2.063 2.061-2.063zM15.846 22.457c-0.297 0.014-0.552 0.178-0.693 0.418l-0.002 0.004-4.529 7.848c-0.072 0.122-0.114 0.268-0.114 0.425 0 0.32 0.177 0.598 0.438 0.743l0.004 0.002c0.117 0.065 0.257 0.104 0.406 0.104h9.062c0.468-0.001 0.848-0.381 0.848-0.849 0-0.156-0.042-0.303-0.116-0.428l0.002 0.004-4.531-7.848c-0.15-0.255-0.422-0.423-0.734-0.423-0.014 0-0.029 0-0.043 0.001h0.002zM15.887 25.002l3.059 5.301h-6.119z"></path>
</svg>
