<!-- Generated by IcoMoon.io -->
<svg version="1.1" xmlns="http://www.w3.org/2000/svg" width="32" height="32" viewBox="0 0 32 32">
<title>podcast-r</title>
<path d="M16.2 0c-6.806 0-12.895 4.263-15.223 10.659-2.326 6.392-0.405 13.566 4.801 17.942 0 0 0.002 0 0.002 0 0.293 0.264 0.661 0.374 0.99 0.331s0.609-0.22 0.806-0.456 0.323-0.542 0.309-0.874c-0.015-0.332-0.189-0.676-0.502-0.918l0.014 0.010c-4.415-3.704-6.039-9.762-4.068-15.178s7.109-9.013 12.872-9.013c5.763 0 10.901 3.597 12.872 9.013 1.97 5.413 0.35 11.469-4.060 15.174-0.443 0.361-0.554 0.94-0.388 1.398s0.621 0.832 1.193 0.824c0 0 0.001 0 0.001 0s0.001 0 0.001 0v0c0.293-0.004 0.575-0.112 0.797-0.303 5.212-4.375 7.139-11.554 4.811-17.949s-8.419-10.659-15.225-10.659zM16.2 7.31c-4.158 0-7.879 2.607-9.301 6.513-1.421 3.905-0.246 8.293 2.935 10.966 0.213 0.184 0.482 0.291 0.763 0.303 0 0 0.001 0 0.001 0s0.001 0 0.001 0v0c0.578 0.024 1.046-0.347 1.221-0.806s0.069-1.048-0.378-1.414c-2.382-2.002-3.255-5.268-2.19-8.192 1.065-2.926 3.836-4.867 6.95-4.867s5.887 1.941 6.952 4.867c1.065 2.926 0.189 6.195-2.196 8.196-0.305 0.242-0.473 0.581-0.488 0.908-0.015 0.332 0.111 0.638 0.309 0.874s0.477 0.412 0.806 0.456c0.328 0.044 0.695-0.066 0.988-0.329 3.178-2.673 4.354-7.059 2.933-10.962-1.422-3.907-5.146-6.513-9.303-6.513zM16.2 13.901c-1.761 0-3.204 1.442-3.204 3.202s1.443 3.202 3.204 3.202c1.76 0 3.204-1.442 3.204-3.202s-1.444-3.202-3.204-3.202zM16.166 23.868c-0.253 0.012-0.471 0.152-0.592 0.357l-0.002 0.003-3.859 6.689c-0.060 0.103-0.096 0.228-0.096 0.36 0 0.273 0.151 0.51 0.373 0.633l0.004 0.002c0.1 0.055 0.219 0.088 0.345 0.088 0 0 0.001 0 0.001 0h7.722c0.398-0.001 0.721-0.325 0.721-0.724 0-0.132-0.036-0.256-0.098-0.363l0.002 0.003-3.861-6.689c-0.128-0.218-0.36-0.361-0.626-0.361-0.012 0-0.024 0-0.037 0.001h0.002z"></path>
</svg>
