<!-- Generated by IcoMoon.io -->
<svg version="1.1" xmlns="http://www.w3.org/2000/svg" width="32" height="32" viewBox="0 0 32 32">
<title>point-s</title>
<path d="M0 9.707c0-0.501 0.43-0.908 0.959-0.908h5.748c0.433 0 0.786 0.276 0.904 0.65 0 6.225 0 12.451 0 18.674-0.118 0.374-0.471 0.65-0.904 0.65h-5.748c-0.529 0-0.959-0.407-0.959-0.908zM4.256 26.451c0 0.529 0.43 0.959 0.959 0.959s0.957-0.43 0.957-0.959c0-0.529-0.428-0.957-0.957-0.957s-0.959 0.428-0.959 0.957zM9.063 10.504l6.475-7.1c0.007-0.008 0.013-0.014 0.020-0.021 0.547-0.569 1.283-0.883 2.072-0.883 1.585 0 2.873 1.29 2.873 2.875 0 0.504-0.132 1.001-0.383 1.436l-2.809 5.27h11.816c1.585 0 2.873 1.29 2.873 2.875s-1.288 2.873-2.873 2.873h-6.871c0.106 0.3 0.164 0.624 0.164 0.959 0 0.736-0.276 1.407-0.732 1.916 0.456 0.509 0.732 1.18 0.732 1.916 0 1.016-0.53 1.91-1.328 2.422 0.237 0.417 0.371 0.898 0.371 1.41 0 1.585-1.29 2.875-2.875 2.875h-4.791c-0.149 0-0.295-0.036-0.428-0.104l-4.307-2.152c0-5.522 0-11.043 0-16.566z"></path>
</svg>
