<!-- Generated by IcoMoon.io -->
<svg version="1.1" xmlns="http://www.w3.org/2000/svg" width="32" height="32" viewBox="0 0 32 32">
<title>point-l</title>
<path d="M0 9.477c0-0.982 0.815-1.795 1.797-1.795h5.68c0.756 0 1.293 0.542 1.555 1.213l5.219-5.723c0.005-0.005 0.032-0.037 0.012-0.014l0.025-0.025c0.696-0.724 1.655-1.133 2.66-1.133 2.027 0 3.689 1.663 3.689 3.689 0 0.648-0.171 1.284-0.494 1.844l-2.096 3.936h10.264c2.027 0 3.689 1.663 3.689 3.689s-1.663 3.691-3.689 3.691h-5.797c0.001 0.034 0.018 0.064 0.018 0.098 0 0.703-0.249 1.333-0.594 1.895 0.345 0.562 0.594 1.19 0.594 1.893 0 1.061-0.528 1.952-1.252 2.627 0.131 0.378 0.305 0.741 0.305 1.16 0 2.027-1.663 3.689-3.689 3.689h-5.086l-0.109-0.109c-0.115-0.031-0.238-0.028-0.346-0.082l-3.104-1.551c-0.034 0.953-0.813 1.742-1.773 1.742h-5.68c-0.982 0-1.797-0.815-1.797-1.797zM1.697 9.477v18.938c0 0.063 0.036 0.098 0.1 0.098h5.68c0.063 0 0.1-0.034 0.1-0.098v-1.309c0-0.458 0-0.915 0-1.373-0.001-4.24-0.001-8.48 0-12.721v-3.535c0-0.063-0.036-0.098-0.1-0.098h-5.68c-0.063 0-0.1 0.034-0.1 0.098zM3.744 25.957c0-0.771 0.626-1.396 1.397-1.396 0 0 0.001 0 0.002 0v0c0.771 0 1.396 0.625 1.396 1.396v0c0 0.771-0.625 1.396-1.396 1.396v0c0 0-0.001 0-0.001 0-0.771 0-1.397-0.625-1.397-1.396v0zM9.273 11.15c-0.001 5.144-0.001 10.287 0 15.43l3.844 1.924c0.012 0.006 0.026 0.008 0.041 0.008h0.354l0.002 0.002h4.381c1.106 0 1.992-0.887 1.992-1.992 0-0.358-0.092-0.687-0.256-0.975l-0.398-0.699 0.678-0.434c0.554-0.355 0.922-0.972 0.922-1.68 0-0.513-0.191-0.972-0.508-1.326l-0.508-0.568 0.508-0.566c0.317-0.354 0.508-0.813 0.508-1.326 0-0.234-0.038-0.458-0.111-0.664l-0.402-1.133h7.992c1.106 0 1.992-0.887 1.992-1.992s-0.887-1.99-1.992-1.99h-13.094l3.455-6.482c0.173-0.3 0.266-0.648 0.266-0.996 0-1.106-0.885-1.99-1.99-1.99-0.555 0-1.051 0.21-1.436 0.609z"></path>
</svg>
