<!-- Generated by IcoMoon.io -->
<svg version="1.1" xmlns="http://www.w3.org/2000/svg" width="32" height="32" viewBox="0 0 32 32">
<title>power-cord-r</title>
<path d="M23.559 0c-0.176 0.002-0.335 0.074-0.451 0.189v0l-0.613 0.615-4.719 4.719-3.506-3.506c-0.29-0.29-0.686-0.451-1.096-0.445-0.395 0.005-0.773 0.166-1.053 0.445l-2.879 2.881c-0.58 0.58-0.576 1.529-0.012 2.119-2.467 3.054-4.236 6.301-4.893 9.414-0.618 2.93-0.298 5.756 1.137 7.947l-5.285 5.283c-0.117 0.118-0.19 0.28-0.19 0.459s0.072 0.341 0.19 0.459v0l1.23 1.23c0.118 0.117 0.28 0.19 0.459 0.19s0.341-0.072 0.459-0.19v0l5.281-5.283c2.191 1.435 5.018 1.756 7.947 1.139 3.114-0.656 6.364-2.428 9.42-4.896 0.59 0.559 1.535 0.564 2.113-0.014l2.879-2.879c0.588-0.588 0.588-1.561 0-2.148l-3.502-3.502 5.334-5.334c0.118-0.118 0.191-0.28 0.191-0.46s-0.073-0.342-0.191-0.46l-1.23-1.228c-0.118-0.117-0.28-0.19-0.459-0.19s-0.341 0.072-0.459 0.19v0l-5.334 5.334-4.406-4.406 5.334-5.334c0.117-0.118 0.19-0.28 0.19-0.459s-0.072-0.341-0.19-0.459v0l-1.229-1.23c-0.118-0.117-0.28-0.19-0.459-0.19-0.003 0-0.007 0-0.010 0h0.001zM13.195 5.238l13.56 13.564-0.813 0.813c-0.561-0.357-1.286-0.395-1.799 0.063-3.040 2.71-6.363 4.417-9.203 5.016-2.843 0.599-5.058 0.118-6.406-1.227l-0.002-0.002c-1.343-1.349-1.82-3.563-1.221-6.406 0.599-2.84 2.303-6.162 5.012-9.201 0.46-0.515 0.421-1.245 0.059-1.807z"></path>
</svg>
