<!-- Generated by IcoMoon.io -->
<svg version="1.1" xmlns="http://www.w3.org/2000/svg" width="32" height="32" viewBox="0 0 32 32">
<title>price-tag-l</title>
<path d="M18.11 0c-1.13 0-2.283 0.478-3.082 1.277l-14.355 14.355c-0.897 0.897-0.897 2.375 0 3.271l12.424 12.424c0.897 0.897 2.375 0.897 3.271 0l14.355-14.355c0.799-0.799 1.277-1.952 1.277-3.082v-11.578c0-1.268-1.044-2.312-2.312-2.312zM18.11 1.73h11.578c0.324 0 0.582 0.258 0.582 0.582v11.578c0 0.461-0.445 1.531-0.771 1.857l-14.353 14.355c-0.228 0.228-0.594 0.228-0.822 0l-12.425-12.425c-0.228-0.228-0.228-0.594 0-0.822l14.355-14.353c0.328-0.328 1.395-0.771 1.857-0.771zM22.451 5.805c-2.058 0-3.744 1.686-3.744 3.744s1.686 3.744 3.744 3.744c2.058 0 3.744-1.686 3.744-3.744s-1.686-3.744-3.744-3.744zM22.451 7.506c1.139 0 2.043 0.904 2.043 2.043s-0.904 2.045-2.043 2.045c-1.139 0-2.045-0.906-2.045-2.045s0.906-2.043 2.045-2.043z"></path>
</svg>
