<!-- Generated by IcoMoon.io -->
<svg version="1.1" xmlns="http://www.w3.org/2000/svg" width="32" height="32" viewBox="0 0 32 32">
<title>price-tag-r</title>
<path d="M18.022 0c-1.341 0-2.481 0.471-3.43 1.42l-13.754 13.754c-1.118 1.118-1.118 2.964 0 4.082l11.906 11.906c1.118 1.118 2.964 1.118 4.082 0l13.754-13.754c0.948-0.948 1.42-2.088 1.42-3.43v-11.092c0-1.581-1.306-2.887-2.887-2.887zM18.022 3h10.978v10.978c0 0.183-0.411 1.177-0.541 1.307l-13.674 13.675-11.746-11.746 13.676-13.674c0.131-0.131 1.122-0.541 1.307-0.541zM22.822 6.119c-1.69 0-3.061 1.369-3.061 3.059s1.371 3.061 3.061 3.061c1.69 0 3.059-1.371 3.059-3.061s-1.369-3.059-3.059-3.059z"></path>
</svg>
