<!-- Generated by IcoMoon.io -->
<svg version="1.1" xmlns="http://www.w3.org/2000/svg" width="32" height="32" viewBox="0 0 32 32">
<title>printer-l</title>
<path d="M8 2v5.627h-5.225c-1.523 0-2.775 1.252-2.775 2.775v9.598c0 1.523 1.252 2.775 2.775 2.775h5.725v7.291h15v-7.291h5.725c1.523 0 2.775-1.252 2.775-2.775v-9.598c0-1.523-1.252-2.775-2.775-2.775h-5.225v-5.627zM9.699 3.701h12.602v3.926h-12.602zM2.775 9.326h26.449c0.611 0 1.076 0.465 1.076 1.076v9.598c0 0.611-0.465 1.076-1.076 1.076h-5.725v-3.793h-0.85c0 0-8.866-0.001-13.301 0h-0.85v3.793h-5.725c-0.611 0-1.076-0.465-1.076-1.076v-9.598c0-0.611 0.465-1.076 1.076-1.076zM4.551 10.428c-0.966 0-1.75 0.784-1.75 1.75v0c0 0.966 0.784 1.75 1.75 1.75v0c0.966 0 1.75-0.784 1.75-1.75v0c0-0.966-0.784-1.75-1.75-1.75v0zM10.201 18.984c4.313-0.001 10.655 0 11.598 0v9.383h-11.598z"></path>
</svg>
