<!-- Generated by IcoMoon.io -->
<svg version="1.1" xmlns="http://www.w3.org/2000/svg" width="32" height="32" viewBox="0 0 32 32">
<title>pushpin-r</title>
<path d="M17.459 0l-2.121 2.121c0.729 0.729 1.458 1.458 2.188 2.188l-7.129 7.742h-9.256l6.697 6.697-7.838 10.391v2.861h2.861l10.391-7.838 6.697 6.697v-9.256l7.742-7.129c0.729 0.729 1.459 1.458 2.188 2.188l2.121-2.121c-4.846-4.848-9.693-9.695-14.541-14.541zM19.295 6.078c2.209 2.209 4.418 4.418 6.627 6.627l-8.473 7.803v4.316l-3.967-3.967-9.525 7.186 7.186-9.525-3.967-3.967h4.316l7.803-8.473zM19.744 9.146l-6.785 6.785 1.768 1.768 6.785-6.785-1.768-1.768z"></path>
</svg>
