<!-- Generated by IcoMoon.io -->
<svg version="1.1" xmlns="http://www.w3.org/2000/svg" width="32" height="32" viewBox="0 0 32 32">
<title>question-r</title>
<path d="M16 0c-8.819 0-16 7.181-16 16s7.181 16 16 16c8.819 0 16-7.181 16-16s-7.181-16-16-16zM16 3c7.198 0 13 5.802 13 13s-5.802 13-13 13c-7.198 0-13-5.802-13-13s5.802-13 13-13zM15.934 6.049c-0.26 0.001-0.52 0.021-0.779 0.061-1.039 0.16-2.005 0.631-2.771 1.357s-1.292 1.67-1.5 2.711c-0.071 0.357-0.104 0.722-0.098 1.086 0 0.007 0 0.016 0 0.024 0 0.828 0.672 1.5 1.5 1.5s1.5-0.672 1.5-1.5c0-0.027-0.001-0.054-0.002-0.080v0.004c-0.003-0.149 0.012-0.3 0.041-0.445 0.083-0.414 0.311-0.827 0.621-1.121s0.738-0.504 1.166-0.57c0.428-0.066 0.903 0.004 1.299 0.191s0.755 0.513 0.984 0.893c0.305 0.505 0.396 1.182 0.234 1.697-0.082 0.263-0.23 0.513-0.412 0.701s-0.416 0.333-0.652 0.408c-0.197 0.063-0.57 0.108-1.098 0.232-0.544 0.128-1.254 0.354-1.848 1-0.511 0.556-0.713 1.193-0.797 1.746-0.082 0.54-0.055 0.989-0.045 1.33 0.026 0.852 0.026 1.703 0 2.555-0.001 0.024-0.002 0.052-0.002 0.079 0 0.828 0.672 1.5 1.5 1.5 0.824 0 1.493-0.665 1.5-1.487v-0.001c0.028-0.912 0.028-1.826 0-2.738-0.011-0.365-0.012-0.629 0.012-0.787 0.022-0.145 0.074-0.201 0.041-0.166-0.035 0.038 0.066-0.050 0.326-0.111 0.276-0.065 0.732-0.105 1.322-0.293 0.728-0.232 1.375-0.642 1.896-1.182s0.899-1.188 1.119-1.891c0.443-1.416 0.213-2.919-0.529-4.146-0.538-0.89-1.325-1.604-2.27-2.051-0.709-0.335-1.481-0.508-2.26-0.506zM14.777 22.951c-0.005 0-0.011 0-0.018 0-0.828 0-1.5 0.672-1.5 1.5s0.672 1.5 1.5 1.5c0.006 0 0.012 0 0.018 0h-0.001c0.005 0 0.011 0 0.018 0 0.828 0 1.5-0.672 1.5-1.5s-0.672-1.5-1.5-1.5c-0.006 0-0.012 0-0.018 0h0.001z"></path>
</svg>
