<!-- Generated by IcoMoon.io -->
<svg version="1.1" xmlns="http://www.w3.org/2000/svg" width="32" height="32" viewBox="0 0 32 32">
<title>rocket-l</title>
<path d="M31.122 0.001c-0.050 0.002-0.098 0.007-0.144 0.017l-9.466 1.894c-0.171 0.035-0.319 0.117-0.434 0.232l-9.219 9.221h-5.33c-0.277 0-0.523 0.133-0.678 0.338l-0.002 0.002-5.682 7.574c-0.106 0.14-0.169 0.317-0.169 0.509 0 0.469 0.381 0.85 0.85 0.85 0.081 0 0.159-0.011 0.233-0.032l-0.006 0.001c0 0 1.463-0.406 3.359-0.719 1.388-0.229 2.919-0.314 4.289-0.25l-8.547 10.992c-0.109 0.141-0.174 0.321-0.174 0.516 0 0.469 0.381 0.85 0.85 0.85 0.195 0 0.374-0.066 0.518-0.176l-0.002 0.001 11.385-8.854c0.294 1.496 0.223 3.155-0.152 4.609-0.474 1.837-1.15 3.193-1.15 3.193-0.056 0.111-0.090 0.241-0.090 0.38 0 0.469 0.381 0.85 0.85 0.85 0.192 0 0.369-0.064 0.511-0.171l-0.002 0.002 7.574-5.682c0.207-0.157 0.34-0.403 0.34-0.68v0-5.33l9.221-9.219c0.115-0.115 0.197-0.263 0.231-0.428l0.001-0.005 1.895-9.471c0.010-0.050 0.016-0.107 0.016-0.166 0-0.469-0.381-0.85-0.85-0.85-0.010 0-0.019 0-0.029 0.001h0.001zM30.066 1.934l-1.594 7.967-9.285 9.287c-0.154 0.153-0.249 0.365-0.25 0.599v5.256l-4.967 3.727c0.125-0.381 0.164-0.328 0.277-0.768 0.522-2.022 0.864-4.617-0.135-6.902-0.135-0.302-0.433-0.509-0.779-0.509-0.198 0-0.38 0.067-0.524 0.181l0.002-0.001-7.115 5.533 5.354-6.883c0.112-0.143 0.179-0.325 0.179-0.522 0-0.403-0.281-0.741-0.658-0.828l-0.006-0.001c-1.982-0.444-4.415-0.188-6.406 0.141-0.714 0.118-0.721 0.152-1.27 0.271l4.066-5.418h5.256c0.234 0 0.446-0.095 0.6-0.248l9.289-9.289z"></path>
</svg>
