<!-- Generated by IcoMoon.io -->
<svg version="1.1" xmlns="http://www.w3.org/2000/svg" width="32" height="32" viewBox="0 0 32 32">
<title>scissors-s</title>
<path d="M9.259 0l-0.708 0.448-0.016 0.012c-0.805 0.641-1.405 1.557-1.643 2.639-0.249 1.133-0.060 2.263 0.454 3.21l0.006 0.012 5.663 8.889-2.165 3.385c-0.092-0.071-0.174-0.152-0.272-0.216-1.288-0.824-2.908-0.828-4.446-0.212s-3.017 1.848-4.105 3.549c-1.088 1.7-1.587 3.558-1.502 5.212s0.767 3.124 2.054 3.948c1.288 0.824 2.908 0.828 4.446 0.212s3.015-1.848 4.103-3.549l4.871-7.645 4.873 7.645c1.088 1.7 2.565 2.932 4.103 3.549s3.158 0.612 4.446-0.212c1.288-0.824 1.97-2.293 2.055-3.948 0.075-1.479-0.391-3.109-1.252-4.655h0.105l-0.355-0.556c-1.088-1.7-2.565-2.932-4.103-3.549s-3.158-0.612-4.446 0.212h-0.002c-0.099 0.064-0.182 0.145-0.274 0.216l-2.165-3.385 5.67-8.902c0.512-0.947 0.701-2.077 0.454-3.21-0.238-1.083-0.838-1.998-1.643-2.639l-0.014-0.012-0.708-0.448-6.742 10.543zM16 13.698c0.855 0 1.548 0.693 1.548 1.548v0c0 0.855-0.693 1.548-1.548 1.548v0c-0.855 0-1.548-0.693-1.548-1.548v0c0-0.855 0.693-1.548 1.548-1.548v0zM8.298 21.485c0.114 0.003 0.211 0.020 0.26 0.050h0.002c0.099 0.064 0.303 0.43 0.331 0.982 0.046 0.897-0.283 2.010-0.917 3.002v0.002c-0.899 1.405-2.056 2.065-2.752 2.218-0.229 0.050-0.524 0.044-0.621-0.018-0.098-0.063-0.303-0.431-0.331-0.984-0.045-0.898 0.281-2.010 0.915-3.002 0.899-1.405 2.056-2.065 2.752-2.218 0.115-0.025 0.247-0.035 0.361-0.032zM23.706 21.487c0.114-0.003 0.245 0.007 0.359 0.032h0.002c0.697 0.153 1.853 0.813 2.752 2.218 0.635 0.991 0.962 2.105 0.915 3.002-0.028 0.552-0.235 0.921-0.333 0.984s-0.39 0.068-0.619 0.018c-0.697-0.153-1.853-0.815-2.752-2.22-0.635-0.991-0.964-2.105-0.917-3.002 0.028-0.551 0.235-0.918 0.333-0.982 0.049-0.031 0.146-0.047 0.26-0.050z"></path>
</svg>
