<!-- Generated by IcoMoon.io -->
<svg version="1.1" xmlns="http://www.w3.org/2000/svg" width="32" height="32" viewBox="0 0 32 32">
<title>search-l</title>
<path d="M11.997 0c-6.616 0-11.997 5.381-11.997 11.997s5.381 11.997 11.997 11.997c3.003 0 5.743-1.117 7.85-2.947 0.7 0.699 1.401 1.4 2.101 2.101-0.016 0.083-0.025 0.178-0.025 0.275 0 0.422 0.174 0.803 0.455 1.076v0c2.346 2.345 4.693 4.69 7.039 7.037 0.273 0.285 0.658 0.462 1.083 0.462 0.828 0 1.5-0.672 1.5-1.5 0-0.425-0.177-0.81-0.462-1.083h-0.001c-2.347-2.348-4.693-4.694-7.039-7.039-0.273-0.28-0.653-0.453-1.074-0.453-0.001 0-0.001 0-0.002 0v0c-0.096 0-0.189 0.010-0.279 0.027l0.009-0.002c-0.001-0.001-0.001-0.001-0.002-0.002v0c-0.7-0.701-1.401-1.402-2.101-2.101 1.829-2.106 2.945-4.848 2.945-7.85 0-6.616-5.381-11.997-11.997-11.997zM11.997 1.701c5.697 0 10.296 4.599 10.296 10.296s-4.599 10.296-10.296 10.296c-5.697 0-10.296-4.599-10.296-10.296s4.599-10.296 10.296-10.296z"></path>
</svg>
