<!-- Generated by IcoMoon.io -->
<svg version="1.1" xmlns="http://www.w3.org/2000/svg" width="32" height="32" viewBox="0 0 32 32">
<title>search-r</title>
<path d="M11.996 0c-6.607 0-11.996 5.388-11.996 11.996s5.388 11.996 11.996 11.996c2.765 0 5.309-0.953 7.341-2.534 0.685 0.684 1.369 1.37 2.054 2.056 0.072 0.072 0.151 0.136 0.236 0.192l0.006 0.003c0.021 0.532 0.247 1.007 0.601 1.353v0c2.107 2.105 4.213 4.212 6.32 6.32 0.365 0.381 0.878 0.619 1.446 0.619 1.104 0 2-0.895 2-2 0-0.567-0.236-1.079-0.616-1.443l-0.001-0.001c-2.107-2.109-4.214-4.216-6.322-6.322-0.346-0.354-0.822-0.581-1.351-0.601h-0.004c-0.059-0.090-0.123-0.169-0.193-0.24v0c-0.685-0.687-1.37-1.371-2.056-2.056 1.582-2.032 2.534-4.576 2.534-7.341 0-6.607-5.388-11.996-11.996-11.996zM11.996 2.999c4.987 0 8.997 4.010 8.997 8.997s-4.010 8.997-8.997 8.997c-4.987 0-8.997-4.010-8.997-8.997s4.010-8.997 8.997-8.997z"></path>
</svg>
