<!-- Generated by IcoMoon.io -->
<svg version="1.1" xmlns="http://www.w3.org/2000/svg" width="32" height="32" viewBox="0 0 32 32">
<title>search-s</title>
<path d="M12.001 0c-6.603 0-12.001 5.398-12.001 12.001s5.399 12.001 12.001 12.001c2.673 0 5.139-0.896 7.139-2.387 0.672 0.671 1.344 1.343 2.016 2.016 0.057 0.059 0.119 0.113 0.183 0.163l0.004 0.003c0 0.012 0 0.026 0 0.041 0 0.701 0.289 1.334 0.754 1.787h0.001c1.874 1.872 3.746 3.747 5.62 5.621 0.454 0.465 1.087 0.754 1.787 0.754 1.378 0 2.495-1.117 2.495-2.495 0-0.7-0.288-1.333-0.752-1.786v0c-1.874-1.876-3.747-3.75-5.622-5.623-0.454-0.466-1.088-0.756-1.789-0.756-0.001 0-0.001 0-0.002 0v0c-0.019 0.001-0.031 0.002-0.044 0.002h0.007c-0.052-0.067-0.106-0.127-0.164-0.183v0c-0.673-0.674-1.345-1.346-2.018-2.018 1.491-2 2.387-4.466 2.387-7.139 0-6.602-5.399-12.001-12.001-12.001zM12.001 4.299c4.279 0 7.702 3.423 7.702 7.702s-3.423 7.702-7.702 7.702c-4.279 0-7.702-3.423-7.702-7.702s3.423-7.702 7.702-7.702z"></path>
</svg>
