<!-- Generated by IcoMoon.io -->
<svg version="1.1" xmlns="http://www.w3.org/2000/svg" width="32" height="32" viewBox="0 0 32 32">
<title>share-s</title>
<path d="M26 0c-3.296 0-6 2.704-6 6 0 0.596 0.092 1.17 0.256 1.715-3.131 1.595-6.264 3.191-9.396 4.787-1.093-1.511-2.866-2.502-4.859-2.502-3.296 0-6 2.704-6 6s2.704 6 6 6c1.995 0 3.768-0.993 4.861-2.506 3.132 1.595 6.264 3.191 9.395 4.787-0.165 0.546-0.256 1.122-0.256 1.719 0 3.296 2.704 6 6 6s6-2.704 6-6c0-3.296-2.704-6-6-6-1.621 0-3.096 0.656-4.18 1.713-3.287-1.677-6.575-3.352-9.863-5.027 0.026-0.225 0.043-0.454 0.043-0.686 0-0.233-0.017-0.463-0.043-0.689 3.288-1.676 6.575-3.351 9.861-5.025 1.084 1.058 2.56 1.715 4.182 1.715 3.296 0 6-2.704 6-6s-2.704-6-6-6z"></path>
</svg>
