<!-- Generated by IcoMoon.io -->
<svg version="1.1" xmlns="http://www.w3.org/2000/svg" width="28" height="32" viewBox="0 0 28 32">
<title>shield-r</title>
<path d="M14.093 0c-1.268 0.009-2.533 0.067-3.791 0.17-0.011 0.003-0.014 0.003-0.017 0.004l0.009-0.002c-1.017 0.089-2.031 0.207-3.039 0.354-0.957 0.136-1.697 0.957-1.735 1.923-0.045 0.95-0.305 1.902-0.747 2.746 0.002-0.004 0.001-0.002-0.001 0.001l-0.003 0.007c-0.187 0.364-0.408 0.671-0.614 0.874-0.002 0.002-0.004 0.004-0.006 0.006v0c-0.196 0.196-0.409 0.311-0.522 0.34-0.001 0-0.001 0-0.002 0s-0.001 0-0.002 0v0c-0.117 0.031-0.361 0.005-0.483-0.059l0.014 0.008c-0.582-0.315-1.284-0.326-1.878-0.023-0.587 0.3-0.988 0.87-1.087 1.505 0 0.001 0 0.001 0 0.002s0 0.001 0 0.002v0c-0.395 2.607-0.128 5.154 0.358 7.567 0 0.003-0.002 0.013-0.002 0.016v0.004c0 0.001 0 0.001 0 0.002s0 0.001 0 0.002v0c0 0.155 0.018 0.266 0.039 0.367-0.001 0.020-0.007-0.020 0.014 0.076 0.921 4.265 2.921 8.362 6.133 11.501 0.001 0.001 0.002 0.002 0.002 0.002v0c1.901 1.85 4.125 3.357 6.543 4.44 0.269 0.123 0.538 0.154 0.786 0.158 0.319 0.024 0.654-0.005 0.973-0.145 0.012-0.004 0.015-0.006 0.018-0.007l-0.008 0.003c2.42-1.088 4.642-2.597 6.541-4.45 3.232-3.155 5.238-7.279 6.152-11.573 0.539-2.534 0.813-5.226 0.399-7.964 0-0.001 0-0.001 0-0.002s0-0.001 0-0.002v0c-0.101-0.653-0.514-1.206-1.102-1.499-0.583-0.293-1.278-0.283-1.841 0.004-0.016 0.008-0.025 0.012-0.034 0.017l0.007-0.003c-0.1 0.054-0.339 0.084-0.463 0.051 0.006 0.001 0.003 0.001 0.001 0l-0.009-0.002c-0.111-0.029-0.332-0.145-0.534-0.344-0.196-0.193-0.409-0.497-0.61-0.877v-0.002c0 0-0.002-0.002-0.002-0.002-0.437-0.844-0.696-1.797-0.741-2.746l-0.002-0.008c-0.042-0.972-0.778-1.777-1.731-1.915h-0.002c-1.009-0.147-2.023-0.265-3.041-0.354 0.007 0.002 0.005 0.001 0.003 0.001l-0.009-0.003c-1.253-0.103-2.518-0.16-3.78-0.17-0.018 0 0.009 0-0.008 0-0.085-0.001 0.010 0.002-0.039 0.004-0.029-0.002-0.063-0.004-0.098-0.004v0c-0.001 0-0.003 0-0.005 0s-0.003 0-0.005 0v0zM14 2.504c0.034 0.002 0.022 0.001 0.072 0.004 0.029 0.002 0.063 0.004 0.097 0.004 0.024 0 0.047-0.001 0.070-0.002h-0.003c0.096-0.006 0.096-0.005 0.135-0.006 1.15 0.013 2.306 0.066 3.453 0.16 0.868 0.076 1.734 0.18 2.595 0.301 0.11 1.176 0.37 2.342 0.913 3.387 0.003 0.011 0.004 0.013 0.005 0.015l-0.003-0.009c0.279 0.531 0.614 1.049 1.071 1.499 0.45 0.444 0.995 0.81 1.661 0.983 0.548 0.145 1.082-0.041 1.614-0.19 0.269 2.202 0.083 4.439-0.387 6.649-0.826 3.883-2.633 7.551-5.454 10.305-1.645 1.606-3.578 2.912-5.671 3.875-2.097-0.958-4.037-2.268-5.691-3.877-2.797-2.734-4.591-6.368-5.425-10.215v-0.012c0-0.001 0-0.002 0-0.003 0-0.089-0.009-0.175-0.027-0.259l0.001 0.008c-0.448-2.163-0.637-4.332-0.379-6.467 0.529 0.148 1.060 0.333 1.616 0.186 0.663-0.174 1.207-0.541 1.653-0.987 0.445-0.439 0.793-0.954 1.075-1.501 0.547-1.045 0.804-2.21 0.915-3.385 0.863-0.121 1.729-0.227 2.599-0.303 1.164-0.095 2.329-0.149 3.494-0.16zM14.404 5.851c-0.85 0.006-1.7 0.046-2.546 0.115-0.684 0.060-1.366 0.139-2.044 0.238-0.255 0.036-0.447 0.248-0.457 0.506-0.036 0.783-0.246 1.561-0.61 2.255-0.162 0.314-0.358 0.599-0.582 0.821-0.222 0.222-0.483 0.387-0.75 0.457-0.311 0.083-0.669 0.038-0.954-0.111-0.152-0.083-0.337-0.085-0.492-0.006s-0.261 0.229-0.287 0.401c-0.258 1.703-0.082 3.402 0.258 5.046v0.010c-0.003 0.009-0.004 0.021-0.004 0.033v0.004c0 0.030 0.005 0.063 0.012 0.094 0.001 0.006 0 0.014 0.002 0.020 0.001 0.004 0.003 0.006 0.004 0.010 0.603 2.796 1.91 5.461 3.981 7.485 1.237 1.204 2.686 2.186 4.26 2.89 0.073 0.034 0.149 0.045 0.227 0.043 0.010 0.001 0.020-0.005 0.029-0.004v-20.299c-0.003 0-0.005 0-0.008 0-0.013-0.001-0.024-0.006-0.037-0.006zM26.359 8.57l-0.027 0.016c-0.027 0.014-0.066-0.008-0.098 0 0.040-0.019 0.086 0.006 0.125-0.016zM0.554 15.373c0 0.005 0 0.013 0 0.018l-0.002-0.006z"></path>
</svg>
