<!-- Generated by IcoMoon.io -->
<svg version="1.1" xmlns="http://www.w3.org/2000/svg" width="28" height="32" viewBox="0 0 28 32">
<title>shield-s</title>
<path d="M14.093 0c-1.268 0.009-2.533 0.069-3.791 0.172-0.011 0.003-0.014 0.003-0.017 0.004l0.009-0.002c-1.017 0.089-2.031 0.207-3.039 0.354-0.957 0.136-1.697 0.957-1.735 1.923-0.045 0.95-0.305 1.902-0.747 2.746 0.002-0.004 0.001-0.002-0.001 0.001l-0.003 0.007c-0.187 0.363-0.408 0.671-0.614 0.874-0.002 0.002-0.004 0.004-0.006 0.006v0c-0.196 0.196-0.409 0.311-0.522 0.34-0.001 0-0.001 0-0.002 0s-0.001 0-0.002 0v0c-0.117 0.031-0.361 0.005-0.483-0.059l0.016 0.008c-0.582-0.315-1.286-0.326-1.88-0.023-0.587 0.3-0.988 0.87-1.087 1.505 0 0.001 0 0.001 0 0.002s0 0.001 0 0.002v0c-0.395 2.606-0.128 5.153 0.358 7.567 0 0.003-0.002 0.013-0.002 0.016v0.004c0 0.001 0 0.001 0 0.002s0 0.001 0 0.002v0c0 0.155 0.018 0.266 0.039 0.367-0.001 0.020-0.007-0.020 0.014 0.076 0.921 4.265 2.921 8.362 6.132 11.5 0.001 0.001 0.002 0.002 0.002 0.002v0c1.9 1.849 4.12 3.355 6.537 4.438 0 0 0.002 0 0.002 0 0.271 0.125 0.541 0.156 0.79 0.16 0.319 0.024 0.654-0.005 0.973-0.145 0.012-0.004 0.015-0.006 0.018-0.007l-0.008 0.003c2.42-1.088 4.642-2.597 6.541-4.45 3.232-3.155 5.238-7.279 6.152-11.573 0.539-2.533 0.815-5.225 0.401-7.963-0.004-0.008-0.005-0.010-0.005-0.011l0.003 0.007c-0.101-0.653-0.512-1.206-1.1-1.499-0.584-0.294-1.279-0.284-1.843 0.004-0.016 0.008-0.025 0.012-0.034 0.017l0.007-0.003c-0.1 0.054-0.339 0.084-0.463 0.051 0.006 0.001 0.003 0.001 0.001 0l-0.009-0.002c-0.111-0.029-0.332-0.145-0.534-0.344-0.195-0.193-0.409-0.497-0.61-0.877v-0.002c0 0-0.002-0.002-0.002-0.002-0.437-0.844-0.696-1.797-0.741-2.746-0.038-0.976-0.779-1.785-1.735-1.923-1.008-0.147-2.024-0.265-3.041-0.354 0.007 0.002 0.005 0.001 0.003 0.001l-0.009-0.003c-1.259-0.103-2.529-0.163-3.797-0.172l0.018 0.002c-0.11-0.002 0.012 0.001-0.047 0.004-0.032-0.003-0.069-0.005-0.107-0.006h-0.001zM14.37 2.505c1.15 0.013 2.305 0.066 3.453 0.16 0.869 0.076 1.733 0.182 2.595 0.303 0.11 1.175 0.37 2.34 0.913 3.385 0.003 0.011 0.004 0.013 0.005 0.015l-0.003-0.009c0.279 0.531 0.614 1.049 1.071 1.499 0.45 0.443 0.994 0.81 1.659 0.983 0.549 0.145 1.083-0.041 1.616-0.19 0.269 2.202 0.081 4.439-0.389 6.648-0.826 3.883-2.631 7.551-5.452 10.304-1.645 1.606-3.577 2.912-5.671 3.875-0.005-0.002-0.009-0.006-0.014-0.008v-26.96c0.012 0 0.027 0.001 0.041 0.001s0.029 0 0.043-0.001h-0.002c0.096-0.006 0.096-0.005 0.135-0.006zM26.357 8.573l-0.027 0.014c-0.023 0.012-0.057-0.007-0.084 0 0.035-0.017 0.077 0.005 0.111-0.014zM0.554 15.374c0 0.005 0 0.013 0 0.018l-0.002-0.006z"></path>
</svg>
