<!-- Generated by IcoMoon.io -->
<svg version="1.1" xmlns="http://www.w3.org/2000/svg" width="32" height="32" viewBox="0 0 32 32">
<title>sun-s</title>
<path d="M16 0c-0.912 0-1.65 0.738-1.65 1.65v1.652c0 0.912 0.738 1.65 1.65 1.65s1.65-0.738 1.65-1.65v-1.652c0-0.912-0.738-1.65-1.65-1.65zM5.854 4.203c-0.422 0-0.844 0.162-1.166 0.484-0.645 0.645-0.645 1.689 0 2.334l1.166 1.168c0.645 0.645 1.691 0.645 2.336 0s0.645-1.691 0-2.336l-1.168-1.166c-0.322-0.322-0.745-0.484-1.168-0.484zM26.146 4.203c-0.422 0-0.846 0.162-1.168 0.484l-1.168 1.166c-0.645 0.645-0.645 1.691 0 2.336s1.691 0.645 2.336 0l1.166-1.168c0.645-0.645 0.645-1.689 0-2.334-0.322-0.322-0.744-0.484-1.166-0.484zM16 8c-4.418 0-8 3.582-8 8s3.582 8 8 8c4.418 0 8-3.582 8-8s-3.582-8-8-8zM1.65 14.35c-0.912 0-1.65 0.738-1.65 1.65s0.738 1.65 1.65 1.65h1.652c0.912 0 1.65-0.738 1.65-1.65s-0.738-1.65-1.65-1.65h-1.652zM28.697 14.35c-0.912 0-1.65 0.738-1.65 1.65s0.738 1.65 1.65 1.65h1.652c0.912 0 1.65-0.738 1.65-1.65s-0.738-1.65-1.65-1.65h-1.652zM7.021 23.328c-0.422 0-0.846 0.16-1.168 0.482l-1.166 1.168c-0.645 0.645-0.645 1.689 0 2.334s1.689 0.645 2.334 0l1.168-1.166c0.645-0.645 0.645-1.691 0-2.336-0.322-0.322-0.745-0.482-1.168-0.482zM24.979 23.328c-0.422 0-0.846 0.16-1.168 0.482-0.645 0.645-0.645 1.691 0 2.336l1.168 1.166c0.645 0.645 1.689 0.645 2.334 0s0.645-1.689 0-2.334l-1.166-1.168c-0.322-0.322-0.745-0.482-1.168-0.482zM16 27.047c-0.912 0-1.65 0.738-1.65 1.65v1.652c0 0.912 0.738 1.65 1.65 1.65s1.65-0.738 1.65-1.65v-1.652c0-0.912-0.738-1.65-1.65-1.65z"></path>
</svg>
