<!-- Generated by IcoMoon.io -->
<svg version="1.1" xmlns="http://www.w3.org/2000/svg" width="28" height="32" viewBox="0 0 28 32">
<title>switch-l</title>
<path d="M13.15 0c0.001 5.332 0.001 10.666 0 16h1.699c0.001-5.334 0.001-10.668 0-16zM18.244 4.662c0 0.601 0 1.202 0 1.803 4.703 1.727 8.057 6.226 8.057 11.535 0 6.803-5.498 12.301-12.301 12.301s-12.301-5.498-12.301-12.301c0-5.306 3.351-9.805 8.051-11.533 0-0.601 0-1.202 0-1.803-5.649 1.803-9.75 7.096-9.75 13.336 0 7.722 6.278 14 14 14s14-6.278 14-14c0-6.242-4.104-11.537-9.756-13.338z"></path>
</svg>
