<!-- Generated by IcoMoon.io -->
<svg version="1.1" xmlns="http://www.w3.org/2000/svg" width="32" height="32" viewBox="0 0 32 32">
<title>sync-s</title>
<path d="M32 0l-4.313 4.313c-4.673-4.239-11.403-5.48-17.314-3.098-6.262 2.523-10.373 8.612-10.373 15.363h4.299c0-5.010 3.033-9.502 7.68-11.375 4.322-1.742 9.209-0.881 12.666 2.152l-4.367 4.367h11.723v-11.723zM27.701 15.422c0 5.010-3.033 9.502-7.68 11.375-4.322 1.742-9.209 0.881-12.666-2.152l4.367-4.367h-11.723v11.723l4.313-4.313c4.673 4.239 11.403 5.48 17.314 3.098 6.262-2.523 10.373-8.612 10.373-15.363h-4.299z"></path>
</svg>
