<!-- Generated by IcoMoon.io -->
<svg version="1.1" xmlns="http://www.w3.org/2000/svg" width="32" height="32" viewBox="0 0 32 32">
<title>sync-l</title>
<path d="M16.596 0.001c-2.055 0.019-4.126 0.415-6.105 1.213-6.336 2.554-10.49 8.705-10.49 15.537h1.701c0-6.143 3.727-11.664 9.424-13.961 5.589-2.253 11.957-0.947 16.219 3.282l-3.455 3.454h8.111v-8.11l-3.455 3.454c-3.23-3.207-7.552-4.908-11.949-4.868zM30.301 15.251c0 6.143-3.729 11.664-9.426 13.961-5.589 2.253-11.957 0.947-16.219-3.282l3.455-3.454h-8.111v8.11l3.455-3.454c4.739 4.705 11.84 6.16 18.057 3.655 6.336-2.554 10.488-8.705 10.488-15.537z"></path>
</svg>
