<!-- Generated by IcoMoon.io -->
<svg version="1.1" xmlns="http://www.w3.org/2000/svg" width="27" height="32" viewBox="0 0 27 32">
<title>tablet-r</title>
<path d="M4.219 0c-2.313 0-4.219 1.905-4.219 4.219v23.563c0 2.313 1.905 4.219 4.219 4.219h18.125c2.313 0 4.219-1.905 4.219-4.219v-23.563c0-2.313-1.905-4.219-4.219-4.219zM4.219 3h18.125c0.677 0 1.219 0.542 1.219 1.219v23.563c0 0.677-0.542 1.219-1.219 1.219h-18.125c-0.677 0-1.219-0.542-1.219-1.219v-23.563c0-0.677 0.542-1.219 1.219-1.219zM13.281 23.791c-0.828 0-1.5 0.672-1.5 1.5s0.672 1.5 1.5 1.5c0.828 0 1.5-0.672 1.5-1.5s-0.672-1.5-1.5-1.5z"></path>
</svg>
