<!-- Generated by IcoMoon.io -->
<svg version="1.1" xmlns="http://www.w3.org/2000/svg" width="26" height="32" viewBox="0 0 26 32">
<title>tablet-l</title>
<path d="M3.691 0c-2.026 0-3.691 1.665-3.691 3.691v24.617c0 2.026 1.665 3.691 3.691 3.691h18.938c2.026 0 3.691-1.665 3.691-3.691v-24.617c0-2.026-1.665-3.691-3.691-3.691zM3.691 1.699h18.938c1.099 0 1.99 0.893 1.99 1.992v24.617c0 1.099-0.891 1.992-1.99 1.992h-18.938c-1.099 0-1.99-0.893-1.99-1.992v-24.617c0-1.099 0.891-1.992 1.99-1.992zM13.16 25.49c-0.69 0-1.25 0.56-1.25 1.25s0.56 1.25 1.25 1.25c0.69 0 1.25-0.56 1.25-1.25s-0.56-1.25-1.25-1.25z"></path>
</svg>
