<!-- Generated by IcoMoon.io -->
<svg version="1.1" xmlns="http://www.w3.org/2000/svg" width="32" height="32" viewBox="0 0 32 32">
<title>truck-l</title>
<path d="M3.373 3c-1.854 0-3.373 1.519-3.373 3.373v1.24h0.002v13.805l1.975 1.977h1.859c-0.049 0.268-0.082 0.541-0.082 0.822 0 2.553 2.088 4.641 4.641 4.641s4.639-2.088 4.639-4.641c0-0.282-0.033-0.554-0.082-0.822h7.484c-0.049 0.268-0.082 0.541-0.082 0.822 0 2.553 2.088 4.641 4.641 4.641s4.641-2.088 4.641-4.641c0-0.282-0.033-0.554-0.082-0.822h2.447v-5.936l-3.963-9.008h-6.070l-0.006-1.689v-0.389c0-1.852-1.515-3.373-3.369-3.373zM3.373 4.699h15.219c0.94 0 1.67 0.732 1.67 1.674v0.393l0.010 3.385h6.656l3.373 7.668v3.877h-1.424c-0.705-1.079-1.846-1.839-3.168-2.047-0.233-0.042-0.47-0.072-0.715-0.072h-0.002c-0.245 0-0.483 0.030-0.717 0.072-1.32 0.209-2.46 0.969-3.164 2.047h-8.836c-0.704-1.079-1.844-1.839-3.166-2.047-0.233-0.042-0.47-0.072-0.715-0.072h-0.002c-0.245 0-0.483 0.030-0.717 0.072-1.32 0.209-2.46 0.969-3.164 2.047h-1.832l-0.978-0.98v-14.346c0.002-0.938 0.733-1.67 1.672-1.67zM21.689 11.568c-0.182 0.004-0.348 0.072-0.476 0.182l0.001-0.001c-0.016 0.013-0.030 0.026-0.043 0.039v0c-0.006 0.005-0.010 0.009-0.015 0.012l0.001-0.001c-0.006 0.007-0.013 0.014-0.019 0.021l-0.001 0.001c-0.009 0.010-0.019 0.021-0.028 0.032l-0.001 0.001c0-0.001-0.001 0.001-0.002 0.003l-0.002 0.003c-0.102 0.127-0.164 0.291-0.164 0.469 0 0.043 0.004 0.086 0.011 0.128l-0.001-0.004c0.001 1.711 0 4.906 0 4.906s0 0 0 0c0 0.414 0.336 0.75 0.75 0.75 0 0 0 0 0 0h5.99c0.414 0 0.749-0.336 0.749-0.75 0-0.123-0.029-0.238-0.081-0.34l0.002 0.004-2.516-5.029c-0.126-0.247-0.378-0.414-0.67-0.414h-3.354c-0.040-0.007-0.085-0.012-0.132-0.012 0 0-0.001 0-0.001 0v0zM22.451 13.080h2.262l1.764 3.529h-4.025c0-0.623 0-2.080 0-3.529zM8.395 21.277c0.183 0 0.36 0.021 0.533 0.053 0.047 0.009 0.093 0.018 0.139 0.029 0.13 0.030 0.255 0.071 0.377 0.117 0.045 0.017 0.091 0.031 0.135 0.051 0.139 0.060 0.27 0.133 0.396 0.213 0.068 0.044 0.131 0.093 0.195 0.143 0.062 0.047 0.122 0.095 0.18 0.146 0.067 0.060 0.134 0.121 0.195 0.188 0.043 0.046 0.080 0.096 0.119 0.145 0.106 0.131 0.201 0.272 0.285 0.422 0.053 0.094 0.112 0.185 0.154 0.285l0.002 0.006c0.146 0.351 0.229 0.736 0.229 1.143 0 1.634-1.306 2.939-2.939 2.939s-2.941-1.306-2.941-2.939c0-0.398 0.081-0.776 0.223-1.121l0.064-0.135c0.014-0.030 0.032-0.057 0.047-0.086 0.12-0.233 0.268-0.45 0.439-0.639 0.074-0.081 0.152-0.155 0.234-0.227 0.043-0.038 0.089-0.072 0.135-0.107 0.074-0.057 0.148-0.116 0.227-0.166 0.124-0.078 0.251-0.15 0.387-0.209 0.051-0.022 0.104-0.037 0.156-0.057 0.111-0.041 0.223-0.078 0.34-0.105 0.054-0.013 0.109-0.027 0.164-0.037 0.171-0.030 0.345-0.051 0.525-0.051zM24.994 21.277c0.183 0 0.36 0.021 0.533 0.053 0.047 0.009 0.093 0.018 0.139 0.029 0.13 0.030 0.255 0.071 0.377 0.117 0.045 0.017 0.091 0.031 0.135 0.051 0.139 0.060 0.27 0.133 0.396 0.213 0.068 0.044 0.131 0.093 0.195 0.143 0.062 0.047 0.122 0.095 0.18 0.146 0.067 0.060 0.134 0.121 0.195 0.188 0.043 0.046 0.080 0.096 0.119 0.145 0.106 0.131 0.201 0.272 0.285 0.422 0.053 0.094 0.112 0.185 0.154 0.285l0.002 0.006c0.146 0.351 0.229 0.736 0.229 1.143 0 1.634-1.306 2.939-2.939 2.939s-2.939-1.306-2.939-2.939c0-0.403 0.082-0.785 0.227-1.133l0.039-0.078c0.027-0.061 0.062-0.117 0.094-0.176 0.101-0.188 0.22-0.363 0.355-0.521 0.023-0.027 0.043-0.056 0.066-0.082 0.069-0.075 0.141-0.142 0.217-0.209 0.048-0.042 0.098-0.082 0.148-0.121 0.072-0.056 0.144-0.112 0.221-0.16 0.123-0.078 0.252-0.15 0.387-0.209 0.051-0.022 0.104-0.037 0.156-0.057 0.111-0.041 0.223-0.078 0.34-0.105 0.054-0.013 0.109-0.027 0.164-0.037 0.171-0.030 0.345-0.051 0.525-0.051z"></path>
</svg>
