<!-- Generated by IcoMoon.io -->
<svg version="1.1" xmlns="http://www.w3.org/2000/svg" width="32" height="32" viewBox="0 0 32 32">
<title>truck-r</title>
<path d="M3.707 3.5c-2.032 0-3.707 1.673-3.707 3.705v1.631h0.002v13.191l2.17 2.172h2.189c0 0.024-0.008 0.046-0.008 0.070 0 2.228 1.813 4.041 4.041 4.041s4.039-1.813 4.039-4.041c0-0.024-0.007-0.046-0.008-0.070h8.535c0 0.024-0.008 0.046-0.008 0.070 0 2.228 1.813 4.041 4.041 4.041s4.039-1.813 4.039-4.041c0-0.024-0.007-0.046-0.008-0.070h2.975v-6.289l-4.006-9.104h-5.764l-0.004-1.223v-0.379c0-2.030-1.671-3.705-3.703-3.705zM3.707 5.998h14.816c0.688 0 1.203 0.516 1.203 1.207v0.383l0.012 3.719h6.625l3.137 7.129v3.266h-1.414c-0.741-0.892-1.844-1.473-3.092-1.473s-2.352 0.581-3.094 1.473h-10.414c-0.741-0.892-1.844-1.473-3.092-1.473s-2.352 0.581-3.094 1.473h-2.094l-0.705-0.707v-13.793c0.002-0.686 0.518-1.203 1.205-1.203zM21.701 12.982v5.029h5.99l-2.516-5.029z"></path>
</svg>
