<!-- Generated by IcoMoon.io -->
<svg version="1.1" xmlns="http://www.w3.org/2000/svg" width="32" height="32" viewBox="0 0 32 32">
<title>tv-l</title>
<path d="M8.553 0l-1.203 1.201 6.42 6.42c-3.936 0.085-7.867 0.382-11.768 0.912l-0.572 0.076-0.139 0.561c-0.857 3.47-1.291 7.043-1.291 10.617s0.434 7.147 1.291 10.617l0.139 0.559 0.572 0.080c4.637 0.637 9.317 0.957 13.998 0.957s9.361-0.32 13.998-0.957l0.572-0.080 0.139-0.559c0.857-3.47 1.291-7.043 1.291-10.617s-0.434-7.147-1.291-10.617l-0.139-0.561-0.572-0.076c-3.593-0.488-7.213-0.784-10.838-0.895l5.49-5.49-1.203-1.201-6.645 6.645 0.014 0.014c-0.238-0.002-0.477-0.006-0.715-0.006l0.025-0.025-7.574-7.574zM15.061 9.289c4.713-0.043 9.429 0.26 14.104 0.867 0.733 3.156 1.137 6.391 1.137 9.631 0 3.234-0.402 6.463-1.133 9.613-4.365 0.574-8.765 0.9-13.168 0.9s-8.803-0.327-13.168-0.9c-0.731-3.151-1.133-6.379-1.133-9.613s0.402-6.463 1.133-9.613c4.055-0.527 8.139-0.847 12.229-0.885zM16 11.367c-3.738 0-7.295 0.229-10.521 0.641l-0.555 0.072-0.154 0.537c-0.634 2.204-0.982 4.629-0.982 7.176s0.349 4.971 0.982 7.176l0.154 0.537 0.555 0.072c3.227 0.412 6.784 0.641 10.521 0.641s7.295-0.229 10.521-0.641l0.555-0.072 0.154-0.537c0.634-2.204 0.982-4.629 0.982-7.176s-0.351-4.972-0.984-7.176l-0.154-0.537-0.555-0.072c-3.226-0.412-6.782-0.641-10.52-0.641zM16 13.068c3.444 0 6.68 0.231 9.674 0.588 0.497 1.906 0.84 3.95 0.84 6.137s-0.343 4.231-0.84 6.137c-2.995 0.357-6.23 0.588-9.674 0.588s-6.679-0.231-9.674-0.588c-0.497-1.906-0.84-3.949-0.84-6.137s0.343-4.231 0.84-6.137c2.994-0.357 6.23-0.588 9.674-0.588z"></path>
</svg>
