<!-- Generated by IcoMoon.io -->
<svg version="1.1" xmlns="http://www.w3.org/2000/svg" width="32" height="32" viewBox="0 0 32 32">
<title>tv-r</title>
<path d="M8.553 0l-1.203 1.201 6.227 6.227c-3.767 0.090-7.528 0.376-11.262 0.883l-0.842 0.115-0.203 0.824c-0.843 3.411-1.27 6.924-1.27 10.438s0.427 7.026 1.27 10.438l0.203 0.824 0.84 0.115c4.534 0.623 9.111 0.936 13.688 0.936s9.154-0.312 13.688-0.936l0.84-0.115 0.203-0.824c0.843-3.411 1.27-6.924 1.27-10.438s-0.427-7.026-1.27-10.438l-0.203-0.824-0.842-0.115c-3.428-0.466-6.88-0.746-10.338-0.859l5.303-5.303-1.203-1.201-6.461 6.461c-0.345-0.003-0.69-0.010-1.035-0.010l-7.398-7.398zM15.090 9.889c4.468-0.041 8.936 0.249 13.369 0.811 0.663 2.95 1.041 5.965 1.041 8.988 0 3.014-0.378 6.020-1.037 8.961-4.134 0.53-8.295 0.852-12.463 0.852s-8.329-0.321-12.463-0.852c-0.659-2.941-1.037-5.947-1.037-8.961 0-3.015 0.378-6.022 1.037-8.965 3.833-0.486 7.689-0.799 11.553-0.834zM16 12.359c-3.585 0-6.995 0.219-10.080 0.613-0.591 2.057-0.92 4.331-0.92 6.721s0.329 4.662 0.92 6.719c3.086 0.394 6.495 0.613 10.080 0.613s6.994-0.219 10.080-0.613c0.591-2.057 0.92-4.329 0.92-6.719s-0.329-4.664-0.92-6.721c-3.085-0.394-6.495-0.613-10.080-0.613z"></path>
</svg>
