<!-- Generated by IcoMoon.io -->
<svg version="1.1" xmlns="http://www.w3.org/2000/svg" width="32" height="32" viewBox="0 0 32 32">
<title>usb-drive-r</title>
<path d="M4.791 7.5c-2.593 0-4.791 2.021-4.791 4.584v7.529c0 2.566 2.2 4.576 4.791 4.576h18.020c0.001 0 0.003 0 0.004 0s0.003 0 0.004 0v0c0.796-0.008 1.443-0.663 1.439-1.461v-0.295h6.281c0.001 0 0.003 0 0.004 0s0.003 0 0.004 0v0c0.798-0.003 1.456-0.658 1.453-1.463v-10.252c0.003-0.81-0.666-1.466-1.469-1.463h-6.273v-0.295c0.003-0.798-0.643-1.455-1.439-1.461-0.001 0-0.003 0-0.004 0s-0.003 0-0.004 0v0zM4.791 10.416h16.557v10.857h-16.557c-1.139 0-1.891-0.763-1.891-1.66v-7.529c0-0.89 0.755-1.668 1.891-1.668zM25.969 11.965h1.336c0.384 0 0.703 0.315 0.703 0.701v1.174c0 0.377-0.314 0.701-0.703 0.701h-1.336c-0.382 0-0.693-0.316-0.693-0.701v-1.174c0-0.376 0.301-0.701 0.693-0.701zM25.969 17.146h1.336c0.382 0 0.703 0.315 0.703 0.701v1.174c0 0.376-0.311 0.701-0.703 0.701h-1.336c-0.385 0-0.693-0.316-0.693-0.701v-1.174c0-0.375 0.304-0.701 0.693-0.701z"></path>
</svg>
