<!-- Generated by IcoMoon.io -->
<svg version="1.1" xmlns="http://www.w3.org/2000/svg" width="58" height="32" viewBox="0 0 58 32">
<title>users-l</title>
<path d="M28.81 0c-4.452 0-8.084 3.626-8.084 8.078 0 4.457 3.632 8.083 8.084 8.083s8.084-3.627 8.084-8.084c0-4.453-3.632-8.078-8.084-8.078zM28.81 1.699c3.533 0 6.384 2.845 6.384 6.379 0 3.538-2.852 6.384-6.384 6.384s-6.382-2.846-6.382-6.384c0-3.532 2.85-6.379 6.382-6.379zM10.811 3.359c-3.554 0-6.455 2.897-6.455 6.451 0 3.558 2.901 6.457 6.455 6.457s6.457-2.899 6.457-6.457c0-3.555-2.903-6.451-6.457-6.451zM46.809 3.359c-3.554 0-6.455 2.897-6.455 6.451 0 3.558 2.901 6.457 6.455 6.457s6.457-2.899 6.457-6.457c0-3.555-2.903-6.451-6.457-6.451zM10.811 4.968c2.684 0 4.847 2.156 4.847 4.841 0 2.688-2.163 4.847-4.847 4.847s-4.845-2.158-4.845-4.847c0-2.684 2.161-4.841 4.845-4.841zM46.809 4.968c2.684 0 4.847 2.156 4.847 4.841 0 2.688-2.163 4.847-4.847 4.847s-4.845-2.158-4.845-4.847c0-2.684 2.161-4.841 4.845-4.841zM14.67 16.743c-0.772 0.021-1.542 0.196-2.252 0.539l-0.004 0.002-0.016 0.008c-0.329 0.161-0.59 0.317-0.795 0.4h0.006l-0.021 0.008-0.004 0.002h-0.002l-0.020 0.008 0.006-0.004c-0.23 0.091-0.477 0.139-0.734 0.139h-0.006l-0.008 0.002c-0.001 0-0.006-0-0.008 0h-0.002c-0.001 0-0.008-0-0.008 0l-0.008-0.002h-0.008c-0.256 0-0.503-0.048-0.732-0.139l0.004 0.004-0.020-0.008h-0.002l-0.004-0.002-0.021-0.008h0.006c-0.205-0.083-0.467-0.238-0.793-0.398l-0.002-0.002c-0.006-0.003-0.009-0.005-0.016-0.008l-0.004-0.002c-0.649-0.313-1.347-0.486-2.053-0.529-0.691-0.042-1.387 0.046-2.051 0.242h-0.143v0.057c-1.293 0.424-2.42 1.246-3.232 2.31-0.769 1.005-1.255 2.179-1.506 3.377-0.25 1.2-0.268 2.42-0.148 3.599 0.028 0.279 0.063 0.648 0.242 1.039 0.15 0.333 0.385 0.621 0.68 0.838 0.295 0.224 0.638 0.366 0.996 0.416l0.055 0.008h8.751c0.002-0 0.009-0.002 0.014-0.002h0.002c0.008 0.001 0.016 0.002 0.027 0.002l4.363-0.002c0.013 0.192 0.022 0.387 0.041 0.578 0.036 0.357 0.080 0.803 0.295 1.273 0.179 0.398 0.459 0.742 0.812 1.002 0.354 0.27 0.764 0.44 1.193 0.5l0.059 0.010h11.173c0.011-0.001 0.020-0.003 0.029-0.004 0 0 0.002 0 0.002 0s0.002 0 0.002 0c0.011 0.001 0.024 0.004 0.037 0.004l11.232-0.010c0.429-0.060 0.839-0.23 1.193-0.5 0.352-0.26 0.633-0.604 0.812-1.002 0.215-0.471 0.259-0.917 0.295-1.273 0.019-0.191 0.028-0.384 0.041-0.576h4.375c0.002-0 0.009-0.002 0.014-0.002h0.002c0.008 0.001 0.016 0.002 0.027 0.002l8.794-0.008c0.358-0.050 0.701-0.192 0.996-0.416l0.002-0.002c0.293-0.217 0.528-0.503 0.678-0.836 0.179-0.392 0.214-0.761 0.242-1.039 0.119-1.18 0.1-2.399-0.15-3.599-0.251-1.198-0.736-2.372-1.506-3.377-0.813-1.065-1.939-1.887-3.232-2.31v-0.057h-0.141c-0.401-0.118-0.817-0.17-1.234-0.203l0.039-0.039-0.326-0.010c-0.11-0.003-0.22-0.003-0.33 0-0.772 0.021-1.542 0.196-2.252 0.539l-0.004 0.002-0.016 0.008c-0.329 0.161-0.59 0.317-0.795 0.4h0.006l-0.021 0.008-0.004 0.002h-0.002l-0.020 0.008 0.006-0.004c-0.23 0.091-0.477 0.139-0.734 0.139h-0.006l-0.008 0.002c-0.001 0-0.006-0-0.008 0h-0.002c-0.001 0-0.008-0-0.008 0l-0.008-0.002h-0.008c-0.256 0-0.503-0.048-0.732-0.139l0.004 0.004-0.020-0.008h-0.002l-0.004-0.002-0.021-0.008h0.006c-0.204-0.083-0.466-0.238-0.793-0.398l-0.002-0.002c-0.006-0.003-0.009-0.005-0.016-0.008l-0.004-0.002c-0.649-0.313-1.347-0.486-2.053-0.529-0.691-0.042-1.387 0.046-2.051 0.242h-0.143v0.057c-0.959 0.314-1.827 0.849-2.543 1.539-0.695-0.493-1.466-0.883-2.291-1.137v-0.002h-0.002c-0.633-0.192-1.292-0.299-1.953-0.318v-0.002c-1.102-0.032-2.212 0.184-3.222 0.672l-0.002 0.002h-0.002c-0.432 0.21-0.775 0.42-1.068 0.537l-0.002 0.002h-0.002c-0.322 0.131-0.671 0.197-1.029 0.197-0.009 0.001-0.018 0.001-0.025 0.002 0 0-0.002 0-0.002 0s-0.002 0-0.002 0c-0.008-0.001-0.018-0.001-0.027-0.002h-0.002c-0.358 0-0.707-0.066-1.029-0.197h-0.002l-0.002-0.002c-0.294-0.117-0.637-0.327-1.068-0.537h-0.002l-0.002-0.002c-0.809-0.39-1.679-0.606-2.56-0.66s-1.771 0.053-2.615 0.309h-0.002v0.002c-0.824 0.254-1.595 0.645-2.29 1.139-0.716-0.691-1.584-1.226-2.545-1.541v-0.057h-0.141c-0.401-0.119-0.817-0.17-1.234-0.203l0.039-0.039-0.326-0.010c-0.11-0.003-0.22-0.003-0.33 0zM6.667 18.354c0.128-0.003 0.255-0 0.383 0.008 0.51 0.031 1.009 0.154 1.457 0.369 0.241 0.118 0.539 0.306 0.926 0.461 0.387 0.157 0.793 0.21 1.187 0.229 0.050 0.014 0.102 0.029 0.158 0.033h0.033c0.005 0 0.015-0.002 0.023-0.002h0.002c0.005-0 0.007 0.001 0.014 0v-0.002c0.003-0 0.004-0.001 0.008-0.002 0.008-0.001 0.017-0.002 0.018-0.002 0.004-0 0.008-0.002 0.012-0.002l0.002-0.002h0.002c0.041-0.005 0.082-0.011 0.121-0.021 0.009-0.003 0.020-0.003 0.029-0.006 0.003-0 0.005-0.002 0.008-0.002 0.001-0 0.003 0 0.004 0 0.379-0.021 0.766-0.070 1.137-0.221 0.388-0.155 0.686-0.343 0.928-0.461 0.893-0.431 1.993-0.49 2.974-0.193 0.696 0.214 1.345 0.606 1.894 1.113-0.234 0.243-0.458 0.494-0.662 0.762-0.966 1.262-1.578 2.739-1.894 4.25-0.163 0.785-0.246 1.578-0.27 2.367h-4.33c0.004 0-0.006-0.002-0.023-0.002-0.005 0-0.015 0.002-0.023 0.002h-8.583c-0.088-0.015-0.174-0.049-0.236-0.096l-0.014-0.012h-0.002c-0.073-0.053-0.131-0.126-0.166-0.205l-0.008-0.023c-0.039-0.090-0.078-0.275-0.102-0.52l-0.002-0.016c-0.105-1.047-0.082-2.095 0.125-3.092 0.208-0.995 0.609-1.946 1.209-2.728v-0.002c0.001-0.001 0.003-0.001 0.004-0.002 0.643-0.841 1.538-1.494 2.521-1.797 0.368-0.111 0.753-0.173 1.137-0.184zM42.664 18.354c0.128-0.003 0.255-0 0.383 0.008 0.51 0.031 1.009 0.154 1.457 0.369 0.241 0.118 0.539 0.306 0.926 0.461 0.387 0.157 0.793 0.21 1.187 0.229 0.050 0.014 0.102 0.029 0.158 0.033h0.033c0.005 0 0.015-0.002 0.023-0.002h0.002c0.005-0 0.007 0.001 0.014 0v-0.002c0.003-0 0.004-0.001 0.008-0.002 0.008-0.001 0.017-0.002 0.018-0.002 0.004-0 0.008-0.002 0.012-0.002l0.002-0.002h0.002c0.041-0.005 0.082-0.011 0.121-0.021 0.009-0.003 0.020-0.003 0.029-0.006 0.003-0 0.005-0.002 0.008-0.002 0.001-0 0.003 0 0.004 0 0.379-0.021 0.766-0.070 1.137-0.221 0.388-0.155 0.686-0.343 0.928-0.461 0.893-0.431 1.993-0.49 2.974-0.193 0.985 0.302 1.88 0.956 2.523 1.797l0.004 0.002v0.002c0.6 0.784 1.001 1.734 1.209 2.728 0.208 0.997 0.228 2.046 0.123 3.094l-0.002 0.014c-0.025 0.247-0.063 0.436-0.102 0.525l-0.008 0.021c-0.036 0.079-0.093 0.149-0.164 0.201h-0.002l-0.014 0.012c-0.061 0.047-0.147 0.081-0.236 0.096h-8.593c0.004 0-0.006-0.002-0.023-0.002-0.005 0-0.015 0.002-0.023 0.002h-4.322c-0.023-0.789-0.106-1.582-0.27-2.367-0.316-1.511-0.927-2.988-1.894-4.25-0.204-0.267-0.428-0.519-0.662-0.762 0.549-0.507 1.198-0.899 1.894-1.113 0.368-0.111 0.753-0.173 1.137-0.184zM38.502 18.657c0.124 0.091 0.245 0.186 0.363 0.283-0.119-0.097-0.239-0.193-0.363-0.283zM19.054 18.706c-0.094 0.070-0.186 0.143-0.277 0.217 0.091-0.074 0.183-0.146 0.277-0.217zM23.5 18.835c0.169-0.005 0.337-0.001 0.506 0.010 0.675 0.041 1.336 0.203 1.932 0.49 0.324 0.158 0.699 0.394 1.178 0.586 0.467 0.19 0.964 0.256 1.459 0.279 0.061 0.021 0.132 0.036 0.205 0.041h0.031c0.010 0 0.021-0.001 0.031-0.002 0.003 0 0.005-0.002 0.008-0.002 0.074-0.005 0.143-0.018 0.209-0.039 0.493-0.024 0.986-0.088 1.451-0.277 0.479-0.192 0.852-0.428 1.176-0.586 1.19-0.574 2.64-0.651 3.939-0.258 1.302 0.4 2.479 1.258 3.324 2.365v0.002c0.787 1.028 1.309 2.268 1.58 3.564 0.272 1.304 0.298 2.671 0.16 4.033h-0.002c-0.033 0.328-0.076 0.586-0.146 0.74l-0.004 0.004-0.002 0.006c-0.059 0.132-0.153 0.248-0.271 0.334l-0.008 0.006-0.008 0.008c-0.107 0.082-0.244 0.135-0.383 0.158h-11.029c-0.009 0-0.019 0-0.029 0s-0.022-0.001-0.033 0h-11.015c-0.138-0.023-0.275-0.076-0.383-0.158l-0.008-0.008-0.008-0.006c-0.118-0.086-0.213-0.202-0.271-0.334l-0.002-0.006-0.004-0.004c-0.071-0.154-0.116-0.412-0.148-0.74h-0.002c-0.138-1.362-0.109-2.729 0.162-4.033 0.271-1.297 0.793-2.537 1.58-3.564v-0.002c0.845-1.107 2.023-1.965 3.324-2.365 0.487-0.147 0.994-0.228 1.502-0.242zM11.024 19.278l0.018 0.092-0.031-0.090c0.005-0 0.009-0.002 0.014-0.002zM47.022 19.278l0.018 0.092-0.031-0.090c0.005-0 0.009-0.002 0.014-0.002zM10.828 19.311c0.002-0 0.004 0 0.006 0v0.102zM46.826 19.311c0.002-0 0.004 0 0.006 0v0.102z"></path>
</svg>
