<!-- Generated by IcoMoon.io -->
<svg version="1.1" xmlns="http://www.w3.org/2000/svg" width="56" height="32" viewBox="0 0 56 32">
<title>users-r</title>
<path d="M28.199 0c-4.435 0-8.070 3.63-8.070 8.066 0 4.44 3.635 8.072 8.070 8.072s8.072-3.632 8.072-8.072c0-4.437-3.637-8.066-8.072-8.066zM28.199 3c2.809 0 5.072 2.257 5.072 5.066 0 2.813-2.263 5.072-5.072 5.072s-5.070-2.258-5.070-5.072c0-2.808 2.261-5.066 5.070-5.066zM10.195 3.309c-3.569 0-6.494 2.922-6.494 6.492 0 3.573 2.925 6.496 6.494 6.496s6.496-2.923 6.496-6.496c0-3.571-2.927-6.492-6.496-6.492zM46.195 3.309c-3.569 0-6.494 2.922-6.494 6.492 0 3.573 2.925 6.496 6.494 6.496s6.496-2.923 6.496-6.496c0-3.571-2.927-6.492-6.496-6.492zM10.195 6.033c2.092 0 3.771 1.675 3.771 3.768 0 2.095-1.679 3.771-3.771 3.771s-3.77-1.675-3.77-3.771c0-2.091 1.677-3.768 3.77-3.768zM46.195 6.033c2.093 0 3.771 1.675 3.772 3.768 0 2.095-1.679 3.771-3.772 3.771s-3.77-1.675-3.77-3.771c0-2.091 1.677-3.768 3.77-3.768zM13.365 16.518c-0.654 0.012-1.287 0.146-1.865 0.426-0.337 0.163-0.574 0.284-0.736 0.367-0.161 0.083-0.258 0.13-0.27 0.135l-0.002 0.004-0.012 0.002c-0.079 0.032-0.148 0.051-0.285 0.051s-0.207-0.019-0.285-0.051h-0.002l-0.023-0.010c-0.021-0.009-0.098-0.049-0.219-0.111-0.128-0.067-0.302-0.157-0.521-0.264-0.61-0.296-1.345-0.459-2.203-0.477-0.8-0.016-1.472 0.092-2.271 0.338-1.153 0.353-2.183 1.177-3.008 2.258-0.76 0.992-1.227 2.131-1.467 3.277l-0.004 0.018v0.004l-0.023 0.115v0.055c-0.173 0.924-0.156 1.83-0.098 2.717l-0.070-0.070 0.053 0.529c0.019 0.195 0.109 0.465 0.17 0.707v0.227l0.135 0.295 0.010 0.010c0.2 0.425 0.5 0.79 0.869 1.063 0.382 0.288 0.832 0.478 1.307 0.543h0.002l0.016 0.004 0.113 0.014h12.814c0.040 0.207 0.124 0.496 0.191 0.771v0.262l0.133 0.291 0.002 0.002c0.237 0.528 0.606 0.977 1.062 1.314 0.458 0.346 0.995 0.572 1.561 0.65l0.018 0.002 0.131 0.016 19.381-0.018c0.566-0.079 1.1-0.304 1.559-0.65 0.456-0.336 0.825-0.784 1.063-1.311 0.001-0.002 0.003-0.004 0.004-0.006l0.131-0.293v-0.26c0.068-0.276 0.151-0.565 0.191-0.771h12.809l0.127-0.016h0.002c0.474-0.066 0.922-0.255 1.305-0.543l0.004-0.004c0.38-0.28 0.687-0.654 0.887-1.094l0.002-0.002 0.002-0.004 0.121-0.27v-0.223c0.061-0.242 0.15-0.509 0.17-0.705v-0.022c0.102-1.021 0.089-2.091-0.113-3.168v-0.043l-0.023-0.115v-0.004l-0.004-0.020c-0.239-1.146-0.708-2.283-1.467-3.275l-0.002-0.002-0.006-0.010-0.012-0.010c-0.826-1.073-1.967-1.922-3.313-2.338l-0.008-0.002-0.193-0.061h-0.189c-0.544-0.138-1.096-0.256-1.639-0.246h-0.008c-0.654 0.012-1.287 0.146-1.865 0.426-0.337 0.163-0.574 0.284-0.736 0.367-0.161 0.083-0.258 0.13-0.27 0.135l-0.002 0.004-0.012 0.002c-0.078 0.032-0.148 0.049-0.285 0.049s-0.207-0.017-0.285-0.049h-0.002l-0.023-0.010c-0.021-0.009-0.098-0.049-0.219-0.111-0.128-0.067-0.302-0.157-0.521-0.264-0.61-0.296-1.345-0.459-2.203-0.477-0.8-0.016-1.472 0.092-2.272 0.338-1.090 0.334-2.067 1.092-2.867 2.086-0.862-0.769-1.881-1.374-3.020-1.725l-0.006-0.002-0.209-0.063h-0.215c-0.706-0.18-1.412-0.328-2.084-0.316h-0.004c-0.809 0.014-1.583 0.178-2.289 0.52-0.858 0.415-1.205 0.613-1.309 0.654h-0.002l-0.010 0.004c-0.127 0.052-0.259 0.080-0.457 0.080s-0.33-0.028-0.457-0.080l-0.010-0.004h-0.002c-0.103-0.041-0.427-0.226-0.982-0.496-0.743-0.361-1.648-0.564-2.718-0.586-1-0.020-1.823 0.113-2.83 0.422-0.943 0.289-1.828 0.844-2.619 1.58-0.814-0.995-1.902-1.781-3.178-2.176l-0.008-0.002-0.193-0.061h-0.189c-0.544-0.138-1.096-0.256-1.639-0.246h-0.002zM13.395 19.301c0.004-0 0.008 0 0.012 0 0.374-0.013 0.822 0.018 1.191 0.131 0.761 0.235 1.463 0.743 1.969 1.406l0.004 0.006c0.088 0.115 0.167 0.237 0.244 0.361 0.196-0.337 0.415-0.663 0.656-0.979 0.115-0.15 0.233-0.295 0.354-0.436-0.121 0.142-0.239 0.285-0.354 0.436-0.947 1.237-1.532 2.659-1.832 4.096v0.004l-0.031 0.148v0.045c-0.093 0.485-0.146 0.968-0.182 1.449h-5.16l-0.084-0.010-0.076 0.010h-7.207c-0.010-0.003-0.021-0.006-0.023-0.008l-0.004-0.004-0.020-0.014-0.002-0.002c-0.010-0.008-0.016-0.017-0.020-0.025l-0.006-0.012-0.002-0.004c-0-0 0-0.004 0-0.004-0.007-0.017-0.035-0.125-0.057-0.326v-0.002l-0.002-0.010c-0.088-0.869-0.069-1.728 0.1-2.537v-0.004l0.002-0.004c0.168-0.8 0.49-1.555 0.961-2.172v-0.002l0.002-0.002c0.25-0.327 0.583-0.635 0.895-0.869s0.615-0.398 0.746-0.438c0.67-0.206 0.814-0.229 1.418-0.217 0.532 0.010 0.903 0.123 1.068 0.203 0.325 0.158 0.547 0.3 0.908 0.447 0.001 0 0.017 0.009 0.027 0.014 0.002 0.001 0.003 0.002 0.004 0.002s0.006 0.002 0.006 0.002l0.236 0.094h0.111c0.306 0.086 0.62 0.148 0.947 0.148s0.644-0.062 0.949-0.148h0.113l0.25-0.1c0.004-0.002 0.009-0.004 0.014-0.006-0 0 0.003-0.001 0.004-0.002 0.367-0.149 0.567-0.282 1.166-0.572-0.001 0.001 0.101-0.033 0.23-0.053 0.126-0.019 0.29-0.036 0.473-0.043zM49.395 19.301c0.004-0 0.008 0 0.012 0 0.374-0.013 0.822 0.018 1.191 0.131 0.761 0.235 1.463 0.743 1.969 1.406l0.004 0.006c0.471 0.618 0.794 1.371 0.961 2.172v0.004c0.169 0.809 0.185 1.67 0.098 2.539-0.022 0.218-0.050 0.324-0.059 0.342l-0.004 0.012c-0.004 0.009-0.010 0.018-0.027 0.031l-0.004 0.004-0.008 0.004-0.006 0.006-0.006 0.004c-0.001 0.001-0.014 0.004-0.025 0.008h-7.225l-0.084-0.010-0.076 0.010h-5.129c-0.035-0.481-0.089-0.964-0.182-1.449v-0.045l-0.029-0.148v-0.004c-0.224-1.072-0.608-2.137-1.182-3.123 0.077-0.122 0.155-0.244 0.242-0.357v-0.002l0.002-0.002c0.25-0.327 0.583-0.635 0.895-0.869s0.615-0.398 0.746-0.438c0.67-0.206 0.814-0.229 1.418-0.217 0.532 0.010 0.903 0.123 1.068 0.203 0.325 0.158 0.547 0.3 0.908 0.447 0.001 0 0.017 0.009 0.027 0.014 0.002 0.001 0.003 0.002 0.004 0.002s0.006 0.002 0.006 0.002l0.236 0.094h0.111c0.306 0.086 0.62 0.148 0.947 0.148s0.644-0.062 0.949-0.148h0.113l0.25-0.1c0.004-0.002 0.010-0.004 0.014-0.006-0 0 0.003-0.001 0.004-0.002 0.367-0.149 0.567-0.282 1.166-0.572-0.001 0.001 0.101-0.033 0.23-0.053 0.126-0.019 0.29-0.036 0.473-0.043zM38.273 19.469c0.050 0.052 0.101 0.103 0.15 0.156-0.049-0.053-0.1-0.104-0.15-0.156zM18.113 19.471c-0.058 0.062-0.115 0.123-0.172 0.188 0.057-0.064 0.114-0.126 0.172-0.188zM38.605 19.828c0.112 0.129 0.222 0.261 0.326 0.396-0.104-0.136-0.215-0.267-0.326-0.396zM32.686 19.982c0.401 0.011 0.832 0.061 1.217 0.178 1.028 0.317 1.966 1 2.643 1.887h0.004c0.632 0.826 1.054 1.828 1.275 2.887v0.004c0.222 1.066 0.245 2.19 0.131 3.322v0.002c-0.029 0.288-0.060 0.435-0.096 0.514l-0.006 0.014-0.002 0.004c-0.022 0.047-0.057 0.092-0.109 0.131l-0.012 0.010-0.012 0.008c-0.044 0.034-0.094 0.050-0.141 0.061h-9.301l-0.094-0.010-0.084 0.010h-9.279c-0.047-0.011-0.095-0.027-0.139-0.061l-0.023-0.016c-0.053-0.038-0.088-0.086-0.109-0.133l-0.002-0.004-0.006-0.014c-0.036-0.078-0.067-0.226-0.096-0.514v-0.002c-0.114-1.132-0.091-2.256 0.131-3.322l0.002-0.008c0.222-1.056 0.645-2.057 1.275-2.881v-0.002h0.002c0.677-0.887 1.765-1.618 2.223-1.758 0.864-0.265 1.109-0.305 1.891-0.289 0.712 0.014 1.213 0.161 1.469 0.285 0.439 0.213 0.714 0.395 1.176 0.58 0.003 0.001 0.005 0.003 0.008 0.004l0.27 0.105h0.1c0.394 0.116 0.8 0.189 1.211 0.189s0.817-0.073 1.211-0.189h0.102l0.268-0.105c0.002-0.001 0.004-0.003 0.006-0.004 0.464-0.186 0.714-0.356 1.5-0.736 0.118-0.057 0.516-0.127 1.012-0.145 0 0 0.002 0 0.002 0 0.124-0.004 0.252-0.006 0.385-0.002zM15.389 26.998c0 0.14-0 0.279 0.004 0.418-0.003-0.139-0.005-0.278-0.004-0.418zM41.014 27.063c0 0.1 0 0.201-0.002 0.301 0.002-0.1 0.002-0.2 0.002-0.301zM15.402 27.719c0.014 0.283 0.030 0.566 0.059 0.844-0.028-0.278-0.046-0.561-0.059-0.844zM40.998 27.764c-0.013 0.268-0.030 0.534-0.057 0.797 0.027-0.263 0.043-0.53 0.057-0.797z"></path>
</svg>
