<!-- Generated by IcoMoon.io -->
<svg version="1.1" xmlns="http://www.w3.org/2000/svg" width="58" height="32" viewBox="0 0 58 32">
<title>users-s</title>
<path d="M28.859 0c-4.447 0-8.068 3.615-8.068 8.063 0 4.453 3.621 8.068 8.068 8.068s8.068-3.616 8.068-8.068c0-4.448-3.621-8.063-8.068-8.063zM10.859 3.5c-3.474 0-6.303 2.824-6.303 6.299 0 3.479 2.829 6.303 6.303 6.303s6.305-2.825 6.305-6.303c0-3.475-2.83-6.299-6.305-6.299zM46.859 3.5c-3.474 0-6.303 2.824-6.303 6.299 0 3.479 2.828 6.305 6.303 6.305s6.305-2.826 6.305-6.305c0-3.475-2.83-6.299-6.305-6.299zM14.91 16.957c-0.748 0.021-1.492 0.191-2.174 0.52-0.334 0.163-0.62 0.34-0.895 0.449h-0.002c-0.302 0.123-0.625 0.184-0.955 0.184h-0.051c-0.33 0-0.653-0.062-0.955-0.184h-0.002c-0.274-0.109-0.56-0.287-0.894-0.449-0.623-0.301-1.298-0.468-1.98-0.51-0.17-0.010-0.341-0.012-0.512-0.008h-0.002c-0.513 0.015-1.026 0.098-1.516 0.246-1.302 0.401-2.439 1.24-3.26 2.314-0.758 0.99-1.242 2.153-1.492 3.35v0.002c-0.25 1.2-0.27 2.426-0.148 3.625 0.029 0.287 0.066 0.62 0.217 0.949v0.002c0.125 0.279 0.321 0.521 0.568 0.701 0.246 0.188 0.536 0.306 0.836 0.348l0.025 0.004h9.113c0.008 0 0.014-0.001 0.021-0.002h0.002c0.010 0.001 0.022 0.002 0.033 0.002h2.092c-0.057-1.268 0.009-2.571 0.26-3.881v-0.033l0.043-0.199v-0.002c0.372-1.783 1.098-3.553 2.277-5.094 0.523-0.685 1.133-1.306 1.809-1.852-0.203-0.088-0.407-0.169-0.619-0.234h-0.002c-0.491-0.149-1.004-0.233-1.518-0.248-0.107-0.003-0.213-0.003-0.32 0zM50.912 16.957c-0.748 0.021-1.492 0.191-2.174 0.52h-0.002v0.002c-0.334 0.163-0.62 0.338-0.895 0.447h-0.002c-0.302 0.123-0.625 0.184-0.955 0.184h-0.051c-0.33-0-0.654-0.062-0.955-0.184-0.274-0.109-0.562-0.285-0.896-0.447v-0.002c-0.623-0.301-1.298-0.468-1.98-0.51-0.17-0.010-0.341-0.012-0.512-0.008h-0.002c-0.513 0.015-1.026 0.098-1.516 0.246-0.212 0.065-0.417 0.147-0.619 0.234 0.675 0.545 1.282 1.165 1.805 1.85l0.002 0.002c1.179 1.541 1.905 3.311 2.277 5.094v0.004l0.043 0.197v0.035c0.25 1.309 0.316 2.611 0.26 3.879h2.092c0.009 0 0.016-0.001 0.023-0.002 0.010 0.001 0.021 0.002 0.033 0.002l9.141-0.002c0.3-0.041 0.588-0.162 0.834-0.35 0.247-0.181 0.443-0.423 0.568-0.701 0.152-0.329 0.189-0.662 0.217-0.949 0.121-1.198 0.103-2.427-0.146-3.627v-0.002c-0.25-1.197-0.734-2.36-1.492-3.35-0.82-1.074-1.957-1.914-3.26-2.314h-0.002c-0.491-0.149-1.002-0.233-1.516-0.248-0.107-0.003-0.213-0.003-0.32 0zM23.266 17.227c-0.657 0.019-1.313 0.126-1.941 0.316h-0.002c-1.667 0.513-3.122 1.586-4.172 2.961-0.97 1.267-1.59 2.757-1.91 4.289v0.002c-0.32 1.536-0.342 3.106-0.188 4.641 0.037 0.367 0.082 0.794 0.275 1.215v0.002c0.16 0.357 0.413 0.665 0.73 0.896 0.315 0.241 0.684 0.394 1.068 0.447l0.031 0.004h11.666c0.010 0 0.020-0.001 0.029-0.002 0 0 0.002 0 0.002 0 0.013 0.001 0.027 0.002 0.041 0.002l11.699-0.004c0.384-0.053 0.751-0.207 1.066-0.447 0.316-0.232 0.57-0.54 0.73-0.896v-0.002c0.194-0.421 0.241-0.847 0.277-1.215 0.155-1.534 0.13-3.105-0.189-4.641v-0.002c-0.32-1.532-0.94-3.022-1.91-4.289-1.049-1.375-2.505-2.448-4.172-2.961h-0.002c-1.677-0.509-3.538-0.424-5.133 0.346h-0.002v0.002c-0.427 0.208-0.795 0.434-1.146 0.574h-0.002c-0.386 0.157-0.8 0.234-1.223 0.234h-0.065c-0.422-0-0.835-0.079-1.221-0.234h-0.002c-0.351-0.14-0.718-0.366-1.146-0.574v-0.002h-0.002c-0.797-0.385-1.659-0.598-2.533-0.652-0.219-0.013-0.437-0.016-0.656-0.010z"></path>
</svg>
