<!-- Generated by IcoMoon.io -->
<svg version="1.1" xmlns="http://www.w3.org/2000/svg" width="32" height="32" viewBox="0 0 32 32">
<title>video-camera-r</title>
<path d="M5.859 3.5c-3.221 0-5.859 2.638-5.859 5.859 0 1.469 0.553 2.812 1.455 3.844-0.869 0.551-1.455 1.515-1.455 2.609v9.219c0 1.696 1.398 3.094 3.094 3.094h18.438c1.696 0 3.094-1.398 3.094-3.094v-0.51l5.463 3.414c0.188 0.119 0.417 0.19 0.662 0.19 0.69 0 1.25-0.56 1.25-1.25 0 0 0 0 0 0v0-12.906c0 0 0 0 0 0 0-0.69-0.56-1.25-1.25-1.25-0.245 0-0.474 0.071-0.667 0.193l0.005-0.003-5.463 3.414v-0.51c0-1.639-1.309-2.987-2.928-3.076 0.68-0.957 1.084-2.121 1.084-3.377 0-3.221-2.638-5.859-5.859-5.859-2.553 0-4.734 1.661-5.531 3.953-0.797-2.292-2.978-3.953-5.531-3.953zM5.859 6c1.87 0 3.359 1.49 3.359 3.359s-1.49 3.359-3.359 3.359c-1.87 0-3.359-1.49-3.359-3.359s1.49-3.359 3.359-3.359zM16.922 6c1.87 0 3.359 1.49 3.359 3.359s-1.49 3.359-3.359 3.359c-1.87 0-3.359-1.49-3.359-3.359s1.49-3.359 3.359-3.359zM3.094 15.219h18.438c0.332 0 0.594 0.261 0.594 0.594v2.766c0 0 0 0.001 0 0.001s0 0.001 0 0.001v0c0.001 1.215 0.001 2.431 0 3.648 0 0.012 0 0.025 0 0.037v2.766c0 0.332-0.261 0.594-0.594 0.594h-18.438c-0.332 0-0.594-0.261-0.594-0.594v-9.219c0-0.332 0.261-0.594 0.594-0.594zM29.5 16.225v8.395l-4.875-3.047c0-0.767 0-1.535 0-2.301z"></path>
</svg>
