<!-- Generated by IcoMoon.io -->
<svg version="1.1" xmlns="http://www.w3.org/2000/svg" width="32" height="32" viewBox="0 0 32 32">
<title>volume-mute-l</title>
<path d="M19.821 0.009c-0.208-0.019-0.415-0.007-0.618 0.034-0.405 0.081-0.786 0.276-1.089 0.579l-5.938 5.94c0.493 0.493 0.986 0.986 1.478 1.478l5.94-5.938c0.013-0.013 0.022-0.016 0.038-0.010s0.022 0.014 0.022 0.034v11.913c0.697 0.697 1.394 1.394 2.091 2.091v-14.005c0-0.856-0.521-1.638-1.313-1.966-0.198-0.082-0.405-0.132-0.613-0.151zM1.66 0.223c-0.577 0.001-1.044 0.469-1.044 1.046 0 0.294 0.121 0.559 0.316 0.749v0c9.363 9.361 18.726 18.724 28.089 28.089 0.19 0.195 0.456 0.316 0.75 0.316 0.578 0 1.046-0.468 1.046-1.046 0-0.293-0.121-0.558-0.315-0.748v0c-9.363-9.365-18.728-18.73-28.091-28.091-0.19-0.194-0.455-0.315-0.748-0.315-0.001 0-0.001 0-0.002 0v0zM4.84 9.667c-0.203 0.325-0.325 0.705-0.325 1.111v10.812c0 1.163 0.965 2.127 2.127 2.127h3.445l8.026 8.026c0.405 0.405 0.95 0.625 1.505 0.625 0.275 0 0.552-0.054 0.813-0.161l0.002-0.002c0.791-0.329 1.312-1.106 1.312-1.964v-3.668c-0.697-0.697-1.394-1.394-2.091-2.091v5.76c0 0.016-0.009 0.025-0.024 0.031-0.004 0.001-0.009 0.002-0.012 0.002-0.008 0-0.016-0.002-0.024-0.010l-8.642-8.639h-4.31c-0.031 0-0.036-0.005-0.036-0.036v-10.156c-0.589-0.589-1.178-1.178-1.767-1.767z"></path>
</svg>
