<!-- Generated by IcoMoon.io -->
<svg version="1.1" xmlns="http://www.w3.org/2000/svg" width="32" height="32" viewBox="0 0 32 32">
<title>volume-low-l</title>
<path d="M17.767 0.009c-0.208-0.019-0.415-0.009-0.618 0.031-0.405 0.081-0.786 0.276-1.089 0.579l-8.026 8.029h-3.445c-1.163 0-2.127 0.965-2.127 2.127v10.813c0 1.163 0.965 2.127 2.127 2.127h3.445l8.026 8.026c0.405 0.405 0.95 0.625 1.505 0.625 0.275 0 0.552-0.054 0.813-0.161l0.002-0.002c0.791-0.329 1.312-1.106 1.312-1.964v-28.115c0-0.856-0.521-1.638-1.313-1.966-0.198-0.082-0.405-0.13-0.613-0.149zM17.579 2.091c0.017 0.007 0.022 0.014 0.022 0.034v28.115c0 0.016-0.009 0.025-0.024 0.031-0.004 0.001-0.009 0.002-0.012 0.002-0.008 0-0.016-0.002-0.024-0.010l-8.642-8.639h-4.31c-0.031 0-0.036-0.005-0.036-0.036v-10.813c0-0.031 0.005-0.036 0.036-0.036h4.31l8.642-8.639c0.013-0.013 0.022-0.016 0.038-0.010zM25.733 9.714c0 0 0 0 0 0-0.578 0-1.046 0.469-1.046 1.046 0 0.295 0.122 0.561 0.318 0.751v0c2.589 2.589 2.589 6.754 0 9.344-0.189 0.189-0.307 0.451-0.307 0.74 0 0.578 0.469 1.047 1.047 1.047 0.289 0 0.551-0.117 0.74-0.307v0c3.389-3.389 3.389-8.916 0-12.305-0.19-0.196-0.456-0.317-0.751-0.317-0.001 0-0.001 0-0.002 0v0z"></path>
</svg>
