<!-- Generated by IcoMoon.io -->
<svg version="1.1" xmlns="http://www.w3.org/2000/svg" width="32" height="32" viewBox="0 0 32 32">
<title>volume-medium-r</title>
<path d="M13.859 1.724c-0.231-0.021-0.462-0.009-0.688 0.036-0.451 0.090-0.875 0.308-1.212 0.645l-6.817 6.817h-2.775c-1.291 0-2.368 1.077-2.368 2.368v9.388c0 1.291 1.077 2.366 2.368 2.366h2.775l6.817 6.817c0.451 0.451 1.054 0.694 1.672 0.694 0.306 0 0.615-0.060 0.904-0.179l0.002-0.002h0.002c0.88-0.366 1.46-1.233 1.46-2.187v-24.408c0-0.952-0.58-1.823-1.46-2.188-0.22-0.091-0.45-0.146-0.681-0.167zM13.143 5.262v22.042l-6.817-6.817h-3.469v-8.408h3.469zM26.987 5.928c-0.788 0.001-1.426 0.641-1.426 1.429 0 0.402 0.166 0.765 0.433 1.024v0c4.378 4.378 4.378 11.43 0 15.808-0.27 0.26-0.438 0.625-0.438 1.029 0 0.789 0.64 1.429 1.429 1.429 0.404 0 0.769-0.168 1.029-0.437v0c5.469-5.469 5.469-14.379 0-19.848-0.26-0.267-0.623-0.433-1.025-0.433-0.001 0-0.002 0-0.002 0v0zM21.987 10.144c-0.789 0-1.428 0.64-1.428 1.429 0 0.402 0.166 0.765 0.433 1.024v0c2.048 2.048 2.048 5.327 0 7.375-0.27 0.26-0.438 0.625-0.438 1.029 0 0.789 0.64 1.429 1.429 1.429 0.404 0 0.769-0.168 1.029-0.437v0c3.14-3.14 3.14-8.275 0-11.415-0.26-0.267-0.623-0.433-1.025-0.433v0z"></path>
</svg>
