<!-- Generated by IcoMoon.io -->
<svg version="1.1" xmlns="http://www.w3.org/2000/svg" width="32" height="32" viewBox="0 0 32 32">
<title>volume-high-l</title>
<path d="M26.404 3.765c-0.441 0.001-0.799 0.359-0.799 0.8 0 0.225 0.092 0.427 0.241 0.573v0c6.083 6.083 6.083 15.922 0 22.006-0.145 0.145-0.235 0.345-0.235 0.566 0 0.442 0.358 0.801 0.801 0.801 0.221 0 0.421-0.090 0.566-0.235v0c6.695-6.695 6.695-17.574 0-24.268-0.146-0.15-0.349-0.243-0.574-0.243 0 0-0.001 0-0.001 0v0zM11.704 3.772c-0.159-0.015-0.318-0.007-0.472 0.024-0.31 0.062-0.601 0.211-0.833 0.443l-6.138 6.14h-2.634c-0.889 0-1.627 0.738-1.627 1.627v8.268c0 0.889 0.738 1.627 1.627 1.627h2.634l6.138 6.138c0.31 0.31 0.727 0.478 1.151 0.478 0.21 0 0.422-0.041 0.621-0.123l0.002-0.002c0.605-0.251 1.004-0.846 1.004-1.502v-21.5c0-0.655-0.398-1.253-1.004-1.504-0.152-0.063-0.31-0.099-0.469-0.114zM11.561 5.364c0.013 0.005 0.017 0.011 0.017 0.026v21.5c0 0.012-0.007 0.019-0.018 0.024-0.003 0.001-0.007 0.002-0.009 0.002-0.006 0-0.012-0.001-0.018-0.007l-6.608-6.607h-3.296c-0.024 0-0.028-0.004-0.028-0.028v-8.268c0-0.024 0.004-0.028 0.028-0.028h3.296l6.608-6.607c0.010-0.010 0.017-0.012 0.029-0.007zM22.103 7.478c0 0 0 0 0 0-0.442 0-0.8 0.358-0.8 0.8 0 0.225 0.092 0.427 0.241 0.573v0c4.033 4.033 4.033 10.546 0 14.579-0.145 0.145-0.235 0.345-0.235 0.566 0 0.442 0.358 0.801 0.801 0.801 0.221 0 0.421-0.090 0.566-0.235v0c4.644-4.644 4.644-12.198 0-16.842-0.145-0.15-0.349-0.242-0.573-0.243v0zM17.796 11.193c0 0 0 0 0 0-0.442 0-0.8 0.358-0.8 0.8 0 0.225 0.093 0.429 0.243 0.575v0c1.98 1.98 1.98 5.165 0 7.145-0.145 0.145-0.235 0.345-0.235 0.566 0 0.442 0.358 0.801 0.801 0.801 0.221 0 0.421-0.090 0.566-0.235v0c2.592-2.592 2.592-6.818 0-9.41-0.146-0.15-0.349-0.243-0.574-0.243 0 0-0.001 0-0.001 0v0z"></path>
</svg>
