<!-- Generated by IcoMoon.io -->
<svg version="1.1" xmlns="http://www.w3.org/2000/svg" width="32" height="32" viewBox="0 0 32 32">
<title>warning-r</title>
<path d="M15.922 2.002c-0.522 0.028-0.97 0.319-1.217 0.741l-0.004 0.007-14.5 25.116c-0.126 0.215-0.201 0.474-0.201 0.75 0 0.828 0.671 1.5 1.5 1.5h29.001c0.828 0 1.5-0.672 1.5-1.5 0-0.276-0.075-0.535-0.205-0.757l0.004 0.007-14.5-25.116c-0.264-0.452-0.747-0.75-1.299-0.75-0.027 0-0.055 0.001-0.082 0.002h0.004zM16 6.5l11.903 20.616h-23.805zM15.979 11.752c-0.819 0.012-1.479 0.679-1.479 1.5 0 0.008 0 0.015 0 0.023v-0.001 7.342c0 0.005 0 0.011 0 0.017 0 0.828 0.672 1.5 1.5 1.5s1.5-0.672 1.5-1.5c0-0.006 0-0.012 0-0.018v0.001-7.342c0-0.006 0-0.014 0-0.022 0-0.829-0.672-1.5-1.5-1.5-0.008 0-0.015 0-0.023 0h0.001zM16 23.422c-0.005 0-0.011 0-0.018 0-0.829 0-1.5 0.672-1.5 1.5s0.672 1.5 1.5 1.5c0.006 0 0.012 0 0.018 0h-0.001c0.005 0 0.011 0 0.017 0 0.828 0 1.5-0.672 1.5-1.5s-0.672-1.5-1.5-1.5c-0.006 0-0.012 0-0.018 0h0.001z"></path>
</svg>
