<!-- Generated by IcoMoon.io -->
<svg version="1.1" xmlns="http://www.w3.org/2000/svg" width="32" height="32" viewBox="0 0 32 32">
<title>warning-l</title>
<path d="M15.956 2.001c-0.295 0.016-0.549 0.181-0.689 0.42l-0.002 0.004-15.15 26.238c-0.072 0.122-0.114 0.269-0.114 0.425 0 0.469 0.381 0.85 0.85 0.85 0 0 0 0 0 0h30.299c0 0 0 0 0 0 0.469 0 0.85-0.381 0.85-0.85 0-0.157-0.042-0.303-0.116-0.429l0.002 0.004-15.148-26.238c-0.15-0.256-0.423-0.425-0.736-0.425-0.016 0-0.032 0-0.047 0.001h0.002zM16.001 4.55l13.676 23.688h-27.354zM15.987 12.697c-0.463 0.008-0.836 0.385-0.836 0.85 0 0.005 0 0.009 0 0.014v-0.001 7.67c0 0.008 0 0.018 0 0.027 0 0.469 0.381 0.85 0.85 0.85s0.85-0.381 0.85-0.85c0-0.010 0-0.019 0-0.029v0.001-7.67c0-0.004 0-0.009 0-0.013 0-0.469-0.381-0.85-0.85-0.85-0.005 0-0.009 0-0.014 0h0.001zM16.001 24.38c-0.008 0-0.018 0-0.027 0-0.469 0-0.85 0.381-0.85 0.85s0.381 0.85 0.85 0.85c0.010 0 0.019 0 0.029 0h-0.001c0.008 0 0.018 0 0.027 0 0.469 0 0.85-0.381 0.85-0.85s-0.381-0.85-0.85-0.85c-0.010 0-0.019 0-0.029 0h0.001z"></path>
</svg>
